<svg width="1440" height="200" viewBox="0 0 1440 200" fill="none" xmlns="http://www.w3.org/2000/svg">
<rect width="1453" height="200" transform="translate(-9)" fill="white"/>
<path d="M1045.54 90.6469C1045.54 90.6469 1048.99 104.795 1049.54 107.092C1050.18 109.772 1051.34 110.759 1054.68 110.094L1056.84 101.322C1057.39 99.1427 1057.75 97.5893 1058.1 95.3728H1058.17C1058.41 97.6111 1058.76 99.1492 1059.21 101.329C1059.21 101.329 1060.09 105.311 1060.54 107.403C1060.99 109.494 1062.25 110.812 1065.52 110.094L1070.66 90.6484H1066.51L1064.75 99.0558C1064.28 101.503 1063.85 103.415 1063.52 105.654H1063.47C1063.17 103.438 1062.78 101.601 1062.31 99.2168L1060.48 90.6484H1056.16L1054.2 99.0009C1053.65 101.539 1053.13 103.589 1052.8 105.751H1052.74C1052.41 103.715 1051.96 101.139 1051.47 98.6818C1051.47 98.6818 1050.31 92.7076 1049.9 90.6484L1045.54 90.649L1045.54 90.6469ZM1085.08 90.6469V110.093H1089.02V105.964V90.646H1085.08V90.6469ZM1140.69 90.6469V104.993C1140.69 106.97 1141.06 108.356 1141.86 109.203C1142.56 109.943 1143.7 110.423 1145.08 110.423C1146.24 110.423 1147.39 110.201 1147.93 109.999L1147.88 106.914C1147.48 107.013 1147.02 107.092 1146.38 107.092C1145.04 107.092 1144.59 106.23 1144.59 104.455V98.966H1148.03V95.2454H1144.59V90.647H1140.69L1140.69 90.6469ZM1076.25 95.1549C1073.8 95.1549 1071.85 95.844 1070.79 96.4576L1071.56 99.1187C1072.54 98.506 1074.08 97.9988 1075.55 97.9988C1077.97 97.9926 1078.37 99.3705 1078.37 100.254V100.463C1073.08 100.455 1069.75 102.284 1069.75 106.013C1069.75 108.289 1071.45 110.423 1074.4 110.423C1076.22 110.423 1077.74 109.697 1078.65 108.534H1078.74C1078.74 108.534 1079.35 111.059 1082.67 110.094C1082.5 109.043 1082.44 107.922 1082.44 106.573V101.378C1082.44 98.0671 1081.03 95.155 1076.25 95.155L1076.25 95.1549ZM1099.87 95.1549C1097.4 95.1549 1096.29 96.4072 1095.62 97.4697H1095.56V95.4847H1091.79V110.094H1095.76V101.526C1095.76 101.125 1095.81 100.7 1095.95 100.33C1096.28 99.4677 1097.08 98.4587 1098.36 98.4587C1099.96 98.4587 1100.71 99.8129 1100.71 101.767V110.094H1104.68V101.422C1104.68 101.039 1104.73 100.577 1104.84 100.238C1105.17 99.2569 1106.03 98.4585 1107.22 98.4585C1108.85 98.4585 1109.63 99.7892 1109.63 102.089V110.094H1113.6V101.489C1113.6 96.9516 1111.29 95.155 1108.69 95.155C1107.54 95.155 1106.63 95.4438 1105.81 95.9485C1105.12 96.3725 1104.5 96.9748 1103.96 97.7681H1103.9C1103.27 96.1936 1101.79 95.155 1099.87 95.155L1099.87 95.1549ZM1121.67 95.1549C1119.22 95.1549 1117.27 95.844 1116.21 96.4576L1116.99 99.1187C1117.96 98.506 1119.51 97.9988 1120.97 97.9988C1123.39 97.9926 1123.79 99.3705 1123.79 100.254V100.463C1118.51 100.455 1115.17 102.284 1115.17 106.013C1115.17 108.289 1116.87 110.423 1119.83 110.423C1121.64 110.423 1123.17 109.697 1124.08 108.534H1124.17C1124.17 108.534 1124.77 111.059 1128.1 110.094C1127.92 109.043 1127.87 107.922 1127.87 106.573V101.378C1127.87 98.0671 1126.45 95.155 1121.67 95.155L1121.67 95.1549ZM1138.16 95.1549C1136.64 95.1549 1134.91 96.1362 1134.18 98.2398H1134.07V95.4845H1130.5V110.094H1134.57V102.613C1134.57 102.209 1134.6 101.857 1134.66 101.535C1134.96 99.9677 1136.16 98.9659 1137.88 98.9659C1138.35 98.9659 1138.69 99.0171 1139.06 99.0699V95.2453C1138.75 95.1833 1138.54 95.1548 1138.16 95.1548L1138.16 95.1549ZM1078.5 103.052V104.875C1078.5 105.144 1078.47 105.422 1078.4 105.665C1078.09 106.678 1077.05 107.533 1075.73 107.533C1074.64 107.533 1073.77 106.913 1073.77 105.601C1073.77 103.594 1075.98 103.039 1078.5 103.052H1078.5ZM1123.92 103.052V104.875C1123.92 105.144 1123.9 105.422 1123.82 105.665C1123.52 106.678 1122.47 107.533 1121.16 107.533C1120.06 107.533 1119.2 106.913 1119.2 105.601C1119.2 103.594 1121.41 103.039 1123.92 103.052H1123.92Z" fill="#2D2D2D"/>
<path d="M1169.38 83.614C1168.1 83.614 1167.09 84.3259 1167.09 85.1926L1167.86 93.9596C1167.95 94.4878 1168.6 94.8952 1169.38 94.8952C1170.16 94.8942 1170.81 94.4871 1170.89 93.9596L1171.67 85.1926C1171.67 84.326 1170.66 83.6141 1169.38 83.6141L1169.38 83.614ZM1156.76 90.6464C1156.1 90.6621 1155.35 91.1632 1154.87 91.9924C1154.23 93.0966 1154.34 94.3305 1155.09 94.7634L1163.07 98.479C1163.57 98.6644 1164.24 98.3104 1164.64 97.6346C1164.64 97.6345 1164.64 97.6343 1164.64 97.6342C1165.03 96.9551 1165 96.1915 1164.58 95.8528L1157.38 90.7985C1157.19 90.6901 1156.98 90.6413 1156.76 90.6465L1156.76 90.6464ZM1181.99 90.6464C1181.77 90.6412 1181.56 90.69 1181.38 90.7984L1174.17 95.8527C1173.76 96.1914 1173.73 96.955 1174.12 97.6341L1174.12 97.6345C1174.51 98.3103 1175.19 98.6643 1175.69 98.4789L1183.67 94.7635C1184.42 94.3306 1184.53 93.0967 1183.89 91.9925C1183.41 91.1633 1182.66 90.6622 1182 90.6465L1181.99 90.6464ZM1163.37 102.213C1163.26 102.212 1163.16 102.228 1163.07 102.263L1155.09 105.974C1154.34 106.409 1154.23 107.643 1154.87 108.749C1155.51 109.851 1156.63 110.374 1157.38 109.942L1164.59 104.892C1165 104.549 1165.03 103.786 1164.64 103.107L1164.64 103.109C1164.32 102.556 1163.81 102.219 1163.37 102.213L1163.37 102.213ZM1175.39 102.213C1174.94 102.219 1174.44 102.556 1174.12 103.109L1174.12 103.107C1173.73 103.786 1173.76 104.549 1174.17 104.892L1181.38 109.942C1182.13 110.375 1183.25 109.851 1183.89 108.749C1184.53 107.643 1184.42 106.409 1183.67 105.974L1175.69 102.263C1175.59 102.228 1175.49 102.212 1175.39 102.213L1175.39 102.213ZM1169.38 105.847C1168.6 105.847 1167.95 106.253 1167.86 106.78L1167.09 115.547C1167.09 116.415 1168.1 117.125 1169.38 117.125C1170.66 117.125 1171.67 116.415 1171.67 115.547L1170.89 106.78C1170.81 106.253 1170.16 105.848 1169.38 105.847H1169.38H1169.38Z" fill="#2D2D2D"/>
<path d="M914.01 101.419C914.01 106.454 910.07 110.165 905.236 110.165C900.402 110.165 896.462 106.454 896.462 101.419C896.462 96.3479 900.402 92.6729 905.236 92.6729C910.07 92.6729 914.01 96.3479 914.01 101.419ZM910.169 101.419C910.169 98.2722 907.886 96.1192 905.236 96.1192C902.586 96.1192 900.303 98.2722 900.303 101.419C900.303 104.534 902.586 106.719 905.236 106.719C907.886 106.719 910.169 104.53 910.169 101.419Z" fill="#2D2D2D"/>
<path d="M932.937 101.419C932.937 106.454 928.998 110.165 924.163 110.165C919.329 110.165 915.39 106.454 915.39 101.419C915.39 96.3519 919.329 92.6729 924.163 92.6729C928.998 92.6729 932.937 96.3479 932.937 101.419ZM929.096 101.419C929.096 98.2722 926.813 96.1192 924.163 96.1192C921.513 96.1192 919.23 98.2722 919.23 101.419C919.23 104.534 921.513 106.719 924.163 106.719C926.813 106.719 929.096 104.53 929.096 101.419Z" fill="#2D2D2D"/>
<path d="M951.076 93.2012V108.903C951.076 115.362 947.266 118 942.763 118C938.524 118 935.973 115.165 935.011 112.846L938.355 111.454C938.95 112.878 940.409 114.558 942.759 114.558C945.642 114.558 947.428 112.779 947.428 109.432V108.174H947.294C946.434 109.234 944.778 110.161 942.688 110.161C938.315 110.161 934.309 106.352 934.309 101.45C934.309 96.5135 938.315 92.6729 942.688 92.6729C944.774 92.6729 946.431 93.5995 947.294 94.6287H947.428V93.2052H951.076V93.2012ZM947.7 101.45C947.7 98.3708 945.646 96.1192 943.031 96.1192C940.382 96.1192 938.162 98.3708 938.162 101.45C938.162 104.499 940.382 106.719 943.031 106.719C945.646 106.719 947.7 104.499 947.7 101.45Z" fill="#2D2D2D"/>
<path d="M957.089 83.9976V109.628H953.343V83.9976H957.089Z" fill="#2D2D2D"/>
<path d="M971.687 104.297L974.668 106.285C973.706 107.708 971.387 110.161 967.381 110.161C962.412 110.161 958.702 106.32 958.702 101.415C958.702 96.2137 962.444 92.6687 966.951 92.6687C971.49 92.6687 973.71 96.2807 974.435 98.2326L974.833 99.2263L963.142 104.069C964.037 105.823 965.429 106.718 967.381 106.718C969.337 106.718 970.693 105.756 971.687 104.297ZM962.511 101.151L970.326 97.9053C969.896 96.813 968.603 96.052 967.081 96.052C965.129 96.052 962.412 97.7752 962.511 101.151Z" fill="#2D2D2D"/>
<path d="M882.282 99.1435V95.433H894.786C894.909 96.0796 894.972 96.8446 894.972 97.6727C894.972 100.457 894.211 103.899 891.758 106.352C889.372 108.836 886.324 110.161 882.286 110.161C874.802 110.161 868.509 104.065 868.509 96.5804C868.509 89.0962 874.802 83 882.286 83C886.427 83 889.376 84.6246 891.592 86.7421L888.974 89.3604C887.385 87.8699 885.232 86.7106 882.282 86.7106C876.817 86.7106 872.543 91.1151 872.543 96.5804C872.543 102.046 876.817 106.45 882.282 106.45C885.827 106.45 887.846 105.027 889.14 103.733C890.189 102.685 890.879 101.186 891.151 99.1396L882.282 99.1435Z" fill="#2D2D2D"/>
<g clip-path="url(#clip0_108_10007)">
<path fill-rule="evenodd" clip-rule="evenodd" d="M754.633 110.371C747.916 115.346 738.181 118 729.799 118C718.046 118 707.465 113.632 699.461 106.367C698.832 105.796 699.395 105.017 700.15 105.462C708.788 110.513 719.47 113.551 730.503 113.551C737.944 113.551 746.13 112.004 753.656 108.794C754.794 108.308 755.744 109.542 754.633 110.371Z" fill="#2D2D2D"/>
<path fill-rule="evenodd" clip-rule="evenodd" d="M757.425 107.161C756.569 106.059 751.749 106.64 749.586 106.898C748.927 106.979 748.826 106.402 749.42 105.988C753.259 103.273 759.558 104.057 760.292 104.967C761.027 105.882 760.101 112.226 756.494 115.255C755.94 115.72 755.412 115.472 755.659 114.855C756.469 112.823 758.285 108.268 757.425 107.161Z" fill="#2D2D2D"/>
<path fill-rule="evenodd" clip-rule="evenodd" d="M749.737 86.8222V84.1832C749.737 83.7838 750.039 83.5159 750.401 83.5159H762.159C762.536 83.5159 762.838 83.7889 762.838 84.1832V86.4431C762.833 86.8222 762.516 87.3177 761.953 88.1013L755.86 96.8425C758.124 96.7868 760.514 97.1256 762.567 98.2884C763.029 98.5512 763.155 98.9355 763.19 99.3146V102.131C763.19 102.515 762.768 102.965 762.325 102.732C758.708 100.826 753.903 100.619 749.903 102.752C749.496 102.975 749.068 102.53 749.068 102.146V99.4714C749.068 99.0416 749.073 98.3086 749.501 97.6564L756.559 87.4845H750.416C750.039 87.4845 749.737 87.2166 749.737 86.8222Z" fill="#2D2D2D"/>
<path fill-rule="evenodd" clip-rule="evenodd" d="M706.846 103.288H703.268C702.926 103.263 702.655 103.005 702.629 102.676V84.2286C702.629 83.8595 702.936 83.5663 703.319 83.5663H706.654C707.001 83.5814 707.278 83.8494 707.303 84.1831V86.5946H707.369C708.239 84.264 709.874 83.177 712.078 83.177C714.317 83.177 715.716 84.264 716.722 86.5946C717.587 84.264 719.554 83.177 721.662 83.177C723.162 83.177 724.802 83.7988 725.803 85.1942C726.935 86.7463 726.704 89.0011 726.704 90.9778L726.699 102.621C726.699 102.99 726.392 103.288 726.009 103.288H722.437C722.08 103.263 721.793 102.975 721.793 102.621V92.8433C721.793 92.0648 721.864 90.1234 721.693 89.3853C721.426 88.1467 720.626 87.7978 719.59 87.7978C718.724 87.7978 717.819 88.3792 717.451 89.3095C717.084 90.2397 717.119 91.7968 717.119 92.8433V102.621C717.119 102.99 716.812 103.288 716.43 103.288H712.858C712.496 103.263 712.214 102.975 712.214 102.621L712.209 92.8433C712.209 90.7857 712.546 87.7574 710.005 87.7574C707.434 87.7574 707.535 90.7099 707.535 92.8433V102.621C707.535 102.99 707.228 103.288 706.846 103.288" fill="#2D2D2D"/>
<path fill-rule="evenodd" clip-rule="evenodd" d="M772.961 83.177C778.269 83.177 781.142 87.7574 781.142 93.5814C781.142 99.2083 777.967 103.672 772.961 103.672C767.749 103.672 764.911 99.0921 764.911 93.3843C764.911 87.6411 767.784 83.177 772.961 83.177ZM772.991 86.9434C770.355 86.9434 770.189 90.5531 770.189 92.8029C770.189 95.0577 770.154 99.8706 772.961 99.8706C775.733 99.8706 775.864 95.9879 775.864 93.6219C775.864 92.0648 775.799 90.2043 775.331 88.7281C774.928 87.4439 774.128 86.9434 772.991 86.9434Z" fill="#2D2D2D"/>
<path fill-rule="evenodd" clip-rule="evenodd" d="M788.024 103.288H784.462C784.105 103.263 783.818 102.975 783.818 102.621L783.813 84.1679C783.843 83.8292 784.14 83.5663 784.502 83.5663H787.818C788.13 83.5814 788.386 83.7938 788.457 84.082V86.903H788.522C789.523 84.3802 790.927 83.177 793.397 83.177C795.002 83.177 796.567 83.7584 797.573 85.3509C798.509 86.8272 798.509 89.3095 798.509 91.0941V102.707C798.469 103.03 798.172 103.288 797.82 103.288H794.233C793.906 103.263 793.634 103.02 793.599 102.707V92.6866C793.599 90.6694 793.83 87.7169 791.36 87.7169C790.489 87.7169 789.689 88.3034 789.292 89.1932C788.789 90.3206 788.723 91.4429 788.723 92.6866V102.621C788.718 102.99 788.406 103.288 788.024 103.288" fill="#2D2D2D"/>
<path fill-rule="evenodd" clip-rule="evenodd" d="M740.364 94.4762C740.364 95.8766 740.399 97.0445 739.695 98.2882C739.126 99.2993 738.221 99.9211 737.22 99.9211C735.846 99.9211 735.041 98.8696 735.041 97.3175C735.041 94.2538 737.773 93.6977 740.364 93.6977V94.4762ZM743.971 103.238C743.735 103.45 743.393 103.465 743.126 103.324C741.939 102.333 741.722 101.873 741.073 100.927C739.111 102.939 737.718 103.541 735.177 103.541C732.163 103.541 729.824 101.675 729.824 97.9393C729.824 95.0222 731.393 93.0354 733.637 92.0647C735.579 91.2053 738.291 91.0536 740.364 90.816V90.3509C740.364 89.4965 740.429 88.4853 739.926 87.7472C739.494 87.0849 738.658 86.8119 737.919 86.8119C736.555 86.8119 735.343 87.5147 735.046 88.9707C734.986 89.2942 734.749 89.6127 734.422 89.6279L730.956 89.2538C730.664 89.1881 730.337 88.9505 730.422 88.5005C731.217 84.274 735.021 83 738.422 83C740.163 83 742.437 83.4651 743.81 84.7897C745.551 86.4226 745.385 88.6016 745.385 90.9727V96.5743C745.385 98.2578 746.08 98.9959 746.734 99.906C746.96 100.23 747.01 100.619 746.718 100.861C745.989 101.473 744.691 102.611 743.976 103.248L743.971 103.238" fill="#2D2D2D"/>
<path fill-rule="evenodd" clip-rule="evenodd" d="M693.468 94.4765C693.468 95.8769 693.503 97.0447 692.799 98.2884C692.23 99.2995 691.33 99.9214 690.324 99.9214C688.95 99.9214 688.15 98.8698 688.15 97.3177C688.15 94.254 690.882 93.6979 693.468 93.6979V94.4765ZM697.075 103.238C696.839 103.45 696.497 103.465 696.23 103.324C695.043 102.333 694.832 101.873 694.177 100.927C692.215 102.94 690.827 103.541 688.281 103.541C685.272 103.541 682.928 101.676 682.928 97.9396C682.928 95.0225 684.502 93.0356 686.741 92.065C688.683 91.2055 691.395 91.0538 693.468 90.8162V90.3511C693.468 89.4967 693.533 88.4856 693.035 87.7475C692.598 87.0852 691.762 86.8122 691.028 86.8122C689.664 86.8122 688.447 87.5149 688.15 88.9709C688.09 89.2945 687.853 89.613 687.531 89.6281L684.06 89.254C683.768 89.1883 683.446 88.9507 683.526 88.5007C684.326 84.2743 688.125 83.0002 691.526 83.0002C693.267 83.0002 695.541 83.4654 696.914 84.7899C698.655 86.4229 698.489 88.6019 698.489 90.9729V96.5746C698.489 98.2581 699.183 98.9962 699.838 99.9062C700.069 100.23 700.119 100.619 699.827 100.862C699.098 101.473 697.8 102.611 697.085 103.248L697.075 103.238" fill="#2D2D2D"/>
</g>
<g clip-path="url(#clip1_108_10007)">
<path d="M597.622 100.003C597.523 99.8986 597.406 99.8124 597.276 99.7493C596.348 99.1943 595.436 98.6117 594.484 98.1051C593.822 97.7628 593.134 97.4738 592.426 97.2407C591.562 96.9433 591.062 96.2811 591.178 95.3769C591.204 95.244 591.196 95.1066 591.154 94.9777C591.113 94.8488 591.039 94.7327 590.94 94.6404C590.616 94.3188 590.635 94.2566 591.1 93.9903C591.013 93.8052 590.942 93.6132 590.886 93.4163C590.861 93.2708 590.877 93.1213 590.931 92.9841C591.076 92.6141 591.266 92.2631 591.405 91.8914C591.51 91.6044 591.405 91.4315 591.059 91.4263C590.091 91.395 589.141 91.1481 588.28 90.7036C587.818 90.5047 587.366 90.2813 586.927 90.0346C586.201 89.5747 585.476 89.6421 584.741 89.9464C584.591 90.0086 584.492 90.1936 584.37 90.3233L584.435 90.446L583.225 90.37C582.954 90.3527 582.648 90.2472 582.418 90.3371C582.006 90.4962 581.629 90.4339 581.235 90.3596L579.527 90.0328C579.667 90.4495 579.437 90.4236 579.224 90.3786C578.879 90.3198 578.519 90.2299 578.163 90.1815C577.907 90.1452 577.644 90.1521 577.279 90.1366L577.649 90.6241C576.98 90.8981 576.243 90.9657 575.535 90.8181C574.826 90.6706 574.178 90.3146 573.673 89.796C572.636 88.6722 572.35 87.2666 572.226 85.8195C572.069 84.0024 572.521 82.3081 573.35 80.7002C573.436 80.5057 573.51 80.3059 573.571 80.102L573.433 80.0017C573.214 80.1201 573.005 80.2559 572.808 80.408C571.865 81.2307 571.238 82.3561 571.035 83.5909C570.921 84.2825 570.948 84.9965 570.882 85.6967C570.87 85.835 570.723 85.963 570.639 86.0944C570.532 85.9785 570.348 85.8696 570.334 85.7486C570.277 85.2507 570.269 84.7458 570.253 84.2444C570.243 83.9505 570.253 83.6583 570.253 83.2572C570.046 83.3921 569.871 83.5701 569.74 83.779C569.608 83.9879 569.523 84.2227 569.491 84.4675C569.202 85.9128 569.413 87.2718 570.264 88.5062C570.368 88.6826 570.46 88.8657 570.54 89.0543L570.367 89.158C570.128 88.9035 569.908 88.6313 569.71 88.3437C569.453 87.9132 569.266 87.4395 569.019 86.9986C568.912 86.8463 568.788 86.7071 568.649 86.5837C568.581 86.7756 568.509 86.9657 568.45 87.1594C568.442 87.2172 568.446 87.2761 568.462 87.3323C568.623 88.5322 569.178 89.6445 570.041 90.4945C571.055 91.5093 572.269 92.2113 573.573 92.7818C573.713 92.844 573.931 92.9841 573.929 93.0844C573.947 93.7005 573.903 94.3169 573.796 94.9239C573.548 96.02 572.461 96.3797 571.538 95.7279C570.967 95.3233 570.774 95.3129 570.279 95.8402C569.784 96.3664 569.152 96.7437 568.453 96.9294C567.817 97.1023 567.186 97.3133 566.552 97.5242C566.224 97.6295 565.905 97.7601 565.597 97.9149C565.478 97.9772 565.412 98.1449 565.322 98.2607L565.646 98.4872L565.127 98.8451L565.487 99.1338C565.449 99.1837 565.418 99.2376 565.393 99.2946C565.355 99.4156 565.328 99.5401 565.295 99.6628C565.43 99.6871 565.578 99.7597 565.694 99.7251C565.967 99.634 566.232 99.5213 566.488 99.388C567.544 98.8693 568.614 98.3506 569.648 97.7922C570.682 97.2337 571.626 97.3271 572.63 97.8907C573.196 98.2071 573.858 98.3679 574.491 98.5442C575.025 98.6929 575.516 98.5149 575.943 98.1708C576.323 97.8631 576.697 97.5467 577.079 97.2389C577.37 96.9876 577.719 96.8137 578.095 96.7333C578.471 96.6529 578.861 96.6686 579.23 96.779C579.631 96.9076 580.024 97.0606 580.407 97.2372C581.164 97.5536 581.899 97.9288 582.674 98.195C583.863 98.6278 585.16 98.6654 586.372 98.3022C587.347 97.9962 588.147 98.0757 588.792 98.9194C589.105 99.324 589.484 99.4381 590.013 99.2808C591.201 98.9211 592.373 98.9488 593.481 99.5937C593.979 99.8841 594.477 100.176 594.992 100.43C595.473 100.662 595.967 100.865 596.47 101.041C596.636 101.079 596.81 101.067 596.968 101.005C597.127 100.944 597.263 100.836 597.359 100.695L597.895 100.486C597.817 100.318 597.726 100.156 597.622 100.003Z" fill="#2D2D2D"/>
<path d="M609.463 105.814C609.16 105.6 608.832 105.422 608.486 105.285C608 105.112 607.485 105.031 606.991 104.884C605.778 104.527 604.488 104.527 603.275 104.884C601.183 105.498 599.472 106.701 598.529 108.776C598.419 109.02 598.431 109.327 598.296 109.552C597.777 110.434 597.866 111.411 597.777 112.775C597.852 113.228 597.992 114.071 598.133 114.915C598.369 116.307 599.212 117.32 600.293 118.108C601.401 118.916 602.554 119.618 604.026 119.735C605.082 119.822 606.092 120.007 607.176 119.789C608.351 119.554 609.282 118.985 610.127 118.212C610.443 117.923 610.677 117.545 610.983 117.242C612.119 116.122 612.643 114.72 612.853 113.183C613.064 111.646 612.781 110.23 612.203 108.814C611.655 107.448 610.628 106.573 609.463 105.814ZM607.976 115.323C606.991 116.077 605.749 116.413 604.518 116.259C602.928 116.063 602.119 115.136 601.579 113.688C601.109 112.431 601.353 111.324 601.79 110.181C601.875 109.967 602.007 109.774 602.176 109.618C602.855 108.99 603.502 108.423 604.551 108.306C605.393 108.21 606.163 108.368 606.913 108.534C608.023 108.779 608.631 109.709 608.975 110.733C609.183 111.348 609.195 112.03 609.292 112.659C609.188 113.748 608.773 114.739 607.976 115.33V115.323Z" fill="#2D2D2D"/>
<path d="M584.478 86.032C584.395 86.1341 584.37 86.428 584.439 86.4816C584.739 86.6932 585.053 86.8861 585.378 87.059C585.473 87.206 585.587 87.4134 585.723 87.4238C586.211 87.4636 586.704 87.4394 587.231 87.4394L586.41 88.4197L586.74 88.5632L586.204 88.9833C586.334 89.0594 586.399 89.1078 586.472 89.1406C587.061 89.4069 587.661 89.6507 588.239 89.9394C589.146 90.3809 590.119 90.6728 591.119 90.8038C591.52 90.8626 591.79 90.7554 591.899 90.3318C591.96 90.1094 592.043 89.8939 592.148 89.6887C592.383 89.182 592.716 88.7271 593.129 88.3502C593.541 87.9733 594.024 87.6819 594.549 87.493C595.772 87.0452 596.349 86.2015 596.223 84.9601C596.185 84.5815 595.993 84.4051 595.635 84.4311C595.233 84.4531 594.833 84.5022 594.437 84.578C593.761 84.7164 593.209 84.5971 592.727 84.0594C592.186 83.4456 591.517 83.0393 590.635 83.169C590.102 83.2367 589.563 83.1189 589.107 82.8353C588.783 82.652 588.436 82.4411 588.083 82.4031C586.942 82.2455 585.785 82.53 584.847 83.1984C584.708 83.3235 584.58 83.4606 584.465 83.6081C584.726 83.6911 584.9 83.7412 585.068 83.8052C585.154 83.8381 585.301 83.902 585.3 83.9453C585.284 84.3204 585.585 84.291 585.801 84.3516C585.974 84.4017 586.147 84.4311 586.311 84.4708L586.328 84.5901C585.932 84.8702 585.531 85.1417 585.144 85.4338C584.9 85.6074 584.677 85.8081 584.478 86.032ZM595.853 84.9463C595.853 85.0414 595.912 85.2402 595.839 85.3163C595.703 85.4679 595.521 85.5701 595.32 85.6067C595.172 85.6339 595.019 85.607 594.889 85.5309C594.759 85.4547 594.66 85.3344 594.612 85.1918L595.853 84.9463Z" fill="#2D2D2D"/>
<path d="M568.761 101.368C568.961 101.34 569.157 101.288 569.345 101.214C569.902 100.913 570.452 100.6 570.986 100.263C571.712 99.8047 572.478 99.5022 573.348 99.5713C573.764 99.6141 574.178 99.6793 574.588 99.7667C575.751 99.9984 576.738 99.7356 577.561 98.8366C578.014 98.3765 578.495 97.9452 579.001 97.5451C579.237 97.3462 579.185 97.1664 578.948 97.1025C578.681 97.0135 578.394 97.0038 578.121 97.0748C577.801 97.1994 577.512 97.393 577.274 97.6419C576.138 98.8054 574.854 99.3431 573.215 98.8262C572.678 98.6598 572.124 98.5548 571.564 98.5133C571.195 98.4703 570.822 98.5301 570.485 98.6861C569.658 99.1339 568.842 99.6336 568.666 100.709L568.948 100.818L568.704 101.236L568.761 101.368Z" fill="#2D2D2D"/>
<path d="M593.147 95.2092C592.746 95.1833 592.349 95.1072 591.949 95.0761C591.674 95.0554 591.559 95.2058 591.591 95.4807C591.616 95.7933 591.749 96.0874 591.969 96.3115C592.188 96.5356 592.479 96.6754 592.791 96.7065C593.204 96.7532 593.623 96.7445 594.038 96.7825C595.051 96.8742 596.066 96.9658 597.077 97.0868C597.392 97.1249 597.689 97.2373 597.617 96.7497L598.279 96.8638L598.127 96.4039L598.799 96.3399C598.757 96.1595 598.659 95.9972 598.518 95.8763C598.378 95.7555 598.202 95.6823 598.018 95.6674C597.027 95.5135 596.029 95.4012 595.032 95.3061C594.406 95.2455 593.778 95.2525 593.147 95.2092Z" fill="#2D2D2D"/>
<path d="M570.633 114.117C571.75 113.997 572.869 113.899 573.987 113.802C575.853 113.639 577.718 113.491 579.582 113.325C580.127 113.276 580.253 113.152 580.298 112.597C580.412 111.317 580.258 110.028 579.847 108.811C579.314 107.274 578.246 106.081 576.862 105.249C575.44 104.393 573.852 104.139 572.194 104.367C570.945 104.525 569.772 105.058 568.832 105.896C568.304 106.366 567.874 106.947 567.424 107.497C566.633 108.465 566.297 109.627 566.142 110.833C565.97 112.134 566.053 113.456 566.385 114.725C566.828 116.435 567.737 117.837 569.169 118.797C569.418 118.964 569.679 119.115 569.949 119.248C570.094 119.321 570.241 119.386 570.389 119.447C571.45 119.874 572.592 120.058 573.733 119.983C573.83 119.983 573.928 119.993 574.024 119.983C574.056 119.981 574.088 119.978 574.12 119.972C575.082 119.82 576.09 119.8 576.994 119.473C578.5 118.937 579.433 117.704 580.196 116.343C580.331 116.107 580.298 115.941 580.066 115.806C579.618 115.546 579.184 115.258 578.719 115.033C577.701 114.54 577.682 114.542 576.911 115.379C576.402 115.918 575.717 116.257 574.98 116.335C574.519 116.398 574.061 116.449 573.607 116.487C572.224 116.603 571.083 116.165 570.244 115.035C569.845 114.487 569.964 114.181 570.633 114.117ZM569.784 110.322C570.049 109.222 570.822 108.627 571.814 108.221C572.769 107.825 573.839 107.805 574.809 108.166C575.879 108.537 576.624 109.236 576.854 110.495C576.143 110.538 575.488 110.583 574.831 110.619C573.296 110.702 571.76 110.782 570.223 110.859C569.784 110.884 569.681 110.756 569.784 110.322Z" fill="#2D2D2D"/>
<path d="M564.146 114.267C563.91 113.515 563.538 112.884 562.883 112.415C562.71 112.292 562.507 112.147 562.749 111.897C563.132 111.508 563.431 111.045 563.628 110.536C563.824 110.027 563.913 109.483 563.891 108.938C563.891 108.153 563.744 107.49 563.225 106.916C562.015 105.576 560.611 104.652 558.707 104.692C557.67 104.715 556.615 104.637 555.569 104.616C554.867 104.602 554.164 104.616 553.462 104.604C553.177 104.604 553.069 104.701 553.066 105.012C553.052 106.895 553.011 108.779 552.979 110.664C552.953 112.244 552.933 113.823 552.902 115.403C552.902 115.69 552.826 115.975 552.836 116.267C552.864 117.069 552.917 117.87 552.959 118.672H552.914C552.914 118.931 552.931 119.191 552.914 119.45C552.883 119.805 553 119.955 553.374 119.905C553.643 119.868 553.915 119.861 554.186 119.886C556.126 120.059 558.064 119.952 559.995 119.791C562.105 119.618 563.508 118.498 564.183 116.48C564.41 115.758 564.398 114.981 564.146 114.267ZM556.529 108.676C556.529 108.33 556.665 108.157 557.06 108.211C557.392 108.237 557.726 108.24 558.059 108.219C558.438 108.255 558.953 108.293 559.465 108.359C559.795 108.401 560.064 108.603 560.07 108.933C560.075 109.356 560.016 109.776 559.897 110.181C559.848 110.274 559.778 110.353 559.692 110.413C559.607 110.473 559.509 110.512 559.406 110.527C558.566 110.621 557.718 110.662 556.873 110.719C556.827 110.729 556.78 110.727 556.735 110.714C556.69 110.701 556.649 110.678 556.615 110.646C556.581 110.614 556.555 110.574 556.54 110.53C556.525 110.486 556.52 110.439 556.527 110.392C556.527 109.824 556.524 109.25 556.529 108.676ZM559.283 116.354C558.792 116.44 558.285 116.445 557.786 116.487V116.414C557.454 116.414 557.124 116.414 556.793 116.414C556.567 116.414 556.496 116.312 556.505 116.096C556.527 115.506 556.551 114.917 556.544 114.329C556.535 114.276 556.538 114.221 556.552 114.169C556.567 114.117 556.592 114.069 556.628 114.028C556.663 113.987 556.707 113.954 556.756 113.932C556.805 113.91 556.859 113.899 556.913 113.9C557.8 113.823 558.688 113.738 559.577 113.7C559.98 113.683 560.362 114.236 560.419 114.813C560.5 115.659 560.118 116.208 559.283 116.354Z" fill="#2D2D2D"/>
<path d="M596.046 115.432C595.393 115.114 594.696 114.879 594.013 114.621C593.667 114.486 593.401 114.621 593.138 114.893C592.759 115.302 592.336 115.668 591.876 115.984C591.065 116.513 590.13 116.537 589.208 116.411C588.517 116.317 587.787 116.26 587.234 115.766C585.867 114.544 585.529 113 585.93 111.271C586.013 110.906 586.151 110.557 586.339 110.233C586.56 109.856 586.8 109.433 587.146 109.196C588.638 108.178 590.796 107.967 592.346 109.053C592.518 109.184 592.704 109.295 592.901 109.383C592.97 109.413 593.044 109.428 593.118 109.428C593.193 109.428 593.267 109.413 593.335 109.383C594.049 108.85 594.753 108.302 595.436 107.73C595.482 107.663 595.511 107.585 595.519 107.504C595.526 107.423 595.514 107.341 595.481 107.267C595.108 106.834 594.762 106.307 594.279 106.056C592.834 105.299 591.364 104.525 589.656 104.703C588.002 104.68 586.584 105.304 585.232 106.144C583.949 106.925 583.028 108.182 582.67 109.64C582.491 110.277 582.356 110.926 582.267 111.582C582.139 112.619 582.113 113.648 582.467 114.654C582.748 115.471 583.145 116.243 583.645 116.947C584.127 117.618 584.627 118.247 585.322 118.707C587.161 119.917 589.167 120.209 591.314 119.855C593.507 119.492 595.192 118.411 596.328 116.494C596.655 115.951 596.631 115.717 596.046 115.432Z" fill="#2D2D2D"/>
</g>
<g clip-path="url(#clip2_108_10007)">
<path d="M482.218 110.276C481.688 111.499 481.062 112.624 480.336 113.659C479.347 115.07 478.536 116.047 477.912 116.589C476.944 117.479 475.907 117.935 474.797 117.961C474 117.961 473.038 117.734 471.919 117.274C470.796 116.816 469.764 116.589 468.821 116.589C467.832 116.589 466.77 116.816 465.635 117.274C464.498 117.734 463.583 117.974 462.882 117.997C461.818 118.043 460.756 117.574 459.697 116.589C459.02 115.999 458.175 114.988 457.161 113.556C456.074 112.026 455.18 110.252 454.48 108.23C453.73 106.046 453.354 103.931 453.354 101.883C453.354 99.5377 453.861 97.5147 454.877 95.8194C455.674 94.4577 456.736 93.3835 458.064 92.5949C459.393 91.8064 460.828 91.4046 462.374 91.3788C463.22 91.3788 464.329 91.6405 465.707 92.1547C467.082 92.6706 467.964 92.9322 468.351 92.9322C468.64 92.9322 469.621 92.6263 471.283 92.0164C472.854 91.4508 474.181 91.2166 475.268 91.3088C478.212 91.5465 480.425 92.7073 481.896 94.7986C479.262 96.3943 477.96 98.6292 477.985 101.496C478.009 103.73 478.819 105.588 480.412 107.064C481.133 107.748 481.939 108.278 482.836 108.654C482.641 109.217 482.436 109.758 482.218 110.276ZM475.464 83.7007C475.464 85.4511 474.825 87.0854 473.55 88.5982C472.012 90.3965 470.151 91.4357 468.134 91.2717C468.108 91.0617 468.093 90.8407 468.093 90.6084C468.093 88.9281 468.825 87.1297 470.124 85.6593C470.772 84.9148 471.597 84.2958 472.597 83.802C473.596 83.3156 474.54 83.0466 475.428 83.0005C475.453 83.2345 475.464 83.4685 475.464 83.7007V83.7007Z" fill="#2D2D2D"/>
</g>
<path fill-rule="evenodd" clip-rule="evenodd" d="M367.682 93.3271C367.682 92.7013 367.178 92.1945 366.552 92.1945H364.877C364.25 92.1945 363.746 92.7034 363.746 93.3292V110.847C363.746 111.474 364.251 111.981 364.877 111.981H366.553C367.178 111.981 367.682 111.471 367.682 110.846V93.3271ZM369.818 93.7925V94.6258C369.818 94.9693 370.099 95.248 370.444 95.248H381.999C382.527 95.248 382.954 94.8225 382.954 94.2957V92.8859C382.954 92.3584 382.522 91.8816 381.999 91.9336C381.999 91.9336 370.827 93.0298 370.469 93.0698C370.289 93.0856 370.122 93.1689 370.001 93.303C369.88 93.4371 369.815 93.612 369.818 93.7925ZM360.462 111.981C357.588 111.981 355.778 109.801 355.778 107.375L355.776 100.365H354.954C354.85 100.365 354.747 100.345 354.651 100.305C354.554 100.265 354.467 100.207 354.393 100.133C354.32 100.06 354.261 99.9726 354.221 99.8764C354.181 99.7803 354.161 99.6773 354.161 99.5732V98.3999C354.161 97.9616 354.517 97.6087 354.957 97.6087L355.776 97.6102L355.775 93.3007C355.775 92.6906 356.266 92.1959 356.878 92.1959H358.512C359.121 92.1959 359.615 92.6941 359.615 93.3043V97.6109L362.161 97.6102C362.599 97.6102 362.957 97.9623 362.957 98.4013V99.5746C362.957 100.014 362.601 100.366 362.164 100.366L359.615 100.366L359.618 106.849C359.618 108.122 360.389 108.99 361.766 108.99H361.998C362.474 108.99 362.862 109.373 362.862 109.849V111.122C362.862 111.599 362.476 111.982 362 111.982H360.462V111.981ZM333.542 97.1048C328.895 97.1048 326.289 100.741 326.289 104.574C326.289 108.658 329.08 112.253 333.573 112.253C336.647 112.253 339.678 110.633 340.251 107.973C340.328 107.614 340.087 107.144 339.581 107.141L337.383 107.142C336.985 107.142 336.659 107.333 336.463 107.621C335.833 108.543 334.913 109.032 333.552 109.032C331.627 109.032 330.293 107.516 330.192 105.835H339.535C340.395 105.835 340.781 105.367 340.781 104.573C340.781 100.838 338.568 97.1048 333.542 97.1048ZM333.542 100.104C335.257 100.104 336.738 101.324 336.888 102.976H330.22C330.371 101.324 331.827 100.104 333.542 100.104ZM376.117 97.1048C371.469 97.1048 368.862 100.741 368.862 104.574C368.862 108.658 371.654 112.253 376.146 112.253C379.221 112.253 382.252 110.633 382.824 107.973C382.902 107.614 382.661 107.144 382.155 107.141L379.958 107.142C379.558 107.142 379.233 107.333 379.037 107.621C378.407 108.543 377.487 109.032 376.126 109.032C374.2 109.032 372.867 107.516 372.766 105.835H382.109C382.969 105.835 383.355 105.367 383.355 104.573C383.355 100.838 381.141 97.1048 376.117 97.1048ZM376.117 100.104C377.831 100.104 379.313 101.324 379.462 102.976H372.794C372.944 101.324 374.4 100.104 376.117 100.104Z" fill="#2D2D2D"/>
<path fill-rule="evenodd" clip-rule="evenodd" d="M352.634 92.3902H322.37C321.682 92.3902 321.127 92.949 321.127 93.6369L321.23 105.523C321.23 105.523 314.71 93.7424 314.37 93.1422C314.05 92.577 313.363 92.0559 312.412 92.0559H309.924C309.235 92.0559 308.679 92.6147 308.679 93.3026L308.68 110.734C308.68 111.422 309.236 111.98 309.925 111.98H311.521C311.851 111.979 312.168 111.847 312.401 111.613C312.635 111.379 312.765 111.061 312.765 110.731L312.665 98.5116C312.665 98.5116 319.249 110.408 319.53 110.877C319.91 111.511 320.554 111.98 321.485 111.98H323.771C324.46 111.98 325.015 111.422 325.015 110.734L325.014 95.3447H352.635C352.747 95.345 352.858 95.3233 352.961 95.2808C353.064 95.2383 353.158 95.1758 353.237 95.097C353.316 95.0182 353.378 94.9246 353.421 94.8216C353.464 94.7185 353.486 94.6081 353.486 94.4965V93.2384C353.485 93.013 353.395 92.7971 353.236 92.638C353.076 92.479 352.859 92.3898 352.634 92.3902Z" fill="#2D2D2D"/>
<path fill-rule="evenodd" clip-rule="evenodd" d="M347.735 99.9587C349.051 99.9587 350.035 100.436 350.39 101.261C350.56 101.658 350.89 101.734 351.342 101.734H353.152C353.453 101.734 353.793 101.477 353.793 101.086C353.793 98.9815 351.286 97.1033 347.733 97.1033C344.058 97.1033 341.645 98.8546 341.645 101.642C341.645 103.776 343.33 105.046 345.403 105.588C346.348 105.836 347.961 106.233 348.746 106.439C349.593 106.662 350.35 106.92 350.35 107.646C350.35 108.79 349.142 109.18 347.826 109.18C346.577 109.18 345.334 108.622 344.978 107.732C344.77 107.216 344.41 107.141 343.861 107.141H342.021C341.7 107.141 341.33 107.417 341.33 107.836V108.072C341.33 110.109 344.062 112.241 347.829 112.241C350.5 112.241 354.223 111.131 354.223 107.548C354.223 105.472 352.835 104.035 350.576 103.462C349.692 103.238 347.569 102.698 347.107 102.578C346.283 102.365 345.516 102.096 345.516 101.391C345.516 100.322 346.503 99.9587 347.735 99.9587ZM280.742 88.3631C280.903 88.3631 281.057 88.2992 281.171 88.1855C281.284 88.0717 281.348 87.9174 281.348 87.7565C281.348 87.5957 281.284 87.4414 281.171 87.3276C281.057 87.2139 280.903 87.15 280.742 87.15C280.581 87.15 280.426 87.2139 280.313 87.3276C280.199 87.4414 280.135 87.5957 280.135 87.7565C280.135 87.9174 280.199 88.0717 280.313 88.1855C280.426 88.2992 280.581 88.3631 280.742 88.3631ZM272.596 87.289C272.731 87.289 272.861 87.2352 272.957 87.1395C273.053 87.0438 273.106 86.914 273.106 86.7786C273.106 86.6432 273.053 86.5134 272.957 86.4177C272.861 86.322 272.731 86.2682 272.596 86.2682C272.461 86.2682 272.331 86.322 272.235 86.4177C272.139 86.5134 272.086 86.6432 272.086 86.7786C272.086 86.914 272.139 87.0438 272.235 87.1395C272.331 87.2352 272.461 87.289 272.596 87.289ZM266.49 99.7684L266.241 99.5018C266.934 98.8582 267.667 97.8318 267.786 97.2295C267.897 96.6692 268.702 96.7583 268.549 97.3678C268.354 98.1468 267.4 99.0877 266.49 99.7684ZM261.321 87.5014C260.046 88.0531 259.859 89.3603 260.754 90.1451C261.832 91.0902 263.611 90.267 263.44 88.82C264.886 88.8941 265.819 87.4002 265.589 86.3509C266.232 85.7999 266.296 84.6224 265.524 84.1598C264.697 83.6644 263.918 83.854 263.422 84.8099C262.097 84.7137 260.827 85.7558 261.321 87.5014L260.707 87.2334C259.898 85.5412 261.315 83.8127 263.053 84.2111C263.179 83.9385 263.362 83.6963 263.591 83.5011C263.819 83.3058 264.086 83.1622 264.375 83.0799C264.664 82.9976 264.967 82.9786 265.264 83.0243C265.561 83.0699 265.844 83.1791 266.095 83.3444C267.21 84.0201 267.446 85.7636 266.26 86.609C266.82 88.2362 265.704 89.5656 264.007 89.4138C263.808 91.5065 261.834 91.7767 260.558 90.783C259.839 90.2221 259.544 89.4444 259.405 88.8578C259.259 88.237 259.259 87.681 258.646 87.0416C258.185 86.5591 257.359 86.5755 257.359 86.5755C257.359 85.0551 255.937 83.6637 254.171 84.3373C253.545 83.7984 252.772 83.745 252.218 84.4114C251.896 84.7985 251.719 85.8156 252.711 86.2818C252.66 87.6674 253.716 88.552 255.261 88.4294C255.322 89.1657 256.138 89.85 256.861 89.9476L256.855 90.3176C256.083 90.2435 255.665 90.5129 255.151 91.1508C253.335 91.0653 252.063 91.8729 252.116 93.1751C250.84 93.4175 250.602 94.7533 251.325 95.4646C252.049 96.176 253.109 95.8973 253.471 95.0476C254.758 95.2928 255.895 94.3705 255.947 93.3063C257.149 93.3063 257.675 92.8309 257.872 91.7253L258.326 91.7624C258.46 92.9528 257.909 94.0825 256.474 93.9478C256.437 95.3691 255.058 96.1639 253.771 95.6727C253.17 96.8011 251.794 97.2523 250.639 96.151C249.522 95.0875 249.93 93.2664 251.389 92.8252C251.423 91.4317 252.452 90.108 254.451 90.6184C254.451 90.6184 254.709 89.9961 255.334 89.9591C254.917 89.788 254.602 89.5578 254.515 89.1287C253.007 89.4501 251.726 88.0616 252.069 86.6638C250.708 85.9475 250.686 84.6032 251.361 83.8041C252.065 82.9723 253.237 82.7884 254.285 83.6851C256.061 82.7015 258.068 83.9061 257.945 85.929C259.187 85.8463 259.941 86.9319 259.803 88.0623C260.007 87.5641 260.247 87.3331 260.706 87.2334L261.321 87.5014Z" fill="#2D2D2D"/>
<path fill-rule="evenodd" clip-rule="evenodd" d="M264.372 85.0737L264.672 85.2883C264.09 86.5171 263.059 87.8222 262.177 88.54L261.84 88.2862C262.465 87.2684 263.808 85.5884 264.372 85.0737ZM255.685 91.8231L255.887 92.1232C255.151 92.8773 253.79 93.883 253.067 94.2323L252.785 93.9258C253.484 93.1717 254.82 92.1845 255.685 91.8231ZM257.444 88.1715L257.089 88.6106C256.126 87.979 254.226 86.2812 253.797 85.6689L254.097 85.3631C255.017 85.8293 256.812 87.4302 257.444 88.1715ZM255.658 104.283C255.767 104.834 255.675 105.444 256.172 106.04C256.348 106.249 257.312 107.519 258.011 108.174C257.061 108.549 255.161 109.321 253.793 109.493C253.519 109.528 253.211 109.72 252.953 109.867C252.782 110.159 252.605 110.682 252.531 111.272C252.479 111.694 252.486 112.163 252.486 112.642C252.486 113.064 252.709 114.391 253.181 115.282C253.653 116.173 254.107 116.571 254.665 116.831C254.775 116.783 255.018 116.746 255.397 116.738C256.43 116.714 257.239 117.285 257.595 117.775C257.731 117.963 258.005 118 258.365 118C259.198 118 260.115 117.726 260.985 117.394C261.171 117.241 261.696 116.892 262.211 116.487C262.726 116.083 265.594 113.65 266.864 113.036C267.533 113.398 268.63 113.864 269.764 113.864C269.829 113.864 270.047 113.867 270.279 113.815C270.633 113.735 271.087 113.577 271.658 113.465C272.681 113.266 273.881 113.09 274.231 113.095C275.171 113.11 277.929 113.182 278.583 113.182C279.269 113.182 280.246 113.122 280.62 113.085C281.197 112.894 282.484 112.538 283.716 111.969C284.946 111.425 287.535 109.628 287.958 109.217C288.164 109.033 288.347 108.832 288.481 108.652C288.532 108.582 288.55 108.554 288.55 108.499L288.536 106.683C288.536 106.683 289.155 105.997 289.392 105.759C289.414 105.737 289.416 105.705 289.412 105.682C289.306 105.33 289.2 104.235 289.26 103.124L288.634 102.831C288.606 103.999 288.259 105.136 287.632 106.121C286.701 106.268 284.923 106.819 284.283 107.548L284.635 107.648C285.236 107.317 285.88 107.085 286.615 107.085C287.265 107.085 287.552 107.256 287.552 107.438C287.552 107.566 287.429 107.874 287.382 107.971C287.326 108.082 287.289 108.224 287.18 108.343C286.291 109.317 285.25 110.141 284.098 110.782C283.281 111.239 282.51 111.546 281.306 111.887C280.945 111.989 280.45 112.135 280.129 112.246C279.675 112.232 277.303 112.163 275.917 112.163C274.532 112.163 271.675 112.365 270.767 112.594C270.355 112.698 270.253 112.864 269.774 112.864C268.879 112.864 267.705 112.41 266.984 112.061C266.88 112.092 266.619 112.207 266.359 112.337C265.848 112.591 264.71 114.17 264.048 113.693C263.711 114.385 262.252 115.041 261.753 115.758C261.808 115.383 262.397 112.945 262.453 112.457C262.463 112.371 262.47 112.301 262.415 112.209C261.882 111.32 260.394 110.755 259.555 110.591C259.308 110.542 259.187 110.509 259.022 110.471L257.698 110.071L256.47 110.471L257.887 110.743L256.089 111.934C256.401 111.815 258.339 111.277 258.482 111.234C258.641 111.187 258.852 111.141 259.083 111.222C259.347 111.313 260.095 111.485 260.539 111.639C260.801 111.73 261.229 112.21 261.34 112.466C261.385 112.573 261.402 112.797 261.431 113.294C261.449 113.607 261.369 114.042 261.294 114.38C261.095 115.264 260.693 115.954 260.567 116.201C260.391 116.541 260.149 116.651 259.91 116.763C259.518 116.947 259.039 117.063 258.507 117.07C258.141 117.074 257.896 117.055 257.74 116.843C257.249 116.18 256.036 115.537 254.797 115.777C254.037 115.317 253.284 113.833 253.284 112.651C253.284 111.943 253.642 110.826 253.834 110.265C255.072 110.1 257.546 109.157 258.75 108.61C259.003 108.597 259.695 108.353 260.356 108.353C261.975 108.353 263.581 109.768 264.556 110.725C264.716 110.462 265.016 110.063 265.843 110.063C266.989 110.063 267.645 111.105 267.974 112.177L268.571 111.743C268.452 111.076 268.136 110.461 267.664 109.976C267.269 109.58 266.515 109.251 265.926 109.251C265.572 109.251 265.203 109.33 264.971 109.33C264.152 109.33 263.818 108.966 263.214 108.549C262.561 108.098 261.346 107.444 260.48 107.444C259.921 107.444 259.671 107.663 259.21 107.664C258.533 107.668 258.281 107.387 257.957 106.983C257.815 106.807 257.129 106.198 256.946 105.953C256.841 105.813 256.654 105.238 256.586 104.95L255.658 104.283Z" fill="#2D2D2D"/>
<path fill-rule="evenodd" clip-rule="evenodd" d="M256.588 104.95C256.785 105.16 256.974 105.392 257.22 105.58C257.458 105.76 257.758 105.916 258.039 106.076C258.437 106.301 258.888 106.559 259.336 106.701C259.728 106.819 260.237 106.868 260.714 106.868C261.395 106.868 262.198 106.727 262.863 107.037C263.31 107.246 263.339 107.717 263.694 107.854C264.245 108.069 265.779 108.119 266.628 108.119C268.311 108.119 270.132 107.906 271.207 107.648L270.683 107.07C269.938 107.188 267.754 107.427 266.752 107.427C265.34 107.427 264.007 107.201 264.007 106.616C264.007 106.213 264.441 105.629 265.269 105.629C266.158 105.629 267.501 106.166 267.749 106.24C267.998 106.314 268.099 106.294 268.256 106.222L268.776 105.953C268.085 105.632 265.681 104.805 264.843 104.805C264.447 104.805 264.233 104.862 263.975 105.193C263.654 105.607 262.796 105.984 261.425 105.984C260.674 105.984 259.599 105.85 259.363 105.753C258.95 105.583 258.142 105.114 257.625 104.741C256.959 104.26 256.378 103.727 255.979 103.105C255.864 102.927 255.803 102.718 255.805 102.506C255.806 102.344 255.852 102.194 255.868 102.075C255.987 102.24 256.116 102.36 256.281 102.515C257.004 103.219 258.072 103.748 259.17 103.958C259.483 104.018 259.761 104.065 260.07 104.065C260.538 104.065 260.971 103.814 261.246 103.568L260.815 103.067C260.676 103.109 260.388 103.109 260.198 103.109C258.604 103.109 256.582 102.066 256.116 100.861C256.07 100.743 256.014 100.677 256.061 100.567C256.107 100.456 256.165 100.222 256.198 100.006C256.291 100.113 256.484 100.274 256.728 100.432C257.321 100.812 258.45 101.338 258.671 101.476C259.241 101.312 259.669 101.121 260.008 100.946C260.412 100.734 260.861 100.622 261.317 100.619C262.482 100.619 263.821 101.283 265.078 101.902L265.936 101.564C264.821 100.78 262.393 99.6821 261.044 99.6821C260.247 99.6821 259.499 100.264 258.966 100.264C258.311 100.264 256.437 99.3507 256.437 98.5887C256.437 98.0028 257.65 97.6706 259.601 97.4304C259.261 97.9322 258.942 98.4472 258.644 98.9743L259.14 99.2502C262.196 94.8252 265.374 91.952 268.048 90.2014C269.019 89.5648 269.241 89.1935 269.58 88.4992C270.408 86.8064 271.189 85.5048 272.548 85.5048C273.182 85.5048 273.701 85.8605 274.056 86.3024L275.04 86.5961L274.044 87.2704L275.062 87.6745C273.734 88.0473 271.919 89.3389 271.185 91.2342C269.769 91.3097 269.087 92.4552 268.624 93.4153C268.312 94.0625 267.816 94.3213 267.092 94.8109L261.306 98.8446L262.102 98.9544L267.448 95.3748C268.502 94.6634 269.004 94.1388 269.256 93.6334C269.752 92.6419 270.286 91.9049 271.335 91.9049C271.85 91.9049 272.402 92.1259 272.843 92.5421L273.78 92.8486L272.757 93.4745L273.615 94.0012C271.163 94.7696 269.643 96.5266 268.759 99.886L269.41 100.034C269.736 98.9209 270.057 97.9009 270.631 97.0006C272.053 96.9842 273.491 96.9322 274.903 96.9322C278.671 96.9322 281.798 97.0911 283.486 97.588L282.889 96.5508C281.083 96.2444 278.463 96.0854 274.903 96.0854C273.709 96.0854 272.5 96.1296 271.299 96.1424C272.074 95.322 273.19 94.632 274.909 94.0989L273.689 93.4274L275.043 92.6761L273.198 91.9897C272.875 91.6996 272.474 91.4338 271.969 91.3069C272.559 89.4907 274.573 88.4294 276.502 87.6981L275.151 87.1471L276.515 86.4008L274.415 85.7308C273.867 85.0871 273.339 84.7935 272.529 84.7935C270.583 84.7935 269.765 86.4842 268.993 87.9825C268.586 88.7715 268.329 89.1037 267.638 89.5563C266.141 90.5357 264.233 92.0332 262.411 93.9513C261.458 93.2649 259.514 91.2584 258.985 90.1636C258.777 90.4209 258.571 90.9819 258.571 90.9819C258.77 91.1921 261.061 93.5065 261.912 94.4873L261.72 94.7026C260.813 94.8829 258.454 95.1096 257.651 95.0005L257.201 95.8003C257.8 95.7411 260.143 95.4653 261.116 95.4083C260.818 95.7692 260.529 96.1379 260.25 96.5138C257.237 96.8559 255.224 97.4739 255.224 98.5873C255.224 98.7705 255.298 98.9786 255.298 99.1753C255.298 99.6415 255.124 99.8126 254.792 100.021C254.576 100.157 254.563 100.252 254.655 100.38C254.748 100.51 255.212 101.197 255.212 101.333C255.212 101.555 254.991 101.78 254.812 101.979C254.655 102.154 254.661 102.2 254.784 102.421L255.658 104.278L256.588 104.95ZM293.897 94.6128C293.704 94.8152 293.534 95.0312 293.392 95.2607L292.906 94.5793C294.527 92.4195 298.808 91.406 301.319 91.2278V90.0695C301 90.1679 300.657 90.2783 300.339 90.3539C299.888 90.4622 299.475 90.5627 299.124 90.5535C298.773 90.5449 298.489 90.4045 298.358 90.217C298.021 89.7359 298.334 89.0089 299.437 88.3289L298.567 87.6054C297.895 88.4764 297.234 89.4373 296.561 90.011C295.949 90.5328 295.309 90.793 294.791 90.4066C294.512 90.1985 294.408 90.1037 294.38 89.5606C294.417 88.763 294.902 87.5441 295.33 86.7593L294.3 86.6381C294.117 87.8399 293.624 88.8649 293.097 89.7102C292.44 90.7652 291.592 91.505 290.72 92.1109L290.147 91.5471C290.852 91.1315 291.733 90.4558 292.34 89.5242C293.043 88.4422 293.614 87.1043 293.615 85.889L296.594 86.1713C296.176 86.703 295.485 87.9162 295.223 88.7872C295.087 89.2419 295.093 89.6033 295.258 89.7266C295.574 89.9633 296.127 89.5855 296.664 89.0103C297.421 88.197 298.162 86.9703 298.489 86.5326L300.644 88.3203C299.686 88.8278 298.758 89.4073 298.942 89.7331C299.111 90.0296 299.725 89.9405 300.397 89.7345C300.954 89.5626 301.49 89.3295 301.995 89.0395V91.952C300.957 91.9377 299.198 92.1316 297.503 92.6455C297.906 93.2143 299.063 93.4232 299.798 93.5244L299.429 95.888C297.575 95.1089 296.144 94.6556 293.897 94.6128L294.64 93.9741C296.296 94.0083 297.957 94.4895 298.897 94.9628L299.032 94.0682C298.185 93.9563 297.117 93.4745 296.665 92.9285C295.927 93.2057 295.229 93.5514 294.64 93.9741L293.897 94.6128Z" fill="#2D2D2D"/>
<path fill-rule="evenodd" clip-rule="evenodd" d="M285.018 102.122L285.708 100.632C284.897 99.6725 284.155 98.6563 283.487 97.5916L282.89 96.5545C281.51 93.9336 282.012 92.6812 281.276 91.5279C280.667 90.5749 277.711 91.168 277.22 91.2706L278.076 89.8543L276.39 89.9883L277.818 88.2912C277.975 88.0702 278.048 87.8685 278.213 87.2797C278.466 86.3852 279.234 84.8584 281.484 84.8584C283.982 84.8584 284.756 86.8791 285.845 87.7573C287.332 88.9584 288.767 90.2226 290.146 91.5465L290.718 92.1103C291.456 92.8644 292.211 93.6399 292.907 94.5786L293.392 95.2601C296.399 99.6494 300.134 108.04 301.786 111.882C301.945 112.254 302.06 112.631 302.159 112.918C300.912 112.223 299.701 111.467 298.529 110.653L297.788 110.131C297.323 109.796 296.863 109.453 296.409 109.104L295.647 108.505C295.188 108.138 294.736 107.763 294.292 107.38L295.795 116.135C295.905 116.651 296.346 116.566 296.702 116.112C297.057 115.658 297.192 115.534 297.057 114.934L295.647 108.505L296.409 109.104L297.761 114.567C297.892 115.059 298.1 115.215 298.676 115.24C299.253 115.265 299.375 115.044 299.253 114.665L297.789 110.131L298.53 110.653L299.915 114.725C300.271 115.768 299.915 115.89 299.29 115.89C298.665 115.89 298.101 115.743 297.758 115.964C297.415 116.185 296.985 116.787 296.47 117.315C296.015 117.78 295.354 117.659 295.22 116.786L293.558 106.734C292.49 105.779 291.477 104.764 290.525 103.694C290.1 103.511 289.679 103.321 289.261 103.123L288.634 102.831C288.486 102.759 288.336 102.695 288.182 102.636C287.723 103.188 287.281 103.804 286.767 104.245C286.493 104.481 286.306 104.615 285.902 104.615C285.777 104.615 285.623 104.613 285.479 104.531C285.325 104.445 285.18 104.271 285.019 104.026C284.897 103.839 284.717 103.601 284.559 103.337C284.231 102.786 283.876 102.094 283.557 101.534C283.199 100.905 282.891 100.436 282.849 100.358C282.785 100.238 282.611 100.091 282.611 100.091C282.435 100.376 282.306 100.927 282.306 101.231L281.681 101.019C281.764 100.606 281.93 100.072 282.021 99.8147C282.021 99.5938 281.773 99.2994 281.571 99.2994C281.285 99.2994 280.992 99.6123 280.844 100.21L280.21 100.486C280.284 99.5204 280.614 98.4633 281.571 98.4633C282.343 98.4633 282.822 99.0521 283.189 99.6038C283.556 100.154 284.762 101.801 285.018 102.122L285.497 102.728C285.58 103.106 285.74 103.325 285.818 103.446C285.984 103.704 286.168 103.686 286.416 103.455C286.529 103.351 286.894 103.054 287.246 102.687C287.553 102.367 287.851 101.978 287.971 101.781C288.321 101.939 288.975 102.252 289.501 102.483C287.244 99.7014 285.082 96.3257 284.145 94.0298C283.757 93.0811 284.515 92.7632 284.881 93.6983C285.874 96.2366 288.78 100.724 290.913 103.077C293.379 105.799 297.902 109.736 300.844 111.318C300.418 110.485 299.854 109.29 299.204 107.906C295.625 105.881 292.008 102.164 290.322 98.9708L291.063 99.0563C292.633 101.831 296.381 105.533 298.595 106.609C296.571 102.313 293.936 96.8681 291.88 94.5259C289.329 91.6213 286.543 89.3746 285.212 88.2056C283.901 87.0531 283.36 85.6068 281.472 85.6068C279.915 85.6068 279.097 86.728 278.784 87.8599C278.719 88.0809 278.683 88.2185 278.527 88.448L277.791 89.3311L279.382 89.138L278.461 90.4252C278.461 90.4252 280.955 89.8657 281.828 91.0504C282.767 92.3277 282.161 93.7618 283.703 96.5495C284.382 97.7748 286.023 99.978 286.571 100.467L285.496 102.728L285.018 102.122ZM260.513 102.508L260.136 102.252C260.453 101.998 260.802 101.787 261.174 101.625C261.375 101.543 261.588 101.498 261.805 101.493C262.228 101.493 262.592 101.669 262.948 101.859C263.51 102.158 264.142 102.51 264.626 102.51C264.809 102.51 264.988 102.467 265.196 102.467C265.675 102.467 266.135 102.682 266.398 102.682C266.557 102.682 266.668 102.538 266.772 102.388C267.036 102.008 267.4 101.726 267.866 101.532C268.366 101.323 268.966 101.24 269.62 101.24C270.135 101.24 270.629 101.314 270.886 101.369C270.886 101.369 270.493 101.843 270.395 101.947C269.875 101.947 268.885 101.93 268.249 102.187C267.859 102.344 267.719 102.571 267.719 102.895C267.719 103.363 268.242 103.547 268.825 103.724C269.169 103.828 269.554 103.853 269.879 103.853C270.28 103.853 271.048 103.703 271.806 103.536C272.722 103.334 273.573 103.094 273.822 103.002L274.153 103.596C273.133 103.941 272.091 104.268 271.124 104.465C270.577 104.576 270.056 104.645 269.592 104.645C268.815 104.645 267.973 104.319 267.28 103.989C266.695 103.71 266.174 103.435 265.708 103.435C265.184 103.435 264.692 103.616 264.206 103.893C263.969 104.029 263.253 104.523 262.615 104.773C262.125 104.967 261.726 105.075 261.23 105.075C260.788 105.075 260.524 105.012 260.295 104.834L261.064 104.364C261.163 104.461 261.34 104.479 261.45 104.479C261.561 104.479 261.692 104.465 261.994 104.34C262.166 104.268 262.417 104.114 262.564 104.019C262.868 103.823 262.968 103.708 263.088 103.614C263.32 103.43 263.406 103.186 263.109 102.922C262.964 102.785 262.806 102.662 262.638 102.555C262.372 102.396 262.18 102.241 261.7 102.241C261.132 102.239 260.732 102.395 260.513 102.508Z" fill="#2D2D2D"/>
<path fill-rule="evenodd" clip-rule="evenodd" d="M271.217 102.813C271.217 102.813 270.76 102.686 270.6 102.674C270.888 102.292 271.236 101.96 271.63 101.691C272.254 101.269 272.907 101.038 273.895 100.978C274.163 100.962 274.711 100.91 275.016 100.922C275.292 100.935 275.758 100.953 276.188 101.032C276.491 101.089 276.774 101.174 277.009 101.21C277.153 101.232 277.651 101.225 277.824 101.197C278.523 101.088 279.363 100.818 279.805 100.577L279.989 101.249C279.044 101.731 277.977 102.195 277.001 102.195C276.503 102.195 275.975 102.158 275.483 102.112C274.614 102.029 273.863 101.913 273.604 101.913C272.902 101.913 271.89 102.24 271.217 102.813ZM270.519 106.551L269.631 106.144C270.863 105.521 272.745 104.895 273.517 104.771C274.289 104.65 275.173 104.557 275.681 104.386C275.914 104.975 276.374 105.604 277.036 105.604C277.278 105.604 277.675 105.421 278.074 105.245C278.523 105.047 278.973 104.831 279.206 104.726C279.459 104.615 280.277 104.256 280.97 103.947C281.317 103.789 281.662 103.626 282.005 103.459L282.471 103.711C282.331 104.324 282.098 105.077 281.836 105.616C281.733 105.828 281.63 106.002 281.52 106.127C281.317 106.355 280.99 106.659 280.563 106.961C280.097 107.293 279.529 107.632 278.926 107.978C278.456 108.249 277.984 108.523 277.505 108.743L277.256 108.292C277.994 107.874 278.745 107.345 279.405 106.856C279.717 106.625 280.019 106.392 280.235 106.193C280.396 106.047 280.496 105.926 280.576 105.808C280.772 105.52 281.092 104.956 281.189 104.686C280.914 104.821 279.872 105.312 279.406 105.556C278.88 105.833 278.027 106.268 277.548 106.494C277.172 106.671 276.836 106.769 276.595 106.769C276.061 106.769 275.819 106.384 275.688 106.152C275.351 105.55 274.989 105.495 274.038 105.483C272.935 105.469 271.421 105.925 270.519 106.551ZM275.703 103.778C275.703 103.778 275.574 103.253 275.513 103.062C275.513 103.062 275.666 103.012 275.868 103.012C276.199 103.012 277.017 103.104 277.356 103.104C278.633 103.104 279.104 102.702 279.479 102.364C279.799 102.076 280.128 101.84 280.997 101.84C281.763 101.84 282.643 102.15 282.894 102.272L282.839 102.969C282.425 102.748 281.965 102.629 281.496 102.622C281.179 102.622 280.894 102.647 280.693 102.751C280.467 102.868 280.33 103.044 280.117 103.218C279.892 103.403 279.583 103.582 279.179 103.731C278.775 103.88 278.275 103.982 277.528 103.982C276.543 103.981 276.009 103.816 275.703 103.778Z" fill="#2D2D2D"/>
<path fill-rule="evenodd" clip-rule="evenodd" d="M267.613 109.045L268.202 108.801C268.742 109.01 269.521 109.247 270.064 109.247C270.39 109.247 270.66 109.13 270.881 109.031C271.055 108.953 273.017 107.991 273.991 107.637C274.3 107.526 274.614 107.464 274.767 107.464C275 107.464 275.013 107.568 275.079 107.675C275.263 107.969 276.711 110.036 276.858 110.195C278.086 109.818 279.344 109.265 280.07 108.569C280.826 107.84 281.454 106.996 282.061 106.343C282.294 106.091 282.584 105.863 282.727 105.786C283.355 105.452 285.308 105.424 286.129 105.461L285.642 106.15C284.195 106.15 283.386 106.299 283.022 106.573C282.868 106.689 282.635 106.923 282.414 107.211C281.92 107.856 281.38 108.737 281.164 108.91C281.587 109.203 282.051 109.461 282.786 109.461C284.012 109.461 284.89 108.694 285.371 108.26L285.783 108.506C285.479 108.901 285.13 109.306 284.686 109.608C284.193 109.943 283.573 110.159 283.205 110.261C282.494 110.127 280.927 109.81 280.56 109.737C279.205 110.289 276.999 111.181 276.257 111.405C276.093 111.446 275.926 111.472 275.758 111.484C275.172 111.516 274.357 111.511 273.615 111.503C273.088 111.496 272.59 111.499 272.34 111.453L271.686 110.771C272.263 110.881 272.487 110.914 273.026 110.914C274.301 110.914 275.122 110.701 275.393 110.632C275.62 110.573 275.658 110.442 275.59 110.236C275.482 109.909 275.294 109.598 275.006 109.266C274.81 109.052 274.595 108.857 274.363 108.683C274.187 108.563 274.016 108.533 273.535 108.697C273.089 108.849 271.705 109.598 271.108 109.916C270.813 110.073 270.583 110.119 270.054 109.993C269.493 109.861 268.151 109.371 267.613 109.045ZM271.452 93.6825C271.585 93.6825 271.713 93.6296 271.807 93.5353C271.901 93.4411 271.954 93.3133 271.954 93.18C271.954 93.0467 271.901 92.9189 271.807 92.8247C271.713 92.7304 271.585 92.6775 271.452 92.6775C271.318 92.6775 271.191 92.7304 271.096 92.8247C271.002 92.9189 270.949 93.0467 270.949 93.18C270.949 93.3133 271.002 93.4411 271.096 93.5353C271.191 93.6296 271.318 93.6825 271.452 93.6825Z" fill="#2D2D2D"/>
<defs>
<clipPath id="clip0_108_10007">
<rect width="115.581" height="35" fill="white" transform="translate(682.928 83)"/>
</clipPath>
<clipPath id="clip1_108_10007">
<rect width="60.0916" height="40" fill="white" transform="translate(552.836 80)"/>
</clipPath>
<clipPath id="clip2_108_10007">
<rect width="29.4812" height="35" fill="white" transform="translate(453.354 83)"/>
</clipPath>
</defs>
</svg>
