<svg width="1440" height="200" fill="none" xmlns="http://www.w3.org/2000/svg"><path fill="#fff" d="M-9 0h1453v200H-9z"/><path d="M1045.54 90.647s3.45 14.148 4 16.445c.64 2.68 1.8 3.667 5.14 3.002l2.16-8.772c.55-2.18.91-3.733 1.26-5.95h.07c.24 2.24.59 3.777 1.04 5.957 0 0 .88 3.982 1.33 6.074.45 2.091 1.71 3.409 4.98 2.691l5.14-19.446h-4.15l-1.76 8.408c-.47 2.447-.9 4.359-1.23 6.598h-.05c-.3-2.216-.69-4.053-1.16-6.437l-1.83-8.569h-4.32l-1.96 8.353c-.55 2.538-1.07 4.588-1.4 6.75h-.06c-.33-2.036-.78-4.612-1.27-7.07 0 0-1.16-5.973-1.57-8.033l-4.36.001v-.002zm39.54 0v19.446h3.94V90.646h-3.94zm55.61 0v14.346c0 1.977.37 3.363 1.17 4.21.7.74 1.84 1.22 3.22 1.22 1.16 0 2.31-.222 2.85-.424l-.05-3.085c-.4.099-.86.178-1.5.178-1.34 0-1.79-.862-1.79-2.637v-5.489h3.44v-3.72h-3.44v-4.599h-3.9zm-64.44 4.508c-2.45 0-4.4.689-5.46 1.303l.77 2.66c.98-.612 2.52-1.12 3.99-1.12 2.42-.005 2.82 1.373 2.82 2.256v.209c-5.29-.008-8.62 1.821-8.62 5.55 0 2.276 1.7 4.41 4.65 4.41 1.82 0 3.34-.726 4.25-1.889h.09s.61 2.525 3.93 1.56c-.17-1.051-.23-2.172-.23-3.521v-5.195c0-3.31-1.41-6.223-6.19-6.223zm23.62 0c-2.47 0-3.58 1.252-4.25 2.315h-.06v-1.985h-3.77v14.609h3.97v-8.568c0-.401.05-.826.19-1.196.33-.862 1.13-1.871 2.41-1.871 1.6 0 2.35 1.354 2.35 3.308v8.327h3.97v-8.672c0-.383.05-.845.16-1.184.33-.981 1.19-1.78 2.38-1.78 1.63 0 2.41 1.331 2.41 3.631v8.005h3.97v-8.605c0-4.537-2.31-6.334-4.91-6.334-1.15 0-2.06.289-2.88.793-.69.425-1.31 1.027-1.85 1.82h-.06c-.63-1.574-2.11-2.613-4.03-2.613zm21.8 0c-2.45 0-4.4.689-5.46 1.303l.78 2.66c.97-.612 2.52-1.12 3.98-1.12 2.42-.005 2.82 1.373 2.82 2.256v.209c-5.28-.008-8.62 1.821-8.62 5.55 0 2.276 1.7 4.41 4.66 4.41 1.81 0 3.34-.726 4.25-1.889h.09s.6 2.525 3.93 1.56c-.18-1.051-.23-2.172-.23-3.521v-5.195c0-3.31-1.42-6.223-6.2-6.223zm16.49 0c-1.52 0-3.25.981-3.98 3.085h-.11v-2.755h-3.57v14.609h4.07v-7.481c0-.404.03-.756.09-1.078.3-1.567 1.5-2.57 3.22-2.57.47 0 .81.052 1.18.105v-3.825c-.31-.062-.52-.09-.9-.09zm-59.66 7.897v1.823c0 .269-.03.547-.1.79-.31 1.013-1.35 1.868-2.67 1.868-1.09 0-1.96-.62-1.96-1.932 0-2.007 2.21-2.562 4.73-2.549zm45.42 0v1.823c0 .269-.02.547-.1.79-.3 1.013-1.35 1.868-2.66 1.868-1.1 0-1.96-.62-1.96-1.932 0-2.007 2.21-2.562 4.72-2.549zM1169.38 83.614c-1.28 0-2.29.712-2.29 1.579l.77 8.767c.09.528.74.935 1.52.935s1.43-.408 1.51-.935l.78-8.767c0-.867-1.01-1.579-2.29-1.579zm-12.62 7.032c-.66.016-1.41.517-1.89 1.346-.64 1.105-.53 2.338.22 2.771l7.98 3.716c.5.185 1.17-.169 1.57-.844.39-.68.36-1.444-.06-1.782l-7.2-5.054c-.19-.109-.4-.158-.62-.153zm25.23 0c-.22-.005-.43.044-.61.152l-7.21 5.055c-.41.338-.44 1.102-.05 1.781.39.676 1.07 1.03 1.57.845l7.98-3.716c.75-.432.86-1.666.22-2.77-.48-.83-1.23-1.33-1.89-1.346h-.01zm-18.62 11.567a.801.801 0 00-.3.05l-7.98 3.711c-.75.435-.86 1.669-.22 2.775.64 1.102 1.76 1.625 2.51 1.193l7.21-5.05c.41-.343.44-1.106.05-1.785v.002c-.32-.553-.83-.89-1.27-.896zm12.02 0c-.45.006-.95.343-1.27.896v-.002c-.39.679-.36 1.442.05 1.785l7.21 5.05c.75.433 1.87-.091 2.51-1.193.64-1.106.53-2.34-.22-2.775l-7.98-3.711a.875.875 0 00-.3-.05zm-6.01 3.634c-.78 0-1.43.406-1.52.933l-.77 8.767c0 .868 1.01 1.578 2.29 1.578s2.29-.71 2.29-1.578l-.78-8.767c-.08-.527-.73-.932-1.51-.933zM914.01 101.419c0 5.035-3.94 8.746-8.774 8.746s-8.774-3.711-8.774-8.746c0-5.071 3.94-8.746 8.774-8.746s8.774 3.675 8.774 8.746zm-3.841 0c0-3.147-2.283-5.3-4.933-5.3s-4.933 2.153-4.933 5.3c0 3.115 2.283 5.3 4.933 5.3s4.933-2.189 4.933-5.3zM932.937 101.419c0 5.035-3.939 8.746-8.774 8.746-4.834 0-8.773-3.711-8.773-8.746 0-5.067 3.939-8.746 8.773-8.746 4.835 0 8.774 3.675 8.774 8.746zm-3.841 0c0-3.147-2.283-5.3-4.933-5.3s-4.933 2.153-4.933 5.3c0 3.115 2.283 5.3 4.933 5.3s4.933-2.189 4.933-5.3zM951.076 93.201v15.702c0 6.459-3.81 9.097-8.313 9.097-4.239 0-6.79-2.835-7.752-5.154l3.344-1.392c.595 1.424 2.054 3.104 4.404 3.104 2.883 0 4.669-1.779 4.669-5.126v-1.258h-.134c-.86 1.06-2.516 1.987-4.606 1.987-4.373 0-8.379-3.809-8.379-8.711 0-4.937 4.006-8.777 8.379-8.777 2.086 0 3.743.927 4.606 1.956h.134v-1.424h3.648v-.004zm-3.376 8.249c0-3.08-2.054-5.33-4.669-5.33-2.649 0-4.869 2.25-4.869 5.33 0 3.049 2.22 5.269 4.869 5.269 2.615 0 4.669-2.22 4.669-5.269zM957.089 83.998v25.63h-3.746v-25.63h3.746zM971.687 104.297l2.981 1.988c-.962 1.423-3.281 3.876-7.287 3.876-4.969 0-8.679-3.841-8.679-8.746 0-5.201 3.742-8.746 8.249-8.746 4.539 0 6.759 3.612 7.484 5.564l.398.993-11.691 4.843c.895 1.754 2.287 2.649 4.239 2.649 1.956 0 3.312-.962 4.306-2.421zm-9.176-3.146l7.815-3.246c-.43-1.092-1.723-1.853-3.245-1.853-1.952 0-4.669 1.723-4.57 5.099zM882.282 99.144v-3.711h12.504c.123.647.186 1.412.186 2.24 0 2.784-.761 6.226-3.214 8.679-2.386 2.484-5.434 3.809-9.472 3.809-7.484 0-13.777-6.096-13.777-13.58 0-7.485 6.293-13.581 13.777-13.581 4.141 0 7.09 1.625 9.306 3.742l-2.618 2.618c-1.589-1.49-3.742-2.65-6.692-2.65-5.465 0-9.739 4.405-9.739 9.87 0 5.466 4.274 9.87 9.739 9.87 3.545 0 5.564-1.423 6.858-2.717 1.049-1.048 1.739-2.547 2.011-4.593l-8.869.004z" fill="#2D2D2D"/><g clip-path="url(#clip0_108_10007)" fill-rule="evenodd" clip-rule="evenodd" fill="#2D2D2D"><path d="M754.633 110.371c-6.717 4.975-16.452 7.629-24.834 7.629-11.753 0-22.334-4.368-30.338-11.633-.629-.571-.066-1.35.689-.905 8.638 5.051 19.32 8.089 30.353 8.089 7.441 0 15.627-1.547 23.153-4.757 1.138-.486 2.088.748.977 1.577z"/><path d="M757.425 107.161c-.856-1.102-5.676-.521-7.839-.263-.659.081-.76-.496-.166-.91 3.839-2.715 10.138-1.931 10.872-1.021.735.915-.191 7.259-3.798 10.288-.554.465-1.082.217-.835-.4.81-2.032 2.626-6.587 1.766-7.694zM749.737 86.822v-2.639c0-.4.302-.667.664-.667h11.758c.377 0 .679.273.679.667v2.26c-.005.38-.322.875-.885 1.658l-6.093 8.742c2.264-.056 4.654.283 6.707 1.445.462.263.588.648.623 1.027v2.816c0 .384-.422.834-.865.601-3.617-1.906-8.422-2.113-12.422.02-.407.223-.835-.222-.835-.606v-2.675c0-.43.005-1.162.433-1.815l7.058-10.172h-6.143c-.377 0-.679-.267-.679-.662zM706.846 103.288h-3.578a.678.678 0 01-.639-.612V84.229c0-.37.307-.663.69-.663h3.335a.675.675 0 01.649.617v2.412h.066c.87-2.331 2.505-3.418 4.709-3.418 2.239 0 3.638 1.087 4.644 3.418.865-2.331 2.832-3.418 4.94-3.418 1.5 0 3.14.622 4.141 2.017 1.132 1.552.901 3.807.901 5.784l-.005 11.643a.677.677 0 01-.69.667h-3.572a.681.681 0 01-.644-.667v-9.778c0-.778.071-2.72-.1-3.458-.267-1.238-1.067-1.587-2.103-1.587-.866 0-1.771.581-2.139 1.511-.367.93-.332 2.488-.332 3.534v9.778a.677.677 0 01-.689.667h-3.572a.678.678 0 01-.644-.667l-.005-9.778c0-2.057.337-5.086-2.204-5.086-2.571 0-2.47 2.953-2.47 5.086v9.778a.677.677 0 01-.689.667M772.961 83.177c5.308 0 8.181 4.58 8.181 10.404 0 5.627-3.175 10.091-8.181 10.091-5.212 0-8.05-4.58-8.05-10.288 0-5.743 2.873-10.207 8.05-10.207zm.03 3.766c-2.636 0-2.802 3.61-2.802 5.86 0 2.255-.035 7.068 2.772 7.068 2.772 0 2.903-3.883 2.903-6.25 0-1.556-.065-3.417-.533-4.893-.403-1.284-1.203-1.785-2.34-1.785zM788.024 103.288h-3.562a.681.681 0 01-.644-.667l-.005-18.453a.678.678 0 01.689-.602h3.316a.686.686 0 01.639.516v2.821h.065c1.001-2.523 2.405-3.726 4.875-3.726 1.605 0 3.17.581 4.176 2.174.936 1.476.936 3.959.936 5.743v11.613c-.04.323-.337.581-.689.581h-3.587c-.327-.025-.599-.268-.634-.581v-10.02c0-2.018.231-4.97-2.239-4.97-.871 0-1.671.586-2.068 1.476-.503 1.128-.569 2.25-.569 3.494v9.934a.689.689 0 01-.699.667M740.364 94.476c0 1.4.035 2.569-.669 3.812-.569 1.011-1.474 1.633-2.475 1.633-1.374 0-2.179-1.051-2.179-2.604 0-3.063 2.732-3.62 5.323-3.62v.78zm3.607 8.762a.745.745 0 01-.845.086c-1.187-.991-1.404-1.451-2.053-2.397-1.962 2.012-3.355 2.614-5.896 2.614-3.014 0-5.353-1.866-5.353-5.602 0-2.917 1.569-4.904 3.813-5.874 1.942-.86 4.654-1.011 6.727-1.249v-.465c0-.855.065-1.866-.438-2.604-.432-.662-1.268-.935-2.007-.935-1.364 0-2.576.703-2.873 2.159-.06.323-.297.642-.624.657l-3.466-.374c-.292-.066-.619-.303-.534-.754.795-4.226 4.599-5.5 8-5.5 1.741 0 4.015.465 5.388 1.79 1.741 1.633 1.575 3.812 1.575 6.183v5.601c0 1.684.695 2.422 1.349 3.332.226.324.276.713-.016.955a157.07 157.07 0 00-2.742 2.387l-.005-.01M693.468 94.477c0 1.4.035 2.568-.669 3.811-.569 1.011-1.469 1.633-2.475 1.633-1.374 0-2.174-1.051-2.174-2.603 0-3.064 2.732-3.62 5.318-3.62v.779zm3.607 8.761a.745.745 0 01-.845.086c-1.187-.991-1.398-1.451-2.053-2.397-1.962 2.013-3.35 2.614-5.896 2.614-3.009 0-5.353-1.865-5.353-5.601 0-2.918 1.574-4.904 3.813-5.875 1.942-.86 4.654-1.011 6.727-1.249v-.465c0-.854.065-1.865-.433-2.603-.437-.663-1.273-.936-2.007-.936-1.364 0-2.581.703-2.878 2.159-.06.323-.297.642-.619.657l-3.471-.374c-.292-.066-.614-.303-.534-.753.8-4.227 4.599-5.5 8-5.5 1.741 0 4.015.464 5.388 1.789 1.741 1.633 1.575 3.812 1.575 6.183v5.602c0 1.683.694 2.421 1.349 3.331.231.324.281.713-.011.956-.729.611-2.027 1.749-2.742 2.386l-.01-.01"/></g><g clip-path="url(#clip1_108_10007)" fill="#2D2D2D"><path d="M597.622 100.003a1.198 1.198 0 00-.346-.254c-.928-.555-1.84-1.137-2.792-1.644a14.039 14.039 0 00-2.058-.864c-.864-.298-1.364-.96-1.248-1.864a.795.795 0 00-.238-.737c-.324-.321-.305-.383.16-.65a3.778 3.778 0 01-.214-.574.807.807 0 01.045-.432c.145-.37.335-.72.474-1.093.105-.287 0-.46-.346-.465a6.52 6.52 0 01-2.779-.722 14.327 14.327 0 01-1.353-.67c-.726-.46-1.451-.392-2.186-.088-.15.063-.249.248-.371.377l.065.123-1.21-.076c-.271-.017-.577-.123-.807-.033-.412.16-.789.097-1.183.023l-1.708-.327c.14.416-.09.39-.303.346-.345-.06-.705-.15-1.061-.198-.256-.036-.519-.029-.884-.044l.37.487a3.627 3.627 0 01-3.976-.828c-1.037-1.124-1.323-2.53-1.447-3.977-.157-1.817.295-3.51 1.124-5.119a5.08 5.08 0 00.221-.598l-.138-.1a4.61 4.61 0 00-.625.406 5.383 5.383 0 00-1.773 3.183c-.114.692-.087 1.406-.153 2.106-.012.138-.159.266-.243.397-.107-.115-.291-.224-.305-.345-.057-.498-.065-1.003-.081-1.505-.01-.293 0-.586 0-.987a1.702 1.702 0 00-.762 1.21c-.289 1.446-.078 2.805.773 4.04.104.176.196.359.276.547l-.173.104a6.935 6.935 0 01-.657-.814c-.257-.43-.444-.904-.691-1.345a2.397 2.397 0 00-.37-.415c-.068.192-.14.382-.199.575a.42.42 0 00.012.173 5.456 5.456 0 001.579 3.163c1.014 1.014 2.228 1.716 3.532 2.287.14.062.358.202.356.302a9.07 9.07 0 01-.133 1.84c-.248 1.096-1.335 1.456-2.258.804-.571-.405-.764-.415-1.259.112a3.87 3.87 0 01-1.826 1.09c-.636.172-1.267.383-1.901.594a6.657 6.657 0 00-.955.39c-.119.063-.185.23-.275.347l.324.226-.519.358.36.289a.784.784 0 00-.094.16c-.038.122-.065.246-.098.369.135.024.283.097.399.062.273-.091.538-.204.794-.337 1.056-.519 2.126-1.037 3.16-1.596 1.034-.558 1.978-.465 2.982.099.566.316 1.228.477 1.861.653.534.149 1.025-.03 1.452-.373.38-.308.754-.624 1.136-.932a2.285 2.285 0 012.151-.46c.401.129.794.282 1.177.458.757.317 1.492.692 2.267.958a5.878 5.878 0 003.698.107c.975-.306 1.775-.226 2.42.617.313.405.692.52 1.221.362 1.188-.36 2.36-.332 3.468.313.498.29.996.582 1.511.836.481.232.975.435 1.478.611a.847.847 0 00.889-.346l.536-.209a3.424 3.424 0 00-.273-.483zM609.463 105.814a4.682 4.682 0 00-.977-.529c-.486-.173-1.001-.254-1.495-.401a6.58 6.58 0 00-3.716 0c-2.092.614-3.803 1.817-4.746 3.892-.11.244-.098.551-.233.776-.519.882-.43 1.859-.519 3.223l.356 2.14c.236 1.392 1.079 2.405 2.16 3.193 1.108.808 2.261 1.51 3.733 1.627 1.056.087 2.066.272 3.15.054 1.175-.235 2.106-.804 2.951-1.577.316-.289.55-.667.856-.97 1.136-1.12 1.66-2.522 1.87-4.059.211-1.537-.072-2.953-.65-4.369-.548-1.366-1.575-2.241-2.74-3zm-1.487 9.509a4.724 4.724 0 01-3.458.936c-1.59-.196-2.399-1.123-2.939-2.571-.47-1.257-.226-2.364.211-3.507a1.54 1.54 0 01.386-.563c.679-.628 1.326-1.195 2.375-1.312.842-.096 1.612.062 2.362.228 1.11.245 1.718 1.175 2.062 2.199.208.615.22 1.297.317 1.926-.104 1.089-.519 2.08-1.316 2.671v-.007z"/><path d="M584.478 86.032c-.083.102-.108.396-.039.45.3.211.614.404.939.577.095.147.209.354.345.365.488.04.981.015 1.508.015l-.821.98.33.144-.536.42c.13.076.195.125.268.158.589.266 1.189.51 1.767.798a9.36 9.36 0 002.88.865c.401.059.671-.049.78-.472.061-.223.144-.438.249-.643a4.222 4.222 0 012.401-2.196c1.223-.448 1.8-1.291 1.674-2.533-.038-.378-.23-.555-.588-.529a8.981 8.981 0 00-1.198.147c-.676.138-1.228.02-1.71-.519-.541-.613-1.21-1.02-2.092-.89a2.335 2.335 0 01-1.528-.334c-.324-.183-.671-.394-1.024-.432a4.511 4.511 0 00-3.236.795 3.192 3.192 0 00-.382.41c.261.083.435.133.603.197.086.033.233.097.232.14-.016.375.285.346.501.407.173.05.346.08.51.119l.017.12c-.396.28-.797.55-1.184.843a3.97 3.97 0 00-.666.598zm11.375-1.086c0 .095.059.294-.014.37a.917.917 0 01-.519.29.628.628 0 01-.708-.414l1.241-.246zM568.761 101.368c.2-.028.396-.08.584-.154a28.103 28.103 0 001.641-.951c.726-.458 1.492-.76 2.362-.692.416.043.83.108 1.24.196 1.163.231 2.15-.031 2.973-.93.453-.46.934-.892 1.44-1.292.236-.199.184-.379-.053-.442a1.455 1.455 0 00-.827-.028c-.32.124-.609.318-.847.567-1.136 1.163-2.42 1.701-4.059 1.184a7.435 7.435 0 00-1.651-.313 2.013 2.013 0 00-1.079.173c-.827.448-1.643.948-1.819 2.023l.282.109-.244.418.057.132zM593.147 95.21c-.401-.027-.798-.103-1.198-.134-.275-.02-.39.13-.358.405a1.337 1.337 0 001.2 1.226c.413.046.832.038 1.247.076 1.013.091 2.028.183 3.039.304.315.038.612.15.54-.337l.662.114-.152-.46.672-.064a.87.87 0 00-.781-.673 51.04 51.04 0 00-2.986-.36c-.626-.061-1.254-.055-1.885-.098zM570.633 114.117c1.117-.12 2.236-.218 3.354-.315 1.866-.163 3.731-.311 5.595-.477.545-.049.671-.173.716-.728a9.263 9.263 0 00-.451-3.786c-.533-1.537-1.601-2.73-2.985-3.562-1.422-.856-3.01-1.11-4.668-.882a6.228 6.228 0 00-3.362 1.529c-.528.47-.958 1.051-1.408 1.601-.791.968-1.127 2.13-1.282 3.336a10.132 10.132 0 00.243 3.892c.443 1.71 1.352 3.112 2.784 4.072a6.782 6.782 0 001.22.65 7.616 7.616 0 003.344.536c.097 0 .195.01.291 0a.784.784 0 00.096-.011c.962-.152 1.97-.172 2.874-.499 1.506-.536 2.439-1.769 3.202-3.13.135-.236.102-.402-.13-.537-.448-.26-.882-.548-1.347-.773-1.018-.493-1.037-.491-1.808.346a3.106 3.106 0 01-1.931.956c-.461.063-.919.114-1.373.152-1.383.116-2.524-.322-3.363-1.452-.399-.548-.28-.854.389-.918zm-.849-3.795c.265-1.1 1.038-1.695 2.03-2.101a4.092 4.092 0 012.995-.055c1.07.371 1.815 1.07 2.045 2.329-.711.043-1.366.088-2.023.124-1.535.083-3.071.163-4.608.24-.439.025-.542-.103-.439-.537zM564.146 114.267c-.236-.752-.608-1.383-1.263-1.852-.173-.123-.376-.268-.134-.518.383-.389.682-.852.879-1.361a3.998 3.998 0 00.263-1.598c0-.785-.147-1.448-.666-2.022-1.21-1.34-2.614-2.264-4.518-2.224-1.037.023-2.092-.055-3.138-.076-.702-.014-1.405 0-2.107-.012-.285 0-.393.097-.396.408-.014 1.883-.055 3.767-.087 5.652-.026 1.58-.046 3.159-.077 4.739 0 .287-.076.572-.066.864.028.802.081 1.603.123 2.405h-.045c0 .259.017.519 0 .778-.031.355.086.505.46.455.269-.037.541-.044.812-.019 1.94.173 3.878.066 5.809-.095 2.11-.173 3.513-1.293 4.188-3.311a3.498 3.498 0 00-.037-2.213zm-7.617-5.591c0-.346.136-.519.531-.465.332.026.666.029.999.008.379.036.894.074 1.406.14.33.042.599.244.605.574.005.423-.054.843-.173 1.248a.661.661 0 01-.491.346c-.84.094-1.688.135-2.533.192a.293.293 0 01-.333-.189.293.293 0 01-.013-.138c0-.568-.003-1.142.002-1.716zm2.754 7.678c-.491.086-.998.091-1.497.133v-.073h-.993c-.226 0-.297-.102-.288-.318.022-.59.046-1.179.039-1.767a.365.365 0 01.212-.397.368.368 0 01.157-.032c.887-.077 1.775-.162 2.664-.2.403-.017.785.536.842 1.113.081.846-.301 1.395-1.136 1.541zM596.046 115.432c-.653-.318-1.35-.553-2.033-.811-.346-.135-.612 0-.875.272a7.545 7.545 0 01-1.262 1.091c-.811.529-1.746.553-2.668.427-.691-.094-1.421-.151-1.974-.645-1.367-1.222-1.705-2.766-1.304-4.495.083-.365.221-.714.409-1.038.221-.377.461-.8.807-1.037 1.492-1.018 3.65-1.229 5.2-.143.172.131.358.242.555.33a.544.544 0 00.434 0 47.826 47.826 0 002.101-1.653.485.485 0 00.045-.463c-.373-.433-.719-.96-1.202-1.211-1.445-.757-2.915-1.531-4.623-1.353-1.654-.023-3.072.601-4.424 1.441a5.678 5.678 0 00-2.562 3.496 14.273 14.273 0 00-.403 1.942c-.128 1.037-.154 2.066.2 3.072a9.035 9.035 0 001.178 2.293c.482.671.982 1.3 1.677 1.76 1.839 1.21 3.845 1.502 5.992 1.148 2.193-.363 3.878-1.444 5.014-3.361.327-.543.303-.777-.282-1.062z"/></g><g clip-path="url(#clip2_108_10007)"><path d="M482.218 110.276a19.064 19.064 0 01-1.882 3.383c-.989 1.411-1.8 2.388-2.424 2.93-.968.89-2.005 1.346-3.115 1.372-.797 0-1.759-.227-2.878-.687-1.123-.458-2.155-.685-3.098-.685-.989 0-2.051.227-3.186.685-1.137.46-2.052.7-2.753.723-1.064.046-2.126-.423-3.185-1.408-.677-.59-1.522-1.601-2.536-3.033-1.087-1.53-1.981-3.304-2.681-5.326-.75-2.184-1.126-4.299-1.126-6.347 0-2.345.507-4.368 1.523-6.064a8.924 8.924 0 013.187-3.224 8.579 8.579 0 014.31-1.216c.846 0 1.955.261 3.333.776 1.375.516 2.257.777 2.644.777.289 0 1.27-.306 2.932-.916 1.571-.565 2.898-.8 3.985-.707 2.944.237 5.157 1.398 6.628 3.49-2.634 1.595-3.936 3.83-3.911 6.697.024 2.234.834 4.092 2.427 5.568a7.978 7.978 0 002.424 1.59c-.195.563-.4 1.104-.618 1.622zm-6.754-26.575c0 1.75-.639 3.384-1.914 4.897-1.538 1.799-3.399 2.838-5.416 2.674a5.39 5.39 0 01-.041-.664c0-1.68.732-3.478 2.031-4.949.648-.744 1.473-1.363 2.473-1.857.999-.486 1.943-.755 2.831-.802.025.234.036.469.036.7z" fill="#2D2D2D"/></g><path fill-rule="evenodd" clip-rule="evenodd" d="M367.682 93.327a1.13 1.13 0 00-1.13-1.132h-1.675c-.627 0-1.131.508-1.131 1.134v17.518c0 .627.505 1.134 1.131 1.134h1.676c.625 0 1.129-.51 1.129-1.135V93.327zm2.136.466v.833c0 .343.281.622.626.622h11.555a.953.953 0 00.955-.952v-1.41c0-.528-.432-1.004-.955-.952 0 0-11.172 1.096-11.53 1.136a.714.714 0 00-.651.723zm-9.356 18.188c-2.874 0-4.684-2.18-4.684-4.606l-.002-7.01h-.822a.787.787 0 01-.561-.232.796.796 0 01-.232-.56V98.4c0-.438.356-.791.796-.791l.819.001-.001-4.31c0-.61.491-1.104 1.103-1.104h1.634c.609 0 1.103.498 1.103 1.108v4.307h2.546c.438 0 .796.351.796.79v1.174c0 .439-.356.791-.793.791h-2.549l.003 6.483c0 1.273.771 2.141 2.148 2.141h.232c.476 0 .864.383.864.859v1.273a.86.86 0 01-.862.86h-1.538v-.001zm-26.92-14.876c-4.647 0-7.253 3.636-7.253 7.469 0 4.084 2.791 7.679 7.284 7.679 3.074 0 6.105-1.62 6.678-4.28.077-.359-.164-.829-.67-.832l-2.198.001c-.398 0-.724.191-.92.479-.63.922-1.55 1.411-2.911 1.411-1.925 0-3.259-1.516-3.36-3.197h9.343c.86 0 1.246-.468 1.246-1.262 0-3.735-2.213-7.468-7.239-7.468zm0 2.999c1.715 0 3.196 1.22 3.346 2.872h-6.668c.151-1.652 1.607-2.872 3.322-2.872zm42.575-3c-4.648 0-7.255 3.637-7.255 7.47 0 4.084 2.792 7.679 7.284 7.679 3.075 0 6.106-1.62 6.678-4.28.078-.359-.163-.829-.669-.832l-2.197.001c-.4 0-.725.191-.921.479-.63.922-1.55 1.411-2.911 1.411-1.926 0-3.259-1.516-3.36-3.197h9.343c.86 0 1.246-.468 1.246-1.262 0-3.735-2.214-7.468-7.238-7.468zm0 3c1.714 0 3.196 1.22 3.345 2.872h-6.668c.15-1.652 1.606-2.872 3.323-2.872z" fill="#2D2D2D"/><path fill-rule="evenodd" clip-rule="evenodd" d="M352.634 92.39H322.37c-.688 0-1.243.559-1.243 1.247l.103 11.886s-6.52-11.78-6.86-12.38c-.32-.566-1.007-1.087-1.958-1.087h-2.488c-.689 0-1.245.559-1.245 1.247l.001 17.431c0 .688.556 1.246 1.245 1.246h1.596a1.248 1.248 0 001.244-1.249l-.1-12.22s6.584 11.897 6.865 12.366c.38.634 1.024 1.103 1.955 1.103h2.286c.689 0 1.244-.558 1.244-1.246l-.001-15.39h27.621a.85.85 0 00.851-.847v-1.259a.853.853 0 00-.852-.848z" fill="#2D2D2D"/><path fill-rule="evenodd" clip-rule="evenodd" d="M347.735 99.959c1.316 0 2.3.477 2.655 1.302.17.397.5.473.952.473h1.81a.657.657 0 00.641-.648c0-2.105-2.507-3.983-6.06-3.983-3.675 0-6.088 1.752-6.088 4.539 0 2.134 1.685 3.404 3.758 3.946.945.248 2.558.645 3.343.851.847.223 1.604.481 1.604 1.207 0 1.144-1.208 1.534-2.524 1.534-1.249 0-2.492-.558-2.848-1.448-.208-.516-.568-.591-1.117-.591h-1.84c-.321 0-.691.276-.691.695v.236c0 2.037 2.732 4.169 6.499 4.169 2.671 0 6.394-1.11 6.394-4.693 0-2.076-1.388-3.513-3.647-4.086-.884-.224-3.007-.764-3.469-.884-.824-.213-1.591-.482-1.591-1.187 0-1.069.987-1.432 2.219-1.432zm-66.993-11.596a.607.607 0 100-1.214.607.607 0 000 1.214zm-8.146-1.074a.512.512 0 00.361-.871.512.512 0 00-.871.36.509.509 0 00.51.511zm-6.106 12.48l-.249-.267c.693-.644 1.426-1.67 1.545-2.272.111-.56.916-.472.763.138-.195.779-1.149 1.72-2.059 2.4zM261.321 87.5c-1.275.552-1.462 1.86-.567 2.644 1.078.945 2.857.122 2.686-1.325 1.446.074 2.379-1.42 2.149-2.47.643-.55.707-1.728-.065-2.19-.827-.496-1.606-.306-2.102.65-1.325-.096-2.595.946-2.101 2.691l-.614-.268c-.809-1.692.608-3.42 2.346-3.022a2.077 2.077 0 011.322-1.131 2.086 2.086 0 011.72.264c1.115.676 1.351 2.42.165 3.265.56 1.627-.556 2.957-2.253 2.805-.199 2.093-2.173 2.363-3.449 1.369-.719-.56-1.014-1.339-1.153-1.925-.146-.621-.146-1.177-.759-1.816-.461-.483-1.287-.466-1.287-.466 0-1.52-1.422-2.912-3.188-2.239-.626-.539-1.399-.592-1.953.074-.322.388-.499 1.405.493 1.87-.051 1.386 1.005 2.271 2.55 2.148.061.737.877 1.421 1.6 1.519l-.006.37c-.772-.075-1.19.195-1.704.833-1.816-.086-3.088.722-3.035 2.024-1.276.243-1.514 1.578-.791 2.29.724.711 1.784.432 2.146-.417 1.287.245 2.424-.677 2.476-1.742 1.202 0 1.728-.475 1.925-1.58l.454.036c.134 1.19-.417 2.32-1.852 2.186-.037 1.421-1.416 2.216-2.703 1.725-.601 1.128-1.977 1.58-3.132.478-1.117-1.063-.709-2.885.75-3.326.034-1.393 1.063-2.717 3.062-2.207 0 0 .258-.622.883-.659-.417-.171-.732-.401-.819-.83-1.508.321-2.789-1.067-2.446-2.465-1.361-.716-1.383-2.06-.708-2.86.704-.832 1.876-1.016 2.924-.119 1.776-.984 3.783.221 3.66 2.244 1.242-.083 1.996 1.003 1.858 2.133.204-.498.444-.729.903-.829l.615.268z" fill="#2D2D2D"/><path fill-rule="evenodd" clip-rule="evenodd" d="M264.372 85.074l.3.214c-.582 1.23-1.613 2.534-2.495 3.252l-.337-.254c.625-1.018 1.968-2.698 2.532-3.212zm-8.687 6.75l.202.3c-.736.753-2.097 1.759-2.82 2.108l-.282-.306c.699-.754 2.035-1.742 2.9-2.103zm1.759-3.653l-.355.44c-.963-.632-2.863-2.33-3.292-2.942l.3-.306c.92.466 2.715 2.067 3.347 2.808zm-1.786 16.112c.109.551.017 1.161.514 1.757.176.209 1.14 1.479 1.839 2.134-.95.375-2.85 1.147-4.218 1.319-.274.035-.582.227-.84.374-.171.292-.348.815-.422 1.405-.052.422-.045.891-.045 1.37 0 .422.223 1.749.695 2.64s.926 1.289 1.484 1.549c.11-.048.353-.085.732-.093 1.033-.024 1.842.547 2.198 1.037.136.188.41.225.77.225.833 0 1.75-.274 2.62-.606.186-.153.711-.502 1.226-.907.515-.404 3.383-2.837 4.653-3.451.669.362 1.766.828 2.9.828.065 0 .283.003.515-.049.354-.08.808-.238 1.379-.35 1.023-.199 2.223-.375 2.573-.37.94.015 3.698.087 4.352.087.686 0 1.663-.06 2.037-.097.577-.191 1.864-.547 3.096-1.116 1.23-.544 3.819-2.341 4.242-2.752.206-.184.389-.385.523-.565.051-.07.069-.098.069-.153l-.014-1.816s.619-.686.856-.924c.022-.022.024-.054.02-.077-.106-.352-.212-1.447-.152-2.558l-.626-.293a6.412 6.412 0 01-1.002 3.29c-.931.147-2.709.698-3.349 1.427l.352.1c.601-.331 1.245-.563 1.98-.563.65 0 .937.171.937.353 0 .128-.123.436-.17.533-.056.111-.093.253-.202.372a12.214 12.214 0 01-3.082 2.439c-.817.457-1.588.764-2.792 1.105-.361.102-.856.248-1.177.359-.454-.014-2.826-.083-4.212-.083-1.385 0-4.242.202-5.15.431-.412.104-.514.27-.993.27-.895 0-2.069-.454-2.79-.803a5.427 5.427 0 00-.625.276c-.511.254-1.649 1.833-2.311 1.356-.337.692-1.796 1.348-2.295 2.065.055-.375.644-2.813.7-3.301.01-.086.017-.156-.038-.248-.533-.889-2.021-1.454-2.86-1.618-.247-.049-.368-.082-.533-.12l-1.324-.4-1.228.4 1.417.272-1.798 1.191c.312-.119 2.25-.657 2.393-.7.159-.047.37-.093.601-.012.264.091 1.012.263 1.456.417.262.091.69.571.801.827.045.107.062.331.091.828.018.313-.062.748-.137 1.086-.199.884-.601 1.574-.727 1.821-.176.34-.418.45-.657.562-.392.184-.871.3-1.403.307-.366.004-.611-.015-.767-.227-.491-.663-1.704-1.306-2.943-1.066-.76-.46-1.513-1.944-1.513-3.126 0-.708.358-1.825.55-2.386 1.238-.165 3.712-1.108 4.916-1.655.253-.013.945-.257 1.606-.257 1.619 0 3.225 1.415 4.2 2.372.16-.263.46-.662 1.287-.662 1.146 0 1.802 1.042 2.131 2.114l.597-.434a3.385 3.385 0 00-.907-1.767c-.395-.396-1.149-.725-1.738-.725-.354 0-.723.079-.955.079-.819 0-1.153-.364-1.757-.781-.653-.451-1.868-1.105-2.734-1.105-.559 0-.809.219-1.27.22-.677.004-.929-.277-1.253-.681-.142-.176-.828-.785-1.011-1.03-.105-.14-.292-.715-.36-1.003l-.928-.667z" fill="#2D2D2D"/><path fill-rule="evenodd" clip-rule="evenodd" d="M256.588 104.95c.197.21.386.442.632.63.238.18.538.336.819.496.398.225.849.483 1.297.625.392.118.901.167 1.378.167.681 0 1.484-.141 2.149.169.447.209.476.68.831.817.551.215 2.085.265 2.934.265 1.683 0 3.504-.213 4.579-.471l-.524-.578c-.745.118-2.929.357-3.931.357-1.412 0-2.745-.226-2.745-.811 0-.403.434-.987 1.262-.987.889 0 2.232.537 2.48.611.249.074.35.054.507-.018l.52-.269c-.691-.321-3.095-1.148-3.933-1.148-.396 0-.61.057-.868.388-.321.414-1.179.791-2.55.791-.751 0-1.826-.134-2.062-.231-.413-.17-1.221-.639-1.738-1.012-.666-.481-1.247-1.014-1.646-1.636a1.087 1.087 0 01-.174-.599c.001-.162.047-.312.063-.431.119.165.248.285.413.44.723.704 1.791 1.233 2.889 1.443.313.06.591.107.9.107.468 0 .901-.251 1.176-.497l-.431-.501c-.139.042-.427.042-.617.042-1.594 0-3.616-1.043-4.082-2.248-.046-.118-.102-.184-.055-.294a2.92 2.92 0 00.137-.561c.093.107.286.268.53.426.593.38 1.722.906 1.943 1.044.57-.164.998-.355 1.337-.53a2.858 2.858 0 011.309-.327c1.165 0 2.504.664 3.761 1.283l.858-.338c-1.115-.784-3.543-1.882-4.892-1.882-.797 0-1.545.582-2.078.582-.655 0-2.529-.913-2.529-1.675 0-.586 1.213-.918 3.164-1.159-.34.502-.659 1.017-.957 1.544l.496.276c3.056-4.425 6.234-7.298 8.908-9.049.971-.636 1.193-1.007 1.532-1.702.828-1.693 1.609-2.994 2.968-2.994.634 0 1.153.356 1.508.797l.984.294-.996.674 1.018.404c-1.328.373-3.143 1.665-3.877 3.56-1.416.076-2.098 1.221-2.561 2.181-.312.647-.808.906-1.532 1.396l-5.786 4.034.796.11 5.346-3.58c1.054-.712 1.556-1.236 1.808-1.742.496-.991 1.03-1.728 2.079-1.728.515 0 1.067.22 1.508.637l.937.307-1.023.626.858.526c-2.452.769-3.972 2.526-4.856 5.885l.651.148c.326-1.113.647-2.133 1.221-3.033 1.422-.017 2.86-.069 4.272-.069 3.768 0 6.895.16 8.583.656l-.597-1.037c-1.806-.307-4.426-.466-7.986-.466-1.194 0-2.403.045-3.604.057.775-.82 1.891-1.51 3.61-2.043l-1.22-.672 1.354-.75-1.845-.687c-.323-.29-.724-.556-1.229-.683.59-1.816 2.604-2.878 4.533-3.609l-1.351-.55 1.364-.747-2.1-.67c-.548-.644-1.076-.938-1.886-.938-1.946 0-2.764 1.691-3.536 3.19-.407.788-.664 1.12-1.355 1.573-1.497.98-3.405 2.477-5.227 4.395-.953-.686-2.897-2.693-3.426-3.787-.208.257-.414.818-.414.818.199.21 2.49 2.525 3.341 3.505l-.192.216c-.907.18-3.266.407-4.069.297l-.45.8c.599-.059 2.942-.335 3.915-.392-.298.361-.587.73-.866 1.106-3.013.342-5.026.96-5.026 2.073 0 .183.074.392.074.588 0 .466-.174.638-.506.846-.216.136-.229.231-.137.359.093.13.557.817.557.953 0 .222-.221.447-.4.646-.157.175-.151.221-.028.442l.874 1.857.93.672zm37.309-10.337a3.965 3.965 0 00-.505.648l-.486-.682c1.621-2.16 5.902-3.173 8.413-3.351V90.07c-.319.098-.662.208-.98.284-.451.108-.864.209-1.215.2-.351-.01-.635-.15-.766-.337-.337-.481-.024-1.208 1.079-1.888l-.87-.724c-.672.871-1.333 1.832-2.006 2.406-.612.522-1.252.782-1.77.396-.279-.209-.383-.303-.411-.846.037-.798.522-2.017.95-2.802l-1.03-.12c-.183 1.2-.676 2.226-1.203 3.071-.657 1.055-1.505 1.795-2.377 2.4l-.573-.563c.705-.415 1.586-1.091 2.193-2.023.703-1.082 1.274-2.42 1.275-3.635l2.979.282c-.418.532-1.109 1.745-1.371 2.616-.136.455-.13.816.035.94.316.236.869-.142 1.406-.717.757-.813 1.498-2.04 1.825-2.477l2.155 1.787c-.958.508-1.886 1.087-1.702 1.413.169.297.783.207 1.455.001a7.868 7.868 0 001.598-.694v2.912c-1.038-.014-2.797.18-4.492.694.403.568 1.56.777 2.295.878l-.369 2.364c-1.854-.78-3.285-1.232-5.532-1.275l.743-.639c1.656.034 3.317.516 4.257.989l.135-.895c-.847-.112-1.915-.593-2.367-1.14-.738.278-1.436.623-2.025 1.046l-.743.639z" fill="#2D2D2D"/><path fill-rule="evenodd" clip-rule="evenodd" d="M285.018 102.122l.69-1.49a26.653 26.653 0 01-2.221-3.04l-.597-1.037c-1.38-2.621-.878-3.874-1.614-5.027-.609-.953-3.565-.36-4.056-.257l.856-1.417-1.686.134 1.428-1.697c.157-.22.23-.422.395-1.011.253-.895 1.021-2.422 3.271-2.422 2.498 0 3.272 2.021 4.361 2.9a67.002 67.002 0 014.301 3.788l.572.564c.738.754 1.493 1.53 2.189 2.469l.485.681c3.007 4.39 6.742 12.78 8.394 16.622.159.372.274.749.373 1.036a43.41 43.41 0 01-3.63-2.265l-.741-.522a55.37 55.37 0 01-1.379-1.027l-.762-.599a47.23 47.23 0 01-1.355-1.125l1.503 8.755c.11.516.551.431.907-.023.355-.454.49-.578.355-1.178l-1.41-6.429.762.599 1.352 5.463c.131.492.339.648.915.673.577.025.699-.196.577-.575l-1.464-4.534.741.522 1.385 4.072c.356 1.043 0 1.165-.625 1.165s-1.189-.147-1.532.074c-.343.221-.773.823-1.288 1.351-.455.465-1.116.344-1.25-.529l-1.662-10.052a37.663 37.663 0 01-3.033-3.04 38.745 38.745 0 01-1.264-.571l-.627-.292a5.646 5.646 0 00-.452-.195c-.459.552-.901 1.168-1.415 1.609-.274.236-.461.37-.865.37-.125 0-.279-.002-.423-.084-.154-.086-.299-.26-.46-.505-.122-.187-.302-.425-.46-.689-.328-.551-.683-1.243-1.002-1.803-.358-.629-.666-1.098-.708-1.176-.064-.12-.238-.267-.238-.267-.176.285-.305.836-.305 1.14l-.625-.212c.083-.413.249-.947.34-1.204 0-.221-.248-.516-.45-.516-.286 0-.579.313-.727.911l-.634.276c.074-.966.404-2.023 1.361-2.023.772 0 1.251.59 1.618 1.14.367.551 1.573 2.198 1.829 2.519l.479.606c.083.378.243.597.321.718.166.258.35.24.598.009.113-.104.478-.401.83-.768a6.38 6.38 0 00.725-.906c.35.158 1.004.471 1.53.702-2.257-2.782-4.419-6.157-5.356-8.453-.388-.949.37-1.267.736-.332.993 2.539 3.899 7.026 6.032 9.379 2.466 2.722 6.989 6.659 9.931 8.241-.426-.833-.99-2.028-1.64-3.412-3.579-2.025-7.196-5.742-8.882-8.935l.741.085c1.57 2.775 5.318 6.477 7.532 7.553-2.024-4.296-4.659-9.74-6.715-12.083-2.551-2.905-5.337-5.151-6.668-6.32-1.311-1.153-1.852-2.6-3.74-2.6-1.557 0-2.375 1.122-2.688 2.254-.065.22-.101.359-.257.588l-.736.883 1.591-.193-.921 1.287s2.494-.56 3.367.625c.939 1.278.333 2.712 1.875 5.5.679 1.225 2.32 3.428 2.868 3.917l-1.075 2.261-.478-.606zm-24.505.386l-.377-.256a4.593 4.593 0 011.038-.627c.201-.082.414-.127.631-.132.423 0 .787.176 1.143.366.562.299 1.194.651 1.678.651.183 0 .362-.043.57-.043.479 0 .939.215 1.202.215.159 0 .27-.144.374-.294.264-.38.628-.662 1.094-.856.5-.209 1.1-.292 1.754-.292.515 0 1.009.074 1.266.129 0 0-.393.474-.491.578-.52 0-1.51-.017-2.146.24-.39.157-.53.384-.53.708 0 .468.523.652 1.106.829.344.104.729.129 1.054.129.401 0 1.169-.15 1.927-.317.916-.202 1.767-.442 2.016-.534l.331.594c-1.02.345-2.062.672-3.029.869a7.89 7.89 0 01-1.532.18c-.777 0-1.619-.326-2.312-.656-.585-.279-1.106-.554-1.572-.554-.524 0-1.016.181-1.502.458-.237.136-.953.63-1.591.88-.49.194-.889.302-1.385.302-.442 0-.706-.063-.935-.241l.769-.47c.099.097.276.115.386.115.111 0 .242-.014.544-.139a4.42 4.42 0 00.57-.321c.304-.196.404-.311.524-.405.232-.184.318-.428.021-.692a3.151 3.151 0 00-.471-.367c-.266-.159-.458-.314-.938-.314a2.553 2.553 0 00-1.187.267z" fill="#2D2D2D"/><path fill-rule="evenodd" clip-rule="evenodd" d="M271.217 102.813s-.457-.127-.617-.139a4.39 4.39 0 011.03-.983c.624-.422 1.277-.653 2.265-.713.268-.016.816-.068 1.121-.056.276.013.742.031 1.172.11.303.057.586.142.821.178.144.022.642.015.815-.013.699-.109 1.539-.379 1.981-.62l.184.672c-.945.482-2.012.946-2.988.946-.498 0-1.026-.037-1.518-.083-.869-.083-1.62-.199-1.879-.199-.702 0-1.714.327-2.387.9zm-.698 3.738l-.888-.407c1.232-.623 3.114-1.249 3.886-1.373.772-.121 1.656-.214 2.164-.385.233.589.693 1.218 1.355 1.218.242 0 .639-.183 1.038-.359.449-.198.899-.414 1.132-.519.253-.111 1.071-.47 1.764-.779.347-.158.692-.321 1.035-.488l.466.252c-.14.613-.373 1.366-.635 1.905a2.319 2.319 0 01-.316.511c-.203.228-.53.532-.957.834-.466.332-1.034.671-1.637 1.017-.47.271-.942.545-1.421.765l-.249-.451c.738-.418 1.489-.947 2.149-1.436.312-.231.614-.464.83-.663.161-.146.261-.267.341-.385.196-.288.516-.852.613-1.122-.275.135-1.317.626-1.783.87-.526.277-1.379.712-1.858.938-.376.177-.712.275-.953.275-.534 0-.776-.385-.907-.617-.337-.602-.699-.657-1.65-.669-1.103-.014-2.617.442-3.519 1.068zm5.184-2.773s-.129-.525-.19-.716c0 0 .153-.05.355-.05.331 0 1.149.092 1.488.092 1.277 0 1.748-.402 2.123-.74.32-.288.649-.524 1.518-.524.766 0 1.646.31 1.897.432l-.055.697a2.944 2.944 0 00-1.343-.347c-.317 0-.602.025-.803.129-.226.117-.363.293-.576.467a3.235 3.235 0 01-.938.513c-.404.149-.904.251-1.651.251-.985-.001-1.519-.166-1.825-.204z" fill="#2D2D2D"/><path fill-rule="evenodd" clip-rule="evenodd" d="M267.613 109.045l.589-.244c.54.209 1.319.446 1.862.446.326 0 .596-.117.817-.216.174-.078 2.136-1.04 3.11-1.394.309-.111.623-.173.776-.173.233 0 .246.104.312.211.184.294 1.632 2.361 1.779 2.52 1.228-.377 2.486-.93 3.212-1.626.756-.729 1.384-1.573 1.991-2.226.233-.252.523-.48.666-.557.628-.334 2.581-.362 3.402-.325l-.487.689c-1.447 0-2.256.149-2.62.423-.154.116-.387.35-.608.638-.494.645-1.034 1.526-1.25 1.699.423.293.887.551 1.622.551 1.226 0 2.104-.767 2.585-1.201l.412.246c-.304.395-.653.8-1.097 1.102-.493.335-1.113.551-1.481.653-.711-.134-2.278-.451-2.645-.524-1.355.552-3.561 1.444-4.303 1.668a2.912 2.912 0 01-.499.079c-.586.032-1.401.027-2.143.019-.527-.007-1.025-.004-1.275-.05l-.654-.682c.577.11.801.143 1.34.143 1.275 0 2.096-.213 2.367-.282.227-.059.265-.19.197-.396-.108-.327-.296-.638-.584-.97a4.676 4.676 0 00-.643-.583c-.176-.12-.347-.15-.828.014-.446.152-1.83.901-2.427 1.219-.295.157-.525.203-1.054.077-.561-.132-1.903-.622-2.441-.948zm3.839-15.362a.502.502 0 100-1.004.502.502 0 000 1.004z" fill="#2D2D2D"/><defs><clipPath id="clip0_108_10007"><path fill="#fff" transform="translate(682.928 83)" d="M0 0h115.581v35H0z"/></clipPath><clipPath id="clip1_108_10007"><path fill="#fff" transform="translate(552.836 80)" d="M0 0h60.092v40H0z"/></clipPath><clipPath id="clip2_108_10007"><path fill="#fff" transform="translate(453.354 83)" d="M0 0h29.481v35H0z"/></clipPath></defs></svg>