<svg width="1440" height="6158" viewBox="0 0 1440 6158" fill="none" xmlns="http://www.w3.org/2000/svg">
<g clip-path="url(#clip0_192_9947)">
<rect width="1440" height="6158" fill="#E3FEF9"/>
<g opacity="0.41" filter="url(#filter0_f_192_9947)">
<circle cx="61" cy="3770" r="498.5" stroke="#293757" stroke-width="3"/>
<circle cx="60.5" cy="3769.5" r="378" stroke="#293757" stroke-width="3"/>
<circle cx="60.5" cy="3769.5" r="267" stroke="#293757" stroke-width="3"/>
<circle cx="61" cy="3770" r="187.5" stroke="#293757" stroke-width="3"/>
</g>
<circle cx="120" cy="3592" r="20" fill="#24314F"/>
<circle cx="230.5" cy="3300.5" r="10.5" fill="#2E3D5E"/>
<circle cx="439.5" cy="4098.5" r="10.5" fill="#2E3D5E"/>
<circle cx="119.5" cy="3591.5" r="10.5" fill="#2E3D5E"/>
<g opacity="0.41" filter="url(#filter1_f_192_9947)">
<circle cx="60.5" cy="3769.5" r="125.5" fill="#283755"/>
<circle cx="60.4999" cy="3769.5" r="91.5412" fill="#2C3B5C"/>
<circle cx="59.7619" cy="3768.76" r="64.2265" fill="#37486C"/>
</g>
<g opacity="0.41" filter="url(#filter2_f_192_9947)">
<circle cx="55" cy="2267" r="498.5" stroke="#293757" stroke-width="3"/>
<circle cx="54.5" cy="2266.5" r="378" stroke="#293757" stroke-width="3"/>
<circle cx="54.5" cy="2266.5" r="267" stroke="#293757" stroke-width="3"/>
<circle cx="55" cy="2267" r="187.5" stroke="#293757" stroke-width="3"/>
<circle cx="114" cy="2089" r="20" fill="#24314F"/>
<circle cx="224.5" cy="1797.5" r="10.5" fill="#2E3D5E"/>
<circle cx="433.5" cy="2595.5" r="10.5" fill="#2E3D5E"/>
<circle cx="113.5" cy="2088.5" r="10.5" fill="#2E3D5E"/>
</g>
<path opacity="0.3" fill-rule="evenodd" clip-rule="evenodd" d="M1326.72 3937.69C1453.04 3958.71 1517.92 4093.81 1619.8 4171.46C1718.29 4246.53 1857.16 4273.93 1912.98 4384.53C1972.08 4501.65 1943.32 4639.13 1921.07 4768.43C1895.12 4919.25 1910.15 5121.53 1774.15 5191.48C1633.58 5263.78 1483.97 5089.97 1326.72 5074.13C1194.85 5060.85 1062.05 5159.83 940.272 5107.48C808.601 5050.88 697.162 4930.01 665.889 4790.05C635.424 4653.71 730.559 4527.94 781.735 4397.95C829.109 4277.62 854.34 4143.94 953.105 4060.53C1055.8 3973.8 1194.16 3915.64 1326.72 3937.69Z" fill="#DDD0CB"/>
<path opacity="0.3" fill-rule="evenodd" clip-rule="evenodd" d="M1213.72 376.692C1340.04 397.711 1404.92 532.807 1506.8 610.457C1605.29 685.528 1744.16 712.933 1799.98 823.531C1859.08 940.648 1830.32 1078.13 1808.07 1207.43C1782.12 1358.25 1797.15 1560.53 1661.15 1630.48C1520.58 1702.78 1370.97 1528.97 1213.72 1513.13C1081.85 1499.85 949.049 1598.83 827.272 1546.48C695.601 1489.88 584.162 1369.01 552.889 1229.05C522.424 1092.71 617.559 966.938 668.735 836.952C716.109 716.621 741.34 582.94 840.105 499.529C942.8 412.799 1081.16 354.637 1213.72 376.692Z" fill="#DDD0CB"/>
<g opacity="0.41" filter="url(#filter3_f_192_9947)">
<circle cx="54.5" cy="2266.5" r="125.5" fill="#283755"/>
<circle cx="54.4999" cy="2266.5" r="91.5412" fill="#2C3B5C"/>
<circle cx="53.7619" cy="2265.76" r="64.2265" fill="#37486C"/>
</g>
<path fill-rule="evenodd" clip-rule="evenodd" d="M1105.3 177.689C1103.75 176.104 1101.23 176.104 1099.67 177.689C1098.11 179.283 1098.11 181.873 1099.67 183.466L1105.86 189.77C1106.35 190.269 1107.15 190.269 1107.64 189.77L1113.83 183.466C1115.39 181.873 1115.39 179.283 1113.83 177.689C1112.27 176.104 1109.75 176.104 1108.2 177.689L1107.29 178.62C1107.14 178.764 1106.95 178.845 1106.75 178.845C1106.55 178.845 1106.36 178.764 1106.21 178.62L1105.3 177.689ZM1106.37 176.639L1106.75 177.024L1107.13 176.639C1109.27 174.454 1112.75 174.454 1114.9 176.639C1117.03 178.816 1117.03 182.34 1114.9 184.517L1108.71 190.82C1107.63 191.919 1105.87 191.919 1104.79 190.82L1098.6 184.517C1096.47 182.34 1096.47 178.816 1098.6 176.639C1100.75 174.454 1104.23 174.454 1106.37 176.639Z" fill="white"/>
<path d="M1510.95 2231.92C1532.32 2316.43 1579.83 2386.62 1621.21 2459.63C1662.6 2532.65 1699.14 2613.42 1695.41 2705.12C1693.31 2756.59 1676.49 2812.79 1638.11 2852.38C1592.9 2898.99 1526.06 2913.17 1471.28 2901.69C1416.5 2890.21 1371.53 2857.07 1330.3 2821.79C1267.83 2768.35 1209.63 2706.92 1178.17 2627.38C1129.7 2504.78 1150.62 2350.7 1207.15 2212.35C1263.68 2073.98 1352.95 1948.16 1444.34 1826.78C1467.18 1796.45 1490.59 1765.88 1519.46 1741.74C1557.49 1709.92 1612.8 1687.25 1651.07 1711.94C1687.42 1735.4 1645.88 1770.61 1623.72 1797.67C1558.47 1877.33 1516.47 1975.69 1503.53 2072.14C1496.15 2127.06 1498.26 2181.7 1510.95 2231.92Z" fill="#E7F0ED"/>
</g>
<defs>
<filter id="filter0_f_192_9947" x="-451" y="3258" width="1024" height="1024" filterUnits="userSpaceOnUse" color-interpolation-filters="sRGB">
<feFlood flood-opacity="0" result="BackgroundImageFix"/>
<feBlend mode="normal" in="SourceGraphic" in2="BackgroundImageFix" result="shape"/>
<feGaussianBlur stdDeviation="6" result="effect1_foregroundBlur_192_9947"/>
</filter>
<filter id="filter1_f_192_9947" x="-77" y="3632" width="275" height="275" filterUnits="userSpaceOnUse" color-interpolation-filters="sRGB">
<feFlood flood-opacity="0" result="BackgroundImageFix"/>
<feBlend mode="normal" in="SourceGraphic" in2="BackgroundImageFix" result="shape"/>
<feGaussianBlur stdDeviation="6" result="effect1_foregroundBlur_192_9947"/>
</filter>
<filter id="filter2_f_192_9947" x="-457" y="1755" width="1024" height="1024" filterUnits="userSpaceOnUse" color-interpolation-filters="sRGB">
<feFlood flood-opacity="0" result="BackgroundImageFix"/>
<feBlend mode="normal" in="SourceGraphic" in2="BackgroundImageFix" result="shape"/>
<feGaussianBlur stdDeviation="6" result="effect1_foregroundBlur_192_9947"/>
</filter>
<filter id="filter3_f_192_9947" x="-83" y="2129" width="275" height="275" filterUnits="userSpaceOnUse" color-interpolation-filters="sRGB">
<feFlood flood-opacity="0" result="BackgroundImageFix"/>
<feBlend mode="normal" in="SourceGraphic" in2="BackgroundImageFix" result="shape"/>
<feGaussianBlur stdDeviation="6" result="effect1_foregroundBlur_192_9947"/>
</filter>
<clipPath id="clip0_192_9947">
<rect width="1440" height="6158" fill="white"/>
</clipPath>
</defs>
</svg>
