<svg width="1440" height="6734" fill="none" xmlns="http://www.w3.org/2000/svg"><g clip-path="url(#clip0_257_1638)"><path fill="#E3FEF9" d="M0 0h1440v6734H0z"/><path opacity=".3" fill-rule="evenodd" clip-rule="evenodd" d="M1213.72 376.692c126.32 21.019 191.2 156.115 293.08 233.765 98.49 75.071 237.36 102.476 293.18 213.074 59.1 117.117 30.34 254.599 8.09 383.899-25.95 150.82-10.92 353.1-146.92 423.05-140.57 72.3-290.18-101.51-447.43-117.35-131.87-13.28-264.671 85.7-386.448 33.35-131.671-56.6-243.11-177.47-274.383-317.43-30.465-136.34 64.67-262.112 115.846-392.098 47.374-120.331 72.605-254.012 171.37-337.423 102.695-86.73 241.055-144.892 373.615-122.837z" fill="#DDD0CB"/><path d="M1509.93 2440.14c22.29 92.68 70.64 169.99 112.88 250.32 42.24 80.33 79.7 169.09 76.88 269.36-1.59 56.28-17.88 117.57-55.98 160.45-44.86 50.49-111.74 65.27-166.79 52.1-55.05-13.17-100.48-49.92-142.18-88.97-63.18-59.15-122.16-126.99-154.51-214.36-49.84-134.64-30.43-302.96 24.87-453.68 55.28-150.73 143.53-287.38 233.95-419.14 22.59-32.92 45.76-66.11 74.46-92.2 37.82-34.38 93.06-58.56 131.68-31.13 36.69 26.06-4.61 64.12-26.55 93.48-64.64 86.41-105.76 193.54-117.76 298.9-6.84 60.01-4.18 119.79 9.05 174.87z" fill="#E7F0ED"/><path stroke="#fff" d="M0 6615.5h1440"/><path d="M153.826 6641.1h-2.659v-1.08h2.659c.515 0 .932-.08 1.251-.24.319-.17.552-.39.697-.69.151-.29.226-.62.226-.99 0-.35-.075-.67-.226-.97-.145-.3-.378-.54-.697-.72-.319-.19-.736-.28-1.251-.28h-2.351v8.87h-1.32v-9.95h3.671c.752 0 1.388.13 1.907.39.52.26.914.62 1.183 1.08.269.45.403.97.403 1.56 0 .64-.134 1.18-.403 1.64-.269.45-.663.79-1.183 1.03-.519.23-1.155.35-1.907.35zm6.235-2.33v6.23h-1.265v-7.4h1.23l.035 1.17zm2.31-1.21l-.007 1.18c-.105-.02-.205-.04-.301-.04a2.796 2.796 0 00-.314-.02c-.292 0-.549.05-.772.14a1.63 1.63 0 00-.568.38 1.89 1.89 0 00-.369.59c-.087.22-.144.47-.171.74l-.355.2c0-.44.043-.86.13-1.25.091-.4.23-.74.417-1.04.186-.31.423-.54.71-.71.292-.18.639-.26 1.04-.26.091 0 .196.01.314.03.118.02.201.04.246.06zm2.543.04v7.4h-1.271v-7.4h1.271zm-1.367-1.96c0-.2.061-.38.184-.52.128-.14.315-.21.561-.21.242 0 .426.07.554.21a.74.74 0 01.198.52c0 .2-.066.37-.198.51-.128.13-.312.2-.554.2-.246 0-.433-.07-.561-.2a.745.745 0 01-.184-.51zm5.646 8.22l2.024-6.26h1.292l-2.659 7.4h-.848l.191-1.14zm-1.688-6.26l2.085 6.29.143 1.11h-.847l-2.68-7.4h1.299zm10.473 6.14v-3.81c0-.29-.06-.55-.178-.76a1.172 1.172 0 00-.52-.51c-.232-.12-.519-.17-.861-.17-.319 0-.599.05-.841.16a1.44 1.44 0 00-.56.43.943.943 0 00-.199.57h-1.264c0-.26.068-.52.205-.78a2.3 2.3 0 01.588-.71c.259-.21.569-.38.929-.5a3.61 3.61 0 011.217-.19c.538 0 1.012.09 1.422.27.415.18.738.46.971.83.237.36.355.82.355 1.37v3.45c0 .24.021.5.062.78.045.28.111.52.198.72v.11h-1.319a2.438 2.438 0 01-.151-.58 4.848 4.848 0 01-.054-.68zm.218-3.22l.014.88h-1.278c-.36 0-.682.03-.964.09-.283.06-.52.14-.711.26-.192.11-.337.25-.438.43-.1.17-.15.36-.15.59 0 .23.052.45.157.64.105.19.262.34.472.46.214.1.476.16.786.16.387 0 .729-.08 1.025-.25.297-.16.531-.36.704-.6.178-.24.274-.47.288-.69l.54.61c-.032.19-.119.4-.26.64-.141.23-.331.45-.568.67-.232.2-.51.38-.834.52-.319.14-.679.21-1.08.21-.501 0-.941-.1-1.319-.3a2.259 2.259 0 01-.875-.78 2.12 2.12 0 01-.308-1.12c0-.39.078-.74.233-1.04.155-.31.378-.56.67-.76.291-.21.642-.36 1.053-.47.41-.1.868-.15 1.374-.15h1.469zm5.995 3.58c.301 0 .579-.06.834-.19.256-.12.465-.29.629-.5.164-.22.258-.47.281-.75h1.203c-.023.44-.171.85-.445 1.23-.269.37-.622.67-1.059.9a3.06 3.06 0 01-1.443.35c-.556 0-1.041-.1-1.456-.3a2.82 2.82 0 01-1.025-.8 3.713 3.713 0 01-.608-1.18 4.948 4.948 0 01-.199-1.41v-.29c0-.5.066-.97.199-1.41.136-.45.339-.84.608-1.18.273-.34.615-.61 1.025-.81.415-.2.9-.29 1.456-.29.579 0 1.085.12 1.518.35.433.23.772.55 1.019.96.25.4.387.86.41 1.37h-1.203c-.023-.31-.11-.58-.26-.83a1.631 1.631 0 00-.602-.59c-.25-.15-.544-.22-.882-.22-.387 0-.713.07-.977.23-.26.15-.467.35-.622.61-.151.26-.26.54-.328.86-.064.31-.096.62-.096.95v.29c0 .32.032.64.096.95.063.32.171.6.321.86.155.25.362.46.622.61.264.15.592.23.984.23zm6.447.13l2.057-6.63h1.354l-2.967 8.54c-.068.18-.159.38-.273.59-.11.21-.251.42-.424.61a2.05 2.05 0 01-.629.46c-.242.13-.531.19-.868.19-.101 0-.228-.02-.383-.04-.155-.03-.264-.05-.328-.07l-.007-1.03c.036.01.093.01.171.02a1.973 1.973 0 00.902-.11c.201-.07.369-.19.506-.37.141-.18.262-.41.362-.72l.527-1.44zm-1.511-6.63l1.921 5.75.328 1.33-.909.46-2.721-7.54h1.381zm13.398 3.5h-2.659v-1.08h2.659c.515 0 .932-.08 1.251-.24.319-.17.552-.39.698-.69.15-.29.225-.62.225-.99 0-.35-.075-.67-.225-.97-.146-.3-.379-.54-.698-.72-.319-.19-.736-.28-1.251-.28h-2.351v8.87h-1.32v-9.95h3.671c.752 0 1.388.13 1.908.39.519.26.913.62 1.182 1.08.269.45.404.97.404 1.56 0 .64-.135 1.18-.404 1.64-.269.45-.663.79-1.182 1.03-.52.23-1.156.35-1.908.35zm4.539.28v-.15c0-.54.078-1.03.233-1.49.155-.46.378-.86.67-1.19.291-.34.645-.61 1.059-.8.415-.19.88-.28 1.395-.28.519 0 .987.09 1.401.28.42.19.775.46 1.067.8.296.33.521.73.676 1.19.155.46.233.95.233 1.49v.15c0 .54-.078 1.03-.233 1.49-.155.45-.38.85-.676 1.19a3.07 3.07 0 01-1.06.8c-.41.18-.875.28-1.394.28-.52 0-.987-.1-1.402-.28a3.13 3.13 0 01-1.066-.8 3.618 3.618 0 01-.67-1.19 4.609 4.609 0 01-.233-1.49zm1.265-.15v.15c0 .37.043.72.13 1.05.087.32.216.61.39.86.177.25.398.45.663.6.264.14.572.21.923.21.346 0 .649-.07.909-.21.264-.15.483-.35.656-.6.173-.25.303-.54.39-.86.091-.33.136-.68.136-1.05v-.15c0-.37-.045-.71-.136-1.04a2.691 2.691 0 00-.397-.86 1.903 1.903 0 00-.656-.61c-.26-.14-.565-.21-.916-.21-.346 0-.652.07-.916.21-.26.15-.479.35-.656.61-.174.25-.303.54-.39.86-.087.33-.13.67-.13 1.04zm8.429-6.73v10.5h-1.272v-10.5h1.272zm3.404 3.1v7.4h-1.271v-7.4h1.271zm-1.367-1.96c0-.2.061-.38.184-.52.128-.14.315-.21.561-.21.242 0 .426.07.554.21a.74.74 0 01.198.52c0 .2-.066.37-.198.51-.128.13-.312.2-.554.2-.246 0-.433-.07-.561-.2a.745.745 0 01-.184-.51zm6.357 8.46c.301 0 .579-.06.834-.19.256-.12.465-.29.629-.5.164-.22.258-.47.281-.75h1.203c-.023.44-.171.85-.445 1.23-.269.37-.622.67-1.059.9a3.06 3.06 0 01-1.443.35c-.556 0-1.041-.1-1.456-.3a2.82 2.82 0 01-1.025-.8 3.736 3.736 0 01-.609-1.18 4.984 4.984 0 01-.198-1.41v-.29c0-.5.066-.97.198-1.41.137-.45.34-.84.609-1.18.273-.34.615-.61 1.025-.81.415-.2.9-.29 1.456-.29.579 0 1.085.12 1.518.35.433.23.772.55 1.018.96.251.4.388.86.411 1.37h-1.203c-.023-.31-.11-.58-.26-.83a1.631 1.631 0 00-.602-.59c-.25-.15-.544-.22-.882-.22-.387 0-.713.07-.977.23-.26.15-.467.35-.622.61-.151.26-.26.54-.328.86-.064.31-.096.62-.096.95v.29c0 .32.032.64.096.95.063.32.171.6.321.86.155.25.362.46.622.61.264.15.592.23.984.23zm6.447.13l2.057-6.63h1.354l-2.967 8.54c-.068.18-.16.38-.273.59-.11.21-.251.42-.424.61a2.05 2.05 0 01-.629.46c-.242.13-.531.19-.868.19-.101 0-.228-.02-.383-.04-.155-.03-.265-.05-.328-.07l-.007-1.03c.036.01.093.01.171.02a1.973 1.973 0 00.902-.11c.201-.07.369-.19.506-.37.141-.18.262-.41.362-.72l.527-1.44zm-1.511-6.63l1.921 5.75.328 1.33-.909.46-2.721-7.54h1.381zM280.833 6635.05v9.95h-1.299v-9.95h1.299zm3.199 0v1.08h-7.69v-1.08h7.69zm3.671 10.09c-.515 0-.982-.09-1.401-.26a3.196 3.196 0 01-1.073-.75c-.297-.32-.525-.7-.684-1.13-.16-.44-.239-.92-.239-1.44v-.29c0-.6.089-1.13.266-1.6.178-.48.42-.88.725-1.21.305-.32.652-.57 1.039-.74.387-.17.788-.25 1.203-.25.529 0 .984.09 1.367.27.388.18.704.44.95.77.247.32.429.7.547 1.14.119.44.178.92.178 1.44v.57h-5.523v-1.04h4.258v-.09a3.14 3.14 0 00-.205-.96 1.699 1.699 0 00-.547-.76c-.25-.2-.592-.3-1.025-.3-.287 0-.551.06-.793.18-.241.12-.449.3-.622.53-.173.24-.308.53-.403.87-.096.34-.144.74-.144 1.18v.29c0 .35.048.68.144.99.1.31.244.58.43.81.192.23.422.41.691.55.273.13.583.19.929.19.447 0 .825-.09 1.135-.27.31-.18.581-.43.814-.73l.765.61c-.159.24-.362.47-.608.69-.246.22-.549.39-.909.53-.356.14-.777.21-1.265.21zm5.619-6.37v6.23h-1.264v-7.4h1.23l.034 1.17zm2.311-1.21l-.007 1.18c-.105-.02-.205-.04-.301-.04a2.812 2.812 0 00-.314-.02c-.292 0-.549.05-.773.14-.223.09-.412.22-.567.38a1.89 1.89 0 00-.369.59c-.087.22-.144.47-.171.74l-.356.2c0-.44.044-.86.13-1.25.091-.4.23-.74.417-1.04.187-.31.424-.54.711-.71.292-.18.638-.26 1.039-.26.091 0 .196.01.315.03.118.02.2.04.246.06zm2.427 1.51v5.93h-1.272v-7.4h1.203l.069 1.47zm-.26 1.95l-.588-.02c.004-.5.071-.97.198-1.4.128-.43.317-.81.568-1.13.25-.32.562-.56.936-.74a3.11 3.11 0 011.299-.26c.346 0 .665.05.957.15.292.09.545.25.759.46.214.2.38.47.499.8.118.33.177.73.177 1.19v4.93h-1.264v-4.87c0-.38-.066-.69-.198-.93-.128-.23-.31-.4-.547-.5a1.963 1.963 0 00-.834-.17c-.374 0-.686.07-.937.2-.25.13-.451.32-.601.55-.151.23-.26.5-.328.8-.064.29-.096.61-.096.94zm4.792-.7l-.848.26c.005-.4.071-.79.198-1.16.133-.38.322-.71.568-1 .25-.29.558-.52.923-.69.364-.18.781-.26 1.251-.26.396 0 .747.05 1.052.15.31.11.57.27.78.49.214.21.376.49.485.83.109.33.164.73.164 1.2v4.86h-1.271v-4.87c0-.42-.067-.74-.199-.97-.127-.23-.31-.39-.547-.48a2.1 2.1 0 00-.834-.15c-.278 0-.524.05-.738.15-.214.09-.394.22-.54.39-.146.17-.257.36-.335.57-.073.21-.109.44-.109.68zm10.794 2.72c0-.18-.041-.35-.123-.51-.078-.16-.24-.3-.486-.43-.241-.13-.606-.24-1.093-.34a8.958 8.958 0 01-1.115-.31 3.372 3.372 0 01-.84-.43 1.888 1.888 0 01-.527-.59 1.68 1.68 0 01-.184-.8c0-.29.063-.57.191-.83.132-.26.317-.49.554-.69.241-.2.531-.36.868-.47.337-.12.713-.17 1.128-.17.592 0 1.098.1 1.517.31.42.21.741.49.964.84.224.35.335.73.335 1.16h-1.264c0-.21-.062-.41-.185-.6a1.344 1.344 0 00-.526-.48c-.228-.13-.509-.19-.841-.19-.351 0-.636.05-.855.16-.214.1-.371.24-.471.4a1.037 1.037 0 00-.076.89c.051.11.137.2.26.3.123.08.296.16.52.24.223.08.508.16.854.23.606.14 1.105.31 1.497.5.392.19.684.42.875.7.192.28.287.62.287 1.01 0 .33-.068.62-.205.89-.132.27-.326.5-.581.7-.25.19-.551.34-.902.45-.346.1-.736.16-1.169.16-.652 0-1.203-.12-1.654-.35a2.612 2.612 0 01-1.026-.9 2.168 2.168 0 01-.348-1.17h1.271c.018.34.119.62.301.82.182.2.406.35.67.43.264.09.526.13.786.13.346 0 .636-.05.868-.14.237-.09.417-.22.54-.38a.844.844 0 00.185-.54zm6.063-1.66v-.15c0-.54.078-1.03.233-1.49.155-.46.378-.86.67-1.19.291-.34.644-.61 1.059-.8.415-.19.88-.28 1.395-.28.519 0 .986.09 1.401.28.419.19.775.46 1.066.8.297.33.522.73.677 1.19.155.46.233.95.233 1.49v.15c0 .54-.078 1.03-.233 1.49-.155.45-.38.85-.677 1.19-.291.34-.644.61-1.059.8-.41.18-.875.28-1.395.28-.519 0-.986-.1-1.401-.28a3.13 3.13 0 01-1.066-.8 3.618 3.618 0 01-.67-1.19 4.609 4.609 0 01-.233-1.49zm1.265-.15v.15c0 .37.043.72.13 1.05.086.32.216.61.389.86.178.25.399.45.663.6.265.14.572.21.923.21.347 0 .65-.07.91-.21.264-.15.483-.35.656-.6.173-.25.303-.54.389-.86.092-.33.137-.68.137-1.05v-.15c0-.37-.045-.71-.137-1.04a2.668 2.668 0 00-.396-.86 1.903 1.903 0 00-.656-.61c-.26-.14-.565-.21-.916-.21-.347 0-.652.07-.916.21-.26.15-.479.35-.657.61-.173.25-.303.54-.389.86-.087.33-.13.67-.13 1.04zm8.941 3.77h-1.264v-8.18c0-.53.095-.98.287-1.34.196-.37.476-.65.841-.84.364-.19.797-.28 1.298-.28.146 0 .292.01.438.02.15.02.296.05.437.09l-.068 1.03a2.624 2.624 0 00-.328-.05c-.119-.01-.237-.01-.356-.01-.268 0-.501.05-.697.16-.191.11-.337.26-.437.47-.101.2-.151.45-.151.75v8.18zm1.573-7.4v.97h-4.006v-.97h4.006zm10.766-2.55h1.313v6.73c0 .75-.167 1.37-.499 1.87-.333.49-.775.87-1.327 1.12a4.39 4.39 0 01-1.784.37c-.674 0-1.285-.13-1.832-.37a3.038 3.038 0 01-1.292-1.12c-.314-.5-.471-1.12-.471-1.87v-6.73h1.305v6.73c0 .52.096.95.287 1.29.192.33.458.58.8.75.346.16.748.24 1.203.24.461 0 .862-.08 1.203-.24.347-.17.616-.42.807-.75.191-.34.287-.77.287-1.29v-6.73zm7.499 7.99c0-.18-.041-.35-.123-.51-.077-.16-.239-.3-.485-.43-.242-.13-.606-.24-1.094-.34a8.94 8.94 0 01-1.114-.31 3.38 3.38 0 01-.841-.43 1.885 1.885 0 01-.526-.59 1.68 1.68 0 01-.185-.8c0-.29.064-.57.191-.83.133-.26.317-.49.554-.69.242-.2.531-.36.868-.47.338-.12.713-.17 1.128-.17.593 0 1.099.1 1.518.31.419.21.74.49.964.84.223.35.335.73.335 1.16h-1.265c0-.21-.062-.41-.185-.6a1.337 1.337 0 00-.526-.48c-.228-.13-.508-.19-.841-.19-.351 0-.636.05-.854.16-.214.1-.372.24-.472.4-.096.17-.144.34-.144.52 0 .14.023.26.069.37.05.11.137.2.26.3.123.08.296.16.519.24.223.08.508.16.855.23.606.14 1.105.31 1.497.5.392.19.683.42.875.7.191.28.287.62.287 1.01 0 .33-.069.62-.205.89-.132.27-.326.5-.581.7-.251.19-.552.34-.903.45-.346.1-.736.16-1.169.16-.651 0-1.203-.12-1.654-.35a2.602 2.602 0 01-1.025-.9 2.16 2.16 0 01-.349-1.17h1.272c.018.34.118.62.3.82.183.2.406.35.67.43.265.09.527.13.786.13.347 0 .636-.05.869-.14.237-.09.417-.22.54-.38a.843.843 0 00.184-.54zm5.995 2.1c-.515 0-.982-.09-1.401-.26a3.196 3.196 0 01-1.073-.75c-.297-.32-.524-.7-.684-1.13a4.208 4.208 0 01-.239-1.44v-.29c0-.6.089-1.13.266-1.6.178-.48.42-.88.725-1.21.305-.32.652-.57 1.039-.74.387-.17.789-.25 1.203-.25.529 0 .985.09 1.367.27.388.18.705.44.951.77.246.32.428.7.546 1.14.119.44.178.92.178 1.44v.57h-5.523v-1.04h4.259v-.09a3.17 3.17 0 00-.206-.96 1.697 1.697 0 00-.546-.76c-.251-.2-.593-.3-1.026-.3-.287 0-.551.06-.793.18-.241.12-.449.3-.622.53-.173.24-.307.53-.403.87-.096.34-.144.74-.144 1.18v.29c0 .35.048.68.144.99.1.31.244.58.431.81.191.23.421.41.69.55.273.13.583.19.93.19.446 0 .825-.09 1.134-.27.31-.18.581-.43.814-.73l.766.61c-.16.24-.363.47-.609.69-.246.22-.549.39-.909.53-.356.14-.777.21-1.265.21zM405.46 6642.48c0-.23-.036-.43-.109-.61a1.15 1.15 0 00-.37-.49 2.705 2.705 0 00-.724-.42 9.415 9.415 0 00-1.162-.4c-.492-.15-.937-.31-1.333-.49a4.66 4.66 0 01-1.019-.62 2.44 2.44 0 01-.649-.8 2.28 2.28 0 01-.226-1.03c0-.39.08-.75.239-1.08.16-.32.388-.61.684-.85.301-.25.659-.44 1.073-.57.415-.14.878-.21 1.388-.21.747 0 1.381.14 1.9.43.524.28.923.65 1.197 1.12.273.45.41.94.41 1.46h-1.313c0-.38-.079-.71-.239-.99a1.7 1.7 0 00-.725-.69c-.323-.17-.733-.25-1.23-.25-.469 0-.857.07-1.162.21-.305.14-.533.33-.684.58-.146.24-.218.51-.218.82 0 .21.043.4.129.58.092.17.231.32.417.47.192.15.433.28.725.4.296.13.649.24 1.06.36.565.16 1.052.34 1.462.53.411.2.748.42 1.012.66.269.25.467.52.595.83.132.31.198.65.198 1.04 0 .41-.082.77-.246 1.1-.164.33-.399.61-.704.84-.305.23-.672.41-1.101.54-.423.13-.897.19-1.422.19-.46 0-.913-.07-1.36-.19a4.016 4.016 0 01-1.21-.58c-.36-.25-.649-.57-.868-.94a2.632 2.632 0 01-.321-1.31h1.312c0 .34.066.63.198.88.133.24.313.44.54.6.233.16.495.28.787.35.296.08.603.11.922.11.461 0 .85-.06 1.169-.19.319-.13.561-.31.725-.54.169-.24.253-.52.253-.85zm7.178 1.26v-3.81c0-.29-.06-.55-.178-.76a1.172 1.172 0 00-.52-.51c-.232-.12-.519-.17-.861-.17-.319 0-.599.05-.841.16a1.44 1.44 0 00-.56.43.95.95 0 00-.199.57h-1.264c0-.26.068-.52.205-.78.137-.26.333-.5.588-.71.26-.21.569-.38.93-.5a3.6 3.6 0 011.216-.19c.538 0 1.012.09 1.422.27.415.18.738.46.971.83.237.36.355.82.355 1.37v3.45c0 .24.021.5.062.78.045.28.112.52.198.72v.11h-1.319a2.438 2.438 0 01-.151-.58 4.848 4.848 0 01-.054-.68zm.218-3.22l.014.88h-1.278c-.36 0-.682.03-.964.09-.283.06-.52.14-.711.26a1.132 1.132 0 00-.588 1.02c0 .23.053.45.157.64.105.19.262.34.472.46.214.1.476.16.786.16.388 0 .729-.08 1.026-.25.296-.16.53-.36.704-.6.177-.24.273-.47.287-.69l.54.61c-.032.19-.119.4-.26.64-.141.23-.33.45-.567.67-.233.2-.511.38-.834.52-.319.14-.679.21-1.08.21-.502 0-.942-.1-1.32-.3a2.266 2.266 0 01-.875-.78 2.12 2.12 0 01-.307-1.12c0-.39.077-.74.232-1.04.155-.31.378-.56.67-.76.292-.21.643-.36 1.053-.47.41-.1.868-.15 1.374-.15h1.469zm4.41-6.02v10.5h-1.272v-10.5h1.272zm5.099 10.64c-.515 0-.982-.09-1.401-.26a3.196 3.196 0 01-1.073-.75c-.297-.32-.524-.7-.684-1.13a4.208 4.208 0 01-.239-1.44v-.29c0-.6.089-1.13.266-1.6.178-.48.42-.88.725-1.21.305-.32.652-.57 1.039-.74.387-.17.788-.25 1.203-.25.529 0 .985.09 1.367.27.388.18.704.44.951.77.246.32.428.7.546 1.14.119.44.178.92.178 1.44v.57h-5.523v-1.04h4.259v-.09a3.17 3.17 0 00-.206-.96 1.697 1.697 0 00-.546-.76c-.251-.2-.593-.3-1.026-.3-.287 0-.551.06-.793.18-.241.12-.449.3-.622.53-.173.24-.307.53-.403.87-.096.34-.144.74-.144 1.18v.29c0 .35.048.68.144.99.1.31.244.58.43.81.192.23.422.41.691.55.273.13.583.19.93.19.446 0 .824-.09 1.134-.27.31-.18.581-.43.814-.73l.765.61c-.159.24-.362.47-.608.69-.246.22-.549.39-.909.53-.356.14-.777.21-1.265.21zm8.661-2.1c0-.18-.041-.35-.123-.51-.077-.16-.239-.3-.485-.43-.242-.13-.606-.24-1.094-.34-.41-.09-.781-.19-1.114-.31a3.397 3.397 0 01-.841-.43 1.885 1.885 0 01-.526-.59 1.68 1.68 0 01-.185-.8c0-.29.064-.57.192-.83.132-.26.316-.49.553-.69.242-.2.531-.36.868-.47.338-.12.714-.17 1.128-.17.593 0 1.099.1 1.518.31.419.21.741.49.964.84.223.35.335.73.335 1.16h-1.265c0-.21-.061-.41-.184-.6a1.34 1.34 0 00-.527-.48c-.228-.13-.508-.19-.841-.19-.35 0-.635.05-.854.16-.214.1-.371.24-.472.4-.095.17-.143.34-.143.52 0 .14.022.26.068.37.05.11.137.2.26.3.123.08.296.16.519.24.224.08.508.16.855.23.606.14 1.105.31 1.497.5.392.19.683.42.875.7.191.28.287.62.287 1.01 0 .33-.068.62-.205.89-.132.27-.326.5-.581.7-.251.19-.552.34-.902.45-.347.1-.736.16-1.169.16-.652 0-1.204-.12-1.655-.35a2.602 2.602 0 01-1.025-.9 2.16 2.16 0 01-.349-1.17h1.272c.018.34.118.62.301.82.182.2.405.35.669.43.265.09.527.13.787.13.346 0 .635-.05.868-.14.237-.09.417-.22.54-.38a.843.843 0 00.184-.54zm10.76.7v-3.81c0-.29-.059-.55-.178-.76a1.174 1.174 0 00-.519-.51c-.233-.12-.52-.17-.861-.17-.319 0-.6.05-.841.16a1.45 1.45 0 00-.561.43.948.948 0 00-.198.57h-1.265c0-.26.069-.52.205-.78.137-.26.333-.5.588-.71.26-.21.57-.38.93-.5.365-.13.77-.19 1.217-.19.537 0 1.011.09 1.422.27.414.18.738.46.97.83.237.36.356.82.356 1.37v3.45c0 .24.02.5.061.78.046.28.112.52.199.72v.11h-1.32a2.395 2.395 0 01-.15-.58 4.713 4.713 0 01-.055-.68zm.219-3.22l.014.88h-1.279c-.36 0-.681.03-.964.09-.282.06-.519.14-.711.26-.191.11-.337.25-.437.43-.1.17-.15.36-.15.59 0 .23.052.45.157.64.105.19.262.34.471.46.215.1.477.16.787.16.387 0 .729-.08 1.025-.25.296-.16.531-.36.704-.6.178-.24.274-.47.287-.69l.54.61c-.032.19-.118.4-.26.64-.141.23-.33.45-.567.67-.232.2-.51.38-.834.52-.319.14-.679.21-1.08.21-.501 0-.941-.1-1.319-.3a2.252 2.252 0 01-.875-.78 2.12 2.12 0 01-.308-1.12c0-.39.078-.74.232-1.04.155-.31.379-.56.67-.76.292-.21.643-.36 1.053-.47.41-.1.868-.15 1.374-.15h1.47zm4.3-1.34v5.82h-1.265v-7.4h1.196l.069 1.58zm-.301 1.84l-.526-.02c.004-.5.079-.97.225-1.4.146-.43.351-.81.615-1.13.265-.32.579-.56.944-.74.369-.17.777-.26 1.223-.26.365 0 .693.05.985.15.291.09.54.25.745.46.209.22.369.49.478.84.11.33.164.75.164 1.23v4.85h-1.271v-4.86c0-.39-.057-.7-.171-.93-.114-.24-.28-.41-.499-.51a1.784 1.784 0 00-.807-.17c-.314 0-.601.07-.861.2-.255.13-.476.32-.663.55-.182.23-.326.5-.431.8-.1.29-.15.61-.15.94zm11.436 2.54v-9.06h1.272v10.5h-1.162l-.11-1.44zm-4.976-2.18v-.14c0-.56.068-1.08.205-1.54.141-.46.339-.86.595-1.19.259-.34.567-.59.923-.77.36-.18.761-.27 1.203-.27.464 0 .87.08 1.216.24.351.16.648.4.889.71.246.3.44.67.581 1.1.141.44.239.93.294 1.47v.63c-.05.55-.148 1.03-.294 1.47-.141.43-.335.8-.581 1.1-.241.31-.538.54-.889.71-.35.16-.761.24-1.23.24-.433 0-.829-.1-1.189-.28a2.812 2.812 0 01-.923-.79 3.795 3.795 0 01-.595-1.19 5.235 5.235 0 01-.205-1.5zm1.271-.14v.14c0 .37.037.72.11 1.04.077.33.196.61.355.86.16.24.362.44.609.58.246.14.54.2.881.2.42 0 .764-.09 1.033-.26.273-.18.492-.42.656-.71.164-.29.292-.61.383-.95v-1.64c-.055-.26-.135-.5-.24-.73-.1-.24-.232-.45-.396-.63-.16-.19-.358-.33-.595-.44a1.915 1.915 0 00-.827-.17c-.346 0-.645.08-.895.22-.247.14-.449.34-.609.59a2.73 2.73 0 00-.355.86c-.073.32-.11.67-.11 1.04zm10.61-6.19h3.295c.747 0 1.378.11 1.893.34.52.23.914.56 1.183 1.01.273.44.41.99.41 1.63 0 .46-.093.88-.28 1.26-.183.37-.447.69-.793.95-.342.26-.752.46-1.231.58l-.369.15h-3.097l-.013-1.08h2.338c.474 0 .868-.08 1.182-.24.315-.17.552-.4.711-.68.16-.28.239-.59.239-.94 0-.38-.075-.71-.225-1a1.46 1.46 0 00-.711-.66c-.319-.16-.731-.24-1.237-.24h-1.976v8.87h-1.319v-9.95zm5.817 9.95l-2.42-4.51 1.374-.01 2.454 4.44v.08h-1.408zm5.688.14c-.515 0-.982-.09-1.402-.26a3.216 3.216 0 01-1.073-.75c-.296-.32-.524-.7-.684-1.13a4.208 4.208 0 01-.239-1.44v-.29c0-.6.089-1.13.267-1.6.177-.48.419-.88.724-1.21.306-.32.652-.57 1.039-.74.388-.17.789-.25 1.204-.25.528 0 .984.09 1.367.27.387.18.704.44.95.77.246.32.428.7.547 1.14.118.44.178.92.178 1.44v.57h-5.524v-1.04h4.259v-.09a3.17 3.17 0 00-.205-.96 1.699 1.699 0 00-.547-.76c-.251-.2-.593-.3-1.025-.3-.288 0-.552.06-.793.18-.242.12-.449.3-.622.53-.174.24-.308.53-.404.87-.096.34-.143.74-.143 1.18v.29c0 .35.047.68.143.99.1.31.244.58.431.81.191.23.421.41.69.55.274.13.584.19.93.19.447 0 .825-.09 1.135-.27.31-.18.581-.43.813-.73l.766.61c-.16.24-.362.47-.609.69-.246.22-.549.39-.909.53-.355.14-.777.21-1.264.21zm6.241-.14h-1.265v-8.18c0-.53.096-.98.287-1.34.196-.37.477-.65.841-.84.365-.19.798-.28 1.299-.28.146 0 .292.01.437.02.151.02.297.05.438.09l-.068 1.03a2.642 2.642 0 00-.329-.05c-.118-.01-.237-.01-.355-.01a1.4 1.4 0 00-.697.16 1.04 1.04 0 00-.438.47c-.1.2-.15.45-.15.75v8.18zm1.572-7.4v.97h-4.006v-.97h4.006zm5.934 5.69v-5.69h1.271v7.4h-1.21l-.061-1.71zm.239-1.56l.526-.01c0 .49-.052.95-.157 1.37a3 3 0 01-.492 1.08c-.228.3-.526.54-.896.71-.369.17-.818.26-1.346.26-.36 0-.691-.06-.992-.16a2.036 2.036 0 01-.765-.49c-.214-.21-.381-.5-.499-.85-.114-.35-.171-.77-.171-1.26v-4.78h1.265v4.79c0 .33.036.61.109.83.077.21.18.38.308.51.132.12.278.21.437.26.164.05.333.07.506.07.538 0 .964-.1 1.278-.3.315-.21.54-.49.677-.84.141-.36.212-.75.212-1.19zm4.225-2.55v5.82h-1.265v-7.4h1.196l.069 1.58zm-.301 1.84l-.527-.02c.005-.5.08-.97.226-1.4.146-.43.351-.81.615-1.13.265-.32.579-.56.944-.74.369-.17.777-.26 1.223-.26.365 0 .693.05.985.15.291.09.54.25.745.46.209.22.369.49.478.84.11.33.164.75.164 1.23v4.85h-1.271v-4.86c0-.39-.057-.7-.171-.93-.114-.24-.28-.41-.499-.51a1.784 1.784 0 00-.807-.17c-.314 0-.601.07-.861.2-.255.13-.476.32-.663.55-.182.23-.326.5-.431.8-.1.29-.15.61-.15.94zm11.436 2.54v-9.06h1.272v10.5h-1.162l-.11-1.44zm-4.976-2.18v-.14c0-.56.068-1.08.205-1.54.141-.46.339-.86.595-1.19.259-.34.567-.59.922-.77.36-.18.761-.27 1.204-.27.464 0 .87.08 1.216.24.351.16.647.4.889.71.246.3.44.67.581 1.1.141.44.239.93.294 1.47v.63c-.05.55-.148 1.03-.294 1.47-.141.43-.335.8-.581 1.1-.242.31-.538.54-.889.71-.351.16-.761.24-1.23.24-.433 0-.83-.1-1.19-.28a2.819 2.819 0 01-.922-.79 3.795 3.795 0 01-.595-1.19 5.235 5.235 0 01-.205-1.5zm1.271-.14v.14c0 .37.037.72.11 1.04.077.33.196.61.355.86.16.24.362.44.608.58.247.14.54.2.882.2.42 0 .764-.09 1.033-.26.273-.18.492-.42.656-.71.164-.29.291-.61.383-.95v-1.64c-.055-.26-.135-.5-.24-.73-.1-.24-.232-.45-.396-.63-.16-.19-.358-.33-.595-.44a1.915 1.915 0 00-.827-.17c-.346 0-.645.08-.896.22a1.75 1.75 0 00-.608.59 2.73 2.73 0 00-.355.86c-.073.32-.11.67-.11 1.04zm11.252 1.8c0-.18-.041-.35-.123-.51-.077-.16-.239-.3-.485-.43-.242-.13-.606-.24-1.094-.34a8.94 8.94 0 01-1.114-.31 3.38 3.38 0 01-.841-.43 1.885 1.885 0 01-.526-.59 1.68 1.68 0 01-.185-.8c0-.29.064-.57.191-.83.133-.26.317-.49.554-.69.242-.2.531-.36.868-.47.338-.12.713-.17 1.128-.17.593 0 1.099.1 1.518.31.419.21.74.49.964.84.223.35.335.73.335 1.16h-1.265c0-.21-.062-.41-.185-.6a1.337 1.337 0 00-.526-.48c-.228-.13-.508-.19-.841-.19-.351 0-.636.05-.854.16-.214.1-.372.24-.472.4-.096.17-.144.34-.144.52 0 .14.023.26.069.37.05.11.137.2.26.3.123.08.296.16.519.24.223.08.508.16.855.23.606.14 1.105.31 1.497.5.392.19.683.42.875.7.191.28.287.62.287 1.01 0 .33-.069.62-.205.89-.132.27-.326.5-.581.7-.251.19-.552.34-.903.45-.346.1-.736.16-1.169.16-.651 0-1.203-.12-1.654-.35a2.602 2.602 0 01-1.025-.9 2.16 2.16 0 01-.349-1.17h1.272c.018.34.118.62.3.82.183.2.406.35.67.43.265.09.527.13.786.13.347 0 .636-.05.869-.14.237-.09.417-.22.54-.38a.843.843 0 00.184-.54zM562.191 6643.93v1.07h-4.976v-1.07h4.976zm-4.716-8.88v9.95h-1.32v-9.95h1.32zm9.105 10.09c-.515 0-.982-.09-1.401-.26a3.21 3.21 0 01-1.074-.75 3.37 3.37 0 01-.683-1.13c-.16-.44-.239-.92-.239-1.44v-.29c0-.6.088-1.13.266-1.6.178-.48.419-.88.725-1.21.305-.32.652-.57 1.039-.74.387-.17.788-.25 1.203-.25.529 0 .984.09 1.367.27.388.18.704.44.95.77.246.32.429.7.547 1.14.119.44.178.92.178 1.44v.57h-5.523v-1.04h4.258v-.09a3.14 3.14 0 00-.205-.96 1.699 1.699 0 00-.547-.76c-.25-.2-.592-.3-1.025-.3-.287 0-.551.06-.793.18-.241.12-.449.3-.622.53-.173.24-.308.53-.403.87-.096.34-.144.74-.144 1.18v.29c0 .35.048.68.144.99.1.31.243.58.43.81.192.23.422.41.691.55.273.13.583.19.929.19.447 0 .825-.09 1.135-.27.31-.18.581-.43.814-.73l.765.61c-.159.24-.362.47-.608.69-.246.22-.549.39-.909.53-.356.14-.777.21-1.265.21zm9.147-7.54h1.148v7.24c0 .65-.132 1.21-.396 1.67-.265.46-.634.81-1.108 1.05-.469.24-1.012.36-1.627.36-.255 0-.556-.04-.902-.12a3.79 3.79 0 01-1.012-.41 2.447 2.447 0 01-.827-.76l.663-.75c.31.38.633.64.971.78.342.15.679.22 1.011.22.401 0 .748-.08 1.04-.23.291-.15.517-.37.676-.67.164-.29.246-.65.246-1.08v-5.67l.117-1.63zm-5.093 3.78v-.14c0-.56.066-1.08.198-1.54.137-.46.33-.86.581-1.19.255-.34.563-.59.923-.77.36-.18.766-.27 1.217-.27.465 0 .87.08 1.217.24.35.16.647.4.888.71.246.3.44.67.581 1.1.142.44.24.93.294 1.47v.63c-.05.55-.148 1.03-.294 1.47-.141.43-.335.8-.581 1.1-.241.31-.538.54-.888.71-.351.16-.762.24-1.231.24-.442 0-.843-.1-1.203-.28a2.75 2.75 0 01-.916-.79 3.721 3.721 0 01-.588-1.19 5.42 5.42 0 01-.198-1.5zm1.264-.14v.14c0 .37.037.72.11 1.04.077.33.193.61.348.86.16.24.363.44.609.58.246.14.54.2.882.2.419 0 .765-.09 1.039-.26.273-.18.49-.42.649-.71.164-.29.292-.61.383-.95v-1.64a3.24 3.24 0 00-.232-.73 2.183 2.183 0 00-.397-.63 1.67 1.67 0 00-.595-.44 1.963 1.963 0 00-.834-.17c-.346 0-.645.08-.895.22-.246.14-.449.34-.609.59a2.82 2.82 0 00-.348.86c-.073.32-.11.67-.11 1.04zm11.259 2.5v-3.81c0-.29-.059-.55-.178-.76a1.17 1.17 0 00-.519-.51c-.232-.12-.52-.17-.861-.17-.319 0-.6.05-.841.16a1.45 1.45 0 00-.561.43.948.948 0 00-.198.57h-1.265c0-.26.069-.52.205-.78.137-.26.333-.5.588-.71.26-.21.57-.38.93-.5.365-.13.77-.19 1.217-.19.538 0 1.012.09 1.422.27.414.18.738.46.97.83.237.36.356.82.356 1.37v3.45c0 .24.02.5.061.78.046.28.112.52.199.72v.11h-1.32a2.442 2.442 0 01-.15-.58 4.713 4.713 0 01-.055-.68zm.219-3.22l.014.88h-1.279c-.36 0-.681.03-.964.09-.282.06-.519.14-.71.26-.192.11-.338.25-.438.43-.1.17-.15.36-.15.59 0 .23.052.45.157.64.105.19.262.34.472.46.214.1.476.16.786.16.387 0 .729-.08 1.025-.25.296-.16.531-.36.704-.6.178-.24.274-.47.287-.69l.54.61c-.032.19-.118.4-.259.64-.142.23-.331.45-.568.67-.232.2-.51.38-.834.52-.319.14-.679.21-1.08.21-.501 0-.941-.1-1.319-.3a2.252 2.252 0 01-.875-.78 2.12 2.12 0 01-.308-1.12c0-.39.078-.74.233-1.04.155-.31.378-.56.669-.76.292-.21.643-.36 1.053-.47.41-.1.868-.15 1.374-.15h1.47zm4.409-6.02v10.5h-1.271v-10.5h1.271zM635.46 6642.48c0-.23-.036-.43-.109-.61a1.15 1.15 0 00-.37-.49 2.705 2.705 0 00-.724-.42 9.415 9.415 0 00-1.162-.4c-.492-.15-.937-.31-1.333-.49a4.66 4.66 0 01-1.019-.62 2.44 2.44 0 01-.649-.8 2.28 2.28 0 01-.226-1.03c0-.39.08-.75.239-1.08.16-.32.388-.61.684-.85.301-.25.659-.44 1.073-.57.415-.14.878-.21 1.388-.21.747 0 1.381.14 1.9.43.524.28.923.65 1.197 1.12.273.45.41.94.41 1.46h-1.313c0-.38-.079-.71-.239-.99a1.7 1.7 0 00-.725-.69c-.323-.17-.733-.25-1.23-.25-.469 0-.857.07-1.162.21-.305.14-.533.33-.684.58-.146.24-.218.51-.218.82 0 .21.043.4.129.58.092.17.231.32.417.47.192.15.433.28.725.4.296.13.649.24 1.06.36.565.16 1.052.34 1.462.53.411.2.748.42 1.012.66.269.25.467.52.595.83.132.31.198.65.198 1.04 0 .41-.082.77-.246 1.1-.164.33-.399.61-.704.84-.305.23-.672.41-1.101.54-.423.13-.897.19-1.422.19-.46 0-.913-.07-1.36-.19a4.016 4.016 0 01-1.21-.58c-.36-.25-.649-.57-.868-.94a2.632 2.632 0 01-.321-1.31h1.312c0 .34.066.63.198.88.133.24.313.44.54.6.233.16.495.28.787.35.296.08.603.11.922.11.461 0 .85-.06 1.169-.19.319-.13.561-.31.725-.54.169-.24.253-.52.253-.85zm4.19-4.88v7.4h-1.271v-7.4h1.271zm-1.367-1.96c0-.2.062-.38.185-.52.127-.14.314-.21.56-.21.242 0 .426.07.554.21a.74.74 0 01.198.52c0 .2-.066.37-.198.51-.128.13-.312.2-.554.2-.246 0-.433-.07-.56-.2a.746.746 0 01-.185-.51zm6.494 1.96v.97h-3.999v-.97h3.999zm-2.645-1.79h1.264v7.36c0 .25.039.44.117.57.077.12.177.21.3.25.124.04.256.06.397.06.105 0 .214-.01.328-.03.119-.02.207-.04.267-.05l.007 1.03c-.101.03-.233.06-.397.09a3.15 3.15 0 01-.581.05c-.31 0-.595-.06-.855-.19-.259-.12-.467-.33-.622-.61-.15-.29-.225-.69-.225-1.18v-7.35zm7.198 9.33c-.515 0-.982-.09-1.401-.26a3.21 3.21 0 01-1.074-.75 3.37 3.37 0 01-.683-1.13c-.16-.44-.239-.92-.239-1.44v-.29c0-.6.088-1.13.266-1.6.178-.48.419-.88.725-1.21.305-.32.652-.57 1.039-.74.387-.17.788-.25 1.203-.25.529 0 .984.09 1.367.27.388.18.704.44.95.77.246.32.429.7.547 1.14.119.44.178.92.178 1.44v.57h-5.523v-1.04h4.258v-.09a3.14 3.14 0 00-.205-.96 1.699 1.699 0 00-.547-.76c-.25-.2-.592-.3-1.025-.3-.287 0-.551.06-.793.18-.241.12-.449.3-.622.53-.173.24-.308.53-.403.87-.096.34-.144.74-.144 1.18v.29c0 .35.048.68.144.99.1.31.243.58.43.81.192.23.422.41.691.55.273.13.583.19.929.19.447 0 .825-.09 1.135-.27.31-.18.581-.43.814-.73l.765.61c-.159.24-.362.47-.608.69-.246.22-.549.39-.909.53-.356.14-.777.21-1.265.21zm8.436-10.09h1.278l3.261 8.11 3.254-8.11h1.285l-4.047 9.95h-.998l-4.033-9.95zm-.417 0h1.128l.184 6.07v3.88h-1.312v-9.95zm8.777 0h1.128v9.95h-1.313v-3.88l.185-6.07zm7.615 8.69v-3.81c0-.29-.059-.55-.178-.76a1.17 1.17 0 00-.519-.51c-.232-.12-.52-.17-.861-.17-.319 0-.6.05-.841.16a1.45 1.45 0 00-.561.43.948.948 0 00-.198.57h-1.265c0-.26.069-.52.205-.78.137-.26.333-.5.588-.71.26-.21.57-.38.93-.5.365-.13.77-.19 1.217-.19.538 0 1.012.09 1.422.27.414.18.738.46.97.83.237.36.356.82.356 1.37v3.45c0 .24.02.5.061.78.046.28.112.52.199.72v.11h-1.32a2.395 2.395 0 01-.15-.58 4.713 4.713 0 01-.055-.68zm.219-3.22l.014.88h-1.279c-.36 0-.681.03-.964.09-.282.06-.519.14-.71.26-.192.11-.338.25-.438.43-.1.17-.15.36-.15.59 0 .23.052.45.157.64.105.19.262.34.472.46.214.1.476.16.786.16.387 0 .729-.08 1.025-.25.296-.16.531-.36.704-.6.178-.24.274-.47.287-.69l.54.61c-.032.19-.118.4-.259.64-.142.23-.331.45-.568.67-.232.2-.51.38-.834.52-.319.14-.679.21-1.08.21-.501 0-.941-.1-1.319-.3a2.252 2.252 0 01-.875-.78 2.12 2.12 0 01-.308-1.12c0-.39.078-.74.233-1.04.155-.31.378-.56.669-.76.292-.21.643-.36 1.053-.47.41-.1.868-.15 1.374-.15h1.47zm4.3-1.49v8.81h-1.272v-10.24h1.162l.11 1.43zm4.983 2.21v.14c0 .54-.064 1.04-.191 1.5a3.68 3.68 0 01-.561 1.19c-.241.34-.54.6-.895.79a2.68 2.68 0 01-1.224.28c-.469 0-.884-.08-1.244-.24-.36-.15-.665-.38-.916-.67-.251-.3-.451-.65-.602-1.07a6.108 6.108 0 01-.3-1.4v-.77c.054-.54.157-1.03.307-1.47.151-.43.349-.8.595-1.1.251-.31.554-.55.909-.71.356-.16.766-.24 1.231-.24.464 0 .877.09 1.237.27.36.18.663.43.909.77.246.33.431.73.554 1.19.127.46.191.98.191 1.54zm-1.271.14v-.14c0-.37-.039-.72-.117-1.04a2.628 2.628 0 00-.362-.86 1.719 1.719 0 00-.615-.59 1.812 1.812 0 00-.896-.22c-.319 0-.597.06-.834.17-.232.11-.43.25-.594.44a2.29 2.29 0 00-.404.63c-.1.23-.175.47-.225.73v1.77c.091.31.219.62.383.9s.382.5.656.67c.273.17.617.26 1.032.26.342 0 .636-.07.882-.21.251-.15.456-.35.615-.6.164-.25.285-.54.362-.86.078-.33.117-.68.117-1.05zM1125.99 6640.44h.58c0 .62-.16 1.08-.49 1.39-.34.3-.79.45-1.35.45-.39 0-.73-.09-1.03-.28-.29-.2-.52-.46-.68-.8-.16-.34-.24-.74-.24-1.18v-.57c0-.45.08-.85.24-1.19.16-.34.39-.6.68-.79.3-.19.64-.29 1.03-.29.56 0 1.01.15 1.35.46.33.3.5.76.5 1.37h-.58c0-.45-.11-.78-.33-.99-.21-.21-.53-.31-.94-.31-.29 0-.54.07-.75.23-.2.15-.36.35-.46.62-.11.26-.16.55-.16.88v.58c0 .32.05.62.16.89.1.26.26.47.46.62.21.15.46.22.75.22.41 0 .73-.1.94-.31.22-.21.32-.54.32-1zm-4.86-.71c0 .54.09 1.05.28 1.52.19.47.46.89.79 1.24.34.36.73.63 1.17.83.44.2.92.29 1.42.29a3.438 3.438 0 002.58-1.12c.34-.35.6-.77.79-1.24.19-.47.28-.98.28-1.52a3.955 3.955 0 00-1.07-2.76c-.33-.35-.72-.62-1.16-.82-.45-.19-.92-.29-1.42-.29-.5 0-.98.1-1.42.29-.44.2-.83.47-1.17.82-.33.36-.6.77-.79 1.24-.19.46-.28.97-.28 1.52zm-.5 0c0-.62.11-1.2.33-1.73.21-.53.51-.99.89-1.39.38-.4.83-.71 1.33-.92.5-.23 1.04-.34 1.61-.34.58 0 1.11.11 1.61.34.51.21.95.52 1.33.92.38.4.68.86.89 1.39.22.53.33 1.11.33 1.73 0 .62-.11 1.2-.33 1.73-.21.53-.51 1-.89 1.4-.38.4-.82.71-1.33.93-.5.22-1.03.33-1.61.33-.57 0-1.11-.11-1.61-.33a4.1 4.1 0 01-1.33-.93c-.38-.4-.68-.87-.89-1.4a4.48 4.48 0 01-.33-1.73zm18.04 3.67v.6h-5.33v-.54l2.79-3.17c.35-.4.63-.75.83-1.04.21-.3.36-.58.45-.82.09-.25.14-.49.14-.73 0-.34-.07-.65-.21-.91-.13-.26-.33-.46-.59-.61-.27-.15-.6-.22-.99-.22s-.73.08-1.02.25c-.29.17-.51.4-.67.7-.15.3-.22.63-.22 1.01h-.7c0-.46.1-.89.31-1.29.21-.39.51-.7.9-.93.39-.23.86-.35 1.4-.35.52 0 .96.09 1.33.28.37.18.66.44.86.78.2.34.3.75.3 1.23 0 .25-.04.51-.14.78-.09.26-.21.52-.37.78s-.34.51-.54.77c-.2.25-.41.5-.63.75l-2.38 2.68h4.48zm6.46-4.4v1.44c0 .62-.06 1.17-.17 1.63-.12.46-.29.85-.52 1.15-.22.3-.5.53-.82.67-.32.15-.69.23-1.1.23-.33 0-.63-.05-.9-.14-.28-.1-.52-.24-.74-.43-.21-.2-.39-.44-.54-.73-.14-.3-.26-.64-.34-1.03-.07-.4-.11-.85-.11-1.35V6639c0-.63.06-1.17.17-1.63.12-.45.3-.83.52-1.13.22-.3.5-.53.82-.67.33-.15.7-.22 1.11-.22.32 0 .62.04.9.14s.52.24.73.42c.22.19.4.43.54.72.15.29.26.64.33 1.03.08.39.12.84.12 1.34zm-.7 1.52v-1.61c0-.38-.02-.73-.08-1.05-.05-.32-.13-.59-.23-.83s-.23-.44-.38-.6c-.16-.16-.34-.28-.54-.36-.21-.08-.44-.12-.69-.12-.32 0-.6.06-.84.19s-.44.32-.6.57c-.16.24-.28.55-.36.92-.08.37-.12.8-.12 1.28v1.61c0 .38.03.73.08 1.05.05.31.12.59.23.83.11.24.23.45.39.62.15.16.33.28.54.37.2.08.43.12.69.12.32 0 .6-.06.84-.19s.44-.33.6-.58c.16-.26.28-.57.36-.94.07-.38.11-.8.11-1.28zm7.56 2.88v.6h-5.34v-.54l2.79-3.17c.35-.4.63-.75.84-1.04.2-.3.35-.58.44-.82.09-.25.14-.49.14-.73 0-.34-.07-.65-.2-.91a1.53 1.53 0 00-.6-.61c-.27-.15-.6-.22-.99-.22s-.73.08-1.02.25c-.28.17-.51.4-.66.7-.16.3-.23.63-.23 1.01h-.7c0-.46.1-.89.31-1.29.21-.39.51-.7.9-.93.39-.23.86-.35 1.4-.35.52 0 .96.09 1.33.28.38.18.66.44.86.78.2.34.3.75.3 1.23 0 .25-.04.51-.14.78-.09.26-.21.52-.37.78s-.34.51-.54.77c-.2.25-.41.5-.63.75l-2.38 2.68h4.49zm4.57-7.97v8.57h-.69v-7.68l-2.33.86v-.66l2.91-1.09h.11zm9.41.55l-2.96 8.02h-.75l3.23-8.53h.52l-.04.51zm2.68 8.02l-2.96-8.02-.04-.51h.52l3.23 8.53h-.75zm-.53-3.01v.62h-4.53v-.62h4.53zm3.16-5.99v9h-.7v-9h.7zm2.7 0v9h-.7v-9h.7zm4.99.47h2.77c.59 0 1.1.09 1.54.29.43.19.76.47 1 .85.24.37.35.82.35 1.37a2.332 2.332 0 01-.95 1.92c-.3.22-.64.37-1.03.45l-.25.09h-2.96l-.01-.61h2.47c.45 0 .82-.09 1.12-.26.29-.17.52-.4.67-.68.15-.28.22-.59.22-.91 0-.39-.08-.72-.25-1.01-.16-.28-.41-.5-.73-.65-.32-.15-.72-.23-1.19-.23h-2.05v7.91h-.72v-8.53zm5.27 8.53l-2.21-3.81.77-.01 2.2 3.74v.08h-.76zm2.99-6.34v6.34h-.7v-6.34h.7zm-.82-1.83c0-.14.04-.25.12-.34.09-.09.21-.14.35-.14.15 0 .27.05.36.14.09.09.13.2.13.34 0 .13-.04.24-.13.33-.09.09-.21.13-.36.13-.14 0-.26-.04-.35-.13a.479.479 0 01-.12-.33zm6.91 1.83h.65v6.23c0 .55-.11 1.02-.32 1.42-.2.39-.5.69-.88.9-.38.22-.83.32-1.34.32-.27 0-.54-.04-.81-.12-.28-.08-.54-.2-.78-.37-.24-.16-.45-.35-.62-.59l.39-.43c.26.31.53.54.83.69.29.14.6.22.94.22.41 0 .75-.08 1.02-.24.29-.16.5-.39.64-.69.15-.3.23-.67.23-1.09v-4.86l.05-1.39zm-4.45 3.23v-.12a5 5 0 01.16-1.33c.11-.4.27-.74.49-1.02.21-.28.46-.5.76-.65.31-.15.65-.23 1.03-.23.37 0 .7.06.98.18.29.13.53.3.74.53.21.22.37.49.5.8.13.32.22.66.28 1.05v1.56c-.05.36-.13.69-.26.99-.12.3-.29.56-.5.78-.2.22-.45.39-.75.51-.28.12-.62.18-1 .18s-.72-.08-1.02-.24c-.3-.15-.55-.37-.76-.66a3.02 3.02 0 01-.49-1.02c-.11-.4-.16-.83-.16-1.31zm.7-.12v.12c0 .38.04.72.11 1.04.07.31.19.59.34.82.15.24.35.42.58.55.23.14.51.2.83.2.4 0 .74-.07 1.01-.23.27-.15.49-.36.65-.61.16-.26.28-.54.35-.85v-1.82c-.04-.2-.11-.42-.2-.63-.08-.22-.2-.41-.36-.59-.15-.19-.35-.33-.59-.44-.23-.12-.52-.17-.85-.17-.32 0-.6.06-.84.2-.23.13-.43.32-.58.55-.15.24-.27.51-.34.83-.07.32-.11.66-.11 1.03zm6.93-5.77v9h-.7v-9h.7zm-.16 5.44l-.31-.18c.02-.37.1-.72.23-1.05.13-.33.3-.62.52-.87.22-.25.48-.45.78-.59.3-.14.63-.21 1-.21.31 0 .6.05.85.13.25.09.46.22.63.41.18.19.31.43.4.72.1.3.14.65.14 1.08v4.12h-.7v-4.13c0-.44-.06-.78-.18-1.03s-.29-.42-.52-.53c-.22-.1-.48-.16-.79-.16-.33 0-.63.08-.88.23-.25.14-.46.33-.63.56-.17.23-.3.48-.39.75-.09.26-.14.51-.15.75zm8.45-2.78v.57h-3.18v-.57h3.18zm-2.01-1.63h.69v6.43c0 .29.04.51.12.66.08.15.18.25.3.3.13.05.26.08.41.08.1 0 .21-.01.3-.02.1-.02.19-.03.27-.05l.03.59c-.09.03-.2.05-.34.07-.13.02-.27.03-.41.03-.27 0-.51-.05-.71-.15-.21-.1-.37-.27-.49-.51-.12-.25-.17-.58-.17-1.01v-6.42zm7.27 6.35c0-.17-.04-.34-.13-.51-.08-.16-.25-.32-.49-.46-.25-.14-.6-.26-1.08-.36-.35-.08-.66-.16-.94-.26-.27-.1-.5-.22-.69-.35-.19-.14-.33-.3-.43-.49-.1-.2-.15-.42-.15-.68 0-.24.06-.46.16-.67.1-.21.25-.39.44-.55.2-.16.43-.28.71-.37.27-.09.58-.14.93-.14.49 0 .9.09 1.25.25.35.17.62.39.8.68.19.28.28.61.28.97h-.69c0-.22-.07-.43-.2-.63a1.45 1.45 0 00-.55-.48c-.24-.12-.54-.18-.89-.18-.37 0-.66.05-.89.16-.22.11-.39.25-.5.42a.98.98 0 00-.15.52c0 .14.02.27.07.38.04.12.13.22.24.32.12.1.3.19.52.28.22.08.51.17.87.25.51.11.92.25 1.25.41.33.16.57.36.73.6.15.24.23.52.23.86 0 .26-.05.5-.16.72-.11.21-.27.4-.48.55-.2.16-.45.28-.74.37-.28.08-.6.13-.96.13-.53 0-.99-.09-1.36-.27-.36-.18-.64-.41-.84-.7-.18-.29-.28-.6-.28-.93h.7c.02.33.13.59.31.78.18.19.41.32.68.4.26.07.53.11.79.11.36 0 .66-.05.9-.15.25-.11.43-.25.56-.42.12-.17.18-.36.18-.56zm5.36-6.91h2.78c.59 0 1.1.09 1.53.29.43.19.77.47 1 .85.24.37.36.82.36 1.37 0 .4-.09.76-.26 1.09-.17.33-.4.61-.7.83-.29.22-.64.37-1.03.45l-.25.09h-2.96l-.01-.61h2.48c.44 0 .82-.09 1.11-.26.3-.17.52-.4.67-.68.15-.28.23-.59.23-.91 0-.39-.08-.72-.25-1.01-.17-.28-.41-.5-.73-.65-.33-.15-.73-.23-1.19-.23h-2.06v7.91h-.72v-8.53zm5.27 8.53l-2.21-3.81.78-.01 2.2 3.74v.08h-.77zm4.67.12c-.42 0-.8-.08-1.15-.23-.34-.15-.64-.37-.9-.65-.25-.27-.45-.6-.59-.98-.14-.38-.21-.8-.21-1.25v-.26c0-.48.08-.93.22-1.32.15-.39.34-.73.6-1.01.25-.29.54-.5.87-.65.32-.15.67-.23 1.03-.23.4 0 .76.08 1.07.22.31.14.57.34.78.6.22.26.38.57.49.92.11.35.16.74.16 1.17v.43h-4.79v-.6h4.1v-.08c-.01-.36-.08-.69-.22-1a1.73 1.73 0 00-.6-.76c-.26-.2-.59-.29-.99-.29-.3 0-.57.06-.82.18-.25.13-.46.31-.64.54-.18.23-.31.51-.41.83-.1.32-.14.67-.14 1.05v.26c0 .35.05.68.15.98.1.3.25.57.44.8.2.23.43.41.7.54.26.13.55.19.88.19.37 0 .7-.07.99-.21.29-.14.55-.36.78-.66l.44.34c-.14.21-.31.39-.52.56-.2.18-.44.31-.73.41-.28.11-.62.16-.99.16zm7.55-1.74c0-.17-.04-.34-.12-.51-.09-.16-.26-.32-.5-.46s-.6-.26-1.07-.36c-.36-.08-.67-.16-.95-.26-.27-.1-.5-.22-.69-.35-.19-.14-.33-.3-.43-.49-.1-.2-.14-.42-.14-.68 0-.24.05-.46.15-.67.1-.21.25-.39.44-.55.2-.16.43-.28.71-.37.27-.09.58-.14.93-.14.49 0 .9.09 1.25.25.35.17.62.39.81.68.18.28.28.61.28.97h-.7c0-.22-.07-.43-.19-.63-.13-.19-.31-.35-.56-.48-.24-.12-.54-.18-.89-.18-.36 0-.66.05-.89.16-.22.11-.39.25-.49.42a.91.91 0 00-.16.52c0 .14.02.27.07.38.04.12.13.22.24.32.12.1.3.19.52.28.22.08.51.17.87.25.51.11.93.25 1.25.41.33.16.57.36.73.6.15.24.23.52.23.86 0 .26-.05.5-.16.72-.11.21-.27.4-.48.55-.2.16-.45.28-.74.37-.28.08-.6.13-.96.13-.53 0-.98-.09-1.36-.27-.36-.18-.64-.41-.83-.7-.19-.29-.28-.6-.28-.93h.69c.03.33.13.59.31.78.19.19.41.32.68.4.27.07.53.11.79.11.36 0 .66-.05.91-.15.24-.11.42-.25.55-.42.12-.17.18-.36.18-.56zm4.74 1.74c-.42 0-.8-.08-1.14-.23-.35-.15-.65-.37-.91-.65-.25-.27-.45-.6-.59-.98-.13-.38-.2-.8-.2-1.25v-.26c0-.48.07-.93.21-1.32.15-.39.35-.73.6-1.01.26-.29.54-.5.87-.65.33-.15.67-.23 1.03-.23.4 0 .76.08 1.07.22.31.14.58.34.79.6.21.26.37.57.48.92.11.35.17.74.17 1.17v.43h-4.8v-.6h4.1v-.08c-.01-.36-.08-.69-.22-1-.13-.31-.33-.57-.59-.76-.27-.2-.6-.29-1-.29-.3 0-.57.06-.82.18-.25.13-.46.31-.64.54-.17.23-.31.51-.41.83-.09.32-.14.67-.14 1.05v.26c0 .35.05.68.15.98.11.3.26.57.45.8.19.23.42.41.69.54.26.13.56.19.88.19.37 0 .71-.07.99-.21.29-.14.55-.36.78-.66l.44.34c-.13.21-.31.39-.51.56-.21.18-.45.31-.74.41-.28.11-.61.16-.99.16zm4.46-5.41v5.29h-.7v-6.34h.68l.02 1.05zm2.24-1.1l-.02.65-.22-.03c-.08-.01-.16-.01-.24-.01-.31 0-.58.05-.81.17-.22.11-.42.26-.57.46-.16.19-.28.43-.36.69-.08.26-.13.54-.14.84l-.26.1c0-.41.05-.79.13-1.15.09-.36.22-.67.39-.93.18-.27.41-.48.68-.63.27-.15.59-.23.96-.23.09 0 .18.01.26.03.09.01.16.02.2.04zm3.08 5.72l2.03-5.67h.72l-2.37 6.34h-.51l.13-.67zm-1.84-5.67l2.05 5.68.12.66h-.52l-2.38-6.34h.73zm8.11 6.46c-.41 0-.79-.08-1.14-.23-.34-.15-.64-.37-.9-.65-.26-.27-.45-.6-.59-.98-.14-.38-.21-.8-.21-1.25v-.26c0-.48.07-.93.22-1.32.14-.39.34-.73.6-1.01.25-.29.54-.5.86-.65.33-.15.68-.23 1.03-.23.41 0 .76.08 1.08.22.31.14.57.34.78.6.22.26.38.57.49.92.11.35.16.74.16 1.17v.43h-4.8v-.6h4.11v-.08c-.01-.36-.09-.69-.22-1a1.73 1.73 0 00-.6-.76c-.27-.2-.6-.29-1-.29-.29 0-.57.06-.82.18-.24.13-.45.31-.63.54-.18.23-.32.51-.41.83-.1.32-.15.67-.15 1.05v.26c0 .35.06.68.16.98.1.3.25.57.44.8.2.23.43.41.69.54.27.13.56.19.88.19.38 0 .71-.07 1-.21.29-.14.55-.36.78-.66l.44.34c-.14.21-.31.39-.52.56-.2.18-.45.31-.73.41-.29.11-.62.16-1 .16zm7.88-1.35V6635h.71v9h-.66l-.05-1.23zm-4.4-1.88v-.12c0-.49.06-.93.17-1.33.12-.4.28-.74.49-1.02.21-.28.47-.5.77-.65.3-.15.64-.23 1.02-.23.37 0 .7.06.99.18.28.13.53.3.73.53.21.22.37.49.5.8.13.32.22.66.28 1.05v1.56c-.05.36-.13.69-.26.99-.12.3-.29.56-.5.78-.2.22-.45.39-.75.51-.29.12-.62.18-1 .18-.37 0-.71-.08-1.01-.24-.3-.15-.56-.37-.77-.66a3.45 3.45 0 01-.49-1.02c-.11-.4-.17-.83-.17-1.31zm.71-.12v.12c0 .38.03.72.11 1.04.07.31.19.59.34.82.15.24.34.42.58.55.23.14.51.2.83.2.4 0 .74-.07 1.01-.23.28-.15.5-.36.66-.61.16-.26.28-.54.36-.85v-1.82c-.05-.2-.12-.42-.21-.63-.09-.22-.21-.41-.37-.59-.15-.19-.34-.33-.58-.44-.24-.12-.52-.17-.86-.17-.32 0-.6.06-.84.2-.23.13-.43.32-.58.55-.15.24-.27.51-.34.83-.08.32-.11.66-.11 1.03zM191.103 6133.11c-4.006-.97-8.191-.53-11.951 1.27-3.759 1.8-6.9 4.85-8.97 8.73a1.017 1.017 0 00.135 1.15l5.633 6.16c3.992-6.78 9.136-12.65 15.153-17.31zM212.501 6156.5c.887 4.39.48 8.96-1.163 13.07-1.644 4.11-4.438 7.55-7.981 9.81a.765.765 0 01-.548.12.797.797 0 01-.501-.27l-5.633-6.16c6.195-4.36 11.568-9.99 15.826-16.57zM179.092 6169.64c-1.139-1.24-2.681-1.94-4.29-1.94-1.608 0-3.151.7-4.289 1.94-2.793 3.05-3.48 11.82-3.51 12.2-.01.13.005.26.044.38a.98.98 0 00.183.34c.082.09.181.17.291.22.11.05.228.08.349.08h.071c.339-.03 8.359-.78 11.151-3.83 1.137-1.25 1.775-2.94 1.775-4.7 0-1.76-.638-3.44-1.775-4.69zM214.682 6146.47A58.195 58.195 0 00219 6127c.007-.13-.012-.26-.055-.39a1.05 1.05 0 00-.196-.33.966.966 0 00-.303-.22.877.877 0 00-.358-.06c-6.169.31-12.229 1.9-17.862 4.67l14.456 15.8zM198.571 6131.54c-17.098 9.36-23.861 27.15-23.948 27.39-.063.17-.079.36-.045.54.034.18.116.35.237.48l13.139 14.37c.121.13.275.22.442.26.167.03.341.02.499-.05.214-.1 16.408-7.58 24.985-26.25l-15.309-16.74zm-2.971 25.73a4.915 4.915 0 01-2.889-.95 5.657 5.657 0 01-1.915-2.56 6.169 6.169 0 01-.296-3.28c.201-1.1.696-2.12 1.423-2.91a5.062 5.062 0 012.663-1.56 4.788 4.788 0 013.004.33c.95.43 1.762 1.15 2.334 2.09.571.93.876 2.03.876 3.16 0 1.51-.548 2.95-1.523 4.02-.975 1.07-2.298 1.66-3.677 1.66z" fill="#fff"/><path opacity=".3" fill-rule="evenodd" clip-rule="evenodd" d="M1666.72 3804.69c126.32 21.02 191.2 156.12 293.08 233.77 98.49 75.07 237.36 102.47 293.18 213.07 59.1 117.12 30.34 254.6 8.09 383.9-25.95 150.82-10.92 353.1-146.92 423.05-140.57 72.3-290.18-101.51-447.43-117.35-131.87-13.28-264.67 85.7-386.45 33.35-131.67-56.6-243.11-177.47-274.38-317.43-30.466-136.34 64.67-262.11 115.84-392.1 47.38-120.33 72.61-254.01 171.38-337.42 102.69-86.73 241.05-144.89 373.61-122.84z" fill="#DDD0CB"/><g filter="url(#filter0_f_257_1638)"><path d="M447.758 4271c143.176 0 261.862 116.98 236.793 257.94-16.187 91.02-40.933 177.73-73.6 256.71-62.543 151.2-151.145 266.86-253.98 331.56-102.836 64.7-215.013 75.35-321.56 30.54-106.547-44.82-202.394-142.97-274.749-281.36-72.354-138.39-117.775-310.43-130.198-493.16-12.423-182.73 8.741-367.46 60.668-529.53 51.928-162.07 132.147-293.77 229.953-377.52 149.433-127.96 305.798 54.58 290.145 250.69l-21.892 274.26C177.3 4141.96 296.451 4271 447.758 4271z" fill="url(#paint0_linear_257_1638)" fill-opacity=".41"/></g><g opacity=".2" filter="url(#filter1_f_257_1638)"><path d="M32.977 2506.81c-576.042 407.04-625.694-570.07-262.423-1930.163C-58.923-29.963 113.711 96.44 369.496 639.004 625.28 1181.57 609.018 2099.76 32.976 2506.81z" fill="url(#paint1_linear_257_1638)"/></g></g><defs><linearGradient id="paint0_linear_257_1638" x1="-845.855" y1="2738.47" x2="1067.88" y2="4426.45" gradientUnits="userSpaceOnUse"><stop stop-color="#00A3FF" stop-opacity="0"/><stop offset="1" stop-color="#70F0F9"/><stop offset="1" stop-color="#23A7FE"/></linearGradient><linearGradient id="paint1_linear_257_1638" x1="470.113" y1="469.368" x2="-772.063" y2="2238.19" gradientUnits="userSpaceOnUse"><stop stop-color="#00FFE0"/><stop offset=".38" stop-color="#39FDE5"/><stop offset="1" stop-color="#15C7FE"/></linearGradient><filter id="filter0_f_257_1638" x="-522" y="3274.55" width="1358.91" height="2049.45" filterUnits="userSpaceOnUse" color-interpolation-filters="sRGB"><feFlood flood-opacity="0" result="BackgroundImageFix"/><feBlend in="SourceGraphic" in2="BackgroundImageFix" result="shape"/><feGaussianBlur stdDeviation="74.5" result="effect1_foregroundBlur_257_1638"/></filter><filter id="filter1_f_257_1638" x="-960.263" y="-326" width="1987.82" height="3426.05" filterUnits="userSpaceOnUse" color-interpolation-filters="sRGB"><feFlood flood-opacity="0" result="BackgroundImageFix"/><feBlend in="SourceGraphic" in2="BackgroundImageFix" result="shape"/><feGaussianBlur stdDeviation="250" result="effect1_foregroundBlur_257_1638"/></filter><clipPath id="clip0_257_1638"><path fill="#fff" d="M0 0h1440v6734H0z"/></clipPath></defs></svg>