<svg width="177" height="177" viewBox="0 0 177 177" fill="none" xmlns="http://www.w3.org/2000/svg">
<circle cx="88.5" cy="88.5" r="88.5" fill="#0B8292"/>
<circle cx="88.5" cy="88.5" r="88.5" fill="url(#paint0_radial_89_10078)"/>
<circle cx="88.5" cy="88.5" r="88.5" fill="url(#paint1_radial_89_10078)"/>
<circle cx="88.5" cy="88.5" r="88.5" fill="url(#paint2_radial_89_10078)"/>
<path d="M78.9492 91.5301C80.8927 94.1309 83.3723 96.283 86.2197 97.8402C89.0672 99.3975 92.2159 100.324 95.4523 100.556C98.6887 100.788 101.937 100.32 104.977 99.185C108.017 98.0498 110.778 96.2734 113.072 93.9763L126.649 80.3861C130.77 76.1141 133.051 70.3926 133 64.4537C132.948 58.5148 130.568 52.8338 126.373 48.6342C122.178 44.4346 116.502 42.0525 110.569 42.0009C104.636 41.9492 98.9205 44.2323 94.6529 48.3583L86.8689 56.1047" stroke="white" stroke-width="9" stroke-linecap="round" stroke-linejoin="round"/>
<path d="M97.0512 82.4699C95.1077 79.869 92.6281 77.717 89.7807 76.1597C86.9332 74.6025 83.7845 73.6764 80.5481 73.4444C77.3117 73.2124 74.0633 73.6798 71.0232 74.815C67.9831 75.9502 65.2225 77.7265 62.9285 80.0236L49.3519 93.6139C45.2301 97.8858 42.9493 103.607 43.0009 109.546C43.0524 115.485 45.4321 121.166 49.6275 125.366C53.8229 129.565 59.4982 131.947 65.4311 131.999C71.3641 132.051 77.0799 129.768 81.3475 125.642L89.0862 117.895" stroke="white" stroke-width="9" stroke-linecap="round" stroke-linejoin="round"/>
<defs>
<radialGradient id="paint0_radial_89_10078" cx="0" cy="0" r="1" gradientUnits="userSpaceOnUse" gradientTransform="translate(141.969 24.4297) rotate(129.82) scale(983.741)">
<stop stop-color="#09566E"/>
<stop offset="1" stop-color="white"/>
</radialGradient>
<radialGradient id="paint1_radial_89_10078" cx="0" cy="0" r="1" gradientUnits="userSpaceOnUse" gradientTransform="translate(141.969 24.4297) rotate(129.82) scale(983.741)">
<stop stop-color="#09566E"/>
<stop offset="1" stop-color="white"/>
</radialGradient>
<radialGradient id="paint2_radial_89_10078" cx="0" cy="0" r="1" gradientUnits="userSpaceOnUse" gradientTransform="translate(141.969 24.4297) rotate(129.82) scale(983.741)">
<stop stop-color="#09566E"/>
<stop offset="1" stop-color="white"/>
</radialGradient>
</defs>
</svg>
