<svg width="379" height="350" viewBox="0 0 379 350" fill="none" xmlns="http://www.w3.org/2000/svg">
<path d="M196.222 312.2C285.221 312.2 357.367 245.054 357.367 162.226C357.367 79.3986 285.221 12.2535 196.222 12.2535C107.223 12.2535 35.0747 79.3986 35.0747 162.226C35.0747 245.054 107.223 312.2 196.222 312.2Z" stroke="#D1E8F7" stroke-width="1.91649" stroke-miterlimit="10"/>
<path d="M65.1253 79.4491C68.2601 79.4491 70.8013 77.084 70.8013 74.1666C70.8013 71.2492 68.2601 68.8846 65.1253 68.8846C61.991 68.8846 59.4497 71.2492 59.4497 74.1666C59.4497 77.084 61.991 79.4491 65.1253 79.4491Z" fill="#FEBB94"/>
<path d="M357.367 173.22C360.503 173.22 363.046 170.856 363.046 167.938C363.046 165.021 360.503 162.656 357.367 162.656C354.235 162.656 351.692 165.021 351.692 167.938C351.692 170.856 354.235 173.22 357.367 173.22Z" fill="#5661AE"/>
<path d="M202.832 317.482C205.966 317.482 208.507 315.117 208.507 312.2C208.507 309.282 205.966 306.917 202.832 306.917C199.697 306.917 197.156 309.282 197.156 312.2C197.156 315.117 199.697 317.482 202.832 317.482Z" fill="#1C85E8"/>
<path d="M199.955 275.09C266.346 275.09 320.166 225.002 320.166 163.214C320.166 101.427 266.346 51.3382 199.955 51.3382C133.564 51.3382 79.7437 101.427 79.7437 163.214C79.7437 225.002 133.564 275.09 199.955 275.09Z" stroke="#D1E8F7" stroke-width="1.42966" stroke-miterlimit="10"/>
<path d="M318.106 189.69C320.444 189.69 322.34 187.926 322.34 185.75C322.34 183.574 320.444 181.81 318.106 181.81C315.767 181.81 313.872 183.574 313.872 185.75C313.872 187.926 315.767 189.69 318.106 189.69Z" fill="#FEBB94"/>
<path d="M88.4608 209.198C90.7995 209.198 92.6951 207.434 92.6951 205.258C92.6951 203.082 90.7995 201.318 88.4608 201.318C86.1227 201.318 84.2271 203.082 84.2271 205.258C84.2271 207.434 86.1227 209.198 88.4608 209.198Z" fill="#5661AE"/>
<path d="M146.108 67.0248C148.447 67.0248 150.343 65.2606 150.343 63.0841C150.343 60.9081 148.447 59.1439 146.108 59.1439C143.77 59.1439 141.875 60.9081 141.875 63.0841C141.875 65.2606 143.77 67.0248 146.108 67.0248Z" fill="#1C85E8"/>
<path d="M262.521 287.102H123.695C117.673 287.102 113.26 282.558 113.839 276.953L137.537 47.5169C138.116 41.9116 143.468 37.3676 149.49 37.3676H288.316C294.339 37.3676 298.752 41.9116 298.172 47.5169L274.474 276.953C273.895 282.558 268.543 287.102 262.521 287.102Z" fill="#1C85E8"/>
<path d="M252.736 287.102H113.911C107.889 287.102 103.476 282.558 104.054 276.953L127.753 47.5169C128.332 41.9116 133.684 37.3676 139.707 37.3676H278.532C284.554 37.3676 288.967 41.9116 288.389 47.5169L264.69 276.953C264.111 282.558 258.759 287.102 252.736 287.102Z" fill="url(#paint0_linear_49_9880)"/>
<path d="M247.476 279.475H120.748C115.167 279.475 111.077 275.264 111.613 270.069L133.89 54.4004C134.427 49.2058 139.386 44.995 144.968 44.995H271.695C277.277 44.995 281.367 49.2058 280.83 54.4004L258.554 270.069C258.017 275.264 253.057 279.475 247.476 279.475Z" fill="white"/>
<path d="M257.639 143.106L121.693 142.993C121.137 143.008 120.585 142.911 120.073 142.711C119.561 142.51 119.101 142.211 118.723 141.831C118.345 141.453 118.059 141.003 117.883 140.513C117.707 140.022 117.645 139.502 117.702 138.988L125.031 63.2491C125.164 62.1561 125.722 61.1463 126.6 60.4099C127.477 59.6731 128.614 59.2612 129.796 59.2508L265.742 59.3633C266.297 59.3495 266.849 59.4457 267.362 59.6459C267.873 59.8467 268.334 60.1461 268.711 60.5253C269.089 60.9046 269.375 61.3541 269.551 61.8446C269.728 62.3346 269.789 62.8544 269.732 63.3687L262.403 139.108C262.271 140.201 261.712 141.21 260.835 141.947C259.957 142.684 258.82 143.096 257.639 143.106Z" fill="url(#paint1_linear_49_9880)"/>
<path d="M253.358 224.716H195.899C195.475 224.724 195.054 224.646 194.665 224.49C194.276 224.333 193.927 224.101 193.643 223.808C193.359 223.516 193.146 223.17 193.018 222.793C192.889 222.418 192.85 222.02 192.9 221.629L199.877 154.083C199.978 153.245 200.402 152.47 201.071 151.903C201.74 151.335 202.608 151.013 203.513 150.996H260.972C261.396 150.988 261.817 151.065 262.206 151.222C262.595 151.378 262.943 151.611 263.228 151.903C263.512 152.196 263.725 152.542 263.853 152.918C263.981 153.294 264.021 153.691 263.97 154.083L256.993 221.629C256.893 222.466 256.469 223.241 255.8 223.809C255.131 224.377 254.263 224.699 253.358 224.716Z" fill="url(#paint2_linear_49_9880)"/>
<path d="M239.66 187.454C246.14 181.706 246.845 172.606 241.235 167.128C235.624 161.65 225.824 161.869 219.344 167.616C212.864 173.364 212.159 182.464 217.769 187.942C223.379 193.42 233.18 193.202 239.66 187.454Z" stroke="#EF6A77" stroke-width="11.6898" stroke-miterlimit="10"/>
<path d="M222.218 190.821C216.842 188.661 213.435 183.526 214.054 177.535C214.874 169.594 222.455 163.158 230.987 163.158" stroke="white" stroke-width="11.6898" stroke-miterlimit="10" stroke-linecap="round"/>
<path d="M220.942 203.18H232.763" stroke="white" stroke-width="5.98374" stroke-miterlimit="10" stroke-linecap="round"/>
<path d="M219.655 215.64H231.476" stroke="white" stroke-width="5.98374" stroke-miterlimit="10" stroke-linecap="round"/>
<path opacity="0.4" d="M214.001 209.34H238.431" stroke="white" stroke-width="5.98374" stroke-miterlimit="10" stroke-linecap="round"/>
<path d="M183.089 224.716H125.629C125.206 224.724 124.785 224.646 124.396 224.49C124.007 224.333 123.658 224.101 123.374 223.808C123.09 223.516 122.877 223.17 122.749 222.793C122.62 222.418 122.581 222.02 122.631 221.629L129.608 154.083C129.709 153.245 130.133 152.47 130.802 151.903C131.471 151.335 132.338 151.013 133.244 150.996H190.703C191.127 150.988 191.548 151.065 191.937 151.222C192.326 151.378 192.674 151.611 192.958 151.903C193.243 152.196 193.456 152.542 193.584 152.918C193.712 153.294 193.752 153.691 193.701 154.083L186.724 221.629C186.624 222.466 186.2 223.241 185.531 223.809C184.862 224.377 183.994 224.699 183.089 224.716Z" fill="#FF14B1"/>
<path d="M169.39 187.454C175.87 181.706 176.575 172.606 170.965 167.128C165.355 161.65 155.554 161.869 149.074 167.616C142.594 173.364 141.889 182.464 147.499 187.942C153.109 193.42 162.911 193.202 169.39 187.454Z" stroke="#EF6A77" stroke-width="11.6898" stroke-miterlimit="10"/>
<path d="M174.681 177.535C173.861 185.475 166.28 191.911 157.748 191.911C149.216 191.911 142.964 185.475 143.785 177.535C144.605 169.594 152.186 163.158 160.718 163.158" stroke="white" stroke-width="11.6898" stroke-miterlimit="10" stroke-linecap="round"/>
<path d="M150.673 203.18H162.494" stroke="white" stroke-width="5.98374" stroke-miterlimit="10" stroke-linecap="round"/>
<path d="M149.386 215.64H161.207" stroke="white" stroke-width="5.98374" stroke-miterlimit="10" stroke-linecap="round"/>
<path opacity="0.4" d="M143.732 209.34H168.162" stroke="white" stroke-width="5.98374" stroke-miterlimit="10" stroke-linecap="round"/>
<path d="M248.541 273.028H120.466C120.064 273.035 119.665 272.962 119.297 272.814C118.928 272.665 118.598 272.445 118.328 272.168C118.059 271.89 117.857 271.562 117.735 271.206C117.614 270.85 117.576 270.473 117.624 270.102L121.446 233.102C121.542 232.308 121.944 231.573 122.578 231.035C123.212 230.497 124.034 230.192 124.892 230.176H252.967C253.369 230.168 253.768 230.241 254.137 230.39C254.505 230.538 254.835 230.758 255.105 231.036C255.374 231.313 255.576 231.641 255.698 231.997C255.819 232.354 255.857 232.73 255.809 233.102L251.987 270.102C251.891 270.896 251.49 271.63 250.856 272.168C250.222 272.707 249.399 273.012 248.541 273.028Z" fill="url(#paint3_linear_49_9880)"/>
<path d="M129.385 264.449L131.191 246.957" stroke="white" stroke-width="11.6898" stroke-miterlimit="10" stroke-linecap="round"/>
<path d="M142.642 252.195L141.376 264.449" stroke="white" stroke-width="11.6898" stroke-miterlimit="10" stroke-linecap="round"/>
<path d="M154.201 256.38L153.367 264.449" stroke="white" stroke-width="11.6898" stroke-miterlimit="10" stroke-linecap="round"/>
<path d="M167.634 242.411L165.358 264.449" stroke="white" stroke-width="11.6898" stroke-miterlimit="10" stroke-linecap="round"/>
<path d="M178.183 256.38L177.349 264.449" stroke="white" stroke-width="11.6898" stroke-miterlimit="10" stroke-linecap="round"/>
<path d="M191.516 243.384L189.34 264.448" stroke="white" stroke-width="11.6898" stroke-miterlimit="10" stroke-linecap="round"/>
<path d="M202.235 255.703L201.331 264.449" stroke="white" stroke-width="11.6898" stroke-miterlimit="10" stroke-linecap="round"/>
<path d="M213.803 259.79L213.322 264.449" stroke="white" stroke-width="11.6898" stroke-miterlimit="10" stroke-linecap="round"/>
<path d="M227.12 246.957L225.313 264.449" stroke="white" stroke-width="11.6898" stroke-miterlimit="10" stroke-linecap="round"/>
<path d="M239.799 240.296L237.304 264.449" stroke="white" stroke-width="11.6898" stroke-miterlimit="10" stroke-linecap="round"/>
<path d="M132.704 131.492L139.902 141.985C140.227 142.459 140.337 143.033 140.209 143.582C140.081 144.131 139.726 144.611 139.22 144.917L138.056 145.621C136.109 146.798 133.769 147.278 131.47 146.97C129.171 146.663 127.071 145.589 125.559 143.948L116.007 133.582L132.704 131.492Z" fill="#FFCCB3"/>
<path d="M127.211 135.53C127.211 135.53 129.877 144.047 135.231 146.779C136.621 146.278 137.957 145.655 139.22 144.917L133.215 135.53" fill="#FCBA9F"/>
<path d="M4.07275 173.831L32.3452 161.221C35.0091 160.033 37.2614 158.174 38.8466 155.854L66.1588 115.869C67.859 113.379 70.3252 111.424 73.2362 110.257L112.574 94.484L104.152 153.756L104.004 155.946C104.004 155.946 93.5996 181.025 68.098 190.136L27.326 213.344L4.07275 173.831Z" fill="#FFCCB3"/>
<path d="M34.8402 159.83C34.8402 159.83 48.2141 190.897 68.0976 190.136L55.4025 197.362C55.4025 197.362 12.313 189.923 28.4425 162.9L34.8402 159.83Z" fill="#FCBA9F"/>
<path d="M106.485 105.453C106.485 105.453 92.5762 113.297 93.314 131.492L110.017 125.683L106.485 105.453Z" fill="#FCBA9F"/>
<path d="M141.425 131.492L148.622 141.985C148.947 142.459 149.058 143.033 148.93 143.582C148.803 144.131 148.447 144.611 147.94 144.917L146.777 145.621C144.83 146.798 142.489 147.278 140.191 146.97C137.892 146.663 135.792 145.589 134.28 143.948L124.729 133.582L141.425 131.492Z" fill="#FFCCB3"/>
<path d="M247.834 135.63L111.888 135.518C111.333 135.531 110.78 135.435 110.269 135.234C109.756 135.034 109.296 134.734 108.918 134.355C108.541 133.976 108.254 133.527 108.078 133.036C107.902 132.546 107.841 132.026 107.898 131.512L115.227 55.7728C115.36 54.6797 115.917 53.6699 116.795 52.9335C117.673 52.1972 118.809 51.7849 119.991 51.7744L255.937 51.8873C256.492 51.8731 257.045 51.9697 257.557 52.17C258.069 52.3703 258.529 52.6701 258.907 53.0489C259.284 53.4282 259.571 53.8781 259.747 54.3682C259.923 54.8587 259.984 55.3784 259.928 55.8923L252.599 131.632C252.466 132.725 251.908 133.735 251.03 134.471C250.152 135.207 249.016 135.62 247.834 135.63Z" fill="#25939C"/>
<path d="M120.889 96.7075C120.889 96.7075 133.092 94.4106 136.376 99.7399C139.66 105.069 142.492 115.077 151.23 113.787C159.968 112.496 166.657 86.3311 175.247 86.5699C183.838 86.8087 180.809 103.945 190.16 104.184C199.51 104.424 197.847 94.6121 204.079 94.8856C211.638 95.2172 208.82 115.548 218.677 115.787C228.534 116.027 230.142 88.9328 245.043 89.4083" stroke="white" stroke-width="7.56507" stroke-miterlimit="10" stroke-linecap="round"/>
<path d="M127.83 64.4592L151.747 64.4794" stroke="white" stroke-width="11.9991" stroke-miterlimit="10" stroke-linecap="round"/>
<path opacity="0.4" d="M126.842 74.6631L176.27 74.7041" stroke="white" stroke-width="11.9991" stroke-miterlimit="10" stroke-linecap="round"/>
<path d="M80.5635 135.255L98.0027 128.105L115.837 116.776C120.527 113.796 130.322 112.454 133.848 116.596C137.435 120.81 133.406 129.144 129.056 132.68L112.574 146.074L104.004 155.946L80.5635 135.255Z" fill="#FFCCB3"/>
<path d="M116.007 121.078C116.007 121.078 118.362 129.527 124.466 130.989L130.94 125.898C131.597 125.443 132.147 124.869 132.557 124.21C132.967 123.55 133.229 122.82 133.326 122.064C133.423 121.308 133.354 120.541 133.122 119.81C132.89 119.08 132.501 118.401 131.978 117.815C131.064 116.791 129.79 116.103 128.382 115.873C126.974 115.644 125.524 115.887 124.291 116.56L116.007 121.078Z" stroke="#FF967C" stroke-width="3" stroke-linecap="round"/>
<path d="M33.4192 160.177C33.4192 160.177 30.0395 182.671 59.45 195.552C59.45 195.552 38.3228 213.588 30.1774 216.621C22.0325 219.653 -8.57093 188.661 2.31389 171.071C5.36645 166.138 33.4192 160.177 33.4192 160.177Z" fill="#3CD8E5"/>
<path d="M144.856 136.494C144.856 136.494 133.393 136.712 129.403 138.655L126.522 135.53L144.194 135.53L144.856 136.494Z" fill="#FCBA9F"/>
<path d="M355.92 135.63H274.414C268.274 135.63 263.738 130.998 264.281 125.284L275.217 10.3458C275.761 4.63225 281.178 0 287.318 0H368.824C374.966 0 379.499 4.63225 378.956 10.3458L368.02 125.284C367.476 130.998 362.058 135.63 355.92 135.63Z" fill="#FF14B1"/>
<path d="M344.252 64.9004C357.16 53.4093 358.459 35.1818 347.159 24.1882C335.857 13.1947 316.234 13.5978 303.327 25.0889C290.422 36.5801 289.12 54.8076 300.422 65.8011C311.723 76.7951 331.347 76.3916 344.252 64.9004Z" fill="white"/>
<path d="M325.517 45.8893L345.977 63.2558C345.977 63.2558 350.632 58.5997 352.02 55.2721L325.517 45.8893Z" fill="url(#paint4_linear_49_9880)"/>
<path d="M326.879 12.5291L323.972 43.0861C323.907 43.6427 324.019 44.2047 324.294 44.7031C324.568 45.2011 324.994 45.6134 325.517 45.8894L353.278 60.2729C353.278 60.2729 369.763 17.4716 326.879 12.5291Z" fill="#1C85E8"/>
<path d="M283.427 94.9485H317.193" stroke="white" stroke-width="12" stroke-miterlimit="10" stroke-linecap="round"/>
<path d="M280.955 120.929H314.721" stroke="white" stroke-width="12" stroke-miterlimit="10" stroke-linecap="round"/>
<path opacity="0.4" d="M282.205 107.792H351.984" stroke="white" stroke-width="12" stroke-miterlimit="10" stroke-linecap="round"/>
<path d="M255.683 220.304C255.683 220.304 266.567 217.602 272.36 223.407C272.36 223.407 282.772 221.648 287.005 227.038C287.005 227.038 296.236 227.536 298.91 231.04C301.133 231.326 303.235 232.154 305.002 233.442C306.769 234.729 308.139 236.429 308.97 238.369C311.495 243.905 309.354 275.915 306.845 287.385C306.218 290.254 306.432 293.227 307.467 295.992L313.849 313.06L269.693 330.239L259.21 304.792C259.21 304.792 246.449 285.708 244.626 282.314C242.803 278.921 245.893 250.766 239.669 233.178L255.683 220.304Z" fill="#FFCCB3"/>
<path d="M264.905 318.618L263.631 315.525C263.631 315.525 286.544 314.162 307.467 295.992L309.468 301.345C309.468 301.345 306.884 312.401 295.118 317.611C283.351 322.822 264.905 318.618 264.905 318.618Z" fill="#FCBA9F"/>
<path d="M264.905 318.617C264.905 318.617 292.639 320.968 309.468 301.345C309.468 301.345 315.682 304.376 325.223 326.572C328.153 333.389 279.22 357.662 271.308 347.572C271.308 347.572 264.478 334.126 264.905 318.617Z" fill="#3CD8E5"/>
<path d="M242.384 243.795C242.384 243.795 241.427 248.519 236.904 248.519C233.953 248.519 221.162 244.923 212.624 242.422C210.301 241.742 207.809 241.742 205.486 242.422C203.163 243.103 201.121 244.431 199.636 246.226L199.117 246.853C198.859 247.164 198.672 247.52 198.566 247.901C198.461 248.281 198.439 248.677 198.503 249.065C198.567 249.453 198.715 249.825 198.938 250.158C199.161 250.492 199.454 250.78 199.8 251.004C207.028 255.701 226.546 268.447 229.042 270.77C232.115 273.629 249.222 289.657 249.222 289.657L242.384 243.795Z" fill="#FFCCB3"/>
<path d="M241.345 239.063C241.345 239.063 250.59 250.709 249.222 253.258C247.853 255.808 233.517 248.013 233.517 248.013C233.517 248.013 245.085 250.783 241.345 239.063Z" fill="#FCBA9F"/>
<path d="M239.67 233.178L224.112 189.21C223.579 187.702 223.376 186.109 223.516 184.526C223.656 182.944 224.137 181.404 224.928 179.998C225.72 178.591 226.807 177.346 228.125 176.338C229.443 175.33 230.966 174.578 232.602 174.128C233.941 173.76 235.378 173.859 236.644 174.409C237.91 174.958 238.916 175.919 239.472 177.111L261.297 223.801L239.67 233.178Z" fill="#FFCCB3"/>
<path d="M232.923 214.111C233.364 214.785 233.95 215.367 234.644 215.82C235.338 216.274 236.125 216.589 236.956 216.746" stroke="#FF967C" stroke-width="3" stroke-linecap="round"/>
<path d="M238.521 191.603C240.414 190.822 242.502 189.731 243.4 188.458L237.607 175.657C237.483 175.381 237.297 175.133 237.062 174.929C236.827 174.725 236.549 174.57 236.245 174.474C235.94 174.378 235.618 174.343 235.298 174.372C234.978 174.401 234.669 174.492 234.39 174.641C232.329 175.748 229.608 177.746 229.502 180.614L233.42 189.688C233.612 190.132 233.898 190.534 234.261 190.872C234.624 191.209 235.057 191.476 235.533 191.654C236.009 191.833 236.519 191.921 237.033 191.912C237.546 191.903 238.052 191.798 238.521 191.603Z" stroke="#FF967C" stroke-width="3" stroke-linecap="round"/>
<path d="M259.542 220.045L264.905 231.04" stroke="#FF967C" stroke-width="3" stroke-linecap="round"/>
<path d="M272.574 223.632C275.3 227.269 276.76 231.596 276.759 236.03" stroke="#FF967C" stroke-width="3" stroke-linecap="round"/>
<path d="M287.262 227.244C287.262 227.244 289.962 233.007 290.184 237.564" stroke="#FF967C" stroke-width="3" stroke-linecap="round"/>
<path d="M299.288 231.382C300.351 233.814 300.764 236.45 300.489 239.063" stroke="#FF967C" stroke-width="3" stroke-linecap="round"/>
<path d="M211.223 256.38C211.223 256.38 214.417 252.604 213.322 250.71C212.226 248.817 207.351 246.138 204.534 246.43C203.19 246.618 201.893 247.029 200.705 247.644C200.489 247.749 200.306 247.905 200.175 248.097C200.044 248.288 199.968 248.507 199.956 248.734C199.945 248.96 199.996 249.186 200.107 249.388C200.218 249.591 200.383 249.762 200.587 249.887L211.223 256.38Z" stroke="#FF967C" stroke-width="3" stroke-linecap="round"/>
<path d="M156.286 302.419H58.9605C58.5589 302.426 58.1603 302.354 57.7915 302.205C57.4226 302.057 57.0923 301.836 56.8232 301.559C56.5536 301.282 56.3514 300.954 56.2301 300.597C56.1084 300.241 56.0706 299.865 56.1192 299.493L59.9409 262.493C60.0362 261.699 60.4383 260.965 61.0723 260.427C61.7062 259.889 62.5285 259.583 63.3866 259.567H160.713C161.115 259.56 161.513 259.633 161.882 259.781C162.25 259.929 162.581 260.15 162.85 260.427C163.119 260.705 163.322 261.033 163.443 261.389C163.565 261.746 163.602 262.122 163.554 262.493L159.733 299.493C159.637 300.287 159.235 301.021 158.601 301.56C157.967 302.098 157.145 302.403 156.286 302.419Z" fill="#FEBB94"/>
<path d="M68.0977 269.217H128.162" stroke="#EF6A77" stroke-width="11.6898" stroke-miterlimit="10" stroke-linecap="round"/>
<path d="M68.0977 269.217H109.837" stroke="white" stroke-width="11.6898" stroke-miterlimit="10" stroke-linecap="round"/>
<path d="M67.1992 280.994H127.263" stroke="#EF6A77" stroke-width="11.6898" stroke-miterlimit="10" stroke-linecap="round"/>
<path d="M67.1992 280.994H92.1535" stroke="white" stroke-width="11.6898" stroke-miterlimit="10" stroke-linecap="round"/>
<path d="M65.2354 292.77H125.3" stroke="#EF6A77" stroke-width="11.6898" stroke-miterlimit="10" stroke-linecap="round"/>
<path d="M65.2354 292.77H80.4959" stroke="white" stroke-width="11.6898" stroke-miterlimit="10" stroke-linecap="round"/>
<path d="M149.424 272.557C151.406 272.557 153.013 271.061 153.013 269.217C153.013 267.372 151.406 265.877 149.424 265.877C147.442 265.877 145.835 267.372 145.835 269.217C145.835 271.061 147.442 272.557 149.424 272.557Z" fill="white"/>
<path d="M148.259 283.818C150.242 283.818 151.848 282.323 151.848 280.478C151.848 278.633 150.242 277.138 148.259 277.138C146.277 277.138 144.67 278.633 144.67 280.478C144.67 282.323 146.277 283.818 148.259 283.818Z" fill="white"/>
<path d="M146.961 296.11C148.942 296.11 150.55 294.615 150.55 292.77C150.55 290.925 148.942 289.43 146.961 289.43C144.978 289.43 143.372 290.925 143.372 292.77C143.372 294.615 144.978 296.11 146.961 296.11Z" fill="white"/>
<defs>
<linearGradient id="paint0_linear_49_9880" x1="174.87" y1="-42.0922" x2="285.896" y2="555.741" gradientUnits="userSpaceOnUse">
<stop stop-color="white"/>
<stop offset="1" stop-color="#94B9FF"/>
</linearGradient>
<linearGradient id="paint1_linear_49_9880" x1="189.931" y1="59.0513" x2="200.647" y2="238.292" gradientUnits="userSpaceOnUse">
<stop stop-color="white"/>
<stop offset="1" stop-color="#94B9FF"/>
</linearGradient>
<linearGradient id="paint2_linear_49_9880" x1="226.665" y1="150.82" x2="244.217" y2="306.988" gradientUnits="userSpaceOnUse">
<stop stop-color="white"/>
<stop offset="1" stop-color="#94B9FF"/>
</linearGradient>
<linearGradient id="paint3_linear_49_9880" x1="183.276" y1="230.073" x2="186.362" y2="321.895" gradientUnits="userSpaceOnUse">
<stop stop-color="white"/>
<stop offset="1" stop-color="#94B9FF"/>
</linearGradient>
<linearGradient id="paint4_linear_49_9880" x1="338.108" y1="45.8479" x2="340.742" y2="82.9146" gradientUnits="userSpaceOnUse">
<stop stop-color="white"/>
<stop offset="1" stop-color="#94B9FF"/>
</linearGradient>
</defs>
</svg>
