<svg width="485" height="328" viewBox="0 0 485 328" fill="none" xmlns="http://www.w3.org/2000/svg">
<g clip-path="url(#clip0_252_9930)">
<path d="M357.9 22.8008C357.9 18.7008 361.2 15.3008 365.4 15.3008C367.9 15.3008 370.1 16.5008 371.4 18.4008C372.8 16.5008 374.9 15.3008 377.4 15.3008C381.5 15.3008 384.9 18.6008 384.9 22.8008C384.9 25.2008 383.7 27.4008 381.9 28.8008L371.3 37.0008L360.8 28.8008C359 27.5008 357.9 25.3008 357.9 22.8008Z" fill="#E3CCFF" stroke="#333333" stroke-miterlimit="10" stroke-linejoin="round"/>
<path d="M55.0008 279.1H47.8008V298H55.0008V279.1Z" fill="white"/>
<path d="M54.5008 279.6V297.5H48.3008V279.6H54.5008ZM55.5008 278.6H47.3008V298.5H55.5008V278.6Z" fill="#333333"/>
<path d="M55.5008 278.6H47.3008V278.9H55.5008V278.6Z" fill="white"/>
<path d="M55.5008 278.6H47.3008V279H55.5008V278.6Z" fill="#333333"/>
<path d="M30.4 298.898C27.3 298.898 24.8 296.398 24.8 293.298V283.698H23C21.1 283.698 19.5 282.098 19.5 280.198C19.5 278.298 21.1 276.698 23 276.698H37.5V269.898C37.5 267.998 39.1 266.398 41 266.398C42.9 266.398 44.5 267.998 44.5 269.898V296.598C44.5 297.898 43.4 298.998 42.1 298.998H30.4V298.898Z" fill="white"/>
<path d="M41 266.699C42.7 266.699 44 268.099 44 269.699V275.999V278.199V296.299C44 297.399 43.1 298.199 42.1 298.199H30.4C27.6 298.199 25.3 295.899 25.3 293.099V283.999V282.999H24.3H23C21.3 282.999 20 281.599 20 279.999C20 278.299 21.4 276.999 23 276.999H24.3H31.5H37H38V275.999V269.699C38 268.099 39.3 266.699 41 266.699ZM41 265.699C38.8 265.699 37 267.499 37 269.699V275.999H31.5H24.3H23C20.8 275.999 19 277.799 19 279.999C19 282.199 20.8 283.999 23 283.999H24.3V293.099C24.3 296.499 27.1 299.199 30.4 299.199H42C43.6 299.199 44.9 297.899 44.9 296.299V278.199V275.999V269.699C45 267.499 43.2 265.699 41 265.699Z" fill="#333333"/>
<path d="M22.9004 276.3H24.2004H31.4004H36.9004V276.1H31.4004H24.2004H22.9004C20.7004 276.1 18.9004 277.9 18.9004 280.1V280.2C19.0004 278 20.8004 276.3 22.9004 276.3Z" fill="white"/>
<path d="M37 276.1H31.5H24.3H23C20.8 276.1 19 277.9 19 280.1V280.2C19.1 278 20.8 276.3 23 276.3H24.3H31.5H37V276.1Z" fill="#333333"/>
<path d="M41 265.699C38.8 265.699 37 267.499 37 269.699V269.899C37 267.699 38.8 265.899 41 265.899C43.2 265.899 45 267.699 45 269.899V269.699C45 267.499 43.2 265.699 41 265.699Z" fill="white"/>
<path d="M41 265.699C38.8 265.699 37 267.499 37 269.699V269.899C37 267.699 38.8 265.899 41 265.899C43.2 265.899 45 267.699 45 269.899V269.699C45 267.499 43.2 265.699 41 265.699Z" fill="#333333"/>
<path d="M51.4012 296.5C50.7012 296.5 50.2012 296 50.2012 295.3C50.2012 294.6 50.7012 294.1 51.4012 294.1C52.1012 294.1 52.6012 294.6 52.6012 295.3C52.6012 295.9 52.1012 296.5 51.4012 296.5Z" fill="white"/>
<path d="M51.4012 294.5C51.8012 294.5 52.1012 294.8 52.1012 295.2C52.1012 295.6 51.8012 295.9 51.4012 295.9C51.0012 295.9 50.7012 295.6 50.7012 295.2C50.7012 294.9 51.0012 294.5 51.4012 294.5ZM51.4012 293.5C50.5012 293.5 49.7012 294.3 49.7012 295.2C49.7012 296.1 50.5012 296.9 51.4012 296.9C52.3012 296.9 53.1012 296.1 53.1012 295.2C53.1012 294.3 52.4012 293.5 51.4012 293.5Z" fill="#333333"/>
<path d="M427.9 55.3008L442.7 61.5008L483.5 41.3008L484.4 39.8008L427.9 55.3008Z" fill="#E3CCFF" stroke="#333333" stroke-miterlimit="10" stroke-linecap="round" stroke-linejoin="round"/>
<path d="M427.901 55.3008L420.301 38.3008L484.401 39.8008L427.901 55.3008Z" fill="white" stroke="#333333" stroke-miterlimit="10" stroke-linecap="round" stroke-linejoin="round"/>
<path d="M483.501 41.3008L431.401 63.1008L422.301 84.0008L483.501 41.3008Z" fill="white" stroke="#333333" stroke-miterlimit="10" stroke-linecap="round" stroke-linejoin="round"/>
<path d="M120.301 57.3008V59.3008H122.301" stroke="#333333" stroke-linecap="round" stroke-linejoin="round"/>
<path d="M128.5 59.3008H177" stroke="#333333" stroke-linecap="round" stroke-linejoin="round" stroke-dasharray="4.13 4.13"/>
<path d="M180.102 59.3008H182.102V57.3008" stroke="#333333" stroke-linecap="round" stroke-linejoin="round"/>
<path d="M182.102 51.8016V8.10156" stroke="#333333" stroke-linecap="round" stroke-linejoin="round" stroke-dasharray="3.71 3.71"/>
<path d="M182.102 5.30078V3.30078H180.102" stroke="#333333" stroke-linecap="round" stroke-linejoin="round"/>
<path d="M173.9 3.30078H125.4" stroke="#333333" stroke-linecap="round" stroke-linejoin="round" stroke-dasharray="4.13 4.13"/>
<path d="M122.301 3.30078H120.301V5.30078" stroke="#333333" stroke-linecap="round" stroke-linejoin="round"/>
<path d="M120.301 10.9004V54.5004" stroke="#333333" stroke-linecap="round" stroke-linejoin="round" stroke-dasharray="3.71 3.71"/>
<path d="M117.7 62.5992H123C123.7 62.5992 124.2 62.0992 124.2 61.3992V56.8992C124.2 56.1992 123.7 55.6992 123 55.6992H117.7C117 55.6992 116.5 56.1992 116.5 56.8992V61.3992C116.5 61.9992 117 62.5992 117.7 62.5992Z" fill="#333333"/>
<path d="M117.7 7H123C123.7 7 124.2 6.5 124.2 5.8V1.2C124.2 0.5 123.7 0 123 0H117.7C117 0 116.5 0.5 116.5 1.2V5.7C116.5 6.4 117 7 117.7 7Z" fill="#333333"/>
<path d="M179.2 62.5992H184.5C185.2 62.5992 185.7 62.0992 185.7 61.3992V56.8992C185.7 56.1992 185.2 55.6992 184.5 55.6992H179.2C178.5 55.6992 178 56.1992 178 56.8992V61.3992C178 61.9992 178.6 62.5992 179.2 62.5992Z" fill="#333333"/>
<path d="M179.2 7H184.5C185.2 7 185.7 6.5 185.7 5.8V1.2C185.7 0.5 185.2 0 184.5 0H179.2C178.5 0 178 0.5 178 1.2V5.7C178 6.4 178.6 7 179.2 7Z" fill="#333333"/>
<path d="M267.199 23.3008H165.199V91.6008H267.199V23.3008Z" fill="white" stroke="#333333" stroke-miterlimit="10" stroke-linecap="round" stroke-linejoin="round"/>
<path d="M267.1 29.4004C267.1 29.5004 244.3 29.6004 216.1 29.6004C188 29.6004 165.1 29.5004 165.1 29.4004" stroke="#333333" stroke-miterlimit="10" stroke-linecap="round" stroke-linejoin="round"/>
<path d="M172.099 26.5016C172.099 27.3016 171.499 27.9016 170.699 27.9016C169.899 27.9016 169.299 27.3016 169.299 26.5016C169.299 25.7016 169.899 25.1016 170.699 25.1016C171.499 25.1016 172.099 25.7016 172.099 26.5016Z" fill="#E3CCFF"/>
<path d="M176.999 26.5016C176.999 27.3016 176.399 27.9016 175.599 27.9016C174.799 27.9016 174.199 27.3016 174.199 26.5016C174.199 25.7016 174.799 25.1016 175.599 25.1016C176.399 25.1016 176.999 25.7016 176.999 26.5016Z" fill="#FFDFA6"/>
<path d="M181.9 26.5016C181.9 27.3016 181.3 27.9016 180.5 27.9016C179.7 27.9016 179.1 27.3016 179.1 26.5016C179.1 25.7016 179.7 25.1016 180.5 25.1016C181.3 25.1016 181.9 25.7016 181.9 26.5016Z" fill="#B2EEDF"/>
<path d="M201.1 36.5H173.9V63.7H201.1V36.5Z" fill="#B2EEDF" stroke="#333333" stroke-miterlimit="10" stroke-linecap="round" stroke-linejoin="round"/>
<path d="M205.799 44.2C205.799 44.1 216.399 44 229.499 44C242.599 44 253.199 44.1 253.199 44.2" stroke="#333333" stroke-miterlimit="10" stroke-linecap="round" stroke-linejoin="round"/>
<path d="M205.799 49.2C205.799 49.1 216.399 49 229.499 49C242.599 49 253.199 49.1 253.199 49.2" stroke="#333333" stroke-miterlimit="10" stroke-linecap="round" stroke-linejoin="round"/>
<path d="M205.799 54.3016C205.799 54.2016 216.399 54.1016 229.499 54.1016C242.599 54.1016 253.199 54.2016 253.199 54.3016" stroke="#333333" stroke-miterlimit="10" stroke-linecap="round" stroke-linejoin="round"/>
<path d="M205.799 59.3C205.799 59.3 206.199 59.3 206.899 59.2C207.699 59.2 208.699 59.2 209.899 59.1C212.399 59.1 215.899 59 219.799 59C223.699 59 227.199 59 229.699 59.1C230.899 59.1 231.899 59.1 232.699 59.2C233.399 59.2 233.799 59.2 233.799 59.3" stroke="#333333" stroke-miterlimit="10" stroke-linecap="round" stroke-linejoin="round"/>
<path d="M385.5 240V242H387.5" stroke="#333333" stroke-linecap="round" stroke-linejoin="round"/>
<path d="M393.4 242H458.6" stroke="#333333" stroke-linecap="round" stroke-linejoin="round" stroke-dasharray="3.89 3.89"/>
<path d="M461.5 242H463.5V240" stroke="#333333" stroke-linecap="round" stroke-linejoin="round"/>
<path d="M463.5 233.8V174" stroke="#333333" stroke-linecap="round" stroke-linejoin="round" stroke-dasharray="4.19 4.19"/>
<path d="M463.5 170.9V168.9H461.5" stroke="#333333" stroke-linecap="round" stroke-linejoin="round"/>
<path d="M455.7 168.9H390.5" stroke="#333333" stroke-linecap="round" stroke-linejoin="round" stroke-dasharray="3.89 3.89"/>
<path d="M387.5 168.9H385.5V170.9" stroke="#333333" stroke-linecap="round" stroke-linejoin="round"/>
<path d="M385.5 177.201V236.901" stroke="#333333" stroke-linecap="round" stroke-linejoin="round" stroke-dasharray="4.19 4.19"/>
<path d="M382 246.299H389.3C390 246.299 390.5 245.799 390.5 245.099V238.399C390.5 237.699 390 237.199 389.3 237.199H382C381.3 237.199 380.8 237.699 380.8 238.399V245.099C380.7 245.699 381.3 246.299 382 246.299Z" fill="#333333"/>
<path d="M382 173.7H389.3C390 173.7 390.5 173.2 390.5 172.5V165.8C390.5 165.1 390 164.6 389.3 164.6H382C381.3 164.6 380.8 165.1 380.8 165.8V172.5C380.7 173.1 381.3 173.7 382 173.7Z" fill="#333333"/>
<path d="M459.6 246.299H466.9C467.6 246.299 468.1 245.799 468.1 245.099V238.399C468.1 237.699 467.6 237.199 466.9 237.199H459.6C458.9 237.199 458.4 237.699 458.4 238.399V245.099C458.3 245.699 458.9 246.299 459.6 246.299Z" fill="#333333"/>
<path d="M459.6 173.7H466.9C467.6 173.7 468.1 173.2 468.1 172.5V165.8C468.1 165.1 467.6 164.6 466.9 164.6H459.6C458.9 164.6 458.4 165.1 458.4 165.8V172.5C458.3 173.1 458.9 173.7 459.6 173.7Z" fill="#333333"/>
<path d="M6.79883 32.0996H84.2988V144.2H7.29883L6.79883 32.0996Z" fill="#B2EEDF" stroke="#333333" stroke-miterlimit="10" stroke-linecap="round" stroke-linejoin="round"/>
<path d="M1.01074 143.693H77.8107V32.3934H1.01074V143.693Z" fill="white" stroke="#333333" stroke-miterlimit="10" stroke-linecap="round" stroke-linejoin="round"/>
<path d="M68.2 44.4004H10.5V131.6H68.2V44.4004Z" fill="white" stroke="#333333" stroke-miterlimit="10" stroke-linecap="round" stroke-linejoin="round"/>
<path d="M10.4992 131.699C10.5992 131.799 8.39922 134.499 5.69922 137.799C2.99922 141.099 1.29922 143.499 1.19922 143.399" stroke="#333333" stroke-miterlimit="10" stroke-linecap="round" stroke-linejoin="round"/>
<path d="M1.19928 32.6992C1.09928 32.7992 2.89928 35.1992 5.49928 38.4992C8.09928 41.7992 10.3993 44.4992 10.4993 44.3992" fill="white"/>
<path d="M1.19928 32.6992C1.09928 32.7992 2.89928 35.1992 5.49928 38.4992C8.09928 41.7992 10.3993 44.4992 10.4993 44.3992" stroke="#333333" stroke-miterlimit="10" stroke-linecap="round" stroke-linejoin="round"/>
<path d="M68.2993 44.3988C68.1993 44.2988 69.7993 41.8988 72.5993 38.4988C75.3993 35.0988 77.6993 32.3988 77.7993 32.4988" fill="white"/>
<path d="M68.2993 44.3988C68.1993 44.2988 69.7993 41.8988 72.5993 38.4988C75.3993 35.0988 77.6993 32.3988 77.7993 32.4988" stroke="#333333" stroke-miterlimit="10" stroke-linecap="round" stroke-linejoin="round"/>
<path d="M77.6004 143.5C77.5004 143.6 75.5004 141.2 72.9004 137.9C70.3004 134.6 68.4004 132 68.6004 131.9" stroke="#333333" stroke-miterlimit="10" stroke-linecap="round" stroke-linejoin="round"/>
<path d="M43.1004 89.2992H33.0004L31.8004 92.0992C31.4004 92.9992 31.2004 93.7992 31.2004 94.3992C31.2004 95.1992 31.5004 95.7992 32.2004 96.1992C32.6004 96.3992 33.5004 96.5992 35.0004 96.6992V97.4992H25.4004V96.6992C26.4004 96.4992 27.3004 96.0992 27.9004 95.3992C28.6004 94.6992 29.4004 93.2992 30.4004 91.0992L40.7004 68.1992H41.1004L51.5004 91.6992C52.5004 93.8992 53.3004 95.2992 53.9004 95.8992C54.4004 96.2992 55.1004 96.5992 55.9004 96.6992V97.4992H42.0004V96.6992H42.6004C43.7004 96.6992 44.5004 96.4992 45.0004 96.1992C45.3004 95.9992 45.5004 95.5992 45.5004 95.1992C45.5004 94.8992 45.5004 94.6992 45.4004 94.3992C45.4004 94.2992 45.2004 93.6992 44.8004 92.7992L43.1004 89.2992ZM42.4004 87.6992L38.1004 77.7992L33.7004 87.6992H42.4004Z" fill="#333333"/>
<path d="M2 327.501C2 327.401 105.5 327.301 233.2 327.301C360.9 327.301 464.4 327.401 464.4 327.501" stroke="#333333" stroke-miterlimit="10" stroke-linecap="round" stroke-linejoin="round"/>
<path d="M368.899 84.3991C368.099 82.7991 375.099 79.5991 374.899 75.0991C374.799 73.1991 373.499 71.1991 371.799 70.4991C367.199 68.3991 360.599 75.4991 359.199 74.1991C358.099 73.0991 363.099 68.5991 361.899 63.8991C360.799 59.7991 355.099 56.4991 351.199 57.6991C346.999 58.9991 346.299 65.4991 344.199 65.2991C342.199 65.0991 342.999 59.1991 339.399 56.1991C334.699 52.3991 324.099 55.3991 323.099 59.4991C322.399 62.5991 327.199 65.7991 326.399 66.8991C325.599 67.8991 321.399 64.0991 315.399 64.1991C310.999 64.2991 305.899 66.5991 305.499 69.3991C305.099 72.7991 311.799 75.6991 311.099 77.2991C310.299 79.1991 301.799 75.3991 297.899 79.1991C296.299 80.7991 295.799 83.3991 296.199 85.3991C297.099 90.3991 303.099 91.3991 302.799 94.2991C302.499 97.3991 295.799 97.3991 294.699 101.699C293.999 104.299 295.599 107.399 297.399 109.099C300.499 111.899 304.099 110.599 304.999 112.599C306.099 115.199 300.199 118.199 301.099 121.699C301.699 124.199 305.799 125.799 308.799 125.799C311.499 125.799 312.099 124.499 313.799 124.999C316.899 125.999 316.499 130.699 319.099 131.599C321.299 132.399 324.399 129.899 326.099 127.699C332.699 119.299 325.199 106.199 329.399 103.699C331.899 102.199 334.499 106.699 340.799 106.999C349.899 107.399 357.599 98.8991 357.899 99.2991C358.099 99.5991 351.999 102.799 350.599 108.799C350.099 111.099 350.399 113.199 350.799 115.899C351.399 119.799 351.799 122.299 353.699 124.299C356.899 127.799 363.199 128.899 366.799 126.499C369.499 124.599 368.299 122.299 371.699 118.699C374.899 115.399 377.199 116.299 378.899 113.399C380.499 110.499 380.299 106.099 378.099 104.499C376.199 102.999 373.599 104.199 373.299 103.299C372.599 101.699 382.199 98.3991 382.399 93.1991C382.499 90.0991 378.199 87.4991 376.699 86.6991C376.599 86.6991 376.499 86.5991 376.199 86.4991C371.999 84.1991 369.399 85.2991 368.899 84.3991Z" fill="#333333"/>
<path d="M367.8 239.1C368.6 238.9 374.7 267.2 373.9 278.1C373.1 289.1 367.8 327.2 367.8 327.2H342.4L337.8 273.2L338.7 327.2H304.5C304.5 327.2 296.6 290.1 298 278.9C299.4 267.7 306.9 238.1 306.9 238.1L367.8 239.1Z" fill="#333333"/>
<path d="M340.401 246.6C340.401 247.3 340.401 248.3 340.401 249.5C340.301 251.9 340.201 255.3 339.901 259C339.601 262.7 339.201 266 338.801 268.4C338.601 269.6 338.501 270.6 338.301 271.2" fill="#333333"/>
<path d="M340.401 246.6C340.401 247.3 340.401 248.3 340.401 249.5C340.301 251.9 340.201 255.3 339.901 259C339.601 262.7 339.201 266 338.801 268.4C338.601 269.6 338.501 270.6 338.301 271.2" stroke="white" stroke-miterlimit="10" stroke-linecap="round" stroke-linejoin="round"/>
<path d="M344.899 247.9C344.899 247.9 345.099 247.8 345.499 247.9C345.899 248 346.399 248.2 346.799 248.7C346.999 249 347.199 249.3 347.299 249.7C347.399 250.1 347.399 250.5 347.199 251C346.899 251.8 345.999 252.6 344.899 252.6C343.799 252.6 342.999 251.8 342.699 250.9C342.599 250.5 342.499 250 342.699 249.6C342.799 249.2 342.999 248.9 343.299 248.7C343.799 248.2 344.299 248.1 344.699 248.1C345.099 248.1 345.299 248.2 345.299 248.2" fill="#FAFAFA"/>
<path d="M369.001 253.2C367.401 253.4 365.001 253.2 362.701 252.1C360.401 251 358.801 249.3 357.901 247.9C357.401 247.2 357.101 246.6 357.001 246.2C356.801 245.8 356.801 245.5 356.801 245.5" fill="#333333"/>
<path d="M369.001 253.2C367.401 253.4 365.001 253.2 362.701 252.1C360.401 251 358.801 249.3 357.901 247.9C357.401 247.2 357.101 246.6 357.001 246.2C356.801 245.8 356.801 245.5 356.801 245.5" stroke="white" stroke-miterlimit="10" stroke-linecap="round" stroke-linejoin="round"/>
<path d="M321.499 121.9C318.399 121.5 314.399 125.7 315.199 129.4C315.799 132.2 318.799 133.3 318.999 133.4C321.199 134.2 324.099 133.8 325.499 132.1C327.999 129 325.199 122.3 321.499 121.9Z" fill="#333333"/>
<path d="M339.701 145.699C344.101 145.699 348.501 146.499 352.701 147.999H352.801C359.001 150.199 363.601 155.599 364.901 162.099L369.501 184.499L359.901 218.799C359.901 218.799 367.901 231.599 368.201 238.099C350.501 249.399 330.501 246.199 309.501 236.999L308.001 203.499L302.801 152.999L313.901 148.499C317.101 147.399 320.701 145.499 324.001 145.599L339.701 145.699Z" fill="#FFDFA6" stroke="#333333" stroke-miterlimit="10" stroke-linecap="round" stroke-linejoin="round"/>
<path d="M358.201 151C368.701 161.4 374.901 176.8 378.801 195.5L389.301 174.5L403.101 177.3L395.201 210.4C394.401 216.3 389.901 221 384.101 222.2C379.201 223.2 374.201 221.6 370.901 217.9L366.001 212.5L358.201 151Z" fill="#FFDFA6" stroke="#333333" stroke-miterlimit="10" stroke-linecap="round" stroke-linejoin="round"/>
<path d="M430.4 113.102L376.9 136.302L377.2 151.802L371.1 158.202L391.5 176.402L397.5 169.802L413.4 167.502L430.4 113.102Z" fill="white" stroke="#333333" stroke-miterlimit="10" stroke-linecap="round" stroke-linejoin="round"/>
<path d="M430.4 113.102C429.9 114.602 423.5 135.502 413.6 167.502V167.602H413.5C408.4 168.302 403.1 169.102 397.6 169.802L397.7 169.702C395.8 171.802 393.8 174.102 391.7 176.402L391.6 176.502L391.5 176.402C388.2 173.402 384.6 170.302 381.1 167.102C377.7 164.102 374.4 161.102 371.1 158.202L370.9 158.102L371 158.002C373.1 155.902 375.1 153.702 377.1 151.702L377 151.802C376.9 146.402 376.8 141.302 376.7 136.302V136.202H376.8C408.2 122.702 428.9 113.802 430.4 113.102C428.9 113.702 408.3 122.802 377 136.402L377.1 136.202C377.2 141.202 377.3 146.302 377.4 151.702V151.802L377.3 151.902C375.3 154.002 373.3 156.102 371.2 158.202V157.902C374.5 160.802 377.8 163.802 381.2 166.802C384.8 170.002 388.3 173.102 391.6 176.102H391.3C393.4 173.802 395.4 171.502 397.3 169.402V169.302H397.4C402.9 168.502 408.3 167.802 413.3 167.102L413.2 167.202C423.3 135.502 429.9 114.702 430.4 113.102Z" fill="#333333"/>
<path d="M408.7 151.102C405.6 154.602 400.3 154.902 396.8 151.802C393.3 148.702 393 143.402 396.1 139.902C399.2 136.402 404.5 136.102 408 139.202C411.5 142.302 411.8 147.702 408.7 151.102Z" fill="#333333"/>
<path d="M430.4 113.102C430.5 113.202 424.3 120.502 416.6 129.402C408.9 138.302 402.5 145.502 402.5 145.502" stroke="#333333" stroke-miterlimit="10" stroke-linecap="round" stroke-linejoin="round"/>
<path d="M265.6 298.002C260.1 293.102 259.6 284.702 264.5 279.202L365.1 165.402L385 183.202L284.5 296.902C279.6 302.402 271.1 302.902 265.6 298.002Z" fill="#B2EEDF" stroke="#333333" stroke-miterlimit="10" stroke-linecap="round" stroke-linejoin="round"/>
<path d="M384.9 183.102L364.5 164.802C362.7 163.202 362.5 160.402 364.2 158.602L365.6 157.002C367.2 155.202 370 155.002 371.8 156.702L392.2 175.002C394 176.602 394.2 179.402 392.5 181.202L391.1 182.802C389.4 184.502 386.7 184.702 384.9 183.102Z" fill="#B2EEDF" stroke="#333333" stroke-miterlimit="10" stroke-linecap="round" stroke-linejoin="round"/>
<path d="M434.894 111.712L430.449 107.986L426.724 112.431L431.169 116.157L434.894 111.712Z" fill="#333333"/>
<path d="M391.299 80.0002C391.499 79.8002 408.599 93.8002 429.399 111.2C450.299 128.7 466.999 143 466.799 143.3" stroke="#333333" stroke-miterlimit="10" stroke-linecap="round" stroke-linejoin="round"/>
<path d="M467.699 144.001C467.099 144.701 465.999 144.801 465.299 144.201C464.599 143.601 464.499 142.501 465.099 141.801C465.699 141.101 466.799 141.001 467.499 141.601C468.199 142.201 468.299 143.301 467.699 144.001Z" fill="#333333"/>
<path d="M392.599 81.1006C391.999 81.8006 390.899 81.9006 390.199 81.3006C389.499 80.7006 389.399 79.6006 389.999 78.9006C390.599 78.2006 391.699 78.1006 392.399 78.7006C393.099 79.3006 393.199 80.4006 392.599 81.1006Z" fill="#333333"/>
<path d="M408.4 157.8L401.1 154.9C399.5 157.8 405.9 159.6 405.9 159.6L404.9 163.9L403.7 161.2C403.7 161.2 396.5 157.8 395.6 158C394.7 158.2 394.2 159.6 394.1 160.2C394 160.8 398.5 164.3 398.5 164.3C398.5 164.3 394.7 162.9 394.2 163C393.6 163.1 393.1 164.9 393.2 165.5C393.3 166.1 396.9 167.2 396.9 167.2L397.4 170.6L394.4 173.7L393.7 174.5H393.8L393.1 175.3L400.4 177L406.7 172.7L410.2 163.9L408.4 157.8Z" fill="#919191" stroke="#333333" stroke-miterlimit="10" stroke-linecap="round" stroke-linejoin="round"/>
<path d="M400.2 168.701C400.2 168.701 400.4 168.401 400.4 168.001C400.5 167.501 400.4 166.801 400.2 166.201C399.9 165.501 399.5 165.001 399.2 164.701C398.8 164.401 398.6 164.301 398.5 164.301" stroke="#333333" stroke-miterlimit="10" stroke-linecap="round" stroke-linejoin="round"/>
<path d="M403.699 167.4C403.699 167.4 403.499 166.7 403.399 165.5C403.299 164.9 403.299 164.2 402.999 163.4C402.899 163 402.699 162.6 402.299 162.3C401.999 162 401.499 161.7 401.099 161.5C399.299 160.9 397.799 160.4 396.599 160C395.399 159.6 394.699 159.4 394.699 159.5" stroke="#333333" stroke-miterlimit="10" stroke-linecap="round" stroke-linejoin="round"/>
<path d="M350.4 218.4C350.4 218.4 362.1 214.4 362.4 214.2C362.7 214.1 370.7 210.3 370 208.2C370 208.2 372.3 206.4 371.6 205.4L368.4 206.8C368.4 206.8 373 203.9 372.2 201.2C372.2 201.2 372.7 200.3 372.2 199.7C371.7 199.1 369.4 200.8 367.6 201.9L364.2 203.3C362.7 203.9 361.1 204 359.6 203.5C358.9 203.3 358.4 202.5 358.6 201.8C359 200.2 359.4 197.6 358.4 193.9C358.4 193.9 357.6 194.2 357 196C356.3 198.3 353.9 200.1 353.1 201.6C352.6 202.5 351.8 203.9 351.3 204.9C350.8 205.8 350 206.4 349.1 206.6L349.9 212.7L350.4 218.4Z" fill="#919191" stroke="#333333" stroke-miterlimit="10" stroke-linecap="round" stroke-linejoin="round"/>
<path d="M371.899 201.8C372.099 201.6 372.199 201.5 372.199 201.5C372.099 201.5 371.999 201.6 371.899 201.8C371.599 201.9 371.299 202.2 370.999 202.5C370.299 203.1 369.199 204 367.999 204.8C366.799 205.6 365.599 206.2 364.699 206.7C364.299 206.9 363.899 207.1 363.699 207.2C363.499 207.3 363.299 207.4 363.299 207.4" fill="white"/>
<path d="M371.899 201.8C371.599 201.9 371.299 202.2 370.999 202.5C370.299 203.1 369.199 204 367.999 204.8C366.799 205.6 365.599 206.2 364.699 206.7C364.299 206.9 363.899 207.1 363.699 207.2C363.499 207.3 363.299 207.4 363.299 207.4M371.899 201.8C372.099 201.6 372.199 201.5 372.199 201.5C372.099 201.5 371.999 201.6 371.899 201.8Z" stroke="#333333" stroke-miterlimit="10" stroke-linecap="round" stroke-linejoin="round"/>
<path d="M368.7 206.5C368.7 206.4 367.6 207.3 366.1 208.2C365.4 208.6 364.7 209 364.2 209.2C363.7 209.4 363.4 209.6 363.4 209.6" fill="white"/>
<path d="M368.7 206.5C368.7 206.4 367.6 207.3 366.1 208.2C365.4 208.6 364.7 209 364.2 209.2C363.7 209.4 363.4 209.6 363.4 209.6" stroke="#333333" stroke-miterlimit="10" stroke-linecap="round" stroke-linejoin="round"/>
<path d="M370.1 208.201C370.1 208.201 369.7 208.501 369.1 208.901C368.5 209.301 367.7 209.901 366.8 210.501C365.9 211.101 365 211.601 364.3 211.901C363.7 212.201 363.2 212.401 363.3 212.401" fill="white"/>
<path d="M370.1 208.201C370.1 208.201 369.7 208.501 369.1 208.901C368.5 209.301 367.7 209.901 366.8 210.501C365.9 211.101 365 211.601 364.3 211.901C363.7 212.201 363.2 212.401 363.3 212.401" stroke="#333333" stroke-miterlimit="10" stroke-linecap="round" stroke-linejoin="round"/>
<path d="M350.4 218.401L312.7 225.201C306.6 226.301 300.2 224.501 295.9 220.001C292.5 216.501 291 212.001 291.6 205.601C293 190.201 294.8 169.901 295.3 164.901C295.7 160.801 298.2 157.201 300.7 154.601C304.8 150.301 312 151.601 314.3 157.101C317.7 165.201 316.3 177.501 316.3 177.501L310.9 207.901L348.8 206.401L350.4 218.401Z" fill="#FFDFA6" stroke="#333333" stroke-miterlimit="10" stroke-linecap="round" stroke-linejoin="round"/>
<path d="M324.301 93.3003L327.701 96.6003L324.801 150.4C324.701 156.6 328.701 161.5 335.301 161.5C342.001 161.5 345.401 156.1 345.601 149.9C345.801 143.3 345.501 133.9 345.501 133.9C345.501 133.9 353.001 135.2 356.901 124.7C358.801 119.5 359.901 110.1 359.601 102.8C359.401 96.2003 353.701 91.1003 347.001 91.6003L324.301 93.3003Z" fill="#919191" stroke="#333333" stroke-miterlimit="10" stroke-linecap="round" stroke-linejoin="round"/>
<path d="M355.9 109.2C355.9 109.9 355.3 110.6 354.5 110.6C353.7 110.6 353.1 110 353.1 109.3C353.1 108.6 353.7 107.9 354.5 107.9C355.2 107.9 355.9 108.4 355.9 109.2Z" fill="#333333"/>
<path d="M340.999 108.999C340.999 109.699 340.399 110.399 339.599 110.399C338.799 110.399 338.199 109.799 338.199 109.099C338.199 108.399 338.799 107.699 339.599 107.699C340.299 107.699 340.999 108.299 340.999 108.999Z" fill="#333333"/>
<path d="M349.399 107.699C349.199 107.999 347.699 111.299 350.399 113.599C353.199 114.999 352.399 118.199 350.999 118.699C349.599 119.199 347.699 118.699 347.699 118.699" fill="#919191"/>
<path d="M349.399 107.699C349.199 107.999 347.699 111.299 350.399 113.599C353.199 114.999 352.399 118.199 350.999 118.699C349.599 119.199 347.699 118.699 347.699 118.699" stroke="#333333" stroke-miterlimit="10" stroke-linecap="round" stroke-linejoin="round"/>
<path d="M343.101 101.3C342.901 101.7 341.401 101.5 339.601 101.6C337.801 101.7 336.301 102.2 336.101 101.8C336.001 101.6 336.301 101.2 336.901 100.9C337.501 100.5 338.401 100.2 339.501 100.1C340.601 100 341.601 100.2 342.201 100.5C342.901 100.8 343.201 101.1 343.101 101.3Z" fill="#333333"/>
<path d="M357.1 103C356.8 103.3 355.8 103 354.5 102.9C353.2 102.8 352.2 103.1 351.9 102.7C351.8 102.5 352 102.2 352.5 101.9C353 101.6 353.7 101.3 354.6 101.4C355.5 101.5 356.2 101.8 356.6 102.2C357.1 102.4 357.2 102.8 357.1 103Z" fill="#333333"/>
<path d="M210.199 237.801C209.499 237.601 203.399 266.301 204.199 277.401C204.999 288.501 210.199 327.201 210.199 327.201H272.799C272.799 327.201 280.599 289.601 279.199 278.201C277.799 266.801 270.399 236.801 270.399 236.801L210.199 237.801Z" fill="#333333"/>
<path d="M199.3 183.699L192.4 144.499L192.7 136.799C192.7 136.799 190.7 121.899 190.6 120.399C190.6 118.699 189.8 118.299 189.1 118.399C188.1 118.499 187.5 119.699 187.4 121.099C187.4 121.599 187.5 129.499 187.5 129.499C187.5 129.499 187.1 128.799 185.9 127.399C184.7 125.899 182 125.099 179.1 125.199C176.3 125.299 175.5 125.599 175.5 126.699C175.5 127.099 175.7 127.499 176.1 127.799C176.6 128.199 177.3 128.399 178 128.399C182.5 128.299 183.8 130.699 183.8 130.699L183.9 131.599C183.9 131.599 181.1 129.699 179 130.499C178.6 130.599 178.4 130.799 178.1 130.999C176.9 130.999 175.7 131.699 175.1 132.699C174.5 133.799 174.5 135.199 175.1 136.299C175.4 136.799 175.9 137.299 176.5 137.199C176.8 137.099 177.1 136.899 177.3 136.699C177.4 136.599 177.6 136.499 177.7 136.399L178.2 138.799C178.2 138.799 183.4 146.799 183.8 149.199L186.7 186.099C187 191.599 187.7 196.199 193.2 195.799C199.3 195.299 200.6 189.599 199.3 183.699Z" fill="white" stroke="#333333" stroke-miterlimit="10" stroke-linecap="round" stroke-linejoin="round"/>
<path d="M191.9 142.899C191.1 143.099 190.2 142.499 189.8 141.799C189.3 141.099 189.1 140.199 188.7 139.399C187.5 137.099 184.6 136.099 183.5 133.699C183.3 133.399 183.3 132.899 183.5 132.699C183.8 132.499 184.1 132.699 184.4 132.799C186.9 134.099 189.4 135.499 191.9 136.799" fill="white"/>
<path d="M191.9 142.899C191.1 143.099 190.2 142.499 189.8 141.799C189.3 141.099 189.1 140.199 188.7 139.399C187.5 137.099 184.6 136.099 183.5 133.699C183.3 133.399 183.3 132.899 183.5 132.699C183.8 132.499 184.1 132.699 184.4 132.799C186.9 134.099 189.4 135.499 191.9 136.799" stroke="#333333" stroke-miterlimit="10" stroke-linecap="round" stroke-linejoin="round"/>
<path d="M180.6 133.099C180.4 133.199 180.2 133.499 180.2 133.799C180.2 134.099 180.2 134.399 180.3 134.799C180.4 135.199 180.4 135.599 180.1 135.999C179.8 136.399 179.4 136.599 178.9 136.599C178.4 136.599 178 136.399 177.7 136.099C177.4 135.799 177.2 135.399 177.1 134.999C177 134.199 177 133.499 177.1 132.999C177.2 132.399 177.3 131.999 177.5 131.699C177.7 131.399 177.8 131.299 177.8 131.299" fill="white"/>
<path d="M180.6 133.099C180.4 133.199 180.2 133.499 180.2 133.799C180.2 134.099 180.2 134.399 180.3 134.799C180.4 135.199 180.4 135.599 180.1 135.999C179.8 136.399 179.4 136.599 178.9 136.599C178.4 136.599 178 136.399 177.7 136.099C177.4 135.799 177.2 135.399 177.1 134.999C177 134.199 177 133.499 177.1 132.999C177.2 132.399 177.3 131.999 177.5 131.699C177.7 131.399 177.8 131.299 177.8 131.299" stroke="#333333" stroke-miterlimit="10" stroke-linecap="round" stroke-linejoin="round"/>
<path d="M187.201 137.799C187.301 137.799 186.301 139.199 185.901 141.199C185.801 141.599 185.801 141.899 185.701 142.199V142.599L185.501 142.299C185.001 141.699 184.501 141.399 184.001 141.299C183.601 141.199 183.301 141.199 183.301 141.099" fill="white"/>
<path d="M187.201 137.799C187.301 137.799 186.301 139.199 185.901 141.199C185.801 141.599 185.801 141.899 185.701 142.199V142.599L185.501 142.299C185.001 141.699 184.501 141.399 184.001 141.299C183.601 141.199 183.301 141.199 183.301 141.099" stroke="#333333" stroke-miterlimit="10" stroke-linecap="round" stroke-linejoin="round"/>
<path d="M183.001 127.699C183.101 127.699 182.801 128.299 182.101 128.599C181.701 128.699 181.201 128.699 181.201 128.599" fill="white"/>
<path d="M183.001 127.699C183.101 127.699 182.801 128.299 182.101 128.599C181.701 128.699 181.201 128.699 181.201 128.599" stroke="#333333" stroke-miterlimit="10" stroke-linecap="round" stroke-linejoin="round"/>
<path d="M221.999 91.7002C222.599 93.2002 222.399 94.6002 222.299 95.2002C221.799 98.5002 218.899 98.8002 218.499 101.4C217.899 105.7 222.099 109.8 221.199 114.1C220.699 116.4 218.799 118.3 218.499 120.6C218.199 122.8 219.399 125 220.899 126.8C222.399 128.5 224.099 128.3 225.399 130.1C226.799 132 228.999 134 231.099 135.2C234.099 136.8 236.499 134.7 243.899 133.4C244.999 133.2 248.399 132.6 251.899 132.5C262.499 132.1 265.799 136.4 269.899 134.1C273.599 131.9 275.399 125.8 273.699 122.1C272.299 119 268.799 118.5 268.799 116.1C268.899 113.9 271.999 113.6 272.599 111.2C273.399 107.9 267.999 106.2 265.099 100.3C261.799 93.6002 265.599 89.8002 262.199 86.1002C259.299 83.0002 256.199 85.4002 248.499 82.6002C241.499 80.0002 241.799 77.2002 235.399 75.1002C230.999 73.6002 221.599 72.0002 218.099 76.9002C216.099 79.7002 215.899 84.8002 218.099 87.5002C219.299 88.9002 221.099 89.3002 221.999 91.7002Z" fill="#333333"/>
<path d="M237.898 144.7C237.898 139.6 237.198 131.3 237.198 131.3C237.198 131.3 225.298 133 223.698 122.4C222.898 117.1 223.198 108.4 223.598 101.3C223.998 94.8998 228.298 87.0998 234.598 87.7998L252.298 92.2998C254.198 92.4998 255.698 94.1998 255.598 96.0998L254.098 144.4C253.898 150.5 250.598 155.8 244.498 155.6C238.498 155.5 237.898 150.8 237.898 144.7Z" fill="white" stroke="#333333" stroke-miterlimit="10" stroke-linecap="round" stroke-linejoin="round"/>
<path d="M226.998 107.4C226.998 108.1 227.598 108.7 228.298 108.8C229.098 108.8 229.698 108.3 229.698 107.6C229.698 106.9 229.098 106.3 228.398 106.2C227.598 106.1 226.998 106.7 226.998 107.4Z" fill="#333333"/>
<path d="M241.199 107.7C241.199 108.4 241.799 109 242.499 109.1C243.299 109.1 243.899 108.6 243.899 107.9C243.899 107.2 243.299 106.6 242.599 106.5C241.899 106.5 241.199 107 241.199 107.7Z" fill="#333333"/>
<path d="M235.198 104.799C234.998 104.699 233.598 107.999 232.098 111.999C231.698 112.999 231.398 113.999 230.998 114.899C230.898 115.299 230.598 115.799 230.798 116.399C230.898 116.699 231.198 116.899 231.398 116.899C231.598 116.999 231.898 116.999 231.998 116.999C233.498 117.099 234.398 117.099 234.398 116.999" fill="white"/>
<path d="M235.198 104.799C234.998 104.699 233.598 107.999 232.098 111.999C231.698 112.999 231.398 113.999 230.998 114.899C230.898 115.299 230.598 115.799 230.798 116.399C230.898 116.699 231.198 116.899 231.398 116.899C231.598 116.999 231.898 116.999 231.998 116.999C233.498 117.099 234.398 117.099 234.398 116.999" stroke="#333333" stroke-miterlimit="10" stroke-linecap="round" stroke-linejoin="round"/>
<path d="M239.199 103.501C239.299 103.901 240.799 103.701 242.499 103.901C244.199 104.101 245.599 104.601 245.799 104.201C245.899 104.001 245.699 103.701 245.099 103.301C244.499 102.901 243.699 102.501 242.599 102.401C241.599 102.301 240.599 102.401 239.999 102.701C239.499 103.001 239.199 103.401 239.199 103.501Z" fill="#333333"/>
<path d="M225.998 101.6C226.298 101.9 227.298 101.6 228.498 101.6C229.698 101.5 230.698 101.8 230.998 101.5C231.098 101.3 230.898 101 230.498 100.7C230.098 100.4 229.298 100.1 228.498 100.1C227.698 100.1 226.898 100.4 226.498 100.8C225.998 101.1 225.898 101.4 225.998 101.6Z" fill="#333333"/>
<path d="M259 128.4C256.1 129 255.8 127.5 253.6 125.5C251.4 123.5 250.3 120.4 250.7 117.4C251 114.8 252.4 112.1 251.5 109.7C250.3 106.4 245.7 105.4 244.5 102.2C243.8 100.3 244.4 98.1 243.6 96.2C242.8 94.5 241 93.4 239.2 92.8C237.4 92.2 235.5 91.7 234 90.5C232.5 89.3 231.6 87.1 232.5 85.5C240.4 86.5 248.3 88.4 255.8 91.1C257.5 91.7 259.4 92.5 260.4 94.1C261.5 95.7 261.4 97.8 261.3 99.8C260.9 109.4 260.4 118.9 260 128.5" fill="#333333"/>
<path d="M274.8 149.601L255.9 144.801H233.5C233.5 144.801 221.8 145.501 215.3 151.201C215.1 151.401 213.1 153.201 211.8 157.001L201.8 179.901L195.3 151.101L182 153.301L185.3 203.001C186.4 213.501 190.4 222.201 200.7 224.401L210.9 212.901C212.1 222.301 213.1 230.301 213.2 230.201C213.5 229.901 269.1 226.601 269.1 226.601L263.5 207.501L274.8 149.601Z" fill="#B2EEDF" stroke="#333333" stroke-miterlimit="10" stroke-linecap="round" stroke-linejoin="round"/>
<path d="M203.499 85.7005C203.599 78.6005 197.899 72.8005 190.799 72.7005C183.699 72.6005 177.899 78.3005 177.799 85.4005C177.699 90.5005 180.699 95.0005 185.099 97.1005C185.099 98.6005 185.099 100.301 185.099 100.301L196.399 100.401C196.399 100.401 196.499 98.6005 196.499 97.0005C200.599 95.0005 203.399 90.7005 203.499 85.7005Z" fill="#FFDFA6" stroke="#333333" stroke-miterlimit="10" stroke-linecap="round" stroke-linejoin="round"/>
<path d="M189.298 100.3C189.298 100.3 189.298 100.2 189.198 100.1C189.198 100 189.098 99.8 188.998 99.5C188.798 99 188.598 98.3 188.298 97.4C187.698 95.6 186.798 92.9 185.498 89.7C185.198 88.9 184.898 88 184.498 87.2C184.298 86.8 183.998 86.4 183.598 86.2C183.198 86 182.598 86 182.298 86.4C181.998 86.8 182.098 87.4 182.398 87.7C182.698 88.1 183.198 88.3 183.698 88.4C184.698 88.6 185.898 88.5 186.898 88C187.898 87.5 188.698 86.6 189.098 85.4C189.298 84.8 189.398 84.2 189.298 83.7C189.298 83.1 188.998 82.5 188.498 82.2C188.198 82.1 187.898 82 187.698 82.1C187.398 82.2 187.198 82.4 187.098 82.7C186.898 83.3 186.898 83.9 187.198 84.5C187.698 85.6 188.798 86.5 190.098 86.7C191.398 86.9 192.698 86.5 193.698 85.7C194.198 85.3 194.598 84.8 194.798 84.2C194.898 83.9 194.798 83.6 194.698 83.3C194.598 83 194.298 82.9 193.998 82.8C193.698 82.8 193.398 82.9 193.198 83C192.998 83.2 192.798 83.4 192.698 83.7C192.498 84.3 192.598 84.9 192.798 85.4C193.098 86.5 193.898 87.5 194.898 88C195.898 88.5 197.098 88.6 198.098 88.3C198.598 88.1 198.998 87.8 199.298 87.3C199.498 86.9 199.398 86.3 198.898 86.1C198.498 85.9 197.998 85.8 197.498 86C197.098 86.2 196.698 86.5 196.498 86.9C195.998 87.7 195.498 88.5 195.198 89.2C194.498 90.8 193.998 92.3 193.698 93.6C193.398 94.9 193.198 96.1 192.998 97.1C192.798 98 192.698 98.8 192.598 99.3C192.598 99.5 192.498 99.7 192.498 99.9C192.498 100 192.498 100.1 192.498 100.1C192.498 100.1 192.498 100 192.498 99.9" stroke="#333333" stroke-miterlimit="10" stroke-linecap="round" stroke-linejoin="round"/>
<path d="M273.9 149.5C277.2 149.5 285.1 158.8 286.4 172.9C287 179.4 289.4 201.8 290.9 214.5C291.5 219.1 289.5 223.6 285.7 226.4C277.2 232.6 261.2 246.4 238.6 246.1L234 239.9L269.3 215.9V214.9L271.2 212.8L265.7 178.8C265.8 178.8 260.6 149.5 273.9 149.5Z" fill="#B2EEDF" stroke="#333333" stroke-miterlimit="10" stroke-linecap="round" stroke-linejoin="round"/>
<path d="M213.001 193.299C213.001 193.299 212.801 193.099 212.401 192.599C212.101 192.099 211.701 191.399 211.401 190.399C210.801 188.399 210.901 185.399 211.901 182.399C212.901 179.399 214.201 176.899 215.001 174.999C215.401 174.099 215.701 173.299 215.801 172.699C217.601 167.799 220.801 160.199 220.801 160.199" stroke="#333333" stroke-miterlimit="10" stroke-linecap="round" stroke-linejoin="round"/>
<path d="M201.701 179.699C201.801 179.699 201.901 180.499 202.001 181.799C202.101 183.099 202.201 184.899 202.101 186.899C202.001 188.899 201.901 190.699 201.701 191.999C201.501 193.299 201.301 194.099 201.301 194.099" stroke="#333333" stroke-miterlimit="10" stroke-linecap="round" stroke-linejoin="round"/>
<path d="M231.6 147.7C232 146.3 231.6 144.8 231.4 143.3C231.2 141.8 231.1 140.2 232.1 139C233.1 137.9 234.7 137.8 236.2 137.7C242.3 137.4 248.4 137.2 254.5 136.9C255.7 136.8 257.2 136.9 258 137.8C258.5 138.4 258.8 139.3 258.6 140C257.7 143.5 258 146.4 259.3 148.9" fill="#B2EEDF"/>
<path d="M231.6 147.7C232 146.3 231.6 144.8 231.4 143.3C231.2 141.8 231.1 140.2 232.1 139C233.1 137.9 234.7 137.8 236.2 137.7C242.3 137.4 248.4 137.2 254.5 136.9C255.7 136.8 257.2 136.9 258 137.8C258.5 138.4 258.8 139.3 258.6 140C257.7 143.5 258 146.4 259.3 148.9" stroke="#333333" stroke-miterlimit="10" stroke-linecap="round" stroke-linejoin="round"/>
<path d="M243.9 150.9C243.8 150.9 243.7 150.1 243.4 148.9C243.1 147.7 242.8 145.9 242.5 144C242.3 143 242.2 142.1 242.1 141.3C242 140.5 241.9 139.7 242.2 139C242.4 138.4 242.8 138 243.2 137.8C243.5 137.6 243.7 137.6 243.7 137.6" stroke="#333333" stroke-miterlimit="10" stroke-linecap="round" stroke-linejoin="round"/>
<path d="M271.199 212.8C271.199 212.8 271.699 212.6 272.599 212.7C273.399 212.8 274.599 213.1 275.699 213.9C276.799 214.7 277.399 215.7 277.699 216.5C277.999 217.3 277.999 217.8 277.999 217.8" stroke="#333333" stroke-miterlimit="10" stroke-linecap="round" stroke-linejoin="round"/>
<path d="M269.301 215.801C269.301 215.701 270.801 216.001 272.201 217.301C273.601 218.501 274.001 220.001 273.901 220.001" stroke="#333333" stroke-miterlimit="10" stroke-linecap="round" stroke-linejoin="round"/>
<path d="M186.5 188.199C186.5 188.199 197.3 239.799 197.3 239.199C197.3 238.599 252 241.499 261.8 241.999L263.8 241.499L279.2 227.299L261.4 225.899L255 189.599L186.5 188.199Z" fill="#E3CCFF" stroke="#333333" stroke-miterlimit="10" stroke-linejoin="round"/>
<path d="M263.9 241.498C263.8 241.498 263.1 234.998 261.6 225.898L263.9 241.498Z" fill="#E3CCFF"/>
<path d="M263.9 241.498C263.8 241.498 263.1 234.998 261.6 225.898" stroke="#333333" stroke-miterlimit="10" stroke-linecap="round" stroke-linejoin="round"/>
<path d="M261.9 242C261.9 242 261.8 241.8 261.8 241.5C261.7 241.1 261.6 240.6 261.5 240C261.3 238.6 260.9 236.7 260.5 234.3C259.7 229.4 258.5 222.8 257.3 215.5C256.1 208.2 255 201.5 254.2 196.7C254 195.5 253.8 194.4 253.7 193.4C253.6 192.9 253.6 192.5 253.5 192.1C253.4 191.6 253.7 191.3 253.9 191C254.4 190.5 254.8 190.2 255.1 190" fill="#E3CCFF"/>
<path d="M261.9 242C261.9 242 261.8 241.8 261.8 241.5C261.7 241.1 261.6 240.6 261.5 240C261.3 238.6 260.9 236.7 260.5 234.3C259.7 229.4 258.5 222.8 257.3 215.5C256.1 208.2 255 201.5 254.2 196.7C254 195.5 253.8 194.4 253.7 193.4C253.6 192.9 253.6 192.5 253.5 192.1C253.4 191.6 253.7 191.3 253.9 191C254.4 190.5 254.8 190.2 255.1 190" stroke="#333333" stroke-miterlimit="10"/>
<path d="M253.299 191.398C252.799 191.398 251.699 191.398 250.799 191.398C249.099 191.398 246.699 191.298 243.699 191.298C237.699 191.198 229.399 190.998 220.299 190.898C211.199 190.698 202.899 190.598 196.899 190.498C193.899 190.498 191.499 190.398 189.799 190.398C188.999 190.398 188.299 190.398 187.899 190.398C187.499 190.398 187.199 190.398 187.199 190.398" fill="#E3CCFF"/>
<path d="M253.299 191.398C252.799 191.398 251.699 191.398 250.799 191.398C249.099 191.398 246.699 191.298 243.699 191.298C237.699 191.198 229.399 190.998 220.299 190.898C211.199 190.698 202.899 190.598 196.899 190.498C193.899 190.498 191.499 190.398 189.799 190.398C188.999 190.398 188.299 190.398 187.899 190.398C187.499 190.398 187.199 190.398 187.199 190.398" stroke="#333333" stroke-miterlimit="10"/>
<path d="M263.9 237.599C264.5 237.099 265.5 235.999 266.5 235.199C268.5 233.499 270.9 231.499 273.9 228.899L262.1 228.199" stroke="#333333" stroke-miterlimit="10" stroke-linecap="round" stroke-linejoin="round"/>
<path d="M214.001 240.8L213.401 233.9C213.301 233 214.401 232.3 215.101 232.8C215.701 233.2 216.201 233.9 216.201 235.1V231.7C216.201 230.4 217.601 229.7 218.601 230.5C219.201 231 219.801 231.9 220.101 233.4C220.801 237.6 221.801 239.9 221.801 239.9L223.501 240.8L222.101 232.5C222.001 231.8 222.701 231.2 223.401 231.5C224.401 231.9 225.601 232.8 225.901 234.6C226.501 237.8 227.401 240.1 227.401 240.1L232.801 241.6C232.801 241.6 229.701 238.8 230.001 237.9C230.301 237 230.101 237.1 230.701 236.9C231.301 236.8 232.601 237.2 233.601 237.7C234.601 238.2 240.201 241.6 240.201 241.6V245.8C240.201 245.8 227.001 246.8 224.001 246.2L218.201 244.9C216.301 244.3 214.601 242.8 214.001 240.8Z" fill="white" stroke="#333333" stroke-miterlimit="10" stroke-linecap="round" stroke-linejoin="round"/>
<path d="M226.501 213.098C226.901 215.298 225.601 217.398 223.601 217.698C221.601 217.998 219.701 216.498 219.301 214.298C218.901 212.098 220.201 209.998 222.201 209.698C224.301 209.398 226.201 210.898 226.501 213.098Z" fill="#FAFAFA"/>
<path d="M253.4 148C253.3 148 253.2 147.4 253.1 146.3C253 145.2 252.7 143.8 252.5 142.3C252.3 140.7 252.2 139.3 252 138.3C251.9 137.8 251.7 137.5 251.4 137.3C251.2 137.1 251 137.1 251 137.1" stroke="#333333" stroke-miterlimit="10" stroke-linecap="round" stroke-linejoin="round"/>
<path d="M234.401 148.199C234.301 148.199 234.201 147.599 234.101 146.599C234.001 145.599 233.801 144.199 233.601 142.599C233.501 141.799 233.501 140.999 233.701 140.299C233.901 139.599 234.201 138.999 234.501 138.599C235.201 137.799 236.001 137.699 235.901 137.699" stroke="#333333" stroke-miterlimit="10" stroke-linecap="round" stroke-linejoin="round"/>
<path d="M161.5 249C161.5 252.9 163.8 327.4 163.8 327.4L132.1 327.2L126.6 294.1L125.1 327.2H94.5996L97.8996 245.4L161.5 249Z" fill="#333333"/>
<path d="M67.9988 218.1L51.7988 194L63.7988 184.2L84.0988 203.1C84.0988 203.1 92.8988 154 101.499 151.1L100.799 227.2C89.1988 232.7 75.1988 228.9 67.9988 218.1Z" fill="#333333"/>
<path d="M35.2996 110.599L38.1996 150.799C38.1996 151.199 38.2996 151.499 38.4996 151.799L93.4996 257.199C94.1996 258.499 95.8996 258.999 97.1996 258.299L125.2 242.099C126.4 241.399 126.9 239.799 126.2 238.599L71.9996 135.599C71.7996 135.299 71.5996 134.999 71.2996 134.799L39.5996 108.499C37.7996 106.899 35.0996 108.299 35.2996 110.599Z" fill="#FFDFA6" stroke="#333333" stroke-miterlimit="10" stroke-linecap="round" stroke-linejoin="round"/>
<path d="M71.9992 135.399C71.0992 137.099 68.8992 137.299 67.4992 136.099C68.2992 139.499 66.7992 143.299 63.8992 145.199C60.9992 147.099 56.7992 146.799 54.0992 144.599C53.6992 147.999 51.2992 151.099 48.0992 152.399C44.8992 153.699 40.9992 153.099 38.2992 150.999L35.2992 110.699C35.0992 108.299 37.8992 106.899 39.6992 108.399L71.9992 135.399Z" fill="white" stroke="#333333" stroke-miterlimit="10" stroke-linecap="round" stroke-linejoin="round"/>
<path d="M36.1997 123.3C36.1997 123.3 43.7997 128.1 49.8997 116.9L38.7997 107.7C37.2997 106.4 34.9997 107.6 35.1997 109.6L36.1997 123.3Z" fill="#FFDFA6" stroke="#333333" stroke-miterlimit="10" stroke-linecap="round" stroke-linejoin="round"/>
<path d="M107.199 250.8C107.099 250.8 95.0995 227.2 80.3995 197.9C65.6995 168.6 54.1995 145.2 54.2995 145.1" stroke="#333333" stroke-miterlimit="10" stroke-linecap="round" stroke-linejoin="round"/>
<path d="M120.701 242.7C120.601 242.7 108.601 219.1 93.9007 189.8C79.2007 160.5 67.9007 137 68.0007 136.9" stroke="#333333" stroke-miterlimit="10" stroke-linecap="round" stroke-linejoin="round"/>
<path d="M54.4 167.4L47.1 170.3L45.5 176.2L48 186L53.9 192.3L57.9 189L58.2 183L58.7 179.6C58.7 179.6 62.3 178.5 62.4 177.9C62.5 177.3 62 175.5 61.4 175.4C60.8 175.3 57.1 176.7 57.1 176.7C57.1 176.7 61.6 173.2 61.5 172.6C61.4 172 60.9 170.6 60 170.4C59.1 170.2 51.9 173.6 51.9 173.6L50.7 176.3L49.7 172C49.5 172.1 56 170.3 54.4 167.4Z" fill="white" stroke="#333333" stroke-miterlimit="10" stroke-linecap="round" stroke-linejoin="round"/>
<path d="M55.2998 181.201C55.2998 181.201 55.0998 180.901 55.0998 180.501C54.9998 180.001 55.0998 179.301 55.2998 178.701C55.5998 178.001 55.9998 177.501 56.2998 177.201C56.6998 176.901 56.8998 176.801 56.9998 176.801" stroke="#333333" stroke-miterlimit="10" stroke-linecap="round" stroke-linejoin="round"/>
<path d="M51.8008 179.9C51.8008 179.9 52.0008 179.2 52.1008 178C52.2008 177.4 52.2008 176.7 52.5008 175.9C52.6008 175.5 52.8008 175.1 53.2008 174.8C53.5008 174.5 54.0008 174.2 54.4008 174C56.2008 173.4 57.7008 172.9 58.9008 172.5C60.1008 172.1 60.8008 171.9 60.8008 172" stroke="#333333" stroke-miterlimit="10" stroke-linecap="round" stroke-linejoin="round"/>
<path d="M50.1004 178.601C50.0004 178.601 50.0004 177.901 50.1004 177.201C50.2004 176.401 50.4004 175.801 50.5004 175.801" stroke="#333333" stroke-miterlimit="10" stroke-linecap="round" stroke-linejoin="round"/>
<path d="M149.1 136.999L142.7 134.799L118.7 140.299L116.6 142.099L103.9 259.699C109.4 265.299 126.5 266.399 136.3 264.799L149.1 136.999Z" fill="#E3CCFF" stroke="#333333" stroke-miterlimit="10" stroke-linejoin="round"/>
<path d="M149.6 137.199L146.5 135.699C146.5 135.699 139.7 165.599 139.7 185.399C139.7 205.199 135.4 276.799 135.4 276.799L167.8 275.999V196.799L149.6 137.199Z" fill="#333333"/>
<path d="M103.9 278L91.5996 274.4L95.8996 216.5L95.0996 174.5L101.5 151L116.7 141.6C116.7 141.6 104.7 271 103.9 278Z" fill="#333333"/>
<path d="M129.5 151.399C123.4 150.899 118.7 145.699 118.7 139.599L119.8 128.999C119.8 128.999 109.1 127.599 108.9 117.899C108.7 108.199 110.5 85.8988 110.5 85.8988C121.7 81.0988 134.7 82.6988 144.4 90.1988L145.8 91.2988L142.3 140.599C141.8 147.099 136.1 151.999 129.5 151.399Z" fill="white" stroke="#333333" stroke-miterlimit="10" stroke-linecap="round" stroke-linejoin="round"/>
<path d="M119.801 128.999C119.801 128.999 124.901 129.399 131.401 125.299L119.801 128.999Z" fill="white"/>
<path d="M119.801 128.999C119.801 128.999 124.901 129.399 131.401 125.299" stroke="#333333" stroke-miterlimit="10" stroke-linecap="round" stroke-linejoin="round"/>
<path d="M144.601 101.298C144.801 101.198 151.301 99.2981 151.101 105.998C150.901 112.598 143.801 110.998 143.801 110.798" fill="white"/>
<path d="M144.601 101.298C144.801 101.198 151.301 99.2981 151.101 105.998C150.901 112.598 143.801 110.998 143.801 110.798" stroke="#333333" stroke-miterlimit="10" stroke-linecap="round" stroke-linejoin="round"/>
<path d="M113.701 100.8C113.701 101.5 114.301 102.2 115.001 102.2C115.801 102.2 116.401 101.7 116.401 100.9C116.401 100.2 115.801 99.5 115.101 99.5C114.301 99.5 113.701 100.1 113.701 100.8Z" fill="#333333"/>
<path d="M128.301 101.499C128.301 102.199 128.901 102.899 129.601 102.899C130.401 102.899 131.001 102.399 131.001 101.599C131.001 100.899 130.401 100.199 129.701 100.199C129.001 100.199 128.401 100.699 128.301 101.499Z" fill="#333333"/>
<path d="M126.601 94.2996C126.801 94.6996 127.901 94.1996 130.001 94.3996C132.101 94.5996 133.001 95.1996 133.201 94.7996C133.301 94.5996 133.801 94.1996 133.101 93.7996C132.401 93.3996 131.401 92.9996 130.101 92.8996C128.901 92.7996 127.701 92.9996 127.001 93.1996C126.301 93.4996 126.501 94.0996 126.601 94.2996Z" fill="#333333"/>
<path d="M112.701 95.3992C113.101 95.6992 113.701 95.1992 115.401 95.1992C117.101 95.0992 117.801 95.4992 118.101 95.1992C118.201 94.9992 118.701 94.5992 118.101 94.2992C117.501 93.9992 116.501 93.6992 115.301 93.6992C114.201 93.6992 113.201 93.9992 112.601 94.3992C112.001 94.6992 112.601 95.1992 112.701 95.3992Z" fill="#333333"/>
<path d="M105.8 79.7996C105.7 78.5996 106.1 77.2996 107.1 76.5996C108.1 75.8996 109.6 75.8996 110.4 76.7996C109.9 75.1996 111.3 73.2996 113 73.1996C114.6 73.0996 115.9 74.2996 117.5 74.6996C119 75.0996 120.6 74.7996 122 74.1996C123.4 73.5996 124.8 72.7996 126.2 72.2996C129.2 71.1996 132.7 71.2996 135.6 72.6996C138.5 73.9996 140.9 76.5996 142 79.5996C144.1 78.8996 146.5 79.9996 147.8 81.7996C149.1 83.5996 149.4 85.9996 149.2 88.1996C149 89.6996 148.6 91.0996 148.1 92.5996C148.1 92.6996 148.1 92.7996 148.1 92.9996C148 98.2996 147.4 104.6 145.1 104.6C141.1 104.7 142.1 97.1996 142.1 97.1996C137.2 95.2996 139 87.9996 137.8 86.8996C136.6 85.7996 134 83.1996 123.8 88.3996C119.8 90.3996 114.6 90.3996 111.7 89.6996C111.6 89.6996 111.5 89.6996 111.4 89.5996C111.4 89.5996 111.4 89.5996 111.3 89.5996H111.2C110.3 89.3996 109.4 88.9996 108.6 88.4996C107.7 87.8996 106.8 87.0996 106.4 86.0996C106 85.0996 106.2 83.7996 107 83.0996C106.4 82.0996 105.9 80.9996 105.8 79.7996Z" fill="#333333"/>
<path d="M149.6 137.199C149.6 137.199 172.8 144.599 174.3 148.599C175.5 151.599 187.6 188.099 190.2 211.899C191.3 221.599 184.1 230.299 174.4 231.099C158.7 232.499 136 234.399 136 233.099V213.399L165.5 208.999L154.5 176.999L149.6 137.199Z" fill="#333333"/>
<path d="M119.9 229.2C122.9 230 136 230 136 230V214.5C136 214.5 130.3 212.1 128.7 210.7C127.7 209.8 125.2 204.9 123.7 201.7C123.1 200.5 121.4 200.6 121 201.9C120.6 203.1 120.4 204.5 120.7 205.8C121.4 209.2 122.8 209.6 122.9 211C122.9 211 123 211.3 123 211.4C123.3 213.3 121.5 215 121.5 215C121.6 215 120 214 119.5 214C116.7 213.7 113.5 215.6 113.5 216.7C113.5 216.7 113.4 219.7 113.5 220.1C113.6 220.5 115 221.1 115 221.1C115 221.1 114.6 223.1 115 224C115.4 224.9 116.9 225.5 116.9 225.5C116.9 225.5 118.2 228.8 119.9 229.2Z" fill="white" stroke="#333333" stroke-miterlimit="10" stroke-linecap="round" stroke-linejoin="round"/>
<path d="M123 226.701C123 226.801 121.6 226.901 119.8 226.501C118.1 226.101 116.8 225.401 116.9 225.301" stroke="#333333" stroke-miterlimit="10" stroke-linecap="round" stroke-linejoin="round"/>
<path d="M122.299 222.101C122.299 222.201 120.699 222.601 118.699 222.301C116.699 222.001 115.299 221.301 115.299 221.201" stroke="#333333" stroke-miterlimit="10" stroke-linecap="round" stroke-linejoin="round"/>
<path d="M113.9 216.3C113.9 216.2 114.7 216 116 215.9C116.7 215.8 117.5 215.8 118.4 215.8C118.8 215.8 119.3 215.7 119.8 215.6C120.2 215.5 120.7 215.3 121.1 215.1C121.9 214.6 122.6 213.9 122.8 213.1C122.9 212.7 122.9 212.3 122.8 211.9C122.7 211.5 122.6 211.2 122.5 210.9C122.1 209.6 121.7 208.9 121.7 208.9" stroke="#333333" stroke-miterlimit="10" stroke-linecap="round" stroke-linejoin="round"/>
<path d="M136 213.499C136.3 213.399 136.6 213.399 137.2 213.299C138 213.199 139.1 212.999 140.4 212.799C143.2 212.399 146.9 211.799 150.9 211.199C155 210.599 158.8 209.999 161.5 209.699C162.8 209.499 163.9 209.399 164.7 209.299C165.5 209.199 165.9 209.199 165.9 209.199" fill="#333333"/>
<path d="M136 213.499C136.3 213.399 136.6 213.399 137.2 213.299C138 213.199 139.1 212.999 140.4 212.799C143.2 212.399 146.9 211.799 150.9 211.199C155 210.599 158.8 209.999 161.5 209.699C162.8 209.499 163.9 209.399 164.7 209.299C165.5 209.199 165.9 209.199 165.9 209.199" stroke="white" stroke-miterlimit="10" stroke-linecap="round" stroke-linejoin="round"/>
<path d="M165.4 209.2C165.4 209.2 165.2 209.1 165 208.7C164.9 208.3 164.8 207.6 165.2 207C165.6 206.3 166.4 205.8 167.3 205.5C168.3 205.3 169.3 205.4 170.4 205.4C172.6 205.5 174.6 205.7 176 205.8C177.4 205.9 178.3 206 178.3 206.1" fill="#333333"/>
<path d="M165.4 209.2C165.4 209.2 165.2 209.1 165 208.7C164.9 208.3 164.8 207.6 165.2 207C165.6 206.3 166.4 205.8 167.3 205.5C168.3 205.3 169.3 205.4 170.4 205.4C172.6 205.5 174.6 205.7 176 205.8C177.4 205.9 178.3 206 178.3 206.1" stroke="white" stroke-miterlimit="10" stroke-linecap="round" stroke-linejoin="round"/>
<path d="M173.499 211.599C173.499 211.699 171.599 211.199 169.299 210.599C166.999 209.899 165.199 209.299 165.199 209.199" fill="#333333"/>
<path d="M173.499 211.599C173.499 211.699 171.599 211.199 169.299 210.599C166.999 209.899 165.199 209.299 165.199 209.199" stroke="white" stroke-miterlimit="10" stroke-linecap="round" stroke-linejoin="round"/>
<path d="M165.399 206.599C165.299 206.599 162.899 199.099 160.099 189.799C157.299 180.499 155.699 166.199 155.799 166.199" fill="#333333"/>
<path d="M165.399 206.599C165.299 206.599 162.899 199.099 160.099 189.799C157.299 180.499 155.699 166.199 155.799 166.199" stroke="white" stroke-miterlimit="10" stroke-linecap="round" stroke-linejoin="round"/>
<path d="M156.199 165.599C156.199 165.599 156.199 165.299 156.299 164.599C156.399 163.999 156.599 163.099 156.999 161.999C157.699 159.899 159.199 157.099 161.599 154.599C163.999 152.199 166.799 150.699 168.899 149.999C169.999 149.599 170.799 149.399 171.499 149.299C172.099 149.199 172.499 149.199 172.499 149.199" fill="#333333"/>
<path d="M156.199 165.599C156.199 165.599 156.199 165.299 156.299 164.599C156.399 163.999 156.599 163.099 156.999 161.999C157.699 159.899 159.199 157.099 161.599 154.599C163.999 152.199 166.799 150.699 168.899 149.999C169.999 149.599 170.799 149.399 171.499 149.299C172.099 149.199 172.499 149.199 172.499 149.199" stroke="white" stroke-miterlimit="10" stroke-linecap="round" stroke-linejoin="round"/>
<path d="M95.4004 165.299C95.4004 165.299 95.4004 165.499 95.4004 165.799C95.4004 166.199 95.4004 166.699 95.5004 167.299C95.5004 168.699 95.6004 170.499 95.6004 172.799C95.7004 177.499 95.7004 183.999 95.8004 191.099C95.8004 198.199 95.9004 204.699 95.9004 209.399C95.9004 211.699 95.9004 213.599 95.9004 214.899C95.9004 215.499 95.9004 215.999 95.9004 216.399C95.9004 216.699 95.9004 216.899 95.9004 216.899C95.9004 216.899 95.9004 216.699 95.9004 216.399C95.9004 215.999 95.9004 215.499 95.8004 214.899C95.8004 213.499 95.7004 211.699 95.7004 209.399C95.6004 204.699 95.6004 198.199 95.5004 191.099C95.5004 183.999 95.4004 177.599 95.4004 172.799C95.4004 170.499 95.4004 168.599 95.4004 167.299C95.4004 166.699 95.4004 166.199 95.4004 165.799C95.4004 165.499 95.4004 165.299 95.4004 165.299Z" fill="#455A64"/>
<path d="M168.299 232C168.299 232.1 165.899 231.9 155.399 232.6C144.899 233.3 136.299 233.1 136.299 233" fill="#333333"/>
<path d="M168.299 232C168.299 232.1 165.899 231.9 155.399 232.6C144.899 233.3 136.299 233.1 136.299 233" stroke="white" stroke-miterlimit="10" stroke-linecap="round" stroke-linejoin="round"/>
<path d="M420 306.599C414.1 303.199 410.9 295.199 410.7 288.599C410.5 282.099 413.2 275.199 418.5 271.499C424.1 267.599 432.2 267.599 438 271.299C443.8 274.999 447.2 281.999 446.9 288.899C446.6 295.799 442.9 302.399 437.3 306.399" fill="#E3CCFF"/>
<path d="M258.1 78.8004L254.7 70.1004C255 69.6004 255.2 69.0004 255.1 68.4004C255.1 66.7004 253.7 65.4004 252 65.4004C250.3 65.4004 249 66.8004 249 68.5004C249 70.1004 250.4 71.4004 252 71.5004L256.5 79.7004L258.1 78.8004Z" fill="#E3CCFF" stroke="#333333" stroke-miterlimit="10" stroke-linejoin="round"/>
<path d="M420 306.599C414.1 303.199 410.9 295.199 410.7 288.599C410.5 282.099 413.2 275.199 418.5 271.499C424.1 267.599 432.2 267.599 438 271.299C443.8 274.999 447.2 281.999 446.9 288.899C446.6 295.799 442.9 302.399 437.3 306.399" stroke="#333333" stroke-miterlimit="10" stroke-linecap="round" stroke-linejoin="round" stroke-dasharray="1 1"/>
<path d="M427.801 269.199C427.801 269.199 427.901 269.699 428.001 270.699C428.101 271.699 428.301 272.999 428.401 274.799C428.701 278.199 429.101 282.999 429.301 288.199C429.501 293.499 429.601 298.199 429.601 301.699C429.601 303.399 429.601 304.799 429.501 305.799C429.501 306.799 429.401 307.299 429.401 307.299" stroke="#333333" stroke-miterlimit="10" stroke-linecap="round" stroke-linejoin="round" stroke-dasharray="1 1"/>
<path d="M420.5 306.6C420.5 306.6 420.2 306.1 419.8 305.1C419.4 304.1 418.9 302.6 418.3 300.8C417.7 299 417.1 296.7 416.6 294.2C416.2 291.7 415.9 288.8 416.2 285.8C416.9 279.8 419.8 274.9 422.5 272.2C423.9 270.8 425.2 269.9 426.1 269.4C426.6 269.1 427 269 427.2 268.8C427.5 268.7 427.6 268.6 427.6 268.6" stroke="#333333" stroke-miterlimit="10" stroke-linecap="round" stroke-linejoin="round" stroke-dasharray="1 1"/>
<path d="M427.301 268.801C427.301 268.801 427.501 268.801 427.801 268.801C428.101 268.901 428.501 269.001 429.101 269.101C430.201 269.501 431.701 270.201 433.201 271.501C434.701 272.901 436.201 274.801 437.401 277.201C438.501 279.601 439.401 282.501 439.901 285.501C440.801 291.601 439.601 297.301 438.201 301.001C437.901 302.001 437.501 302.801 437.201 303.501C436.801 304.201 436.501 304.801 436.301 305.301C435.701 306.301 435.401 306.801 435.401 306.801" stroke="#333333" stroke-miterlimit="10" stroke-linecap="round" stroke-linejoin="round" stroke-dasharray="1 1"/>
<path d="M416.501 305.6H441.701C443.201 305.6 444.401 306.8 444.401 308.2V308.9C444.401 310.4 443.201 311.7 441.701 311.7H416.501C415.001 311.7 413.801 310.5 413.801 309V308.3C413.801 306.8 415.001 305.6 416.501 305.6Z" fill="#333333"/>
<path d="M416.4 308.699L418.2 327.299H440.5L442.3 308.899L416.4 308.699Z" fill="#333333"/>
<path d="M290.6 9.69922L293 22.2992L294.9 18.7992L299.1 25.0992L301.2 23.5992L297 17.3992L300.9 16.7992L290.6 9.69922Z" fill="#333333"/>
<path d="M272.801 84.7995C272.001 81.6995 270.001 74.2995 264.201 73.1995C258.901 72.1995 253.101 76.8995 251.801 82.3995C250.401 88.0995 254.201 92.6995 255.001 93.6995C259.001 98.5995 267.001 102 271.201 98.7995C275.701 95.4995 273.301 86.5995 272.801 84.7995Z" fill="#333333"/>
<path d="M283.2 70.5C281 70.5 279.3 72.2 279.3 74.4C279.3 74.5 279.3 74.7 279.3 74.8L264.9 84.8L265.8 86.9L281.3 77.8C281.9 78.1 282.5 78.3 283.2 78.3C285.4 78.3 287.1 76.6 287.1 74.4C287.1 72.2 285.4 70.5 283.2 70.5Z" fill="#E3CCFF" stroke="#333333" stroke-miterlimit="10" stroke-linejoin="round"/>
<path d="M230.699 122.701C235.399 131.001 240.899 122.601 240.099 119.801L230.699 122.701Z" stroke="#333333" stroke-miterlimit="10" stroke-linecap="round" stroke-linejoin="round"/>
<path d="M358.299 92.0996C357.499 95.2996 350.099 95.9996 348.799 96.0996C341.599 96.7996 339.299 93.6996 335.699 95.5996C333.499 96.6996 332.399 99.5996 330.199 105.2C328.499 109.6 329.399 112.2 327.099 114.1C325.499 115.5 322.899 116.2 321.699 115.2C320.799 114.5 321.099 113 321.199 111.4C321.499 108.1 321.499 104.7 321.099 101.5C320.199 94.3996 317.999 91.5996 320.199 87.6996C324.799 79.3996 342.499 77.9996 352.499 84.4996C352.999 84.7996 359.099 88.8996 358.299 92.0996Z" fill="#333333"/>
<path d="M357.101 89.1006C358.401 90.3006 359.101 92.4006 358.401 94.3006C357.501 96.8006 354.401 98.0006 351.901 97.3006C349.001 96.5006 347.101 93.5006 347.701 91.3006C348.601 88.3006 354.401 86.7006 357.101 89.1006Z" fill="#333333"/>
<path d="M329.801 107.899C328.201 105.999 325.701 105.399 323.801 106.299C321.401 107.499 320.801 110.999 322.201 113.299C323.301 115.099 325.501 116.099 327.801 115.699" fill="#919191"/>
<path d="M329.801 107.899C328.201 105.999 325.701 105.399 323.801 106.299C321.401 107.499 320.801 110.999 322.201 113.299C323.301 115.099 325.501 116.099 327.801 115.699" stroke="#333333" stroke-miterlimit="10" stroke-linecap="round" stroke-linejoin="round"/>
<path d="M350.3 124.2C350.3 124.2 344.3 129.4 340 123L350.3 124.2Z" fill="#919191"/>
<path d="M350.3 124.2C350.3 124.2 344.3 129.4 340 123" stroke="#333333" stroke-miterlimit="10" stroke-linecap="round" stroke-linejoin="round"/>
<path d="M345.499 133.9C345.499 133.9 340.399 134.1 336.199 131" stroke="#333333" stroke-miterlimit="10" stroke-linecap="round" stroke-linejoin="round"/>
<path d="M121.499 100.4C121.499 100.4 118.699 108.4 118.499 110.3C118.299 112.2 121.499 112.1 123.299 111.1" fill="white"/>
<path d="M121.499 100.4C121.499 100.4 118.699 108.4 118.499 110.3C118.299 112.2 121.499 112.1 123.299 111.1" stroke="#333333" stroke-miterlimit="10" stroke-linecap="round" stroke-linejoin="round"/>
<path d="M129.199 113.801C129.199 113.801 128.299 123.801 121.199 117.701L129.199 113.801Z" fill="white"/>
<path d="M129.199 113.801C129.199 113.801 128.299 123.801 121.199 117.701" stroke="#333333" stroke-miterlimit="10" stroke-linecap="round" stroke-linejoin="round"/>
<path d="M162.9 276.101L135.4 276.801L136.1 265.801" stroke="white" stroke-miterlimit="10" stroke-linecap="round" stroke-linejoin="round"/>
<path d="M95.5 275.399L103.9 277.999L105.5 262.199" stroke="white" stroke-miterlimit="10" stroke-linecap="round" stroke-linejoin="round"/>
<path d="M120.9 267.301C120.9 267.301 119 281.301 122.9 288.701" stroke="white" stroke-miterlimit="10" stroke-linecap="round" stroke-linejoin="round"/>
<path d="M195.201 100.501C195.501 100.601 196.401 100.801 196.401 101.301C196.501 101.801 195.601 102.001 195.501 102.701C195.401 103.501 196.501 103.801 196.401 104.501C196.301 105.201 195.001 105.301 194.701 106.201C194.501 106.901 195.301 107.301 195.201 107.901C195.001 109.201 191.201 110.401 187.901 109.601C187.701 109.601 184.901 108.901 184.801 107.801C184.801 107.201 185.401 107.001 185.401 106.301C185.401 105.301 184.201 105.001 184.301 104.301C184.401 103.601 185.901 103.601 186.001 102.901C186.101 102.201 184.601 101.801 184.601 101.201C184.801 99.8006 192.201 99.7006 195.201 100.501Z" fill="#333333" stroke="#333333" stroke-miterlimit="10" stroke-linecap="round" stroke-linejoin="round"/>
<path d="M1 143.7V32.5996L10.1 43.9996L10.5 44.7996V130.9L10.2 132.1L1 143.7Z" fill="#B2EEDF" stroke="#333333" stroke-miterlimit="10" stroke-linecap="round" stroke-linejoin="round"/>
</g>
<defs>
<clipPath id="clip0_252_9930">
<rect width="485" height="328" fill="white"/>
</clipPath>
</defs>
</svg>
