<svg width="269" height="286" fill="none" xmlns="http://www.w3.org/2000/svg"><path d="M95.393 129.82c.704-.48 1.264-.928 1.68-1.344.416-.416.704-.864.864-1.344a4.749 4.749 0 00.288-1.68c0-.928-.368-1.648-1.104-2.16-.704-.512-1.824-.768-3.36-.768-.992 0-1.792.096-2.4.288-.608.192-1.056.464-1.344.816-.256.352-.384.784-.384 1.296 0 .576.208 1.088.624 1.536.448.448 1.024.832 1.728 1.152.736.32 1.568.624 2.496.912.96.288 1.952.592 2.976.912 1.056.32 2.096.688 3.12 1.104 1.056.384 2.048.848 2.976 1.392.96.512 1.808 1.152 2.544 1.92a8 8 0 011.728 2.592c.416.992.624 2.144.624 3.456 0 2.24-.528 4.112-1.584 5.616-1.056 1.504-2.672 2.624-4.848 3.36-2.144.736-4.896 1.104-8.256 1.104-4.736 0-8.352-.832-10.848-2.496-2.496-1.664-3.744-4.048-3.744-7.152 0-1.184.224-2.304.672-3.36.48-1.088 1.184-2.064 2.112-2.928.928-.864 2.096-1.568 3.504-2.112l5.808 3.312c-.896.704-1.568 1.376-2.016 2.016-.448.64-.672 1.456-.672 2.448 0 1.056.48 1.872 1.44 2.448.992.544 2.416.816 4.272.816 1.408 0 2.464-.208 3.168-.624.704-.416 1.056-1.024 1.056-1.824 0-.64-.208-1.184-.624-1.632-.384-.48-.928-.896-1.632-1.248a21.72 21.72 0 00-2.4-1.008c-.896-.32-1.84-.64-2.832-.96-.992-.352-1.984-.72-2.976-1.104a29.865 29.865 0 01-2.88-1.392 11.718 11.718 0 01-2.4-1.92 8.921 8.921 0 01-1.632-2.592c-.384-1.024-.576-2.192-.576-3.504 0-3.168 1.152-5.584 3.456-7.248 2.304-1.664 5.6-2.496 9.888-2.496 4.16 0 7.376.768 9.648 2.304 2.272 1.536 3.408 3.648 3.408 6.336 0 .992-.192 1.984-.576 2.976-.352.992-.944 1.936-1.776 2.832-.8.896-1.856 1.696-3.168 2.4l-6.048-2.448zm23.002 19.68c0-1.568.096-3.056.288-4.464.192-1.408.48-2.8.864-4.176a31.193 31.193 0 011.584-4.128c.64-1.376 1.424-2.8 2.352-4.272l5.376-8.64h-15.6v-7.92h26.544v6.144l-6.24 11.28c-1.152 2.112-2.112 4.048-2.88 5.808a31.976 31.976 0 00-1.68 5.136c-.352 1.632-.544 3.376-.576 5.232h-10.032zm25.979-24.24c0-1.92.208-3.52.624-4.8.448-1.28 1.072-2.288 1.872-3.024.832-.736 1.84-1.264 3.024-1.584 1.184-.32 2.528-.48 4.032-.48s2.848.16 4.032.48c1.184.32 2.176.864 2.976 1.632.8.736 1.392 1.744 1.776 3.024.416 1.28.624 2.864.624 4.752 0 1.856-.208 3.408-.624 4.656-.416 1.248-1.04 2.256-1.872 3.024-.832.768-1.824 1.328-2.976 1.68-1.152.32-2.464.48-3.936.48-1.504 0-2.848-.16-4.032-.48-1.184-.352-2.192-.896-3.024-1.632-.8-.768-1.424-1.776-1.872-3.024-.416-1.28-.624-2.848-.624-4.704zm7.008.144c0 1.536.096 2.688.288 3.456.192.736.48 1.232.864 1.488.384.224.848.336 1.392.336.544 0 .992-.112 1.344-.336.384-.256.656-.752.816-1.488.192-.768.288-1.92.288-3.456 0-1.728-.096-2.992-.288-3.792-.192-.8-.48-1.296-.864-1.488-.352-.224-.784-.336-1.296-.336-.544 0-1.008.112-1.392.336-.352.224-.64.736-.864 1.536-.192.8-.288 2.048-.288 3.744zm9.6 24.336l-5.952-.048 18.096-34.704 5.952.048-18.096 34.704zm9.648-9.648c0-1.92.208-3.52.624-4.8.448-1.28 1.072-2.288 1.872-3.024.832-.736 1.84-1.264 3.024-1.584 1.184-.32 2.528-.48 4.032-.48s2.848.16 4.032.48c1.184.32 2.176.864 2.976 1.632.8.736 1.392 1.744 1.776 3.024.416 1.28.624 2.864.624 4.752 0 1.856-.208 3.408-.624 4.656-.416 1.248-1.04 2.256-1.872 3.024-.832.768-1.824 1.328-2.976 1.68-1.152.32-2.464.48-3.936.48-1.504 0-2.848-.16-4.032-.48-1.184-.352-2.192-.896-3.024-1.632-.8-.768-1.424-1.776-1.872-3.024-.416-1.28-.624-2.848-.624-4.704zm7.008.144c0 1.536.096 2.688.288 3.456.192.736.48 1.232.864 1.488.384.224.848.336 1.392.336.544 0 .992-.112 1.344-.336.384-.256.656-.752.816-1.488.192-.768.288-1.92.288-3.456 0-1.728-.096-2.992-.288-3.792-.192-.8-.48-1.296-.864-1.488-.352-.224-.784-.336-1.296-.336-.544 0-1.008.112-1.392.336-.352.224-.64.736-.864 1.536-.192.8-.288 2.048-.288 3.744z" fill="#1F8088"/><path d="M83.409 193.5v-14h2.8v14h-2.8zm6.291-10h2l.2 1.2h.1c.134-.2.36-.433.68-.7.627-.467 1.3-.7 2.02-.7 1.214 0 2.147.333 2.8 1 .667.653 1 1.587 1 2.8v6.4h-2.8v-6.4c0-.627-.133-1.1-.4-1.42-.266-.32-.633-.48-1.1-.48-.44 0-.86.2-1.26.6-.133.16-.28.36-.44.6v7.1h-2.8v-10zm12.004 1.8h-1.1v-1.8h1.1v-.8c0-1.027.34-1.847 1.02-2.46.694-.627 1.654-.94 2.88-.94.627 0 1.327.167 2.1.5.254.107.554.273.9.5l-.9 1.6h-.2a6.52 6.52 0 00-.52-.4c-.386-.267-.78-.4-1.18-.4-.36 0-.666.147-.92.44-.253.28-.38.667-.38 1.16v.8h2.5v1.8h-2.5v8.2h-2.8v-8.2zm7.605 8.2v-13.2l.8-.8h2v14h-2.8zm9.805.2c-1.213 0-2.153-.327-2.82-.98-.653-.667-.98-1.607-.98-2.82v-6.4h2.8v6.4c0 .627.134 1.1.4 1.42.267.32.634.48 1.1.48.44 0 .86-.2 1.26-.6.134-.16.28-.36.44-.6v-7.1h2.8v10h-2l-.2-1.2h-.1a3.764 3.764 0 01-.68.7c-.56.467-1.233.7-2.02.7zm12.602 0c-3.333 0-5-1.733-5-5.2 0-1.707.387-3 1.16-3.88.773-.88 1.853-1.32 3.24-1.32 1.373 0 2.447.427 3.22 1.28.787.853 1.18 2.093 1.18 3.72v.5l-.6.6h-5.4c0 1.667.8 2.5 2.4 2.5.56 0 1.073-.133 1.54-.4.187-.093.373-.227.56-.4h.2l.9 1.6a6.734 6.734 0 01-.96.5c-.8.333-1.613.5-2.44.5zm1-6.1c0-.8-.16-1.413-.48-1.84-.307-.44-.68-.66-1.12-.66-.44 0-.82.22-1.14.66-.307.427-.46 1.04-.46 1.84h3.2zm5.391-4.1h2l.2 1.2h.1c.133-.2.36-.433.68-.7.626-.467 1.3-.7 2.02-.7 1.213 0 2.146.333 2.8 1 .666.653 1 1.587 1 2.8v6.4h-2.8v-6.4c0-.627-.134-1.1-.4-1.42-.267-.32-.634-.48-1.1-.48-.44 0-.86.2-1.26.6-.134.16-.28.36-.44.6v7.1h-2.8v-10zm16.204 10.2c-3.267 0-4.9-1.733-4.9-5.2 0-1.733.4-3.033 1.2-3.9.8-.867 1.966-1.3 3.5-1.3.76 0 1.573.167 2.44.5.266.107.586.273.96.5l-.9 1.6h-.2a2.453 2.453 0 00-.56-.4c-.467-.267-.98-.4-1.54-.4-.68 0-1.2.26-1.56.78-.36.507-.54 1.38-.54 2.62 0 1.253.186 2.133.56 2.64.373.507.953.76 1.74.76.56 0 1.073-.133 1.54-.4.186-.093.373-.227.56-.4h.2l.9 1.6a6.842 6.842 0 01-.96.5 6.3 6.3 0 01-2.44.5zm9.992 0c-3.334 0-5-1.733-5-5.2 0-1.707.386-3 1.16-3.88.773-.88 1.853-1.32 3.24-1.32 1.373 0 2.446.427 3.22 1.28.786.853 1.18 2.093 1.18 3.72v.5l-.6.6h-5.4c0 1.667.8 2.5 2.4 2.5.56 0 1.073-.133 1.54-.4.186-.093.373-.227.56-.4h.2l.9 1.6a6.842 6.842 0 01-.96.5 6.3 6.3 0 01-2.44.5zm1-6.1c0-.8-.16-1.413-.48-1.84-.307-.44-.68-.66-1.12-.66-.44 0-.82.22-1.14.66-.307.427-.46 1.04-.46 1.84h3.2zm5.39-4.1h2l.2 1.2h.1c.134-.2.36-.433.68-.7.627-.467 1.3-.7 2.02-.7.347 0 .687.033 1.02.1.214.053.374.087.48.1l-.4 2h-.2a2.489 2.489 0 01-.44-.1 4.307 4.307 0 00-.96-.1c-.44 0-.86.2-1.26.6-.133.16-.28.36-.44.6v7h-2.8v-10zm11.591 10.2a8.633 8.633 0 01-4.1-1l.9-1.6h.2c.253.16.493.293.72.4.56.267 1.22.4 1.98.4.667 0 1.147-.1 1.44-.3.307-.213.46-.487.46-.82 0-.32-.167-.573-.5-.76-.333-.187-.847-.387-1.54-.6a16.031 16.031 0 01-1.78-.68 3.414 3.414 0 01-1.18-.92c-.333-.4-.5-.907-.5-1.52 0-.893.353-1.613 1.06-2.16.707-.56 1.753-.84 3.14-.84.84 0 1.747.167 2.72.5.333.12.693.287 1.08.5l-.9 1.6h-.2a3.75 3.75 0 00-.68-.4 4.175 4.175 0 00-1.82-.4c-.52 0-.92.1-1.2.3-.267.187-.4.42-.4.7 0 .307.16.553.48.74.333.187.853.393 1.56.62.707.227 1.293.453 1.76.68.467.213.867.52 1.2.92.333.4.5.907.5 1.52 0 .96-.36 1.72-1.08 2.28-.72.56-1.827.84-3.32.84z" fill="#000"/><path d="M34.78 218.372c.405-.235.72-.459.944-.672.224-.224.384-.459.48-.704.096-.256.144-.528.144-.816 0-.544-.208-.955-.624-1.232-.405-.288-1.008-.432-1.808-.432-.501 0-.923.064-1.264.192-.341.117-.603.293-.784.528-.17.224-.256.501-.256.832 0 .309.075.571.224.784.16.203.368.379.624.528.267.149.57.277.912.384.341.107.699.213 1.072.32.384.096.763.203 1.136.32.373.117.73.261 1.072.432.341.16.645.357.912.592.267.224.475.507.624.848.15.331.224.725.224 1.184 0 .704-.17 1.296-.512 1.776-.341.469-.853.827-1.536 1.072-.672.235-1.525.352-2.56.352-1.43 0-2.528-.272-3.296-.816-.757-.544-1.136-1.312-1.136-2.304 0-.448.085-.864.256-1.248.17-.384.427-.736.768-1.056.352-.32.8-.603 1.344-.848l1.104.608c-.587.299-1.019.64-1.296 1.024-.267.373-.4.837-.4 1.392 0 .619.24 1.093.72 1.424.48.331 1.179.496 2.096.496.853 0 1.499-.144 1.936-.432.448-.299.672-.731.672-1.296 0-.331-.075-.608-.224-.832a1.85 1.85 0 00-.624-.592 4.47 4.47 0 00-.88-.416 9.434 9.434 0 00-1.056-.336c-.363-.107-.73-.219-1.104-.336a8.076 8.076 0 01-1.04-.416 4.29 4.29 0 01-.896-.576 2.398 2.398 0 01-.608-.832c-.15-.331-.224-.72-.224-1.168 0-.96.352-1.691 1.056-2.192.715-.512 1.723-.768 3.024-.768 1.29 0 2.283.245 2.976.736.693.48 1.04 1.163 1.04 2.048a2.919 2.919 0 01-.864 2.08c-.299.309-.693.603-1.184.88l-1.184-.512zm7.43 6.128c0-.544.031-1.061.095-1.552.064-.491.166-.976.304-1.456.15-.491.342-.992.576-1.504.235-.512.523-1.067.864-1.664l1.952-3.376h-6.08V213.3h8.16v1.168l-2.464 4.432a17.015 17.015 0 00-.928 1.888 11.468 11.468 0 00-.544 1.792 10.84 10.84 0 00-.192 1.92H42.21zm7.717-8.128c0-.64.064-1.173.192-1.6.138-.427.33-.763.576-1.008.245-.256.538-.432.88-.528.34-.107.725-.16 1.152-.16.426 0 .81.053 1.152.16.34.107.629.288.864.544.245.245.432.581.56 1.008.138.416.208.944.208 1.584 0 .629-.07 1.157-.208 1.584-.128.416-.315.752-.56 1.008a2.27 2.27 0 01-.88.544c-.342.107-.72.16-1.136.16-.427 0-.811-.053-1.152-.16a2.268 2.268 0 01-.88-.544c-.246-.256-.438-.592-.576-1.008-.128-.427-.192-.955-.192-1.584zm1.312.016c0 .651.064 1.152.192 1.504.128.341.304.576.528.704.224.128.48.192.768.192.288 0 .538-.064.752-.192.224-.128.4-.363.528-.704.128-.352.192-.853.192-1.504 0-.683-.064-1.195-.192-1.536-.128-.352-.304-.587-.528-.704a1.434 1.434 0 00-.752-.192 1.52 1.52 0 00-.768.192c-.224.117-.4.352-.528.704s-.192.864-.192 1.536zm3.136 8.24l-1.12-.064 5.824-11.744 1.12.064-5.824 11.744zm3.536-3.28c0-.64.064-1.173.192-1.6.138-.427.33-.763.576-1.008.245-.256.538-.432.88-.528.34-.107.725-.16 1.152-.16.426 0 .81.053 1.152.16.34.107.629.288.864.544.245.245.432.581.56 1.008.138.416.208.944.208 1.584 0 .629-.07 1.157-.208 1.584-.128.416-.315.752-.56 1.008a2.27 2.27 0 01-.88.544c-.342.107-.72.16-1.136.16-.427 0-.811-.053-1.152-.16a2.268 2.268 0 01-.88-.544c-.246-.256-.438-.592-.576-1.008-.128-.427-.192-.955-.192-1.584zm1.312.016c0 .651.064 1.152.192 1.504.128.341.304.576.528.704.224.128.48.192.768.192.288 0 .538-.064.752-.192.224-.128.4-.363.528-.704.128-.352.192-.853.192-1.504 0-.683-.064-1.195-.192-1.536-.128-.352-.304-.587-.528-.704a1.434 1.434 0 00-.752-.192 1.52 1.52 0 00-.768.192c-.224.117-.4.352-.528.704s-.192.864-.192 1.536zm11.712-6.96c-.373 0-.64-.069-.8-.208-.16-.139-.24-.373-.24-.704 0-.32.08-.549.24-.688.16-.149.427-.224.8-.224.374 0 .64.075.8.224.16.139.24.368.24.688 0 .331-.08.565-.24.704-.16.139-.426.208-.8.208zm-.864 10.096v-8.624H71.8v8.624h-1.728zm3.883 0v-8.624h1.568v.752a9.432 9.432 0 011.008-.48c.32-.139.645-.245.976-.32a4.69 4.69 0 011.04-.112c.533 0 .976.096 1.328.288.363.192.635.464.816.816.192.352.288.784.288 1.296v6.384h-1.744v-5.856c0-.48-.117-.843-.352-1.088-.235-.245-.587-.368-1.056-.368-.245 0-.485.027-.72.08a4.45 4.45 0 00-.704.224 5.93 5.93 0 00-.72.32v6.688h-1.728zm16.86.16c-.438 0-.817-.075-1.137-.224-.309-.16-.549-.427-.72-.8-.16-.384-.24-.907-.24-1.568v-8.096a2.575 2.575 0 00-.544-.112 5.02 5.02 0 00-.544-.032c-.48 0-.88.08-1.2.24-.309.16-.544.421-.704.784-.149.363-.224.837-.224 1.424v.288h2.224v1.296h-2.224v6.64H83.79v-6.64h-1.296v-1.152l1.296-.144v-.32c0-.843.15-1.536.448-2.08a2.858 2.858 0 011.312-1.248c.587-.277 1.312-.416 2.176-.416.459 0 .918.032 1.376.096.47.064.918.16 1.344.288v9.04c0 .341.038.603.112.784.075.171.176.288.304.352.139.064.288.096.448.096.107 0 .224-.011.352-.032.139-.021.283-.059.432-.112l.16 1.344c-.192.085-.41.155-.656.208a3.096 3.096 0 01-.784.096zm4.977 0c-.49 0-.917-.085-1.28-.256a1.952 1.952 0 01-.848-.816c-.192-.363-.288-.816-.288-1.36v-6.352h1.728v5.984c0 .427.117.757.352.992.234.235.576.352 1.024.352.234 0 .464-.027.688-.08.224-.053.442-.123.656-.208.224-.096.453-.208.688-.336v-6.704h1.728v6.496c0 .203.021.363.064.48a.56.56 0 00.208.256.595.595 0 00.272.064c.138 0 .272-.027.4-.08l.176 1.248c-.107.064-.23.117-.368.16a1.989 1.989 0 01-.432.112c-.15.032-.304.048-.464.048a1.55 1.55 0 01-.848-.224 1.442 1.442 0 01-.528-.688c-.31.181-.624.341-.944.48-.31.139-.624.245-.944.32-.32.075-.667.112-1.04.112zm10.33 0c-.629 0-1.184-.08-1.664-.24a3.29 3.29 0 01-1.216-.768c-.331-.341-.581-.779-.752-1.312-.171-.544-.256-1.184-.256-1.92 0-.864.101-1.595.304-2.192.213-.608.501-1.093.864-1.456.373-.373.805-.64 1.296-.8a5.022 5.022 0 011.632-.256c1.152 0 2 .299 2.544.896.555.597.832 1.568.832 2.912 0 .075-.005.181-.016.32v.384l-.944.08a64.285 64.285 0 01-2.896.176c-.576.021-1.179.037-1.808.048a.582.582 0 00-.016.144v.144c0 .587.091 1.061.272 1.424.181.352.448.613.8.784.352.16.795.24 1.328.24.32 0 .651-.016.992-.048.352-.043.693-.091 1.024-.144.331-.064.645-.133.944-.208l.224 1.296a16 16 0 01-1.04.272 9.326 9.326 0 01-1.152.16c-.405.043-.837.064-1.296.064zm-2.064-5.296c.448 0 .875-.005 1.28-.016.416-.021.8-.043 1.152-.064.352-.021.651-.037.896-.048l.576-.048c-.011-.533-.08-.96-.208-1.28-.128-.32-.32-.549-.576-.688-.256-.149-.581-.224-.976-.224-.245 0-.485.037-.72.112a1.623 1.623 0 00-.656.368c-.192.171-.357.411-.496.72-.139.299-.229.688-.272 1.168zm7.427 5.136v-8.624h1.568v.752a9.432 9.432 0 011.008-.48c.32-.139.645-.245.976-.32a4.69 4.69 0 011.04-.112c.533 0 .976.096 1.328.288.363.192.635.464.816.816.192.352.288.784.288 1.296v6.384h-1.744v-5.856c0-.48-.117-.843-.352-1.088-.235-.245-.587-.368-1.056-.368-.245 0-.485.027-.72.08a4.447 4.447 0 00-.704.224 5.876 5.876 0 00-.72.32v6.688h-1.728zm8.795-4.176c0-1.035.16-1.888.48-2.56.32-.683.79-1.195 1.408-1.536.63-.341 1.392-.512 2.288-.512.299 0 .603.016.912.048.32.021.63.059.928.112.299.043.571.101.816.176l-.256 1.44a7.608 7.608 0 00-.736-.128 9.151 9.151 0 00-1.488-.128c-.554 0-1.024.112-1.408.336-.373.224-.661.56-.864 1.008-.192.448-.288 1.024-.288 1.728 0 .64.102 1.173.304 1.6a2.1 2.1 0 00.88.944c.384.203.848.304 1.392.304a9.858 9.858 0 001.552-.128c.278-.043.544-.091.8-.144l.256 1.392c-.405.107-.88.197-1.424.272-.533.075-1.05.112-1.552.112-1.322 0-2.32-.352-2.992-1.056-.672-.715-1.008-1.808-1.008-3.28zm11.911 4.336c-.629 0-1.184-.08-1.664-.24a3.299 3.299 0 01-1.216-.768c-.33-.341-.581-.779-.752-1.312-.17-.544-.256-1.184-.256-1.92 0-.864.102-1.595.304-2.192.214-.608.502-1.093.864-1.456.374-.373.806-.64 1.296-.8a5.03 5.03 0 011.632-.256c1.152 0 2 .299 2.544.896.555.597.832 1.568.832 2.912 0 .075-.005.181-.016.32v.384l-.944.08a64.285 64.285 0 01-2.896.176c-.576.021-1.178.037-1.808.048a.634.634 0 00-.016.144v.144c0 .587.091 1.061.272 1.424.182.352.448.613.8.784.352.16.795.24 1.328.24.32 0 .651-.016.992-.048.352-.043.694-.091 1.024-.144.331-.064.646-.133.944-.208l.224 1.296c-.32.096-.666.187-1.04.272a9.273 9.273 0 01-1.152.16c-.405.043-.837.064-1.296.064zm-2.064-5.296c.448 0 .875-.005 1.28-.016.416-.021.8-.043 1.152-.064.352-.021.651-.037.896-.048l.576-.048c-.01-.533-.08-.96-.208-1.28-.128-.32-.32-.549-.576-.688-.256-.149-.581-.224-.976-.224-.245 0-.485.037-.72.112a1.63 1.63 0 00-.656.368c-.192.171-.357.411-.496.72-.138.299-.229.688-.272 1.168zm8.995-3.488v1.056a6.32 6.32 0 01.864-.688c.278-.181.555-.315.832-.4.278-.085.571-.128.88-.128a4.447 4.447 0 011.2.176l-.288 1.584a3.62 3.62 0 00-.592-.112 2.944 2.944 0 00-1.616.16c-.352.139-.73.373-1.136.704v6.272h-1.712v-8.624h1.568zm4.364 8.288l.224-1.296c.181.064.389.128.624.192.234.053.474.101.72.144a9.151 9.151 0 001.504.128c.586 0 1.018-.096 1.296-.288.288-.192.432-.469.432-.832a.878.878 0 00-.144-.512 1.103 1.103 0 00-.416-.368 3.107 3.107 0 00-.704-.304 9.445 9.445 0 00-.976-.272 5.332 5.332 0 01-.992-.352 2.917 2.917 0 01-.752-.512 2.106 2.106 0 01-.464-.688 2.686 2.686 0 01-.144-.912c0-.821.277-1.456.832-1.904.565-.448 1.392-.672 2.48-.672.33 0 .645.021.944.064.298.032.581.08.848.144.277.053.528.123.752.208l-.24 1.312a12.8 12.8 0 00-.688-.176 6.667 6.667 0 00-.736-.128 7.424 7.424 0 00-.88-.048c-.544 0-.955.091-1.232.272-.267.181-.4.443-.4.784 0 .203.042.368.128.496.096.128.229.24.4.336.181.085.394.171.64.256.245.075.522.149.832.224a6.64 6.64 0 011.072.352c.33.128.608.288.832.48.234.192.416.432.544.72.128.277.192.624.192 1.04 0 .363-.059.693-.176.992a2.102 2.102 0 01-.496.736 2.413 2.413 0 01-.736.496 4.212 4.212 0 01-.96.288 6.263 6.263 0 01-1.12.096c-.374 0-.736-.021-1.088-.064a7.812 7.812 0 01-1.952-.432zm15.883 3.856c-1.248 0-2.192-.192-2.832-.576-.629-.373-.944-.939-.944-1.696 0-.299.048-.571.144-.816a2.01 2.01 0 01.464-.656c.214-.203.475-.379.784-.528l1.056.352a2.702 2.702 0 00-.544.352 1.277 1.277 0 00-.32.4 1.28 1.28 0 00-.112.544c0 .299.086.549.256.752.171.203.438.357.8.464.363.107.822.16 1.376.16.576 0 1.062-.059 1.456-.176.395-.117.699-.288.912-.512.214-.213.32-.469.32-.768 0-.224-.053-.405-.16-.544-.096-.139-.256-.24-.48-.304-.224-.075-.522-.112-.896-.112h-2.016c-.554 0-1.029-.069-1.424-.208-.384-.139-.677-.347-.88-.624-.202-.277-.304-.613-.304-1.008 0-.416.102-.768.304-1.056.214-.299.518-.555.912-.768l.976.336a1.928 1.928 0 00-.624.448.836.836 0 00-.224.592c0 .256.096.459.288.608.203.139.512.208.928.208h2.592c.875 0 1.531.197 1.968.592.448.384.672.933.672 1.648 0 .608-.176 1.125-.528 1.552-.341.437-.842.768-1.504.992-.661.235-1.466.352-2.416.352zm.16-6.624c-1.109 0-1.957-.235-2.544-.704-.576-.48-.864-1.189-.864-2.128 0-.939.288-1.648.864-2.128.587-.48 1.435-.72 2.544-.72 1.12 0 1.968.24 2.544.72.576.48.864 1.189.864 2.128 0 .939-.288 1.648-.864 2.128-.576.469-1.424.704-2.544.704zm0-1.168c.587 0 1.019-.128 1.296-.384.288-.256.432-.683.432-1.28s-.144-1.024-.432-1.28c-.277-.267-.709-.4-1.296-.4-.565 0-.992.133-1.28.4-.288.256-.432.683-.432 1.28s.144 1.024.432 1.28c.288.256.715.384 1.28.384zm2.688-2.912l-.704-.912c.15-.363.368-.629.656-.8.299-.181.656-.272 1.072-.272.128 0 .251.011.368.032.118.011.224.032.32.064l-.192 1.344a2.129 2.129 0 00-.528-.064c-.213 0-.405.048-.576.144-.17.096-.309.251-.416.464zm2.452 2.864c0-.747.064-1.397.192-1.952.139-.555.357-1.013.656-1.376.299-.373.699-.656 1.2-.848.501-.192 1.12-.288 1.856-.288s1.355.096 1.856.288c.501.192.901.475 1.2.848.299.363.512.821.64 1.376.139.555.208 1.205.208 1.952 0 .757-.075 1.419-.224 1.984-.139.565-.363 1.035-.672 1.408a2.816 2.816 0 01-1.216.816c-.491.181-1.088.272-1.792.272s-1.307-.091-1.808-.272a2.822 2.822 0 01-1.2-.816c-.309-.373-.539-.843-.688-1.408-.139-.565-.208-1.227-.208-1.984zm1.776 0c0 .779.069 1.397.208 1.856.149.459.379.789.688.992.32.203.731.304 1.232.304s.907-.101 1.216-.304c.309-.203.533-.533.672-.992.149-.459.224-1.077.224-1.856 0-.779-.064-1.392-.192-1.84-.128-.459-.352-.784-.672-.976-.309-.203-.725-.304-1.248-.304-.533 0-.955.101-1.264.304-.309.192-.533.517-.672.976-.128.448-.192 1.061-.192 1.84zm10.749 4.48c-.544 0-.997-.101-1.36-.304a1.886 1.886 0 01-.816-.928c-.171-.427-.256-.96-.256-1.6v-4.656h-1.408v-1.152l1.408-.144.224-1.968h1.504v1.968h2.656v1.296h-2.656v4.528c0 .523.101.901.304 1.136.203.235.528.352.976.352.224 0 .453-.021.688-.064.245-.053.496-.112.752-.176l.24 1.328c-.405.139-.8.235-1.184.288a6.543 6.543 0 01-1.072.096zm7.745-2.32c0-.523.101-.949.304-1.28.213-.341.533-.608.96-.8.427-.203.96-.357 1.6-.464.64-.117 1.381-.208 2.224-.272v-.992c0-.437-.155-.768-.464-.992-.299-.224-.741-.336-1.328-.336a8.854 8.854 0 00-1.584.144 7.472 7.472 0 00-.912.224l-.288-1.392a8.871 8.871 0 011.456-.336 8.821 8.821 0 011.44-.128c.779 0 1.419.107 1.92.32.512.203.891.512 1.136.928.256.416.384.933.384 1.552v3.808c0 .32.048.539.144.656.096.107.219.16.368.16.053 0 .117-.005.192-.016a.9.9 0 00.224-.064l.16 1.28a2.35 2.35 0 01-.56.224 2.167 2.167 0 01-.656.096c-.405 0-.731-.091-.976-.272-.235-.192-.395-.48-.48-.864a8.645 8.645 0 01-.864.576 4.095 4.095 0 01-.992.4c-.352.107-.741.16-1.168.16a2.56 2.56 0 01-.928-.16 1.994 1.994 0 01-.704-.432 2.14 2.14 0 01-.448-.736 2.84 2.84 0 01-.16-.992zm1.76-.128c0 .416.101.725.304.928.203.203.475.304.816.304.256 0 .517-.037.784-.112a4.03 4.03 0 00.768-.336c.256-.149.475-.325.656-.528v-1.952c-.512.043-.971.096-1.376.16-.405.064-.757.16-1.056.288a1.598 1.598 0 00-.672.48c-.149.203-.224.459-.224.768zm12.079 2.288v-8.624h1.568v.752c.309-.192.613-.352.912-.48.299-.128.597-.224.896-.288.309-.075.629-.112.96-.112.331 0 .613.037.848.112.245.075.453.187.624.336.181.139.325.309.432.512.299-.192.603-.357.912-.496.309-.149.635-.267.976-.352a4.238 4.238 0 011.12-.144c.32 0 .603.043.848.128s.459.203.64.352c.181.149.325.325.432.528.117.192.203.411.256.656.053.235.08.48.08.736v6.384h-1.728v-5.856c0-.171-.021-.341-.064-.512a1.408 1.408 0 00-.208-.48.818.818 0 00-.384-.32c-.171-.085-.389-.128-.656-.128-.245 0-.485.032-.72.096a3.147 3.147 0 00-.656.224 9.024 9.024 0 00-.56.288c.043.128.069.251.08.368.011.117.016.235.016.352v5.968h-1.728v-5.84c0-.171-.021-.341-.064-.512a1.242 1.242 0 00-.208-.464 1.031 1.031 0 00-.4-.336c-.16-.085-.373-.128-.64-.128-.213 0-.427.027-.64.08a4.551 4.551 0 00-.608.208 4.14 4.14 0 00-.608.32v6.672h-1.728zm13.058-2.16c0-.523.102-.949.304-1.28.214-.341.534-.608.96-.8.427-.203.96-.357 1.6-.464.64-.117 1.382-.208 2.224-.272v-.992c0-.437-.154-.768-.464-.992-.298-.224-.741-.336-1.328-.336a8.896 8.896 0 00-1.584.144 7.563 7.563 0 00-.912.224l-.288-1.392a8.871 8.871 0 011.456-.336 8.821 8.821 0 011.44-.128c.779 0 1.419.107 1.92.32.512.203.891.512 1.136.928.256.416.384.933.384 1.552v3.808c0 .32.048.539.144.656.096.107.219.16.368.16.054 0 .118-.005.192-.016a.888.888 0 00.224-.064l.16 1.28c-.17.096-.357.171-.56.224a2.163 2.163 0 01-.656.096c-.405 0-.73-.091-.976-.272-.234-.192-.394-.48-.48-.864a8.42 8.42 0 01-.864.576 4.078 4.078 0 01-.992.4c-.352.107-.741.16-1.168.16-.341 0-.65-.053-.928-.16a2.003 2.003 0 01-.704-.432 2.14 2.14 0 01-.448-.736 2.863 2.863 0 01-.16-.992zm1.76-.128c0 .416.102.725.304.928.203.203.475.304.816.304.256 0 .518-.037.784-.112a4.03 4.03 0 00.768-.336c.256-.149.475-.325.656-.528v-1.952c-.512.043-.97.096-1.376.16-.405.064-.757.16-1.056.288a1.598 1.598 0 00-.672.48c-.149.203-.224.459-.224.768zm9.333-6.336v8.256c0 1.056-.176 1.883-.528 2.48-.341.597-.89.981-1.648 1.152-.096.011-.202.021-.32.032a3.103 3.103 0 01-.32.016 3.588 3.588 0 01-.336.016l.048-1.472c.086 0 .16-.011.224-.032.054-.011.112-.027.176-.048.331-.149.576-.405.736-.768.16-.352.24-.837.24-1.456v-8.176h1.728zm-.88-1.472c-.362 0-.629-.069-.8-.208-.16-.139-.24-.373-.24-.704 0-.32.08-.549.24-.688.16-.149.427-.224.8-.224.384 0 .651.075.8.224.16.139.24.368.24.688 0 .331-.08.565-.24.704-.149.139-.416.208-.8.208zm2.649 5.776c0-.747.064-1.397.192-1.952.138-.555.357-1.013.656-1.376.298-.373.698-.656 1.2-.848.501-.192 1.12-.288 1.856-.288s1.354.096 1.856.288c.501.192.901.475 1.2.848.298.363.512.821.64 1.376.138.555.208 1.205.208 1.952 0 .757-.075 1.419-.224 1.984-.139.565-.363 1.035-.672 1.408-.31.363-.715.635-1.216.816-.491.181-1.088.272-1.792.272s-1.307-.091-1.808-.272a2.822 2.822 0 01-1.2-.816c-.31-.373-.539-.843-.688-1.408-.139-.565-.208-1.227-.208-1.984zm1.776 0c0 .779.069 1.397.208 1.856.149.459.378.789.688.992.32.203.73.304 1.232.304.501 0 .906-.101 1.216-.304.309-.203.533-.533.672-.992.149-.459.224-1.077.224-1.856 0-.779-.064-1.392-.192-1.84-.128-.459-.352-.784-.672-.976-.31-.203-.726-.304-1.248-.304-.534 0-.955.101-1.264.304-.31.192-.534.517-.672.976-.128.448-.192 1.061-.192 1.84zm9.386-4.304v1.056a6.32 6.32 0 01.864-.688c.278-.181.555-.315.832-.4.278-.085.571-.128.88-.128a4.447 4.447 0 011.2.176l-.288 1.584a3.62 3.62 0 00-.592-.112 2.944 2.944 0 00-1.616.16c-.352.139-.73.373-1.136.704v6.272h-1.712v-8.624h1.568zM38.84 245.164l.224-1.296c.181.064.39.128.624.192.235.053.475.101.72.144a9.151 9.151 0 001.504.128c.587 0 1.019-.096 1.296-.288.288-.192.432-.469.432-.832a.878.878 0 00-.144-.512 1.097 1.097 0 00-.416-.368 3.099 3.099 0 00-.704-.304 9.368 9.368 0 00-.976-.272 5.35 5.35 0 01-.992-.352 2.924 2.924 0 01-.752-.512 2.123 2.123 0 01-.464-.688 2.686 2.686 0 01-.144-.912c0-.821.277-1.456.832-1.904.566-.448 1.392-.672 2.48-.672.33 0 .645.021.944.064.299.032.581.08.848.144.277.053.528.123.752.208l-.24 1.312a12.633 12.633 0 00-.688-.176 6.638 6.638 0 00-.736-.128 7.419 7.419 0 00-.88-.048c-.544 0-.954.091-1.232.272-.267.181-.4.443-.4.784 0 .203.043.368.128.496.096.128.23.24.4.336.181.085.395.171.64.256.245.075.523.149.832.224.395.096.752.213 1.072.352.33.128.608.288.832.48.235.192.416.432.544.72.128.277.192.624.192 1.04 0 .363-.059.693-.176.992a2.088 2.088 0 01-.496.736 2.408 2.408 0 01-.736.496 4.212 4.212 0 01-.96.288 6.257 6.257 0 01-1.12.096 8.97 8.97 0 01-1.088-.064 7.83 7.83 0 01-1.952-.432zm8.13 3.696v-12.032h1.569l.047.832c.491-.32.966-.555 1.425-.704a4.2 4.2 0 011.392-.24c.938 0 1.658.373 2.16 1.12.5.736.752 1.792.752 3.168 0 1.056-.145 1.931-.432 2.624-.289.693-.726 1.205-1.313 1.536-.586.331-1.328.496-2.224.496-.245 0-.506-.016-.783-.048a17.477 17.477 0 01-.864-.128v3.376H46.97zm3.248-4.48c.534 0 .966-.101 1.296-.304.342-.213.592-.555.752-1.024.171-.48.257-1.109.257-1.888 0-.683-.07-1.243-.209-1.68-.138-.448-.34-.779-.608-.992-.256-.224-.576-.336-.96-.336-.213 0-.431.027-.656.08a2.812 2.812 0 00-.656.224c-.223.096-.469.229-.735.4v5.312c.298.064.57.117.816.16.245.032.48.048.703.048zm5.501-3.2c0-.747.064-1.397.192-1.952.139-.555.357-1.013.656-1.376.299-.373.699-.656 1.2-.848.501-.192 1.12-.288 1.856-.288s1.355.096 1.856.288c.501.192.901.475 1.2.848.299.363.512.821.64 1.376.139.555.208 1.205.208 1.952 0 .757-.075 1.419-.224 1.984-.139.565-.363 1.035-.672 1.408-.31.363-.715.635-1.216.816-.49.181-1.088.272-1.792.272s-1.307-.091-1.808-.272a2.826 2.826 0 01-1.2-.816c-.31-.373-.539-.843-.688-1.408-.139-.565-.208-1.227-.208-1.984zm1.776 0c0 .779.07 1.397.208 1.856.15.459.379.789.688.992.32.203.73.304 1.232.304.501 0 .907-.101 1.216-.304.31-.203.533-.533.672-.992.15-.459.224-1.077.224-1.856 0-.779-.064-1.392-.192-1.84-.128-.459-.352-.784-.672-.976-.31-.203-.725-.304-1.248-.304-.533 0-.955.101-1.264.304-.31.192-.533.517-.672.976-.128.448-.192 1.061-.192 1.84zm7.819 4.32v-8.624h1.568v.752a9.432 9.432 0 011.008-.48c.32-.139.645-.245.976-.32a4.69 4.69 0 011.04-.112c.533 0 .976.096 1.328.288.362.192.634.464.816.816.192.352.288.784.288 1.296v6.384h-1.744v-5.856c0-.48-.118-.843-.352-1.088-.235-.245-.587-.368-1.056-.368-.246 0-.486.027-.72.08a4.45 4.45 0 00-.704.224 5.93 5.93 0 00-.72.32v6.688h-1.728zm8.603-.336l.224-1.296c.181.064.39.128.624.192.235.053.475.101.72.144a9.151 9.151 0 001.504.128c.587 0 1.019-.096 1.296-.288.288-.192.432-.469.432-.832a.878.878 0 00-.144-.512 1.097 1.097 0 00-.416-.368 3.1 3.1 0 00-.704-.304 9.375 9.375 0 00-.976-.272 5.35 5.35 0 01-.992-.352 2.922 2.922 0 01-.752-.512 2.122 2.122 0 01-.464-.688 2.686 2.686 0 01-.144-.912c0-.821.277-1.456.832-1.904.565-.448 1.392-.672 2.48-.672.33 0 .645.021.944.064.299.032.581.08.848.144.277.053.528.123.752.208l-.24 1.312a12.633 12.633 0 00-.688-.176 6.638 6.638 0 00-.736-.128 7.42 7.42 0 00-.88-.048c-.544 0-.955.091-1.232.272-.267.181-.4.443-.4.784 0 .203.043.368.128.496.096.128.23.24.4.336.181.085.395.171.64.256.245.075.523.149.832.224.395.096.752.213 1.072.352.33.128.608.288.832.48.235.192.416.432.544.72.128.277.192.624.192 1.04 0 .363-.059.693-.176.992a2.09 2.09 0 01-.496.736 2.41 2.41 0 01-.736.496 4.212 4.212 0 01-.96.288 6.257 6.257 0 01-1.12.096 8.97 8.97 0 01-1.088-.064 7.83 7.83 0 01-1.952-.432zm7.715-3.984c0-.747.064-1.397.192-1.952.139-.555.358-1.013.656-1.376.299-.373.699-.656 1.2-.848.501-.192 1.12-.288 1.856-.288s1.355.096 1.856.288c.502.192.901.475 1.2.848.299.363.512.821.64 1.376.139.555.208 1.205.208 1.952 0 .757-.075 1.419-.224 1.984-.138.565-.362 1.035-.672 1.408-.31.363-.715.635-1.216.816-.49.181-1.088.272-1.792.272s-1.306-.091-1.808-.272a2.827 2.827 0 01-1.2-.816c-.31-.373-.538-.843-.688-1.408-.139-.565-.208-1.227-.208-1.984zm1.776 0c0 .779.07 1.397.208 1.856.15.459.379.789.688.992.32.203.73.304 1.232.304.501 0 .907-.101 1.216-.304.31-.203.534-.533.672-.992.15-.459.224-1.077.224-1.856 0-.779-.064-1.392-.192-1.84-.128-.459-.352-.784-.672-.976-.31-.203-.725-.304-1.248-.304-.533 0-.954.101-1.264.304-.31.192-.533.517-.672.976-.128.448-.192 1.061-.192 1.84zm9.387-4.304v1.056c.31-.288.597-.517.864-.688.277-.181.554-.315.832-.4.277-.085.57-.128.88-.128a4.485 4.485 0 011.2.176l-.288 1.584a3.628 3.628 0 00-.592-.112 2.94 2.94 0 00-1.616.16c-.352.139-.73.373-1.136.704v6.272h-1.712v-8.624h1.568zm10.53-1.472c-.374 0-.64-.069-.8-.208-.16-.139-.24-.373-.24-.704 0-.32.08-.549.24-.688.16-.149.426-.224.8-.224.373 0 .64.075.8.224.16.139.24.368.24.688 0 .331-.08.565-.24.704-.16.139-.427.208-.8.208zm-.864 10.096v-8.624h1.728v8.624h-1.728zm3.882 0v-8.624h1.568v.752a9.432 9.432 0 011.008-.48c.32-.139.645-.245.976-.32a4.69 4.69 0 011.04-.112c.533 0 .976.096 1.328.288.363.192.635.464.816.816.192.352.288.784.288 1.296v6.384h-1.744v-5.856c0-.48-.117-.843-.352-1.088-.235-.245-.587-.368-1.056-.368-.245 0-.485.027-.72.08a4.447 4.447 0 00-.704.224 5.876 5.876 0 00-.72.32v6.688h-1.728zm16.805.16c-.544 0-.998-.101-1.36-.304a1.886 1.886 0 01-.816-.928c-.171-.427-.256-.96-.256-1.6v-4.656h-1.408v-1.152l1.408-.144.224-1.968h1.504v1.968h2.656v1.296h-2.656v4.528c0 .523.101.901.304 1.136.202.235.528.352.976.352.224 0 .453-.021.688-.064.245-.053.496-.112.752-.176l.24 1.328c-.406.139-.8.235-1.184.288a6.552 6.552 0 01-1.072.096zm3.623-.16v-11.84h1.76v3.936c.32-.192.63-.352.928-.48.299-.128.603-.224.912-.288.32-.075.656-.112 1.008-.112.523 0 .966.096 1.328.288.363.181.635.453.816.816.192.352.288.789.288 1.312v6.368h-1.744v-5.856c0-.48-.117-.837-.352-1.072-.234-.245-.586-.368-1.056-.368-.245 0-.49.027-.736.08a3.976 3.976 0 00-.688.224 6.632 6.632 0 00-.704.32v6.672h-1.76zm12.7.16c-.63 0-1.184-.08-1.664-.24a3.282 3.282 0 01-1.216-.768c-.331-.341-.582-.779-.752-1.312-.171-.544-.256-1.184-.256-1.92 0-.864.101-1.595.304-2.192.213-.608.501-1.093.864-1.456.373-.373.805-.64 1.296-.8a5.022 5.022 0 011.632-.256c1.152 0 2 .299 2.544.896.554.597.832 1.568.832 2.912 0 .075-.006.181-.016.32v.384l-.944.08a56.082 56.082 0 01-2.896.176c-.576.021-1.179.037-1.808.048a.582.582 0 00-.016.144v.144c0 .587.09 1.061.272 1.424.181.352.448.613.8.784.352.16.794.24 1.328.24.32 0 .65-.016.992-.048.352-.043.693-.091 1.024-.144.33-.064.645-.133.944-.208l.224 1.296a16 16 0 01-1.04.272 9.326 9.326 0 01-1.152.16 12.33 12.33 0 01-1.296.064zm-2.064-5.296c.448 0 .874-.005 1.28-.016.416-.021.8-.043 1.152-.064.352-.021.65-.037.896-.048l.576-.048c-.011-.533-.08-.96-.208-1.28-.128-.32-.32-.549-.576-.688-.256-.149-.582-.224-.976-.224-.246 0-.486.037-.72.112a1.617 1.617 0 00-.656.368c-.192.171-.358.411-.496.72-.139.299-.23.688-.272 1.168zm12.684 5.136v-6.896h-1.296v-1.152l1.296-.128v-.176c0-.811.144-1.483.432-2.016a2.813 2.813 0 011.296-1.216c.565-.277 1.259-.416 2.08-.416.277 0 .576.016.896.048.32.032.645.085.976.16.331.075.651.165.96.272l-.416 1.264a4.563 4.563 0 00-.576-.16 9.416 9.416 0 00-.592-.112 5.368 5.368 0 00-.576-.064 4.726 4.726 0 00-.544-.032c-.747 0-1.307.192-1.68.576-.363.373-.544.96-.544 1.76v.112h4.656v8.176h-1.728v-6.896h-2.928v6.896h-1.712zm10.154-8.624v1.056c.309-.288.597-.517.864-.688a3.28 3.28 0 01.832-.4c.277-.085.57-.128.88-.128a4.517 4.517 0 011.2.176l-.288 1.584a3.64 3.64 0 00-.592-.112 2.936 2.936 0 00-1.616.16c-.352.139-.731.373-1.136.704v6.272h-1.712v-8.624h1.568zm4.363 8.288l.224-1.296c.182.064.39.128.624.192.235.053.475.101.72.144a9.151 9.151 0 001.504.128c.587 0 1.019-.096 1.296-.288.288-.192.432-.469.432-.832a.878.878 0 00-.144-.512 1.095 1.095 0 00-.416-.368 3.087 3.087 0 00-.704-.304 9.305 9.305 0 00-.976-.272 5.358 5.358 0 01-.992-.352 2.934 2.934 0 01-.752-.512 2.138 2.138 0 01-.464-.688 2.686 2.686 0 01-.144-.912c0-.821.278-1.456.832-1.904.566-.448 1.392-.672 2.48-.672.331 0 .646.021.944.064.299.032.582.08.848.144.278.053.528.123.752.208l-.24 1.312a12.563 12.563 0 00-.688-.176 6.626 6.626 0 00-.736-.128 7.412 7.412 0 00-.88-.048c-.544 0-.954.091-1.232.272-.266.181-.4.443-.4.784a.88.88 0 00.128.496c.096.128.23.24.4.336.182.085.395.171.64.256.246.075.523.149.832.224.395.096.752.213 1.072.352.331.128.608.288.832.48.235.192.416.432.544.72.128.277.192.624.192 1.04 0 .363-.058.693-.176.992a2.076 2.076 0 01-.496.736 2.4 2.4 0 01-.736.496 4.212 4.212 0 01-.96.288 6.255 6.255 0 01-1.12.096c-.373 0-.736-.021-1.088-.064a7.838 7.838 0 01-1.952-.432zm11.014.496c-.544 0-.997-.101-1.36-.304a1.886 1.886 0 01-.816-.928c-.171-.427-.256-.96-.256-1.6v-4.656h-1.408v-1.152l1.408-.144.224-1.968h1.504v1.968h2.656v1.296h-2.656v4.528c0 .523.101.901.304 1.136.203.235.528.352.976.352.224 0 .453-.021.688-.064.245-.053.496-.112.752-.176l.24 1.328c-.405.139-.8.235-1.184.288a6.543 6.543 0 01-1.072.096zm8.241-.16v-8.624h1.568v.752c.309-.192.613-.352.912-.48.299-.128.597-.224.896-.288.309-.075.629-.112.96-.112.331 0 .613.037.848.112.245.075.453.187.624.336.181.139.325.309.432.512.299-.192.603-.357.912-.496.309-.149.635-.267.976-.352a4.238 4.238 0 011.12-.144c.32 0 .603.043.848.128s.459.203.64.352c.181.149.325.325.432.528.117.192.203.411.256.656.053.235.08.48.08.736v6.384h-1.728v-5.856c0-.171-.021-.341-.064-.512a1.408 1.408 0 00-.208-.48.818.818 0 00-.384-.32c-.171-.085-.389-.128-.656-.128-.245 0-.485.032-.72.096a3.147 3.147 0 00-.656.224 9.024 9.024 0 00-.56.288c.043.128.069.251.08.368.011.117.016.235.016.352v5.968h-1.728v-5.84c0-.171-.021-.341-.064-.512a1.242 1.242 0 00-.208-.464 1.031 1.031 0 00-.4-.336c-.16-.085-.373-.128-.64-.128-.213 0-.427.027-.64.08a4.551 4.551 0 00-.608.208 4.14 4.14 0 00-.608.32v6.672h-1.728zm13.28-4.32c0-.747.064-1.397.192-1.952.138-.555.357-1.013.656-1.376.298-.373.698-.656 1.2-.848.501-.192 1.12-.288 1.856-.288s1.354.096 1.856.288c.501.192.901.475 1.2.848.298.363.512.821.64 1.376.138.555.208 1.205.208 1.952 0 .757-.075 1.419-.224 1.984-.139.565-.363 1.035-.672 1.408-.31.363-.715.635-1.216.816-.491.181-1.088.272-1.792.272s-1.307-.091-1.808-.272a2.822 2.822 0 01-1.2-.816c-.31-.373-.539-.843-.688-1.408-.139-.565-.208-1.227-.208-1.984zm1.776 0c0 .779.069 1.397.208 1.856.149.459.378.789.688.992.32.203.73.304 1.232.304.501 0 .906-.101 1.216-.304.309-.203.533-.533.672-.992.149-.459.224-1.077.224-1.856 0-.779-.064-1.392-.192-1.84-.128-.459-.352-.784-.672-.976-.31-.203-.726-.304-1.248-.304-.534 0-.955.101-1.264.304-.31.192-.534.517-.672.976-.128.448-.192 1.061-.192 1.84zm7.818 4.32v-8.624h1.568v.752a9.432 9.432 0 011.008-.48c.32-.139.646-.245.976-.32a4.696 4.696 0 011.04-.112c.534 0 .976.096 1.328.288.363.192.635.464.816.816.192.352.288.784.288 1.296v6.384h-1.744v-5.856c0-.48-.117-.843-.352-1.088-.234-.245-.586-.368-1.056-.368-.245 0-.485.027-.72.08a4.48 4.48 0 00-.704.224 6.014 6.014 0 00-.72.32v6.688h-1.728zm12.204.16c-.544 0-.998-.101-1.36-.304a1.886 1.886 0 01-.816-.928c-.171-.427-.256-.96-.256-1.6v-4.656h-1.408v-1.152l1.408-.144.224-1.968h1.504v1.968h2.656v1.296h-2.656v4.528c0 .523.101.901.304 1.136.202.235.528.352.976.352.224 0 .453-.021.688-.064.245-.053.496-.112.752-.176l.24 1.328c-.406.139-.8.235-1.184.288a6.552 6.552 0 01-1.072.096zm3.623-.16v-11.84h1.76v3.936c.32-.192.63-.352.928-.48.299-.128.603-.224.912-.288.32-.075.656-.112 1.008-.112.523 0 .966.096 1.328.288.363.181.635.453.816.816.192.352.288.789.288 1.312v6.368h-1.744v-5.856c0-.48-.117-.837-.352-1.072-.234-.245-.586-.368-1.056-.368-.245 0-.49.027-.736.08a3.976 3.976 0 00-.688.224 6.632 6.632 0 00-.704.32v6.672h-1.76z" fill="#0E647B"/><path opacity=".2" d="M0 134.5a134.5 134.5 0 11269 0h-40.35a94.14 94.14 0 00-27.576-66.574A94.162 94.162 0 00134.5 40.35a94.15 94.15 0 00-94.15 94.15H0z" fill="#000"/><path d="M0 134.5a134.5 134.5 0 01253.123-63.394l-35.587 19.018A94.148 94.148 0 00111.627 43.17 94.15 94.15 0 0040.35 134.5H0z" fill="url(#paint0_linear_257_2411)"/><defs><linearGradient id="paint0_linear_257_2411" x1="-36.906" y1="307.108" x2="355.37" y2="262.625" gradientUnits="userSpaceOnUse"><stop stop-color="#6486FF"/><stop offset="1" stop-color="#14FFF1"/></linearGradient></defs></svg>