<svg width="269" height="286" viewBox="0 0 269 286" fill="none" xmlns="http://www.w3.org/2000/svg">
<path d="M111.646 115.32C112.35 114.84 112.91 114.392 113.326 113.976C113.742 113.56 114.03 113.112 114.19 112.632C114.382 112.12 114.478 111.56 114.478 110.952C114.478 110.024 114.11 109.304 113.374 108.792C112.67 108.28 111.55 108.024 110.014 108.024C109.022 108.024 108.222 108.12 107.614 108.312C107.006 108.504 106.558 108.776 106.27 109.128C106.014 109.48 105.886 109.912 105.886 110.424C105.886 111 106.094 111.512 106.51 111.96C106.958 112.408 107.534 112.792 108.238 113.112C108.974 113.432 109.806 113.736 110.734 114.024C111.694 114.312 112.686 114.616 113.71 114.936C114.766 115.256 115.806 115.624 116.83 116.04C117.886 116.424 118.878 116.888 119.806 117.432C120.766 117.944 121.614 118.584 122.35 119.352C123.086 120.088 123.662 120.952 124.078 121.944C124.494 122.936 124.702 124.088 124.702 125.4C124.702 127.64 124.174 129.512 123.118 131.016C122.062 132.52 120.446 133.64 118.27 134.376C116.126 135.112 113.374 135.48 110.014 135.48C105.278 135.48 101.662 134.648 99.166 132.984C96.67 131.32 95.422 128.936 95.422 125.832C95.422 124.648 95.646 123.528 96.094 122.472C96.574 121.384 97.278 120.408 98.206 119.544C99.134 118.68 100.302 117.976 101.71 117.432L107.518 120.744C106.622 121.448 105.95 122.12 105.502 122.76C105.054 123.4 104.83 124.216 104.83 125.208C104.83 126.264 105.31 127.08 106.27 127.656C107.262 128.2 108.686 128.472 110.542 128.472C111.95 128.472 113.006 128.264 113.71 127.848C114.414 127.432 114.766 126.824 114.766 126.024C114.766 125.384 114.558 124.84 114.142 124.392C113.758 123.912 113.214 123.496 112.51 123.144C111.806 122.792 111.006 122.456 110.11 122.136C109.214 121.816 108.27 121.496 107.278 121.176C106.286 120.824 105.294 120.456 104.302 120.072C103.31 119.656 102.35 119.192 101.422 118.68C100.526 118.136 99.726 117.496 99.022 116.76C98.35 116.024 97.806 115.16 97.39 114.168C97.006 113.144 96.814 111.976 96.814 110.664C96.814 107.496 97.966 105.08 100.27 103.416C102.574 101.752 105.87 100.92 110.158 100.92C114.318 100.92 117.534 101.688 119.806 103.224C122.078 104.76 123.214 106.872 123.214 109.56C123.214 110.552 123.022 111.544 122.638 112.536C122.286 113.528 121.694 114.472 120.862 115.368C120.062 116.264 119.006 117.064 117.694 117.768L111.646 115.32ZM128.121 110.76C128.121 108.84 128.329 107.24 128.745 105.96C129.193 104.68 129.817 103.672 130.617 102.936C131.449 102.2 132.457 101.672 133.641 101.352C134.825 101.032 136.169 100.872 137.673 100.872C139.177 100.872 140.521 101.032 141.705 101.352C142.889 101.672 143.881 102.216 144.681 102.984C145.481 103.72 146.073 104.728 146.457 106.008C146.873 107.288 147.081 108.872 147.081 110.76C147.081 112.616 146.873 114.168 146.457 115.416C146.041 116.664 145.417 117.672 144.585 118.44C143.753 119.208 142.761 119.768 141.609 120.12C140.457 120.44 139.145 120.6 137.673 120.6C136.169 120.6 134.825 120.44 133.641 120.12C132.457 119.768 131.449 119.224 130.617 118.488C129.817 117.72 129.193 116.712 128.745 115.464C128.329 114.184 128.121 112.616 128.121 110.76ZM135.129 110.904C135.129 112.44 135.225 113.592 135.417 114.36C135.609 115.096 135.897 115.592 136.281 115.848C136.665 116.072 137.129 116.184 137.673 116.184C138.217 116.184 138.665 116.072 139.017 115.848C139.401 115.592 139.673 115.096 139.833 114.36C140.025 113.592 140.121 112.44 140.121 110.904C140.121 109.176 140.025 107.912 139.833 107.112C139.641 106.312 139.353 105.816 138.969 105.624C138.617 105.4 138.185 105.288 137.673 105.288C137.129 105.288 136.665 105.4 136.281 105.624C135.929 105.848 135.641 106.36 135.417 107.16C135.225 107.96 135.129 109.208 135.129 110.904ZM144.729 135.24L138.777 135.192L156.873 100.488L162.825 100.536L144.729 135.24ZM154.377 125.592C154.377 123.672 154.585 122.072 155.001 120.792C155.449 119.512 156.073 118.504 156.873 117.768C157.705 117.032 158.713 116.504 159.897 116.184C161.081 115.864 162.425 115.704 163.929 115.704C165.433 115.704 166.777 115.864 167.961 116.184C169.145 116.504 170.137 117.048 170.937 117.816C171.737 118.552 172.329 119.56 172.713 120.84C173.129 122.12 173.337 123.704 173.337 125.592C173.337 127.448 173.129 129 172.713 130.248C172.297 131.496 171.673 132.504 170.841 133.272C170.009 134.04 169.017 134.6 167.865 134.952C166.713 135.272 165.401 135.432 163.929 135.432C162.425 135.432 161.081 135.272 159.897 134.952C158.713 134.6 157.705 134.056 156.873 133.32C156.073 132.552 155.449 131.544 155.001 130.296C154.585 129.016 154.377 127.448 154.377 125.592ZM161.385 125.736C161.385 127.272 161.481 128.424 161.673 129.192C161.865 129.928 162.153 130.424 162.537 130.68C162.921 130.904 163.385 131.016 163.929 131.016C164.473 131.016 164.921 130.904 165.273 130.68C165.657 130.424 165.929 129.928 166.089 129.192C166.281 128.424 166.377 127.272 166.377 125.736C166.377 124.008 166.281 122.744 166.089 121.944C165.897 121.144 165.609 120.648 165.225 120.456C164.873 120.232 164.441 120.12 163.929 120.12C163.385 120.12 162.921 120.232 162.537 120.456C162.185 120.68 161.897 121.192 161.673 121.992C161.481 122.792 161.385 124.04 161.385 125.736Z" fill="#1F8088"/>
<path d="M22.4374 172.24C22.4374 170.467 22.6774 169.033 23.1574 167.94C23.6508 166.847 24.3708 166.053 25.3174 165.56C26.2774 165.053 27.4641 164.8 28.8774 164.8C29.2908 164.8 29.6708 164.813 30.0174 164.84C30.3641 164.853 30.6974 164.887 31.0174 164.94C31.3374 164.98 31.6441 165.033 31.9374 165.1C32.2441 165.167 32.5508 165.247 32.8574 165.34L32.4174 167.14C32.0174 167.033 31.6374 166.953 31.2774 166.9C30.9174 166.833 30.5574 166.787 30.1974 166.76C29.8374 166.733 29.4641 166.72 29.0774 166.72C28.3441 166.72 27.7041 166.813 27.1574 167C26.6108 167.187 26.1574 167.493 25.7974 167.92C25.4374 168.347 25.1641 168.913 24.9774 169.62C24.8041 170.327 24.7174 171.193 24.7174 172.22C24.7174 173.167 24.8041 173.967 24.9774 174.62C25.1508 175.26 25.4108 175.78 25.7574 176.18C26.1174 176.567 26.5574 176.853 27.0774 177.04C27.6108 177.213 28.2308 177.3 28.9374 177.3C29.5641 177.3 30.2174 177.26 30.8974 177.18C31.5774 177.087 32.1974 176.96 32.7574 176.8L33.1574 178.58C32.8508 178.673 32.5241 178.76 32.1774 178.84C31.8441 178.92 31.4841 178.987 31.0974 179.04C30.7241 179.093 30.3308 179.133 29.9174 179.16C29.5041 179.187 29.0641 179.2 28.5974 179.2C27.5974 179.2 26.7108 179.08 25.9374 178.84C25.1774 178.587 24.5374 178.187 24.0174 177.64C23.4974 177.093 23.1041 176.38 22.8374 175.5C22.5708 174.607 22.4374 173.52 22.4374 172.24ZM34.3585 173.6C34.3585 172.667 34.4385 171.853 34.5985 171.16C34.7719 170.467 35.0452 169.893 35.4185 169.44C35.7919 168.973 36.2919 168.62 36.9185 168.38C37.5452 168.14 38.3185 168.02 39.2385 168.02C40.1585 168.02 40.9319 168.14 41.5585 168.38C42.1852 168.62 42.6852 168.973 43.0585 169.44C43.4319 169.893 43.6985 170.467 43.8585 171.16C44.0319 171.853 44.1185 172.667 44.1185 173.6C44.1185 174.547 44.0252 175.373 43.8385 176.08C43.6652 176.787 43.3852 177.373 42.9985 177.84C42.6119 178.293 42.1052 178.633 41.4785 178.86C40.8652 179.087 40.1185 179.2 39.2385 179.2C38.3585 179.2 37.6052 179.087 36.9785 178.86C36.3652 178.633 35.8652 178.293 35.4785 177.84C35.0919 177.373 34.8052 176.787 34.6185 176.08C34.4452 175.373 34.3585 174.547 34.3585 173.6ZM36.5785 173.6C36.5785 174.573 36.6652 175.347 36.8385 175.92C37.0252 176.493 37.3119 176.907 37.6985 177.16C38.0985 177.413 38.6119 177.54 39.2385 177.54C39.8652 177.54 40.3719 177.413 40.7585 177.16C41.1452 176.907 41.4252 176.493 41.5985 175.92C41.7852 175.347 41.8785 174.573 41.8785 173.6C41.8785 172.627 41.7985 171.86 41.6385 171.3C41.4785 170.727 41.1985 170.32 40.7985 170.08C40.4119 169.827 39.8919 169.7 39.2385 169.7C38.5719 169.7 38.0452 169.827 37.6585 170.08C37.2719 170.32 36.9919 170.727 36.8185 171.3C36.6585 171.86 36.5785 172.627 36.5785 173.6ZM46.3518 179V168.22H48.3118V169.16C48.6985 168.92 49.0785 168.72 49.4518 168.56C49.8251 168.4 50.1985 168.28 50.5718 168.2C50.9585 168.107 51.3585 168.06 51.7718 168.06C52.1851 168.06 52.5385 168.107 52.8318 168.2C53.1385 168.293 53.3985 168.433 53.6118 168.62C53.8385 168.793 54.0185 169.007 54.1518 169.26C54.5251 169.02 54.9051 168.813 55.2918 168.64C55.6785 168.453 56.0851 168.307 56.5118 168.2C56.9518 168.08 57.4185 168.02 57.9118 168.02C58.3118 168.02 58.6651 168.073 58.9718 168.18C59.2785 168.287 59.5451 168.433 59.7718 168.62C59.9985 168.807 60.1785 169.027 60.3118 169.28C60.4585 169.52 60.5651 169.793 60.6318 170.1C60.6985 170.393 60.7318 170.7 60.7318 171.02V179H58.5718V171.68C58.5718 171.467 58.5451 171.253 58.4918 171.04C58.4385 170.813 58.3518 170.613 58.2318 170.44C58.1251 170.267 57.9651 170.133 57.7518 170.04C57.5385 169.933 57.2651 169.88 56.9318 169.88C56.6251 169.88 56.3251 169.92 56.0318 170C55.7385 170.067 55.4651 170.16 55.2118 170.28C54.9585 170.4 54.7251 170.52 54.5118 170.64C54.5651 170.8 54.5985 170.953 54.6118 171.1C54.6251 171.247 54.6318 171.393 54.6318 171.54V179H52.4718V171.7C52.4718 171.487 52.4451 171.273 52.3918 171.06C52.3385 170.833 52.2518 170.64 52.1318 170.48C52.0118 170.307 51.8451 170.167 51.6318 170.06C51.4318 169.953 51.1651 169.9 50.8318 169.9C50.5651 169.9 50.2985 169.933 50.0318 170C49.7785 170.067 49.5251 170.153 49.2718 170.26C49.0185 170.367 48.7651 170.5 48.5118 170.66V179H46.3518ZM63.4315 179V168.22H65.3915V169.16C65.7782 168.92 66.1582 168.72 66.5315 168.56C66.9048 168.4 67.2782 168.28 67.6515 168.2C68.0382 168.107 68.4382 168.06 68.8515 168.06C69.2648 168.06 69.6182 168.107 69.9115 168.2C70.2182 168.293 70.4782 168.433 70.6915 168.62C70.9182 168.793 71.0982 169.007 71.2315 169.26C71.6048 169.02 71.9848 168.813 72.3715 168.64C72.7582 168.453 73.1648 168.307 73.5915 168.2C74.0315 168.08 74.4982 168.02 74.9915 168.02C75.3915 168.02 75.7448 168.073 76.0515 168.18C76.3582 168.287 76.6248 168.433 76.8515 168.62C77.0782 168.807 77.2582 169.027 77.3915 169.28C77.5382 169.52 77.6448 169.793 77.7115 170.1C77.7782 170.393 77.8115 170.7 77.8115 171.02V179H75.6515V171.68C75.6515 171.467 75.6248 171.253 75.5715 171.04C75.5182 170.813 75.4315 170.613 75.3115 170.44C75.2048 170.267 75.0448 170.133 74.8315 170.04C74.6182 169.933 74.3448 169.88 74.0115 169.88C73.7048 169.88 73.4048 169.92 73.1115 170C72.8182 170.067 72.5448 170.16 72.2915 170.28C72.0382 170.4 71.8048 170.52 71.5915 170.64C71.6448 170.8 71.6782 170.953 71.6915 171.1C71.7048 171.247 71.7115 171.393 71.7115 171.54V179H69.5515V171.7C69.5515 171.487 69.5248 171.273 69.4715 171.06C69.4182 170.833 69.3315 170.64 69.2115 170.48C69.0915 170.307 68.9248 170.167 68.7115 170.06C68.5115 169.953 68.2448 169.9 67.9115 169.9C67.6448 169.9 67.3782 169.933 67.1115 170C66.8582 170.067 66.6048 170.153 66.3515 170.26C66.0982 170.367 65.8448 170.5 65.5915 170.66V179H63.4315ZM83.5112 179.2C82.8978 179.2 82.3645 179.093 81.9112 178.88C81.4578 178.653 81.1045 178.313 80.8512 177.86C80.6112 177.407 80.4912 176.84 80.4912 176.16V168.22H82.6512V175.7C82.6512 176.233 82.7978 176.647 83.0912 176.94C83.3845 177.233 83.8112 177.38 84.3712 177.38C84.6645 177.38 84.9512 177.347 85.2312 177.28C85.5112 177.213 85.7845 177.127 86.0512 177.02C86.3312 176.9 86.6178 176.76 86.9112 176.6V168.22H89.0712V176.34C89.0712 176.593 89.0978 176.793 89.1512 176.94C89.2178 177.087 89.3045 177.193 89.4112 177.26C89.5178 177.313 89.6312 177.34 89.7512 177.34C89.9245 177.34 90.0912 177.307 90.2512 177.24L90.4712 178.8C90.3378 178.88 90.1845 178.947 90.0112 179C89.8378 179.067 89.6578 179.113 89.4712 179.14C89.2845 179.18 89.0912 179.2 88.8912 179.2C88.4778 179.2 88.1245 179.107 87.8312 178.92C87.5378 178.72 87.3178 178.433 87.1712 178.06C86.7845 178.287 86.3912 178.487 85.9912 178.66C85.6045 178.833 85.2112 178.967 84.8112 179.06C84.4112 179.153 83.9778 179.2 83.5112 179.2ZM92.1026 179V168.22H94.0626V169.16C94.5026 168.92 94.9226 168.72 95.3226 168.56C95.7226 168.387 96.1292 168.253 96.5426 168.16C96.9559 168.067 97.3892 168.02 97.8426 168.02C98.5092 168.02 99.0626 168.14 99.5026 168.38C99.9559 168.62 100.296 168.96 100.523 169.4C100.763 169.84 100.883 170.38 100.883 171.02V179H98.7026V171.68C98.7026 171.08 98.5559 170.627 98.2626 170.32C97.9692 170.013 97.5292 169.86 96.9426 169.86C96.6359 169.86 96.3359 169.893 96.0426 169.96C95.7492 170.027 95.4559 170.12 95.1626 170.24C94.8692 170.347 94.5692 170.48 94.2626 170.64V179H92.1026ZM104.657 166.38C104.19 166.38 103.857 166.293 103.657 166.12C103.457 165.947 103.357 165.653 103.357 165.24C103.357 164.84 103.457 164.553 103.657 164.38C103.857 164.193 104.19 164.1 104.657 164.1C105.123 164.1 105.457 164.193 105.657 164.38C105.857 164.553 105.957 164.84 105.957 165.24C105.957 165.653 105.857 165.947 105.657 166.12C105.457 166.293 105.123 166.38 104.657 166.38ZM103.577 179V168.22H105.737V179H103.577ZM112.21 179.2C111.53 179.2 110.963 179.073 110.51 178.82C110.057 178.567 109.717 178.18 109.49 177.66C109.277 177.127 109.17 176.46 109.17 175.66V169.84H107.41V168.4L109.17 168.22L109.45 165.76H111.33V168.22H114.65V169.84H111.33V175.5C111.33 176.153 111.457 176.627 111.71 176.92C111.963 177.213 112.37 177.36 112.93 177.36C113.21 177.36 113.497 177.333 113.79 177.28C114.097 177.213 114.41 177.14 114.73 177.06L115.03 178.72C114.523 178.893 114.03 179.013 113.55 179.08C113.07 179.16 112.623 179.2 112.21 179.2ZM118.802 183.16L120.142 179H119.722L115.682 168.26L118.042 168.16L121.022 177.14L123.702 168.16L125.942 168.24L121.002 183.26L118.802 183.16ZM133.059 172.24C133.059 170.467 133.299 169.033 133.779 167.94C134.272 166.847 134.992 166.053 135.939 165.56C136.899 165.053 138.085 164.8 139.499 164.8C139.912 164.8 140.292 164.813 140.639 164.84C140.985 164.853 141.319 164.887 141.639 164.94C141.959 164.98 142.265 165.033 142.559 165.1C142.865 165.167 143.172 165.247 143.479 165.34L143.039 167.14C142.639 167.033 142.259 166.953 141.899 166.9C141.539 166.833 141.179 166.787 140.819 166.76C140.459 166.733 140.085 166.72 139.699 166.72C138.965 166.72 138.325 166.813 137.779 167C137.232 167.187 136.779 167.493 136.419 167.92C136.059 168.347 135.785 168.913 135.599 169.62C135.425 170.327 135.339 171.193 135.339 172.22C135.339 173.167 135.425 173.967 135.599 174.62C135.772 175.26 136.032 175.78 136.379 176.18C136.739 176.567 137.179 176.853 137.699 177.04C138.232 177.213 138.852 177.3 139.559 177.3C140.185 177.3 140.839 177.26 141.519 177.18C142.199 177.087 142.819 176.96 143.379 176.8L143.779 178.58C143.472 178.673 143.145 178.76 142.799 178.84C142.465 178.92 142.105 178.987 141.719 179.04C141.345 179.093 140.952 179.133 140.539 179.16C140.125 179.187 139.685 179.2 139.219 179.2C138.219 179.2 137.332 179.08 136.559 178.84C135.799 178.587 135.159 178.187 134.639 177.64C134.119 177.093 133.725 176.38 133.459 175.5C133.192 174.607 133.059 173.52 133.059 172.24ZM146.049 179V165H155.289V166.98H148.329V170.78H154.809V172.74H148.329V177.02H155.649V179H146.049ZM156.833 178.96L161.473 171.82L157.193 165.04L159.853 164.96L162.933 170.1L165.893 164.96L168.373 165.04L164.133 171.76L168.593 178.96L166.013 179.06L162.713 173.56L159.373 179.06L156.833 178.96ZM174.919 179L179.599 164.88H182.199L186.919 179H184.459L183.399 175.7H178.299L177.239 179H174.919ZM178.739 173.84H182.979L180.859 166.86L178.739 173.84ZM189.702 166.38C189.235 166.38 188.902 166.293 188.702 166.12C188.502 165.947 188.402 165.653 188.402 165.24C188.402 164.84 188.502 164.553 188.702 164.38C188.902 164.193 189.235 164.1 189.702 164.1C190.169 164.1 190.502 164.193 190.702 164.38C190.902 164.553 191.002 164.84 191.002 165.24C191.002 165.653 190.902 165.947 190.702 166.12C190.502 166.293 190.169 166.38 189.702 166.38ZM188.622 179V168.22H190.782V179H188.622ZM195.435 168.22V169.54C195.822 169.18 196.182 168.893 196.515 168.68C196.862 168.453 197.209 168.287 197.555 168.18C197.902 168.073 198.269 168.02 198.655 168.02C198.909 168.02 199.162 168.04 199.415 168.08C199.682 168.12 199.929 168.173 200.155 168.24L199.795 170.22C199.555 170.153 199.309 170.107 199.055 170.08C198.815 170.04 198.582 170.02 198.355 170.02C197.929 170.02 197.489 170.107 197.035 170.28C196.595 170.453 196.122 170.747 195.615 171.16V179H193.475V168.22H195.435ZM207.961 179.02L207.701 178.1C207.114 178.473 206.548 178.753 206.001 178.94C205.454 179.113 204.888 179.2 204.301 179.2C203.141 179.2 202.241 178.74 201.601 177.82C200.974 176.9 200.661 175.573 200.661 173.84C200.661 172.507 200.834 171.413 201.181 170.56C201.541 169.707 202.088 169.073 202.821 168.66C203.568 168.233 204.494 168.02 205.601 168.02C205.921 168.02 206.261 168.04 206.621 168.08C206.981 168.107 207.334 168.153 207.681 168.22V164.2H209.861V179.02H207.961ZM207.681 176.52V169.9C207.308 169.807 206.961 169.74 206.641 169.7C206.334 169.66 206.048 169.64 205.781 169.64C205.128 169.64 204.588 169.773 204.161 170.04C203.734 170.293 203.421 170.713 203.221 171.3C203.021 171.887 202.921 172.673 202.921 173.66C202.921 174.487 203.008 175.18 203.181 175.74C203.354 176.287 203.601 176.7 203.921 176.98C204.254 177.247 204.654 177.38 205.121 177.38C205.388 177.38 205.654 177.353 205.921 177.3C206.201 177.233 206.481 177.14 206.761 177.02C207.041 176.887 207.348 176.72 207.681 176.52ZM214.516 168.22V169.54C214.903 169.18 215.263 168.893 215.596 168.68C215.943 168.453 216.29 168.287 216.636 168.18C216.983 168.073 217.35 168.02 217.736 168.02C217.99 168.02 218.243 168.04 218.496 168.08C218.763 168.12 219.01 168.173 219.236 168.24L218.876 170.22C218.636 170.153 218.39 170.107 218.136 170.08C217.896 170.04 217.663 170.02 217.436 170.02C217.01 170.02 216.57 170.107 216.116 170.28C215.676 170.453 215.203 170.747 214.696 171.16V179H212.556V168.22H214.516ZM219.742 173.6C219.742 172.667 219.822 171.853 219.982 171.16C220.155 170.467 220.429 169.893 220.802 169.44C221.175 168.973 221.675 168.62 222.302 168.38C222.929 168.14 223.702 168.02 224.622 168.02C225.542 168.02 226.315 168.14 226.942 168.38C227.569 168.62 228.069 168.973 228.442 169.44C228.815 169.893 229.082 170.467 229.242 171.16C229.415 171.853 229.502 172.667 229.502 173.6C229.502 174.547 229.409 175.373 229.222 176.08C229.049 176.787 228.769 177.373 228.382 177.84C227.995 178.293 227.489 178.633 226.862 178.86C226.249 179.087 225.502 179.2 224.622 179.2C223.742 179.2 222.989 179.087 222.362 178.86C221.749 178.633 221.249 178.293 220.862 177.84C220.475 177.373 220.189 176.787 220.002 176.08C219.829 175.373 219.742 174.547 219.742 173.6ZM221.962 173.6C221.962 174.573 222.049 175.347 222.222 175.92C222.409 176.493 222.695 176.907 223.082 177.16C223.482 177.413 223.995 177.54 224.622 177.54C225.249 177.54 225.755 177.413 226.142 177.16C226.529 176.907 226.809 176.493 226.982 175.92C227.169 175.347 227.262 174.573 227.262 173.6C227.262 172.627 227.182 171.86 227.022 171.3C226.862 170.727 226.582 170.32 226.182 170.08C225.795 169.827 225.275 169.7 224.622 169.7C223.955 169.7 223.429 169.827 223.042 170.08C222.655 170.32 222.375 170.727 222.202 171.3C222.042 171.86 221.962 172.627 221.962 173.6ZM231.735 183.2V168.16H233.695L233.755 169.2C234.369 168.8 234.962 168.507 235.535 168.32C236.109 168.12 236.689 168.02 237.275 168.02C238.449 168.02 239.349 168.487 239.975 169.42C240.602 170.34 240.915 171.66 240.915 173.38C240.915 174.7 240.735 175.793 240.375 176.66C240.015 177.527 239.469 178.167 238.735 178.58C238.002 178.993 237.075 179.2 235.955 179.2C235.649 179.2 235.322 179.18 234.975 179.14C234.642 179.1 234.282 179.047 233.895 178.98V183.2H231.735ZM235.795 177.6C236.462 177.6 237.002 177.473 237.415 177.22C237.842 176.953 238.155 176.527 238.355 175.94C238.569 175.34 238.675 174.553 238.675 173.58C238.675 172.727 238.589 172.027 238.415 171.48C238.242 170.92 237.989 170.507 237.655 170.24C237.335 169.96 236.935 169.82 236.455 169.82C236.189 169.82 235.915 169.853 235.635 169.92C235.369 169.973 235.095 170.067 234.815 170.2C234.535 170.32 234.229 170.487 233.895 170.7V177.34C234.269 177.42 234.609 177.487 234.915 177.54C235.222 177.58 235.515 177.6 235.795 177.6Z" fill="black"/>
<path d="M78 196.5L80.0365 202.464L86 204.5L80.0365 206.536L78 212.5L75.9635 206.536L70 204.5L75.9635 202.464L78 196.5Z" fill="url(#paint0_radial_257_2414)"/>
<path d="M95.2983 210.16C94.3489 210.16 93.5383 209.968 92.8663 209.584C92.2049 209.2 91.6983 208.608 91.3463 207.808C91.0049 206.997 90.8343 205.957 90.8343 204.688C90.8343 203.323 91.0156 202.192 91.3783 201.296C91.7516 200.4 92.3009 199.733 93.0263 199.296C93.7623 198.859 94.6689 198.64 95.7463 198.64C96.1836 198.64 96.6049 198.661 97.0103 198.704C97.4263 198.747 97.8156 198.816 98.1783 198.912C98.5409 198.997 98.8769 199.104 99.1863 199.232L98.7703 200.624C98.4396 200.528 98.1249 200.443 97.8263 200.368C97.5276 200.293 97.2236 200.235 96.9143 200.192C96.6156 200.149 96.3063 200.128 95.9863 200.128C95.1756 200.128 94.5249 200.288 94.0343 200.608C93.5436 200.928 93.1863 201.413 92.9623 202.064C92.7489 202.715 92.6423 203.536 92.6423 204.528C92.6423 205.307 92.7063 205.968 92.8343 206.512C92.9623 207.056 93.1436 207.493 93.3783 207.824C93.6236 208.155 93.9116 208.389 94.2423 208.528C94.5836 208.667 94.9676 208.736 95.3943 208.736C96.1409 208.736 96.7223 208.544 97.1383 208.16C97.5543 207.765 97.7623 207.2 97.7623 206.464C97.7623 206.016 97.6609 205.637 97.4583 205.328C97.2663 205.008 96.9943 204.773 96.6423 204.624C96.3009 204.464 95.8849 204.384 95.3943 204.384C95.0209 204.384 94.6583 204.437 94.3063 204.544C93.9543 204.651 93.6236 204.805 93.3143 205.008C93.0156 205.211 92.7436 205.44 92.4983 205.696L92.4183 204.384C92.6743 204.107 92.9889 203.872 93.3623 203.68C93.7356 203.477 94.1409 203.323 94.5783 203.216C95.0263 203.099 95.4903 203.04 95.9703 203.04C96.7169 203.04 97.3463 203.173 97.8583 203.44C98.3809 203.707 98.7756 204.091 99.0423 204.592C99.3089 205.093 99.4423 205.701 99.4423 206.416C99.4423 207.621 99.0903 208.549 98.3863 209.2C97.6823 209.84 96.6529 210.16 95.2983 210.16ZM101.192 208.944L102.792 208.864C102.856 209.035 102.904 209.221 102.936 209.424C102.968 209.616 102.984 209.824 102.984 210.048C102.984 210.411 102.936 210.773 102.84 211.136C102.744 211.509 102.589 211.861 102.376 212.192C102.162 212.533 101.89 212.843 101.56 213.12L100.296 212.768C100.658 212.416 100.925 211.995 101.096 211.504C101.266 211.013 101.352 210.533 101.352 210.064C101.352 209.915 101.341 209.744 101.32 209.552C101.298 209.36 101.256 209.157 101.192 208.944ZM104.379 204.4C104.379 203.291 104.485 202.368 104.699 201.632C104.912 200.885 105.216 200.293 105.611 199.856C106.005 199.419 106.469 199.109 107.003 198.928C107.547 198.736 108.149 198.64 108.811 198.64C109.483 198.64 110.091 198.736 110.635 198.928C111.179 199.109 111.643 199.424 112.027 199.872C112.421 200.309 112.72 200.896 112.923 201.632C113.136 202.368 113.243 203.291 113.243 204.4C113.243 205.499 113.131 206.421 112.907 207.168C112.693 207.904 112.389 208.491 111.995 208.928C111.611 209.365 111.147 209.68 110.603 209.872C110.059 210.064 109.461 210.16 108.811 210.16C108.149 210.16 107.547 210.069 107.003 209.888C106.469 209.696 106.005 209.381 105.611 208.944C105.227 208.496 104.923 207.904 104.699 207.168C104.485 206.421 104.379 205.499 104.379 204.4ZM106.155 204.448C106.155 205.323 106.219 206.043 106.347 206.608C106.485 207.173 106.672 207.616 106.907 207.936C107.152 208.245 107.435 208.464 107.755 208.592C108.085 208.72 108.437 208.784 108.811 208.784C109.184 208.784 109.531 208.72 109.851 208.592C110.181 208.464 110.464 208.245 110.699 207.936C110.944 207.616 111.131 207.173 111.259 206.608C111.397 206.043 111.467 205.323 111.467 204.448C111.467 203.541 111.397 202.8 111.259 202.224C111.131 201.637 110.944 201.189 110.699 200.88C110.453 200.56 110.171 200.336 109.851 200.208C109.531 200.08 109.184 200.016 108.811 200.016C108.437 200.016 108.091 200.08 107.771 200.208C107.451 200.336 107.168 200.56 106.923 200.88C106.677 201.189 106.485 201.637 106.347 202.224C106.219 202.8 106.155 203.541 106.155 204.448ZM114.464 204.4C114.464 203.291 114.571 202.368 114.784 201.632C114.998 200.885 115.302 200.293 115.696 199.856C116.091 199.419 116.555 199.109 117.088 198.928C117.632 198.736 118.235 198.64 118.896 198.64C119.568 198.64 120.176 198.736 120.72 198.928C121.264 199.109 121.728 199.424 122.112 199.872C122.507 200.309 122.806 200.896 123.008 201.632C123.222 202.368 123.328 203.291 123.328 204.4C123.328 205.499 123.216 206.421 122.992 207.168C122.779 207.904 122.475 208.491 122.08 208.928C121.696 209.365 121.232 209.68 120.688 209.872C120.144 210.064 119.547 210.16 118.896 210.16C118.235 210.16 117.632 210.069 117.088 209.888C116.555 209.696 116.091 209.381 115.696 208.944C115.312 208.496 115.008 207.904 114.784 207.168C114.571 206.421 114.464 205.499 114.464 204.4ZM116.24 204.448C116.24 205.323 116.304 206.043 116.432 206.608C116.571 207.173 116.758 207.616 116.992 207.936C117.238 208.245 117.52 208.464 117.84 208.592C118.171 208.72 118.523 208.784 118.896 208.784C119.27 208.784 119.616 208.72 119.936 208.592C120.267 208.464 120.55 208.245 120.784 207.936C121.03 207.616 121.216 207.173 121.344 206.608C121.483 206.043 121.552 205.323 121.552 204.448C121.552 203.541 121.483 202.8 121.344 202.224C121.216 201.637 121.03 201.189 120.784 200.88C120.539 200.56 120.256 200.336 119.936 200.208C119.616 200.08 119.27 200.016 118.896 200.016C118.523 200.016 118.176 200.08 117.856 200.208C117.536 200.336 117.254 200.56 117.008 200.88C116.763 201.189 116.571 201.637 116.432 202.224C116.304 202.8 116.24 203.541 116.24 204.448ZM124.982 208.8C125.878 208.011 126.635 207.333 127.254 206.768C127.883 206.192 128.395 205.691 128.79 205.264C129.195 204.837 129.505 204.459 129.718 204.128C129.942 203.797 130.097 203.493 130.182 203.216C130.267 202.928 130.31 202.635 130.31 202.336C130.31 201.899 130.225 201.536 130.054 201.248C129.883 200.96 129.643 200.741 129.334 200.592C129.025 200.443 128.641 200.368 128.182 200.368C127.777 200.368 127.355 200.432 126.918 200.56C126.481 200.688 126.043 200.88 125.606 201.136L125.046 199.664C125.377 199.44 125.734 199.253 126.118 199.104C126.502 198.955 126.902 198.843 127.318 198.768C127.745 198.683 128.166 198.64 128.582 198.64C129.35 198.64 130.001 198.779 130.534 199.056C131.078 199.333 131.489 199.728 131.766 200.24C132.054 200.741 132.198 201.328 132.198 202C132.198 202.341 132.166 202.667 132.102 202.976C132.038 203.285 131.91 203.611 131.718 203.952C131.537 204.293 131.27 204.683 130.918 205.12C130.577 205.547 130.118 206.043 129.542 206.608C128.977 207.163 128.278 207.813 127.446 208.56H133.126V210H125.03L124.982 208.8ZM139.86 210V198.768H141.556L146.948 207.2V198.8H148.548V210.032H146.852L141.476 201.68V210H139.86ZM150.977 210V198.8H158.337V200.416H152.785V204.112H157.601V205.664H152.801V210H150.977ZM167.9 200.384H164.508V210H162.716V200.384H159.324V198.8H167.9V200.384ZM169.96 203.12L168.648 202.976C168.893 202.421 169.074 201.883 169.192 201.36C169.309 200.837 169.368 200.261 169.368 199.632C169.368 199.493 169.362 199.355 169.352 199.216C169.352 199.077 169.346 198.939 169.336 198.8H170.888C170.898 198.896 170.904 198.992 170.904 199.088C170.904 199.184 170.904 199.28 170.904 199.376C170.904 200.165 170.829 200.853 170.68 201.44C170.53 202.016 170.29 202.576 169.96 203.12ZM171.811 209.664L172.035 208.368C172.217 208.432 172.425 208.496 172.659 208.56C172.894 208.613 173.134 208.661 173.379 208.704C173.635 208.747 173.891 208.779 174.147 208.8C174.403 208.821 174.649 208.832 174.883 208.832C175.47 208.832 175.902 208.736 176.179 208.544C176.467 208.352 176.611 208.075 176.611 207.712C176.611 207.509 176.563 207.339 176.467 207.2C176.382 207.061 176.243 206.939 176.051 206.832C175.859 206.715 175.625 206.613 175.347 206.528C175.07 206.432 174.745 206.341 174.371 206.256C173.998 206.16 173.667 206.043 173.379 205.904C173.091 205.765 172.841 205.595 172.627 205.392C172.425 205.189 172.27 204.96 172.163 204.704C172.067 204.437 172.019 204.133 172.019 203.792C172.019 202.971 172.297 202.336 172.851 201.888C173.417 201.44 174.243 201.216 175.331 201.216C175.662 201.216 175.977 201.237 176.275 201.28C176.574 201.312 176.857 201.36 177.123 201.424C177.401 201.477 177.651 201.547 177.875 201.632L177.635 202.944C177.411 202.88 177.182 202.821 176.947 202.768C176.723 202.715 176.478 202.672 176.211 202.64C175.945 202.608 175.651 202.592 175.331 202.592C174.787 202.592 174.377 202.683 174.099 202.864C173.833 203.045 173.699 203.307 173.699 203.648C173.699 203.851 173.742 204.016 173.827 204.144C173.923 204.272 174.057 204.384 174.227 204.48C174.409 204.565 174.622 204.651 174.867 204.736C175.113 204.811 175.39 204.885 175.699 204.96C176.094 205.056 176.451 205.173 176.771 205.312C177.102 205.44 177.379 205.6 177.603 205.792C177.838 205.984 178.019 206.224 178.147 206.512C178.275 206.789 178.339 207.136 178.339 207.552C178.339 207.915 178.281 208.245 178.163 208.544C178.046 208.832 177.881 209.077 177.667 209.28C177.465 209.483 177.219 209.648 176.931 209.776C176.643 209.904 176.323 210 175.971 210.064C175.619 210.128 175.246 210.16 174.851 210.16C174.478 210.16 174.115 210.139 173.763 210.096C173.411 210.064 173.07 210.011 172.739 209.936C172.409 209.861 172.099 209.771 171.811 209.664Z" fill="#FFFF14"/>
<path d="M191 196.5L193.036 202.464L199 204.5L193.036 206.536L191 212.5L188.964 206.536L183 204.5L188.964 202.464L191 196.5Z" fill="url(#paint1_radial_257_2414)"/>
<path d="M50.8444 239V227.8H58.2044V229.416H52.6524V233.112H57.4684V234.664H52.6684V239H50.8444ZM58.9337 234.68C58.9337 233.933 58.9977 233.283 59.1257 232.728C59.2644 232.173 59.483 231.715 59.7817 231.352C60.0804 230.979 60.4804 230.696 60.9817 230.504C61.483 230.312 62.1017 230.216 62.8377 230.216C63.5737 230.216 64.1924 230.312 64.6937 230.504C65.195 230.696 65.595 230.979 65.8937 231.352C66.1924 231.715 66.4057 232.173 66.5337 232.728C66.6724 233.283 66.7417 233.933 66.7417 234.68C66.7417 235.437 66.667 236.099 66.5177 236.664C66.379 237.229 66.155 237.699 65.8457 238.072C65.5364 238.435 65.131 238.707 64.6297 238.888C64.139 239.069 63.5417 239.16 62.8377 239.16C62.1337 239.16 61.531 239.069 61.0297 238.888C60.539 238.707 60.139 238.435 59.8297 238.072C59.5204 237.699 59.291 237.229 59.1417 236.664C59.003 236.099 58.9337 235.437 58.9337 234.68ZM60.7097 234.68C60.7097 235.459 60.779 236.077 60.9177 236.536C61.067 236.995 61.2964 237.325 61.6057 237.528C61.9257 237.731 62.3364 237.832 62.8377 237.832C63.339 237.832 63.7444 237.731 64.0537 237.528C64.363 237.325 64.587 236.995 64.7257 236.536C64.875 236.077 64.9497 235.459 64.9497 234.68C64.9497 233.901 64.8857 233.288 64.7577 232.84C64.6297 232.381 64.4057 232.056 64.0857 231.864C63.7764 231.661 63.3604 231.56 62.8377 231.56C62.3044 231.56 61.883 231.661 61.5737 231.864C61.2644 232.056 61.0404 232.381 60.9017 232.84C60.7737 233.288 60.7097 233.901 60.7097 234.68ZM70.0963 230.376V231.432C70.4056 231.144 70.6936 230.915 70.9603 230.744C71.2376 230.563 71.515 230.429 71.7923 230.344C72.0696 230.259 72.363 230.216 72.6723 230.216C72.875 230.216 73.0776 230.232 73.2803 230.264C73.4936 230.296 73.691 230.339 73.8723 230.392L73.5843 231.976C73.3923 231.923 73.195 231.885 72.9923 231.864C72.8003 231.832 72.6136 231.816 72.4323 231.816C72.091 231.816 71.739 231.885 71.3763 232.024C71.0243 232.163 70.6456 232.397 70.2403 232.728V239H68.5283V230.376H70.0963ZM79.8901 239V227.8H81.7301L85.0421 233.4L88.3541 227.8H90.1301V239H88.4821V230.504L85.4101 235.624H84.5621L81.5221 230.536V239H79.8901ZM95.8673 239.16C95.238 239.16 94.6833 239.08 94.2033 238.92C93.734 238.749 93.3286 238.493 92.9873 238.152C92.6566 237.811 92.406 237.373 92.2353 236.84C92.0646 236.296 91.9793 235.656 91.9793 234.92C91.9793 234.056 92.0806 233.325 92.2833 232.728C92.4966 232.12 92.7846 231.635 93.1473 231.272C93.5206 230.899 93.9526 230.632 94.4433 230.472C94.9446 230.301 95.4886 230.216 96.0753 230.216C97.2273 230.216 98.0753 230.515 98.6193 231.112C99.174 231.709 99.4513 232.68 99.4513 234.024C99.4513 234.099 99.446 234.205 99.4353 234.344C99.4353 234.472 99.4353 234.6 99.4353 234.728C99.19 234.749 98.8753 234.776 98.4913 234.808C98.118 234.84 97.686 234.872 97.1953 234.904C96.7046 234.936 96.1713 234.963 95.5953 234.984C95.0193 235.005 94.4166 235.021 93.7873 235.032C93.7766 235.075 93.7713 235.123 93.7713 235.176C93.7713 235.219 93.7713 235.267 93.7713 235.32C93.7713 235.907 93.862 236.381 94.0433 236.744C94.2246 237.096 94.4913 237.357 94.8433 237.528C95.1953 237.688 95.638 237.768 96.1713 237.768C96.4913 237.768 96.822 237.752 97.1633 237.72C97.5153 237.677 97.8566 237.629 98.1873 237.576C98.518 237.512 98.8326 237.443 99.1313 237.368L99.3553 238.664C99.0353 238.76 98.6886 238.851 98.3153 238.936C97.9526 239.011 97.5686 239.064 97.1633 239.096C96.758 239.139 96.326 239.16 95.8673 239.16ZM93.8033 233.864C94.2513 233.864 94.678 233.859 95.0833 233.848C95.4993 233.827 95.8833 233.805 96.2353 233.784C96.5873 233.763 96.886 233.747 97.1313 233.736C97.3873 233.715 97.5793 233.699 97.7073 233.688C97.6966 233.155 97.6273 232.728 97.4993 232.408C97.3713 232.088 97.1793 231.859 96.9233 231.72C96.6673 231.571 96.342 231.496 95.9473 231.496C95.702 231.496 95.462 231.533 95.2273 231.608C94.9926 231.672 94.774 231.795 94.5713 231.976C94.3793 232.147 94.214 232.387 94.0753 232.696C93.9366 232.995 93.846 233.384 93.8033 233.864ZM104.192 239.16C103.648 239.16 103.194 239.059 102.832 238.856C102.469 238.653 102.197 238.344 102.016 237.928C101.845 237.501 101.76 236.968 101.76 236.328V231.672H100.352V230.52L101.76 230.376L101.984 228.408H103.488V230.376H106.144V231.672H103.488V236.2C103.488 236.723 103.589 237.101 103.792 237.336C103.994 237.571 104.32 237.688 104.768 237.688C104.992 237.688 105.221 237.667 105.456 237.624C105.701 237.571 105.952 237.512 106.208 237.448L106.448 238.776C106.042 238.915 105.648 239.011 105.264 239.064C104.88 239.128 104.522 239.16 104.192 239.16ZM107.213 234.68C107.213 233.933 107.277 233.283 107.405 232.728C107.544 232.173 107.762 231.715 108.061 231.352C108.36 230.979 108.76 230.696 109.261 230.504C109.762 230.312 110.381 230.216 111.117 230.216C111.853 230.216 112.472 230.312 112.973 230.504C113.474 230.696 113.874 230.979 114.173 231.352C114.472 231.715 114.685 232.173 114.813 232.728C114.952 233.283 115.021 233.933 115.021 234.68C115.021 235.437 114.946 236.099 114.797 236.664C114.658 237.229 114.434 237.699 114.125 238.072C113.816 238.435 113.41 238.707 112.909 238.888C112.418 239.069 111.821 239.16 111.117 239.16C110.413 239.16 109.81 239.069 109.309 238.888C108.818 238.707 108.418 238.435 108.109 238.072C107.8 237.699 107.57 237.229 107.421 236.664C107.282 236.099 107.213 235.437 107.213 234.68ZM108.989 234.68C108.989 235.459 109.058 236.077 109.197 236.536C109.346 236.995 109.576 237.325 109.885 237.528C110.205 237.731 110.616 237.832 111.117 237.832C111.618 237.832 112.024 237.731 112.333 237.528C112.642 237.325 112.866 236.995 113.005 236.536C113.154 236.077 113.229 235.459 113.229 234.68C113.229 233.901 113.165 233.288 113.037 232.84C112.909 232.381 112.685 232.056 112.365 231.864C112.056 231.661 111.64 231.56 111.117 231.56C110.584 231.56 110.162 231.661 109.853 231.864C109.544 232.056 109.32 232.381 109.181 232.84C109.053 233.288 108.989 233.901 108.989 234.68ZM116.138 238.664L116.362 237.368C116.543 237.432 116.751 237.496 116.986 237.56C117.221 237.613 117.461 237.661 117.706 237.704C117.962 237.747 118.218 237.779 118.474 237.8C118.73 237.821 118.975 237.832 119.21 237.832C119.797 237.832 120.229 237.736 120.506 237.544C120.794 237.352 120.938 237.075 120.938 236.712C120.938 236.509 120.89 236.339 120.794 236.2C120.709 236.061 120.57 235.939 120.378 235.832C120.186 235.715 119.951 235.613 119.674 235.528C119.397 235.432 119.071 235.341 118.698 235.256C118.325 235.16 117.994 235.043 117.706 234.904C117.418 234.765 117.167 234.595 116.954 234.392C116.751 234.189 116.597 233.96 116.49 233.704C116.394 233.437 116.346 233.133 116.346 232.792C116.346 231.971 116.623 231.336 117.178 230.888C117.743 230.44 118.57 230.216 119.658 230.216C119.989 230.216 120.303 230.237 120.602 230.28C120.901 230.312 121.183 230.36 121.45 230.424C121.727 230.477 121.978 230.547 122.202 230.632L121.962 231.944C121.738 231.88 121.509 231.821 121.274 231.768C121.05 231.715 120.805 231.672 120.538 231.64C120.271 231.608 119.978 231.592 119.658 231.592C119.114 231.592 118.703 231.683 118.426 231.864C118.159 232.045 118.026 232.307 118.026 232.648C118.026 232.851 118.069 233.016 118.154 233.144C118.25 233.272 118.383 233.384 118.554 233.48C118.735 233.565 118.949 233.651 119.194 233.736C119.439 233.811 119.717 233.885 120.026 233.96C120.421 234.056 120.778 234.173 121.098 234.312C121.429 234.44 121.706 234.6 121.93 234.792C122.165 234.984 122.346 235.224 122.474 235.512C122.602 235.789 122.666 236.136 122.666 236.552C122.666 236.915 122.607 237.245 122.49 237.544C122.373 237.832 122.207 238.077 121.994 238.28C121.791 238.483 121.546 238.648 121.258 238.776C120.97 238.904 120.65 239 120.298 239.064C119.946 239.128 119.573 239.16 119.178 239.16C118.805 239.16 118.442 239.139 118.09 239.096C117.738 239.064 117.397 239.011 117.066 238.936C116.735 238.861 116.426 238.771 116.138 238.664ZM124.252 239V227.16H126.012V231.096C126.332 230.904 126.642 230.744 126.94 230.616C127.239 230.488 127.543 230.392 127.852 230.328C128.172 230.253 128.508 230.216 128.86 230.216C129.383 230.216 129.826 230.312 130.188 230.504C130.551 230.685 130.823 230.957 131.004 231.32C131.196 231.672 131.292 232.109 131.292 232.632V239H129.548V233.144C129.548 232.664 129.431 232.307 129.196 232.072C128.962 231.827 128.61 231.704 128.14 231.704C127.895 231.704 127.65 231.731 127.404 231.784C127.17 231.837 126.94 231.912 126.716 232.008C126.492 232.093 126.258 232.2 126.012 232.328V239H124.252ZM134.312 228.904C133.938 228.904 133.672 228.835 133.512 228.696C133.352 228.557 133.272 228.323 133.272 227.992C133.272 227.672 133.352 227.443 133.512 227.304C133.672 227.155 133.938 227.08 134.312 227.08C134.685 227.08 134.952 227.155 135.112 227.304C135.272 227.443 135.352 227.672 135.352 227.992C135.352 228.323 135.272 228.557 135.112 228.696C134.952 228.835 134.685 228.904 134.312 228.904ZM133.448 239V230.376H135.176V239H133.448ZM141.627 233.592C141.627 232.173 141.819 231.027 142.203 230.152C142.598 229.277 143.174 228.643 143.931 228.248C144.699 227.843 145.649 227.64 146.779 227.64C147.11 227.64 147.414 227.651 147.691 227.672C147.969 227.683 148.235 227.709 148.491 227.752C148.747 227.784 148.993 227.827 149.227 227.88C149.473 227.933 149.718 227.997 149.963 228.072L149.611 229.512C149.291 229.427 148.987 229.363 148.699 229.32C148.411 229.267 148.123 229.229 147.835 229.208C147.547 229.187 147.249 229.176 146.939 229.176C146.353 229.176 145.841 229.251 145.403 229.4C144.966 229.549 144.603 229.795 144.315 230.136C144.027 230.477 143.809 230.931 143.659 231.496C143.521 232.061 143.451 232.755 143.451 233.576C143.451 234.333 143.521 234.973 143.659 235.496C143.798 236.008 144.006 236.424 144.283 236.744C144.571 237.053 144.923 237.283 145.339 237.432C145.766 237.571 146.262 237.64 146.827 237.64C147.329 237.64 147.851 237.608 148.395 237.544C148.939 237.469 149.435 237.368 149.883 237.24L150.203 238.664C149.958 238.739 149.697 238.808 149.419 238.872C149.153 238.936 148.865 238.989 148.555 239.032C148.257 239.075 147.942 239.107 147.611 239.128C147.281 239.149 146.929 239.16 146.555 239.16C145.755 239.16 145.046 239.064 144.427 238.872C143.819 238.669 143.307 238.349 142.891 237.912C142.475 237.475 142.161 236.904 141.947 236.2C141.734 235.485 141.627 234.616 141.627 233.592ZM152.02 239V227.8H159.412V229.384H153.844V232.424H159.028V233.992H153.844V237.416H159.7V239H152.02ZM160.647 238.968L164.359 233.256L160.935 227.832L163.063 227.768L165.527 231.88L167.895 227.768L169.879 227.832L166.487 233.208L170.055 238.968L167.991 239.048L165.351 234.648L162.679 239.048L160.647 238.968ZM178.455 239.16C177.965 239.16 177.538 239.075 177.175 238.904C176.813 238.723 176.53 238.451 176.327 238.088C176.135 237.725 176.039 237.272 176.039 236.728V230.376H177.767V236.36C177.767 236.787 177.885 237.117 178.119 237.352C178.354 237.587 178.695 237.704 179.143 237.704C179.378 237.704 179.607 237.677 179.831 237.624C180.055 237.571 180.274 237.501 180.487 237.416C180.711 237.32 180.941 237.208 181.175 237.08V230.376H182.903V236.872C182.903 237.075 182.925 237.235 182.967 237.352C183.021 237.469 183.09 237.555 183.175 237.608C183.261 237.651 183.351 237.672 183.447 237.672C183.586 237.672 183.719 237.645 183.847 237.592L184.023 238.84C183.917 238.904 183.794 238.957 183.655 239C183.517 239.053 183.373 239.091 183.223 239.112C183.074 239.144 182.919 239.16 182.759 239.16C182.429 239.16 182.146 239.085 181.911 238.936C181.677 238.776 181.501 238.547 181.383 238.248C181.074 238.429 180.759 238.589 180.439 238.728C180.13 238.867 179.815 238.973 179.495 239.048C179.175 239.123 178.829 239.16 178.455 239.16ZM184.83 238.664L185.054 237.368C185.236 237.432 185.444 237.496 185.678 237.56C185.913 237.613 186.153 237.661 186.398 237.704C186.654 237.747 186.91 237.779 187.166 237.8C187.422 237.821 187.668 237.832 187.902 237.832C188.489 237.832 188.921 237.736 189.198 237.544C189.486 237.352 189.63 237.075 189.63 236.712C189.63 236.509 189.582 236.339 189.486 236.2C189.401 236.061 189.262 235.939 189.07 235.832C188.878 235.715 188.644 235.613 188.366 235.528C188.089 235.432 187.764 235.341 187.39 235.256C187.017 235.16 186.686 235.043 186.398 234.904C186.11 234.765 185.86 234.595 185.646 234.392C185.444 234.189 185.289 233.96 185.182 233.704C185.086 233.437 185.038 233.133 185.038 232.792C185.038 231.971 185.316 231.336 185.87 230.888C186.436 230.44 187.262 230.216 188.35 230.216C188.681 230.216 188.996 230.237 189.294 230.28C189.593 230.312 189.876 230.36 190.142 230.424C190.42 230.477 190.67 230.547 190.894 230.632L190.654 231.944C190.43 231.88 190.201 231.821 189.966 231.768C189.742 231.715 189.497 231.672 189.23 231.64C188.964 231.608 188.67 231.592 188.35 231.592C187.806 231.592 187.396 231.683 187.118 231.864C186.852 232.045 186.718 232.307 186.718 232.648C186.718 232.851 186.761 233.016 186.846 233.144C186.942 233.272 187.076 233.384 187.246 233.48C187.428 233.565 187.641 233.651 187.886 233.736C188.132 233.811 188.409 233.885 188.718 233.96C189.113 234.056 189.47 234.173 189.79 234.312C190.121 234.44 190.398 234.6 190.622 234.792C190.857 234.984 191.038 235.224 191.166 235.512C191.294 235.789 191.358 236.136 191.358 236.552C191.358 236.915 191.3 237.245 191.182 237.544C191.065 237.832 190.9 238.077 190.686 238.28C190.484 238.483 190.238 238.648 189.95 238.776C189.662 238.904 189.342 239 188.99 239.064C188.638 239.128 188.265 239.16 187.87 239.16C187.497 239.16 187.134 239.139 186.782 239.096C186.43 239.064 186.089 239.011 185.758 238.936C185.428 238.861 185.118 238.771 184.83 238.664ZM196.434 239.16C195.804 239.16 195.25 239.08 194.77 238.92C194.3 238.749 193.895 238.493 193.554 238.152C193.223 237.811 192.972 237.373 192.802 236.84C192.631 236.296 192.546 235.656 192.546 234.92C192.546 234.056 192.647 233.325 192.85 232.728C193.063 232.12 193.351 231.635 193.714 231.272C194.087 230.899 194.519 230.632 195.01 230.472C195.511 230.301 196.055 230.216 196.642 230.216C197.794 230.216 198.642 230.515 199.186 231.112C199.74 231.709 200.018 232.68 200.018 234.024C200.018 234.099 200.012 234.205 200.002 234.344C200.002 234.472 200.002 234.6 200.002 234.728C199.756 234.749 199.442 234.776 199.058 234.808C198.684 234.84 198.252 234.872 197.762 234.904C197.271 234.936 196.738 234.963 196.162 234.984C195.586 235.005 194.983 235.021 194.354 235.032C194.343 235.075 194.338 235.123 194.338 235.176C194.338 235.219 194.338 235.267 194.338 235.32C194.338 235.907 194.428 236.381 194.61 236.744C194.791 237.096 195.058 237.357 195.41 237.528C195.762 237.688 196.204 237.768 196.738 237.768C197.058 237.768 197.388 237.752 197.73 237.72C198.082 237.677 198.423 237.629 198.754 237.576C199.084 237.512 199.399 237.443 199.698 237.368L199.922 238.664C199.602 238.76 199.255 238.851 198.882 238.936C198.519 239.011 198.135 239.064 197.73 239.096C197.324 239.139 196.892 239.16 196.434 239.16ZM194.37 233.864C194.818 233.864 195.244 233.859 195.65 233.848C196.066 233.827 196.45 233.805 196.802 233.784C197.154 233.763 197.452 233.747 197.698 233.736C197.954 233.715 198.146 233.699 198.274 233.688C198.263 233.155 198.194 232.728 198.066 232.408C197.938 232.088 197.746 231.859 197.49 231.72C197.234 231.571 196.908 231.496 196.514 231.496C196.268 231.496 196.028 231.533 195.794 231.608C195.559 231.672 195.34 231.795 195.138 231.976C194.946 232.147 194.78 232.387 194.642 232.696C194.503 232.995 194.412 233.384 194.37 233.864ZM203.364 230.376V231.432C203.674 231.144 203.962 230.915 204.228 230.744C204.506 230.563 204.783 230.429 205.06 230.344C205.338 230.259 205.631 230.216 205.94 230.216C206.143 230.216 206.346 230.232 206.548 230.264C206.762 230.296 206.959 230.339 207.14 230.392L206.852 231.976C206.66 231.923 206.463 231.885 206.26 231.864C206.068 231.832 205.882 231.816 205.7 231.816C205.359 231.816 205.007 231.885 204.644 232.024C204.292 232.163 203.914 232.397 203.508 232.728V239H201.796V230.376H203.364ZM207.728 238.664L207.952 237.368C208.133 237.432 208.341 237.496 208.576 237.56C208.811 237.613 209.051 237.661 209.296 237.704C209.552 237.747 209.808 237.779 210.064 237.8C210.32 237.821 210.565 237.832 210.8 237.832C211.387 237.832 211.819 237.736 212.096 237.544C212.384 237.352 212.528 237.075 212.528 236.712C212.528 236.509 212.48 236.339 212.384 236.2C212.299 236.061 212.16 235.939 211.968 235.832C211.776 235.715 211.541 235.613 211.264 235.528C210.987 235.432 210.661 235.341 210.288 235.256C209.915 235.16 209.584 235.043 209.296 234.904C209.008 234.765 208.757 234.595 208.544 234.392C208.341 234.189 208.187 233.96 208.08 233.704C207.984 233.437 207.936 233.133 207.936 232.792C207.936 231.971 208.213 231.336 208.768 230.888C209.333 230.44 210.16 230.216 211.248 230.216C211.579 230.216 211.893 230.237 212.192 230.28C212.491 230.312 212.773 230.36 213.04 230.424C213.317 230.477 213.568 230.547 213.792 230.632L213.552 231.944C213.328 231.88 213.099 231.821 212.864 231.768C212.64 231.715 212.395 231.672 212.128 231.64C211.861 231.608 211.568 231.592 211.248 231.592C210.704 231.592 210.293 231.683 210.016 231.864C209.749 232.045 209.616 232.307 209.616 232.648C209.616 232.851 209.659 233.016 209.744 233.144C209.84 233.272 209.973 233.384 210.144 233.48C210.325 233.565 210.539 233.651 210.784 233.736C211.029 233.811 211.307 233.885 211.616 233.96C212.011 234.056 212.368 234.173 212.688 234.312C213.019 234.44 213.296 234.6 213.52 234.792C213.755 234.984 213.936 235.224 214.064 235.512C214.192 235.789 214.256 236.136 214.256 236.552C214.256 236.915 214.197 237.245 214.08 237.544C213.963 237.832 213.797 238.077 213.584 238.28C213.381 238.483 213.136 238.648 212.848 238.776C212.56 238.904 212.24 239 211.888 239.064C211.536 239.128 211.163 239.16 210.768 239.16C210.395 239.16 210.032 239.139 209.68 239.096C209.328 239.064 208.987 239.011 208.656 238.936C208.325 238.861 208.016 238.771 207.728 238.664ZM13.2791 260V248.8H15.0711V258.432H20.3511V260H13.2791ZM21.3371 255.68C21.3371 254.933 21.4011 254.283 21.5291 253.728C21.6678 253.173 21.8865 252.715 22.1851 252.352C22.4838 251.979 22.8838 251.696 23.3851 251.504C23.8865 251.312 24.5051 251.216 25.2411 251.216C25.9771 251.216 26.5958 251.312 27.0971 251.504C27.5985 251.696 27.9985 251.979 28.2971 252.352C28.5958 252.715 28.8091 253.173 28.9371 253.728C29.0758 254.283 29.1451 254.933 29.1451 255.68C29.1451 256.437 29.0705 257.099 28.9211 257.664C28.7825 258.229 28.5585 258.699 28.2491 259.072C27.9398 259.435 27.5345 259.707 27.0331 259.888C26.5425 260.069 25.9451 260.16 25.2411 260.16C24.5371 260.16 23.9345 260.069 23.4331 259.888C22.9425 259.707 22.5425 259.435 22.2331 259.072C21.9238 258.699 21.6945 258.229 21.5451 257.664C21.4065 257.099 21.3371 256.437 21.3371 255.68ZM23.1131 255.68C23.1131 256.459 23.1825 257.077 23.3211 257.536C23.4705 257.995 23.6998 258.325 24.0091 258.528C24.3291 258.731 24.7398 258.832 25.2411 258.832C25.7425 258.832 26.1478 258.731 26.4571 258.528C26.7665 258.325 26.9905 257.995 27.1291 257.536C27.2785 257.077 27.3531 256.459 27.3531 255.68C27.3531 254.901 27.2891 254.288 27.1611 253.84C27.0331 253.381 26.8091 253.056 26.4891 252.864C26.1798 252.661 25.7638 252.56 25.2411 252.56C24.7078 252.56 24.2865 252.661 23.9771 252.864C23.6678 253.056 23.4438 253.381 23.3051 253.84C23.1771 254.288 23.1131 254.901 23.1131 255.68ZM30.5477 255.824C30.5477 254.789 30.7077 253.936 31.0277 253.264C31.3477 252.581 31.8171 252.069 32.4357 251.728C33.0651 251.387 33.8277 251.216 34.7237 251.216C35.0224 251.216 35.3264 251.232 35.6357 251.264C35.9557 251.285 36.2651 251.323 36.5637 251.376C36.8624 251.419 37.1344 251.477 37.3797 251.552L37.1237 252.992C36.8891 252.939 36.6437 252.896 36.3877 252.864C36.1317 252.821 35.8757 252.789 35.6197 252.768C35.3744 252.747 35.1344 252.736 34.8997 252.736C34.3451 252.736 33.8757 252.848 33.4917 253.072C33.1184 253.296 32.8304 253.632 32.6277 254.08C32.4357 254.528 32.3397 255.104 32.3397 255.808C32.3397 256.448 32.4411 256.981 32.6437 257.408C32.8464 257.824 33.1397 258.139 33.5237 258.352C33.9077 258.555 34.3717 258.656 34.9157 258.656C35.1611 258.656 35.4117 258.645 35.6677 258.624C35.9344 258.603 36.2011 258.571 36.4677 258.528C36.7451 258.485 37.0117 258.437 37.2677 258.384L37.5237 259.776C37.1184 259.883 36.6437 259.973 36.0997 260.048C35.5664 260.123 35.0491 260.16 34.5477 260.16C33.2251 260.16 32.2277 259.808 31.5557 259.104C30.8837 258.389 30.5477 257.296 30.5477 255.824ZM45.8947 260.144C45.7347 260.144 45.5694 260.123 45.3987 260.08C45.2387 260.048 45.0574 259.973 44.8547 259.856C44.6627 259.728 44.4227 259.541 44.1347 259.296C43.8574 259.051 43.5214 258.731 43.1267 258.336L40.7747 256V260H39.1107V248.16H40.7747V253.728L43.4947 256.448C44.0281 256.971 44.4547 257.365 44.7747 257.632C45.1054 257.899 45.3667 258.08 45.5587 258.176C45.7614 258.272 45.9481 258.32 46.1187 258.32C46.1507 258.32 46.1881 258.32 46.2307 258.32C46.2734 258.309 46.3161 258.304 46.3587 258.304L46.3907 260.096C46.3161 260.107 46.2361 260.117 46.1507 260.128C46.0761 260.139 45.9907 260.144 45.8947 260.144ZM42.4387 256.16L41.0467 255.44C41.3987 255.131 41.7401 254.816 42.0707 254.496C42.4121 254.176 42.7267 253.851 43.0147 253.52C43.3027 253.179 43.5534 252.827 43.7667 252.464C43.9907 252.091 44.1667 251.68 44.2947 251.232L46.0387 251.376C45.9001 251.856 45.6974 252.32 45.4307 252.768C45.1641 253.216 44.8601 253.643 44.5187 254.048C44.1774 254.453 43.8254 254.832 43.4627 255.184C43.1001 255.525 42.7587 255.851 42.4387 256.16ZM52.5685 260V258.576H55.9925V250.752L52.7445 252.288L52.3445 250.816L56.8565 248.768H57.7525V258.576H60.6325V260H52.5685ZM61.9661 254.4C61.9661 253.291 62.0728 252.368 62.2861 251.632C62.4995 250.885 62.8035 250.293 63.1981 249.856C63.5928 249.419 64.0568 249.109 64.5901 248.928C65.1341 248.736 65.7368 248.64 66.3981 248.64C67.0701 248.64 67.6781 248.736 68.2221 248.928C68.7661 249.109 69.2301 249.424 69.6141 249.872C70.0088 250.309 70.3075 250.896 70.5101 251.632C70.7235 252.368 70.8301 253.291 70.8301 254.4C70.8301 255.499 70.7181 256.421 70.4941 257.168C70.2808 257.904 69.9768 258.491 69.5821 258.928C69.1981 259.365 68.7341 259.68 68.1901 259.872C67.6461 260.064 67.0488 260.16 66.3981 260.16C65.7368 260.16 65.1341 260.069 64.5901 259.888C64.0568 259.696 63.5928 259.381 63.1981 258.944C62.8141 258.496 62.5101 257.904 62.2861 257.168C62.0728 256.421 61.9661 255.499 61.9661 254.4ZM63.7421 254.448C63.7421 255.323 63.8061 256.043 63.9341 256.608C64.0728 257.173 64.2595 257.616 64.4941 257.936C64.7395 258.245 65.0221 258.464 65.3421 258.592C65.6728 258.72 66.0248 258.784 66.3981 258.784C66.7715 258.784 67.1181 258.72 67.4381 258.592C67.7688 258.464 68.0515 258.245 68.2861 257.936C68.5315 257.616 68.7181 257.173 68.8461 256.608C68.9848 256.043 69.0541 255.323 69.0541 254.448C69.0541 253.541 68.9848 252.8 68.8461 252.224C68.7181 251.637 68.5315 251.189 68.2861 250.88C68.0408 250.56 67.7581 250.336 67.4381 250.208C67.1181 250.08 66.7715 250.016 66.3981 250.016C66.0248 250.016 65.6781 250.08 65.3581 250.208C65.0381 250.336 64.7555 250.56 64.5101 250.88C64.2648 251.189 64.0728 251.637 63.9341 252.224C63.8061 252.8 63.7421 253.541 63.7421 254.448ZM72.0517 254.4C72.0517 253.291 72.1584 252.368 72.3717 251.632C72.5851 250.885 72.8891 250.293 73.2837 249.856C73.6784 249.419 74.1424 249.109 74.6757 248.928C75.2197 248.736 75.8224 248.64 76.4837 248.64C77.1557 248.64 77.7637 248.736 78.3077 248.928C78.8517 249.109 79.3157 249.424 79.6997 249.872C80.0944 250.309 80.3931 250.896 80.5957 251.632C80.8091 252.368 80.9157 253.291 80.9157 254.4C80.9157 255.499 80.8037 256.421 80.5797 257.168C80.3664 257.904 80.0624 258.491 79.6677 258.928C79.2837 259.365 78.8197 259.68 78.2757 259.872C77.7317 260.064 77.1344 260.16 76.4837 260.16C75.8224 260.16 75.2197 260.069 74.6757 259.888C74.1424 259.696 73.6784 259.381 73.2837 258.944C72.8997 258.496 72.5957 257.904 72.3717 257.168C72.1584 256.421 72.0517 255.499 72.0517 254.4ZM73.8277 254.448C73.8277 255.323 73.8917 256.043 74.0197 256.608C74.1584 257.173 74.3451 257.616 74.5797 257.936C74.8251 258.245 75.1077 258.464 75.4277 258.592C75.7584 258.72 76.1104 258.784 76.4837 258.784C76.8571 258.784 77.2037 258.72 77.5237 258.592C77.8544 258.464 78.1371 258.245 78.3717 257.936C78.6171 257.616 78.8037 257.173 78.9317 256.608C79.0704 256.043 79.1397 255.323 79.1397 254.448C79.1397 253.541 79.0704 252.8 78.9317 252.224C78.8037 251.637 78.6171 251.189 78.3717 250.88C78.1264 250.56 77.8437 250.336 77.5237 250.208C77.2037 250.08 76.8571 250.016 76.4837 250.016C76.1104 250.016 75.7637 250.08 75.4437 250.208C75.1237 250.336 74.8411 250.56 74.5957 250.88C74.3504 251.189 74.1584 251.637 74.0197 252.224C73.8917 252.8 73.8277 253.541 73.8277 254.448ZM82.4094 251.872C82.4094 251.232 82.4734 250.699 82.6014 250.272C82.74 249.845 82.932 249.509 83.1774 249.264C83.4227 249.008 83.716 248.832 84.0574 248.736C84.3987 248.629 84.7827 248.576 85.2094 248.576C85.636 248.576 86.02 248.629 86.3614 248.736C86.7027 248.843 86.9907 249.024 87.2254 249.28C87.4707 249.525 87.6574 249.861 87.7854 250.288C87.924 250.704 87.9934 251.232 87.9934 251.872C87.9934 252.501 87.924 253.029 87.7854 253.456C87.6574 253.872 87.4707 254.208 87.2254 254.464C86.98 254.709 86.6867 254.891 86.3454 255.008C86.004 255.115 85.6254 255.168 85.2094 255.168C84.7827 255.168 84.3987 255.115 84.0574 255.008C83.716 254.891 83.4227 254.709 83.1774 254.464C82.932 254.208 82.74 253.872 82.6014 253.456C82.4734 253.029 82.4094 252.501 82.4094 251.872ZM83.7214 251.888C83.7214 252.539 83.7854 253.04 83.9134 253.392C84.0414 253.733 84.2174 253.968 84.4414 254.096C84.6654 254.224 84.9214 254.288 85.2094 254.288C85.4974 254.288 85.748 254.224 85.9614 254.096C86.1854 253.968 86.3614 253.733 86.4894 253.392C86.6174 253.04 86.6814 252.539 86.6814 251.888C86.6814 251.205 86.6174 250.693 86.4894 250.352C86.3614 250 86.1854 249.765 85.9614 249.648C85.748 249.52 85.4974 249.456 85.2094 249.456C84.9214 249.456 84.6654 249.52 84.4414 249.648C84.2174 249.765 84.0414 250 83.9134 250.352C83.7854 250.704 83.7214 251.216 83.7214 251.888ZM86.8574 260.128L85.7374 260.064L91.5614 248.32L92.6814 248.384L86.8574 260.128ZM90.3934 256.848C90.3934 256.208 90.4574 255.675 90.5854 255.248C90.724 254.821 90.916 254.485 91.1614 254.24C91.4067 253.984 91.7 253.808 92.0414 253.712C92.3827 253.605 92.7667 253.552 93.1934 253.552C93.62 253.552 94.004 253.605 94.3454 253.712C94.6867 253.819 94.9747 254 95.2094 254.256C95.4547 254.501 95.6414 254.837 95.7694 255.264C95.908 255.68 95.9774 256.208 95.9774 256.848C95.9774 257.477 95.908 258.005 95.7694 258.432C95.6414 258.848 95.4547 259.184 95.2094 259.44C94.964 259.685 94.6707 259.867 94.3294 259.984C93.988 260.091 93.6094 260.144 93.1934 260.144C92.7667 260.144 92.3827 260.091 92.0414 259.984C91.7 259.867 91.4067 259.685 91.1614 259.44C90.916 259.184 90.724 258.848 90.5854 258.432C90.4574 258.005 90.3934 257.477 90.3934 256.848ZM91.7054 256.864C91.7054 257.515 91.7694 258.016 91.8974 258.368C92.0254 258.709 92.2014 258.944 92.4254 259.072C92.6494 259.2 92.9054 259.264 93.1934 259.264C93.4814 259.264 93.732 259.2 93.9454 259.072C94.1694 258.944 94.3454 258.709 94.4734 258.368C94.6014 258.016 94.6654 257.515 94.6654 256.864C94.6654 256.181 94.6014 255.669 94.4734 255.328C94.3454 254.976 94.1694 254.741 93.9454 254.624C93.732 254.496 93.4814 254.432 93.1934 254.432C92.9054 254.432 92.6494 254.496 92.4254 254.624C92.2014 254.741 92.0254 254.976 91.8974 255.328C91.7694 255.68 91.7054 256.192 91.7054 256.864ZM102.762 260V258.576H106.186V250.752L102.938 252.288L102.538 250.816L107.05 248.768H107.946V258.576H110.826V260H102.762ZM117.241 260V251.376H118.809V252.128C119.118 251.936 119.422 251.776 119.721 251.648C120.02 251.52 120.318 251.424 120.617 251.36C120.926 251.285 121.246 251.248 121.577 251.248C121.908 251.248 122.19 251.285 122.425 251.36C122.67 251.435 122.878 251.547 123.049 251.696C123.23 251.835 123.374 252.005 123.481 252.208C123.78 252.016 124.084 251.851 124.393 251.712C124.702 251.563 125.028 251.445 125.369 251.36C125.721 251.264 126.094 251.216 126.489 251.216C126.809 251.216 127.092 251.259 127.337 251.344C127.582 251.429 127.796 251.547 127.977 251.696C128.158 251.845 128.302 252.021 128.409 252.224C128.526 252.416 128.612 252.635 128.665 252.88C128.718 253.115 128.745 253.36 128.745 253.616V260H127.017V254.144C127.017 253.973 126.996 253.803 126.953 253.632C126.91 253.451 126.841 253.291 126.745 253.152C126.66 253.013 126.532 252.907 126.361 252.832C126.19 252.747 125.972 252.704 125.705 252.704C125.46 252.704 125.22 252.736 124.985 252.8C124.75 252.853 124.532 252.928 124.329 253.024C124.126 253.12 123.94 253.216 123.769 253.312C123.812 253.44 123.838 253.563 123.849 253.68C123.86 253.797 123.865 253.915 123.865 254.032V260H122.137V254.16C122.137 253.989 122.116 253.819 122.073 253.648C122.03 253.467 121.961 253.312 121.865 253.184C121.769 253.045 121.636 252.933 121.465 252.848C121.305 252.763 121.092 252.72 120.825 252.72C120.612 252.72 120.398 252.747 120.185 252.8C119.982 252.853 119.78 252.923 119.577 253.008C119.374 253.093 119.172 253.2 118.969 253.328V260H117.241ZM130.521 255.68C130.521 254.933 130.585 254.283 130.713 253.728C130.852 253.173 131.07 252.715 131.369 252.352C131.668 251.979 132.068 251.696 132.569 251.504C133.07 251.312 133.689 251.216 134.425 251.216C135.161 251.216 135.78 251.312 136.281 251.504C136.782 251.696 137.182 251.979 137.481 252.352C137.78 252.715 137.993 253.173 138.121 253.728C138.26 254.283 138.329 254.933 138.329 255.68C138.329 256.437 138.254 257.099 138.105 257.664C137.966 258.229 137.742 258.699 137.433 259.072C137.124 259.435 136.718 259.707 136.217 259.888C135.726 260.069 135.129 260.16 134.425 260.16C133.721 260.16 133.118 260.069 132.617 259.888C132.126 259.707 131.726 259.435 131.417 259.072C131.108 258.699 130.878 258.229 130.729 257.664C130.59 257.099 130.521 256.437 130.521 255.68ZM132.297 255.68C132.297 256.459 132.366 257.077 132.505 257.536C132.654 257.995 132.884 258.325 133.193 258.528C133.513 258.731 133.924 258.832 134.425 258.832C134.926 258.832 135.332 258.731 135.641 258.528C135.95 258.325 136.174 257.995 136.313 257.536C136.462 257.077 136.537 256.459 136.537 255.68C136.537 254.901 136.473 254.288 136.345 253.84C136.217 253.381 135.993 253.056 135.673 252.864C135.364 252.661 134.948 252.56 134.425 252.56C133.892 252.56 133.47 252.661 133.161 252.864C132.852 253.056 132.628 253.381 132.489 253.84C132.361 254.288 132.297 254.901 132.297 255.68ZM140.116 260V251.376H141.684V252.128C142.036 251.936 142.372 251.776 142.692 251.648C143.012 251.509 143.337 251.403 143.668 251.328C143.998 251.253 144.345 251.216 144.708 251.216C145.241 251.216 145.684 251.312 146.036 251.504C146.398 251.696 146.67 251.968 146.852 252.32C147.044 252.672 147.14 253.104 147.14 253.616V260H145.396V254.144C145.396 253.664 145.278 253.301 145.044 253.056C144.809 252.811 144.457 252.688 143.988 252.688C143.742 252.688 143.502 252.715 143.268 252.768C143.033 252.821 142.798 252.896 142.564 252.992C142.329 253.077 142.089 253.184 141.844 253.312V260H140.116ZM152.319 260.16C151.775 260.16 151.322 260.059 150.959 259.856C150.596 259.653 150.324 259.344 150.143 258.928C149.972 258.501 149.887 257.968 149.887 257.328V252.672H148.479V251.52L149.887 251.376L150.111 249.408H151.615V251.376H154.271V252.672H151.615V257.2C151.615 257.723 151.716 258.101 151.919 258.336C152.122 258.571 152.447 258.688 152.895 258.688C153.119 258.688 153.348 258.667 153.583 258.624C153.828 258.571 154.079 258.512 154.335 258.448L154.575 259.776C154.17 259.915 153.775 260.011 153.391 260.064C153.007 260.128 152.65 260.16 152.319 260.16ZM155.943 260V248.16H157.703V252.096C158.023 251.904 158.332 251.744 158.631 251.616C158.929 251.488 159.233 251.392 159.543 251.328C159.863 251.253 160.199 251.216 160.551 251.216C161.073 251.216 161.516 251.312 161.879 251.504C162.241 251.685 162.513 251.957 162.695 252.32C162.887 252.672 162.983 253.109 162.983 253.632V260H161.239V254.144C161.239 253.664 161.121 253.307 160.887 253.072C160.652 252.827 160.3 252.704 159.831 252.704C159.585 252.704 159.34 252.731 159.095 252.784C158.86 252.837 158.631 252.912 158.407 253.008C158.183 253.093 157.948 253.2 157.703 253.328V260H155.943ZM164.866 259.104C164.866 258.763 164.935 258.517 165.074 258.368C165.213 258.219 165.463 258.144 165.826 258.144C166.199 258.144 166.455 258.219 166.594 258.368C166.733 258.517 166.802 258.763 166.802 259.104C166.802 259.445 166.733 259.691 166.594 259.84C166.455 259.989 166.199 260.064 165.826 260.064C165.474 260.064 165.223 259.989 165.074 259.84C164.935 259.691 164.866 259.445 164.866 259.104ZM172.621 256.544V248.8H174.397V256.56C174.397 256.901 174.439 257.195 174.525 257.44C174.621 257.685 174.754 257.893 174.925 258.064C175.106 258.224 175.309 258.352 175.533 258.448C175.767 258.533 176.013 258.597 176.269 258.64C176.525 258.672 176.791 258.688 177.069 258.688C177.346 258.688 177.613 258.672 177.869 258.64C178.125 258.597 178.365 258.528 178.589 258.432C178.813 258.336 179.01 258.208 179.181 258.048C179.351 257.877 179.479 257.675 179.565 257.44C179.661 257.195 179.709 256.901 179.709 256.56V248.8H181.485V256.544C181.485 257.099 181.415 257.579 181.277 257.984C181.138 258.389 180.935 258.731 180.669 259.008C180.402 259.285 180.082 259.509 179.709 259.68C179.346 259.851 178.941 259.973 178.493 260.048C178.045 260.123 177.565 260.16 177.053 260.16C176.551 260.16 176.077 260.123 175.629 260.048C175.181 259.973 174.77 259.851 174.397 259.68C174.034 259.509 173.719 259.285 173.453 259.008C173.186 258.731 172.978 258.389 172.829 257.984C172.69 257.579 172.621 257.099 172.621 256.544ZM183.52 260V251.376H185.088V252.128C185.44 251.936 185.776 251.776 186.096 251.648C186.416 251.509 186.741 251.403 187.072 251.328C187.403 251.253 187.749 251.216 188.112 251.216C188.645 251.216 189.088 251.312 189.44 251.504C189.803 251.696 190.075 251.968 190.256 252.32C190.448 252.672 190.544 253.104 190.544 253.616V260H188.8V254.144C188.8 253.664 188.683 253.301 188.448 253.056C188.213 252.811 187.861 252.688 187.392 252.688C187.147 252.688 186.907 252.715 186.672 252.768C186.437 252.821 186.203 252.896 185.968 252.992C185.733 253.077 185.493 253.184 185.248 253.312V260H183.52ZM194.412 248.16V257.424C194.412 257.765 194.449 258.027 194.524 258.208C194.598 258.379 194.7 258.496 194.828 258.56C194.956 258.624 195.1 258.656 195.26 258.656C195.377 258.656 195.5 258.645 195.628 258.624C195.756 258.603 195.894 258.565 196.044 258.512L196.22 259.856C196.028 259.941 195.809 260.011 195.564 260.064C195.318 260.128 195.057 260.16 194.78 260.16C194.332 260.16 193.948 260.085 193.628 259.936C193.318 259.776 193.084 259.509 192.924 259.136C192.764 258.752 192.684 258.229 192.684 257.568V248.16H194.412ZM196.963 255.68C196.963 254.933 197.027 254.283 197.155 253.728C197.294 253.173 197.513 252.715 197.811 252.352C198.11 251.979 198.51 251.696 199.011 251.504C199.513 251.312 200.131 251.216 200.867 251.216C201.603 251.216 202.222 251.312 202.723 251.504C203.225 251.696 203.625 251.979 203.923 252.352C204.222 252.715 204.435 253.173 204.563 253.728C204.702 254.283 204.771 254.933 204.771 255.68C204.771 256.437 204.697 257.099 204.547 257.664C204.409 258.229 204.185 258.699 203.875 259.072C203.566 259.435 203.161 259.707 202.659 259.888C202.169 260.069 201.571 260.16 200.867 260.16C200.163 260.16 199.561 260.069 199.059 259.888C198.569 259.707 198.169 259.435 197.859 259.072C197.55 258.699 197.321 258.229 197.171 257.664C197.033 257.099 196.963 256.437 196.963 255.68ZM198.739 255.68C198.739 256.459 198.809 257.077 198.947 257.536C199.097 257.995 199.326 258.325 199.635 258.528C199.955 258.731 200.366 258.832 200.867 258.832C201.369 258.832 201.774 258.731 202.083 258.528C202.393 258.325 202.617 257.995 202.755 257.536C202.905 257.077 202.979 256.459 202.979 255.68C202.979 254.901 202.915 254.288 202.787 253.84C202.659 253.381 202.435 253.056 202.115 252.864C201.806 252.661 201.39 252.56 200.867 252.56C200.334 252.56 199.913 252.661 199.603 252.864C199.294 253.056 199.07 253.381 198.931 253.84C198.803 254.288 198.739 254.901 198.739 255.68ZM206.174 255.824C206.174 254.789 206.334 253.936 206.654 253.264C206.974 252.581 207.443 252.069 208.062 251.728C208.691 251.387 209.454 251.216 210.35 251.216C210.649 251.216 210.953 251.232 211.262 251.264C211.582 251.285 211.891 251.323 212.19 251.376C212.489 251.419 212.761 251.477 213.006 251.552L212.75 252.992C212.515 252.939 212.27 252.896 212.014 252.864C211.758 252.821 211.502 252.789 211.246 252.768C211.001 252.747 210.761 252.736 210.526 252.736C209.971 252.736 209.502 252.848 209.118 253.072C208.745 253.296 208.457 253.632 208.254 254.08C208.062 254.528 207.966 255.104 207.966 255.808C207.966 256.448 208.067 256.981 208.27 257.408C208.473 257.824 208.766 258.139 209.15 258.352C209.534 258.555 209.998 258.656 210.542 258.656C210.787 258.656 211.038 258.645 211.294 258.624C211.561 258.603 211.827 258.571 212.094 258.528C212.371 258.485 212.638 258.437 212.894 258.384L213.15 259.776C212.745 259.883 212.27 259.973 211.726 260.048C211.193 260.123 210.675 260.16 210.174 260.16C208.851 260.16 207.854 259.808 207.182 259.104C206.51 258.389 206.174 257.296 206.174 255.824ZM221.521 260.144C221.361 260.144 221.196 260.123 221.025 260.08C220.865 260.048 220.684 259.973 220.481 259.856C220.289 259.728 220.049 259.541 219.761 259.296C219.484 259.051 219.148 258.731 218.753 258.336L216.401 256V260H214.737V248.16H216.401V253.728L219.121 256.448C219.654 256.971 220.081 257.365 220.401 257.632C220.732 257.899 220.993 258.08 221.185 258.176C221.388 258.272 221.574 258.32 221.745 258.32C221.777 258.32 221.814 258.32 221.857 258.32C221.9 258.309 221.942 258.304 221.985 258.304L222.017 260.096C221.942 260.107 221.862 260.117 221.777 260.128C221.702 260.139 221.617 260.144 221.521 260.144ZM218.065 256.16L216.673 255.44C217.025 255.131 217.366 254.816 217.697 254.496C218.038 254.176 218.353 253.851 218.641 253.52C218.929 253.179 219.18 252.827 219.393 252.464C219.617 252.091 219.793 251.68 219.921 251.232L221.665 251.376C221.526 251.856 221.324 252.32 221.057 252.768C220.79 253.216 220.486 253.643 220.145 254.048C219.804 254.453 219.452 254.832 219.089 255.184C218.726 255.525 218.385 255.851 218.065 256.16ZM227.427 257.632L227.395 256.336L233.139 248.752L234.675 248.8V256.256H236.419V257.632H234.675V260H232.835V257.632H227.427ZM229.043 256.24H232.883V251.2L229.043 256.24ZM237.88 251.872C237.88 251.232 237.944 250.699 238.072 250.272C238.211 249.845 238.403 249.509 238.648 249.264C238.893 249.008 239.187 248.832 239.528 248.736C239.869 248.629 240.253 248.576 240.68 248.576C241.107 248.576 241.491 248.629 241.832 248.736C242.173 248.843 242.461 249.024 242.696 249.28C242.941 249.525 243.128 249.861 243.256 250.288C243.395 250.704 243.464 251.232 243.464 251.872C243.464 252.501 243.395 253.029 243.256 253.456C243.128 253.872 242.941 254.208 242.696 254.464C242.451 254.709 242.157 254.891 241.816 255.008C241.475 255.115 241.096 255.168 240.68 255.168C240.253 255.168 239.869 255.115 239.528 255.008C239.187 254.891 238.893 254.709 238.648 254.464C238.403 254.208 238.211 253.872 238.072 253.456C237.944 253.029 237.88 252.501 237.88 251.872ZM239.192 251.888C239.192 252.539 239.256 253.04 239.384 253.392C239.512 253.733 239.688 253.968 239.912 254.096C240.136 254.224 240.392 254.288 240.68 254.288C240.968 254.288 241.219 254.224 241.432 254.096C241.656 253.968 241.832 253.733 241.96 253.392C242.088 253.04 242.152 252.539 242.152 251.888C242.152 251.205 242.088 250.693 241.96 250.352C241.832 250 241.656 249.765 241.432 249.648C241.219 249.52 240.968 249.456 240.68 249.456C240.392 249.456 240.136 249.52 239.912 249.648C239.688 249.765 239.512 250 239.384 250.352C239.256 250.704 239.192 251.216 239.192 251.888ZM242.328 260.128L241.208 260.064L247.032 248.32L248.152 248.384L242.328 260.128ZM245.864 256.848C245.864 256.208 245.928 255.675 246.056 255.248C246.195 254.821 246.387 254.485 246.632 254.24C246.877 253.984 247.171 253.808 247.512 253.712C247.853 253.605 248.237 253.552 248.664 253.552C249.091 253.552 249.475 253.605 249.816 253.712C250.157 253.819 250.445 254 250.68 254.256C250.925 254.501 251.112 254.837 251.24 255.264C251.379 255.68 251.448 256.208 251.448 256.848C251.448 257.477 251.379 258.005 251.24 258.432C251.112 258.848 250.925 259.184 250.68 259.44C250.435 259.685 250.141 259.867 249.8 259.984C249.459 260.091 249.08 260.144 248.664 260.144C248.237 260.144 247.853 260.091 247.512 259.984C247.171 259.867 246.877 259.685 246.632 259.44C246.387 259.184 246.195 258.848 246.056 258.432C245.928 258.005 245.864 257.477 245.864 256.848ZM247.176 256.864C247.176 257.515 247.24 258.016 247.368 258.368C247.496 258.709 247.672 258.944 247.896 259.072C248.12 259.2 248.376 259.264 248.664 259.264C248.952 259.264 249.203 259.2 249.416 259.072C249.64 258.944 249.816 258.709 249.944 258.368C250.072 258.016 250.136 257.515 250.136 256.864C250.136 256.181 250.072 255.669 249.944 255.328C249.816 254.976 249.64 254.741 249.416 254.624C249.203 254.496 248.952 254.432 248.664 254.432C248.376 254.432 248.12 254.496 247.896 254.624C247.672 254.741 247.496 254.976 247.368 255.328C247.24 255.68 247.176 256.192 247.176 256.864ZM97.023 284.36V272.328H98.591L98.639 273.16C99.1297 272.84 99.6043 272.605 100.063 272.456C100.522 272.296 100.986 272.216 101.455 272.216C102.394 272.216 103.114 272.589 103.615 273.336C104.116 274.072 104.367 275.128 104.367 276.504C104.367 277.56 104.223 278.435 103.935 279.128C103.647 279.821 103.21 280.333 102.623 280.664C102.036 280.995 101.295 281.16 100.399 281.16C100.154 281.16 99.8923 281.144 99.615 281.112C99.3483 281.08 99.0603 281.037 98.751 280.984V284.36H97.023ZM100.271 279.88C100.804 279.88 101.236 279.779 101.567 279.576C101.908 279.363 102.159 279.021 102.319 278.552C102.49 278.072 102.575 277.443 102.575 276.664C102.575 275.981 102.506 275.421 102.367 274.984C102.228 274.536 102.026 274.205 101.759 273.992C101.503 273.768 101.183 273.656 100.799 273.656C100.586 273.656 100.367 273.683 100.143 273.736C99.9297 273.779 99.711 273.853 99.487 273.96C99.263 274.056 99.0177 274.189 98.751 274.36V279.672C99.0497 279.736 99.3217 279.789 99.567 279.832C99.8123 279.864 100.047 279.88 100.271 279.88ZM109.66 281.16C109.03 281.16 108.476 281.08 107.996 280.92C107.526 280.749 107.121 280.493 106.78 280.152C106.449 279.811 106.198 279.373 106.028 278.84C105.857 278.296 105.772 277.656 105.772 276.92C105.772 276.056 105.873 275.325 106.076 274.728C106.289 274.12 106.577 273.635 106.94 273.272C107.313 272.899 107.745 272.632 108.236 272.472C108.737 272.301 109.281 272.216 109.868 272.216C111.02 272.216 111.868 272.515 112.412 273.112C112.966 273.709 113.244 274.68 113.244 276.024C113.244 276.099 113.238 276.205 113.228 276.344C113.228 276.472 113.228 276.6 113.228 276.728C112.982 276.749 112.668 276.776 112.284 276.808C111.91 276.84 111.478 276.872 110.988 276.904C110.497 276.936 109.964 276.963 109.388 276.984C108.812 277.005 108.209 277.021 107.58 277.032C107.569 277.075 107.564 277.123 107.564 277.176C107.564 277.219 107.564 277.267 107.564 277.32C107.564 277.907 107.654 278.381 107.836 278.744C108.017 279.096 108.284 279.357 108.636 279.528C108.988 279.688 109.43 279.768 109.964 279.768C110.284 279.768 110.614 279.752 110.956 279.72C111.308 279.677 111.649 279.629 111.98 279.576C112.31 279.512 112.625 279.443 112.924 279.368L113.148 280.664C112.828 280.76 112.481 280.851 112.108 280.936C111.745 281.011 111.361 281.064 110.956 281.096C110.55 281.139 110.118 281.16 109.66 281.16ZM107.596 275.864C108.044 275.864 108.47 275.859 108.876 275.848C109.292 275.827 109.676 275.805 110.028 275.784C110.38 275.763 110.678 275.747 110.924 275.736C111.18 275.715 111.372 275.699 111.5 275.688C111.489 275.155 111.42 274.728 111.292 274.408C111.164 274.088 110.972 273.859 110.716 273.72C110.46 273.571 110.134 273.496 109.74 273.496C109.494 273.496 109.254 273.533 109.02 273.608C108.785 273.672 108.566 273.795 108.364 273.976C108.172 274.147 108.006 274.387 107.868 274.696C107.729 274.995 107.638 275.384 107.596 275.864ZM116.59 272.376V273.432C116.9 273.144 117.188 272.915 117.454 272.744C117.732 272.563 118.009 272.429 118.286 272.344C118.564 272.259 118.857 272.216 119.166 272.216C119.369 272.216 119.572 272.232 119.774 272.264C119.988 272.296 120.185 272.339 120.366 272.392L120.078 273.976C119.886 273.923 119.689 273.885 119.486 273.864C119.294 273.832 119.108 273.816 118.926 273.816C118.585 273.816 118.233 273.885 117.87 274.024C117.518 274.163 117.14 274.397 116.734 274.728V281H115.022V272.376H116.59ZM126.256 281V272.376H127.824V273.128C128.133 272.936 128.437 272.776 128.736 272.648C129.035 272.52 129.333 272.424 129.632 272.36C129.941 272.285 130.261 272.248 130.592 272.248C130.923 272.248 131.205 272.285 131.44 272.36C131.685 272.435 131.893 272.547 132.064 272.696C132.245 272.835 132.389 273.005 132.496 273.208C132.795 273.016 133.099 272.851 133.408 272.712C133.717 272.563 134.043 272.445 134.384 272.36C134.736 272.264 135.109 272.216 135.504 272.216C135.824 272.216 136.107 272.259 136.352 272.344C136.597 272.429 136.811 272.547 136.992 272.696C137.173 272.845 137.317 273.021 137.424 273.224C137.541 273.416 137.627 273.635 137.68 273.88C137.733 274.115 137.76 274.36 137.76 274.616V281H136.032V275.144C136.032 274.973 136.011 274.803 135.968 274.632C135.925 274.451 135.856 274.291 135.76 274.152C135.675 274.013 135.547 273.907 135.376 273.832C135.205 273.747 134.987 273.704 134.72 273.704C134.475 273.704 134.235 273.736 134 273.8C133.765 273.853 133.547 273.928 133.344 274.024C133.141 274.12 132.955 274.216 132.784 274.312C132.827 274.44 132.853 274.563 132.864 274.68C132.875 274.797 132.88 274.915 132.88 275.032V281H131.152V275.16C131.152 274.989 131.131 274.819 131.088 274.648C131.045 274.467 130.976 274.312 130.88 274.184C130.784 274.045 130.651 273.933 130.48 273.848C130.32 273.763 130.107 273.72 129.84 273.72C129.627 273.72 129.413 273.747 129.2 273.8C128.997 273.853 128.795 273.923 128.592 274.008C128.389 274.093 128.187 274.2 127.984 274.328V281H126.256ZM139.536 276.68C139.536 275.933 139.6 275.283 139.728 274.728C139.867 274.173 140.085 273.715 140.384 273.352C140.683 272.979 141.083 272.696 141.584 272.504C142.085 272.312 142.704 272.216 143.44 272.216C144.176 272.216 144.795 272.312 145.296 272.504C145.797 272.696 146.197 272.979 146.496 273.352C146.795 273.715 147.008 274.173 147.136 274.728C147.275 275.283 147.344 275.933 147.344 276.68C147.344 277.437 147.269 278.099 147.12 278.664C146.981 279.229 146.757 279.699 146.448 280.072C146.139 280.435 145.733 280.707 145.232 280.888C144.741 281.069 144.144 281.16 143.44 281.16C142.736 281.16 142.133 281.069 141.632 280.888C141.141 280.707 140.741 280.435 140.432 280.072C140.123 279.699 139.893 279.229 139.744 278.664C139.605 278.099 139.536 277.437 139.536 276.68ZM141.312 276.68C141.312 277.459 141.381 278.077 141.52 278.536C141.669 278.995 141.899 279.325 142.208 279.528C142.528 279.731 142.939 279.832 143.44 279.832C143.941 279.832 144.347 279.731 144.656 279.528C144.965 279.325 145.189 278.995 145.328 278.536C145.477 278.077 145.552 277.459 145.552 276.68C145.552 275.901 145.488 275.288 145.36 274.84C145.232 274.381 145.008 274.056 144.688 273.864C144.379 273.661 143.963 273.56 143.44 273.56C142.907 273.56 142.485 273.661 142.176 273.864C141.867 274.056 141.643 274.381 141.504 274.84C141.376 275.288 141.312 275.901 141.312 276.68ZM149.13 281V272.376H150.698V273.128C151.05 272.936 151.386 272.776 151.706 272.648C152.026 272.509 152.352 272.403 152.682 272.328C153.013 272.253 153.36 272.216 153.722 272.216C154.256 272.216 154.698 272.312 155.05 272.504C155.413 272.696 155.685 272.968 155.866 273.32C156.058 273.672 156.154 274.104 156.154 274.616V281H154.41V275.144C154.41 274.664 154.293 274.301 154.058 274.056C153.824 273.811 153.472 273.688 153.002 273.688C152.757 273.688 152.517 273.715 152.282 273.768C152.048 273.821 151.813 273.896 151.578 273.992C151.344 274.077 151.104 274.184 150.858 274.312V281H149.13ZM161.334 281.16C160.79 281.16 160.337 281.059 159.974 280.856C159.611 280.653 159.339 280.344 159.158 279.928C158.987 279.501 158.902 278.968 158.902 278.328V273.672H157.494V272.52L158.902 272.376L159.126 270.408H160.63V272.376H163.286V273.672H160.63V278.2C160.63 278.723 160.731 279.101 160.934 279.336C161.137 279.571 161.462 279.688 161.91 279.688C162.134 279.688 162.363 279.667 162.598 279.624C162.843 279.571 163.094 279.512 163.35 279.448L163.59 280.776C163.185 280.915 162.79 281.011 162.406 281.064C162.022 281.128 161.665 281.16 161.334 281.16ZM164.958 281V269.16H166.718V273.096C167.038 272.904 167.347 272.744 167.646 272.616C167.944 272.488 168.248 272.392 168.558 272.328C168.878 272.253 169.214 272.216 169.566 272.216C170.088 272.216 170.531 272.312 170.894 272.504C171.256 272.685 171.528 272.957 171.71 273.32C171.902 273.672 171.998 274.109 171.998 274.632V281H170.254V275.144C170.254 274.664 170.136 274.307 169.902 274.072C169.667 273.827 169.315 273.704 168.846 273.704C168.6 273.704 168.355 273.731 168.11 273.784C167.875 273.837 167.646 273.912 167.422 274.008C167.198 274.093 166.963 274.2 166.718 274.328V281H164.958Z" fill="#C2ABCB"/>
<path opacity="0.2" d="M0 134.5C1.54413e-06 116.837 3.47895 99.3474 10.2382 83.0291C16.9975 66.7108 26.9047 51.8836 39.3941 39.3941C51.8836 26.9046 66.7108 16.9975 83.0291 10.2382C99.3474 3.47894 116.837 -2.31619e-06 134.5 0C152.163 2.3162e-06 169.653 3.47895 185.971 10.2382C202.289 16.9975 217.116 26.9047 229.606 39.3942C242.095 51.8836 252.003 66.7108 258.762 83.0291C265.521 99.3474 269 116.837 269 134.5L228.65 134.5C228.65 122.136 226.215 109.893 221.483 98.4704C216.752 87.0476 209.817 76.6685 201.074 67.9259C192.331 59.1833 181.952 52.2482 170.53 47.5167C159.107 42.7853 146.864 40.35 134.5 40.35C122.136 40.35 109.893 42.7853 98.4704 47.5167C87.0476 52.2482 76.6685 59.1833 67.9259 67.9259C59.1833 76.6685 52.2482 87.0475 47.5167 98.4703C42.7853 109.893 40.35 122.136 40.35 134.5H0Z" fill="black"/>
<path d="M0 134.5C2.06403e-06 110.89 6.21475 87.6966 18.0196 67.25L52.9637 87.425C44.7003 101.738 40.35 117.973 40.35 134.5H0Z" fill="url(#paint2_linear_257_2414)"/>
<defs>
<radialGradient id="paint0_radial_257_2414" cx="0" cy="0" r="1" gradientUnits="userSpaceOnUse" gradientTransform="translate(78 204.5) rotate(90) scale(8)">
<stop stop-color="#FFE814"/>
<stop offset="1" stop-color="#FFA114"/>
</radialGradient>
<radialGradient id="paint1_radial_257_2414" cx="0" cy="0" r="1" gradientUnits="userSpaceOnUse" gradientTransform="translate(191 204.5) rotate(90) scale(8)">
<stop stop-color="#FFE814"/>
<stop offset="1" stop-color="#FFA114"/>
</radialGradient>
<linearGradient id="paint2_linear_257_2414" x1="-36.9055" y1="307.108" x2="355.37" y2="262.625" gradientUnits="userSpaceOnUse">
<stop stop-color="#14D5FF"/>
<stop offset="1" stop-color="#FF1493"/>
</linearGradient>
</defs>
</svg>
