<svg width="269" height="286" fill="none" xmlns="http://www.w3.org/2000/svg"><path d="M79.6 147.484l2.449-6.864c.832.32 1.744.592 2.736.816.992.224 2.032.4 3.12.528s2.192.192 3.312.192c1.472 0 2.656-.112 3.552-.336.896-.224 1.536-.576 1.92-1.056.384-.48.576-1.088.576-1.824 0-.992-.464-1.728-1.392-2.208-.896-.48-2.384-.72-4.464-.72h-5.28v-6.864h4.992c1.344 0 2.416-.096 3.216-.288.832-.224 1.424-.544 1.776-.96.384-.416.576-.928.576-1.536 0-.896-.48-1.568-1.44-2.016-.96-.48-2.48-.72-4.56-.72-1.44 0-2.896.112-4.368.336-1.472.224-2.832.56-4.08 1.008l-2.16-7.056c.928-.544 2.048-.992 3.36-1.344a28.66 28.66 0 014.32-.864 39.103 39.103 0 014.848-.288c3.008 0 5.504.352 7.488 1.056 2.016.704 3.52 1.712 4.512 3.024.992 1.312 1.488 2.88 1.488 4.704 0 1.664-.448 3.152-1.344 4.464-.864 1.312-2.112 2.336-3.744 3.072 1.952.64 3.424 1.648 4.416 3.024.992 1.376 1.488 2.992 1.488 4.848 0 2.176-.576 4.048-1.728 5.616-1.12 1.536-2.784 2.72-4.992 3.552-2.176.8-4.88 1.2-8.112 1.2-1.696 0-3.264-.096-4.704-.288a25.033 25.033 0 01-4.032-.768 29.96 29.96 0 01-3.744-1.44zm32.171-14.784c0-3.296.336-6.048 1.008-8.256.672-2.24 1.632-4.016 2.88-5.328 1.28-1.312 2.816-2.256 4.608-2.832 1.792-.576 3.792-.864 6-.864 2.304 0 4.352.288 6.144.864 1.792.576 3.312 1.536 4.56 2.88 1.248 1.312 2.192 3.088 2.832 5.328.672 2.208 1.008 4.944 1.008 8.208 0 3.264-.352 6.016-1.056 8.256-.672 2.208-1.648 3.968-2.928 5.28-1.28 1.312-2.816 2.272-4.608 2.88-1.76.576-3.744.864-5.952.864-2.176 0-4.16-.288-5.952-.864-1.792-.576-3.328-1.52-4.608-2.832-1.28-1.344-2.256-3.12-2.928-5.328-.672-2.24-1.008-4.992-1.008-8.256zm9.744.336c0 2.08.112 3.776.336 5.088.224 1.28.544 2.24.96 2.88.448.64.96 1.088 1.536 1.344a5.51 5.51 0 001.92.336c.704 0 1.344-.112 1.92-.336.608-.256 1.12-.704 1.536-1.344.448-.64.784-1.6 1.008-2.88.224-1.312.336-3.008.336-5.088 0-2.304-.128-4.144-.384-5.52-.224-1.376-.56-2.4-1.008-3.072-.416-.704-.912-1.168-1.488-1.392a5.258 5.258 0 00-1.92-.336 5.12 5.12 0 00-1.872.336c-.576.224-1.088.688-1.536 1.392-.416.672-.752 1.696-1.008 3.072-.224 1.376-.336 3.216-.336 5.52zm22.859-7.776c0-1.92.208-3.52.624-4.8.448-1.28 1.072-2.288 1.872-3.024.832-.736 1.84-1.264 3.024-1.584 1.184-.32 2.528-.48 4.032-.48s2.848.16 4.032.48c1.184.32 2.176.864 2.976 1.632.8.736 1.392 1.744 1.776 3.024.416 1.28.624 2.864.624 4.752 0 1.856-.208 3.408-.624 4.656-.416 1.248-1.04 2.256-1.872 3.024-.832.768-1.824 1.328-2.976 1.68-1.152.32-2.464.48-3.936.48-1.504 0-2.848-.16-4.032-.48-1.184-.352-2.192-.896-3.024-1.632-.8-.768-1.424-1.776-1.872-3.024-.416-1.28-.624-2.848-.624-4.704zm7.008.144c0 1.536.096 2.688.288 3.456.192.736.48 1.232.864 1.488.384.224.848.336 1.392.336.544 0 .992-.112 1.344-.336.384-.256.656-.752.816-1.488.192-.768.288-1.92.288-3.456 0-1.728-.096-2.992-.288-3.792-.192-.8-.48-1.296-.864-1.488-.352-.224-.784-.336-1.296-.336-.544 0-1.008.112-1.392.336-.352.224-.64.736-.864 1.536-.192.8-.288 2.048-.288 3.744zm9.6 24.336l-5.952-.048 18.096-34.704 5.952.048-18.096 34.704zm9.648-9.648c0-1.92.208-3.52.624-4.8.448-1.28 1.072-2.288 1.872-3.024.832-.736 1.84-1.264 3.024-1.584 1.184-.32 2.528-.48 4.032-.48s2.848.16 4.032.48c1.184.32 2.176.864 2.976 1.632.8.736 1.392 1.744 1.776 3.024.416 1.28.624 2.864.624 4.752 0 1.856-.208 3.408-.624 4.656-.416 1.248-1.04 2.256-1.872 3.024-.832.768-1.824 1.328-2.976 1.68-1.152.32-2.464.48-3.936.48-1.504 0-2.848-.16-4.032-.48-1.184-.352-2.192-.896-3.024-1.632-.8-.768-1.424-1.776-1.872-3.024-.416-1.28-.624-2.848-.624-4.704zm7.008.144c0 1.536.096 2.688.288 3.456.192.736.48 1.232.864 1.488.384.224.848.336 1.392.336.544 0 .992-.112 1.344-.336.384-.256.656-.752.816-1.488.192-.768.288-1.92.288-3.456 0-1.728-.096-2.992-.288-3.792-.192-.8-.48-1.296-.864-1.488-.352-.224-.784-.336-1.296-.336-.544 0-1.008.112-1.392.336-.352.224-.64.736-.864 1.536-.192.8-.288 2.048-.288 3.744z" fill="#1F8088"/><path d="M25.247 193.5v-14h8.4v1.8h-5.6v4.2h4.4v1.8h-4.4v6.2h-2.8zm12.907.2c-1.173 0-2.087-.28-2.74-.84-.64-.573-.96-1.327-.96-2.26 0-1 .36-1.78 1.08-2.34.733-.573 1.873-.86 3.42-.86h1.4v-.3c0-.707-.153-1.213-.46-1.52-.307-.32-.787-.48-1.44-.48-.56 0-1.073.133-1.54.4a2.431 2.431 0 00-.56.4h-.2l-.9-1.6c.32-.213.633-.38.94-.5.867-.333 1.687-.5 2.46-.5.933 0 1.74.167 2.42.5.68.32 1.193.767 1.54 1.34.36.573.54 1.227.54 1.96v6.4h-2l-.2-1.2h-.1a3.796 3.796 0 01-.68.7c-.56.467-1.233.7-2.02.7zm.5-1.9c.413 0 .82-.2 1.22-.6.187-.187.347-.387.48-.6v-1.4h-1.4c-1.133 0-1.7.467-1.7 1.4 0 .36.12.653.36.88.253.213.6.32 1.04.32zm7.6-8.3h2l.2 1.2h.1c.134-.2.36-.433.68-.7.627-.467 1.3-.7 2.02-.7.347 0 .687.033 1.02.1.214.053.374.087.48.1l-.4 2h-.2a2.475 2.475 0 01-.44-.1 4.31 4.31 0 00-.96-.1c-.44 0-.86.2-1.26.6-.133.16-.28.36-.44.6v7h-2.8v-10zm8.291 0h2l.2 1.2h.1c.147-.213.36-.447.64-.7.574-.467 1.194-.7 1.86-.7.814 0 1.494.233 2.04.7.24.227.427.46.56.7.187-.227.447-.46.78-.7.747-.467 1.487-.7 2.22-.7 1.12 0 2 .333 2.64 1 .64.667.96 1.6.96 2.8v6.4h-2.8v-6.4c0-.613-.126-1.08-.38-1.4-.24-.333-.546-.5-.92-.5-.36 0-.72.167-1.08.5-.093.093-.233.26-.42.5v7.3h-2.8v-6.4c0-.613-.126-1.08-.38-1.4-.24-.333-.546-.5-.92-.5-.426 0-.8.2-1.12.6-.173.227-.3.427-.38.6v7.1h-2.8v-10zm18.5-1.3c-.4 0-.754-.147-1.06-.44a1.49 1.49 0 01-.44-1.06c0-.4.146-.747.44-1.04.306-.307.66-.46 1.06-.46s.746.153 1.04.46c.306.293.46.64.46 1.04s-.154.753-.46 1.06c-.294.293-.64.44-1.04.44zm-1.4 11.3v-10h2.8v10h-2.8zm6.005-10h2l.2 1.2h.1c.133-.2.36-.433.68-.7.627-.467 1.3-.7 2.02-.7 1.213 0 2.147.333 2.8 1 .667.653 1 1.587 1 2.8v6.4h-2.8v-6.4c0-.627-.133-1.1-.4-1.42-.267-.32-.633-.48-1.1-.48-.44 0-.86.2-1.26.6-.133.16-.28.36-.44.6v7.1h-2.8v-10zm15.604 14.2c-.893 0-1.74-.167-2.54-.5a5.565 5.565 0 01-.96-.5l.9-1.6h.2c.173.147.367.28.58.4.467.267 1.007.4 1.62.4.653 0 1.167-.193 1.54-.58.373-.373.56-.913.56-1.62v-.6a2.32 2.32 0 01-.56.3c-.48.2-.96.3-1.44.3-1.293 0-2.32-.44-3.08-1.32-.747-.88-1.12-2.173-1.12-3.88 0-1.693.367-2.98 1.1-3.86.733-.893 1.7-1.34 2.9-1.34.72 0 1.393.233 2.02.7.267.227.493.46.68.7h.1l.2-1.2h2v10.2c0 .773-.187 1.46-.56 2.06-.373.613-.913 1.087-1.62 1.42-.707.347-1.547.52-2.52.52zm.4-5.8c.4 0 .76-.1 1.08-.3.147-.08.287-.18.42-.3v-4.9c-.16-.24-.307-.44-.44-.6-.4-.4-.82-.6-1.26-.6-.507 0-.92.26-1.24.78-.307.52-.46 1.36-.46 2.52 0 1.227.167 2.1.5 2.62.333.52.8.78 1.4.78zm18.887 1.8c-.786 0-1.46-.233-2.02-.7a3.071 3.071 0 01-.68-.7h-.1l-.2 1.2h-2v-13.2l.8-.8h2v4.4c.134-.093.314-.193.54-.3.48-.2.967-.3 1.46-.3 1.294 0 2.314.44 3.06 1.32.76.88 1.14 2.173 1.14 3.88 0 1.693-.366 2.987-1.1 3.88-.733.88-1.7 1.32-2.9 1.32zm-.5-1.9c.507 0 .914-.26 1.22-.78.32-.52.48-1.36.48-2.52 0-1.227-.166-2.1-.5-2.62-.333-.52-.8-.78-1.4-.78-.346 0-.706.1-1.08.3l-.42.3v4.9c.16.24.307.44.44.6.4.4.82.6 1.26.6zm8.592 5.9c-.534 0-1.054-.1-1.56-.3a2.364 2.364 0 01-.64-.3l.7-1.7h.2c.133.133.24.22.32.26.253.16.513.24.78.24.32 0 .613-.12.88-.36.266-.24.46-.587.58-1.04l.28-1h-.76l-3.3-10h2.62l2 6.5c.053.213.093.447.12.7l.04.4h.08l.04-.4c.026-.253.066-.487.12-.7l1.7-6.5h2.8l-3.3 11c-.667 2.133-1.9 3.2-3.7 3.2zm20.594-4c-1.814 0-3.2-.58-4.16-1.74-.96-1.16-1.44-2.98-1.44-5.46 0-2.467.466-4.28 1.4-5.44.946-1.173 2.28-1.76 4-1.76 1.013 0 1.92.187 2.72.56.36.147.686.327.98.54l-.9 1.6h-.2a3.742 3.742 0 00-.64-.44c-.587-.307-1.174-.46-1.76-.46-.88 0-1.567.407-2.06 1.22-.494.813-.74 2.207-.74 4.18 0 1.987.253 3.387.76 4.2.52.8 1.266 1.2 2.24 1.2.613 0 1.2-.147 1.76-.44.293-.173.506-.327.64-.46h.2l.9 1.6c-.267.213-.594.4-.98.56-.774.36-1.68.54-2.72.54zm9.512 0c-1.48 0-2.62-.433-3.42-1.3-.787-.867-1.18-2.167-1.18-3.9s.393-3.033 1.18-3.9c.8-.867 1.94-1.3 3.42-1.3s2.613.433 3.4 1.3c.8.867 1.2 2.167 1.2 3.9s-.4 3.033-1.2 3.9c-.787.867-1.92 1.3-3.4 1.3zm0-1.8c1.2 0 1.8-1.133 1.8-3.4s-.6-3.4-1.8-3.4c-1.2 0-1.8 1.133-1.8 3.4s.6 3.4 1.8 3.4zm7.201-8.4h2l.2 1.2h.1a4.19 4.19 0 01.64-.7c.573-.467 1.193-.7 1.86-.7.813 0 1.493.233 2.04.7.24.227.427.46.56.7.187-.227.447-.46.78-.7.747-.467 1.487-.7 2.22-.7 1.12 0 2 .333 2.64 1 .64.667.96 1.6.96 2.8v6.4h-2.8v-6.4c0-.613-.127-1.08-.38-1.4-.24-.333-.547-.5-.92-.5-.36 0-.72.167-1.08.5-.093.093-.233.26-.42.5v7.3h-2.8v-6.4c0-.613-.127-1.08-.38-1.4-.24-.333-.547-.5-.92-.5-.427 0-.8.2-1.12.6a3.36 3.36 0 00-.38.6v7.1h-2.8v-10zm17.099 0h2l.2 1.2h.1a4.19 4.19 0 01.64-.7c.573-.467 1.193-.7 1.86-.7.813 0 1.493.233 2.04.7.24.227.427.46.56.7.187-.227.447-.46.78-.7.747-.467 1.487-.7 2.22-.7 1.12 0 2 .333 2.64 1 .64.667.96 1.6.96 2.8v6.4h-2.8v-6.4c0-.613-.127-1.08-.38-1.4-.24-.333-.547-.5-.92-.5-.36 0-.72.167-1.08.5-.093.093-.233.26-.42.5v7.3h-2.8v-6.4c0-.613-.127-1.08-.38-1.4-.24-.333-.547-.5-.92-.5-.427 0-.8.2-1.12.6a3.36 3.36 0 00-.38.6v7.1h-2.8v-10zm20.899 10.2c-1.213 0-2.153-.327-2.82-.98-.653-.667-.98-1.607-.98-2.82v-6.4h2.8v6.4c0 .627.134 1.1.4 1.42.267.32.634.48 1.1.48.44 0 .86-.2 1.26-.6.134-.16.28-.36.44-.6v-7.1h2.8v10h-2l-.2-1.2h-.1a3.764 3.764 0 01-.68.7c-.56.467-1.233.7-2.02.7zm8.202-10.2h2l.2 1.2h.1c.133-.2.36-.433.68-.7.627-.467 1.3-.7 2.02-.7 1.213 0 2.147.333 2.8 1 .667.653 1 1.587 1 2.8v6.4h-2.8v-6.4c0-.627-.133-1.1-.4-1.42-.267-.32-.633-.48-1.1-.48-.44 0-.86.2-1.26.6-.133.16-.28.36-.44.6v7.1h-2.8v-10zm13.304-1.3c-.4 0-.754-.147-1.06-.44a1.486 1.486 0 01-.44-1.06c0-.4.146-.747.44-1.04.306-.307.66-.46 1.06-.46s.746.153 1.04.46c.306.293.46.64.46 1.04s-.154.753-.46 1.06c-.294.293-.64.44-1.04.44zm-1.4 11.3v-10h2.8v10h-2.8zm9.905.2c-1.146 0-2.053-.313-2.72-.94-.653-.627-.98-1.447-.98-2.46v-5h-1.3v-1.2l3-3h1.1v2.4h2.3v1.8h-2.3v5c0 .533.1.933.3 1.2.2.267.467.4.8.4.4 0 .794-.133 1.18-.4a6.52 6.52 0 00.52-.4h.2l.9 1.6a5.819 5.819 0 01-.9.5c-.72.333-1.42.5-2.1.5zm5.91 4c-.533 0-1.053-.1-1.56-.3a2.393 2.393 0 01-.64-.3l.7-1.7h.2c.134.133.24.22.32.26.254.16.514.24.78.24.32 0 .614-.12.88-.36.267-.24.46-.587.58-1.04l.28-1h-.76l-3.3-10h2.62l2 6.5c.054.213.094.447.12.7l.04.4h.08l.04-.4a5.19 5.19 0 01.12-.7l1.7-6.5h2.8l-3.3 11c-.666 2.133-1.9 3.2-3.7 3.2z" fill="#000"/><path d="M97.71 224.5v-11.232c.682-.032 1.27-.059 1.76-.08.501-.021.922-.032 1.264-.032.341-.011.608-.016.8-.016.949 0 1.728.069 2.336.208.608.139 1.088.357 1.44.656.352.299.597.688.736 1.168.149.48.224 1.061.224 1.744 0 .715-.08 1.328-.24 1.84-.15.501-.395.912-.736 1.232-.331.32-.768.555-1.312.704-.534.149-1.184.224-1.952.224h-1.44a6.18 6.18 0 00-.48-.016c-.17-.011-.374-.021-.608-.032v3.632H97.71zm1.792-9.856v4.784c.202.011.39.021.56.032.17 0 .33.005.48.016h.96c.586 0 1.072-.043 1.456-.128.384-.096.682-.245.896-.448.224-.203.378-.469.464-.8.096-.331.144-.731.144-1.2 0-.427-.043-.784-.128-1.072a1.497 1.497 0 00-.432-.704c-.203-.192-.486-.331-.848-.416-.363-.096-.822-.144-1.376-.144a5.24 5.24 0 00-.416.016c-.128 0-.272.005-.432.016-.16 0-.347.005-.56.016-.214.011-.47.021-.768.032zm9.968 1.232v1.056c.309-.288.597-.517.864-.688a3.28 3.28 0 01.832-.4c.277-.085.57-.128.88-.128a4.517 4.517 0 011.2.176l-.288 1.584a3.64 3.64 0 00-.592-.112 2.936 2.936 0 00-1.616.16c-.352.139-.731.373-1.136.704v6.272h-1.712v-8.624h1.568zm4.18 4.304c0-.747.064-1.397.192-1.952.139-.555.358-1.013.656-1.376.299-.373.699-.656 1.2-.848.502-.192 1.12-.288 1.856-.288s1.355.096 1.856.288c.502.192.902.475 1.2.848.299.363.512.821.64 1.376.139.555.208 1.205.208 1.952 0 .757-.074 1.419-.224 1.984-.138.565-.362 1.035-.672 1.408a2.81 2.81 0 01-1.216.816c-.49.181-1.088.272-1.792.272s-1.306-.091-1.808-.272a2.834 2.834 0 01-1.2-.816c-.309-.373-.538-.843-.688-1.408-.138-.565-.208-1.227-.208-1.984zm1.776 0c0 .779.07 1.397.208 1.856.15.459.379.789.688.992.32.203.731.304 1.232.304.502 0 .907-.101 1.216-.304.31-.203.534-.533.672-.992.15-.459.224-1.077.224-1.856 0-.779-.064-1.392-.192-1.84-.128-.459-.352-.784-.672-.976-.309-.203-.725-.304-1.248-.304-.533 0-.954.101-1.264.304-.309.192-.533.517-.672.976-.128.448-.192 1.061-.192 1.84zm8.334 4.32v-6.896h-1.296v-1.152l1.296-.128v-.176c0-.811.144-1.483.432-2.016a2.813 2.813 0 011.296-1.216c.566-.277 1.259-.416 2.08-.416.278 0 .576.016.896.048.32.032.646.085.976.16.331.075.651.165.96.272l-.416 1.264a4.563 4.563 0 00-.576-.16 9.416 9.416 0 00-.592-.112 5.368 5.368 0 00-.576-.064 4.713 4.713 0 00-.544-.032c-.746 0-1.306.192-1.68.576-.362.373-.544.96-.544 1.76v.112h4.656v8.176H128.4v-6.896h-2.928v6.896h-1.712zm11.61.16c-.544 0-.997-.101-1.36-.304a1.886 1.886 0 01-.816-.928c-.171-.427-.256-.96-.256-1.6v-4.656h-1.408v-1.152l1.408-.144.224-1.968h1.504v1.968h2.656v1.296h-2.656v4.528c0 .523.101.901.304 1.136.203.235.528.352.976.352.224 0 .453-.021.688-.064.245-.053.496-.112.752-.176l.24 1.328c-.405.139-.8.235-1.184.288a6.543 6.543 0 01-1.072.096zm9.809-8.784v1.056c.309-.288.597-.517.864-.688.277-.181.555-.315.832-.4.277-.085.571-.128.88-.128a4.481 4.481 0 011.2.176l-.288 1.584a3.62 3.62 0 00-.592-.112 2.944 2.944 0 00-1.616.16c-.352.139-.731.373-1.136.704v6.272h-1.712v-8.624h1.568zm4.116 6.464c0-.523.101-.949.304-1.28.213-.341.533-.608.96-.8.426-.203.96-.357 1.6-.464.64-.117 1.381-.208 2.224-.272v-.992c0-.437-.155-.768-.464-.992-.299-.224-.742-.336-1.328-.336a8.812 8.812 0 00-1.584.144 7.472 7.472 0 00-.912.224l-.288-1.392a8.847 8.847 0 011.456-.336 8.821 8.821 0 011.44-.128c.778 0 1.418.107 1.92.32.512.203.89.512 1.136.928.256.416.384.933.384 1.552v3.808c0 .32.048.539.144.656a.47.47 0 00.368.16c.053 0 .117-.005.192-.016a.912.912 0 00.224-.064l.16 1.28a2.366 2.366 0 01-.56.224 2.172 2.172 0 01-.656.096c-.406 0-.731-.091-.976-.272-.235-.192-.395-.48-.48-.864a8.645 8.645 0 01-.864.576c-.299.171-.63.304-.992.4-.352.107-.742.16-1.168.16-.342 0-.651-.053-.928-.16a1.985 1.985 0 01-.704-.432 2.124 2.124 0 01-.448-.736 2.84 2.84 0 01-.16-.992zm1.76-.128c0 .416.101.725.304.928.202.203.474.304.816.304.256 0 .517-.037.784-.112.266-.085.522-.197.768-.336.256-.149.474-.325.656-.528v-1.952c-.512.043-.971.096-1.376.16a4.43 4.43 0 00-1.056.288 1.598 1.598 0 00-.672.48c-.15.203-.224.459-.224.768zm10.267 2.448c-.544 0-.997-.101-1.36-.304a1.886 1.886 0 01-.816-.928c-.171-.427-.256-.96-.256-1.6v-4.656h-1.408v-1.152l1.408-.144.224-1.968h1.504v1.968h2.656v1.296h-2.656v4.528c0 .523.101.901.304 1.136.203.235.528.352.976.352.224 0 .453-.021.688-.064.245-.053.496-.112.752-.176l.24 1.328c-.405.139-.8.235-1.184.288a6.543 6.543 0 01-1.072.096zm6.909 0c-.629 0-1.184-.08-1.664-.24a3.299 3.299 0 01-1.216-.768c-.33-.341-.581-.779-.752-1.312-.17-.544-.256-1.184-.256-1.92 0-.864.102-1.595.304-2.192.214-.608.502-1.093.864-1.456.374-.373.806-.64 1.296-.8a5.03 5.03 0 011.632-.256c1.152 0 2 .299 2.544.896.555.597.832 1.568.832 2.912 0 .075-.005.181-.016.32v.384l-.944.08a64.285 64.285 0 01-2.896.176c-.576.021-1.178.037-1.808.048a.634.634 0 00-.016.144v.144c0 .587.091 1.061.272 1.424.182.352.448.613.8.784.352.16.795.24 1.328.24.32 0 .651-.016.992-.048.352-.043.694-.091 1.024-.144.331-.064.646-.133.944-.208l.224 1.296c-.32.096-.666.187-1.04.272a9.273 9.273 0 01-1.152.16c-.405.043-.837.064-1.296.064zm-2.064-5.296c.448 0 .875-.005 1.28-.016.416-.021.8-.043 1.152-.064.352-.021.651-.037.896-.048l.576-.048c-.01-.533-.08-.96-.208-1.28-.128-.32-.32-.549-.576-.688-.256-.149-.581-.224-.976-.224-.245 0-.485.037-.72.112a1.63 1.63 0 00-.656.368c-.192.171-.357.411-.496.72-.138.299-.229.688-.272 1.168z" fill="#0E6178"/><path opacity=".2" d="M0 134.5a134.5 134.5 0 11269 0h-40.35a94.14 94.14 0 00-27.576-66.574A94.162 94.162 0 00134.5 40.35a94.15 94.15 0 00-94.15 94.15H0z" fill="#000"/><path d="M0 134.5A134.502 134.502 0 0157.447 24.26l23.116 33.072A94.15 94.15 0 0040.35 134.5H0z" fill="url(#paint0_linear_314_1595)"/><defs><linearGradient id="paint0_linear_314_1595" x1="-36.906" y1="307.108" x2="355.37" y2="262.625" gradientUnits="userSpaceOnUse"><stop stop-color="#3AD3DF"/><stop offset="1" stop-color="#5AEFFB"/></linearGradient></defs></svg>