<svg width="269" height="286" fill="none" xmlns="http://www.w3.org/2000/svg"><path d="M66.42 149.5v-7.584h8.015v-15.648l-7.008 2.496-1.92-8.064 13.68-4.848h4.8v26.064h6.864v7.584H66.42zm29.098-16.8c0-3.296.336-6.048 1.008-8.256.672-2.24 1.632-4.016 2.88-5.328 1.28-1.312 2.816-2.256 4.608-2.832 1.792-.576 3.792-.864 6-.864 2.304 0 4.352.288 6.144.864 1.792.576 3.312 1.536 4.56 2.88 1.248 1.312 2.192 3.088 2.832 5.328.672 2.208 1.008 4.944 1.008 8.208 0 3.264-.352 6.016-1.056 8.256-.672 2.208-1.648 3.968-2.928 5.28-1.28 1.312-2.816 2.272-4.608 2.88-1.76.576-3.744.864-5.952.864-2.176 0-4.16-.288-5.952-.864-1.792-.576-3.328-1.52-4.608-2.832-1.28-1.344-2.256-3.12-2.928-5.328-.672-2.24-1.008-4.992-1.008-8.256zm9.744.336c0 2.08.112 3.776.336 5.088.224 1.28.544 2.24.96 2.88.448.64.96 1.088 1.536 1.344a5.51 5.51 0 001.92.336c.704 0 1.344-.112 1.92-.336.608-.256 1.12-.704 1.536-1.344.448-.64.784-1.6 1.008-2.88.224-1.312.336-3.008.336-5.088 0-2.304-.128-4.144-.384-5.52-.224-1.376-.56-2.4-1.008-3.072-.416-.704-.912-1.168-1.488-1.392a5.258 5.258 0 00-1.92-.336 5.12 5.12 0 00-1.872.336c-.576.224-1.088.688-1.536 1.392-.416.672-.752 1.696-1.008 3.072-.224 1.376-.336 3.216-.336 5.52zm22.763-.336c0-3.296.336-6.048 1.008-8.256.672-2.24 1.632-4.016 2.88-5.328 1.28-1.312 2.816-2.256 4.608-2.832 1.792-.576 3.792-.864 6-.864 2.304 0 4.352.288 6.144.864 1.792.576 3.312 1.536 4.56 2.88 1.248 1.312 2.192 3.088 2.832 5.328.672 2.208 1.008 4.944 1.008 8.208 0 3.264-.352 6.016-1.056 8.256-.672 2.208-1.648 3.968-2.928 5.28-1.28 1.312-2.816 2.272-4.608 2.88-1.76.576-3.744.864-5.952.864-2.176 0-4.16-.288-5.952-.864-1.792-.576-3.328-1.52-4.608-2.832-1.28-1.344-2.256-3.12-2.928-5.328-.672-2.24-1.008-4.992-1.008-8.256zm9.744.336c0 2.08.112 3.776.336 5.088.224 1.28.544 2.24.96 2.88.448.64.96 1.088 1.536 1.344a5.51 5.51 0 001.92.336c.704 0 1.344-.112 1.92-.336.608-.256 1.12-.704 1.536-1.344.448-.64.784-1.6 1.008-2.88.224-1.312.336-3.008.336-5.088 0-2.304-.128-4.144-.384-5.52-.224-1.376-.56-2.4-1.008-3.072-.416-.704-.912-1.168-1.488-1.392a5.258 5.258 0 00-1.92-.336 5.12 5.12 0 00-1.872.336c-.576.224-1.088.688-1.536 1.392-.416.672-.752 1.696-1.008 3.072-.224 1.376-.336 3.216-.336 5.52zm22.859-7.776c0-1.92.208-3.52.624-4.8.448-1.28 1.072-2.288 1.872-3.024.832-.736 1.84-1.264 3.024-1.584 1.184-.32 2.528-.48 4.032-.48s2.848.16 4.032.48c1.184.32 2.176.864 2.976 1.632.8.736 1.392 1.744 1.776 3.024.416 1.28.624 2.864.624 4.752 0 1.856-.208 3.408-.624 4.656-.416 1.248-1.04 2.256-1.872 3.024-.832.768-1.824 1.328-2.976 1.68-1.152.32-2.464.48-3.936.48-1.504 0-2.848-.16-4.032-.48-1.184-.352-2.192-.896-3.024-1.632-.8-.768-1.424-1.776-1.872-3.024-.416-1.28-.624-2.848-.624-4.704zm7.008.144c0 1.536.096 2.688.288 3.456.192.736.48 1.232.864 1.488.384.224.848.336 1.392.336.544 0 .992-.112 1.344-.336.384-.256.656-.752.816-1.488.192-.768.288-1.92.288-3.456 0-1.728-.096-2.992-.288-3.792-.192-.8-.48-1.296-.864-1.488-.352-.224-.784-.336-1.296-.336-.544 0-1.008.112-1.392.336-.352.224-.64.736-.864 1.536-.192.8-.288 2.048-.288 3.744zm9.6 24.336l-5.952-.048 18.096-34.704 5.952.048-18.096 34.704zm9.648-9.648c0-1.92.208-3.52.624-4.8.448-1.28 1.072-2.288 1.872-3.024.832-.736 1.84-1.264 3.024-1.584 1.184-.32 2.528-.48 4.032-.48s2.848.16 4.032.48c1.184.32 2.176.864 2.976 1.632.8.736 1.392 1.744 1.776 3.024.416 1.28.624 2.864.624 4.752 0 1.856-.208 3.408-.624 4.656-.416 1.248-1.04 2.256-1.872 3.024-.832.768-1.824 1.328-2.976 1.68-1.152.32-2.464.48-3.936.48-1.504 0-2.848-.16-4.032-.48-1.184-.352-2.192-.896-3.024-1.632-.8-.768-1.424-1.776-1.872-3.024-.416-1.28-.624-2.848-.624-4.704zm7.008.144c0 1.536.096 2.688.288 3.456.192.736.48 1.232.864 1.488.384.224.848.336 1.392.336.544 0 .992-.112 1.344-.336.384-.256.656-.752.816-1.488.192-.768.288-1.92.288-3.456 0-1.728-.096-2.992-.288-3.792-.192-.8-.48-1.296-.864-1.488-.352-.224-.784-.336-1.296-.336-.544 0-1.008.112-1.392.336-.352.224-.64.736-.864 1.536-.192.8-.288 2.048-.288 3.744z" fill="#1F8088"/><path d="M4.684 193.5v-12.2h-3.5v-1.8h9.8v1.8h-3.5v12.2h-2.8zm11.7.2c-3.334 0-5-1.733-5-5.2 0-1.707.386-3 1.16-3.88.773-.88 1.853-1.32 3.24-1.32 1.373 0 2.446.427 3.22 1.28.786.853 1.18 2.093 1.18 3.72v.5l-.6.6h-5.4c0 1.667.8 2.5 2.4 2.5.56 0 1.073-.133 1.54-.4.186-.093.373-.227.56-.4h.2l.9 1.6a6.766 6.766 0 01-.96.5c-.8.333-1.614.5-2.44.5zm1-6.1c0-.8-.16-1.413-.48-1.84-.307-.44-.68-.66-1.12-.66-.44 0-.82.22-1.14.66-.307.427-.46 1.04-.46 1.84h3.2zm9.69 6.1c-3.266 0-4.9-1.733-4.9-5.2 0-1.733.4-3.033 1.2-3.9.8-.867 1.967-1.3 3.5-1.3.76 0 1.574.167 2.44.5.267.107.587.273.96.5l-.9 1.6h-.2a2.429 2.429 0 00-.56-.4c-.466-.267-.98-.4-1.54-.4-.68 0-1.2.26-1.56.78-.36.507-.54 1.38-.54 2.62 0 1.253.187 2.133.56 2.64.374.507.954.76 1.74.76.56 0 1.074-.133 1.54-.4.187-.093.374-.227.56-.4h.2l.9 1.6a6.766 6.766 0 01-.96.5c-.8.333-1.613.5-2.44.5zm5.592-13.4l.8-.8h2v4.7c.134-.133.327-.28.58-.44.534-.307 1.074-.46 1.62-.46 1.214 0 2.147.333 2.8 1 .667.653 1 1.587 1 2.8v6.4h-2.8v-6.4c0-.627-.133-1.1-.4-1.42-.266-.32-.633-.48-1.1-.48-.44 0-.86.2-1.26.6-.133.16-.28.36-.44.6v7.1h-2.8v-13.2zm21.4 13.4c-1.173 0-2.086-.28-2.74-.84-.64-.573-.96-1.327-.96-2.26 0-1 .36-1.78 1.08-2.34.734-.573 1.874-.86 3.42-.86h1.4v-.3c0-.707-.153-1.213-.46-1.52-.306-.32-.786-.48-1.44-.48-.56 0-1.073.133-1.54.4a2.431 2.431 0 00-.56.4h-.2l-.9-1.6c.32-.213.634-.38.94-.5.867-.333 1.687-.5 2.46-.5.934 0 1.74.167 2.42.5.68.32 1.194.767 1.54 1.34.36.573.54 1.227.54 1.96v6.4h-2l-.2-1.2h-.1a3.796 3.796 0 01-.68.7c-.56.467-1.233.7-2.02.7zm.5-1.9c.414 0 .82-.2 1.22-.6.187-.187.347-.387.48-.6v-1.4h-1.4c-1.133 0-1.7.467-1.7 1.4 0 .36.12.653.36.88.254.213.6.32 1.04.32zm7.601-8.3h2l.2 1.2h.1c.133-.2.36-.433.68-.7.627-.467 1.3-.7 2.02-.7 1.213 0 2.147.333 2.8 1 .667.653 1 1.587 1 2.8v6.4h-2.8v-6.4c0-.627-.133-1.1-.4-1.42-.266-.32-.633-.48-1.1-.48-.44 0-.86.2-1.26.6-.133.16-.28.36-.44.6v7.1h-2.8v-10zm15.304 10.2c-1.2 0-2.167-.44-2.9-1.32-.733-.893-1.1-2.187-1.1-3.88 0-1.707.373-3 1.12-3.88.76-.88 1.787-1.32 3.08-1.32.28 0 .52.027.72.08.213.053.453.127.72.22l.56.3v-3.6l.8-.8h2v14h-2l-.2-1.2h-.1a3.796 3.796 0 01-.68.7c-.56.467-1.233.7-2.02.7zm.5-1.9c.44 0 .86-.2 1.26-.6.133-.16.28-.36.44-.6v-4.9l-.42-.3c-.373-.2-.733-.3-1.08-.3-.6 0-1.067.26-1.4.78-.333.52-.5 1.393-.5 2.62 0 1.16.153 2 .46 2.52.32.52.733.78 1.24.78zm14.388-12.3h2.7l3.9 7.9c.133.293.22.513.26.66l.1.34h.08l.1-.34c.04-.147.126-.367.26-.66l3.9-7.9h2.7v14h-2.8v-8.3c0-.413.013-.707.04-.88l.06-.44h-.08a6.988 6.988 0 01-.14.44c-.16.4-.287.693-.38.88l-3.1 6h-1.4l-2.9-5.8c-.16-.333-.287-.627-.38-.88a6.35 6.35 0 01-.14-.44h-.08l.04.44c.04.52.06.813.06.88v8.1h-2.8v-14zm20.602 14.2c-1.173 0-2.087-.28-2.74-.84-.64-.573-.96-1.327-.96-2.26 0-1 .36-1.78 1.08-2.34.733-.573 1.873-.86 3.42-.86h1.4v-.3c0-.707-.153-1.213-.46-1.52-.307-.32-.787-.48-1.44-.48-.56 0-1.073.133-1.54.4a2.431 2.431 0 00-.56.4h-.2l-.9-1.6c.32-.213.633-.38.94-.5.867-.333 1.687-.5 2.46-.5.933 0 1.74.167 2.42.5.68.32 1.193.767 1.54 1.34.36.573.54 1.227.54 1.96v6.4h-2l-.2-1.2h-.1a3.796 3.796 0 01-.68.7c-.56.467-1.233.7-2.02.7zm.5-1.9c.413 0 .82-.2 1.22-.6a3.38 3.38 0 00.48-.6v-1.4h-1.4c-1.133 0-1.7.467-1.7 1.4 0 .36.12.653.36.88.253.213.6.32 1.04.32zm7.601-8.3h2l.2 1.2h.1c.133-.2.36-.433.68-.7.626-.467 1.3-.7 2.02-.7.346 0 .686.033 1.02.1.213.053.373.087.48.1l-.4 2h-.2a2.47 2.47 0 01-.44-.1 4.32 4.32 0 00-.96-.1c-.44 0-.86.2-1.26.6-.134.16-.28.36-.44.6v7h-2.8v-10zm8.29 10v-13.2l.8-.8h2v8.3l2.6-4.3h3.1l-3.2 4.8 3.4 5.2h-3.1l-2.8-4.7v4.7h-2.8zm14.996.2c-3.334 0-5-1.733-5-5.2 0-1.707.386-3 1.16-3.88.773-.88 1.853-1.32 3.24-1.32 1.373 0 2.446.427 3.22 1.28.786.853 1.18 2.093 1.18 3.72v.5l-.6.6h-5.4c0 1.667.8 2.5 2.4 2.5.56 0 1.073-.133 1.54-.4.186-.093.373-.227.56-.4h.2l.9 1.6a6.842 6.842 0 01-.96.5 6.3 6.3 0 01-2.44.5zm1-6.1c0-.8-.16-1.413-.48-1.84-.307-.44-.68-.66-1.12-.66-.44 0-.82.22-1.14.66-.307.427-.46 1.04-.46 1.84h3.2zm9.29 6.1c-1.146 0-2.053-.313-2.72-.94-.653-.627-.98-1.447-.98-2.46v-5h-1.3v-1.2l3-3h1.1v2.4h2.3v1.8h-2.3v5c0 .533.1.933.3 1.2.2.267.467.4.8.4.4 0 .794-.133 1.18-.4a6.52 6.52 0 00.52-.4h.2l.9 1.6a5.819 5.819 0 01-.9.5c-.72.333-1.42.5-2.1.5zm6.201-11.5c-.4 0-.753-.147-1.06-.44a1.49 1.49 0 01-.44-1.06c0-.4.147-.747.44-1.04.307-.307.66-.46 1.06-.46s.747.153 1.04.46c.307.293.46.64.46 1.04s-.153.753-.46 1.06c-.293.293-.64.44-1.04.44zm-1.4 11.3v-10h2.8v10h-2.8zm6.006-10h2l.2 1.2h.1c.133-.2.36-.433.68-.7.626-.467 1.3-.7 2.02-.7 1.213 0 2.146.333 2.8 1 .666.653 1 1.587 1 2.8v6.4h-2.8v-6.4c0-.627-.134-1.1-.4-1.42-.267-.32-.634-.48-1.1-.48-.44 0-.86.2-1.26.6-.134.16-.28.36-.44.6v7.1h-2.8v-10zm15.603 14.2c-.893 0-1.74-.167-2.54-.5a5.616 5.616 0 01-.96-.5l.9-1.6h.2c.174.147.367.28.58.4.467.267 1.007.4 1.62.4.654 0 1.167-.193 1.54-.58.374-.373.56-.913.56-1.62v-.6a2.302 2.302 0 01-.56.3c-.48.2-.96.3-1.44.3-1.293 0-2.32-.44-3.08-1.32-.746-.88-1.12-2.173-1.12-3.88 0-1.693.367-2.98 1.1-3.86.734-.893 1.7-1.34 2.9-1.34.72 0 1.394.233 2.02.7.267.227.494.46.68.7h.1l.2-1.2h2v10.2c0 .773-.186 1.46-.56 2.06-.373.613-.913 1.087-1.62 1.42-.706.347-1.546.52-2.52.52zm.4-5.8c.4 0 .76-.1 1.08-.3.147-.08.287-.18.42-.3v-4.9c-.16-.24-.306-.44-.44-.6-.4-.4-.82-.6-1.26-.6-.506 0-.92.26-1.24.78-.306.52-.46 1.36-.46 2.52 0 1.227.167 2.1.5 2.62.334.52.8.78 1.4.78zm17.488 1.8c-1.293 0-2.373-.18-3.24-.54-.453-.173-.807-.36-1.06-.56l.9-1.6h.2c.173.147.413.3.72.46.64.293 1.4.44 2.28.44.787 0 1.38-.18 1.78-.54.413-.36.62-.847.62-1.46 0-.387-.113-.72-.34-1a2.911 2.911 0 00-.86-.74c-.347-.213-.82-.46-1.42-.74a17.98 17.98 0 01-1.96-1.04 4.637 4.637 0 01-1.3-1.3c-.347-.533-.52-1.193-.52-1.98 0-.707.187-1.347.56-1.92.373-.587.913-1.047 1.62-1.38.707-.333 1.547-.5 2.52-.5 1.173 0 2.193.187 3.06.56a4.81 4.81 0 011.04.54l-.9 1.6h-.2a5.045 5.045 0 00-.68-.44 4.838 4.838 0 00-2.12-.46c-.587 0-1.087.187-1.5.56-.4.36-.6.773-.6 1.24 0 .387.113.727.34 1.02.227.28.513.527.86.74.347.2.82.44 1.42.72.8.373 1.453.727 1.96 1.06.507.32.933.747 1.28 1.28.36.533.54 1.193.54 1.98 0 .773-.193 1.467-.58 2.08-.373.6-.94 1.073-1.7 1.42-.747.333-1.653.5-2.72.5zm11.303 0c-1.213 0-2.153-.327-2.82-.98-.653-.667-.98-1.607-.98-2.82v-6.4h2.8v6.4c0 .627.133 1.1.4 1.42.267.32.633.48 1.1.48.44 0 .86-.2 1.26-.6.133-.16.28-.36.44-.6v-7.1h2.8v10h-2l-.2-1.2h-.1a3.796 3.796 0 01-.68.7c-.56.467-1.233.7-2.02.7zm8.202-10.2h2l.2 1.2h.1c.133-.2.36-.433.68-.7.626-.467 1.3-.7 2.02-.7 1.2 0 2.166.447 2.9 1.34.733.88 1.1 2.167 1.1 3.86 0 1.707-.38 3-1.14 3.88-.747.88-1.767 1.32-3.06 1.32-.547 0-1.034-.1-1.46-.3a1.88 1.88 0 01-.54-.3v3.6l-.8.8h-2v-14zm4.3 8.4c.6 0 1.066-.26 1.4-.78.333-.52.5-1.393.5-2.62 0-1.16-.16-2-.48-2.52-.307-.52-.714-.78-1.22-.78-.44 0-.86.2-1.26.6-.134.16-.28.36-.44.6v4.9c.146.12.286.22.42.3.32.2.68.3 1.08.3zm7.291-8.4h2l.2 1.2h.1c.133-.2.36-.433.68-.7.627-.467 1.3-.7 2.02-.7 1.2 0 2.167.447 2.9 1.34.733.88 1.1 2.167 1.1 3.86 0 1.707-.38 3-1.14 3.88-.747.88-1.767 1.32-3.06 1.32-.547 0-1.033-.1-1.46-.3a1.906 1.906 0 01-.54-.3v3.6l-.8.8h-2v-14zm4.3 8.4c.6 0 1.067-.26 1.4-.78.333-.52.5-1.393.5-2.62 0-1.16-.16-2-.48-2.52-.307-.52-.713-.78-1.22-.78-.44 0-.86.2-1.26.6-.133.16-.28.36-.44.6v4.9c.147.12.287.22.42.3.32.2.68.3 1.08.3zm11.291 1.8c-1.48 0-2.62-.433-3.42-1.3-.786-.867-1.18-2.167-1.18-3.9s.394-3.033 1.18-3.9c.8-.867 1.94-1.3 3.42-1.3s2.614.433 3.4 1.3c.8.867 1.2 2.167 1.2 3.9s-.4 3.033-1.2 3.9c-.786.867-1.92 1.3-3.4 1.3zm0-1.8c1.2 0 1.8-1.133 1.8-3.4s-.6-3.4-1.8-3.4c-1.2 0-1.8 1.133-1.8 3.4s.6 3.4 1.8 3.4zm7.201-8.4h2l.2 1.2h.1c.134-.2.36-.433.68-.7.627-.467 1.3-.7 2.02-.7.347 0 .687.033 1.02.1.214.053.374.087.48.1l-.4 2h-.2a2.489 2.489 0 01-.44-.1 4.307 4.307 0 00-.96-.1c-.44 0-.86.2-1.26.6-.133.16-.28.36-.44.6v7h-2.8v-10zm12.191 10.2c-1.147 0-2.053-.313-2.72-.94-.653-.627-.98-1.447-.98-2.46v-5h-1.3v-1.2l3-3h1.1v2.4h2.3v1.8h-2.3v5c0 .533.1.933.3 1.2.2.267.467.4.8.4.4 0 .793-.133 1.18-.4.173-.12.347-.253.52-.4h.2l.9 1.6a5.913 5.913 0 01-.9.5c-.72.333-1.42.5-2.1.5z" fill="#000"/><path d="M42.956 224.5v-1.424h3.424v-7.824l-3.248 1.536-.4-1.472 4.512-2.048h.896v9.808h2.88v1.424h-8.064zm9.397-5.6c0-1.109.107-2.032.32-2.768.214-.747.518-1.339.912-1.776a3.272 3.272 0 011.392-.928 5.402 5.402 0 011.808-.288c.672 0 1.28.096 1.824.288a3.092 3.092 0 011.392.944c.395.437.694 1.024.896 1.76.214.736.32 1.659.32 2.768 0 1.099-.112 2.021-.336 2.768-.213.736-.517 1.323-.912 1.76a3.278 3.278 0 01-1.392.944 5.351 5.351 0 01-1.792.288 5.702 5.702 0 01-1.808-.272 3.413 3.413 0 01-1.392-.944c-.384-.448-.688-1.04-.912-1.776-.213-.747-.32-1.669-.32-2.768zm1.776.048c0 .875.064 1.595.192 2.16.139.565.326 1.008.56 1.328.246.309.528.528.848.656a2.9 2.9 0 001.056.192c.374 0 .72-.064 1.04-.192.331-.128.614-.347.848-.656.246-.32.432-.763.56-1.328.139-.565.208-1.285.208-2.16 0-.907-.069-1.648-.208-2.224-.128-.587-.314-1.035-.56-1.344-.245-.32-.528-.544-.848-.672a2.775 2.775 0 00-1.04-.192c-.373 0-.72.064-1.04.192-.32.128-.602.352-.848.672-.245.309-.437.757-.576 1.344-.128.576-.192 1.317-.192 2.224zm8.31-.048c0-1.109.107-2.032.32-2.768.213-.747.517-1.339.912-1.776a3.272 3.272 0 011.392-.928 5.402 5.402 0 011.808-.288c.672 0 1.28.096 1.824.288a3.092 3.092 0 011.392.944c.395.437.693 1.024.896 1.76.213.736.32 1.659.32 2.768 0 1.099-.112 2.021-.336 2.768-.213.736-.517 1.323-.912 1.76a3.278 3.278 0 01-1.392.944 5.351 5.351 0 01-1.792.288 5.702 5.702 0 01-1.808-.272 3.413 3.413 0 01-1.392-.944c-.384-.448-.688-1.04-.912-1.776-.213-.747-.32-1.669-.32-2.768zm1.776.048c0 .875.064 1.595.192 2.16.139.565.325 1.008.56 1.328.245.309.528.528.848.656a2.9 2.9 0 001.056.192c.373 0 .72-.064 1.04-.192.33-.128.613-.347.848-.656.245-.32.432-.763.56-1.328.139-.565.208-1.285.208-2.16 0-.907-.07-1.648-.208-2.224-.128-.587-.315-1.035-.56-1.344-.245-.32-.528-.544-.848-.672a2.774 2.774 0 00-1.04-.192c-.373 0-.72.064-1.04.192-.32.128-.603.352-.848.672-.245.309-.437.757-.576 1.344-.128.576-.192 1.317-.192 2.224zm8.582-2.576c0-.64.064-1.173.192-1.6.138-.427.33-.763.576-1.008.245-.256.538-.432.88-.528.34-.107.725-.16 1.152-.16.426 0 .81.053 1.152.16.34.107.629.288.864.544.245.245.432.581.56 1.008.138.416.208.944.208 1.584 0 .629-.07 1.157-.208 1.584-.128.416-.315.752-.56 1.008a2.27 2.27 0 01-.88.544c-.342.107-.72.16-1.136.16-.427 0-.811-.053-1.152-.16a2.268 2.268 0 01-.88-.544c-.246-.256-.438-.592-.576-1.008-.128-.427-.192-.955-.192-1.584zm1.312.016c0 .651.064 1.152.192 1.504.128.341.304.576.528.704.224.128.48.192.768.192.288 0 .538-.064.752-.192.224-.128.4-.363.528-.704.128-.352.192-.853.192-1.504 0-.683-.064-1.195-.192-1.536-.128-.352-.304-.587-.528-.704a1.434 1.434 0 00-.752-.192 1.52 1.52 0 00-.768.192c-.224.117-.4.352-.528.704s-.192.864-.192 1.536zm3.136 8.24l-1.12-.064 5.824-11.744 1.12.064-5.824 11.744zm3.536-3.28c0-.64.064-1.173.192-1.6.138-.427.33-.763.576-1.008.245-.256.538-.432.88-.528.34-.107.725-.16 1.152-.16.426 0 .81.053 1.152.16.34.107.629.288.864.544.245.245.432.581.56 1.008.138.416.208.944.208 1.584 0 .629-.07 1.157-.208 1.584-.128.416-.315.752-.56 1.008a2.27 2.27 0 01-.88.544c-.342.107-.72.16-1.136.16-.427 0-.811-.053-1.152-.16a2.268 2.268 0 01-.88-.544c-.246-.256-.438-.592-.576-1.008-.128-.427-.192-.955-.192-1.584zm1.312.016c0 .651.064 1.152.192 1.504.128.341.304.576.528.704.224.128.48.192.768.192.288 0 .538-.064.752-.192.224-.128.4-.363.528-.704.128-.352.192-.853.192-1.504 0-.683-.064-1.195-.192-1.536-.128-.352-.304-.587-.528-.704a1.434 1.434 0 00-.752-.192 1.52 1.52 0 00-.768.192c-.224.117-.4.352-.528.704s-.192.864-.192 1.536zm10.848 6.496v-12.032h1.568l.048.832a6.06 6.06 0 011.424-.704 4.2 4.2 0 011.392-.24c.94 0 1.66.373 2.16 1.12.502.736.752 1.792.752 3.168 0 1.056-.144 1.931-.432 2.624-.288.693-.725 1.205-1.312 1.536-.586.331-1.328.496-2.224.496-.245 0-.506-.016-.784-.048a17.512 17.512 0 01-.864-.128v3.376h-1.728zm3.248-4.48c.534 0 .966-.101 1.296-.304.342-.213.592-.555.752-1.024.171-.48.256-1.109.256-1.888 0-.683-.069-1.243-.208-1.68-.138-.448-.34-.779-.608-.992-.256-.224-.576-.336-.96-.336-.213 0-.432.027-.656.08a2.812 2.812 0 00-.656.224c-.224.096-.469.229-.736.4v5.312c.3.064.571.117.816.16.246.032.48.048.704.048zm7.453-7.504v1.056c.309-.288.597-.517.864-.688.277-.181.555-.315.832-.4.277-.085.571-.128.88-.128a4.481 4.481 0 011.2.176l-.288 1.584a3.62 3.62 0 00-.592-.112 2.944 2.944 0 00-1.616.16c-.352.139-.731.373-1.136.704v6.272h-1.712v-8.624h1.568zm4.18 4.304c0-.747.064-1.397.192-1.952.139-.555.358-1.013.656-1.376.299-.373.699-.656 1.2-.848.502-.192 1.12-.288 1.856-.288s1.355.096 1.856.288c.502.192.902.475 1.2.848.299.363.512.821.64 1.376.139.555.208 1.205.208 1.952 0 .757-.074 1.419-.224 1.984-.138.565-.362 1.035-.672 1.408a2.81 2.81 0 01-1.216.816c-.49.181-1.088.272-1.792.272s-1.306-.091-1.808-.272a2.834 2.834 0 01-1.2-.816c-.309-.373-.538-.843-.688-1.408-.138-.565-.208-1.227-.208-1.984zm1.776 0c0 .779.07 1.397.208 1.856.15.459.379.789.688.992.32.203.731.304 1.232.304.502 0 .907-.101 1.216-.304.31-.203.534-.533.672-.992.15-.459.224-1.077.224-1.856 0-.779-.064-1.392-.192-1.84-.128-.459-.352-.784-.672-.976-.309-.203-.725-.304-1.248-.304-.533 0-.954.101-1.264.304-.309.192-.533.517-.672.976-.128.448-.192 1.061-.192 1.84zm7.819 4.08v-11.6h1.728v3.952a5.307 5.307 0 011.344-.672 4.237 4.237 0 011.344-.224c.939 0 1.659.363 2.16 1.088.501.725.752 1.781.752 3.168 0 1.099-.144 1.995-.432 2.688-.288.693-.736 1.2-1.344 1.52-.608.32-1.392.48-2.352.48-.459 0-.955-.037-1.488-.112a19.81 19.81 0 01-1.712-.288zm1.728-1.056c.299.064.571.112.816.144.245.032.48.048.704.048.533 0 .965-.107 1.296-.32.341-.213.592-.56.752-1.04.171-.491.256-1.136.256-1.936 0-.661-.069-1.205-.208-1.632-.139-.427-.341-.747-.608-.96-.256-.224-.576-.336-.96-.336-.213 0-.427.027-.64.08a3.115 3.115 0 00-.672.224 5.142 5.142 0 00-.736.4v5.328zm9.133-10.544v9.264c0 .341.037.603.112.784a.668.668 0 00.304.352.953.953 0 00.432.096 2.28 2.28 0 00.784-.144l.176 1.344a3.395 3.395 0 01-.656.208 3.101 3.101 0 01-.784.096c-.448 0-.832-.075-1.152-.224-.31-.16-.544-.427-.704-.8-.16-.384-.24-.907-.24-1.568v-9.408h1.728zm6.439 12c-.629 0-1.184-.08-1.664-.24a3.299 3.299 0 01-1.216-.768c-.33-.341-.581-.779-.752-1.312-.17-.544-.256-1.184-.256-1.92 0-.864.102-1.595.304-2.192.214-.608.502-1.093.864-1.456.374-.373.806-.64 1.296-.8a5.03 5.03 0 011.632-.256c1.152 0 2 .299 2.544.896.555.597.832 1.568.832 2.912 0 .075-.005.181-.016.32v.384l-.944.08a64.285 64.285 0 01-2.896.176c-.576.021-1.178.037-1.808.048a.634.634 0 00-.016.144v.144c0 .587.091 1.061.272 1.424.182.352.448.613.8.784.352.16.795.24 1.328.24.32 0 .651-.016.992-.048.352-.043.694-.091 1.024-.144.331-.064.646-.133.944-.208l.224 1.296c-.32.096-.666.187-1.04.272a9.273 9.273 0 01-1.152.16c-.405.043-.837.064-1.296.064zm-2.064-5.296c.448 0 .875-.005 1.28-.016.416-.021.8-.043 1.152-.064.352-.021.651-.037.896-.048l.576-.048c-.01-.533-.08-.96-.208-1.28-.128-.32-.32-.549-.576-.688-.256-.149-.581-.224-.976-.224-.245 0-.485.037-.72.112a1.63 1.63 0 00-.656.368c-.192.171-.357.411-.496.72-.138.299-.229.688-.272 1.168zm7.427 5.136v-8.624h1.568v.752a6.94 6.94 0 01.912-.48 4.88 4.88 0 01.896-.288c.31-.075.63-.112.96-.112.331 0 .614.037.848.112.246.075.454.187.624.336.182.139.326.309.432.512.299-.192.603-.357.912-.496.31-.149.635-.267.976-.352a4.244 4.244 0 011.12-.144c.32 0 .603.043.848.128.246.085.459.203.64.352.182.149.326.325.432.528.118.192.203.411.256.656.054.235.08.48.08.736v6.384h-1.728v-5.856c0-.171-.021-.341-.064-.512a1.389 1.389 0 00-.208-.48.818.818 0 00-.384-.32c-.17-.085-.389-.128-.656-.128-.245 0-.485.032-.72.096a3.167 3.167 0 00-.656.224 9.316 9.316 0 00-.56.288c.043.128.07.251.08.368.011.117.016.235.016.352v5.968h-1.728v-5.84c0-.171-.021-.341-.064-.512a1.226 1.226 0 00-.208-.464 1.031 1.031 0 00-.4-.336c-.16-.085-.373-.128-.64-.128-.213 0-.426.027-.64.08a4.6 4.6 0 00-.608.208 4.191 4.191 0 00-.608.32v6.672h-1.728zm13.088-.336l.224-1.296c.181.064.389.128.624.192.235.053.475.101.72.144a9.151 9.151 0 001.504.128c.587 0 1.019-.096 1.296-.288.288-.192.432-.469.432-.832a.878.878 0 00-.144-.512 1.095 1.095 0 00-.416-.368 3.107 3.107 0 00-.704-.304 9.375 9.375 0 00-.976-.272 5.358 5.358 0 01-.992-.352 2.917 2.917 0 01-.752-.512 2.122 2.122 0 01-.464-.688 2.686 2.686 0 01-.144-.912c0-.821.277-1.456.832-1.904.565-.448 1.392-.672 2.48-.672.331 0 .645.021.944.064.299.032.581.08.848.144.277.053.528.123.752.208l-.24 1.312a12.563 12.563 0 00-.688-.176 6.626 6.626 0 00-.736-.128 7.424 7.424 0 00-.88-.048c-.544 0-.955.091-1.232.272-.267.181-.4.443-.4.784a.88.88 0 00.128.496c.096.128.229.24.4.336.181.085.395.171.64.256.245.075.523.149.832.224.395.096.752.213 1.072.352.331.128.608.288.832.48.235.192.416.432.544.72.128.277.192.624.192 1.04 0 .363-.059.693-.176.992a2.09 2.09 0 01-.496.736 2.413 2.413 0 01-.736.496 4.212 4.212 0 01-.96.288 6.255 6.255 0 01-1.12.096c-.373 0-.736-.021-1.088-.064a7.838 7.838 0 01-1.952-.432zm14.3-8.288v1.056c.309-.288.597-.517.864-.688a3.28 3.28 0 01.832-.4c.277-.085.57-.128.88-.128a4.517 4.517 0 011.2.176l-.288 1.584a3.64 3.64 0 00-.592-.112 2.936 2.936 0 00-1.616.16c-.352.139-.731.373-1.136.704v6.272H165.9v-8.624h1.568zm8.068 8.784c-.629 0-1.184-.08-1.664-.24a3.29 3.29 0 01-1.216-.768c-.331-.341-.581-.779-.752-1.312-.171-.544-.256-1.184-.256-1.92 0-.864.101-1.595.304-2.192.213-.608.501-1.093.864-1.456.373-.373.805-.64 1.296-.8a5.022 5.022 0 011.632-.256c1.152 0 2 .299 2.544.896.555.597.832 1.568.832 2.912 0 .075-.005.181-.016.32v.384l-.944.08a64.285 64.285 0 01-2.896.176c-.576.021-1.179.037-1.808.048a.582.582 0 00-.016.144v.144c0 .587.091 1.061.272 1.424.181.352.448.613.8.784.352.16.795.24 1.328.24.32 0 .651-.016.992-.048.352-.043.693-.091 1.024-.144.331-.064.645-.133.944-.208l.224 1.296a16 16 0 01-1.04.272 9.326 9.326 0 01-1.152.16c-.405.043-.837.064-1.296.064zm-2.064-5.296c.448 0 .875-.005 1.28-.016.416-.021.8-.043 1.152-.064.352-.021.651-.037.896-.048l.576-.048c-.011-.533-.08-.96-.208-1.28-.128-.32-.32-.549-.576-.688-.256-.149-.581-.224-.976-.224-.245 0-.485.037-.72.112a1.623 1.623 0 00-.656.368c-.192.171-.357.411-.496.72-.139.299-.229.688-.272 1.168zm6.867 4.8l.224-1.296c.181.064.389.128.624.192.234.053.474.101.72.144a9.151 9.151 0 001.504.128c.586 0 1.018-.096 1.296-.288.288-.192.432-.469.432-.832a.878.878 0 00-.144-.512 1.103 1.103 0 00-.416-.368 3.107 3.107 0 00-.704-.304 9.445 9.445 0 00-.976-.272 5.332 5.332 0 01-.992-.352 2.917 2.917 0 01-.752-.512 2.106 2.106 0 01-.464-.688 2.686 2.686 0 01-.144-.912c0-.821.277-1.456.832-1.904.565-.448 1.392-.672 2.48-.672.33 0 .645.021.944.064.298.032.581.08.848.144.277.053.528.123.752.208l-.24 1.312a12.8 12.8 0 00-.688-.176 6.667 6.667 0 00-.736-.128 7.424 7.424 0 00-.88-.048c-.544 0-.955.091-1.232.272-.267.181-.4.443-.4.784 0 .203.042.368.128.496.096.128.229.24.4.336.181.085.394.171.64.256.245.075.522.149.832.224a6.64 6.64 0 011.072.352c.33.128.608.288.832.48.234.192.416.432.544.72.128.277.192.624.192 1.04 0 .363-.059.693-.176.992a2.102 2.102 0 01-.496.736 2.413 2.413 0 01-.736.496 4.212 4.212 0 01-.96.288 6.263 6.263 0 01-1.12.096c-.374 0-.736-.021-1.088-.064a7.812 7.812 0 01-1.952-.432zm7.715-3.984c0-.747.064-1.397.192-1.952.138-.555.357-1.013.656-1.376.298-.373.698-.656 1.2-.848.501-.192 1.12-.288 1.856-.288s1.354.096 1.856.288c.501.192.901.475 1.2.848.298.363.512.821.64 1.376.138.555.208 1.205.208 1.952 0 .757-.075 1.419-.224 1.984-.139.565-.363 1.035-.672 1.408-.31.363-.715.635-1.216.816-.491.181-1.088.272-1.792.272s-1.307-.091-1.808-.272a2.822 2.822 0 01-1.2-.816c-.31-.373-.539-.843-.688-1.408-.139-.565-.208-1.227-.208-1.984zm1.776 0c0 .779.069 1.397.208 1.856.149.459.378.789.688.992.32.203.73.304 1.232.304.501 0 .906-.101 1.216-.304.309-.203.533-.533.672-.992.149-.459.224-1.077.224-1.856 0-.779-.064-1.392-.192-1.84-.128-.459-.352-.784-.672-.976-.31-.203-.726-.304-1.248-.304-.534 0-.955.101-1.264.304-.31.192-.534.517-.672.976-.128.448-.192 1.061-.192 1.84zm9.546-7.52v9.264c0 .341.038.603.112.784.075.171.176.288.304.352a.953.953 0 00.432.096 2.27 2.27 0 00.784-.144l.176 1.344c-.192.085-.41.155-.656.208a3.09 3.09 0 01-.784.096c-.448 0-.832-.075-1.152-.224-.309-.16-.544-.427-.704-.8-.16-.384-.24-.907-.24-1.568v-9.408h1.728zm4.928 11.84l-3.12-8.592 1.824-.064 2.32 7.04 2.24-7.04 1.808.064-3.152 8.592h-1.92zm9.66.16c-.629 0-1.184-.08-1.664-.24a3.299 3.299 0 01-1.216-.768c-.33-.341-.581-.779-.752-1.312-.17-.544-.256-1.184-.256-1.92 0-.864.102-1.595.304-2.192.214-.608.502-1.093.864-1.456.374-.373.806-.64 1.296-.8a5.03 5.03 0 011.632-.256c1.152 0 2 .299 2.544.896.555.597.832 1.568.832 2.912 0 .075-.005.181-.016.32v.384l-.944.08a64.285 64.285 0 01-2.896.176c-.576.021-1.178.037-1.808.048a.634.634 0 00-.016.144v.144c0 .587.091 1.061.272 1.424.182.352.448.613.8.784.352.16.795.24 1.328.24.32 0 .651-.016.992-.048.352-.043.694-.091 1.024-.144.331-.064.646-.133.944-.208l.224 1.296c-.32.096-.666.187-1.04.272a9.273 9.273 0 01-1.152.16c-.405.043-.837.064-1.296.064zm-2.064-5.296c.448 0 .875-.005 1.28-.016.416-.021.8-.043 1.152-.064.352-.021.651-.037.896-.048l.576-.048c-.01-.533-.08-.96-.208-1.28-.128-.32-.32-.549-.576-.688-.256-.149-.581-.224-.976-.224-.245 0-.485.037-.72.112a1.63 1.63 0 00-.656.368c-.192.171-.357.411-.496.72-.138.299-.229.688-.272 1.168zm12.852 5.152l-.208-.736c-.47.299-.923.523-1.36.672a4.467 4.467 0 01-1.36.208c-.928 0-1.648-.368-2.16-1.104-.502-.736-.752-1.797-.752-3.184 0-1.067.138-1.941.416-2.624.288-.683.725-1.189 1.312-1.52.597-.341 1.338-.512 2.224-.512.256 0 .528.016.816.048.288.021.57.059.848.112v-3.216h1.744v11.856h-1.52zm-.224-2v-5.296a7.008 7.008 0 00-.832-.16 5.35 5.35 0 00-.688-.048c-.523 0-.955.107-1.296.32-.342.203-.592.539-.752 1.008-.16.469-.24 1.099-.24 1.888 0 .661.069 1.216.208 1.664.138.437.336.768.592.992.266.213.586.32.96.32.213 0 .426-.021.64-.064.224-.053.448-.128.672-.224a8.96 8.96 0 00.736-.4z" fill="#0C5971"/><path opacity=".2" d="M0 134.5a134.5 134.5 0 11269 0h-40.35a94.14 94.14 0 00-27.576-66.574A94.162 94.162 0 00134.5 40.35a94.15 94.15 0 00-94.15 94.15H0z" fill="#000"/><path d="M0 134.5a134.5 134.5 0 01269 0h-40.35A94.148 94.148 0 0067.926 67.926 94.15 94.15 0 0040.35 134.5H0z" fill="url(#paint0_linear_257_2414)"/><defs><linearGradient id="paint0_linear_257_2414" x1="-36.906" y1="307.108" x2="355.37" y2="262.625" gradientUnits="userSpaceOnUse"><stop stop-color="#14D5FF"/><stop offset="1" stop-color="#FF1493"/></linearGradient></defs></svg>