<svg width="269" height="286" viewBox="0 0 269 286" fill="none" xmlns="http://www.w3.org/2000/svg">
<path d="M79.6006 132.984L82.0486 126.12C82.8806 126.44 83.7926 126.712 84.7846 126.936C85.7766 127.16 86.8166 127.336 87.9046 127.464C88.9926 127.592 90.0966 127.656 91.2166 127.656C92.6886 127.656 93.8726 127.544 94.7686 127.32C95.6646 127.096 96.3046 126.744 96.6886 126.264C97.0726 125.784 97.2646 125.176 97.2646 124.44C97.2646 123.448 96.8006 122.712 95.8726 122.232C94.9766 121.752 93.4886 121.512 91.4086 121.512H86.1286V114.648H91.1206C92.4646 114.648 93.5366 114.552 94.3366 114.36C95.1686 114.136 95.7606 113.816 96.1126 113.4C96.4966 112.984 96.6886 112.472 96.6886 111.864C96.6886 110.968 96.2086 110.296 95.2486 109.848C94.2886 109.368 92.7686 109.128 90.6886 109.128C89.2486 109.128 87.7926 109.24 86.3206 109.464C84.8486 109.688 83.4886 110.024 82.2406 110.472L80.0806 103.416C81.0086 102.872 82.1286 102.424 83.4406 102.072C84.7846 101.688 86.2246 101.4 87.7606 101.208C89.2966 101.016 90.9126 100.92 92.6086 100.92C95.6166 100.92 98.1126 101.272 100.097 101.976C102.113 102.68 103.617 103.688 104.609 105C105.601 106.312 106.097 107.88 106.097 109.704C106.097 111.368 105.649 112.856 104.753 114.168C103.889 115.48 102.641 116.504 101.009 117.24C102.961 117.88 104.433 118.888 105.425 120.264C106.417 121.64 106.913 123.256 106.913 125.112C106.913 127.288 106.337 129.16 105.185 130.728C104.065 132.264 102.401 133.448 100.193 134.28C98.0166 135.08 95.3126 135.48 92.0806 135.48C90.3846 135.48 88.8166 135.384 87.3766 135.192C85.9366 135.032 84.5926 134.776 83.3446 134.424C82.0966 134.04 80.8486 133.56 79.6006 132.984ZM124.011 135.48C122.539 135.48 121.099 135.4 119.691 135.24C118.283 135.112 116.971 134.904 115.755 134.616C114.571 134.296 113.563 133.944 112.731 133.56L114.843 126.312C115.771 126.6 116.651 126.84 117.483 127.032C118.315 127.224 119.147 127.384 119.979 127.512C120.811 127.608 121.659 127.656 122.523 127.656C124.763 127.656 126.507 127.304 127.755 126.6C129.003 125.896 129.867 124.84 130.347 123.432C130.859 122.024 131.115 120.28 131.115 118.2C131.115 116.376 131.003 114.824 130.779 113.544C130.587 112.264 130.267 111.24 129.819 110.472C129.403 109.672 128.843 109.096 128.139 108.744C127.467 108.392 126.619 108.216 125.595 108.216C124.667 108.216 123.867 108.376 123.195 108.696C122.523 109.016 122.011 109.48 121.659 110.088C121.339 110.696 121.179 111.464 121.179 112.392C121.179 113.224 121.371 113.928 121.755 114.504C122.171 115.08 122.731 115.512 123.435 115.8C124.139 116.056 124.939 116.184 125.835 116.184C126.603 116.184 127.339 116.104 128.043 115.944C128.779 115.784 129.483 115.56 130.155 115.272C130.827 114.952 131.467 114.584 132.075 114.168L131.979 120.744C131.243 121.256 130.379 121.704 129.387 122.088C128.427 122.44 127.403 122.728 126.315 122.952C125.227 123.144 124.107 123.24 122.955 123.24C120.587 123.24 118.571 122.84 116.907 122.04C115.275 121.24 114.027 120.072 113.163 118.536C112.331 117 111.915 115.112 111.915 112.872C111.915 110.248 112.443 108.056 113.499 106.296C114.587 104.504 116.187 103.16 118.299 102.264C120.411 101.368 123.035 100.92 126.171 100.92C129.467 100.92 132.171 101.512 134.283 102.696C136.427 103.88 138.027 105.704 139.083 108.168C140.139 110.6 140.667 113.672 140.667 117.384C140.667 121.352 140.043 124.68 138.795 127.368C137.547 130.056 135.691 132.088 133.227 133.464C130.763 134.808 127.691 135.48 124.011 135.48ZM144.374 110.76C144.374 108.84 144.582 107.24 144.998 105.96C145.446 104.68 146.07 103.672 146.87 102.936C147.702 102.2 148.71 101.672 149.894 101.352C151.078 101.032 152.422 100.872 153.926 100.872C155.43 100.872 156.774 101.032 157.958 101.352C159.142 101.672 160.134 102.216 160.934 102.984C161.734 103.72 162.326 104.728 162.71 106.008C163.126 107.288 163.334 108.872 163.334 110.76C163.334 112.616 163.126 114.168 162.71 115.416C162.294 116.664 161.67 117.672 160.838 118.44C160.006 119.208 159.014 119.768 157.862 120.12C156.71 120.44 155.398 120.6 153.926 120.6C152.422 120.6 151.078 120.44 149.894 120.12C148.71 119.768 147.702 119.224 146.87 118.488C146.07 117.72 145.446 116.712 144.998 115.464C144.582 114.184 144.374 112.616 144.374 110.76ZM151.382 110.904C151.382 112.44 151.478 113.592 151.67 114.36C151.862 115.096 152.15 115.592 152.534 115.848C152.918 116.072 153.382 116.184 153.926 116.184C154.47 116.184 154.918 116.072 155.27 115.848C155.654 115.592 155.926 115.096 156.086 114.36C156.278 113.592 156.374 112.44 156.374 110.904C156.374 109.176 156.278 107.912 156.086 107.112C155.894 106.312 155.606 105.816 155.222 105.624C154.87 105.4 154.438 105.288 153.926 105.288C153.382 105.288 152.918 105.4 152.534 105.624C152.182 105.848 151.894 106.36 151.67 107.16C151.478 107.96 151.382 109.208 151.382 110.904ZM160.982 135.24L155.03 135.192L173.126 100.488L179.078 100.536L160.982 135.24ZM170.63 125.592C170.63 123.672 170.838 122.072 171.254 120.792C171.702 119.512 172.326 118.504 173.126 117.768C173.958 117.032 174.966 116.504 176.15 116.184C177.334 115.864 178.678 115.704 180.182 115.704C181.686 115.704 183.03 115.864 184.214 116.184C185.398 116.504 186.39 117.048 187.19 117.816C187.99 118.552 188.582 119.56 188.966 120.84C189.382 122.12 189.59 123.704 189.59 125.592C189.59 127.448 189.382 129 188.966 130.248C188.55 131.496 187.926 132.504 187.094 133.272C186.262 134.04 185.27 134.6 184.118 134.952C182.966 135.272 181.654 135.432 180.182 135.432C178.678 135.432 177.334 135.272 176.15 134.952C174.966 134.6 173.958 134.056 173.126 133.32C172.326 132.552 171.702 131.544 171.254 130.296C170.838 129.016 170.63 127.448 170.63 125.592ZM177.638 125.736C177.638 127.272 177.734 128.424 177.926 129.192C178.118 129.928 178.406 130.424 178.79 130.68C179.174 130.904 179.638 131.016 180.182 131.016C180.726 131.016 181.174 130.904 181.526 130.68C181.91 130.424 182.182 129.928 182.342 129.192C182.534 128.424 182.63 127.272 182.63 125.736C182.63 124.008 182.534 122.744 182.342 121.944C182.15 121.144 181.862 120.648 181.478 120.456C181.126 120.232 180.694 120.12 180.182 120.12C179.638 120.12 179.174 120.232 178.79 120.456C178.438 120.68 178.15 121.192 177.926 121.992C177.734 122.792 177.638 124.04 177.638 125.736Z" fill="#1F8088"/>
<path d="M121.061 166.98H116.821V179H114.581V166.98H110.341V165H121.061V166.98ZM125.807 179.2C125.02 179.2 124.327 179.1 123.727 178.9C123.14 178.687 122.633 178.367 122.207 177.94C121.793 177.513 121.48 176.967 121.267 176.3C121.053 175.62 120.947 174.82 120.947 173.9C120.947 172.82 121.073 171.907 121.327 171.16C121.593 170.4 121.953 169.793 122.407 169.34C122.873 168.873 123.413 168.54 124.027 168.34C124.653 168.127 125.333 168.02 126.067 168.02C127.507 168.02 128.567 168.393 129.247 169.14C129.94 169.887 130.287 171.1 130.287 172.78C130.287 172.873 130.28 173.007 130.267 173.18C130.267 173.34 130.267 173.5 130.267 173.66C129.96 173.687 129.567 173.72 129.087 173.76C128.62 173.8 128.08 173.84 127.467 173.88C126.853 173.92 126.187 173.953 125.467 173.98C124.747 174.007 123.993 174.027 123.207 174.04C123.193 174.093 123.187 174.153 123.187 174.22C123.187 174.273 123.187 174.333 123.187 174.4C123.187 175.133 123.3 175.727 123.527 176.18C123.753 176.62 124.087 176.947 124.527 177.16C124.967 177.36 125.52 177.46 126.187 177.46C126.587 177.46 127 177.44 127.427 177.4C127.867 177.347 128.293 177.287 128.707 177.22C129.12 177.14 129.513 177.053 129.887 176.96L130.167 178.58C129.767 178.7 129.333 178.813 128.867 178.92C128.413 179.013 127.933 179.08 127.427 179.12C126.92 179.173 126.38 179.2 125.807 179.2ZM123.227 172.58C123.787 172.58 124.32 172.573 124.827 172.56C125.347 172.533 125.827 172.507 126.267 172.48C126.707 172.453 127.08 172.433 127.387 172.42C127.707 172.393 127.947 172.373 128.107 172.36C128.093 171.693 128.007 171.16 127.847 170.76C127.687 170.36 127.447 170.073 127.127 169.9C126.807 169.713 126.4 169.62 125.907 169.62C125.6 169.62 125.3 169.667 125.007 169.76C124.713 169.84 124.44 169.993 124.187 170.22C123.947 170.433 123.74 170.733 123.567 171.12C123.393 171.493 123.28 171.98 123.227 172.58ZM131.773 176.3C131.773 175.647 131.9 175.113 132.153 174.7C132.42 174.273 132.82 173.94 133.353 173.7C133.887 173.447 134.553 173.253 135.353 173.12C136.153 172.973 137.08 172.86 138.133 172.78V171.54C138.133 170.993 137.94 170.58 137.553 170.3C137.18 170.02 136.627 169.88 135.893 169.88C135.627 169.88 135.32 169.893 134.973 169.92C134.64 169.947 134.287 169.993 133.913 170.06C133.54 170.127 133.16 170.22 132.773 170.34L132.413 168.6C132.987 168.413 133.593 168.273 134.233 168.18C134.873 168.073 135.473 168.02 136.033 168.02C137.007 168.02 137.807 168.153 138.433 168.42C139.073 168.673 139.547 169.06 139.853 169.58C140.173 170.1 140.333 170.747 140.333 171.52V176.28C140.333 176.68 140.393 176.953 140.513 177.1C140.633 177.233 140.787 177.3 140.973 177.3C141.04 177.3 141.12 177.293 141.213 177.28C141.307 177.267 141.4 177.24 141.493 177.2L141.693 178.8C141.48 178.92 141.247 179.013 140.993 179.08C140.74 179.16 140.467 179.2 140.173 179.2C139.667 179.2 139.26 179.087 138.953 178.86C138.66 178.62 138.46 178.26 138.353 177.78C138.02 178.033 137.66 178.273 137.273 178.5C136.9 178.713 136.487 178.88 136.033 179C135.593 179.133 135.107 179.2 134.573 179.2C134.147 179.2 133.76 179.133 133.413 179C133.08 178.88 132.787 178.7 132.533 178.46C132.293 178.207 132.107 177.9 131.973 177.54C131.84 177.18 131.773 176.767 131.773 176.3ZM133.973 176.14C133.973 176.66 134.1 177.047 134.353 177.3C134.607 177.553 134.947 177.68 135.373 177.68C135.693 177.68 136.02 177.633 136.353 177.54C136.687 177.433 137.007 177.293 137.313 177.12C137.633 176.933 137.907 176.713 138.133 176.46V174.02C137.493 174.073 136.92 174.14 136.413 174.22C135.907 174.3 135.467 174.42 135.093 174.58C134.733 174.727 134.453 174.927 134.253 175.18C134.067 175.433 133.973 175.753 133.973 176.14ZM143.379 179V168.22H145.339V169.16C145.726 168.92 146.106 168.72 146.479 168.56C146.852 168.4 147.226 168.28 147.599 168.2C147.986 168.107 148.386 168.06 148.799 168.06C149.212 168.06 149.566 168.107 149.859 168.2C150.166 168.293 150.426 168.433 150.639 168.62C150.866 168.793 151.046 169.007 151.179 169.26C151.552 169.02 151.932 168.813 152.319 168.64C152.706 168.453 153.112 168.307 153.539 168.2C153.979 168.08 154.446 168.02 154.939 168.02C155.339 168.02 155.692 168.073 155.999 168.18C156.306 168.287 156.572 168.433 156.799 168.62C157.026 168.807 157.206 169.027 157.339 169.28C157.486 169.52 157.592 169.793 157.659 170.1C157.726 170.393 157.759 170.7 157.759 171.02V179H155.599V171.68C155.599 171.467 155.572 171.253 155.519 171.04C155.466 170.813 155.379 170.613 155.259 170.44C155.152 170.267 154.992 170.133 154.779 170.04C154.566 169.933 154.292 169.88 153.959 169.88C153.652 169.88 153.352 169.92 153.059 170C152.766 170.067 152.492 170.16 152.239 170.28C151.986 170.4 151.752 170.52 151.539 170.64C151.592 170.8 151.626 170.953 151.639 171.1C151.652 171.247 151.659 171.393 151.659 171.54V179H149.499V171.7C149.499 171.487 149.472 171.273 149.419 171.06C149.366 170.833 149.279 170.64 149.159 170.48C149.039 170.307 148.872 170.167 148.659 170.06C148.459 169.953 148.192 169.9 147.859 169.9C147.592 169.9 147.326 169.933 147.059 170C146.806 170.067 146.552 170.153 146.299 170.26C146.046 170.367 145.792 170.5 145.539 170.66V179H143.379Z" fill="black"/>
<path d="M73 196.5L75.0365 202.464L81 204.5L75.0365 206.536L73 212.5L70.9635 206.536L65 204.5L70.9635 202.464L73 196.5Z" fill="url(#paint0_radial_257_2411)"/>
<path d="M86.1278 208.8C87.0238 208.011 87.7811 207.333 88.3998 206.768C89.0291 206.192 89.5411 205.691 89.9358 205.264C90.3411 204.837 90.6505 204.459 90.8638 204.128C91.0878 203.797 91.2425 203.493 91.3278 203.216C91.4131 202.928 91.4558 202.635 91.4558 202.336C91.4558 201.899 91.3705 201.536 91.1998 201.248C91.0291 200.96 90.7891 200.741 90.4798 200.592C90.1705 200.443 89.7865 200.368 89.3278 200.368C88.9225 200.368 88.5011 200.432 88.0638 200.56C87.6265 200.688 87.1891 200.88 86.7518 201.136L86.1918 199.664C86.5225 199.44 86.8798 199.253 87.2638 199.104C87.6478 198.955 88.0478 198.843 88.4638 198.768C88.8905 198.683 89.3118 198.64 89.7278 198.64C90.4958 198.64 91.1465 198.779 91.6798 199.056C92.2238 199.333 92.6345 199.728 92.9118 200.24C93.1998 200.741 93.3438 201.328 93.3438 202C93.3438 202.341 93.3118 202.667 93.2478 202.976C93.1838 203.285 93.0558 203.611 92.8638 203.952C92.6825 204.293 92.4158 204.683 92.0638 205.12C91.7225 205.547 91.2638 206.043 90.6878 206.608C90.1225 207.163 89.4238 207.813 88.5918 208.56H94.2718V210H86.1758L86.1278 208.8ZM99.5571 210.16C99.1304 210.16 98.7091 210.133 98.2931 210.08C97.8877 210.037 97.4984 209.968 97.1251 209.872C96.7517 209.776 96.4104 209.669 96.1011 209.552L96.5171 208.176C96.8477 208.283 97.1624 208.373 97.4611 208.448C97.7704 208.523 98.0744 208.581 98.3731 208.624C98.6824 208.656 98.9971 208.672 99.3171 208.672C100.128 208.672 100.773 208.512 101.253 208.192C101.744 207.872 102.096 207.387 102.309 206.736C102.533 206.085 102.645 205.264 102.645 204.272C102.645 203.483 102.586 202.821 102.469 202.288C102.362 201.744 102.202 201.307 101.989 200.976C101.776 200.645 101.504 200.411 101.173 200.272C100.842 200.133 100.458 200.064 100.021 200.064C99.5197 200.064 99.0824 200.149 98.7091 200.32C98.3357 200.491 98.0424 200.741 97.8291 201.072C97.6264 201.403 97.5251 201.819 97.5251 202.32C97.5251 202.768 97.6211 203.152 97.8131 203.472C98.0157 203.792 98.2931 204.032 98.6451 204.192C99.0077 204.352 99.4237 204.432 99.8931 204.432C100.266 204.432 100.629 204.384 100.981 204.288C101.333 204.181 101.674 204.027 102.005 203.824C102.336 203.611 102.629 203.36 102.885 203.072V204.464C102.618 204.741 102.298 204.976 101.925 205.168C101.552 205.36 101.146 205.509 100.709 205.616C100.282 205.712 99.8451 205.76 99.3971 205.76C98.6397 205.76 97.9944 205.632 97.4611 205.376C96.9277 205.109 96.5224 204.725 96.2451 204.224C95.9784 203.712 95.8451 203.099 95.8451 202.384C95.8451 201.573 96.0104 200.891 96.3411 200.336C96.6717 199.781 97.1571 199.36 97.7971 199.072C98.4371 198.784 99.2104 198.64 100.117 198.64C101.098 198.64 101.909 198.837 102.549 199.232C103.189 199.616 103.664 200.213 103.973 201.024C104.293 201.824 104.453 202.864 104.453 204.144C104.453 205.509 104.266 206.64 103.893 207.536C103.53 208.421 102.986 209.083 102.261 209.52C101.536 209.947 100.634 210.16 99.5571 210.16ZM106.234 208.944L107.834 208.864C107.898 209.035 107.946 209.221 107.978 209.424C108.01 209.616 108.026 209.824 108.026 210.048C108.026 210.411 107.978 210.773 107.882 211.136C107.786 211.509 107.632 211.861 107.418 212.192C107.205 212.533 106.933 212.843 106.602 213.12L105.338 212.768C105.701 212.416 105.968 211.995 106.138 211.504C106.309 211.013 106.394 210.533 106.394 210.064C106.394 209.915 106.384 209.744 106.362 209.552C106.341 209.36 106.298 209.157 106.234 208.944ZM109.853 208.8C110.749 208.011 111.507 207.333 112.125 206.768C112.755 206.192 113.267 205.691 113.661 205.264C114.067 204.837 114.376 204.459 114.589 204.128C114.813 203.797 114.968 203.493 115.053 203.216C115.139 202.928 115.181 202.635 115.181 202.336C115.181 201.899 115.096 201.536 114.925 201.248C114.755 200.96 114.515 200.741 114.205 200.592C113.896 200.443 113.512 200.368 113.053 200.368C112.648 200.368 112.227 200.432 111.789 200.56C111.352 200.688 110.915 200.88 110.477 201.136L109.917 199.664C110.248 199.44 110.605 199.253 110.989 199.104C111.373 198.955 111.773 198.843 112.189 198.768C112.616 198.683 113.037 198.64 113.453 198.64C114.221 198.64 114.872 198.779 115.405 199.056C115.949 199.333 116.36 199.728 116.637 200.24C116.925 200.741 117.069 201.328 117.069 202C117.069 202.341 117.037 202.667 116.973 202.976C116.909 203.285 116.781 203.611 116.589 203.952C116.408 204.293 116.141 204.683 115.789 205.12C115.448 205.547 114.989 206.043 114.413 206.608C113.848 207.163 113.149 207.813 112.317 208.56H117.997V210H109.901L109.853 208.8ZM119.523 204.4C119.523 203.291 119.629 202.368 119.843 201.632C120.056 200.885 120.36 200.293 120.755 199.856C121.149 199.419 121.613 199.109 122.147 198.928C122.691 198.736 123.293 198.64 123.955 198.64C124.627 198.64 125.235 198.736 125.779 198.928C126.323 199.109 126.787 199.424 127.171 199.872C127.565 200.309 127.864 200.896 128.067 201.632C128.28 202.368 128.387 203.291 128.387 204.4C128.387 205.499 128.275 206.421 128.051 207.168C127.837 207.904 127.533 208.491 127.139 208.928C126.755 209.365 126.291 209.68 125.747 209.872C125.203 210.064 124.605 210.16 123.955 210.16C123.293 210.16 122.691 210.069 122.147 209.888C121.613 209.696 121.149 209.381 120.755 208.944C120.371 208.496 120.067 207.904 119.843 207.168C119.629 206.421 119.523 205.499 119.523 204.4ZM121.299 204.448C121.299 205.323 121.363 206.043 121.491 206.608C121.629 207.173 121.816 207.616 122.051 207.936C122.296 208.245 122.579 208.464 122.899 208.592C123.229 208.72 123.581 208.784 123.955 208.784C124.328 208.784 124.675 208.72 124.995 208.592C125.325 208.464 125.608 208.245 125.843 207.936C126.088 207.616 126.275 207.173 126.403 206.608C126.541 206.043 126.611 205.323 126.611 204.448C126.611 203.541 126.541 202.8 126.403 202.224C126.275 201.637 126.088 201.189 125.843 200.88C125.597 200.56 125.315 200.336 124.995 200.208C124.675 200.08 124.328 200.016 123.955 200.016C123.581 200.016 123.235 200.08 122.915 200.208C122.595 200.336 122.312 200.56 122.067 200.88C121.821 201.189 121.629 201.637 121.491 202.224C121.363 202.8 121.299 203.541 121.299 204.448ZM134.152 210.16C133.203 210.16 132.392 209.968 131.72 209.584C131.059 209.2 130.552 208.608 130.2 207.808C129.859 206.997 129.688 205.957 129.688 204.688C129.688 203.323 129.87 202.192 130.232 201.296C130.606 200.4 131.155 199.733 131.88 199.296C132.616 198.859 133.523 198.64 134.6 198.64C135.038 198.64 135.459 198.661 135.864 198.704C136.28 198.747 136.67 198.816 137.032 198.912C137.395 198.997 137.731 199.104 138.04 199.232L137.624 200.624C137.294 200.528 136.979 200.443 136.68 200.368C136.382 200.293 136.078 200.235 135.768 200.192C135.47 200.149 135.16 200.128 134.84 200.128C134.03 200.128 133.379 200.288 132.888 200.608C132.398 200.928 132.04 201.413 131.816 202.064C131.603 202.715 131.496 203.536 131.496 204.528C131.496 205.307 131.56 205.968 131.688 206.512C131.816 207.056 131.998 207.493 132.232 207.824C132.478 208.155 132.766 208.389 133.096 208.528C133.438 208.667 133.822 208.736 134.248 208.736C134.995 208.736 135.576 208.544 135.992 208.16C136.408 207.765 136.616 207.2 136.616 206.464C136.616 206.016 136.515 205.637 136.312 205.328C136.12 205.008 135.848 204.773 135.496 204.624C135.155 204.464 134.739 204.384 134.248 204.384C133.875 204.384 133.512 204.437 133.16 204.544C132.808 204.651 132.478 204.805 132.168 205.008C131.87 205.211 131.598 205.44 131.352 205.696L131.272 204.384C131.528 204.107 131.843 203.872 132.216 203.68C132.59 203.477 132.995 203.323 133.432 203.216C133.88 203.099 134.344 203.04 134.824 203.04C135.571 203.04 136.2 203.173 136.712 203.44C137.235 203.707 137.63 204.091 137.896 204.592C138.163 205.093 138.296 205.701 138.296 206.416C138.296 207.621 137.944 208.549 137.24 209.2C136.536 209.84 135.507 210.16 134.152 210.16ZM144.919 210V198.768H146.615L152.007 207.2V198.8H153.607V210.032H151.911L146.535 201.68V210H144.919ZM156.036 210V198.8H163.396V200.416H157.844V204.112H162.66V205.664H157.86V210H156.036ZM172.958 200.384H169.566V210H167.774V200.384H164.382V198.8H172.958V200.384ZM175.018 203.12L173.706 202.976C173.951 202.421 174.133 201.883 174.25 201.36C174.367 200.837 174.426 200.261 174.426 199.632C174.426 199.493 174.421 199.355 174.41 199.216C174.41 199.077 174.405 198.939 174.394 198.8H175.946C175.957 198.896 175.962 198.992 175.962 199.088C175.962 199.184 175.962 199.28 175.962 199.376C175.962 200.165 175.887 200.853 175.738 201.44C175.589 202.016 175.349 202.576 175.018 203.12ZM176.87 209.664L177.094 208.368C177.275 208.432 177.483 208.496 177.718 208.56C177.952 208.613 178.192 208.661 178.438 208.704C178.694 208.747 178.95 208.779 179.206 208.8C179.462 208.821 179.707 208.832 179.942 208.832C180.528 208.832 180.96 208.736 181.238 208.544C181.526 208.352 181.67 208.075 181.67 207.712C181.67 207.509 181.622 207.339 181.526 207.2C181.44 207.061 181.302 206.939 181.11 206.832C180.918 206.715 180.683 206.613 180.406 206.528C180.128 206.432 179.803 206.341 179.43 206.256C179.056 206.16 178.726 206.043 178.438 205.904C178.15 205.765 177.899 205.595 177.686 205.392C177.483 205.189 177.328 204.96 177.222 204.704C177.126 204.437 177.078 204.133 177.078 203.792C177.078 202.971 177.355 202.336 177.91 201.888C178.475 201.44 179.302 201.216 180.39 201.216C180.72 201.216 181.035 201.237 181.334 201.28C181.632 201.312 181.915 201.36 182.182 201.424C182.459 201.477 182.71 201.547 182.934 201.632L182.694 202.944C182.47 202.88 182.24 202.821 182.006 202.768C181.782 202.715 181.536 202.672 181.27 202.64C181.003 202.608 180.71 202.592 180.39 202.592C179.846 202.592 179.435 202.683 179.158 202.864C178.891 203.045 178.758 203.307 178.758 203.648C178.758 203.851 178.8 204.016 178.886 204.144C178.982 204.272 179.115 204.384 179.286 204.48C179.467 204.565 179.68 204.651 179.926 204.736C180.171 204.811 180.448 204.885 180.758 204.96C181.152 205.056 181.51 205.173 181.83 205.312C182.16 205.44 182.438 205.6 182.662 205.792C182.896 205.984 183.078 206.224 183.206 206.512C183.334 206.789 183.398 207.136 183.398 207.552C183.398 207.915 183.339 208.245 183.222 208.544C183.104 208.832 182.939 209.077 182.726 209.28C182.523 209.483 182.278 209.648 181.99 209.776C181.702 209.904 181.382 210 181.03 210.064C180.678 210.128 180.304 210.16 179.91 210.16C179.536 210.16 179.174 210.139 178.822 210.096C178.47 210.064 178.128 210.011 177.798 209.936C177.467 209.861 177.158 209.771 176.87 209.664Z" fill="#FFFF14"/>
<path d="M196 196.5L198.036 202.464L204 204.5L198.036 206.536L196 212.5L193.964 206.536L188 204.5L193.964 202.464L196 196.5Z" fill="url(#paint1_radial_257_2411)"/>
<path d="M12.8144 239V227.8H14.6064V237.432H19.8864V239H12.8144ZM20.8724 234.68C20.8724 233.933 20.9364 233.283 21.0644 232.728C21.2031 232.173 21.4218 231.715 21.7204 231.352C22.0191 230.979 22.4191 230.696 22.9204 230.504C23.4218 230.312 24.0404 230.216 24.7764 230.216C25.5124 230.216 26.1311 230.312 26.6324 230.504C27.1338 230.696 27.5338 230.979 27.8324 231.352C28.1311 231.715 28.3444 232.173 28.4724 232.728C28.6111 233.283 28.6804 233.933 28.6804 234.68C28.6804 235.437 28.6058 236.099 28.4564 236.664C28.3178 237.229 28.0938 237.699 27.7844 238.072C27.4751 238.435 27.0698 238.707 26.5684 238.888C26.0778 239.069 25.4804 239.16 24.7764 239.16C24.0724 239.16 23.4698 239.069 22.9684 238.888C22.4778 238.707 22.0778 238.435 21.7684 238.072C21.4591 237.699 21.2298 237.229 21.0804 236.664C20.9418 236.099 20.8724 235.437 20.8724 234.68ZM22.6484 234.68C22.6484 235.459 22.7178 236.077 22.8564 236.536C23.0058 236.995 23.2351 237.325 23.5444 237.528C23.8644 237.731 24.2751 237.832 24.7764 237.832C25.2778 237.832 25.6831 237.731 25.9924 237.528C26.3018 237.325 26.5258 236.995 26.6644 236.536C26.8138 236.077 26.8884 235.459 26.8884 234.68C26.8884 233.901 26.8244 233.288 26.6964 232.84C26.5684 232.381 26.3444 232.056 26.0244 231.864C25.7151 231.661 25.2991 231.56 24.7764 231.56C24.2431 231.56 23.8218 231.661 23.5124 231.864C23.2031 232.056 22.9791 232.381 22.8404 232.84C22.7124 233.288 22.6484 233.901 22.6484 234.68ZM30.0831 234.824C30.0831 233.789 30.2431 232.936 30.5631 232.264C30.8831 231.581 31.3524 231.069 31.9711 230.728C32.6004 230.387 33.3631 230.216 34.2591 230.216C34.5577 230.216 34.8617 230.232 35.1711 230.264C35.4911 230.285 35.8004 230.323 36.0991 230.376C36.3977 230.419 36.6697 230.477 36.9151 230.552L36.6591 231.992C36.4244 231.939 36.1791 231.896 35.9231 231.864C35.6671 231.821 35.4111 231.789 35.1551 231.768C34.9097 231.747 34.6697 231.736 34.4351 231.736C33.8804 231.736 33.4111 231.848 33.0271 232.072C32.6537 232.296 32.3657 232.632 32.1631 233.08C31.9711 233.528 31.8751 234.104 31.8751 234.808C31.8751 235.448 31.9764 235.981 32.1791 236.408C32.3817 236.824 32.6751 237.139 33.0591 237.352C33.4431 237.555 33.9071 237.656 34.4511 237.656C34.6964 237.656 34.9471 237.645 35.2031 237.624C35.4697 237.603 35.7364 237.571 36.0031 237.528C36.2804 237.485 36.5471 237.437 36.8031 237.384L37.0591 238.776C36.6537 238.883 36.1791 238.973 35.6351 239.048C35.1017 239.123 34.5844 239.16 34.0831 239.16C32.7604 239.16 31.7631 238.808 31.0911 238.104C30.4191 237.389 30.0831 236.296 30.0831 234.824ZM45.4301 239.144C45.2701 239.144 45.1047 239.123 44.9341 239.08C44.7741 239.048 44.5927 238.973 44.3901 238.856C44.1981 238.728 43.9581 238.541 43.6701 238.296C43.3927 238.051 43.0567 237.731 42.6621 237.336L40.3101 235V239H38.6461V227.16H40.3101V232.728L43.0301 235.448C43.5634 235.971 43.9901 236.365 44.3101 236.632C44.6407 236.899 44.9021 237.08 45.0941 237.176C45.2967 237.272 45.4834 237.32 45.6541 237.32C45.6861 237.32 45.7234 237.32 45.7661 237.32C45.8087 237.309 45.8514 237.304 45.8941 237.304L45.9261 239.096C45.8514 239.107 45.7714 239.117 45.6861 239.128C45.6114 239.139 45.5261 239.144 45.4301 239.144ZM41.9741 235.16L40.5821 234.44C40.9341 234.131 41.2754 233.816 41.6061 233.496C41.9474 233.176 42.2621 232.851 42.5501 232.52C42.8381 232.179 43.0887 231.827 43.3021 231.464C43.5261 231.091 43.7021 230.68 43.8301 230.232L45.5741 230.376C45.4354 230.856 45.2327 231.32 44.9661 231.768C44.6994 232.216 44.3954 232.643 44.0541 233.048C43.7127 233.453 43.3607 233.832 42.9981 234.184C42.6354 234.525 42.2941 234.851 41.9741 235.16ZM55.1758 239.16C54.7491 239.16 54.3278 239.133 53.9118 239.08C53.5065 239.037 53.1171 238.968 52.7438 238.872C52.3705 238.776 52.0291 238.669 51.7198 238.552L52.1358 237.176C52.4665 237.283 52.7811 237.373 53.0798 237.448C53.3891 237.523 53.6931 237.581 53.9918 237.624C54.3011 237.656 54.6158 237.672 54.9358 237.672C55.7465 237.672 56.3918 237.512 56.8718 237.192C57.3625 236.872 57.7145 236.387 57.9278 235.736C58.1518 235.085 58.2638 234.264 58.2638 233.272C58.2638 232.483 58.2051 231.821 58.0878 231.288C57.9811 230.744 57.8211 230.307 57.6078 229.976C57.3945 229.645 57.1225 229.411 56.7918 229.272C56.4611 229.133 56.0771 229.064 55.6398 229.064C55.1385 229.064 54.7011 229.149 54.3278 229.32C53.9545 229.491 53.6611 229.741 53.4478 230.072C53.2451 230.403 53.1438 230.819 53.1438 231.32C53.1438 231.768 53.2398 232.152 53.4318 232.472C53.6345 232.792 53.9118 233.032 54.2638 233.192C54.6265 233.352 55.0425 233.432 55.5118 233.432C55.8851 233.432 56.2478 233.384 56.5998 233.288C56.9518 233.181 57.2931 233.027 57.6238 232.824C57.9545 232.611 58.2478 232.36 58.5038 232.072V233.464C58.2371 233.741 57.9171 233.976 57.5438 234.168C57.1705 234.36 56.7651 234.509 56.3278 234.616C55.9011 234.712 55.4638 234.76 55.0158 234.76C54.2585 234.76 53.6131 234.632 53.0798 234.376C52.5465 234.109 52.1411 233.725 51.8638 233.224C51.5971 232.712 51.4638 232.099 51.4638 231.384C51.4638 230.573 51.6291 229.891 51.9598 229.336C52.2905 228.781 52.7758 228.36 53.4158 228.072C54.0558 227.784 54.8291 227.64 55.7358 227.64C56.7171 227.64 57.5278 227.837 58.1678 228.232C58.8078 228.616 59.2825 229.213 59.5918 230.024C59.9118 230.824 60.0718 231.864 60.0718 233.144C60.0718 234.509 59.8851 235.64 59.5118 236.536C59.1491 237.421 58.6051 238.083 57.8798 238.52C57.1545 238.947 56.2531 239.16 55.1758 239.16ZM61.6611 238.312L62.1731 236.952C62.4611 237.08 62.7491 237.197 63.0371 237.304C63.3357 237.4 63.6664 237.48 64.0291 237.544C64.3917 237.597 64.8077 237.624 65.2771 237.624C65.9597 237.624 66.5144 237.544 66.9411 237.384C67.3677 237.224 67.6877 236.989 67.9011 236.68C68.1144 236.371 68.2211 236.003 68.2211 235.576C68.2211 235.256 68.1731 234.984 68.0771 234.76C67.9811 234.525 67.8264 234.333 67.6131 234.184C67.3997 234.024 67.1171 233.907 66.7651 233.832C66.4131 233.757 65.9864 233.72 65.4851 233.72H62.4931L62.3331 233.544L62.9731 227.8H69.4051V229.352H64.3171L63.9811 232.376H66.2531C67.0851 232.376 67.7784 232.488 68.3331 232.712C68.8877 232.936 69.3037 233.277 69.5811 233.736C69.8691 234.195 70.0131 234.787 70.0131 235.512C70.0131 236.323 69.8211 237 69.4371 237.544C69.0531 238.077 68.5144 238.483 67.8211 238.76C67.1277 239.027 66.3171 239.16 65.3891 239.16C64.8771 239.16 64.4077 239.128 63.9811 239.064C63.5544 239 63.1544 238.904 62.7811 238.776C62.4077 238.648 62.0344 238.493 61.6611 238.312ZM71.8903 230.872C71.8903 230.232 71.9543 229.699 72.0823 229.272C72.221 228.845 72.413 228.509 72.6583 228.264C72.9037 228.008 73.197 227.832 73.5383 227.736C73.8797 227.629 74.2637 227.576 74.6903 227.576C75.117 227.576 75.501 227.629 75.8423 227.736C76.1837 227.843 76.4717 228.024 76.7063 228.28C76.9517 228.525 77.1383 228.861 77.2663 229.288C77.405 229.704 77.4743 230.232 77.4743 230.872C77.4743 231.501 77.405 232.029 77.2663 232.456C77.1383 232.872 76.9517 233.208 76.7063 233.464C76.461 233.709 76.1677 233.891 75.8263 234.008C75.485 234.115 75.1063 234.168 74.6903 234.168C74.2637 234.168 73.8797 234.115 73.5383 234.008C73.197 233.891 72.9037 233.709 72.6583 233.464C72.413 233.208 72.221 232.872 72.0823 232.456C71.9543 232.029 71.8903 231.501 71.8903 230.872ZM73.2023 230.888C73.2023 231.539 73.2663 232.04 73.3943 232.392C73.5223 232.733 73.6983 232.968 73.9223 233.096C74.1463 233.224 74.4023 233.288 74.6903 233.288C74.9783 233.288 75.229 233.224 75.4423 233.096C75.6663 232.968 75.8423 232.733 75.9703 232.392C76.0983 232.04 76.1623 231.539 76.1623 230.888C76.1623 230.205 76.0983 229.693 75.9703 229.352C75.8423 229 75.6663 228.765 75.4423 228.648C75.229 228.52 74.9783 228.456 74.6903 228.456C74.4023 228.456 74.1463 228.52 73.9223 228.648C73.6983 228.765 73.5223 229 73.3943 229.352C73.2663 229.704 73.2023 230.216 73.2023 230.888ZM76.3383 239.128L75.2183 239.064L81.0423 227.32L82.1623 227.384L76.3383 239.128ZM79.8743 235.848C79.8743 235.208 79.9383 234.675 80.0663 234.248C80.205 233.821 80.397 233.485 80.6423 233.24C80.8877 232.984 81.181 232.808 81.5223 232.712C81.8637 232.605 82.2477 232.552 82.6743 232.552C83.101 232.552 83.485 232.605 83.8263 232.712C84.1677 232.819 84.4557 233 84.6903 233.256C84.9357 233.501 85.1223 233.837 85.2503 234.264C85.389 234.68 85.4583 235.208 85.4583 235.848C85.4583 236.477 85.389 237.005 85.2503 237.432C85.1223 237.848 84.9357 238.184 84.6903 238.44C84.445 238.685 84.1517 238.867 83.8103 238.984C83.469 239.091 83.0903 239.144 82.6743 239.144C82.2477 239.144 81.8637 239.091 81.5223 238.984C81.181 238.867 80.8877 238.685 80.6423 238.44C80.397 238.184 80.205 237.848 80.0663 237.432C79.9383 237.005 79.8743 236.477 79.8743 235.848ZM81.1863 235.864C81.1863 236.515 81.2503 237.016 81.3783 237.368C81.5063 237.709 81.6823 237.944 81.9063 238.072C82.1303 238.2 82.3863 238.264 82.6743 238.264C82.9623 238.264 83.213 238.2 83.4263 238.072C83.6503 237.944 83.8263 237.709 83.9543 237.368C84.0823 237.016 84.1463 236.515 84.1463 235.864C84.1463 235.181 84.0823 234.669 83.9543 234.328C83.8263 233.976 83.6503 233.741 83.4263 233.624C83.213 233.496 82.9623 233.432 82.6743 233.432C82.3863 233.432 82.1303 233.496 81.9063 233.624C81.6823 233.741 81.5063 233.976 81.3783 234.328C81.2503 234.68 81.1863 235.192 81.1863 235.864ZM91.9872 237.8C92.8832 237.011 93.6405 236.333 94.2592 235.768C94.8885 235.192 95.4005 234.691 95.7952 234.264C96.2005 233.837 96.5099 233.459 96.7232 233.128C96.9472 232.797 97.1019 232.493 97.1872 232.216C97.2725 231.928 97.3152 231.635 97.3152 231.336C97.3152 230.899 97.2299 230.536 97.0592 230.248C96.8885 229.96 96.6485 229.741 96.3392 229.592C96.0299 229.443 95.6459 229.368 95.1872 229.368C94.7819 229.368 94.3605 229.432 93.9232 229.56C93.4859 229.688 93.0485 229.88 92.6112 230.136L92.0512 228.664C92.3819 228.44 92.7392 228.253 93.1232 228.104C93.5072 227.955 93.9072 227.843 94.3232 227.768C94.7499 227.683 95.1712 227.64 95.5872 227.64C96.3552 227.64 97.0059 227.779 97.5392 228.056C98.0832 228.333 98.4939 228.728 98.7712 229.24C99.0592 229.741 99.2032 230.328 99.2032 231C99.2032 231.341 99.1712 231.667 99.1072 231.976C99.0432 232.285 98.9152 232.611 98.7232 232.952C98.5419 233.293 98.2752 233.683 97.9232 234.12C97.5819 234.547 97.1232 235.043 96.5472 235.608C95.9819 236.163 95.2832 236.813 94.4512 237.56H100.131V239H92.0352L91.9872 237.8ZM106.738 239V230.376H108.306V231.128C108.615 230.936 108.919 230.776 109.218 230.648C109.516 230.52 109.815 230.424 110.114 230.36C110.423 230.285 110.743 230.248 111.074 230.248C111.404 230.248 111.687 230.285 111.922 230.36C112.167 230.435 112.375 230.547 112.546 230.696C112.727 230.835 112.871 231.005 112.978 231.208C113.276 231.016 113.58 230.851 113.89 230.712C114.199 230.563 114.524 230.445 114.866 230.36C115.218 230.264 115.591 230.216 115.986 230.216C116.306 230.216 116.588 230.259 116.834 230.344C117.079 230.429 117.292 230.547 117.474 230.696C117.655 230.845 117.799 231.021 117.906 231.224C118.023 231.416 118.108 231.635 118.162 231.88C118.215 232.115 118.242 232.36 118.242 232.616V239H116.514V233.144C116.514 232.973 116.492 232.803 116.45 232.632C116.407 232.451 116.338 232.291 116.242 232.152C116.156 232.013 116.028 231.907 115.858 231.832C115.687 231.747 115.468 231.704 115.202 231.704C114.956 231.704 114.716 231.736 114.482 231.8C114.247 231.853 114.028 231.928 113.826 232.024C113.623 232.12 113.436 232.216 113.266 232.312C113.308 232.44 113.335 232.563 113.346 232.68C113.356 232.797 113.362 232.915 113.362 233.032V239H111.634V233.16C111.634 232.989 111.612 232.819 111.57 232.648C111.527 232.467 111.458 232.312 111.362 232.184C111.266 232.045 111.132 231.933 110.962 231.848C110.802 231.763 110.588 231.72 110.322 231.72C110.108 231.72 109.895 231.747 109.682 231.8C109.479 231.853 109.276 231.923 109.074 232.008C108.871 232.093 108.668 232.2 108.466 232.328V239H106.738ZM120.017 234.68C120.017 233.933 120.081 233.283 120.209 232.728C120.348 232.173 120.567 231.715 120.865 231.352C121.164 230.979 121.564 230.696 122.065 230.504C122.567 230.312 123.185 230.216 123.921 230.216C124.657 230.216 125.276 230.312 125.777 230.504C126.279 230.696 126.679 230.979 126.977 231.352C127.276 231.715 127.489 232.173 127.617 232.728C127.756 233.283 127.825 233.933 127.825 234.68C127.825 235.437 127.751 236.099 127.601 236.664C127.463 237.229 127.239 237.699 126.929 238.072C126.62 238.435 126.215 238.707 125.713 238.888C125.223 239.069 124.625 239.16 123.921 239.16C123.217 239.16 122.615 239.069 122.113 238.888C121.623 238.707 121.223 238.435 120.913 238.072C120.604 237.699 120.375 237.229 120.225 236.664C120.087 236.099 120.017 235.437 120.017 234.68ZM121.793 234.68C121.793 235.459 121.863 236.077 122.001 236.536C122.151 236.995 122.38 237.325 122.689 237.528C123.009 237.731 123.42 237.832 123.921 237.832C124.423 237.832 124.828 237.731 125.137 237.528C125.447 237.325 125.671 236.995 125.809 236.536C125.959 236.077 126.033 235.459 126.033 234.68C126.033 233.901 125.969 233.288 125.841 232.84C125.713 232.381 125.489 232.056 125.169 231.864C124.86 231.661 124.444 231.56 123.921 231.56C123.388 231.56 122.967 231.661 122.657 231.864C122.348 232.056 122.124 232.381 121.985 232.84C121.857 233.288 121.793 233.901 121.793 234.68ZM129.612 239V230.376H131.18V231.128C131.532 230.936 131.868 230.776 132.188 230.648C132.508 230.509 132.833 230.403 133.164 230.328C133.495 230.253 133.841 230.216 134.204 230.216C134.737 230.216 135.18 230.312 135.532 230.504C135.895 230.696 136.167 230.968 136.348 231.32C136.54 231.672 136.636 232.104 136.636 232.616V239H134.892V233.144C134.892 232.664 134.775 232.301 134.54 232.056C134.305 231.811 133.953 231.688 133.484 231.688C133.239 231.688 132.999 231.715 132.764 231.768C132.529 231.821 132.295 231.896 132.06 231.992C131.825 232.077 131.585 232.184 131.34 232.312V239H129.612ZM141.815 239.16C141.271 239.16 140.818 239.059 140.455 238.856C140.093 238.653 139.821 238.344 139.639 237.928C139.469 237.501 139.383 236.968 139.383 236.328V231.672H137.975V230.52L139.383 230.376L139.607 228.408H141.111V230.376H143.767V231.672H141.111V236.2C141.111 236.723 141.213 237.101 141.415 237.336C141.618 237.571 141.943 237.688 142.391 237.688C142.615 237.688 142.845 237.667 143.079 237.624C143.325 237.571 143.575 237.512 143.831 237.448L144.071 238.776C143.666 238.915 143.271 239.011 142.887 239.064C142.503 239.128 142.146 239.16 141.815 239.16ZM145.439 239V227.16H147.199V231.096C147.519 230.904 147.829 230.744 148.127 230.616C148.426 230.488 148.73 230.392 149.039 230.328C149.359 230.253 149.695 230.216 150.047 230.216C150.57 230.216 151.013 230.312 151.375 230.504C151.738 230.685 152.01 230.957 152.191 231.32C152.383 231.672 152.479 232.109 152.479 232.632V239H150.735V233.144C150.735 232.664 150.618 232.307 150.383 232.072C150.149 231.827 149.797 231.704 149.327 231.704C149.082 231.704 148.837 231.731 148.591 231.784C148.357 231.837 148.127 231.912 147.903 232.008C147.679 232.093 147.445 232.2 147.199 232.328V239H145.439ZM154.059 238.664L154.283 237.368C154.464 237.432 154.672 237.496 154.907 237.56C155.141 237.613 155.381 237.661 155.627 237.704C155.883 237.747 156.139 237.779 156.395 237.8C156.651 237.821 156.896 237.832 157.131 237.832C157.717 237.832 158.149 237.736 158.427 237.544C158.715 237.352 158.859 237.075 158.859 236.712C158.859 236.509 158.811 236.339 158.715 236.2C158.629 236.061 158.491 235.939 158.299 235.832C158.107 235.715 157.872 235.613 157.595 235.528C157.317 235.432 156.992 235.341 156.619 235.256C156.245 235.16 155.915 235.043 155.627 234.904C155.339 234.765 155.088 234.595 154.875 234.392C154.672 234.189 154.517 233.96 154.411 233.704C154.315 233.437 154.267 233.133 154.267 232.792C154.267 231.971 154.544 231.336 155.099 230.888C155.664 230.44 156.491 230.216 157.579 230.216C157.909 230.216 158.224 230.237 158.523 230.28C158.821 230.312 159.104 230.36 159.371 230.424C159.648 230.477 159.899 230.547 160.123 230.632L159.883 231.944C159.659 231.88 159.429 231.821 159.195 231.768C158.971 231.715 158.725 231.672 158.459 231.64C158.192 231.608 157.899 231.592 157.579 231.592C157.035 231.592 156.624 231.683 156.347 231.864C156.08 232.045 155.947 232.307 155.947 232.648C155.947 232.851 155.989 233.016 156.075 233.144C156.171 233.272 156.304 233.384 156.475 233.48C156.656 233.565 156.869 233.651 157.115 233.736C157.36 233.811 157.637 233.885 157.947 233.96C158.341 234.056 158.699 234.173 159.019 234.312C159.349 234.44 159.627 234.6 159.851 234.792C160.085 234.984 160.267 235.224 160.395 235.512C160.523 235.789 160.587 236.136 160.587 236.552C160.587 236.915 160.528 237.245 160.411 237.544C160.293 237.832 160.128 238.077 159.915 238.28C159.712 238.483 159.467 238.648 159.179 238.776C158.891 238.904 158.571 239 158.219 239.064C157.867 239.128 157.493 239.16 157.099 239.16C156.725 239.16 156.363 239.139 156.011 239.096C155.659 239.064 155.317 239.011 154.987 238.936C154.656 238.861 154.347 238.771 154.059 238.664ZM161.823 238.104C161.823 237.763 161.893 237.517 162.031 237.368C162.17 237.219 162.421 237.144 162.783 237.144C163.157 237.144 163.413 237.219 163.551 237.368C163.69 237.517 163.759 237.763 163.759 238.104C163.759 238.445 163.69 238.691 163.551 238.84C163.413 238.989 163.157 239.064 162.783 239.064C162.431 239.064 162.181 238.989 162.031 238.84C161.893 238.691 161.823 238.445 161.823 238.104ZM172.43 239L168.622 227.832L170.558 227.768L173.486 237.304L176.35 227.768L178.286 227.832L174.51 239H172.43ZM182.2 239.16C181.57 239.16 181.016 239.08 180.536 238.92C180.066 238.749 179.661 238.493 179.32 238.152C178.989 237.811 178.738 237.373 178.568 236.84C178.397 236.296 178.312 235.656 178.312 234.92C178.312 234.056 178.413 233.325 178.616 232.728C178.829 232.12 179.117 231.635 179.48 231.272C179.853 230.899 180.285 230.632 180.776 230.472C181.277 230.301 181.821 230.216 182.408 230.216C183.56 230.216 184.408 230.515 184.952 231.112C185.506 231.709 185.784 232.68 185.784 234.024C185.784 234.099 185.778 234.205 185.768 234.344C185.768 234.472 185.768 234.6 185.768 234.728C185.522 234.749 185.208 234.776 184.824 234.808C184.45 234.84 184.018 234.872 183.528 234.904C183.037 234.936 182.504 234.963 181.928 234.984C181.352 235.005 180.749 235.021 180.12 235.032C180.109 235.075 180.104 235.123 180.104 235.176C180.104 235.219 180.104 235.267 180.104 235.32C180.104 235.907 180.194 236.381 180.376 236.744C180.557 237.096 180.824 237.357 181.176 237.528C181.528 237.688 181.97 237.768 182.504 237.768C182.824 237.768 183.154 237.752 183.496 237.72C183.848 237.677 184.189 237.629 184.52 237.576C184.85 237.512 185.165 237.443 185.464 237.368L185.688 238.664C185.368 238.76 185.021 238.851 184.648 238.936C184.285 239.011 183.901 239.064 183.496 239.096C183.09 239.139 182.658 239.16 182.2 239.16ZM180.136 233.864C180.584 233.864 181.01 233.859 181.416 233.848C181.832 233.827 182.216 233.805 182.568 233.784C182.92 233.763 183.218 233.747 183.464 233.736C183.72 233.715 183.912 233.699 184.04 233.688C184.029 233.155 183.96 232.728 183.832 232.408C183.704 232.088 183.512 231.859 183.256 231.72C183 231.571 182.674 231.496 182.28 231.496C182.034 231.496 181.794 231.533 181.56 231.608C181.325 231.672 181.106 231.795 180.904 231.976C180.712 232.147 180.546 232.387 180.408 232.696C180.269 232.995 180.178 233.384 180.136 233.864ZM187.002 238.664L187.226 237.368C187.408 237.432 187.616 237.496 187.85 237.56C188.085 237.613 188.325 237.661 188.57 237.704C188.826 237.747 189.082 237.779 189.338 237.8C189.594 237.821 189.84 237.832 190.074 237.832C190.661 237.832 191.093 237.736 191.37 237.544C191.658 237.352 191.802 237.075 191.802 236.712C191.802 236.509 191.754 236.339 191.658 236.2C191.573 236.061 191.434 235.939 191.242 235.832C191.05 235.715 190.816 235.613 190.538 235.528C190.261 235.432 189.936 235.341 189.562 235.256C189.189 235.16 188.858 235.043 188.57 234.904C188.282 234.765 188.032 234.595 187.818 234.392C187.616 234.189 187.461 233.96 187.354 233.704C187.258 233.437 187.21 233.133 187.21 232.792C187.21 231.971 187.488 231.336 188.042 230.888C188.608 230.44 189.434 230.216 190.522 230.216C190.853 230.216 191.168 230.237 191.466 230.28C191.765 230.312 192.048 230.36 192.314 230.424C192.592 230.477 192.842 230.547 193.066 230.632L192.826 231.944C192.602 231.88 192.373 231.821 192.138 231.768C191.914 231.715 191.669 231.672 191.402 231.64C191.136 231.608 190.842 231.592 190.522 231.592C189.978 231.592 189.568 231.683 189.29 231.864C189.024 232.045 188.89 232.307 188.89 232.648C188.89 232.851 188.933 233.016 189.018 233.144C189.114 233.272 189.248 233.384 189.418 233.48C189.6 233.565 189.813 233.651 190.058 233.736C190.304 233.811 190.581 233.885 190.89 233.96C191.285 234.056 191.642 234.173 191.962 234.312C192.293 234.44 192.57 234.6 192.794 234.792C193.029 234.984 193.21 235.224 193.338 235.512C193.466 235.789 193.53 236.136 193.53 236.552C193.53 236.915 193.472 237.245 193.354 237.544C193.237 237.832 193.072 238.077 192.858 238.28C192.656 238.483 192.41 238.648 192.122 238.776C191.834 238.904 191.514 239 191.162 239.064C190.81 239.128 190.437 239.16 190.042 239.16C189.669 239.16 189.306 239.139 188.954 239.096C188.602 239.064 188.261 239.011 187.93 238.936C187.6 238.861 187.29 238.771 187.002 238.664ZM198.016 239.16C197.472 239.16 197.019 239.059 196.656 238.856C196.293 238.653 196.021 238.344 195.84 237.928C195.669 237.501 195.584 236.968 195.584 236.328V231.672H194.176V230.52L195.584 230.376L195.808 228.408H197.312V230.376H199.968V231.672H197.312V236.2C197.312 236.723 197.413 237.101 197.616 237.336C197.819 237.571 198.144 237.688 198.592 237.688C198.816 237.688 199.045 237.667 199.28 237.624C199.525 237.571 199.776 237.512 200.032 237.448L200.272 238.776C199.867 238.915 199.472 239.011 199.088 239.064C198.704 239.128 198.347 239.16 198.016 239.16ZM202.52 228.904C202.146 228.904 201.88 228.835 201.72 228.696C201.56 228.557 201.48 228.323 201.48 227.992C201.48 227.672 201.56 227.443 201.72 227.304C201.88 227.155 202.146 227.08 202.52 227.08C202.893 227.08 203.16 227.155 203.32 227.304C203.48 227.443 203.56 227.672 203.56 227.992C203.56 228.323 203.48 228.557 203.32 228.696C203.16 228.835 202.893 228.904 202.52 228.904ZM201.656 239V230.376H203.384V239H201.656ZM205.538 239V230.376H207.106V231.128C207.458 230.936 207.794 230.776 208.114 230.648C208.434 230.509 208.76 230.403 209.09 230.328C209.421 230.253 209.768 230.216 210.13 230.216C210.664 230.216 211.106 230.312 211.458 230.504C211.821 230.696 212.093 230.968 212.274 231.32C212.466 231.672 212.562 232.104 212.562 232.616V239H210.818V233.144C210.818 232.664 210.701 232.301 210.466 232.056C210.232 231.811 209.88 231.688 209.41 231.688C209.165 231.688 208.925 231.715 208.69 231.768C208.456 231.821 208.221 231.896 207.986 231.992C207.752 232.077 207.512 232.184 207.266 232.312V239H205.538ZM217.87 242.52C216.622 242.52 215.678 242.328 215.038 241.944C214.408 241.571 214.094 241.005 214.094 240.248C214.094 239.949 214.142 239.677 214.238 239.432C214.344 239.187 214.499 238.968 214.702 238.776C214.915 238.573 215.176 238.397 215.486 238.248L216.542 238.6C216.328 238.707 216.147 238.824 215.998 238.952C215.859 239.069 215.752 239.203 215.678 239.352C215.603 239.512 215.566 239.693 215.566 239.896C215.566 240.195 215.651 240.445 215.822 240.648C215.992 240.851 216.259 241.005 216.622 241.112C216.984 241.219 217.443 241.272 217.998 241.272C218.574 241.272 219.059 241.213 219.454 241.096C219.848 240.979 220.152 240.808 220.366 240.584C220.579 240.371 220.686 240.115 220.686 239.816C220.686 239.592 220.632 239.411 220.526 239.272C220.43 239.133 220.27 239.032 220.046 238.968C219.822 238.893 219.523 238.856 219.15 238.856H217.134C216.579 238.856 216.104 238.787 215.71 238.648C215.326 238.509 215.032 238.301 214.83 238.024C214.627 237.747 214.526 237.411 214.526 237.016C214.526 236.6 214.627 236.248 214.83 235.96C215.043 235.661 215.347 235.405 215.742 235.192L216.718 235.528C216.451 235.656 216.243 235.805 216.094 235.976C215.944 236.136 215.87 236.333 215.87 236.568C215.87 236.824 215.966 237.027 216.158 237.176C216.36 237.315 216.67 237.384 217.086 237.384H219.678C220.552 237.384 221.208 237.581 221.646 237.976C222.094 238.36 222.318 238.909 222.318 239.624C222.318 240.232 222.142 240.749 221.79 241.176C221.448 241.613 220.947 241.944 220.286 242.168C219.624 242.403 218.819 242.52 217.87 242.52ZM218.03 235.896C216.92 235.896 216.072 235.661 215.486 235.192C214.91 234.712 214.622 234.003 214.622 233.064C214.622 232.125 214.91 231.416 215.486 230.936C216.072 230.456 216.92 230.216 218.03 230.216C219.15 230.216 219.998 230.456 220.574 230.936C221.15 231.416 221.438 232.125 221.438 233.064C221.438 234.003 221.15 234.712 220.574 235.192C219.998 235.661 219.15 235.896 218.03 235.896ZM218.03 234.728C218.616 234.728 219.048 234.6 219.326 234.344C219.614 234.088 219.758 233.661 219.758 233.064C219.758 232.467 219.614 232.04 219.326 231.784C219.048 231.517 218.616 231.384 218.03 231.384C217.464 231.384 217.038 231.517 216.75 231.784C216.462 232.04 216.318 232.467 216.318 233.064C216.318 233.661 216.462 234.088 216.75 234.344C217.038 234.6 217.464 234.728 218.03 234.728ZM220.718 231.816L220.014 230.904C220.163 230.541 220.382 230.275 220.67 230.104C220.968 229.923 221.326 229.832 221.742 229.832C221.87 229.832 221.992 229.843 222.11 229.864C222.227 229.875 222.334 229.896 222.43 229.928L222.238 231.272C222.163 231.251 222.078 231.235 221.982 231.224C221.896 231.213 221.806 231.208 221.71 231.208C221.496 231.208 221.304 231.256 221.134 231.352C220.963 231.448 220.824 231.603 220.718 231.816ZM228.115 238.312L228.627 236.952C228.915 237.08 229.203 237.197 229.491 237.304C229.79 237.4 230.121 237.48 230.483 237.544C230.846 237.597 231.262 237.624 231.731 237.624C232.414 237.624 232.969 237.544 233.395 237.384C233.822 237.224 234.142 236.989 234.355 236.68C234.569 236.371 234.675 236.003 234.675 235.576C234.675 235.256 234.627 234.984 234.531 234.76C234.435 234.525 234.281 234.333 234.067 234.184C233.854 234.024 233.571 233.907 233.219 233.832C232.867 233.757 232.441 233.72 231.939 233.72H228.947L228.787 233.544L229.427 227.8H235.859V229.352H230.771L230.435 232.376H232.707C233.539 232.376 234.233 232.488 234.787 232.712C235.342 232.936 235.758 233.277 236.035 233.736C236.323 234.195 236.467 234.787 236.467 235.512C236.467 236.323 236.275 237 235.891 237.544C235.507 238.077 234.969 238.483 234.275 238.76C233.582 239.027 232.771 239.16 231.843 239.16C231.331 239.16 230.862 239.128 230.435 239.064C230.009 239 229.609 238.904 229.235 238.776C228.862 238.648 228.489 238.493 228.115 238.312ZM238.345 230.872C238.345 230.232 238.409 229.699 238.537 229.272C238.675 228.845 238.867 228.509 239.113 228.264C239.358 228.008 239.651 227.832 239.993 227.736C240.334 227.629 240.718 227.576 241.145 227.576C241.571 227.576 241.955 227.629 242.297 227.736C242.638 227.843 242.926 228.024 243.161 228.28C243.406 228.525 243.593 228.861 243.721 229.288C243.859 229.704 243.929 230.232 243.929 230.872C243.929 231.501 243.859 232.029 243.721 232.456C243.593 232.872 243.406 233.208 243.161 233.464C242.915 233.709 242.622 233.891 242.281 234.008C241.939 234.115 241.561 234.168 241.145 234.168C240.718 234.168 240.334 234.115 239.993 234.008C239.651 233.891 239.358 233.709 239.113 233.464C238.867 233.208 238.675 232.872 238.537 232.456C238.409 232.029 238.345 231.501 238.345 230.872ZM239.657 230.888C239.657 231.539 239.721 232.04 239.849 232.392C239.977 232.733 240.153 232.968 240.377 233.096C240.601 233.224 240.857 233.288 241.145 233.288C241.433 233.288 241.683 233.224 241.897 233.096C242.121 232.968 242.297 232.733 242.425 232.392C242.553 232.04 242.617 231.539 242.617 230.888C242.617 230.205 242.553 229.693 242.425 229.352C242.297 229 242.121 228.765 241.897 228.648C241.683 228.52 241.433 228.456 241.145 228.456C240.857 228.456 240.601 228.52 240.377 228.648C240.153 228.765 239.977 229 239.849 229.352C239.721 229.704 239.657 230.216 239.657 230.888ZM242.793 239.128L241.673 239.064L247.497 227.32L248.617 227.384L242.793 239.128ZM246.329 235.848C246.329 235.208 246.393 234.675 246.521 234.248C246.659 233.821 246.851 233.485 247.097 233.24C247.342 232.984 247.635 232.808 247.977 232.712C248.318 232.605 248.702 232.552 249.129 232.552C249.555 232.552 249.939 232.605 250.281 232.712C250.622 232.819 250.91 233 251.145 233.256C251.39 233.501 251.577 233.837 251.705 234.264C251.843 234.68 251.913 235.208 251.913 235.848C251.913 236.477 251.843 237.005 251.705 237.432C251.577 237.848 251.39 238.184 251.145 238.44C250.899 238.685 250.606 238.867 250.265 238.984C249.923 239.091 249.545 239.144 249.129 239.144C248.702 239.144 248.318 239.091 247.977 238.984C247.635 238.867 247.342 238.685 247.097 238.44C246.851 238.184 246.659 237.848 246.521 237.432C246.393 237.005 246.329 236.477 246.329 235.848ZM247.641 235.864C247.641 236.515 247.705 237.016 247.833 237.368C247.961 237.709 248.137 237.944 248.361 238.072C248.585 238.2 248.841 238.264 249.129 238.264C249.417 238.264 249.667 238.2 249.881 238.072C250.105 237.944 250.281 237.709 250.409 237.368C250.537 237.016 250.601 236.515 250.601 235.864C250.601 235.181 250.537 234.669 250.409 234.328C250.281 233.976 250.105 233.741 249.881 233.624C249.667 233.496 249.417 233.432 249.129 233.432C248.841 233.432 248.585 233.496 248.361 233.624C248.137 233.741 247.961 233.976 247.833 234.328C247.705 234.68 247.641 235.192 247.641 235.864ZM94.7224 263.36V251.328H96.2904L96.3384 252.16C96.829 251.84 97.3037 251.605 97.7624 251.456C98.221 251.296 98.685 251.216 99.1544 251.216C100.093 251.216 100.813 251.589 101.314 252.336C101.816 253.072 102.066 254.128 102.066 255.504C102.066 256.56 101.922 257.435 101.634 258.128C101.346 258.821 100.909 259.333 100.322 259.664C99.7357 259.995 98.9944 260.16 98.0984 260.16C97.853 260.16 97.5917 260.144 97.3144 260.112C97.0477 260.08 96.7597 260.037 96.4504 259.984V263.36H94.7224ZM97.9704 258.88C98.5037 258.88 98.9357 258.779 99.2664 258.576C99.6077 258.363 99.8584 258.021 100.018 257.552C100.189 257.072 100.274 256.443 100.274 255.664C100.274 254.981 100.205 254.421 100.066 253.984C99.9277 253.536 99.725 253.205 99.4584 252.992C99.2024 252.768 98.8824 252.656 98.4984 252.656C98.285 252.656 98.0664 252.683 97.8424 252.736C97.629 252.779 97.4104 252.853 97.1864 252.96C96.9624 253.056 96.717 253.189 96.4504 253.36V258.672C96.749 258.736 97.021 258.789 97.2664 258.832C97.5117 258.864 97.7464 258.88 97.9704 258.88ZM107.359 260.16C106.73 260.16 106.175 260.08 105.695 259.92C105.226 259.749 104.82 259.493 104.479 259.152C104.148 258.811 103.898 258.373 103.727 257.84C103.556 257.296 103.471 256.656 103.471 255.92C103.471 255.056 103.572 254.325 103.775 253.728C103.988 253.12 104.276 252.635 104.639 252.272C105.012 251.899 105.444 251.632 105.935 251.472C106.436 251.301 106.98 251.216 107.567 251.216C108.719 251.216 109.567 251.515 110.111 252.112C110.666 252.709 110.943 253.68 110.943 255.024C110.943 255.099 110.938 255.205 110.927 255.344C110.927 255.472 110.927 255.6 110.927 255.728C110.682 255.749 110.367 255.776 109.983 255.808C109.61 255.84 109.178 255.872 108.687 255.904C108.196 255.936 107.663 255.963 107.087 255.984C106.511 256.005 105.908 256.021 105.279 256.032C105.268 256.075 105.263 256.123 105.263 256.176C105.263 256.219 105.263 256.267 105.263 256.32C105.263 256.907 105.354 257.381 105.535 257.744C105.716 258.096 105.983 258.357 106.335 258.528C106.687 258.688 107.13 258.768 107.663 258.768C107.983 258.768 108.314 258.752 108.655 258.72C109.007 258.677 109.348 258.629 109.679 258.576C110.01 258.512 110.324 258.443 110.623 258.368L110.847 259.664C110.527 259.76 110.18 259.851 109.807 259.936C109.444 260.011 109.06 260.064 108.655 260.096C108.25 260.139 107.818 260.16 107.359 260.16ZM105.295 254.864C105.743 254.864 106.17 254.859 106.575 254.848C106.991 254.827 107.375 254.805 107.727 254.784C108.079 254.763 108.378 254.747 108.623 254.736C108.879 254.715 109.071 254.699 109.199 254.688C109.188 254.155 109.119 253.728 108.991 253.408C108.863 253.088 108.671 252.859 108.415 252.72C108.159 252.571 107.834 252.496 107.439 252.496C107.194 252.496 106.954 252.533 106.719 252.608C106.484 252.672 106.266 252.795 106.063 252.976C105.871 253.147 105.706 253.387 105.567 253.696C105.428 253.995 105.338 254.384 105.295 254.864ZM114.29 251.376V252.432C114.599 252.144 114.887 251.915 115.154 251.744C115.431 251.563 115.708 251.429 115.986 251.344C116.263 251.259 116.556 251.216 116.866 251.216C117.068 251.216 117.271 251.232 117.474 251.264C117.687 251.296 117.884 251.339 118.066 251.392L117.778 252.976C117.586 252.923 117.388 252.885 117.186 252.864C116.994 252.832 116.807 252.816 116.626 252.816C116.284 252.816 115.932 252.885 115.57 253.024C115.218 253.163 114.839 253.397 114.434 253.728V260H112.722V251.376H114.29ZM123.955 260V251.376H125.523V252.128C125.833 251.936 126.137 251.776 126.435 251.648C126.734 251.52 127.033 251.424 127.331 251.36C127.641 251.285 127.961 251.248 128.291 251.248C128.622 251.248 128.905 251.285 129.139 251.36C129.385 251.435 129.593 251.547 129.763 251.696C129.945 251.835 130.089 252.005 130.195 252.208C130.494 252.016 130.798 251.851 131.107 251.712C131.417 251.563 131.742 251.445 132.083 251.36C132.435 251.264 132.809 251.216 133.203 251.216C133.523 251.216 133.806 251.259 134.051 251.344C134.297 251.429 134.51 251.547 134.691 251.696C134.873 251.845 135.017 252.021 135.123 252.224C135.241 252.416 135.326 252.635 135.379 252.88C135.433 253.115 135.459 253.36 135.459 253.616V260H133.731V254.144C133.731 253.973 133.71 253.803 133.667 253.632C133.625 253.451 133.555 253.291 133.459 253.152C133.374 253.013 133.246 252.907 133.075 252.832C132.905 252.747 132.686 252.704 132.419 252.704C132.174 252.704 131.934 252.736 131.699 252.8C131.465 252.853 131.246 252.928 131.043 253.024C130.841 253.12 130.654 253.216 130.483 253.312C130.526 253.44 130.553 253.563 130.563 253.68C130.574 253.797 130.579 253.915 130.579 254.032V260H128.851V254.16C128.851 253.989 128.83 253.819 128.787 253.648C128.745 253.467 128.675 253.312 128.579 253.184C128.483 253.045 128.35 252.933 128.179 252.848C128.019 252.763 127.806 252.72 127.539 252.72C127.326 252.72 127.113 252.747 126.899 252.8C126.697 252.853 126.494 252.923 126.291 253.008C126.089 253.093 125.886 253.2 125.683 253.328V260H123.955ZM137.235 255.68C137.235 254.933 137.299 254.283 137.427 253.728C137.566 253.173 137.785 252.715 138.083 252.352C138.382 251.979 138.782 251.696 139.283 251.504C139.785 251.312 140.403 251.216 141.139 251.216C141.875 251.216 142.494 251.312 142.995 251.504C143.497 251.696 143.897 251.979 144.195 252.352C144.494 252.715 144.707 253.173 144.835 253.728C144.974 254.283 145.043 254.933 145.043 255.68C145.043 256.437 144.969 257.099 144.819 257.664C144.681 258.229 144.457 258.699 144.147 259.072C143.838 259.435 143.433 259.707 142.931 259.888C142.441 260.069 141.843 260.16 141.139 260.16C140.435 260.16 139.833 260.069 139.331 259.888C138.841 259.707 138.441 259.435 138.131 259.072C137.822 258.699 137.593 258.229 137.443 257.664C137.305 257.099 137.235 256.437 137.235 255.68ZM139.011 255.68C139.011 256.459 139.081 257.077 139.219 257.536C139.369 257.995 139.598 258.325 139.907 258.528C140.227 258.731 140.638 258.832 141.139 258.832C141.641 258.832 142.046 258.731 142.355 258.528C142.665 258.325 142.889 257.995 143.027 257.536C143.177 257.077 143.251 256.459 143.251 255.68C143.251 254.901 143.187 254.288 143.059 253.84C142.931 253.381 142.707 253.056 142.387 252.864C142.078 252.661 141.662 252.56 141.139 252.56C140.606 252.56 140.185 252.661 139.875 252.864C139.566 253.056 139.342 253.381 139.203 253.84C139.075 254.288 139.011 254.901 139.011 255.68ZM146.83 260V251.376H148.398V252.128C148.75 251.936 149.086 251.776 149.406 251.648C149.726 251.509 150.051 251.403 150.382 251.328C150.713 251.253 151.059 251.216 151.422 251.216C151.955 251.216 152.398 251.312 152.75 251.504C153.113 251.696 153.385 251.968 153.566 252.32C153.758 252.672 153.854 253.104 153.854 253.616V260H152.11V254.144C152.11 253.664 151.993 253.301 151.758 253.056C151.523 252.811 151.171 252.688 150.702 252.688C150.457 252.688 150.217 252.715 149.982 252.768C149.747 252.821 149.513 252.896 149.278 252.992C149.043 253.077 148.803 253.184 148.558 253.312V260H146.83ZM159.033 260.16C158.489 260.16 158.036 260.059 157.673 259.856C157.311 259.653 157.039 259.344 156.857 258.928C156.687 258.501 156.601 257.968 156.601 257.328V252.672H155.193V251.52L156.601 251.376L156.825 249.408H158.329V251.376H160.985V252.672H158.329V257.2C158.329 257.723 158.431 258.101 158.633 258.336C158.836 258.571 159.161 258.688 159.609 258.688C159.833 258.688 160.063 258.667 160.297 258.624C160.543 258.571 160.793 258.512 161.049 258.448L161.289 259.776C160.884 259.915 160.489 260.011 160.105 260.064C159.721 260.128 159.364 260.16 159.033 260.16ZM162.657 260V248.16H164.417V252.096C164.737 251.904 165.046 251.744 165.345 251.616C165.644 251.488 165.948 251.392 166.257 251.328C166.577 251.253 166.913 251.216 167.265 251.216C167.788 251.216 168.23 251.312 168.593 251.504C168.956 251.685 169.228 251.957 169.409 252.32C169.601 252.672 169.697 253.109 169.697 253.632V260H167.953V254.144C167.953 253.664 167.836 253.307 167.601 253.072C167.366 252.827 167.014 252.704 166.545 252.704C166.3 252.704 166.054 252.731 165.809 252.784C165.574 252.837 165.345 252.912 165.121 253.008C164.897 253.093 164.662 253.2 164.417 253.328V260H162.657Z" fill="#C2ABCB"/>
<path opacity="0.2" d="M0 134.5C1.54413e-06 116.837 3.47895 99.3474 10.2382 83.0291C16.9975 66.7108 26.9047 51.8836 39.3941 39.3941C51.8836 26.9046 66.7108 16.9975 83.0291 10.2382C99.3474 3.47894 116.837 -2.31619e-06 134.5 0C152.163 2.3162e-06 169.653 3.47895 185.971 10.2382C202.289 16.9975 217.116 26.9047 229.606 39.3942C242.095 51.8836 252.003 66.7108 258.762 83.0291C265.521 99.3474 269 116.837 269 134.5L228.65 134.5C228.65 122.136 226.215 109.893 221.483 98.4704C216.752 87.0476 209.817 76.6685 201.074 67.9259C192.331 59.1833 181.952 52.2482 170.53 47.5167C159.107 42.7853 146.864 40.35 134.5 40.35C122.136 40.35 109.893 42.7853 98.4704 47.5167C87.0476 52.2482 76.6685 59.1833 67.9259 67.9259C59.1833 76.6685 52.2482 87.0475 47.5167 98.4703C42.7853 109.893 40.35 122.136 40.35 134.5L0 134.5Z" fill="black"/>
<path d="M0 134.5C2.32559e-06 107.898 7.88829 81.8942 22.6673 59.7758C37.4464 37.6574 58.4524 20.4182 83.0291 10.2382C107.606 0.0582095 134.649 -2.60533 160.74 2.58439C186.83 7.77411 210.796 20.584 229.606 39.3942L201.074 67.9259C187.907 54.7588 171.131 45.7919 152.868 42.1591C134.604 38.5263 115.674 40.3907 98.4704 47.5167C81.2667 54.6427 66.5625 66.7102 56.2171 82.1931C45.8718 97.6759 40.35 115.879 40.35 134.5L0 134.5Z" fill="url(#paint2_linear_257_2411)"/>
<defs>
<radialGradient id="paint0_radial_257_2411" cx="0" cy="0" r="1" gradientUnits="userSpaceOnUse" gradientTransform="translate(73 204.5) rotate(90) scale(8)">
<stop stop-color="#FFE814"/>
<stop offset="1" stop-color="#FFA114"/>
</radialGradient>
<radialGradient id="paint1_radial_257_2411" cx="0" cy="0" r="1" gradientUnits="userSpaceOnUse" gradientTransform="translate(196 204.5) rotate(90) scale(8)">
<stop stop-color="#FFE814"/>
<stop offset="1" stop-color="#FFA114"/>
</radialGradient>
<linearGradient id="paint2_linear_257_2411" x1="-36.9055" y1="307.108" x2="355.37" y2="262.625" gradientUnits="userSpaceOnUse">
<stop stop-color="#6486FF"/>
<stop offset="1" stop-color="#14FFF1"/>
</linearGradient>
</defs>
</svg>
