<svg width="269" height="286" viewBox="0 0 269 286" fill="none" xmlns="http://www.w3.org/2000/svg">
<path d="M82.6726 135V127.416H90.6886V111.768L83.6806 114.264L81.7606 106.2L95.4406 101.352H100.241V127.416H107.105V135H82.6726ZM113.211 128.664C115.227 127.32 117.003 126.072 118.539 124.92C120.107 123.736 121.435 122.648 122.523 121.656C123.643 120.632 124.555 119.688 125.259 118.824C125.995 117.928 126.523 117.096 126.843 116.328C127.195 115.56 127.371 114.824 127.371 114.12C127.371 113.288 127.211 112.584 126.891 112.008C126.571 111.432 126.075 111 125.403 110.712C124.763 110.392 123.899 110.232 122.811 110.232C121.755 110.232 120.619 110.392 119.403 110.712C118.187 111.032 116.923 111.528 115.611 112.2L112.731 104.28C113.883 103.576 115.131 102.968 116.475 102.456C117.851 101.944 119.275 101.56 120.747 101.304C122.219 101.048 123.675 100.92 125.115 100.92C127.739 100.92 129.947 101.352 131.739 102.216C133.563 103.08 134.955 104.312 135.915 105.912C136.875 107.48 137.355 109.352 137.355 111.528C137.355 112.648 137.259 113.688 137.067 114.648C136.907 115.576 136.603 116.504 136.155 117.432C135.739 118.36 135.147 119.32 134.379 120.312C133.611 121.304 132.635 122.392 131.451 123.576C130.299 124.728 128.923 126.008 127.323 127.416H139.611V135H113.259L113.211 128.664ZM144.374 110.76C144.374 108.84 144.582 107.24 144.998 105.96C145.446 104.68 146.07 103.672 146.87 102.936C147.702 102.2 148.71 101.672 149.894 101.352C151.078 101.032 152.422 100.872 153.926 100.872C155.43 100.872 156.774 101.032 157.958 101.352C159.142 101.672 160.134 102.216 160.934 102.984C161.734 103.72 162.326 104.728 162.71 106.008C163.126 107.288 163.334 108.872 163.334 110.76C163.334 112.616 163.126 114.168 162.71 115.416C162.294 116.664 161.67 117.672 160.838 118.44C160.006 119.208 159.014 119.768 157.862 120.12C156.71 120.44 155.398 120.6 153.926 120.6C152.422 120.6 151.078 120.44 149.894 120.12C148.71 119.768 147.702 119.224 146.87 118.488C146.07 117.72 145.446 116.712 144.998 115.464C144.582 114.184 144.374 112.616 144.374 110.76ZM151.382 110.904C151.382 112.44 151.478 113.592 151.67 114.36C151.862 115.096 152.15 115.592 152.534 115.848C152.918 116.072 153.382 116.184 153.926 116.184C154.47 116.184 154.918 116.072 155.27 115.848C155.654 115.592 155.926 115.096 156.086 114.36C156.278 113.592 156.374 112.44 156.374 110.904C156.374 109.176 156.278 107.912 156.086 107.112C155.894 106.312 155.606 105.816 155.222 105.624C154.87 105.4 154.438 105.288 153.926 105.288C153.382 105.288 152.918 105.4 152.534 105.624C152.182 105.848 151.894 106.36 151.67 107.16C151.478 107.96 151.382 109.208 151.382 110.904ZM160.982 135.24L155.03 135.192L173.126 100.488L179.078 100.536L160.982 135.24ZM170.63 125.592C170.63 123.672 170.838 122.072 171.254 120.792C171.702 119.512 172.326 118.504 173.126 117.768C173.958 117.032 174.966 116.504 176.15 116.184C177.334 115.864 178.678 115.704 180.182 115.704C181.686 115.704 183.03 115.864 184.214 116.184C185.398 116.504 186.39 117.048 187.19 117.816C187.99 118.552 188.582 119.56 188.966 120.84C189.382 122.12 189.59 123.704 189.59 125.592C189.59 127.448 189.382 129 188.966 130.248C188.55 131.496 187.926 132.504 187.094 133.272C186.262 134.04 185.27 134.6 184.118 134.952C182.966 135.272 181.654 135.432 180.182 135.432C178.678 135.432 177.334 135.272 176.15 134.952C174.966 134.6 173.958 134.056 173.126 133.32C172.326 132.552 171.702 131.544 171.254 130.296C170.838 129.016 170.63 127.448 170.63 125.592ZM177.638 125.736C177.638 127.272 177.734 128.424 177.926 129.192C178.118 129.928 178.406 130.424 178.79 130.68C179.174 130.904 179.638 131.016 180.182 131.016C180.726 131.016 181.174 130.904 181.526 130.68C181.91 130.424 182.182 129.928 182.342 129.192C182.534 128.424 182.63 127.272 182.63 125.736C182.63 124.008 182.534 122.744 182.342 121.944C182.15 121.144 181.862 120.648 181.478 120.456C181.126 120.232 180.694 120.12 180.182 120.12C179.638 120.12 179.174 120.232 178.79 120.456C178.438 120.68 178.15 121.192 177.926 121.992C177.734 122.792 177.638 124.04 177.638 125.736Z" fill="#1F8088"/>
<path d="M57.2749 172.24C57.2749 170.467 57.5149 169.033 57.9949 167.94C58.4883 166.847 59.2083 166.053 60.1549 165.56C61.1149 165.053 62.3016 164.8 63.7149 164.8C64.1283 164.8 64.5083 164.813 64.8549 164.84C65.2016 164.853 65.5349 164.887 65.8549 164.94C66.1749 164.98 66.4816 165.033 66.7749 165.1C67.0816 165.167 67.3883 165.247 67.6949 165.34L67.2549 167.14C66.8549 167.033 66.4749 166.953 66.1149 166.9C65.7549 166.833 65.3949 166.787 65.0349 166.76C64.6749 166.733 64.3016 166.72 63.9149 166.72C63.1816 166.72 62.5416 166.813 61.9949 167C61.4483 167.187 60.9949 167.493 60.6349 167.92C60.2749 168.347 60.0016 168.913 59.8149 169.62C59.6416 170.327 59.5549 171.193 59.5549 172.22C59.5549 173.167 59.6416 173.967 59.8149 174.62C59.9883 175.26 60.2483 175.78 60.5949 176.18C60.9549 176.567 61.3949 176.853 61.9149 177.04C62.4483 177.213 63.0683 177.3 63.7749 177.3C64.4016 177.3 65.0549 177.26 65.7349 177.18C66.4149 177.087 67.0349 176.96 67.5949 176.8L67.9949 178.58C67.6883 178.673 67.3616 178.76 67.0149 178.84C66.6816 178.92 66.3216 178.987 65.9349 179.04C65.5616 179.093 65.1683 179.133 64.7549 179.16C64.3416 179.187 63.9016 179.2 63.4349 179.2C62.4349 179.2 61.5483 179.08 60.7749 178.84C60.0149 178.587 59.3749 178.187 58.8549 177.64C58.3349 177.093 57.9416 176.38 57.6749 175.5C57.4083 174.607 57.2749 173.52 57.2749 172.24ZM69.196 173.6C69.196 172.667 69.276 171.853 69.436 171.16C69.6093 170.467 69.8827 169.893 70.256 169.44C70.6293 168.973 71.1293 168.62 71.756 168.38C72.3827 168.14 73.156 168.02 74.076 168.02C74.996 168.02 75.7693 168.14 76.396 168.38C77.0227 168.62 77.5227 168.973 77.896 169.44C78.2693 169.893 78.536 170.467 78.696 171.16C78.8693 171.853 78.956 172.667 78.956 173.6C78.956 174.547 78.8627 175.373 78.676 176.08C78.5027 176.787 78.2227 177.373 77.836 177.84C77.4493 178.293 76.9427 178.633 76.316 178.86C75.7027 179.087 74.956 179.2 74.076 179.2C73.196 179.2 72.4427 179.087 71.816 178.86C71.2027 178.633 70.7027 178.293 70.316 177.84C69.9293 177.373 69.6427 176.787 69.456 176.08C69.2827 175.373 69.196 174.547 69.196 173.6ZM71.416 173.6C71.416 174.573 71.5027 175.347 71.676 175.92C71.8627 176.493 72.1493 176.907 72.536 177.16C72.936 177.413 73.4493 177.54 74.076 177.54C74.7027 177.54 75.2093 177.413 75.596 177.16C75.9827 176.907 76.2627 176.493 76.436 175.92C76.6227 175.347 76.716 174.573 76.716 173.6C76.716 172.627 76.636 171.86 76.476 171.3C76.316 170.727 76.036 170.32 75.636 170.08C75.2493 169.827 74.7293 169.7 74.076 169.7C73.4093 169.7 72.8827 169.827 72.496 170.08C72.1093 170.32 71.8293 170.727 71.656 171.3C71.496 171.86 71.416 172.627 71.416 173.6ZM81.1893 179V168.22H83.1493V169.16C83.536 168.92 83.916 168.72 84.2893 168.56C84.6626 168.4 85.036 168.28 85.4093 168.2C85.796 168.107 86.196 168.06 86.6093 168.06C87.0226 168.06 87.376 168.107 87.6693 168.2C87.976 168.293 88.236 168.433 88.4493 168.62C88.676 168.793 88.856 169.007 88.9893 169.26C89.3626 169.02 89.7426 168.813 90.1293 168.64C90.516 168.453 90.9226 168.307 91.3493 168.2C91.7893 168.08 92.256 168.02 92.7493 168.02C93.1493 168.02 93.5026 168.073 93.8093 168.18C94.116 168.287 94.3826 168.433 94.6093 168.62C94.836 168.807 95.016 169.027 95.1493 169.28C95.296 169.52 95.4026 169.793 95.4693 170.1C95.536 170.393 95.5693 170.7 95.5693 171.02V179H93.4093V171.68C93.4093 171.467 93.3826 171.253 93.3293 171.04C93.276 170.813 93.1893 170.613 93.0693 170.44C92.9626 170.267 92.8026 170.133 92.5893 170.04C92.376 169.933 92.1026 169.88 91.7693 169.88C91.4626 169.88 91.1626 169.92 90.8693 170C90.576 170.067 90.3026 170.16 90.0493 170.28C89.796 170.4 89.5626 170.52 89.3493 170.64C89.4026 170.8 89.436 170.953 89.4493 171.1C89.4626 171.247 89.4693 171.393 89.4693 171.54V179H87.3093V171.7C87.3093 171.487 87.2826 171.273 87.2293 171.06C87.176 170.833 87.0893 170.64 86.9693 170.48C86.8493 170.307 86.6826 170.167 86.4693 170.06C86.2693 169.953 86.0026 169.9 85.6693 169.9C85.4026 169.9 85.136 169.933 84.8693 170C84.616 170.067 84.3626 170.153 84.1093 170.26C83.856 170.367 83.6026 170.5 83.3493 170.66V179H81.1893ZM98.269 179V168.22H100.229V169.16C100.616 168.92 100.996 168.72 101.369 168.56C101.742 168.4 102.116 168.28 102.489 168.2C102.876 168.107 103.276 168.06 103.689 168.06C104.102 168.06 104.456 168.107 104.749 168.2C105.056 168.293 105.316 168.433 105.529 168.62C105.756 168.793 105.936 169.007 106.069 169.26C106.442 169.02 106.822 168.813 107.209 168.64C107.596 168.453 108.002 168.307 108.429 168.2C108.869 168.08 109.336 168.02 109.829 168.02C110.229 168.02 110.582 168.073 110.889 168.18C111.196 168.287 111.462 168.433 111.689 168.62C111.916 168.807 112.096 169.027 112.229 169.28C112.376 169.52 112.482 169.793 112.549 170.1C112.616 170.393 112.649 170.7 112.649 171.02V179H110.489V171.68C110.489 171.467 110.462 171.253 110.409 171.04C110.356 170.813 110.269 170.613 110.149 170.44C110.042 170.267 109.882 170.133 109.669 170.04C109.456 169.933 109.182 169.88 108.849 169.88C108.542 169.88 108.242 169.92 107.949 170C107.656 170.067 107.382 170.16 107.129 170.28C106.876 170.4 106.642 170.52 106.429 170.64C106.482 170.8 106.516 170.953 106.529 171.1C106.542 171.247 106.549 171.393 106.549 171.54V179H104.389V171.7C104.389 171.487 104.362 171.273 104.309 171.06C104.256 170.833 104.169 170.64 104.049 170.48C103.929 170.307 103.762 170.167 103.549 170.06C103.349 169.953 103.082 169.9 102.749 169.9C102.482 169.9 102.216 169.933 101.949 170C101.696 170.067 101.442 170.153 101.189 170.26C100.936 170.367 100.682 170.5 100.429 170.66V179H98.269ZM118.349 179.2C117.735 179.2 117.202 179.093 116.749 178.88C116.295 178.653 115.942 178.313 115.689 177.86C115.449 177.407 115.329 176.84 115.329 176.16V168.22H117.489V175.7C117.489 176.233 117.635 176.647 117.929 176.94C118.222 177.233 118.649 177.38 119.209 177.38C119.502 177.38 119.789 177.347 120.069 177.28C120.349 177.213 120.622 177.127 120.889 177.02C121.169 176.9 121.455 176.76 121.749 176.6V168.22H123.909V176.34C123.909 176.593 123.935 176.793 123.989 176.94C124.055 177.087 124.142 177.193 124.249 177.26C124.355 177.313 124.469 177.34 124.589 177.34C124.762 177.34 124.929 177.307 125.089 177.24L125.309 178.8C125.175 178.88 125.022 178.947 124.849 179C124.675 179.067 124.495 179.113 124.309 179.14C124.122 179.18 123.929 179.2 123.729 179.2C123.315 179.2 122.962 179.107 122.669 178.92C122.375 178.72 122.155 178.433 122.009 178.06C121.622 178.287 121.229 178.487 120.829 178.66C120.442 178.833 120.049 178.967 119.649 179.06C119.249 179.153 118.815 179.2 118.349 179.2ZM126.94 179V168.22H128.9V169.16C129.34 168.92 129.76 168.72 130.16 168.56C130.56 168.387 130.967 168.253 131.38 168.16C131.793 168.067 132.227 168.02 132.68 168.02C133.347 168.02 133.9 168.14 134.34 168.38C134.793 168.62 135.133 168.96 135.36 169.4C135.6 169.84 135.72 170.38 135.72 171.02V179H133.54V171.68C133.54 171.08 133.393 170.627 133.1 170.32C132.807 170.013 132.367 169.86 131.78 169.86C131.473 169.86 131.173 169.893 130.88 169.96C130.587 170.027 130.293 170.12 130 170.24C129.707 170.347 129.407 170.48 129.1 170.64V179H126.94ZM139.494 166.38C139.028 166.38 138.694 166.293 138.494 166.12C138.294 165.947 138.194 165.653 138.194 165.24C138.194 164.84 138.294 164.553 138.494 164.38C138.694 164.193 139.028 164.1 139.494 164.1C139.961 164.1 140.294 164.193 140.494 164.38C140.694 164.553 140.794 164.84 140.794 165.24C140.794 165.653 140.694 165.947 140.494 166.12C140.294 166.293 139.961 166.38 139.494 166.38ZM138.414 179V168.22H140.574V179H138.414ZM147.047 179.2C146.367 179.2 145.801 179.073 145.347 178.82C144.894 178.567 144.554 178.18 144.327 177.66C144.114 177.127 144.007 176.46 144.007 175.66V169.84H142.247V168.4L144.007 168.22L144.287 165.76H146.167V168.22H149.487V169.84H146.167V175.5C146.167 176.153 146.294 176.627 146.547 176.92C146.801 177.213 147.207 177.36 147.767 177.36C148.047 177.36 148.334 177.333 148.627 177.28C148.934 177.213 149.247 177.14 149.567 177.06L149.867 178.72C149.361 178.893 148.867 179.013 148.387 179.08C147.907 179.16 147.461 179.2 147.047 179.2ZM153.64 183.16L154.98 179H154.56L150.52 168.26L152.88 168.16L155.86 177.14L158.54 168.16L160.78 168.24L155.84 183.26L153.64 183.16ZM177.616 165.44L177.156 167.2C176.916 167.107 176.636 167.027 176.316 166.96C175.996 166.88 175.663 166.813 175.316 166.76C174.969 166.707 174.623 166.667 174.276 166.64C173.929 166.613 173.603 166.6 173.296 166.6C172.349 166.6 171.596 166.767 171.036 167.1C170.476 167.433 170.196 167.907 170.196 168.52C170.196 168.827 170.263 169.1 170.396 169.34C170.543 169.567 170.763 169.78 171.056 169.98C171.363 170.18 171.763 170.38 172.256 170.58C172.749 170.767 173.343 170.967 174.036 171.18C174.783 171.407 175.423 171.653 175.956 171.92C176.489 172.187 176.929 172.48 177.276 172.8C177.623 173.107 177.876 173.467 178.036 173.88C178.196 174.28 178.276 174.747 178.276 175.28C178.276 176.12 178.056 176.833 177.616 177.42C177.176 177.993 176.536 178.433 175.696 178.74C174.856 179.047 173.823 179.2 172.596 179.2C172.196 179.2 171.769 179.18 171.316 179.14C170.863 179.1 170.403 179.047 169.936 178.98C169.483 178.9 169.043 178.807 168.616 178.7C168.203 178.593 167.829 178.48 167.496 178.36L167.976 176.62C168.296 176.74 168.656 176.847 169.056 176.94C169.456 177.033 169.869 177.12 170.296 177.2C170.723 177.267 171.143 177.32 171.556 177.36C171.969 177.4 172.356 177.42 172.716 177.42C173.436 177.42 174.036 177.347 174.516 177.2C174.996 177.04 175.363 176.813 175.616 176.52C175.869 176.227 175.996 175.873 175.996 175.46C175.996 175.153 175.909 174.88 175.736 174.64C175.563 174.4 175.303 174.187 174.956 174C174.623 173.8 174.189 173.6 173.656 173.4C173.123 173.2 172.496 172.98 171.776 172.74C171.096 172.513 170.509 172.267 170.016 172C169.536 171.733 169.136 171.44 168.816 171.12C168.509 170.8 168.276 170.44 168.116 170.04C167.969 169.64 167.896 169.18 167.896 168.66C167.896 168.1 168.009 167.587 168.236 167.12C168.463 166.64 168.796 166.227 169.236 165.88C169.689 165.533 170.256 165.267 170.936 165.08C171.616 164.893 172.403 164.8 173.296 164.8C173.816 164.8 174.343 164.833 174.876 164.9C175.409 164.953 175.916 165.027 176.396 165.12C176.889 165.213 177.296 165.32 177.616 165.44ZM179.911 176.3C179.911 175.647 180.038 175.113 180.291 174.7C180.558 174.273 180.958 173.94 181.491 173.7C182.025 173.447 182.691 173.253 183.491 173.12C184.291 172.973 185.218 172.86 186.271 172.78V171.54C186.271 170.993 186.078 170.58 185.691 170.3C185.318 170.02 184.765 169.88 184.031 169.88C183.765 169.88 183.458 169.893 183.111 169.92C182.778 169.947 182.425 169.993 182.051 170.06C181.678 170.127 181.298 170.22 180.911 170.34L180.551 168.6C181.125 168.413 181.731 168.273 182.371 168.18C183.011 168.073 183.611 168.02 184.171 168.02C185.145 168.02 185.945 168.153 186.571 168.42C187.211 168.673 187.685 169.06 187.991 169.58C188.311 170.1 188.471 170.747 188.471 171.52V176.28C188.471 176.68 188.531 176.953 188.651 177.1C188.771 177.233 188.925 177.3 189.111 177.3C189.178 177.3 189.258 177.293 189.351 177.28C189.445 177.267 189.538 177.24 189.631 177.2L189.831 178.8C189.618 178.92 189.385 179.013 189.131 179.08C188.878 179.16 188.605 179.2 188.311 179.2C187.805 179.2 187.398 179.087 187.091 178.86C186.798 178.62 186.598 178.26 186.491 177.78C186.158 178.033 185.798 178.273 185.411 178.5C185.038 178.713 184.625 178.88 184.171 179C183.731 179.133 183.245 179.2 182.711 179.2C182.285 179.2 181.898 179.133 181.551 179C181.218 178.88 180.925 178.7 180.671 178.46C180.431 178.207 180.245 177.9 180.111 177.54C179.978 177.18 179.911 176.767 179.911 176.3ZM182.111 176.14C182.111 176.66 182.238 177.047 182.491 177.3C182.745 177.553 183.085 177.68 183.511 177.68C183.831 177.68 184.158 177.633 184.491 177.54C184.825 177.433 185.145 177.293 185.451 177.12C185.771 176.933 186.045 176.713 186.271 176.46V174.02C185.631 174.073 185.058 174.14 184.551 174.22C184.045 174.3 183.605 174.42 183.231 174.58C182.871 174.727 182.591 174.927 182.391 175.18C182.205 175.433 182.111 175.753 182.111 176.14ZM193.56 164.2V175.78C193.56 176.207 193.607 176.533 193.7 176.76C193.794 176.973 193.92 177.12 194.08 177.2C194.24 177.28 194.42 177.32 194.62 177.32C194.767 177.32 194.92 177.307 195.08 177.28C195.24 177.253 195.414 177.207 195.6 177.14L195.82 178.82C195.58 178.927 195.307 179.013 195 179.08C194.694 179.16 194.367 179.2 194.02 179.2C193.46 179.2 192.98 179.107 192.58 178.92C192.194 178.72 191.9 178.387 191.7 177.92C191.5 177.44 191.4 176.787 191.4 175.96V164.2H193.56ZM201.61 179.2C200.823 179.2 200.13 179.1 199.53 178.9C198.943 178.687 198.437 178.367 198.01 177.94C197.597 177.513 197.283 176.967 197.07 176.3C196.857 175.62 196.75 174.82 196.75 173.9C196.75 172.82 196.877 171.907 197.13 171.16C197.397 170.4 197.757 169.793 198.21 169.34C198.677 168.873 199.217 168.54 199.83 168.34C200.457 168.127 201.137 168.02 201.87 168.02C203.31 168.02 204.37 168.393 205.05 169.14C205.743 169.887 206.09 171.1 206.09 172.78C206.09 172.873 206.083 173.007 206.07 173.18C206.07 173.34 206.07 173.5 206.07 173.66C205.763 173.687 205.37 173.72 204.89 173.76C204.423 173.8 203.883 173.84 203.27 173.88C202.657 173.92 201.99 173.953 201.27 173.98C200.55 174.007 199.797 174.027 199.01 174.04C198.997 174.093 198.99 174.153 198.99 174.22C198.99 174.273 198.99 174.333 198.99 174.4C198.99 175.133 199.103 175.727 199.33 176.18C199.557 176.62 199.89 176.947 200.33 177.16C200.77 177.36 201.323 177.46 201.99 177.46C202.39 177.46 202.803 177.44 203.23 177.4C203.67 177.347 204.097 177.287 204.51 177.22C204.923 177.14 205.317 177.053 205.69 176.96L205.97 178.58C205.57 178.7 205.137 178.813 204.67 178.92C204.217 179.013 203.737 179.08 203.23 179.12C202.723 179.173 202.183 179.2 201.61 179.2ZM199.03 172.58C199.59 172.58 200.123 172.573 200.63 172.56C201.15 172.533 201.63 172.507 202.07 172.48C202.51 172.453 202.883 172.433 203.19 172.42C203.51 172.393 203.75 172.373 203.91 172.36C203.897 171.693 203.81 171.16 203.65 170.76C203.49 170.36 203.25 170.073 202.93 169.9C202.61 169.713 202.203 169.62 201.71 169.62C201.403 169.62 201.103 169.667 200.81 169.76C200.517 169.84 200.243 169.993 199.99 170.22C199.75 170.433 199.543 170.733 199.37 171.12C199.197 171.493 199.083 171.98 199.03 172.58Z" fill="black"/>
<path d="M78 196.5L80.0365 202.464L86 204.5L80.0365 206.536L78 212.5L75.9635 206.536L70 204.5L75.9635 202.464L78 196.5Z" fill="url(#paint0_radial_257_2413)"/>
<path d="M94.5143 210.16C94.0876 210.16 93.6663 210.133 93.2503 210.08C92.8449 210.037 92.4556 209.968 92.0823 209.872C91.7089 209.776 91.3676 209.669 91.0583 209.552L91.4743 208.176C91.8049 208.283 92.1196 208.373 92.4183 208.448C92.7276 208.523 93.0316 208.581 93.3303 208.624C93.6396 208.656 93.9543 208.672 94.2743 208.672C95.0849 208.672 95.7303 208.512 96.2103 208.192C96.7009 207.872 97.0529 207.387 97.2663 206.736C97.4903 206.085 97.6023 205.264 97.6023 204.272C97.6023 203.483 97.5436 202.821 97.4263 202.288C97.3196 201.744 97.1596 201.307 96.9463 200.976C96.7329 200.645 96.4609 200.411 96.1303 200.272C95.7996 200.133 95.4156 200.064 94.9783 200.064C94.4769 200.064 94.0396 200.149 93.6663 200.32C93.2929 200.491 92.9996 200.741 92.7863 201.072C92.5836 201.403 92.4823 201.819 92.4823 202.32C92.4823 202.768 92.5783 203.152 92.7703 203.472C92.9729 203.792 93.2503 204.032 93.6023 204.192C93.9649 204.352 94.3809 204.432 94.8503 204.432C95.2236 204.432 95.5863 204.384 95.9383 204.288C96.2903 204.181 96.6316 204.027 96.9623 203.824C97.2929 203.611 97.5863 203.36 97.8423 203.072V204.464C97.5756 204.741 97.2556 204.976 96.8823 205.168C96.5089 205.36 96.1036 205.509 95.6663 205.616C95.2396 205.712 94.8023 205.76 94.3543 205.76C93.5969 205.76 92.9516 205.632 92.4183 205.376C91.8849 205.109 91.4796 204.725 91.2023 204.224C90.9356 203.712 90.8023 203.099 90.8023 202.384C90.8023 201.573 90.9676 200.891 91.2983 200.336C91.6289 199.781 92.1143 199.36 92.7543 199.072C93.3943 198.784 94.1676 198.64 95.0743 198.64C96.0556 198.64 96.8663 198.837 97.5063 199.232C98.1463 199.616 98.6209 200.213 98.9303 201.024C99.2503 201.824 99.4103 202.864 99.4103 204.144C99.4103 205.509 99.2236 206.64 98.8503 207.536C98.4876 208.421 97.9436 209.083 97.2183 209.52C96.4929 209.947 95.5916 210.16 94.5143 210.16ZM101.192 208.944L102.792 208.864C102.856 209.035 102.904 209.221 102.936 209.424C102.968 209.616 102.984 209.824 102.984 210.048C102.984 210.411 102.936 210.773 102.84 211.136C102.744 211.509 102.589 211.861 102.376 212.192C102.162 212.533 101.89 212.843 101.56 213.12L100.296 212.768C100.658 212.416 100.925 211.995 101.096 211.504C101.266 211.013 101.352 210.533 101.352 210.064C101.352 209.915 101.341 209.744 101.32 209.552C101.298 209.36 101.256 209.157 101.192 208.944ZM104.379 204.4C104.379 203.291 104.485 202.368 104.699 201.632C104.912 200.885 105.216 200.293 105.611 199.856C106.005 199.419 106.469 199.109 107.003 198.928C107.547 198.736 108.149 198.64 108.811 198.64C109.483 198.64 110.091 198.736 110.635 198.928C111.179 199.109 111.643 199.424 112.027 199.872C112.421 200.309 112.72 200.896 112.923 201.632C113.136 202.368 113.243 203.291 113.243 204.4C113.243 205.499 113.131 206.421 112.907 207.168C112.693 207.904 112.389 208.491 111.995 208.928C111.611 209.365 111.147 209.68 110.603 209.872C110.059 210.064 109.461 210.16 108.811 210.16C108.149 210.16 107.547 210.069 107.003 209.888C106.469 209.696 106.005 209.381 105.611 208.944C105.227 208.496 104.923 207.904 104.699 207.168C104.485 206.421 104.379 205.499 104.379 204.4ZM106.155 204.448C106.155 205.323 106.219 206.043 106.347 206.608C106.485 207.173 106.672 207.616 106.907 207.936C107.152 208.245 107.435 208.464 107.755 208.592C108.085 208.72 108.437 208.784 108.811 208.784C109.184 208.784 109.531 208.72 109.851 208.592C110.181 208.464 110.464 208.245 110.699 207.936C110.944 207.616 111.131 207.173 111.259 206.608C111.397 206.043 111.467 205.323 111.467 204.448C111.467 203.541 111.397 202.8 111.259 202.224C111.131 201.637 110.944 201.189 110.699 200.88C110.453 200.56 110.171 200.336 109.851 200.208C109.531 200.08 109.184 200.016 108.811 200.016C108.437 200.016 108.091 200.08 107.771 200.208C107.451 200.336 107.168 200.56 106.923 200.88C106.677 201.189 106.485 201.637 106.347 202.224C106.219 202.8 106.155 203.541 106.155 204.448ZM114.464 204.4C114.464 203.291 114.571 202.368 114.784 201.632C114.998 200.885 115.302 200.293 115.696 199.856C116.091 199.419 116.555 199.109 117.088 198.928C117.632 198.736 118.235 198.64 118.896 198.64C119.568 198.64 120.176 198.736 120.72 198.928C121.264 199.109 121.728 199.424 122.112 199.872C122.507 200.309 122.806 200.896 123.008 201.632C123.222 202.368 123.328 203.291 123.328 204.4C123.328 205.499 123.216 206.421 122.992 207.168C122.779 207.904 122.475 208.491 122.08 208.928C121.696 209.365 121.232 209.68 120.688 209.872C120.144 210.064 119.547 210.16 118.896 210.16C118.235 210.16 117.632 210.069 117.088 209.888C116.555 209.696 116.091 209.381 115.696 208.944C115.312 208.496 115.008 207.904 114.784 207.168C114.571 206.421 114.464 205.499 114.464 204.4ZM116.24 204.448C116.24 205.323 116.304 206.043 116.432 206.608C116.571 207.173 116.758 207.616 116.992 207.936C117.238 208.245 117.52 208.464 117.84 208.592C118.171 208.72 118.523 208.784 118.896 208.784C119.27 208.784 119.616 208.72 119.936 208.592C120.267 208.464 120.55 208.245 120.784 207.936C121.03 207.616 121.216 207.173 121.344 206.608C121.483 206.043 121.552 205.323 121.552 204.448C121.552 203.541 121.483 202.8 121.344 202.224C121.216 201.637 121.03 201.189 120.784 200.88C120.539 200.56 120.256 200.336 119.936 200.208C119.616 200.08 119.27 200.016 118.896 200.016C118.523 200.016 118.176 200.08 117.856 200.208C117.536 200.336 117.254 200.56 117.008 200.88C116.763 201.189 116.571 201.637 116.432 202.224C116.304 202.8 116.24 203.541 116.24 204.448ZM124.582 209.216L125.094 207.968C125.414 208.117 125.739 208.245 126.07 208.352C126.401 208.459 126.753 208.544 127.126 208.608C127.499 208.661 127.899 208.688 128.326 208.688C128.945 208.688 129.462 208.613 129.878 208.464C130.305 208.304 130.625 208.069 130.838 207.76C131.051 207.44 131.158 207.056 131.158 206.608C131.158 206.021 130.923 205.589 130.454 205.312C129.995 205.035 129.318 204.896 128.422 204.896H126.79V203.584H128.646C129.094 203.584 129.478 203.515 129.798 203.376C130.118 203.237 130.353 203.04 130.502 202.784C130.662 202.528 130.742 202.235 130.742 201.904C130.742 201.36 130.529 200.939 130.102 200.64C129.675 200.341 129.078 200.192 128.31 200.192C127.841 200.192 127.361 200.24 126.87 200.336C126.39 200.421 125.91 200.581 125.43 200.816L124.998 199.44C125.307 199.269 125.649 199.125 126.022 199.008C126.395 198.891 126.801 198.8 127.238 198.736C127.675 198.672 128.139 198.64 128.63 198.64C129.419 198.64 130.097 198.757 130.662 198.992C131.238 199.216 131.686 199.547 132.006 199.984C132.326 200.411 132.486 200.928 132.486 201.536C132.486 202.144 132.331 202.672 132.022 203.12C131.723 203.557 131.286 203.877 130.71 204.08C131.435 204.24 131.985 204.555 132.358 205.024C132.742 205.483 132.934 206.048 132.934 206.72C132.934 207.445 132.753 208.064 132.39 208.576C132.038 209.088 131.531 209.483 130.87 209.76C130.209 210.027 129.409 210.16 128.47 210.16C127.937 210.16 127.446 210.128 126.998 210.064C126.55 210 126.134 209.899 125.75 209.76C125.366 209.621 124.977 209.44 124.582 209.216ZM139.86 210V198.768H141.556L146.948 207.2V198.8H148.548V210.032H146.852L141.476 201.68V210H139.86ZM150.977 210V198.8H158.337V200.416H152.785V204.112H157.601V205.664H152.801V210H150.977ZM167.9 200.384H164.508V210H162.716V200.384H159.324V198.8H167.9V200.384ZM169.96 203.12L168.648 202.976C168.893 202.421 169.074 201.883 169.192 201.36C169.309 200.837 169.368 200.261 169.368 199.632C169.368 199.493 169.362 199.355 169.352 199.216C169.352 199.077 169.346 198.939 169.336 198.8H170.888C170.898 198.896 170.904 198.992 170.904 199.088C170.904 199.184 170.904 199.28 170.904 199.376C170.904 200.165 170.829 200.853 170.68 201.44C170.53 202.016 170.29 202.576 169.96 203.12ZM171.811 209.664L172.035 208.368C172.217 208.432 172.425 208.496 172.659 208.56C172.894 208.613 173.134 208.661 173.379 208.704C173.635 208.747 173.891 208.779 174.147 208.8C174.403 208.821 174.649 208.832 174.883 208.832C175.47 208.832 175.902 208.736 176.179 208.544C176.467 208.352 176.611 208.075 176.611 207.712C176.611 207.509 176.563 207.339 176.467 207.2C176.382 207.061 176.243 206.939 176.051 206.832C175.859 206.715 175.625 206.613 175.347 206.528C175.07 206.432 174.745 206.341 174.371 206.256C173.998 206.16 173.667 206.043 173.379 205.904C173.091 205.765 172.841 205.595 172.627 205.392C172.425 205.189 172.27 204.96 172.163 204.704C172.067 204.437 172.019 204.133 172.019 203.792C172.019 202.971 172.297 202.336 172.851 201.888C173.417 201.44 174.243 201.216 175.331 201.216C175.662 201.216 175.977 201.237 176.275 201.28C176.574 201.312 176.857 201.36 177.123 201.424C177.401 201.477 177.651 201.547 177.875 201.632L177.635 202.944C177.411 202.88 177.182 202.821 176.947 202.768C176.723 202.715 176.478 202.672 176.211 202.64C175.945 202.608 175.651 202.592 175.331 202.592C174.787 202.592 174.377 202.683 174.099 202.864C173.833 203.045 173.699 203.307 173.699 203.648C173.699 203.851 173.742 204.016 173.827 204.144C173.923 204.272 174.057 204.384 174.227 204.48C174.409 204.565 174.622 204.651 174.867 204.736C175.113 204.811 175.39 204.885 175.699 204.96C176.094 205.056 176.451 205.173 176.771 205.312C177.102 205.44 177.379 205.6 177.603 205.792C177.838 205.984 178.019 206.224 178.147 206.512C178.275 206.789 178.339 207.136 178.339 207.552C178.339 207.915 178.281 208.245 178.163 208.544C178.046 208.832 177.881 209.077 177.667 209.28C177.465 209.483 177.219 209.648 176.931 209.776C176.643 209.904 176.323 210 175.971 210.064C175.619 210.128 175.246 210.16 174.851 210.16C174.478 210.16 174.115 210.139 173.763 210.096C173.411 210.064 173.07 210.011 172.739 209.936C172.409 209.861 172.099 209.771 171.811 209.664Z" fill="#FFFF14"/>
<path d="M191 196.5L193.036 202.464L199 204.5L193.036 206.536L191 212.5L188.964 206.536L183 204.5L188.964 202.464L191 196.5Z" fill="url(#paint1_radial_257_2413)"/>
<path d="M50.1879 239V227.8H51.9799V237.432H57.2599V239H50.1879ZM58.2459 234.68C58.2459 233.933 58.3099 233.283 58.4379 232.728C58.5765 232.173 58.7952 231.715 59.0939 231.352C59.3925 230.979 59.7925 230.696 60.2939 230.504C60.7952 230.312 61.4139 230.216 62.1499 230.216C62.8859 230.216 63.5045 230.312 64.0059 230.504C64.5072 230.696 64.9072 230.979 65.2059 231.352C65.5045 231.715 65.7179 232.173 65.8459 232.728C65.9845 233.283 66.0539 233.933 66.0539 234.68C66.0539 235.437 65.9792 236.099 65.8299 236.664C65.6912 237.229 65.4672 237.699 65.1579 238.072C64.8485 238.435 64.4432 238.707 63.9419 238.888C63.4512 239.069 62.8539 239.16 62.1499 239.16C61.4459 239.16 60.8432 239.069 60.3419 238.888C59.8512 238.707 59.4512 238.435 59.1419 238.072C58.8325 237.699 58.6032 237.229 58.4539 236.664C58.3152 236.099 58.2459 235.437 58.2459 234.68ZM60.0219 234.68C60.0219 235.459 60.0912 236.077 60.2299 236.536C60.3792 236.995 60.6085 237.325 60.9179 237.528C61.2379 237.731 61.6485 237.832 62.1499 237.832C62.6512 237.832 63.0565 237.731 63.3659 237.528C63.6752 237.325 63.8992 236.995 64.0379 236.536C64.1872 236.077 64.2619 235.459 64.2619 234.68C64.2619 233.901 64.1979 233.288 64.0699 232.84C63.9419 232.381 63.7179 232.056 63.3979 231.864C63.0885 231.661 62.6725 231.56 62.1499 231.56C61.6165 231.56 61.1952 231.661 60.8859 231.864C60.5765 232.056 60.3525 232.381 60.2139 232.84C60.0859 233.288 60.0219 233.901 60.0219 234.68ZM67.4565 234.824C67.4565 233.789 67.6165 232.936 67.9365 232.264C68.2565 231.581 68.7258 231.069 69.3445 230.728C69.9738 230.387 70.7365 230.216 71.6325 230.216C71.9312 230.216 72.2352 230.232 72.5445 230.264C72.8645 230.285 73.1738 230.323 73.4725 230.376C73.7712 230.419 74.0432 230.477 74.2885 230.552L74.0325 231.992C73.7978 231.939 73.5525 231.896 73.2965 231.864C73.0405 231.821 72.7845 231.789 72.5285 231.768C72.2832 231.747 72.0432 231.736 71.8085 231.736C71.2538 231.736 70.7845 231.848 70.4005 232.072C70.0272 232.296 69.7392 232.632 69.5365 233.08C69.3445 233.528 69.2485 234.104 69.2485 234.808C69.2485 235.448 69.3498 235.981 69.5525 236.408C69.7552 236.824 70.0485 237.139 70.4325 237.352C70.8165 237.555 71.2805 237.656 71.8245 237.656C72.0698 237.656 72.3205 237.645 72.5765 237.624C72.8432 237.603 73.1098 237.571 73.3765 237.528C73.6538 237.485 73.9205 237.437 74.1765 237.384L74.4325 238.776C74.0272 238.883 73.5525 238.973 73.0085 239.048C72.4752 239.123 71.9578 239.16 71.4565 239.16C70.1338 239.16 69.1365 238.808 68.4645 238.104C67.7925 237.389 67.4565 236.296 67.4565 234.824ZM82.8035 239.144C82.6435 239.144 82.4782 239.123 82.3075 239.08C82.1475 239.048 81.9662 238.973 81.7635 238.856C81.5715 238.728 81.3315 238.541 81.0435 238.296C80.7662 238.051 80.4302 237.731 80.0355 237.336L77.6835 235V239H76.0195V227.16H77.6835V232.728L80.4035 235.448C80.9368 235.971 81.3635 236.365 81.6835 236.632C82.0142 236.899 82.2755 237.08 82.4675 237.176C82.6702 237.272 82.8568 237.32 83.0275 237.32C83.0595 237.32 83.0968 237.32 83.1395 237.32C83.1822 237.309 83.2248 237.304 83.2675 237.304L83.2995 239.096C83.2248 239.107 83.1448 239.117 83.0595 239.128C82.9848 239.139 82.8995 239.144 82.8035 239.144ZM79.3475 235.16L77.9555 234.44C78.3075 234.131 78.6488 233.816 78.9795 233.496C79.3208 233.176 79.6355 232.851 79.9235 232.52C80.2115 232.179 80.4622 231.827 80.6755 231.464C80.8995 231.091 81.0755 230.68 81.2035 230.232L82.9475 230.376C82.8088 230.856 82.6062 231.32 82.3395 231.768C82.0728 232.216 81.7688 232.643 81.4275 233.048C81.0862 233.453 80.7342 233.832 80.3715 234.184C80.0088 234.525 79.6675 234.851 79.3475 235.16ZM92.5492 239.16C92.1226 239.16 91.7012 239.133 91.2852 239.08C90.8799 239.037 90.4906 238.968 90.1172 238.872C89.7439 238.776 89.4026 238.669 89.0932 238.552L89.5092 237.176C89.8399 237.283 90.1546 237.373 90.4532 237.448C90.7626 237.523 91.0666 237.581 91.3652 237.624C91.6746 237.656 91.9892 237.672 92.3092 237.672C93.1199 237.672 93.7652 237.512 94.2452 237.192C94.7359 236.872 95.0879 236.387 95.3012 235.736C95.5252 235.085 95.6372 234.264 95.6372 233.272C95.6372 232.483 95.5786 231.821 95.4612 231.288C95.3546 230.744 95.1946 230.307 94.9812 229.976C94.7679 229.645 94.4959 229.411 94.1652 229.272C93.8346 229.133 93.4506 229.064 93.0132 229.064C92.5119 229.064 92.0746 229.149 91.7012 229.32C91.3279 229.491 91.0346 229.741 90.8212 230.072C90.6186 230.403 90.5172 230.819 90.5172 231.32C90.5172 231.768 90.6132 232.152 90.8052 232.472C91.0079 232.792 91.2852 233.032 91.6372 233.192C91.9999 233.352 92.4159 233.432 92.8852 233.432C93.2586 233.432 93.6212 233.384 93.9732 233.288C94.3252 233.181 94.6666 233.027 94.9972 232.824C95.3279 232.611 95.6212 232.36 95.8772 232.072V233.464C95.6106 233.741 95.2906 233.976 94.9172 234.168C94.5439 234.36 94.1386 234.509 93.7012 234.616C93.2746 234.712 92.8372 234.76 92.3892 234.76C91.6319 234.76 90.9866 234.632 90.4532 234.376C89.9199 234.109 89.5146 233.725 89.2372 233.224C88.9706 232.712 88.8372 232.099 88.8372 231.384C88.8372 230.573 89.0026 229.891 89.3332 229.336C89.6639 228.781 90.1492 228.36 90.7892 228.072C91.4292 227.784 92.2026 227.64 93.1092 227.64C94.0906 227.64 94.9012 227.837 95.5412 228.232C96.1812 228.616 96.6559 229.213 96.9652 230.024C97.2852 230.824 97.4452 231.864 97.4452 233.144C97.4452 234.509 97.2586 235.64 96.8852 236.536C96.5226 237.421 95.9786 238.083 95.2532 238.52C94.5279 238.947 93.6266 239.16 92.5492 239.16ZM99.0345 238.312L99.5465 236.952C99.8345 237.08 100.122 237.197 100.41 237.304C100.709 237.4 101.04 237.48 101.402 237.544C101.765 237.597 102.181 237.624 102.65 237.624C103.333 237.624 103.888 237.544 104.314 237.384C104.741 237.224 105.061 236.989 105.274 236.68C105.488 236.371 105.594 236.003 105.594 235.576C105.594 235.256 105.546 234.984 105.45 234.76C105.354 234.525 105.2 234.333 104.986 234.184C104.773 234.024 104.49 233.907 104.138 233.832C103.786 233.757 103.36 233.72 102.858 233.72H99.8665L99.7065 233.544L100.346 227.8H106.778V229.352H101.69L101.354 232.376H103.626C104.458 232.376 105.152 232.488 105.706 232.712C106.261 232.936 106.677 233.277 106.954 233.736C107.242 234.195 107.386 234.787 107.386 235.512C107.386 236.323 107.194 237 106.81 237.544C106.426 238.077 105.888 238.483 105.194 238.76C104.501 239.027 103.69 239.16 102.762 239.16C102.25 239.16 101.781 239.128 101.354 239.064C100.928 239 100.528 238.904 100.154 238.776C99.7812 238.648 99.4078 238.493 99.0345 238.312ZM109.264 230.872C109.264 230.232 109.328 229.699 109.456 229.272C109.594 228.845 109.786 228.509 110.032 228.264C110.277 228.008 110.57 227.832 110.912 227.736C111.253 227.629 111.637 227.576 112.064 227.576C112.49 227.576 112.874 227.629 113.216 227.736C113.557 227.843 113.845 228.024 114.08 228.28C114.325 228.525 114.512 228.861 114.64 229.288C114.778 229.704 114.848 230.232 114.848 230.872C114.848 231.501 114.778 232.029 114.64 232.456C114.512 232.872 114.325 233.208 114.08 233.464C113.834 233.709 113.541 233.891 113.2 234.008C112.858 234.115 112.48 234.168 112.064 234.168C111.637 234.168 111.253 234.115 110.912 234.008C110.57 233.891 110.277 233.709 110.032 233.464C109.786 233.208 109.594 232.872 109.456 232.456C109.328 232.029 109.264 231.501 109.264 230.872ZM110.576 230.888C110.576 231.539 110.64 232.04 110.768 232.392C110.896 232.733 111.072 232.968 111.296 233.096C111.52 233.224 111.776 233.288 112.064 233.288C112.352 233.288 112.602 233.224 112.816 233.096C113.04 232.968 113.216 232.733 113.344 232.392C113.472 232.04 113.536 231.539 113.536 230.888C113.536 230.205 113.472 229.693 113.344 229.352C113.216 229 113.04 228.765 112.816 228.648C112.602 228.52 112.352 228.456 112.064 228.456C111.776 228.456 111.52 228.52 111.296 228.648C111.072 228.765 110.896 229 110.768 229.352C110.64 229.704 110.576 230.216 110.576 230.888ZM113.712 239.128L112.592 239.064L118.416 227.32L119.536 227.384L113.712 239.128ZM117.248 235.848C117.248 235.208 117.312 234.675 117.44 234.248C117.578 233.821 117.77 233.485 118.016 233.24C118.261 232.984 118.554 232.808 118.896 232.712C119.237 232.605 119.621 232.552 120.048 232.552C120.474 232.552 120.858 232.605 121.2 232.712C121.541 232.819 121.829 233 122.064 233.256C122.309 233.501 122.496 233.837 122.624 234.264C122.762 234.68 122.832 235.208 122.832 235.848C122.832 236.477 122.762 237.005 122.624 237.432C122.496 237.848 122.309 238.184 122.064 238.44C121.818 238.685 121.525 238.867 121.184 238.984C120.842 239.091 120.464 239.144 120.048 239.144C119.621 239.144 119.237 239.091 118.896 238.984C118.554 238.867 118.261 238.685 118.016 238.44C117.77 238.184 117.578 237.848 117.44 237.432C117.312 237.005 117.248 236.477 117.248 235.848ZM118.56 235.864C118.56 236.515 118.624 237.016 118.752 237.368C118.88 237.709 119.056 237.944 119.28 238.072C119.504 238.2 119.76 238.264 120.048 238.264C120.336 238.264 120.586 238.2 120.8 238.072C121.024 237.944 121.2 237.709 121.328 237.368C121.456 237.016 121.52 236.515 121.52 235.864C121.52 235.181 121.456 234.669 121.328 234.328C121.2 233.976 121.024 233.741 120.8 233.624C120.586 233.496 120.336 233.432 120.048 233.432C119.76 233.432 119.504 233.496 119.28 233.624C119.056 233.741 118.88 233.976 118.752 234.328C118.624 234.68 118.56 235.192 118.56 235.864ZM123.911 242.36L128.455 227.16H129.879L125.335 242.36H123.911ZM135.712 235.544V227.8H137.488V235.56C137.488 235.901 137.531 236.195 137.616 236.44C137.712 236.685 137.845 236.893 138.016 237.064C138.197 237.224 138.4 237.352 138.624 237.448C138.859 237.533 139.104 237.597 139.36 237.64C139.616 237.672 139.883 237.688 140.16 237.688C140.437 237.688 140.704 237.672 140.96 237.64C141.216 237.597 141.456 237.528 141.68 237.432C141.904 237.336 142.101 237.208 142.272 237.048C142.443 236.877 142.571 236.675 142.656 236.44C142.752 236.195 142.8 235.901 142.8 235.56V227.8H144.576V235.544C144.576 236.099 144.507 236.579 144.368 236.984C144.229 237.389 144.027 237.731 143.76 238.008C143.493 238.285 143.173 238.509 142.8 238.68C142.437 238.851 142.032 238.973 141.584 239.048C141.136 239.123 140.656 239.16 140.144 239.16C139.643 239.16 139.168 239.123 138.72 239.048C138.272 238.973 137.861 238.851 137.488 238.68C137.125 238.509 136.811 238.285 136.544 238.008C136.277 237.731 136.069 237.389 135.92 236.984C135.781 236.579 135.712 236.099 135.712 235.544ZM146.611 239V230.376H148.179V231.128C148.531 230.936 148.867 230.776 149.187 230.648C149.507 230.509 149.832 230.403 150.163 230.328C150.494 230.253 150.84 230.216 151.203 230.216C151.736 230.216 152.179 230.312 152.531 230.504C152.894 230.696 153.166 230.968 153.347 231.32C153.539 231.672 153.635 232.104 153.635 232.616V239H151.891V233.144C151.891 232.664 151.774 232.301 151.539 232.056C151.304 231.811 150.952 231.688 150.483 231.688C150.238 231.688 149.998 231.715 149.763 231.768C149.528 231.821 149.294 231.896 149.059 231.992C148.824 232.077 148.584 232.184 148.339 232.312V239H146.611ZM157.503 227.16V236.424C157.503 236.765 157.54 237.027 157.615 237.208C157.69 237.379 157.791 237.496 157.919 237.56C158.047 237.624 158.191 237.656 158.351 237.656C158.468 237.656 158.591 237.645 158.719 237.624C158.847 237.603 158.986 237.565 159.135 237.512L159.311 238.856C159.119 238.941 158.9 239.011 158.655 239.064C158.41 239.128 158.148 239.16 157.871 239.16C157.423 239.16 157.039 239.085 156.719 238.936C156.41 238.776 156.175 238.509 156.015 238.136C155.855 237.752 155.775 237.229 155.775 236.568V227.16H157.503ZM160.055 234.68C160.055 233.933 160.119 233.283 160.247 232.728C160.385 232.173 160.604 231.715 160.903 231.352C161.201 230.979 161.601 230.696 162.103 230.504C162.604 230.312 163.223 230.216 163.959 230.216C164.695 230.216 165.313 230.312 165.815 230.504C166.316 230.696 166.716 230.979 167.015 231.352C167.313 231.715 167.527 232.173 167.655 232.728C167.793 233.283 167.863 233.933 167.863 234.68C167.863 235.437 167.788 236.099 167.639 236.664C167.5 237.229 167.276 237.699 166.967 238.072C166.657 238.435 166.252 238.707 165.751 238.888C165.26 239.069 164.663 239.16 163.959 239.16C163.255 239.16 162.652 239.069 162.151 238.888C161.66 238.707 161.26 238.435 160.951 238.072C160.641 237.699 160.412 237.229 160.263 236.664C160.124 236.099 160.055 235.437 160.055 234.68ZM161.831 234.68C161.831 235.459 161.9 236.077 162.039 236.536C162.188 236.995 162.417 237.325 162.727 237.528C163.047 237.731 163.457 237.832 163.959 237.832C164.46 237.832 164.865 237.731 165.175 237.528C165.484 237.325 165.708 236.995 165.847 236.536C165.996 236.077 166.071 235.459 166.071 234.68C166.071 233.901 166.007 233.288 165.879 232.84C165.751 232.381 165.527 232.056 165.207 231.864C164.897 231.661 164.481 231.56 163.959 231.56C163.425 231.56 163.004 231.661 162.695 231.864C162.385 232.056 162.161 232.381 162.023 232.84C161.895 233.288 161.831 233.901 161.831 234.68ZM169.265 234.824C169.265 233.789 169.425 232.936 169.745 232.264C170.065 231.581 170.535 231.069 171.153 230.728C171.783 230.387 172.545 230.216 173.441 230.216C173.74 230.216 174.044 230.232 174.353 230.264C174.673 230.285 174.983 230.323 175.281 230.376C175.58 230.419 175.852 230.477 176.097 230.552L175.841 231.992C175.607 231.939 175.361 231.896 175.105 231.864C174.849 231.821 174.593 231.789 174.337 231.768C174.092 231.747 173.852 231.736 173.617 231.736C173.063 231.736 172.593 231.848 172.209 232.072C171.836 232.296 171.548 232.632 171.345 233.08C171.153 233.528 171.057 234.104 171.057 234.808C171.057 235.448 171.159 235.981 171.361 236.408C171.564 236.824 171.857 237.139 172.241 237.352C172.625 237.555 173.089 237.656 173.633 237.656C173.879 237.656 174.129 237.645 174.385 237.624C174.652 237.603 174.919 237.571 175.185 237.528C175.463 237.485 175.729 237.437 175.985 237.384L176.241 238.776C175.836 238.883 175.361 238.973 174.817 239.048C174.284 239.123 173.767 239.16 173.265 239.16C171.943 239.16 170.945 238.808 170.273 238.104C169.601 237.389 169.265 236.296 169.265 234.824ZM184.612 239.144C184.452 239.144 184.287 239.123 184.116 239.08C183.956 239.048 183.775 238.973 183.572 238.856C183.38 238.728 183.14 238.541 182.852 238.296C182.575 238.051 182.239 237.731 181.844 237.336L179.492 235V239H177.828V227.16H179.492V232.728L182.212 235.448C182.746 235.971 183.172 236.365 183.492 236.632C183.823 236.899 184.084 237.08 184.276 237.176C184.479 237.272 184.666 237.32 184.836 237.32C184.868 237.32 184.906 237.32 184.948 237.32C184.991 237.309 185.034 237.304 185.076 237.304L185.108 239.096C185.034 239.107 184.954 239.117 184.868 239.128C184.794 239.139 184.708 239.144 184.612 239.144ZM181.156 235.16L179.764 234.44C180.116 234.131 180.458 233.816 180.788 233.496C181.13 233.176 181.444 232.851 181.732 232.52C182.02 232.179 182.271 231.827 182.484 231.464C182.708 231.091 182.884 230.68 183.012 230.232L184.756 230.376C184.618 230.856 184.415 231.32 184.148 231.768C183.882 232.216 183.578 232.643 183.236 233.048C182.895 233.453 182.543 233.832 182.18 234.184C181.818 234.525 181.476 234.851 181.156 235.16ZM190.742 238.312L191.254 236.952C191.542 237.08 191.83 237.197 192.118 237.304C192.417 237.4 192.747 237.48 193.11 237.544C193.473 237.597 193.889 237.624 194.358 237.624C195.041 237.624 195.595 237.544 196.022 237.384C196.449 237.224 196.769 236.989 196.982 236.68C197.195 236.371 197.302 236.003 197.302 235.576C197.302 235.256 197.254 234.984 197.158 234.76C197.062 234.525 196.907 234.333 196.694 234.184C196.481 234.024 196.198 233.907 195.846 233.832C195.494 233.757 195.067 233.72 194.566 233.72H191.574L191.414 233.544L192.054 227.8H198.486V229.352H193.398L193.062 232.376H195.334C196.166 232.376 196.859 232.488 197.414 232.712C197.969 232.936 198.385 233.277 198.662 233.736C198.95 234.195 199.094 234.787 199.094 235.512C199.094 236.323 198.902 237 198.518 237.544C198.134 238.077 197.595 238.483 196.902 238.76C196.209 239.027 195.398 239.16 194.47 239.16C193.958 239.16 193.489 239.128 193.062 239.064C192.635 239 192.235 238.904 191.862 238.776C191.489 238.648 191.115 238.493 190.742 238.312ZM200.971 230.872C200.971 230.232 201.035 229.699 201.163 229.272C201.302 228.845 201.494 228.509 201.739 228.264C201.985 228.008 202.278 227.832 202.619 227.736C202.961 227.629 203.345 227.576 203.771 227.576C204.198 227.576 204.582 227.629 204.923 227.736C205.265 227.843 205.553 228.024 205.787 228.28C206.033 228.525 206.219 228.861 206.347 229.288C206.486 229.704 206.555 230.232 206.555 230.872C206.555 231.501 206.486 232.029 206.347 232.456C206.219 232.872 206.033 233.208 205.787 233.464C205.542 233.709 205.249 233.891 204.907 234.008C204.566 234.115 204.187 234.168 203.771 234.168C203.345 234.168 202.961 234.115 202.619 234.008C202.278 233.891 201.985 233.709 201.739 233.464C201.494 233.208 201.302 232.872 201.163 232.456C201.035 232.029 200.971 231.501 200.971 230.872ZM202.283 230.888C202.283 231.539 202.347 232.04 202.475 232.392C202.603 232.733 202.779 232.968 203.003 233.096C203.227 233.224 203.483 233.288 203.771 233.288C204.059 233.288 204.31 233.224 204.523 233.096C204.747 232.968 204.923 232.733 205.051 232.392C205.179 232.04 205.243 231.539 205.243 230.888C205.243 230.205 205.179 229.693 205.051 229.352C204.923 229 204.747 228.765 204.523 228.648C204.31 228.52 204.059 228.456 203.771 228.456C203.483 228.456 203.227 228.52 203.003 228.648C202.779 228.765 202.603 229 202.475 229.352C202.347 229.704 202.283 230.216 202.283 230.888ZM205.419 239.128L204.299 239.064L210.123 227.32L211.243 227.384L205.419 239.128ZM208.955 235.848C208.955 235.208 209.019 234.675 209.147 234.248C209.286 233.821 209.478 233.485 209.723 233.24C209.969 232.984 210.262 232.808 210.603 232.712C210.945 232.605 211.329 232.552 211.755 232.552C212.182 232.552 212.566 232.605 212.907 232.712C213.249 232.819 213.537 233 213.771 233.256C214.017 233.501 214.203 233.837 214.331 234.264C214.47 234.68 214.539 235.208 214.539 235.848C214.539 236.477 214.47 237.005 214.331 237.432C214.203 237.848 214.017 238.184 213.771 238.44C213.526 238.685 213.233 238.867 212.891 238.984C212.55 239.091 212.171 239.144 211.755 239.144C211.329 239.144 210.945 239.091 210.603 238.984C210.262 238.867 209.969 238.685 209.723 238.44C209.478 238.184 209.286 237.848 209.147 237.432C209.019 237.005 208.955 236.477 208.955 235.848ZM210.267 235.864C210.267 236.515 210.331 237.016 210.459 237.368C210.587 237.709 210.763 237.944 210.987 238.072C211.211 238.2 211.467 238.264 211.755 238.264C212.043 238.264 212.294 238.2 212.507 238.072C212.731 237.944 212.907 237.709 213.035 237.368C213.163 237.016 213.227 236.515 213.227 235.864C213.227 235.181 213.163 234.669 213.035 234.328C212.907 233.976 212.731 233.741 212.507 233.624C212.294 233.496 212.043 233.432 211.755 233.432C211.467 233.432 211.211 233.496 210.987 233.624C210.763 233.741 210.587 233.976 210.459 234.328C210.331 234.68 210.267 235.192 210.267 235.864ZM94.7224 263.36V251.328H96.2904L96.3384 252.16C96.829 251.84 97.3037 251.605 97.7624 251.456C98.221 251.296 98.685 251.216 99.1544 251.216C100.093 251.216 100.813 251.589 101.314 252.336C101.816 253.072 102.066 254.128 102.066 255.504C102.066 256.56 101.922 257.435 101.634 258.128C101.346 258.821 100.909 259.333 100.322 259.664C99.7357 259.995 98.9944 260.16 98.0984 260.16C97.853 260.16 97.5917 260.144 97.3144 260.112C97.0477 260.08 96.7597 260.037 96.4504 259.984V263.36H94.7224ZM97.9704 258.88C98.5037 258.88 98.9357 258.779 99.2664 258.576C99.6077 258.363 99.8584 258.021 100.018 257.552C100.189 257.072 100.274 256.443 100.274 255.664C100.274 254.981 100.205 254.421 100.066 253.984C99.9277 253.536 99.725 253.205 99.4584 252.992C99.2024 252.768 98.8824 252.656 98.4984 252.656C98.285 252.656 98.0664 252.683 97.8424 252.736C97.629 252.779 97.4104 252.853 97.1864 252.96C96.9624 253.056 96.717 253.189 96.4504 253.36V258.672C96.749 258.736 97.021 258.789 97.2664 258.832C97.5117 258.864 97.7464 258.88 97.9704 258.88ZM107.359 260.16C106.73 260.16 106.175 260.08 105.695 259.92C105.226 259.749 104.82 259.493 104.479 259.152C104.148 258.811 103.898 258.373 103.727 257.84C103.556 257.296 103.471 256.656 103.471 255.92C103.471 255.056 103.572 254.325 103.775 253.728C103.988 253.12 104.276 252.635 104.639 252.272C105.012 251.899 105.444 251.632 105.935 251.472C106.436 251.301 106.98 251.216 107.567 251.216C108.719 251.216 109.567 251.515 110.111 252.112C110.666 252.709 110.943 253.68 110.943 255.024C110.943 255.099 110.938 255.205 110.927 255.344C110.927 255.472 110.927 255.6 110.927 255.728C110.682 255.749 110.367 255.776 109.983 255.808C109.61 255.84 109.178 255.872 108.687 255.904C108.196 255.936 107.663 255.963 107.087 255.984C106.511 256.005 105.908 256.021 105.279 256.032C105.268 256.075 105.263 256.123 105.263 256.176C105.263 256.219 105.263 256.267 105.263 256.32C105.263 256.907 105.354 257.381 105.535 257.744C105.716 258.096 105.983 258.357 106.335 258.528C106.687 258.688 107.13 258.768 107.663 258.768C107.983 258.768 108.314 258.752 108.655 258.72C109.007 258.677 109.348 258.629 109.679 258.576C110.01 258.512 110.324 258.443 110.623 258.368L110.847 259.664C110.527 259.76 110.18 259.851 109.807 259.936C109.444 260.011 109.06 260.064 108.655 260.096C108.25 260.139 107.818 260.16 107.359 260.16ZM105.295 254.864C105.743 254.864 106.17 254.859 106.575 254.848C106.991 254.827 107.375 254.805 107.727 254.784C108.079 254.763 108.378 254.747 108.623 254.736C108.879 254.715 109.071 254.699 109.199 254.688C109.188 254.155 109.119 253.728 108.991 253.408C108.863 253.088 108.671 252.859 108.415 252.72C108.159 252.571 107.834 252.496 107.439 252.496C107.194 252.496 106.954 252.533 106.719 252.608C106.484 252.672 106.266 252.795 106.063 252.976C105.871 253.147 105.706 253.387 105.567 253.696C105.428 253.995 105.338 254.384 105.295 254.864ZM114.29 251.376V252.432C114.599 252.144 114.887 251.915 115.154 251.744C115.431 251.563 115.708 251.429 115.986 251.344C116.263 251.259 116.556 251.216 116.866 251.216C117.068 251.216 117.271 251.232 117.474 251.264C117.687 251.296 117.884 251.339 118.066 251.392L117.778 252.976C117.586 252.923 117.388 252.885 117.186 252.864C116.994 252.832 116.807 252.816 116.626 252.816C116.284 252.816 115.932 252.885 115.57 253.024C115.218 253.163 114.839 253.397 114.434 253.728V260H112.722V251.376H114.29ZM123.955 260V251.376H125.523V252.128C125.833 251.936 126.137 251.776 126.435 251.648C126.734 251.52 127.033 251.424 127.331 251.36C127.641 251.285 127.961 251.248 128.291 251.248C128.622 251.248 128.905 251.285 129.139 251.36C129.385 251.435 129.593 251.547 129.763 251.696C129.945 251.835 130.089 252.005 130.195 252.208C130.494 252.016 130.798 251.851 131.107 251.712C131.417 251.563 131.742 251.445 132.083 251.36C132.435 251.264 132.809 251.216 133.203 251.216C133.523 251.216 133.806 251.259 134.051 251.344C134.297 251.429 134.51 251.547 134.691 251.696C134.873 251.845 135.017 252.021 135.123 252.224C135.241 252.416 135.326 252.635 135.379 252.88C135.433 253.115 135.459 253.36 135.459 253.616V260H133.731V254.144C133.731 253.973 133.71 253.803 133.667 253.632C133.625 253.451 133.555 253.291 133.459 253.152C133.374 253.013 133.246 252.907 133.075 252.832C132.905 252.747 132.686 252.704 132.419 252.704C132.174 252.704 131.934 252.736 131.699 252.8C131.465 252.853 131.246 252.928 131.043 253.024C130.841 253.12 130.654 253.216 130.483 253.312C130.526 253.44 130.553 253.563 130.563 253.68C130.574 253.797 130.579 253.915 130.579 254.032V260H128.851V254.16C128.851 253.989 128.83 253.819 128.787 253.648C128.745 253.467 128.675 253.312 128.579 253.184C128.483 253.045 128.35 252.933 128.179 252.848C128.019 252.763 127.806 252.72 127.539 252.72C127.326 252.72 127.113 252.747 126.899 252.8C126.697 252.853 126.494 252.923 126.291 253.008C126.089 253.093 125.886 253.2 125.683 253.328V260H123.955ZM137.235 255.68C137.235 254.933 137.299 254.283 137.427 253.728C137.566 253.173 137.785 252.715 138.083 252.352C138.382 251.979 138.782 251.696 139.283 251.504C139.785 251.312 140.403 251.216 141.139 251.216C141.875 251.216 142.494 251.312 142.995 251.504C143.497 251.696 143.897 251.979 144.195 252.352C144.494 252.715 144.707 253.173 144.835 253.728C144.974 254.283 145.043 254.933 145.043 255.68C145.043 256.437 144.969 257.099 144.819 257.664C144.681 258.229 144.457 258.699 144.147 259.072C143.838 259.435 143.433 259.707 142.931 259.888C142.441 260.069 141.843 260.16 141.139 260.16C140.435 260.16 139.833 260.069 139.331 259.888C138.841 259.707 138.441 259.435 138.131 259.072C137.822 258.699 137.593 258.229 137.443 257.664C137.305 257.099 137.235 256.437 137.235 255.68ZM139.011 255.68C139.011 256.459 139.081 257.077 139.219 257.536C139.369 257.995 139.598 258.325 139.907 258.528C140.227 258.731 140.638 258.832 141.139 258.832C141.641 258.832 142.046 258.731 142.355 258.528C142.665 258.325 142.889 257.995 143.027 257.536C143.177 257.077 143.251 256.459 143.251 255.68C143.251 254.901 143.187 254.288 143.059 253.84C142.931 253.381 142.707 253.056 142.387 252.864C142.078 252.661 141.662 252.56 141.139 252.56C140.606 252.56 140.185 252.661 139.875 252.864C139.566 253.056 139.342 253.381 139.203 253.84C139.075 254.288 139.011 254.901 139.011 255.68ZM146.83 260V251.376H148.398V252.128C148.75 251.936 149.086 251.776 149.406 251.648C149.726 251.509 150.051 251.403 150.382 251.328C150.713 251.253 151.059 251.216 151.422 251.216C151.955 251.216 152.398 251.312 152.75 251.504C153.113 251.696 153.385 251.968 153.566 252.32C153.758 252.672 153.854 253.104 153.854 253.616V260H152.11V254.144C152.11 253.664 151.993 253.301 151.758 253.056C151.523 252.811 151.171 252.688 150.702 252.688C150.457 252.688 150.217 252.715 149.982 252.768C149.747 252.821 149.513 252.896 149.278 252.992C149.043 253.077 148.803 253.184 148.558 253.312V260H146.83ZM159.033 260.16C158.489 260.16 158.036 260.059 157.673 259.856C157.311 259.653 157.039 259.344 156.857 258.928C156.687 258.501 156.601 257.968 156.601 257.328V252.672H155.193V251.52L156.601 251.376L156.825 249.408H158.329V251.376H160.985V252.672H158.329V257.2C158.329 257.723 158.431 258.101 158.633 258.336C158.836 258.571 159.161 258.688 159.609 258.688C159.833 258.688 160.063 258.667 160.297 258.624C160.543 258.571 160.793 258.512 161.049 258.448L161.289 259.776C160.884 259.915 160.489 260.011 160.105 260.064C159.721 260.128 159.364 260.16 159.033 260.16ZM162.657 260V248.16H164.417V252.096C164.737 251.904 165.046 251.744 165.345 251.616C165.644 251.488 165.948 251.392 166.257 251.328C166.577 251.253 166.913 251.216 167.265 251.216C167.788 251.216 168.23 251.312 168.593 251.504C168.956 251.685 169.228 251.957 169.409 252.32C169.601 252.672 169.697 253.109 169.697 253.632V260H167.953V254.144C167.953 253.664 167.836 253.307 167.601 253.072C167.366 252.827 167.014 252.704 166.545 252.704C166.3 252.704 166.054 252.731 165.809 252.784C165.574 252.837 165.345 252.912 165.121 253.008C164.897 253.093 164.662 253.2 164.417 253.328V260H162.657Z" fill="#C2ABCB"/>
<path opacity="0.2" d="M0 134.5C1.54413e-06 116.837 3.47895 99.3474 10.2382 83.0291C16.9975 66.7108 26.9047 51.8836 39.3941 39.3941C51.8836 26.9046 66.7108 16.9975 83.0291 10.2382C99.3474 3.47894 116.837 -2.31619e-06 134.5 0C152.163 2.3162e-06 169.653 3.47895 185.971 10.2382C202.289 16.9975 217.116 26.9047 229.606 39.3942C242.095 51.8836 252.003 66.7108 258.762 83.0291C265.521 99.3474 269 116.837 269 134.5L228.65 134.5C228.65 122.136 226.215 109.893 221.483 98.4704C216.752 87.0476 209.817 76.6685 201.074 67.9259C192.331 59.1833 181.952 52.2482 170.53 47.5167C159.107 42.7853 146.864 40.35 134.5 40.35C122.136 40.35 109.893 42.7853 98.4704 47.5167C87.0476 52.2482 76.6685 59.1833 67.9259 67.9259C59.1833 76.6685 52.2482 87.0475 47.5167 98.4703C42.7853 109.893 40.35 122.136 40.35 134.5H0Z" fill="black"/>
<path d="M0 134.5C1.54413e-06 116.837 3.47895 99.3474 10.2382 83.0291C16.9975 66.7108 26.9047 51.8836 39.3942 39.3941L67.9259 67.9259C59.1833 76.6685 52.2482 87.0475 47.5167 98.4703C42.7853 109.893 40.35 122.136 40.35 134.5H0Z" fill="url(#paint2_linear_257_2413)"/>
<defs>
<radialGradient id="paint0_radial_257_2413" cx="0" cy="0" r="1" gradientUnits="userSpaceOnUse" gradientTransform="translate(78 204.5) rotate(90) scale(8)">
<stop stop-color="#FFE814"/>
<stop offset="1" stop-color="#FFA114"/>
</radialGradient>
<radialGradient id="paint1_radial_257_2413" cx="0" cy="0" r="1" gradientUnits="userSpaceOnUse" gradientTransform="translate(191 204.5) rotate(90) scale(8)">
<stop stop-color="#FFE814"/>
<stop offset="1" stop-color="#FFA114"/>
</radialGradient>
<linearGradient id="paint2_linear_257_2413" x1="-36.9055" y1="307.108" x2="355.37" y2="262.625" gradientUnits="userSpaceOnUse">
<stop stop-color="#1F8088"/>
<stop offset="1" stop-color="#00FFF0"/>
</linearGradient>
</defs>
</svg>
