<svg width="269" height="286" viewBox="0 0 269 286" fill="none" xmlns="http://www.w3.org/2000/svg">
<path d="M79.6006 132.984L82.0486 126.12C82.8806 126.44 83.7926 126.712 84.7846 126.936C85.7766 127.16 86.8166 127.336 87.9046 127.464C88.9926 127.592 90.0966 127.656 91.2166 127.656C92.6886 127.656 93.8726 127.544 94.7686 127.32C95.6646 127.096 96.3046 126.744 96.6886 126.264C97.0726 125.784 97.2646 125.176 97.2646 124.44C97.2646 123.448 96.8006 122.712 95.8726 122.232C94.9766 121.752 93.4886 121.512 91.4086 121.512H86.1286V114.648H91.1206C92.4646 114.648 93.5366 114.552 94.3366 114.36C95.1686 114.136 95.7606 113.816 96.1126 113.4C96.4966 112.984 96.6886 112.472 96.6886 111.864C96.6886 110.968 96.2086 110.296 95.2486 109.848C94.2886 109.368 92.7686 109.128 90.6886 109.128C89.2486 109.128 87.7926 109.24 86.3206 109.464C84.8486 109.688 83.4886 110.024 82.2406 110.472L80.0806 103.416C81.0086 102.872 82.1286 102.424 83.4406 102.072C84.7846 101.688 86.2246 101.4 87.7606 101.208C89.2966 101.016 90.9126 100.92 92.6086 100.92C95.6166 100.92 98.1126 101.272 100.097 101.976C102.113 102.68 103.617 103.688 104.609 105C105.601 106.312 106.097 107.88 106.097 109.704C106.097 111.368 105.649 112.856 104.753 114.168C103.889 115.48 102.641 116.504 101.009 117.24C102.961 117.88 104.433 118.888 105.425 120.264C106.417 121.64 106.913 123.256 106.913 125.112C106.913 127.288 106.337 129.16 105.185 130.728C104.065 132.264 102.401 133.448 100.193 134.28C98.0166 135.08 95.3126 135.48 92.0806 135.48C90.3846 135.48 88.8166 135.384 87.3766 135.192C85.9366 135.032 84.5926 134.776 83.3446 134.424C82.0966 134.04 80.8486 133.56 79.6006 132.984ZM111.771 118.2C111.771 114.904 112.107 112.152 112.779 109.944C113.451 107.704 114.411 105.928 115.659 104.616C116.939 103.304 118.475 102.36 120.267 101.784C122.059 101.208 124.059 100.92 126.267 100.92C128.571 100.92 130.619 101.208 132.411 101.784C134.203 102.36 135.723 103.32 136.971 104.664C138.219 105.976 139.163 107.752 139.803 109.992C140.475 112.2 140.811 114.936 140.811 118.2C140.811 121.464 140.459 124.216 139.755 126.456C139.083 128.664 138.107 130.424 136.827 131.736C135.547 133.048 134.011 134.008 132.219 134.616C130.459 135.192 128.475 135.48 126.267 135.48C124.091 135.48 122.107 135.192 120.315 134.616C118.523 134.04 116.987 133.096 115.707 131.784C114.427 130.44 113.451 128.664 112.779 126.456C112.107 124.216 111.771 121.464 111.771 118.2ZM121.515 118.536C121.515 120.616 121.627 122.312 121.851 123.624C122.075 124.904 122.395 125.864 122.811 126.504C123.259 127.144 123.771 127.592 124.347 127.848C124.955 128.072 125.595 128.184 126.267 128.184C126.971 128.184 127.611 128.072 128.187 127.848C128.795 127.592 129.307 127.144 129.723 126.504C130.171 125.864 130.507 124.904 130.731 123.624C130.955 122.312 131.067 120.616 131.067 118.536C131.067 116.232 130.939 114.392 130.683 113.016C130.459 111.64 130.123 110.616 129.675 109.944C129.259 109.24 128.763 108.776 128.187 108.552C127.611 108.328 126.971 108.216 126.267 108.216C125.595 108.216 124.971 108.328 124.395 108.552C123.819 108.776 123.307 109.24 122.859 109.944C122.443 110.616 122.107 111.64 121.851 113.016C121.627 114.392 121.515 116.232 121.515 118.536ZM144.374 110.76C144.374 108.84 144.582 107.24 144.998 105.96C145.446 104.68 146.07 103.672 146.87 102.936C147.702 102.2 148.71 101.672 149.894 101.352C151.078 101.032 152.422 100.872 153.926 100.872C155.43 100.872 156.774 101.032 157.958 101.352C159.142 101.672 160.134 102.216 160.934 102.984C161.734 103.72 162.326 104.728 162.71 106.008C163.126 107.288 163.334 108.872 163.334 110.76C163.334 112.616 163.126 114.168 162.71 115.416C162.294 116.664 161.67 117.672 160.838 118.44C160.006 119.208 159.014 119.768 157.862 120.12C156.71 120.44 155.398 120.6 153.926 120.6C152.422 120.6 151.078 120.44 149.894 120.12C148.71 119.768 147.702 119.224 146.87 118.488C146.07 117.72 145.446 116.712 144.998 115.464C144.582 114.184 144.374 112.616 144.374 110.76ZM151.382 110.904C151.382 112.44 151.478 113.592 151.67 114.36C151.862 115.096 152.15 115.592 152.534 115.848C152.918 116.072 153.382 116.184 153.926 116.184C154.47 116.184 154.918 116.072 155.27 115.848C155.654 115.592 155.926 115.096 156.086 114.36C156.278 113.592 156.374 112.44 156.374 110.904C156.374 109.176 156.278 107.912 156.086 107.112C155.894 106.312 155.606 105.816 155.222 105.624C154.87 105.4 154.438 105.288 153.926 105.288C153.382 105.288 152.918 105.4 152.534 105.624C152.182 105.848 151.894 106.36 151.67 107.16C151.478 107.96 151.382 109.208 151.382 110.904ZM160.982 135.24L155.03 135.192L173.126 100.488L179.078 100.536L160.982 135.24ZM170.63 125.592C170.63 123.672 170.838 122.072 171.254 120.792C171.702 119.512 172.326 118.504 173.126 117.768C173.958 117.032 174.966 116.504 176.15 116.184C177.334 115.864 178.678 115.704 180.182 115.704C181.686 115.704 183.03 115.864 184.214 116.184C185.398 116.504 186.39 117.048 187.19 117.816C187.99 118.552 188.582 119.56 188.966 120.84C189.382 122.12 189.59 123.704 189.59 125.592C189.59 127.448 189.382 129 188.966 130.248C188.55 131.496 187.926 132.504 187.094 133.272C186.262 134.04 185.27 134.6 184.118 134.952C182.966 135.272 181.654 135.432 180.182 135.432C178.678 135.432 177.334 135.272 176.15 134.952C174.966 134.6 173.958 134.056 173.126 133.32C172.326 132.552 171.702 131.544 171.254 130.296C170.838 129.016 170.63 127.448 170.63 125.592ZM177.638 125.736C177.638 127.272 177.734 128.424 177.926 129.192C178.118 129.928 178.406 130.424 178.79 130.68C179.174 130.904 179.638 131.016 180.182 131.016C180.726 131.016 181.174 130.904 181.526 130.68C181.91 130.424 182.182 129.928 182.342 129.192C182.534 128.424 182.63 127.272 182.63 125.736C182.63 124.008 182.534 122.744 182.342 121.944C182.15 121.144 181.862 120.648 181.478 120.456C181.126 120.232 180.694 120.12 180.182 120.12C179.638 120.12 179.174 120.232 178.79 120.456C178.438 120.68 178.15 121.192 177.926 121.992C177.734 122.792 177.638 124.04 177.638 125.736Z" fill="#1F8088"/>
<path d="M26.6247 179V165H35.8247V167.02H28.8847V171.64H34.9047V173.58H28.9047V179H26.6247ZM36.3814 176.3C36.3814 175.647 36.5081 175.113 36.7614 174.7C37.0281 174.273 37.4281 173.94 37.9614 173.7C38.4947 173.447 39.1614 173.253 39.9614 173.12C40.7614 172.973 41.6881 172.86 42.7414 172.78V171.54C42.7414 170.993 42.5481 170.58 42.1614 170.3C41.7881 170.02 41.2347 169.88 40.5014 169.88C40.2347 169.88 39.9281 169.893 39.5814 169.92C39.2481 169.947 38.8947 169.993 38.5214 170.06C38.1481 170.127 37.7681 170.22 37.3814 170.34L37.0214 168.6C37.5947 168.413 38.2014 168.273 38.8414 168.18C39.4814 168.073 40.0814 168.02 40.6414 168.02C41.6147 168.02 42.4147 168.153 43.0414 168.42C43.6814 168.673 44.1547 169.06 44.4614 169.58C44.7814 170.1 44.9414 170.747 44.9414 171.52V176.28C44.9414 176.68 45.0014 176.953 45.1214 177.1C45.2414 177.233 45.3947 177.3 45.5814 177.3C45.6481 177.3 45.7281 177.293 45.8214 177.28C45.9147 177.267 46.0081 177.24 46.1014 177.2L46.3014 178.8C46.0881 178.92 45.8547 179.013 45.6014 179.08C45.3481 179.16 45.0747 179.2 44.7814 179.2C44.2747 179.2 43.8681 179.087 43.5614 178.86C43.2681 178.62 43.0681 178.26 42.9614 177.78C42.6281 178.033 42.2681 178.273 41.8814 178.5C41.5081 178.713 41.0947 178.88 40.6414 179C40.2014 179.133 39.7147 179.2 39.1814 179.2C38.7547 179.2 38.3681 179.133 38.0214 179C37.6881 178.88 37.3947 178.7 37.1414 178.46C36.9014 178.207 36.7147 177.9 36.5814 177.54C36.4481 177.18 36.3814 176.767 36.3814 176.3ZM38.5814 176.14C38.5814 176.66 38.7081 177.047 38.9614 177.3C39.2147 177.553 39.5547 177.68 39.9814 177.68C40.3014 177.68 40.6281 177.633 40.9614 177.54C41.2947 177.433 41.6147 177.293 41.9214 177.12C42.2414 176.933 42.5147 176.713 42.7414 176.46V174.02C42.1014 174.073 41.5281 174.14 41.0214 174.22C40.5147 174.3 40.0747 174.42 39.7014 174.58C39.3414 174.727 39.0614 174.927 38.8614 175.18C38.6747 175.433 38.5814 175.753 38.5814 176.14ZM49.9473 168.22V169.54C50.334 169.18 50.694 168.893 51.0273 168.68C51.374 168.453 51.7207 168.287 52.0673 168.18C52.414 168.073 52.7807 168.02 53.1673 168.02C53.4207 168.02 53.674 168.04 53.9273 168.08C54.194 168.12 54.4407 168.173 54.6673 168.24L54.3073 170.22C54.0673 170.153 53.8207 170.107 53.5673 170.08C53.3273 170.04 53.094 170.02 52.8673 170.02C52.4407 170.02 52.0007 170.107 51.5473 170.28C51.1073 170.453 50.634 170.747 50.1273 171.16V179H47.9873V168.22H49.9473ZM56.278 179V168.22H58.238V169.16C58.6246 168.92 59.0046 168.72 59.378 168.56C59.7513 168.4 60.1246 168.28 60.498 168.2C60.8846 168.107 61.2846 168.06 61.698 168.06C62.1113 168.06 62.4646 168.107 62.758 168.2C63.0646 168.293 63.3246 168.433 63.538 168.62C63.7646 168.793 63.9446 169.007 64.078 169.26C64.4513 169.02 64.8313 168.813 65.218 168.64C65.6046 168.453 66.0113 168.307 66.438 168.2C66.878 168.08 67.3446 168.02 67.838 168.02C68.238 168.02 68.5913 168.073 68.898 168.18C69.2046 168.287 69.4713 168.433 69.698 168.62C69.9246 168.807 70.1046 169.027 70.238 169.28C70.3846 169.52 70.4913 169.793 70.558 170.1C70.6246 170.393 70.658 170.7 70.658 171.02V179H68.498V171.68C68.498 171.467 68.4713 171.253 68.418 171.04C68.3646 170.813 68.278 170.613 68.158 170.44C68.0513 170.267 67.8913 170.133 67.678 170.04C67.4646 169.933 67.1913 169.88 66.858 169.88C66.5513 169.88 66.2513 169.92 65.958 170C65.6646 170.067 65.3913 170.16 65.138 170.28C64.8846 170.4 64.6513 170.52 64.438 170.64C64.4913 170.8 64.5246 170.953 64.538 171.1C64.5513 171.247 64.558 171.393 64.558 171.54V179H62.398V171.7C62.398 171.487 62.3713 171.273 62.318 171.06C62.2646 170.833 62.178 170.64 62.058 170.48C61.938 170.307 61.7713 170.167 61.558 170.06C61.358 169.953 61.0913 169.9 60.758 169.9C60.4913 169.9 60.2246 169.933 59.958 170C59.7046 170.067 59.4513 170.153 59.198 170.26C58.9446 170.367 58.6913 170.5 58.438 170.66V179H56.278ZM74.4377 166.38C73.971 166.38 73.6377 166.293 73.4377 166.12C73.2377 165.947 73.1377 165.653 73.1377 165.24C73.1377 164.84 73.2377 164.553 73.4377 164.38C73.6377 164.193 73.971 164.1 74.4377 164.1C74.9043 164.1 75.2377 164.193 75.4377 164.38C75.6377 164.553 75.7377 164.84 75.7377 165.24C75.7377 165.653 75.6377 165.947 75.4377 166.12C75.2377 166.293 74.9043 166.38 74.4377 166.38ZM73.3577 179V168.22H75.5177V179H73.3577ZM78.2108 179V168.22H80.1708V169.16C80.6108 168.92 81.0308 168.72 81.4308 168.56C81.8308 168.387 82.2374 168.253 82.6508 168.16C83.0641 168.067 83.4974 168.02 83.9508 168.02C84.6174 168.02 85.1708 168.14 85.6108 168.38C86.0641 168.62 86.4041 168.96 86.6308 169.4C86.8708 169.84 86.9908 170.38 86.9908 171.02V179H84.8108V171.68C84.8108 171.08 84.6641 170.627 84.3708 170.32C84.0774 170.013 83.6374 169.86 83.0508 169.86C82.7441 169.86 82.4441 169.893 82.1508 169.96C81.8574 170.027 81.5641 170.12 81.2708 170.24C80.9774 170.347 80.6774 170.48 80.3708 170.64V179H78.2108ZM93.625 183.4C92.065 183.4 90.885 183.16 90.085 182.68C89.2983 182.213 88.905 181.507 88.905 180.56C88.905 180.187 88.965 179.847 89.085 179.54C89.2183 179.233 89.4117 178.96 89.665 178.72C89.9317 178.467 90.2583 178.247 90.645 178.06L91.965 178.5C91.6983 178.633 91.4717 178.78 91.285 178.94C91.1117 179.087 90.9783 179.253 90.885 179.44C90.7917 179.64 90.745 179.867 90.745 180.12C90.745 180.493 90.8517 180.807 91.065 181.06C91.2783 181.313 91.6117 181.507 92.065 181.64C92.5183 181.773 93.0917 181.84 93.785 181.84C94.505 181.84 95.1117 181.767 95.605 181.62C96.0983 181.473 96.4783 181.26 96.745 180.98C97.0117 180.713 97.145 180.393 97.145 180.02C97.145 179.74 97.0783 179.513 96.945 179.34C96.825 179.167 96.625 179.04 96.345 178.96C96.065 178.867 95.6917 178.82 95.225 178.82H92.705C92.0117 178.82 91.4183 178.733 90.925 178.56C90.445 178.387 90.0783 178.127 89.825 177.78C89.5717 177.433 89.445 177.013 89.445 176.52C89.445 176 89.5717 175.56 89.825 175.2C90.0917 174.827 90.4717 174.507 90.965 174.24L92.185 174.66C91.8517 174.82 91.5917 175.007 91.405 175.22C91.2183 175.42 91.125 175.667 91.125 175.96C91.125 176.28 91.245 176.533 91.485 176.72C91.7383 176.893 92.125 176.98 92.645 176.98H95.885C96.9783 176.98 97.7983 177.227 98.345 177.72C98.905 178.2 99.185 178.887 99.185 179.78C99.185 180.54 98.965 181.187 98.525 181.72C98.0983 182.267 97.4717 182.68 96.645 182.96C95.8183 183.253 94.8117 183.4 93.625 183.4ZM93.825 175.12C92.4383 175.12 91.3783 174.827 90.645 174.24C89.925 173.64 89.565 172.753 89.565 171.58C89.565 170.407 89.925 169.52 90.645 168.92C91.3783 168.32 92.4383 168.02 93.825 168.02C95.225 168.02 96.285 168.32 97.005 168.92C97.725 169.52 98.085 170.407 98.085 171.58C98.085 172.753 97.725 173.64 97.005 174.24C96.285 174.827 95.225 175.12 93.825 175.12ZM93.825 173.66C94.5583 173.66 95.0983 173.5 95.445 173.18C95.805 172.86 95.985 172.327 95.985 171.58C95.985 170.833 95.805 170.3 95.445 169.98C95.0983 169.647 94.5583 169.48 93.825 169.48C93.1183 169.48 92.585 169.647 92.225 169.98C91.865 170.3 91.685 170.833 91.685 171.58C91.685 172.327 91.865 172.86 92.225 173.18C92.585 173.5 93.1183 173.66 93.825 173.66ZM97.185 170.02L96.305 168.88C96.4917 168.427 96.765 168.093 97.125 167.88C97.4983 167.653 97.945 167.54 98.465 167.54C98.625 167.54 98.7783 167.553 98.925 167.58C99.0717 167.593 99.205 167.62 99.325 167.66L99.085 169.34C98.9917 169.313 98.885 169.293 98.765 169.28C98.6583 169.267 98.545 169.26 98.425 169.26C98.1583 169.26 97.9183 169.32 97.705 169.44C97.4917 169.56 97.3183 169.753 97.185 170.02ZM106.852 178.7V164.2H109.012V169.14C109.586 168.753 110.146 168.473 110.692 168.3C111.252 168.113 111.812 168.02 112.372 168.02C113.546 168.02 114.446 168.473 115.072 169.38C115.699 170.287 116.012 171.607 116.012 173.34C116.012 174.713 115.832 175.833 115.472 176.7C115.112 177.567 114.552 178.2 113.792 178.6C113.032 179 112.052 179.2 110.852 179.2C110.279 179.2 109.659 179.153 108.992 179.06C108.326 178.98 107.612 178.86 106.852 178.7ZM109.012 177.38C109.386 177.46 109.726 177.52 110.032 177.56C110.339 177.6 110.632 177.62 110.912 177.62C111.579 177.62 112.119 177.487 112.532 177.22C112.959 176.953 113.272 176.52 113.472 175.92C113.686 175.307 113.792 174.5 113.792 173.5C113.792 172.673 113.706 171.993 113.532 171.46C113.359 170.927 113.106 170.527 112.772 170.26C112.452 169.98 112.052 169.84 111.572 169.84C111.306 169.84 111.039 169.873 110.772 169.94C110.506 169.993 110.226 170.087 109.932 170.22C109.652 170.34 109.346 170.507 109.012 170.72V177.38ZM119.998 183.16L121.338 179H120.918L116.878 168.26L119.238 168.16L122.218 177.14L124.898 168.16L127.138 168.24L122.198 183.26L119.998 183.16ZM134.254 172.24C134.254 170.467 134.494 169.033 134.974 167.94C135.468 166.847 136.188 166.053 137.134 165.56C138.094 165.053 139.281 164.8 140.694 164.8C141.108 164.8 141.488 164.813 141.834 164.84C142.181 164.853 142.514 164.887 142.834 164.94C143.154 164.98 143.461 165.033 143.754 165.1C144.061 165.167 144.368 165.247 144.674 165.34L144.234 167.14C143.834 167.033 143.454 166.953 143.094 166.9C142.734 166.833 142.374 166.787 142.014 166.76C141.654 166.733 141.281 166.72 140.894 166.72C140.161 166.72 139.521 166.813 138.974 167C138.428 167.187 137.974 167.493 137.614 167.92C137.254 168.347 136.981 168.913 136.794 169.62C136.621 170.327 136.534 171.193 136.534 172.22C136.534 173.167 136.621 173.967 136.794 174.62C136.968 175.26 137.228 175.78 137.574 176.18C137.934 176.567 138.374 176.853 138.894 177.04C139.428 177.213 140.048 177.3 140.754 177.3C141.381 177.3 142.034 177.26 142.714 177.18C143.394 177.087 144.014 176.96 144.574 176.8L144.974 178.58C144.668 178.673 144.341 178.76 143.994 178.84C143.661 178.92 143.301 178.987 142.914 179.04C142.541 179.093 142.148 179.133 141.734 179.16C141.321 179.187 140.881 179.2 140.414 179.2C139.414 179.2 138.528 179.08 137.754 178.84C136.994 178.587 136.354 178.187 135.834 177.64C135.314 177.093 134.921 176.38 134.654 175.5C134.388 174.607 134.254 173.52 134.254 172.24ZM146.175 173.6C146.175 172.667 146.255 171.853 146.415 171.16C146.589 170.467 146.862 169.893 147.235 169.44C147.609 168.973 148.109 168.62 148.735 168.38C149.362 168.14 150.135 168.02 151.055 168.02C151.975 168.02 152.749 168.14 153.375 168.38C154.002 168.62 154.502 168.973 154.875 169.44C155.249 169.893 155.515 170.467 155.675 171.16C155.849 171.853 155.935 172.667 155.935 173.6C155.935 174.547 155.842 175.373 155.655 176.08C155.482 176.787 155.202 177.373 154.815 177.84C154.429 178.293 153.922 178.633 153.295 178.86C152.682 179.087 151.935 179.2 151.055 179.2C150.175 179.2 149.422 179.087 148.795 178.86C148.182 178.633 147.682 178.293 147.295 177.84C146.909 177.373 146.622 176.787 146.435 176.08C146.262 175.373 146.175 174.547 146.175 173.6ZM148.395 173.6C148.395 174.573 148.482 175.347 148.655 175.92C148.842 176.493 149.129 176.907 149.515 177.16C149.915 177.413 150.429 177.54 151.055 177.54C151.682 177.54 152.189 177.413 152.575 177.16C152.962 176.907 153.242 176.493 153.415 175.92C153.602 175.347 153.695 174.573 153.695 173.6C153.695 172.627 153.615 171.86 153.455 171.3C153.295 170.727 153.015 170.32 152.615 170.08C152.229 169.827 151.709 169.7 151.055 169.7C150.389 169.7 149.862 169.827 149.475 170.08C149.089 170.32 148.809 170.727 148.635 171.3C148.475 171.86 148.395 172.627 148.395 173.6ZM158.169 179V168.22H160.129V169.16C160.515 168.92 160.895 168.72 161.269 168.56C161.642 168.4 162.015 168.28 162.389 168.2C162.775 168.107 163.175 168.06 163.589 168.06C164.002 168.06 164.355 168.107 164.649 168.2C164.955 168.293 165.215 168.433 165.429 168.62C165.655 168.793 165.835 169.007 165.969 169.26C166.342 169.02 166.722 168.813 167.109 168.64C167.495 168.453 167.902 168.307 168.329 168.2C168.769 168.08 169.235 168.02 169.729 168.02C170.129 168.02 170.482 168.073 170.789 168.18C171.095 168.287 171.362 168.433 171.589 168.62C171.815 168.807 171.995 169.027 172.129 169.28C172.275 169.52 172.382 169.793 172.449 170.1C172.515 170.393 172.549 170.7 172.549 171.02V179H170.389V171.68C170.389 171.467 170.362 171.253 170.309 171.04C170.255 170.813 170.169 170.613 170.049 170.44C169.942 170.267 169.782 170.133 169.569 170.04C169.355 169.933 169.082 169.88 168.749 169.88C168.442 169.88 168.142 169.92 167.849 170C167.555 170.067 167.282 170.16 167.029 170.28C166.775 170.4 166.542 170.52 166.329 170.64C166.382 170.8 166.415 170.953 166.429 171.1C166.442 171.247 166.449 171.393 166.449 171.54V179H164.289V171.7C164.289 171.487 164.262 171.273 164.209 171.06C164.155 170.833 164.069 170.64 163.949 170.48C163.829 170.307 163.662 170.167 163.449 170.06C163.249 169.953 162.982 169.9 162.649 169.9C162.382 169.9 162.115 169.933 161.849 170C161.595 170.067 161.342 170.153 161.089 170.26C160.835 170.367 160.582 170.5 160.329 170.66V179H158.169ZM175.248 179V168.22H177.208V169.16C177.595 168.92 177.975 168.72 178.348 168.56C178.722 168.4 179.095 168.28 179.468 168.2C179.855 168.107 180.255 168.06 180.668 168.06C181.082 168.06 181.435 168.107 181.728 168.2C182.035 168.293 182.295 168.433 182.508 168.62C182.735 168.793 182.915 169.007 183.048 169.26C183.422 169.02 183.802 168.813 184.188 168.64C184.575 168.453 184.982 168.307 185.408 168.2C185.848 168.08 186.315 168.02 186.808 168.02C187.208 168.02 187.562 168.073 187.868 168.18C188.175 168.287 188.442 168.433 188.668 168.62C188.895 168.807 189.075 169.027 189.208 169.28C189.355 169.52 189.462 169.793 189.528 170.1C189.595 170.393 189.628 170.7 189.628 171.02V179H187.468V171.68C187.468 171.467 187.442 171.253 187.388 171.04C187.335 170.813 187.248 170.613 187.128 170.44C187.022 170.267 186.862 170.133 186.648 170.04C186.435 169.933 186.162 169.88 185.828 169.88C185.522 169.88 185.222 169.92 184.928 170C184.635 170.067 184.362 170.16 184.108 170.28C183.855 170.4 183.622 170.52 183.408 170.64C183.462 170.8 183.495 170.953 183.508 171.1C183.522 171.247 183.528 171.393 183.528 171.54V179H181.368V171.7C181.368 171.487 181.342 171.273 181.288 171.06C181.235 170.833 181.148 170.64 181.028 170.48C180.908 170.307 180.742 170.167 180.528 170.06C180.328 169.953 180.062 169.9 179.728 169.9C179.462 169.9 179.195 169.933 178.928 170C178.675 170.067 178.422 170.153 178.168 170.26C177.915 170.367 177.662 170.5 177.408 170.66V179H175.248ZM195.328 179.2C194.715 179.2 194.181 179.093 193.728 178.88C193.275 178.653 192.921 178.313 192.668 177.86C192.428 177.407 192.308 176.84 192.308 176.16V168.22H194.468V175.7C194.468 176.233 194.615 176.647 194.908 176.94C195.201 177.233 195.628 177.38 196.188 177.38C196.481 177.38 196.768 177.347 197.048 177.28C197.328 177.213 197.601 177.127 197.868 177.02C198.148 176.9 198.435 176.76 198.728 176.6V168.22H200.888V176.34C200.888 176.593 200.915 176.793 200.968 176.94C201.035 177.087 201.121 177.193 201.228 177.26C201.335 177.313 201.448 177.34 201.568 177.34C201.741 177.34 201.908 177.307 202.068 177.24L202.288 178.8C202.155 178.88 202.001 178.947 201.828 179C201.655 179.067 201.475 179.113 201.288 179.14C201.101 179.18 200.908 179.2 200.708 179.2C200.295 179.2 199.941 179.107 199.648 178.92C199.355 178.72 199.135 178.433 198.988 178.06C198.601 178.287 198.208 178.487 197.808 178.66C197.421 178.833 197.028 178.967 196.628 179.06C196.228 179.153 195.795 179.2 195.328 179.2ZM203.919 179V168.22H205.879V169.16C206.319 168.92 206.739 168.72 207.139 168.56C207.539 168.387 207.946 168.253 208.359 168.16C208.773 168.067 209.206 168.02 209.659 168.02C210.326 168.02 210.879 168.14 211.319 168.38C211.773 168.62 212.113 168.96 212.339 169.4C212.579 169.84 212.699 170.38 212.699 171.02V179H210.519V171.68C210.519 171.08 210.373 170.627 210.079 170.32C209.786 170.013 209.346 169.86 208.759 169.86C208.453 169.86 208.153 169.893 207.859 169.96C207.566 170.027 207.273 170.12 206.979 170.24C206.686 170.347 206.386 170.48 206.079 170.64V179H203.919ZM216.474 166.38C216.007 166.38 215.674 166.293 215.474 166.12C215.274 165.947 215.174 165.653 215.174 165.24C215.174 164.84 215.274 164.553 215.474 164.38C215.674 164.193 216.007 164.1 216.474 164.1C216.94 164.1 217.274 164.193 217.474 164.38C217.674 164.553 217.774 164.84 217.774 165.24C217.774 165.653 217.674 165.947 217.474 166.12C217.274 166.293 216.94 166.38 216.474 166.38ZM215.394 179V168.22H217.554V179H215.394ZM224.027 179.2C223.347 179.2 222.78 179.073 222.327 178.82C221.873 178.567 221.533 178.18 221.307 177.66C221.093 177.127 220.987 176.46 220.987 175.66V169.84H219.227V168.4L220.987 168.22L221.267 165.76H223.147V168.22H226.467V169.84H223.147V175.5C223.147 176.153 223.273 176.627 223.527 176.92C223.78 177.213 224.187 177.36 224.747 177.36C225.027 177.36 225.313 177.333 225.607 177.28C225.913 177.213 226.227 177.14 226.547 177.06L226.847 178.72C226.34 178.893 225.847 179.013 225.367 179.08C224.887 179.16 224.44 179.2 224.027 179.2ZM230.619 183.16L231.959 179H231.539L227.499 168.26L229.859 168.16L232.839 177.14L235.519 168.16L237.759 168.24L232.819 183.26L230.619 183.16Z" fill="white"/>
<path d="M73 196.5L75.0365 202.464L81 204.5L75.0365 206.536L73 212.5L70.9635 206.536L65 204.5L70.9635 202.464L73 196.5Z" fill="url(#paint0_radial_257_2412)"/>
<path d="M86.1278 208.8C87.0238 208.011 87.7811 207.333 88.3998 206.768C89.0291 206.192 89.5411 205.691 89.9358 205.264C90.3411 204.837 90.6505 204.459 90.8638 204.128C91.0878 203.797 91.2425 203.493 91.3278 203.216C91.4131 202.928 91.4558 202.635 91.4558 202.336C91.4558 201.899 91.3705 201.536 91.1998 201.248C91.0291 200.96 90.7891 200.741 90.4798 200.592C90.1705 200.443 89.7865 200.368 89.3278 200.368C88.9225 200.368 88.5011 200.432 88.0638 200.56C87.6265 200.688 87.1891 200.88 86.7518 201.136L86.1918 199.664C86.5225 199.44 86.8798 199.253 87.2638 199.104C87.6478 198.955 88.0478 198.843 88.4638 198.768C88.8905 198.683 89.3118 198.64 89.7278 198.64C90.4958 198.64 91.1465 198.779 91.6798 199.056C92.2238 199.333 92.6345 199.728 92.9118 200.24C93.1998 200.741 93.3438 201.328 93.3438 202C93.3438 202.341 93.3118 202.667 93.2478 202.976C93.1838 203.285 93.0558 203.611 92.8638 203.952C92.6825 204.293 92.4158 204.683 92.0638 205.12C91.7225 205.547 91.2638 206.043 90.6878 206.608C90.1225 207.163 89.4238 207.813 88.5918 208.56H94.2718V210H86.1758L86.1278 208.8ZM96.2291 208.8C97.1251 208.011 97.8824 207.333 98.5011 206.768C99.1304 206.192 99.6424 205.691 100.037 205.264C100.442 204.837 100.752 204.459 100.965 204.128C101.189 203.797 101.344 203.493 101.429 203.216C101.514 202.928 101.557 202.635 101.557 202.336C101.557 201.899 101.472 201.536 101.301 201.248C101.13 200.96 100.89 200.741 100.581 200.592C100.272 200.443 99.8877 200.368 99.4291 200.368C99.0237 200.368 98.6024 200.432 98.1651 200.56C97.7277 200.688 97.2904 200.88 96.8531 201.136L96.2931 199.664C96.6237 199.44 96.9811 199.253 97.3651 199.104C97.7491 198.955 98.1491 198.843 98.5651 198.768C98.9917 198.683 99.4131 198.64 99.8291 198.64C100.597 198.64 101.248 198.779 101.781 199.056C102.325 199.333 102.736 199.728 103.013 200.24C103.301 200.741 103.445 201.328 103.445 202C103.445 202.341 103.413 202.667 103.349 202.976C103.285 203.285 103.157 203.611 102.965 203.952C102.784 204.293 102.517 204.683 102.165 205.12C101.824 205.547 101.365 206.043 100.789 206.608C100.224 207.163 99.5251 207.813 98.6931 208.56H104.373V210H96.2771L96.2291 208.8ZM106.234 208.944L107.834 208.864C107.898 209.035 107.946 209.221 107.978 209.424C108.01 209.616 108.026 209.824 108.026 210.048C108.026 210.411 107.978 210.773 107.882 211.136C107.786 211.509 107.632 211.861 107.418 212.192C107.205 212.533 106.933 212.843 106.602 213.12L105.338 212.768C105.701 212.416 105.968 211.995 106.138 211.504C106.309 211.013 106.394 210.533 106.394 210.064C106.394 209.915 106.384 209.744 106.362 209.552C106.341 209.36 106.298 209.157 106.234 208.944ZM109.565 209.312L110.077 207.952C110.365 208.08 110.653 208.197 110.941 208.304C111.24 208.4 111.571 208.48 111.933 208.544C112.296 208.597 112.712 208.624 113.181 208.624C113.864 208.624 114.419 208.544 114.845 208.384C115.272 208.224 115.592 207.989 115.805 207.68C116.019 207.371 116.125 207.003 116.125 206.576C116.125 206.256 116.077 205.984 115.981 205.76C115.885 205.525 115.731 205.333 115.517 205.184C115.304 205.024 115.021 204.907 114.669 204.832C114.317 204.757 113.891 204.72 113.389 204.72H110.397L110.237 204.544L110.877 198.8H117.309V200.352H112.221L111.885 203.376H114.157C114.989 203.376 115.683 203.488 116.237 203.712C116.792 203.936 117.208 204.277 117.485 204.736C117.773 205.195 117.917 205.787 117.917 206.512C117.917 207.323 117.725 208 117.341 208.544C116.957 209.077 116.419 209.483 115.725 209.76C115.032 210.027 114.221 210.16 113.293 210.16C112.781 210.16 112.312 210.128 111.885 210.064C111.459 210 111.059 209.904 110.685 209.776C110.312 209.648 109.939 209.493 109.565 209.312ZM119.523 204.4C119.523 203.291 119.629 202.368 119.843 201.632C120.056 200.885 120.36 200.293 120.755 199.856C121.149 199.419 121.613 199.109 122.147 198.928C122.691 198.736 123.293 198.64 123.955 198.64C124.627 198.64 125.235 198.736 125.779 198.928C126.323 199.109 126.787 199.424 127.171 199.872C127.565 200.309 127.864 200.896 128.067 201.632C128.28 202.368 128.387 203.291 128.387 204.4C128.387 205.499 128.275 206.421 128.051 207.168C127.837 207.904 127.533 208.491 127.139 208.928C126.755 209.365 126.291 209.68 125.747 209.872C125.203 210.064 124.605 210.16 123.955 210.16C123.293 210.16 122.691 210.069 122.147 209.888C121.613 209.696 121.149 209.381 120.755 208.944C120.371 208.496 120.067 207.904 119.843 207.168C119.629 206.421 119.523 205.499 119.523 204.4ZM121.299 204.448C121.299 205.323 121.363 206.043 121.491 206.608C121.629 207.173 121.816 207.616 122.051 207.936C122.296 208.245 122.579 208.464 122.899 208.592C123.229 208.72 123.581 208.784 123.955 208.784C124.328 208.784 124.675 208.72 124.995 208.592C125.325 208.464 125.608 208.245 125.843 207.936C126.088 207.616 126.275 207.173 126.403 206.608C126.541 206.043 126.611 205.323 126.611 204.448C126.611 203.541 126.541 202.8 126.403 202.224C126.275 201.637 126.088 201.189 125.843 200.88C125.597 200.56 125.315 200.336 124.995 200.208C124.675 200.08 124.328 200.016 123.955 200.016C123.581 200.016 123.235 200.08 122.915 200.208C122.595 200.336 122.312 200.56 122.067 200.88C121.821 201.189 121.629 201.637 121.491 202.224C121.363 202.8 121.299 203.541 121.299 204.448ZM134.936 203.872C135.342 203.637 135.656 203.413 135.88 203.2C136.104 202.976 136.264 202.741 136.36 202.496C136.456 202.24 136.504 201.968 136.504 201.68C136.504 201.136 136.296 200.725 135.88 200.448C135.475 200.16 134.872 200.016 134.072 200.016C133.571 200.016 133.15 200.08 132.808 200.208C132.467 200.325 132.206 200.501 132.024 200.736C131.854 200.96 131.768 201.237 131.768 201.568C131.768 201.877 131.843 202.139 131.992 202.352C132.152 202.555 132.36 202.731 132.616 202.88C132.883 203.029 133.187 203.157 133.528 203.264C133.87 203.371 134.227 203.477 134.6 203.584C134.984 203.68 135.363 203.787 135.736 203.904C136.11 204.021 136.467 204.165 136.808 204.336C137.15 204.496 137.454 204.693 137.72 204.928C137.987 205.152 138.195 205.435 138.344 205.776C138.494 206.107 138.568 206.501 138.568 206.96C138.568 207.664 138.398 208.256 138.056 208.736C137.715 209.205 137.203 209.563 136.52 209.808C135.848 210.043 134.995 210.16 133.96 210.16C132.531 210.16 131.432 209.888 130.664 209.344C129.907 208.8 129.528 208.032 129.528 207.04C129.528 206.592 129.614 206.176 129.784 205.792C129.955 205.408 130.211 205.056 130.552 204.736C130.904 204.416 131.352 204.133 131.896 203.888L133 204.496C132.414 204.795 131.982 205.136 131.704 205.52C131.438 205.893 131.304 206.357 131.304 206.912C131.304 207.531 131.544 208.005 132.024 208.336C132.504 208.667 133.203 208.832 134.12 208.832C134.974 208.832 135.619 208.688 136.056 208.4C136.504 208.101 136.728 207.669 136.728 207.104C136.728 206.773 136.654 206.496 136.504 206.272C136.355 206.037 136.147 205.84 135.88 205.68C135.624 205.52 135.331 205.381 135 205.264C134.67 205.136 134.318 205.024 133.944 204.928C133.582 204.821 133.214 204.709 132.84 204.592C132.478 204.475 132.131 204.336 131.8 204.176C131.47 204.016 131.171 203.824 130.904 203.6C130.648 203.376 130.446 203.099 130.296 202.768C130.147 202.437 130.072 202.048 130.072 201.6C130.072 200.64 130.424 199.909 131.128 199.408C131.843 198.896 132.851 198.64 134.152 198.64C135.443 198.64 136.435 198.885 137.128 199.376C137.822 199.856 138.168 200.539 138.168 201.424C138.168 201.797 138.099 202.16 137.96 202.512C137.832 202.853 137.614 203.184 137.304 203.504C137.006 203.813 136.611 204.107 136.12 204.384L134.936 203.872ZM144.919 210V198.768H146.615L152.007 207.2V198.8H153.607V210.032H151.911L146.535 201.68V210H144.919ZM156.036 210V198.8H163.396V200.416H157.844V204.112H162.66V205.664H157.86V210H156.036ZM172.958 200.384H169.566V210H167.774V200.384H164.382V198.8H172.958V200.384ZM175.018 203.12L173.706 202.976C173.951 202.421 174.133 201.883 174.25 201.36C174.367 200.837 174.426 200.261 174.426 199.632C174.426 199.493 174.421 199.355 174.41 199.216C174.41 199.077 174.405 198.939 174.394 198.8H175.946C175.957 198.896 175.962 198.992 175.962 199.088C175.962 199.184 175.962 199.28 175.962 199.376C175.962 200.165 175.887 200.853 175.738 201.44C175.589 202.016 175.349 202.576 175.018 203.12ZM176.87 209.664L177.094 208.368C177.275 208.432 177.483 208.496 177.718 208.56C177.952 208.613 178.192 208.661 178.438 208.704C178.694 208.747 178.95 208.779 179.206 208.8C179.462 208.821 179.707 208.832 179.942 208.832C180.528 208.832 180.96 208.736 181.238 208.544C181.526 208.352 181.67 208.075 181.67 207.712C181.67 207.509 181.622 207.339 181.526 207.2C181.44 207.061 181.302 206.939 181.11 206.832C180.918 206.715 180.683 206.613 180.406 206.528C180.128 206.432 179.803 206.341 179.43 206.256C179.056 206.16 178.726 206.043 178.438 205.904C178.15 205.765 177.899 205.595 177.686 205.392C177.483 205.189 177.328 204.96 177.222 204.704C177.126 204.437 177.078 204.133 177.078 203.792C177.078 202.971 177.355 202.336 177.91 201.888C178.475 201.44 179.302 201.216 180.39 201.216C180.72 201.216 181.035 201.237 181.334 201.28C181.632 201.312 181.915 201.36 182.182 201.424C182.459 201.477 182.71 201.547 182.934 201.632L182.694 202.944C182.47 202.88 182.24 202.821 182.006 202.768C181.782 202.715 181.536 202.672 181.27 202.64C181.003 202.608 180.71 202.592 180.39 202.592C179.846 202.592 179.435 202.683 179.158 202.864C178.891 203.045 178.758 203.307 178.758 203.648C178.758 203.851 178.8 204.016 178.886 204.144C178.982 204.272 179.115 204.384 179.286 204.48C179.467 204.565 179.68 204.651 179.926 204.736C180.171 204.811 180.448 204.885 180.758 204.96C181.152 205.056 181.51 205.173 181.83 205.312C182.16 205.44 182.438 205.6 182.662 205.792C182.896 205.984 183.078 206.224 183.206 206.512C183.334 206.789 183.398 207.136 183.398 207.552C183.398 207.915 183.339 208.245 183.222 208.544C183.104 208.832 182.939 209.077 182.726 209.28C182.523 209.483 182.278 209.648 181.99 209.776C181.702 209.904 181.382 210 181.03 210.064C180.678 210.128 180.304 210.16 179.91 210.16C179.536 210.16 179.174 210.139 178.822 210.096C178.47 210.064 178.128 210.011 177.798 209.936C177.467 209.861 177.158 209.771 176.87 209.664Z" fill="#FFFF14"/>
<path d="M196 196.5L198.036 202.464L204 204.5L198.036 206.536L196 212.5L193.964 206.536L188 204.5L193.964 202.464L196 196.5Z" fill="url(#paint1_radial_257_2412)"/>
<path d="M50.1879 239V227.8H51.9799V237.432H57.2599V239H50.1879ZM58.2459 234.68C58.2459 233.933 58.3099 233.283 58.4379 232.728C58.5765 232.173 58.7952 231.715 59.0939 231.352C59.3925 230.979 59.7925 230.696 60.2939 230.504C60.7952 230.312 61.4139 230.216 62.1499 230.216C62.8859 230.216 63.5045 230.312 64.0059 230.504C64.5072 230.696 64.9072 230.979 65.2059 231.352C65.5045 231.715 65.7179 232.173 65.8459 232.728C65.9845 233.283 66.0539 233.933 66.0539 234.68C66.0539 235.437 65.9792 236.099 65.8299 236.664C65.6912 237.229 65.4672 237.699 65.1579 238.072C64.8485 238.435 64.4432 238.707 63.9419 238.888C63.4512 239.069 62.8539 239.16 62.1499 239.16C61.4459 239.16 60.8432 239.069 60.3419 238.888C59.8512 238.707 59.4512 238.435 59.1419 238.072C58.8325 237.699 58.6032 237.229 58.4539 236.664C58.3152 236.099 58.2459 235.437 58.2459 234.68ZM60.0219 234.68C60.0219 235.459 60.0912 236.077 60.2299 236.536C60.3792 236.995 60.6085 237.325 60.9179 237.528C61.2379 237.731 61.6485 237.832 62.1499 237.832C62.6512 237.832 63.0565 237.731 63.3659 237.528C63.6752 237.325 63.8992 236.995 64.0379 236.536C64.1872 236.077 64.2619 235.459 64.2619 234.68C64.2619 233.901 64.1979 233.288 64.0699 232.84C63.9419 232.381 63.7179 232.056 63.3979 231.864C63.0885 231.661 62.6725 231.56 62.1499 231.56C61.6165 231.56 61.1952 231.661 60.8859 231.864C60.5765 232.056 60.3525 232.381 60.2139 232.84C60.0859 233.288 60.0219 233.901 60.0219 234.68ZM67.4565 234.824C67.4565 233.789 67.6165 232.936 67.9365 232.264C68.2565 231.581 68.7258 231.069 69.3445 230.728C69.9738 230.387 70.7365 230.216 71.6325 230.216C71.9312 230.216 72.2352 230.232 72.5445 230.264C72.8645 230.285 73.1738 230.323 73.4725 230.376C73.7712 230.419 74.0432 230.477 74.2885 230.552L74.0325 231.992C73.7978 231.939 73.5525 231.896 73.2965 231.864C73.0405 231.821 72.7845 231.789 72.5285 231.768C72.2832 231.747 72.0432 231.736 71.8085 231.736C71.2538 231.736 70.7845 231.848 70.4005 232.072C70.0272 232.296 69.7392 232.632 69.5365 233.08C69.3445 233.528 69.2485 234.104 69.2485 234.808C69.2485 235.448 69.3498 235.981 69.5525 236.408C69.7552 236.824 70.0485 237.139 70.4325 237.352C70.8165 237.555 71.2805 237.656 71.8245 237.656C72.0698 237.656 72.3205 237.645 72.5765 237.624C72.8432 237.603 73.1098 237.571 73.3765 237.528C73.6538 237.485 73.9205 237.437 74.1765 237.384L74.4325 238.776C74.0272 238.883 73.5525 238.973 73.0085 239.048C72.4752 239.123 71.9578 239.16 71.4565 239.16C70.1338 239.16 69.1365 238.808 68.4645 238.104C67.7925 237.389 67.4565 236.296 67.4565 234.824ZM82.8035 239.144C82.6435 239.144 82.4782 239.123 82.3075 239.08C82.1475 239.048 81.9662 238.973 81.7635 238.856C81.5715 238.728 81.3315 238.541 81.0435 238.296C80.7662 238.051 80.4302 237.731 80.0355 237.336L77.6835 235V239H76.0195V227.16H77.6835V232.728L80.4035 235.448C80.9368 235.971 81.3635 236.365 81.6835 236.632C82.0142 236.899 82.2755 237.08 82.4675 237.176C82.6702 237.272 82.8568 237.32 83.0275 237.32C83.0595 237.32 83.0968 237.32 83.1395 237.32C83.1822 237.309 83.2248 237.304 83.2675 237.304L83.2995 239.096C83.2248 239.107 83.1448 239.117 83.0595 239.128C82.9848 239.139 82.8995 239.144 82.8035 239.144ZM79.3475 235.16L77.9555 234.44C78.3075 234.131 78.6488 233.816 78.9795 233.496C79.3208 233.176 79.6355 232.851 79.9235 232.52C80.2115 232.179 80.4622 231.827 80.6755 231.464C80.8995 231.091 81.0755 230.68 81.2035 230.232L82.9475 230.376C82.8088 230.856 82.6062 231.32 82.3395 231.768C82.0728 232.216 81.7688 232.643 81.4275 233.048C81.0862 233.453 80.7342 233.832 80.3715 234.184C80.0088 234.525 79.6675 234.851 79.3475 235.16ZM92.5492 239.16C92.1226 239.16 91.7012 239.133 91.2852 239.08C90.8799 239.037 90.4906 238.968 90.1172 238.872C89.7439 238.776 89.4026 238.669 89.0932 238.552L89.5092 237.176C89.8399 237.283 90.1546 237.373 90.4532 237.448C90.7626 237.523 91.0666 237.581 91.3652 237.624C91.6746 237.656 91.9892 237.672 92.3092 237.672C93.1199 237.672 93.7652 237.512 94.2452 237.192C94.7359 236.872 95.0879 236.387 95.3012 235.736C95.5252 235.085 95.6372 234.264 95.6372 233.272C95.6372 232.483 95.5786 231.821 95.4612 231.288C95.3546 230.744 95.1946 230.307 94.9812 229.976C94.7679 229.645 94.4959 229.411 94.1652 229.272C93.8346 229.133 93.4506 229.064 93.0132 229.064C92.5119 229.064 92.0746 229.149 91.7012 229.32C91.3279 229.491 91.0346 229.741 90.8212 230.072C90.6186 230.403 90.5172 230.819 90.5172 231.32C90.5172 231.768 90.6132 232.152 90.8052 232.472C91.0079 232.792 91.2852 233.032 91.6372 233.192C91.9999 233.352 92.4159 233.432 92.8852 233.432C93.2586 233.432 93.6212 233.384 93.9732 233.288C94.3252 233.181 94.6666 233.027 94.9972 232.824C95.3279 232.611 95.6212 232.36 95.8772 232.072V233.464C95.6106 233.741 95.2906 233.976 94.9172 234.168C94.5439 234.36 94.1386 234.509 93.7012 234.616C93.2746 234.712 92.8372 234.76 92.3892 234.76C91.6319 234.76 90.9866 234.632 90.4532 234.376C89.9199 234.109 89.5146 233.725 89.2372 233.224C88.9706 232.712 88.8372 232.099 88.8372 231.384C88.8372 230.573 89.0026 229.891 89.3332 229.336C89.6639 228.781 90.1492 228.36 90.7892 228.072C91.4292 227.784 92.2026 227.64 93.1092 227.64C94.0906 227.64 94.9012 227.837 95.5412 228.232C96.1812 228.616 96.6559 229.213 96.9652 230.024C97.2852 230.824 97.4452 231.864 97.4452 233.144C97.4452 234.509 97.2586 235.64 96.8852 236.536C96.5226 237.421 95.9786 238.083 95.2532 238.52C94.5279 238.947 93.6266 239.16 92.5492 239.16ZM99.0345 238.312L99.5465 236.952C99.8345 237.08 100.122 237.197 100.41 237.304C100.709 237.4 101.04 237.48 101.402 237.544C101.765 237.597 102.181 237.624 102.65 237.624C103.333 237.624 103.888 237.544 104.314 237.384C104.741 237.224 105.061 236.989 105.274 236.68C105.488 236.371 105.594 236.003 105.594 235.576C105.594 235.256 105.546 234.984 105.45 234.76C105.354 234.525 105.2 234.333 104.986 234.184C104.773 234.024 104.49 233.907 104.138 233.832C103.786 233.757 103.36 233.72 102.858 233.72H99.8665L99.7065 233.544L100.346 227.8H106.778V229.352H101.69L101.354 232.376H103.626C104.458 232.376 105.152 232.488 105.706 232.712C106.261 232.936 106.677 233.277 106.954 233.736C107.242 234.195 107.386 234.787 107.386 235.512C107.386 236.323 107.194 237 106.81 237.544C106.426 238.077 105.888 238.483 105.194 238.76C104.501 239.027 103.69 239.16 102.762 239.16C102.25 239.16 101.781 239.128 101.354 239.064C100.928 239 100.528 238.904 100.154 238.776C99.7812 238.648 99.4078 238.493 99.0345 238.312ZM109.264 230.872C109.264 230.232 109.328 229.699 109.456 229.272C109.594 228.845 109.786 228.509 110.032 228.264C110.277 228.008 110.57 227.832 110.912 227.736C111.253 227.629 111.637 227.576 112.064 227.576C112.49 227.576 112.874 227.629 113.216 227.736C113.557 227.843 113.845 228.024 114.08 228.28C114.325 228.525 114.512 228.861 114.64 229.288C114.778 229.704 114.848 230.232 114.848 230.872C114.848 231.501 114.778 232.029 114.64 232.456C114.512 232.872 114.325 233.208 114.08 233.464C113.834 233.709 113.541 233.891 113.2 234.008C112.858 234.115 112.48 234.168 112.064 234.168C111.637 234.168 111.253 234.115 110.912 234.008C110.57 233.891 110.277 233.709 110.032 233.464C109.786 233.208 109.594 232.872 109.456 232.456C109.328 232.029 109.264 231.501 109.264 230.872ZM110.576 230.888C110.576 231.539 110.64 232.04 110.768 232.392C110.896 232.733 111.072 232.968 111.296 233.096C111.52 233.224 111.776 233.288 112.064 233.288C112.352 233.288 112.602 233.224 112.816 233.096C113.04 232.968 113.216 232.733 113.344 232.392C113.472 232.04 113.536 231.539 113.536 230.888C113.536 230.205 113.472 229.693 113.344 229.352C113.216 229 113.04 228.765 112.816 228.648C112.602 228.52 112.352 228.456 112.064 228.456C111.776 228.456 111.52 228.52 111.296 228.648C111.072 228.765 110.896 229 110.768 229.352C110.64 229.704 110.576 230.216 110.576 230.888ZM113.712 239.128L112.592 239.064L118.416 227.32L119.536 227.384L113.712 239.128ZM117.248 235.848C117.248 235.208 117.312 234.675 117.44 234.248C117.578 233.821 117.77 233.485 118.016 233.24C118.261 232.984 118.554 232.808 118.896 232.712C119.237 232.605 119.621 232.552 120.048 232.552C120.474 232.552 120.858 232.605 121.2 232.712C121.541 232.819 121.829 233 122.064 233.256C122.309 233.501 122.496 233.837 122.624 234.264C122.762 234.68 122.832 235.208 122.832 235.848C122.832 236.477 122.762 237.005 122.624 237.432C122.496 237.848 122.309 238.184 122.064 238.44C121.818 238.685 121.525 238.867 121.184 238.984C120.842 239.091 120.464 239.144 120.048 239.144C119.621 239.144 119.237 239.091 118.896 238.984C118.554 238.867 118.261 238.685 118.016 238.44C117.77 238.184 117.578 237.848 117.44 237.432C117.312 237.005 117.248 236.477 117.248 235.848ZM118.56 235.864C118.56 236.515 118.624 237.016 118.752 237.368C118.88 237.709 119.056 237.944 119.28 238.072C119.504 238.2 119.76 238.264 120.048 238.264C120.336 238.264 120.586 238.2 120.8 238.072C121.024 237.944 121.2 237.709 121.328 237.368C121.456 237.016 121.52 236.515 121.52 235.864C121.52 235.181 121.456 234.669 121.328 234.328C121.2 233.976 121.024 233.741 120.8 233.624C120.586 233.496 120.336 233.432 120.048 233.432C119.76 233.432 119.504 233.496 119.28 233.624C119.056 233.741 118.88 233.976 118.752 234.328C118.624 234.68 118.56 235.192 118.56 235.864ZM123.911 242.36L128.455 227.16H129.879L125.335 242.36H123.911ZM135.712 235.544V227.8H137.488V235.56C137.488 235.901 137.531 236.195 137.616 236.44C137.712 236.685 137.845 236.893 138.016 237.064C138.197 237.224 138.4 237.352 138.624 237.448C138.859 237.533 139.104 237.597 139.36 237.64C139.616 237.672 139.883 237.688 140.16 237.688C140.437 237.688 140.704 237.672 140.96 237.64C141.216 237.597 141.456 237.528 141.68 237.432C141.904 237.336 142.101 237.208 142.272 237.048C142.443 236.877 142.571 236.675 142.656 236.44C142.752 236.195 142.8 235.901 142.8 235.56V227.8H144.576V235.544C144.576 236.099 144.507 236.579 144.368 236.984C144.229 237.389 144.027 237.731 143.76 238.008C143.493 238.285 143.173 238.509 142.8 238.68C142.437 238.851 142.032 238.973 141.584 239.048C141.136 239.123 140.656 239.16 140.144 239.16C139.643 239.16 139.168 239.123 138.72 239.048C138.272 238.973 137.861 238.851 137.488 238.68C137.125 238.509 136.811 238.285 136.544 238.008C136.277 237.731 136.069 237.389 135.92 236.984C135.781 236.579 135.712 236.099 135.712 235.544ZM146.611 239V230.376H148.179V231.128C148.531 230.936 148.867 230.776 149.187 230.648C149.507 230.509 149.832 230.403 150.163 230.328C150.494 230.253 150.84 230.216 151.203 230.216C151.736 230.216 152.179 230.312 152.531 230.504C152.894 230.696 153.166 230.968 153.347 231.32C153.539 231.672 153.635 232.104 153.635 232.616V239H151.891V233.144C151.891 232.664 151.774 232.301 151.539 232.056C151.304 231.811 150.952 231.688 150.483 231.688C150.238 231.688 149.998 231.715 149.763 231.768C149.528 231.821 149.294 231.896 149.059 231.992C148.824 232.077 148.584 232.184 148.339 232.312V239H146.611ZM157.503 227.16V236.424C157.503 236.765 157.54 237.027 157.615 237.208C157.69 237.379 157.791 237.496 157.919 237.56C158.047 237.624 158.191 237.656 158.351 237.656C158.468 237.656 158.591 237.645 158.719 237.624C158.847 237.603 158.986 237.565 159.135 237.512L159.311 238.856C159.119 238.941 158.9 239.011 158.655 239.064C158.41 239.128 158.148 239.16 157.871 239.16C157.423 239.16 157.039 239.085 156.719 238.936C156.41 238.776 156.175 238.509 156.015 238.136C155.855 237.752 155.775 237.229 155.775 236.568V227.16H157.503ZM160.055 234.68C160.055 233.933 160.119 233.283 160.247 232.728C160.385 232.173 160.604 231.715 160.903 231.352C161.201 230.979 161.601 230.696 162.103 230.504C162.604 230.312 163.223 230.216 163.959 230.216C164.695 230.216 165.313 230.312 165.815 230.504C166.316 230.696 166.716 230.979 167.015 231.352C167.313 231.715 167.527 232.173 167.655 232.728C167.793 233.283 167.863 233.933 167.863 234.68C167.863 235.437 167.788 236.099 167.639 236.664C167.5 237.229 167.276 237.699 166.967 238.072C166.657 238.435 166.252 238.707 165.751 238.888C165.26 239.069 164.663 239.16 163.959 239.16C163.255 239.16 162.652 239.069 162.151 238.888C161.66 238.707 161.26 238.435 160.951 238.072C160.641 237.699 160.412 237.229 160.263 236.664C160.124 236.099 160.055 235.437 160.055 234.68ZM161.831 234.68C161.831 235.459 161.9 236.077 162.039 236.536C162.188 236.995 162.417 237.325 162.727 237.528C163.047 237.731 163.457 237.832 163.959 237.832C164.46 237.832 164.865 237.731 165.175 237.528C165.484 237.325 165.708 236.995 165.847 236.536C165.996 236.077 166.071 235.459 166.071 234.68C166.071 233.901 166.007 233.288 165.879 232.84C165.751 232.381 165.527 232.056 165.207 231.864C164.897 231.661 164.481 231.56 163.959 231.56C163.425 231.56 163.004 231.661 162.695 231.864C162.385 232.056 162.161 232.381 162.023 232.84C161.895 233.288 161.831 233.901 161.831 234.68ZM169.265 234.824C169.265 233.789 169.425 232.936 169.745 232.264C170.065 231.581 170.535 231.069 171.153 230.728C171.783 230.387 172.545 230.216 173.441 230.216C173.74 230.216 174.044 230.232 174.353 230.264C174.673 230.285 174.983 230.323 175.281 230.376C175.58 230.419 175.852 230.477 176.097 230.552L175.841 231.992C175.607 231.939 175.361 231.896 175.105 231.864C174.849 231.821 174.593 231.789 174.337 231.768C174.092 231.747 173.852 231.736 173.617 231.736C173.063 231.736 172.593 231.848 172.209 232.072C171.836 232.296 171.548 232.632 171.345 233.08C171.153 233.528 171.057 234.104 171.057 234.808C171.057 235.448 171.159 235.981 171.361 236.408C171.564 236.824 171.857 237.139 172.241 237.352C172.625 237.555 173.089 237.656 173.633 237.656C173.879 237.656 174.129 237.645 174.385 237.624C174.652 237.603 174.919 237.571 175.185 237.528C175.463 237.485 175.729 237.437 175.985 237.384L176.241 238.776C175.836 238.883 175.361 238.973 174.817 239.048C174.284 239.123 173.767 239.16 173.265 239.16C171.943 239.16 170.945 238.808 170.273 238.104C169.601 237.389 169.265 236.296 169.265 234.824ZM184.612 239.144C184.452 239.144 184.287 239.123 184.116 239.08C183.956 239.048 183.775 238.973 183.572 238.856C183.38 238.728 183.14 238.541 182.852 238.296C182.575 238.051 182.239 237.731 181.844 237.336L179.492 235V239H177.828V227.16H179.492V232.728L182.212 235.448C182.746 235.971 183.172 236.365 183.492 236.632C183.823 236.899 184.084 237.08 184.276 237.176C184.479 237.272 184.666 237.32 184.836 237.32C184.868 237.32 184.906 237.32 184.948 237.32C184.991 237.309 185.034 237.304 185.076 237.304L185.108 239.096C185.034 239.107 184.954 239.117 184.868 239.128C184.794 239.139 184.708 239.144 184.612 239.144ZM181.156 235.16L179.764 234.44C180.116 234.131 180.458 233.816 180.788 233.496C181.13 233.176 181.444 232.851 181.732 232.52C182.02 232.179 182.271 231.827 182.484 231.464C182.708 231.091 182.884 230.68 183.012 230.232L184.756 230.376C184.618 230.856 184.415 231.32 184.148 231.768C183.882 232.216 183.578 232.643 183.236 233.048C182.895 233.453 182.543 233.832 182.18 234.184C181.818 234.525 181.476 234.851 181.156 235.16ZM190.742 238.312L191.254 236.952C191.542 237.08 191.83 237.197 192.118 237.304C192.417 237.4 192.747 237.48 193.11 237.544C193.473 237.597 193.889 237.624 194.358 237.624C195.041 237.624 195.595 237.544 196.022 237.384C196.449 237.224 196.769 236.989 196.982 236.68C197.195 236.371 197.302 236.003 197.302 235.576C197.302 235.256 197.254 234.984 197.158 234.76C197.062 234.525 196.907 234.333 196.694 234.184C196.481 234.024 196.198 233.907 195.846 233.832C195.494 233.757 195.067 233.72 194.566 233.72H191.574L191.414 233.544L192.054 227.8H198.486V229.352H193.398L193.062 232.376H195.334C196.166 232.376 196.859 232.488 197.414 232.712C197.969 232.936 198.385 233.277 198.662 233.736C198.95 234.195 199.094 234.787 199.094 235.512C199.094 236.323 198.902 237 198.518 237.544C198.134 238.077 197.595 238.483 196.902 238.76C196.209 239.027 195.398 239.16 194.47 239.16C193.958 239.16 193.489 239.128 193.062 239.064C192.635 239 192.235 238.904 191.862 238.776C191.489 238.648 191.115 238.493 190.742 238.312ZM200.971 230.872C200.971 230.232 201.035 229.699 201.163 229.272C201.302 228.845 201.494 228.509 201.739 228.264C201.985 228.008 202.278 227.832 202.619 227.736C202.961 227.629 203.345 227.576 203.771 227.576C204.198 227.576 204.582 227.629 204.923 227.736C205.265 227.843 205.553 228.024 205.787 228.28C206.033 228.525 206.219 228.861 206.347 229.288C206.486 229.704 206.555 230.232 206.555 230.872C206.555 231.501 206.486 232.029 206.347 232.456C206.219 232.872 206.033 233.208 205.787 233.464C205.542 233.709 205.249 233.891 204.907 234.008C204.566 234.115 204.187 234.168 203.771 234.168C203.345 234.168 202.961 234.115 202.619 234.008C202.278 233.891 201.985 233.709 201.739 233.464C201.494 233.208 201.302 232.872 201.163 232.456C201.035 232.029 200.971 231.501 200.971 230.872ZM202.283 230.888C202.283 231.539 202.347 232.04 202.475 232.392C202.603 232.733 202.779 232.968 203.003 233.096C203.227 233.224 203.483 233.288 203.771 233.288C204.059 233.288 204.31 233.224 204.523 233.096C204.747 232.968 204.923 232.733 205.051 232.392C205.179 232.04 205.243 231.539 205.243 230.888C205.243 230.205 205.179 229.693 205.051 229.352C204.923 229 204.747 228.765 204.523 228.648C204.31 228.52 204.059 228.456 203.771 228.456C203.483 228.456 203.227 228.52 203.003 228.648C202.779 228.765 202.603 229 202.475 229.352C202.347 229.704 202.283 230.216 202.283 230.888ZM205.419 239.128L204.299 239.064L210.123 227.32L211.243 227.384L205.419 239.128ZM208.955 235.848C208.955 235.208 209.019 234.675 209.147 234.248C209.286 233.821 209.478 233.485 209.723 233.24C209.969 232.984 210.262 232.808 210.603 232.712C210.945 232.605 211.329 232.552 211.755 232.552C212.182 232.552 212.566 232.605 212.907 232.712C213.249 232.819 213.537 233 213.771 233.256C214.017 233.501 214.203 233.837 214.331 234.264C214.47 234.68 214.539 235.208 214.539 235.848C214.539 236.477 214.47 237.005 214.331 237.432C214.203 237.848 214.017 238.184 213.771 238.44C213.526 238.685 213.233 238.867 212.891 238.984C212.55 239.091 212.171 239.144 211.755 239.144C211.329 239.144 210.945 239.091 210.603 238.984C210.262 238.867 209.969 238.685 209.723 238.44C209.478 238.184 209.286 237.848 209.147 237.432C209.019 237.005 208.955 236.477 208.955 235.848ZM210.267 235.864C210.267 236.515 210.331 237.016 210.459 237.368C210.587 237.709 210.763 237.944 210.987 238.072C211.211 238.2 211.467 238.264 211.755 238.264C212.043 238.264 212.294 238.2 212.507 238.072C212.731 237.944 212.907 237.709 213.035 237.368C213.163 237.016 213.227 236.515 213.227 235.864C213.227 235.181 213.163 234.669 213.035 234.328C212.907 233.976 212.731 233.741 212.507 233.624C212.294 233.496 212.043 233.432 211.755 233.432C211.467 233.432 211.211 233.496 210.987 233.624C210.763 233.741 210.587 233.976 210.459 234.328C210.331 234.68 210.267 235.192 210.267 235.864ZM94.7224 263.36V251.328H96.2904L96.3384 252.16C96.829 251.84 97.3037 251.605 97.7624 251.456C98.221 251.296 98.685 251.216 99.1544 251.216C100.093 251.216 100.813 251.589 101.314 252.336C101.816 253.072 102.066 254.128 102.066 255.504C102.066 256.56 101.922 257.435 101.634 258.128C101.346 258.821 100.909 259.333 100.322 259.664C99.7357 259.995 98.9944 260.16 98.0984 260.16C97.853 260.16 97.5917 260.144 97.3144 260.112C97.0477 260.08 96.7597 260.037 96.4504 259.984V263.36H94.7224ZM97.9704 258.88C98.5037 258.88 98.9357 258.779 99.2664 258.576C99.6077 258.363 99.8584 258.021 100.018 257.552C100.189 257.072 100.274 256.443 100.274 255.664C100.274 254.981 100.205 254.421 100.066 253.984C99.9277 253.536 99.725 253.205 99.4584 252.992C99.2024 252.768 98.8824 252.656 98.4984 252.656C98.285 252.656 98.0664 252.683 97.8424 252.736C97.629 252.779 97.4104 252.853 97.1864 252.96C96.9624 253.056 96.717 253.189 96.4504 253.36V258.672C96.749 258.736 97.021 258.789 97.2664 258.832C97.5117 258.864 97.7464 258.88 97.9704 258.88ZM107.359 260.16C106.73 260.16 106.175 260.08 105.695 259.92C105.226 259.749 104.82 259.493 104.479 259.152C104.148 258.811 103.898 258.373 103.727 257.84C103.556 257.296 103.471 256.656 103.471 255.92C103.471 255.056 103.572 254.325 103.775 253.728C103.988 253.12 104.276 252.635 104.639 252.272C105.012 251.899 105.444 251.632 105.935 251.472C106.436 251.301 106.98 251.216 107.567 251.216C108.719 251.216 109.567 251.515 110.111 252.112C110.666 252.709 110.943 253.68 110.943 255.024C110.943 255.099 110.938 255.205 110.927 255.344C110.927 255.472 110.927 255.6 110.927 255.728C110.682 255.749 110.367 255.776 109.983 255.808C109.61 255.84 109.178 255.872 108.687 255.904C108.196 255.936 107.663 255.963 107.087 255.984C106.511 256.005 105.908 256.021 105.279 256.032C105.268 256.075 105.263 256.123 105.263 256.176C105.263 256.219 105.263 256.267 105.263 256.32C105.263 256.907 105.354 257.381 105.535 257.744C105.716 258.096 105.983 258.357 106.335 258.528C106.687 258.688 107.13 258.768 107.663 258.768C107.983 258.768 108.314 258.752 108.655 258.72C109.007 258.677 109.348 258.629 109.679 258.576C110.01 258.512 110.324 258.443 110.623 258.368L110.847 259.664C110.527 259.76 110.18 259.851 109.807 259.936C109.444 260.011 109.06 260.064 108.655 260.096C108.25 260.139 107.818 260.16 107.359 260.16ZM105.295 254.864C105.743 254.864 106.17 254.859 106.575 254.848C106.991 254.827 107.375 254.805 107.727 254.784C108.079 254.763 108.378 254.747 108.623 254.736C108.879 254.715 109.071 254.699 109.199 254.688C109.188 254.155 109.119 253.728 108.991 253.408C108.863 253.088 108.671 252.859 108.415 252.72C108.159 252.571 107.834 252.496 107.439 252.496C107.194 252.496 106.954 252.533 106.719 252.608C106.484 252.672 106.266 252.795 106.063 252.976C105.871 253.147 105.706 253.387 105.567 253.696C105.428 253.995 105.338 254.384 105.295 254.864ZM114.29 251.376V252.432C114.599 252.144 114.887 251.915 115.154 251.744C115.431 251.563 115.708 251.429 115.986 251.344C116.263 251.259 116.556 251.216 116.866 251.216C117.068 251.216 117.271 251.232 117.474 251.264C117.687 251.296 117.884 251.339 118.066 251.392L117.778 252.976C117.586 252.923 117.388 252.885 117.186 252.864C116.994 252.832 116.807 252.816 116.626 252.816C116.284 252.816 115.932 252.885 115.57 253.024C115.218 253.163 114.839 253.397 114.434 253.728V260H112.722V251.376H114.29ZM123.955 260V251.376H125.523V252.128C125.833 251.936 126.137 251.776 126.435 251.648C126.734 251.52 127.033 251.424 127.331 251.36C127.641 251.285 127.961 251.248 128.291 251.248C128.622 251.248 128.905 251.285 129.139 251.36C129.385 251.435 129.593 251.547 129.763 251.696C129.945 251.835 130.089 252.005 130.195 252.208C130.494 252.016 130.798 251.851 131.107 251.712C131.417 251.563 131.742 251.445 132.083 251.36C132.435 251.264 132.809 251.216 133.203 251.216C133.523 251.216 133.806 251.259 134.051 251.344C134.297 251.429 134.51 251.547 134.691 251.696C134.873 251.845 135.017 252.021 135.123 252.224C135.241 252.416 135.326 252.635 135.379 252.88C135.433 253.115 135.459 253.36 135.459 253.616V260H133.731V254.144C133.731 253.973 133.71 253.803 133.667 253.632C133.625 253.451 133.555 253.291 133.459 253.152C133.374 253.013 133.246 252.907 133.075 252.832C132.905 252.747 132.686 252.704 132.419 252.704C132.174 252.704 131.934 252.736 131.699 252.8C131.465 252.853 131.246 252.928 131.043 253.024C130.841 253.12 130.654 253.216 130.483 253.312C130.526 253.44 130.553 253.563 130.563 253.68C130.574 253.797 130.579 253.915 130.579 254.032V260H128.851V254.16C128.851 253.989 128.83 253.819 128.787 253.648C128.745 253.467 128.675 253.312 128.579 253.184C128.483 253.045 128.35 252.933 128.179 252.848C128.019 252.763 127.806 252.72 127.539 252.72C127.326 252.72 127.113 252.747 126.899 252.8C126.697 252.853 126.494 252.923 126.291 253.008C126.089 253.093 125.886 253.2 125.683 253.328V260H123.955ZM137.235 255.68C137.235 254.933 137.299 254.283 137.427 253.728C137.566 253.173 137.785 252.715 138.083 252.352C138.382 251.979 138.782 251.696 139.283 251.504C139.785 251.312 140.403 251.216 141.139 251.216C141.875 251.216 142.494 251.312 142.995 251.504C143.497 251.696 143.897 251.979 144.195 252.352C144.494 252.715 144.707 253.173 144.835 253.728C144.974 254.283 145.043 254.933 145.043 255.68C145.043 256.437 144.969 257.099 144.819 257.664C144.681 258.229 144.457 258.699 144.147 259.072C143.838 259.435 143.433 259.707 142.931 259.888C142.441 260.069 141.843 260.16 141.139 260.16C140.435 260.16 139.833 260.069 139.331 259.888C138.841 259.707 138.441 259.435 138.131 259.072C137.822 258.699 137.593 258.229 137.443 257.664C137.305 257.099 137.235 256.437 137.235 255.68ZM139.011 255.68C139.011 256.459 139.081 257.077 139.219 257.536C139.369 257.995 139.598 258.325 139.907 258.528C140.227 258.731 140.638 258.832 141.139 258.832C141.641 258.832 142.046 258.731 142.355 258.528C142.665 258.325 142.889 257.995 143.027 257.536C143.177 257.077 143.251 256.459 143.251 255.68C143.251 254.901 143.187 254.288 143.059 253.84C142.931 253.381 142.707 253.056 142.387 252.864C142.078 252.661 141.662 252.56 141.139 252.56C140.606 252.56 140.185 252.661 139.875 252.864C139.566 253.056 139.342 253.381 139.203 253.84C139.075 254.288 139.011 254.901 139.011 255.68ZM146.83 260V251.376H148.398V252.128C148.75 251.936 149.086 251.776 149.406 251.648C149.726 251.509 150.051 251.403 150.382 251.328C150.713 251.253 151.059 251.216 151.422 251.216C151.955 251.216 152.398 251.312 152.75 251.504C153.113 251.696 153.385 251.968 153.566 252.32C153.758 252.672 153.854 253.104 153.854 253.616V260H152.11V254.144C152.11 253.664 151.993 253.301 151.758 253.056C151.523 252.811 151.171 252.688 150.702 252.688C150.457 252.688 150.217 252.715 149.982 252.768C149.747 252.821 149.513 252.896 149.278 252.992C149.043 253.077 148.803 253.184 148.558 253.312V260H146.83ZM159.033 260.16C158.489 260.16 158.036 260.059 157.673 259.856C157.311 259.653 157.039 259.344 156.857 258.928C156.687 258.501 156.601 257.968 156.601 257.328V252.672H155.193V251.52L156.601 251.376L156.825 249.408H158.329V251.376H160.985V252.672H158.329V257.2C158.329 257.723 158.431 258.101 158.633 258.336C158.836 258.571 159.161 258.688 159.609 258.688C159.833 258.688 160.063 258.667 160.297 258.624C160.543 258.571 160.793 258.512 161.049 258.448L161.289 259.776C160.884 259.915 160.489 260.011 160.105 260.064C159.721 260.128 159.364 260.16 159.033 260.16ZM162.657 260V248.16H164.417V252.096C164.737 251.904 165.046 251.744 165.345 251.616C165.644 251.488 165.948 251.392 166.257 251.328C166.577 251.253 166.913 251.216 167.265 251.216C167.788 251.216 168.23 251.312 168.593 251.504C168.956 251.685 169.228 251.957 169.409 252.32C169.601 252.672 169.697 253.109 169.697 253.632V260H167.953V254.144C167.953 253.664 167.836 253.307 167.601 253.072C167.366 252.827 167.014 252.704 166.545 252.704C166.3 252.704 166.054 252.731 165.809 252.784C165.574 252.837 165.345 252.912 165.121 253.008C164.897 253.093 164.662 253.2 164.417 253.328V260H162.657Z" fill="#C2ABCB"/>
<path opacity="0.2" d="M0 134.5C1.54413e-06 116.837 3.47895 99.3474 10.2382 83.0291C16.9975 66.7108 26.9047 51.8836 39.3941 39.3941C51.8836 26.9046 66.7108 16.9975 83.0291 10.2382C99.3474 3.47894 116.837 -2.31619e-06 134.5 0C152.163 2.3162e-06 169.653 3.47895 185.971 10.2382C202.289 16.9975 217.116 26.9047 229.606 39.3942C242.095 51.8836 252.003 66.7108 258.762 83.0291C265.521 99.3474 269 116.837 269 134.5L228.65 134.5C228.65 122.136 226.215 109.893 221.483 98.4704C216.752 87.0476 209.817 76.6685 201.074 67.9259C192.331 59.1833 181.952 52.2482 170.53 47.5167C159.107 42.7853 146.864 40.35 134.5 40.35C122.136 40.35 109.893 42.7853 98.4704 47.5167C87.0476 52.2482 76.6685 59.1833 67.9259 67.9259C59.1833 76.6685 52.2482 87.0475 47.5167 98.4703C42.7853 109.893 40.35 122.136 40.35 134.5L0 134.5Z" fill="black"/>
<path d="M0 134.5C1.80359e-06 113.869 4.74592 93.5152 13.8706 75.0122C22.9953 56.5091 36.2542 40.3531 52.6216 27.794C68.989 15.2348 88.0261 6.60922 108.26 2.58438C128.495 -1.44046 149.383 -0.756626 169.311 4.58297L158.868 43.5581C144.918 39.8204 130.296 39.3417 116.132 42.1591C101.968 44.9765 88.6423 51.0144 77.1851 59.8058C65.7279 68.5972 56.4467 79.9064 50.0594 92.8585C43.6721 105.811 40.35 120.059 40.35 134.5L0 134.5Z" fill="url(#paint2_linear_257_2412)"/>
<defs>
<radialGradient id="paint0_radial_257_2412" cx="0" cy="0" r="1" gradientUnits="userSpaceOnUse" gradientTransform="translate(73 204.5) rotate(90) scale(8)">
<stop stop-color="#FFE814"/>
<stop offset="1" stop-color="#FFA114"/>
</radialGradient>
<radialGradient id="paint1_radial_257_2412" cx="0" cy="0" r="1" gradientUnits="userSpaceOnUse" gradientTransform="translate(196 204.5) rotate(90) scale(8)">
<stop stop-color="#FFE814"/>
<stop offset="1" stop-color="#FFA114"/>
</radialGradient>
<linearGradient id="paint2_linear_257_2412" x1="-36.9055" y1="307.108" x2="355.37" y2="262.625" gradientUnits="userSpaceOnUse">
<stop stop-color="#3AD3DF"/>
<stop offset="1" stop-color="#5AEFFB"/>
</linearGradient>
</defs>
</svg>
