<svg width="269" height="286" fill="none" xmlns="http://www.w3.org/2000/svg"><path d="M79.937 147.772l1.824-7.248c.768.256 1.632.496 2.592.72.992.224 2.048.4 3.168.528 1.152.128 2.336.192 3.552.192 1.664 0 2.992-.128 3.984-.384.992-.288 1.696-.672 2.112-1.152.448-.48.672-1.056.672-1.728 0-.512-.112-.96-.336-1.344-.192-.384-.576-.704-1.152-.96-.544-.256-1.312-.448-2.304-.576-.992-.16-2.256-.24-3.792-.24h-7.968l-.432-.528L84.16 115.9h21.504v7.824H91.217l-.528 4.992 3.792.048c2.784.032 5.12.368 7.008 1.008 1.92.608 3.376 1.6 4.368 2.976 1.024 1.376 1.536 3.232 1.536 5.568 0 2.624-.656 4.8-1.968 6.528-1.312 1.728-3.136 3.024-5.472 3.888-2.304.832-4.992 1.248-8.064 1.248-1.536 0-2.992-.08-4.368-.24-1.344-.16-2.64-.4-3.888-.72a26.435 26.435 0 01-3.696-1.248zm33.274-4.608a118.524 118.524 0 005.328-3.744c1.568-1.184 2.896-2.272 3.984-3.264 1.12-1.024 2.032-1.968 2.736-2.832.736-.896 1.264-1.728 1.584-2.496.352-.768.528-1.504.528-2.208 0-.832-.16-1.536-.48-2.112-.32-.576-.816-1.008-1.488-1.296-.64-.32-1.504-.48-2.592-.48-1.056 0-2.192.16-3.408.48-1.216.32-2.48.816-3.792 1.488l-2.88-7.92a22.565 22.565 0 013.744-1.824c1.376-.512 2.8-.896 4.272-1.152a25.456 25.456 0 014.368-.384c2.624 0 4.832.432 6.624 1.296 1.824.864 3.216 2.096 4.176 3.696.96 1.568 1.44 3.44 1.44 5.616 0 1.12-.096 2.16-.288 3.12-.16.928-.464 1.856-.912 2.784-.416.928-1.008 1.888-1.776 2.88s-1.744 2.08-2.928 3.264a89.644 89.644 0 01-4.128 3.84h12.288v7.584h-26.352l-.048-6.336zm31.163-17.904c0-1.92.208-3.52.624-4.8.448-1.28 1.072-2.288 1.872-3.024.832-.736 1.84-1.264 3.024-1.584 1.184-.32 2.528-.48 4.032-.48s2.848.16 4.032.48c1.184.32 2.176.864 2.976 1.632.8.736 1.392 1.744 1.776 3.024.416 1.28.624 2.864.624 4.752 0 1.856-.208 3.408-.624 4.656-.416 1.248-1.04 2.256-1.872 3.024-.832.768-1.824 1.328-2.976 1.68-1.152.32-2.464.48-3.936.48-1.504 0-2.848-.16-4.032-.48-1.184-.352-2.192-.896-3.024-1.632-.8-.768-1.424-1.776-1.872-3.024-.416-1.28-.624-2.848-.624-4.704zm7.008.144c0 1.536.096 2.688.288 3.456.192.736.48 1.232.864 1.488.384.224.848.336 1.392.336.544 0 .992-.112 1.344-.336.384-.256.656-.752.816-1.488.192-.768.288-1.92.288-3.456 0-1.728-.096-2.992-.288-3.792-.192-.8-.48-1.296-.864-1.488-.352-.224-.784-.336-1.296-.336-.544 0-1.008.112-1.392.336-.352.224-.64.736-.864 1.536-.192.8-.288 2.048-.288 3.744zm9.6 24.336l-5.952-.048 18.096-34.704 5.952.048-18.096 34.704zm9.648-9.648c0-1.92.208-3.52.624-4.8.448-1.28 1.072-2.288 1.872-3.024.832-.736 1.84-1.264 3.024-1.584 1.184-.32 2.528-.48 4.032-.48s2.848.16 4.032.48c1.184.32 2.176.864 2.976 1.632.8.736 1.392 1.744 1.776 3.024.416 1.28.624 2.864.624 4.752 0 1.856-.208 3.408-.624 4.656-.416 1.248-1.04 2.256-1.872 3.024-.832.768-1.824 1.328-2.976 1.68-1.152.32-2.464.48-3.936.48-1.504 0-2.848-.16-4.032-.48-1.184-.352-2.192-.896-3.024-1.632-.8-.768-1.424-1.776-1.872-3.024-.416-1.28-.624-2.848-.624-4.704zm7.008.144c0 1.536.096 2.688.288 3.456.192.736.48 1.232.864 1.488.384.224.848.336 1.392.336.544 0 .992-.112 1.344-.336.384-.256.656-.752.816-1.488.192-.768.288-1.92.288-3.456 0-1.728-.096-2.992-.288-3.792-.192-.8-.48-1.296-.864-1.488-.352-.224-.784-.336-1.296-.336-.544 0-1.008.112-1.392.336-.352.224-.64.736-.864 1.536-.192.8-.288 2.048-.288 3.744z" fill="#1F8088"/><path d="M55.979 193.7c-1.667 0-2.967-.58-3.9-1.74-.933-1.173-1.4-2.993-1.4-5.46s.467-4.28 1.4-5.44c.933-1.173 2.233-1.76 3.9-1.76 1.667 0 2.967.587 3.9 1.76.933 1.16 1.4 2.973 1.4 5.44 0 2.467-.467 4.287-1.4 5.46-.933 1.16-2.233 1.74-3.9 1.74zm0-1.8c.733 0 1.333-.413 1.8-1.24.467-.827.7-2.213.7-4.16s-.233-3.333-.7-4.16c-.467-.827-1.067-1.24-1.8-1.24-.733 0-1.333.413-1.8 1.24-.467.827-.7 2.213-.7 4.16s.233 3.333.7 4.16c.467.827 1.067 1.24 1.8 1.24zm8.098-8.4h2l.2 1.2h.1c.133-.2.36-.433.68-.7.626-.467 1.3-.7 2.02-.7.346 0 .686.033 1.02.1.213.053.373.087.48.1l-.4 2h-.2a2.475 2.475 0 01-.44-.1 4.312 4.312 0 00-.96-.1c-.44 0-.86.2-1.26.6-.134.16-.28.36-.44.6v7h-2.8v-10zm11.99 14.2c-.893 0-1.74-.167-2.54-.5a5.565 5.565 0 01-.96-.5l.9-1.6h.2c.174.147.367.28.58.4.467.267 1.007.4 1.62.4.653 0 1.167-.193 1.54-.58.374-.373.56-.913.56-1.62v-.6a2.32 2.32 0 01-.56.3c-.48.2-.96.3-1.44.3-1.293 0-2.32-.44-3.08-1.32-.746-.88-1.12-2.173-1.12-3.88 0-1.693.367-2.98 1.1-3.86.733-.893 1.7-1.34 2.9-1.34.72 0 1.394.233 2.02.7.267.227.493.46.68.7h.1l.2-1.2h2v10.2c0 .773-.186 1.46-.56 2.06-.373.613-.913 1.087-1.62 1.42-.707.347-1.547.52-2.52.52zm.4-5.8c.4 0 .76-.1 1.08-.3.147-.08.287-.18.42-.3v-4.9c-.16-.24-.306-.44-.44-.6-.4-.4-.82-.6-1.26-.6-.507 0-.92.26-1.24.78-.306.52-.46 1.36-.46 2.52 0 1.227.167 2.1.5 2.62.334.52.8.78 1.4.78zm10.592 1.8c-1.174 0-2.087-.28-2.74-.84-.64-.573-.96-1.327-.96-2.26 0-1 .36-1.78 1.08-2.34.733-.573 1.873-.86 3.42-.86h1.4v-.3c0-.707-.154-1.213-.46-1.52-.307-.32-.787-.48-1.44-.48-.56 0-1.074.133-1.54.4a2.431 2.431 0 00-.56.4h-.2l-.9-1.6c.32-.213.633-.38.94-.5.866-.333 1.686-.5 2.46-.5.933 0 1.74.167 2.42.5.68.32 1.193.767 1.54 1.34.36.573.54 1.227.54 1.96v6.4h-2l-.2-1.2h-.1a3.796 3.796 0 01-.68.7c-.56.467-1.234.7-2.02.7zm.5-1.9c.413 0 .82-.2 1.22-.6.186-.187.346-.387.48-.6v-1.4h-1.4c-1.134 0-1.7.467-1.7 1.4 0 .36.12.653.36.88.253.213.6.32 1.04.32zm7.6-8.3h2l.2 1.2h.1c.134-.2.36-.433.68-.7.627-.467 1.3-.7 2.02-.7 1.214 0 2.147.333 2.8 1 .667.653 1 1.587 1 2.8v6.4h-2.8v-6.4c0-.627-.133-1.1-.4-1.42-.266-.32-.633-.48-1.1-.48-.44 0-.86.2-1.26.6-.133.16-.28.36-.44.6v7.1h-2.8v-10zm13.304-1.3c-.4 0-.753-.147-1.06-.44a1.49 1.49 0 01-.44-1.06c0-.4.147-.747.44-1.04.307-.307.66-.46 1.06-.46s.747.153 1.04.46c.307.293.46.64.46 1.04s-.153.753-.46 1.06c-.293.293-.64.44-1.04.44zm-1.4 11.3v-10h2.8v10h-2.8zm10.306.2c-3.267 0-4.9-1.733-4.9-5.2 0-1.733.4-3.033 1.2-3.9.8-.867 1.966-1.3 3.5-1.3.76 0 1.573.167 2.44.5.266.107.586.273.96.5l-.9 1.6h-.2a2.453 2.453 0 00-.56-.4c-.467-.267-.98-.4-1.54-.4-.68 0-1.2.26-1.56.78-.36.507-.54 1.38-.54 2.62 0 1.253.186 2.133.56 2.64.373.507.953.76 1.74.76.56 0 1.073-.133 1.54-.4.186-.093.373-.227.56-.4h.2l.9 1.6a6.842 6.842 0 01-.96.5 6.3 6.3 0 01-2.44.5zm10.888-.2l4.1-14h3.2l4.1 14h-2.8l-.9-3.2h-4l-.9 3.2h-2.8zm7.2-5l-1.2-4.2c-.04-.147-.08-.32-.12-.52-.04-.213-.067-.367-.08-.46l-.06-.52h-.08l-.08.52c-.027.12-.06.287-.1.5-.027.2-.053.36-.08.48l-1.2 4.2h3zm10.092 5.2c-1.213 0-2.153-.327-2.82-.98-.653-.667-.98-1.607-.98-2.82v-6.4h2.8v6.4c0 .627.134 1.1.4 1.42.267.32.634.48 1.1.48.44 0 .86-.2 1.26-.6.134-.16.28-.36.44-.6v-7.1h2.8v10h-2l-.2-1.2h-.1a3.764 3.764 0 01-.68.7c-.56.467-1.233.7-2.02.7zm11.602 0c-1.2 0-2.167-.44-2.9-1.32-.734-.893-1.1-2.187-1.1-3.88 0-1.707.373-3 1.12-3.88.76-.88 1.786-1.32 3.08-1.32.28 0 .52.027.72.08.213.053.453.127.72.22l.56.3v-3.6l.8-.8h2v14h-2l-.2-1.2h-.1a3.828 3.828 0 01-.68.7c-.56.467-1.234.7-2.02.7zm.5-1.9c.44 0 .86-.2 1.26-.6.133-.16.28-.36.44-.6v-4.9l-.42-.3c-.374-.2-.734-.3-1.08-.3-.6 0-1.067.26-1.4.78-.334.52-.5 1.393-.5 2.62 0 1.16.153 2 .46 2.52.32.52.733.78 1.24.78zm9.091-9.6c-.4 0-.753-.147-1.06-.44a1.49 1.49 0 01-.44-1.06c0-.4.147-.747.44-1.04.307-.307.66-.46 1.06-.46s.747.153 1.04.46c.307.293.46.64.46 1.04s-.153.753-.46 1.06c-.293.293-.64.44-1.04.44zm-1.4 11.3v-10h2.8v10h-2.8zm10.406.2c-3.334 0-5-1.733-5-5.2 0-1.707.386-3 1.16-3.88.773-.88 1.853-1.32 3.24-1.32 1.373 0 2.446.427 3.22 1.28.786.853 1.18 2.093 1.18 3.72v.5l-.6.6h-5.4c0 1.667.8 2.5 2.4 2.5.56 0 1.073-.133 1.54-.4.186-.093.373-.227.56-.4h.2l.9 1.6a6.842 6.842 0 01-.96.5 6.3 6.3 0 01-2.44.5zm1-6.1c0-.8-.16-1.413-.48-1.84-.307-.44-.68-.66-1.12-.66-.44 0-.82.22-1.14.66-.307.427-.46 1.04-.46 1.84h3.2zm5.39-4.1h2l.2 1.2h.1c.134-.2.36-.433.68-.7.627-.467 1.3-.7 2.02-.7 1.214 0 2.147.333 2.8 1 .667.653 1 1.587 1 2.8v6.4h-2.8v-6.4c0-.627-.133-1.1-.4-1.42-.266-.32-.633-.48-1.1-.48-.44 0-.86.2-1.26.6-.133.16-.28.36-.44.6v7.1h-2.8v-10zm16.204 10.2c-3.266 0-4.9-1.733-4.9-5.2 0-1.733.4-3.033 1.2-3.9.8-.867 1.967-1.3 3.5-1.3.76 0 1.574.167 2.44.5.267.107.587.273.96.5l-.9 1.6h-.2a2.41 2.41 0 00-.56-.4c-.466-.267-.98-.4-1.54-.4-.68 0-1.2.26-1.56.78-.36.507-.54 1.38-.54 2.62 0 1.253.187 2.133.56 2.64.374.507.954.76 1.74.76.56 0 1.074-.133 1.54-.4a2.41 2.41 0 00.56-.4h.2l.9 1.6a6.734 6.734 0 01-.96.5c-.8.333-1.613.5-2.44.5zm9.992 0c-3.333 0-5-1.733-5-5.2 0-1.707.387-3 1.16-3.88.774-.88 1.854-1.32 3.24-1.32 1.374 0 2.447.427 3.22 1.28.787.853 1.18 2.093 1.18 3.72v.5l-.6.6h-5.4c0 1.667.8 2.5 2.4 2.5.56 0 1.074-.133 1.54-.4a2.41 2.41 0 00.56-.4h.2l.9 1.6a6.734 6.734 0 01-.96.5c-.8.333-1.613.5-2.44.5zm1-6.1c0-.8-.16-1.413-.48-1.84-.306-.44-.68-.66-1.12-.66-.44 0-.82.22-1.14.66-.306.427-.46 1.04-.46 1.84h3.2z" fill="#000"/><path d="M15.28 223.812l.512-1.36c.288.128.576.245.864.352.3.096.63.176.992.24.363.053.78.08 1.248.08.683 0 1.238-.08 1.664-.24.427-.16.747-.395.96-.704.214-.309.32-.677.32-1.104 0-.32-.048-.592-.144-.816a1.282 1.282 0 00-.464-.576c-.213-.16-.496-.277-.848-.352a6.246 6.246 0 00-1.28-.112h-2.992l-.16-.176.64-5.744h6.432v1.552h-5.088l-.336 3.024h2.272c.832 0 1.526.112 2.08.336.555.224.971.565 1.248 1.024.288.459.432 1.051.432 1.776 0 .811-.192 1.488-.576 2.032-.384.533-.922.939-1.616 1.216-.693.267-1.504.4-2.432.4-.512 0-.98-.032-1.408-.096a6.811 6.811 0 01-1.2-.288 10.02 10.02 0 01-1.12-.464zm10.39-.512c.896-.789 1.653-1.467 2.272-2.032a26.482 26.482 0 001.536-1.504c.405-.427.714-.805.928-1.136.224-.331.378-.635.464-.912.085-.288.128-.581.128-.88 0-.437-.086-.8-.256-1.088a1.65 1.65 0 00-.72-.656c-.31-.149-.694-.224-1.152-.224-.406 0-.827.064-1.264.192-.438.128-.875.32-1.312.576l-.56-1.472c.33-.224.688-.411 1.072-.56a6.494 6.494 0 011.2-.336 6.46 6.46 0 011.264-.128c.768 0 1.418.139 1.952.416.544.277.954.672 1.232 1.184.288.501.432 1.088.432 1.76 0 .341-.032.667-.096.976a3.424 3.424 0 01-.384.976 7.666 7.666 0 01-.8 1.168c-.342.427-.8.923-1.376 1.488a65.805 65.805 0 01-2.096 1.952h5.68v1.44h-8.096l-.048-1.2zm9.94-6.928c0-.64.065-1.173.193-1.6.139-.427.33-.763.576-1.008.245-.256.539-.432.88-.528.341-.107.725-.16 1.152-.16.427 0 .81.053 1.152.16.341.107.63.288.864.544.245.245.432.581.56 1.008.139.416.208.944.208 1.584 0 .629-.07 1.157-.208 1.584-.128.416-.315.752-.56 1.008a2.268 2.268 0 01-.88.544c-.341.107-.72.16-1.136.16-.427 0-.81-.053-1.152-.16a2.27 2.27 0 01-.88-.544c-.245-.256-.437-.592-.576-1.008-.128-.427-.192-.955-.192-1.584zm1.313.016c0 .651.064 1.152.192 1.504.128.341.304.576.528.704.224.128.48.192.768.192.288 0 .539-.064.752-.192.224-.128.4-.363.528-.704.128-.352.192-.853.192-1.504 0-.683-.064-1.195-.192-1.536-.128-.352-.304-.587-.528-.704a1.434 1.434 0 00-.752-.192 1.52 1.52 0 00-.768.192c-.224.117-.4.352-.528.704s-.192.864-.192 1.536zm3.136 8.24l-1.12-.064 5.824-11.744 1.12.064-5.824 11.744zm3.536-3.28c0-.64.064-1.173.192-1.6.139-.427.33-.763.576-1.008.245-.256.539-.432.88-.528.341-.107.725-.16 1.152-.16.427 0 .81.053 1.152.16.341.107.63.288.864.544.245.245.432.581.56 1.008.139.416.208.944.208 1.584 0 .629-.07 1.157-.208 1.584-.128.416-.315.752-.56 1.008a2.268 2.268 0 01-.88.544c-.341.107-.72.16-1.136.16-.427 0-.81-.053-1.152-.16a2.27 2.27 0 01-.88-.544c-.245-.256-.437-.592-.576-1.008-.128-.427-.192-.955-.192-1.584zm1.312.016c0 .651.064 1.152.192 1.504.128.341.304.576.528.704.224.128.48.192.768.192.288 0 .539-.064.752-.192.224-.128.4-.363.528-.704.128-.352.192-.853.192-1.504 0-.683-.064-1.195-.192-1.536-.128-.352-.304-.587-.528-.704a1.434 1.434 0 00-.752-.192 1.52 1.52 0 00-.768.192c-.224.117-.4.352-.528.704s-.192.864-.192 1.536zm10.465-1.184c0-.747.064-1.397.192-1.952.139-.555.357-1.013.656-1.376.299-.373.699-.656 1.2-.848.501-.192 1.12-.288 1.856-.288s1.354.096 1.856.288c.501.192.901.475 1.2.848.298.363.512.821.64 1.376.139.555.208 1.205.208 1.952 0 .757-.075 1.419-.224 1.984-.139.565-.363 1.035-.672 1.408-.31.363-.715.635-1.216.816-.49.181-1.088.272-1.792.272s-1.307-.091-1.808-.272a2.826 2.826 0 01-1.2-.816c-.31-.373-.539-.843-.688-1.408-.139-.565-.208-1.227-.208-1.984zm1.776 0c0 .779.07 1.397.208 1.856.15.459.378.789.688.992.32.203.73.304 1.232.304.501 0 .906-.101 1.216-.304.31-.203.533-.533.672-.992.15-.459.224-1.077.224-1.856 0-.779-.064-1.392-.192-1.84-.128-.459-.352-.784-.672-.976-.31-.203-.726-.304-1.248-.304-.534 0-.955.101-1.264.304-.31.192-.534.517-.672.976-.128.448-.192 1.061-.192 1.84zm8.334 4.32v-6.64h-1.296v-1.152l1.296-.144v-.32c0-.864.117-1.568.352-2.112.234-.555.576-.965 1.024-1.232.459-.267 1.008-.4 1.648-.4.362 0 .715.027 1.056.08.352.053.72.149 1.104.288l-.24 1.248a4.367 4.367 0 00-.784-.176 4.443 4.443 0 00-.736-.064c-.566 0-.992.187-1.28.56-.288.363-.432.971-.432 1.824v.304h2.416v1.296h-2.416v6.64h-1.712zm13.258.16c-.544 0-.997-.101-1.36-.304a1.89 1.89 0 01-.816-.928c-.17-.427-.256-.96-.256-1.6v-4.656H74.9v-1.152l1.408-.144.224-1.968h1.504v1.968h2.656v1.296h-2.656v4.528c0 .523.101.901.304 1.136.203.235.528.352.976.352.224 0 .453-.021.688-.064.245-.053.496-.112.752-.176l.24 1.328c-.405.139-.8.235-1.184.288a6.546 6.546 0 01-1.072.096zm3.624-.16v-11.84h1.76v3.936c.32-.192.629-.352.928-.48.298-.128.602-.224.912-.288.32-.075.656-.112 1.008-.112.522 0 .965.096 1.328.288.362.181.634.453.816.816.192.352.288.789.288 1.312v6.368H87.66v-5.856c0-.48-.118-.837-.352-1.072-.235-.245-.587-.368-1.056-.368-.246 0-.491.027-.736.08a3.956 3.956 0 00-.688.224 6.57 6.57 0 00-.704.32v6.672h-1.76zm12.699.16c-.63 0-1.184-.08-1.664-.24a3.291 3.291 0 01-1.216-.768c-.33-.341-.581-.779-.752-1.312-.17-.544-.256-1.184-.256-1.92 0-.864.101-1.595.304-2.192.213-.608.501-1.093.864-1.456a3.23 3.23 0 011.296-.8 5.025 5.025 0 011.632-.256c1.152 0 2 .299 2.544.896.555.597.832 1.568.832 2.912 0 .075-.005.181-.016.32v.384l-.944.08a64.616 64.616 0 01-2.896.176 95.49 95.49 0 01-1.808.048.602.602 0 00-.016.144v.144c0 .587.09 1.061.272 1.424.181.352.448.613.8.784.352.16.795.24 1.328.24.32 0 .65-.016.992-.048.352-.043.693-.091 1.024-.144.33-.064.645-.133.944-.208l.224 1.296c-.32.096-.667.187-1.04.272a9.305 9.305 0 01-1.152.16 12.31 12.31 0 01-1.296.064zm-2.064-5.296c.448 0 .875-.005 1.28-.016.416-.021.8-.043 1.152-.064.352-.021.65-.037.896-.048l.576-.048c-.01-.533-.08-.96-.208-1.28-.128-.32-.32-.549-.576-.688-.256-.149-.581-.224-.976-.224-.245 0-.485.037-.72.112a1.624 1.624 0 00-.656.368c-.192.171-.357.411-.496.72-.139.299-.23.688-.272 1.168zm15.052 5.296c-.544 0-.997-.101-1.36-.304a1.886 1.886 0 01-.816-.928c-.171-.427-.256-.96-.256-1.6v-4.656h-1.408v-1.152l1.408-.144.224-1.968h1.504v1.968h2.656v1.296h-2.656v4.528c0 .523.101.901.304 1.136.203.235.528.352.976.352.224 0 .453-.021.688-.064.245-.053.496-.112.752-.176l.24 1.328c-.405.139-.8.235-1.184.288a6.543 6.543 0 01-1.072.096zm5.208-8.784v1.056c.309-.288.597-.517.864-.688a3.28 3.28 0 01.832-.4c.277-.085.57-.128.88-.128a4.517 4.517 0 011.2.176l-.288 1.584a3.64 3.64 0 00-.592-.112 2.936 2.936 0 00-1.616.16c-.352.139-.731.373-1.136.704v6.272h-1.712v-8.624h1.568zm4.115 6.464c0-.523.102-.949.304-1.28.214-.341.534-.608.96-.8.427-.203.96-.357 1.6-.464.64-.117 1.382-.208 2.224-.272v-.992c0-.437-.154-.768-.464-.992-.298-.224-.741-.336-1.328-.336a8.896 8.896 0 00-1.584.144 7.563 7.563 0 00-.912.224l-.288-1.392a8.871 8.871 0 011.456-.336 8.821 8.821 0 011.44-.128c.779 0 1.419.107 1.92.32.512.203.891.512 1.136.928.256.416.384.933.384 1.552v3.808c0 .32.048.539.144.656.096.107.219.16.368.16.054 0 .118-.005.192-.016a.888.888 0 00.224-.064l.16 1.28c-.17.096-.357.171-.56.224a2.163 2.163 0 01-.656.096c-.405 0-.73-.091-.976-.272-.234-.192-.394-.48-.48-.864a8.42 8.42 0 01-.864.576 4.078 4.078 0 01-.992.4c-.352.107-.741.16-1.168.16-.341 0-.65-.053-.928-.16a2.003 2.003 0 01-.704-.432 2.14 2.14 0 01-.448-.736 2.863 2.863 0 01-.16-.992zm1.76-.128c0 .416.102.725.304.928.203.203.475.304.816.304.256 0 .518-.037.784-.112a4.03 4.03 0 00.768-.336c.256-.149.475-.325.656-.528v-1.952c-.512.043-.97.096-1.376.16-.405.064-.757.16-1.056.288a1.598 1.598 0 00-.672.48c-.149.203-.224.459-.224.768zm7.931 2.288v-6.896h-1.296v-1.152l1.296-.128v-.176c0-.64.085-1.184.256-1.632.181-.459.432-.832.752-1.12a3.06 3.06 0 011.136-.64 4.95 4.95 0 011.472-.208c.395 0 .805.048 1.232.144a9.53 9.53 0 011.28.352c.299-.181.64-.315 1.024-.4a5.426 5.426 0 011.312-.144 8.569 8.569 0 011.856.208c.341.075.672.165.992.272l-.416 1.264a5.42 5.42 0 00-.592-.16 9.416 9.416 0 00-.592-.112 5.368 5.368 0 00-.576-.064 4.726 4.726 0 00-.544-.032c-.469 0-.869.075-1.2.224a1.601 1.601 0 00-.768.736c-.171.331-.256.789-.256 1.376v.112h4.672v8.176h-1.744v-6.896h-2.928v6.896h-1.712v-6.896h-2.944v6.896h-1.712zm1.712-8.128h2.944v-.224c0-.427.037-.811.112-1.152.085-.352.213-.645.384-.88a4.057 4.057 0 00-.752-.176 3.815 3.815 0 00-.688-.064c-.437 0-.805.08-1.104.24a1.426 1.426 0 00-.672.72c-.149.331-.224.768-.224 1.312v.224zm11.146 3.952c0-1.035.16-1.888.48-2.56.32-.683.789-1.195 1.408-1.536.629-.341 1.392-.512 2.288-.512.299 0 .603.016.912.048a8.5 8.5 0 01.928.112c.299.043.571.101.816.176l-.256 1.44a7.662 7.662 0 00-.736-.128 9.151 9.151 0 00-1.488-.128c-.555 0-1.024.112-1.408.336-.373.224-.661.56-.864 1.008-.192.448-.288 1.024-.288 1.728 0 .64.101 1.173.304 1.6a2.1 2.1 0 00.88.944c.384.203.848.304 1.392.304a9.911 9.911 0 001.552-.128c.277-.043.544-.091.8-.144l.256 1.392c-.405.107-.88.197-1.424.272-.533.075-1.051.112-1.552.112-1.323 0-2.32-.352-2.992-1.056-.672-.715-1.008-1.808-1.008-3.28zm14.044-5.92c-.373 0-.64-.069-.8-.208-.16-.139-.24-.373-.24-.704 0-.32.08-.549.24-.688.16-.149.427-.224.8-.224.374 0 .64.075.8.224.16.139.24.368.24.688 0 .331-.08.565-.24.704-.16.139-.426.208-.8.208zm-.864 10.096v-8.624h1.728v8.624h-1.728zm3.307-.336l.224-1.296c.181.064.389.128.624.192.234.053.474.101.72.144a9.151 9.151 0 001.504.128c.586 0 1.018-.096 1.296-.288.288-.192.432-.469.432-.832a.878.878 0 00-.144-.512 1.103 1.103 0 00-.416-.368 3.107 3.107 0 00-.704-.304 9.445 9.445 0 00-.976-.272 5.332 5.332 0 01-.992-.352 2.917 2.917 0 01-.752-.512 2.106 2.106 0 01-.464-.688 2.686 2.686 0 01-.144-.912c0-.821.277-1.456.832-1.904.565-.448 1.392-.672 2.48-.672.33 0 .645.021.944.064.298.032.581.08.848.144.277.053.528.123.752.208l-.24 1.312a12.8 12.8 0 00-.688-.176 6.667 6.667 0 00-.736-.128 7.424 7.424 0 00-.88-.048c-.544 0-.955.091-1.232.272-.267.181-.4.443-.4.784 0 .203.042.368.128.496.096.128.229.24.4.336.181.085.394.171.64.256.245.075.522.149.832.224a6.64 6.64 0 011.072.352c.33.128.608.288.832.48.234.192.416.432.544.72.128.277.192.624.192 1.04 0 .363-.059.693-.176.992a2.102 2.102 0 01-.496.736 2.413 2.413 0 01-.736.496 4.212 4.212 0 01-.96.288 6.263 6.263 0 01-1.12.096c-.374 0-.736-.021-1.088-.064a7.812 7.812 0 01-1.952-.432zm12.347-3.984c0-.747.064-1.397.192-1.952.139-.555.358-1.013.656-1.376.299-.373.699-.656 1.2-.848.502-.192 1.12-.288 1.856-.288s1.355.096 1.856.288c.502.192.902.475 1.2.848.299.363.512.821.64 1.376.139.555.208 1.205.208 1.952 0 .757-.074 1.419-.224 1.984-.138.565-.362 1.035-.672 1.408a2.81 2.81 0 01-1.216.816c-.49.181-1.088.272-1.792.272s-1.306-.091-1.808-.272a2.834 2.834 0 01-1.2-.816c-.309-.373-.538-.843-.688-1.408-.138-.565-.208-1.227-.208-1.984zm1.776 0c0 .779.07 1.397.208 1.856.15.459.379.789.688.992.32.203.731.304 1.232.304.502 0 .907-.101 1.216-.304.31-.203.534-.533.672-.992.15-.459.224-1.077.224-1.856 0-.779-.064-1.392-.192-1.84-.128-.459-.352-.784-.672-.976-.309-.203-.725-.304-1.248-.304-.533 0-.954.101-1.264.304-.309.192-.533.517-.672.976-.128.448-.192 1.061-.192 1.84zm9.387-4.304v1.056c.309-.288.597-.517.864-.688.277-.181.555-.315.832-.4.277-.085.571-.128.88-.128a4.481 4.481 0 011.2.176l-.288 1.584a3.62 3.62 0 00-.592-.112 2.944 2.944 0 00-1.616.16c-.352.139-.731.373-1.136.704v6.272h-1.712v-8.624h1.568zm7.795 12.144c-1.248 0-2.192-.192-2.832-.576-.63-.373-.944-.939-.944-1.696 0-.299.048-.571.144-.816a1.98 1.98 0 01.464-.656c.213-.203.474-.379.784-.528l1.056.352a2.647 2.647 0 00-.544.352 1.249 1.249 0 00-.32.4c-.075.16-.112.341-.112.544 0 .299.085.549.256.752.17.203.437.357.8.464.362.107.821.16 1.376.16.576 0 1.061-.059 1.456-.176.394-.117.698-.288.912-.512.213-.213.32-.469.32-.768 0-.224-.054-.405-.16-.544-.096-.139-.256-.24-.48-.304-.224-.075-.523-.112-.896-.112h-2.016c-.555 0-1.03-.069-1.424-.208-.384-.139-.678-.347-.88-.624-.203-.277-.304-.613-.304-1.008 0-.416.101-.768.304-1.056.213-.299.517-.555.912-.768l.976.336a1.906 1.906 0 00-.624.448.831.831 0 00-.224.592c0 .256.096.459.288.608.202.139.512.208.928.208h2.592c.874 0 1.53.197 1.968.592.448.384.672.933.672 1.648 0 .608-.176 1.125-.528 1.552-.342.437-.843.768-1.504.992-.662.235-1.467.352-2.416.352zm.16-6.624c-1.11 0-1.958-.235-2.544-.704-.576-.48-.864-1.189-.864-2.128 0-.939.288-1.648.864-2.128.586-.48 1.434-.72 2.544-.72 1.12 0 1.968.24 2.544.72.576.48.864 1.189.864 2.128 0 .939-.288 1.648-.864 2.128-.576.469-1.424.704-2.544.704zm0-1.168c.586 0 1.018-.128 1.296-.384.288-.256.432-.683.432-1.28s-.144-1.024-.432-1.28c-.278-.267-.71-.4-1.296-.4-.566 0-.992.133-1.28.4-.288.256-.432.683-.432 1.28s.144 1.024.432 1.28c.288.256.714.384 1.28.384zm2.688-2.912l-.704-.912c.149-.363.368-.629.656-.8.298-.181.656-.272 1.072-.272.128 0 .25.011.368.032.117.011.224.032.32.064l-.192 1.344a2.14 2.14 0 00-.528-.064 1.15 1.15 0 00-.576.144c-.171.096-.31.251-.416.464zm2.433 5.024c0-.523.101-.949.304-1.28.213-.341.533-.608.96-.8.427-.203.96-.357 1.6-.464.64-.117 1.381-.208 2.224-.272v-.992c0-.437-.155-.768-.464-.992-.299-.224-.741-.336-1.328-.336a8.854 8.854 0 00-1.584.144 7.472 7.472 0 00-.912.224l-.288-1.392a8.871 8.871 0 011.456-.336 8.821 8.821 0 011.44-.128c.779 0 1.419.107 1.92.32.512.203.891.512 1.136.928.256.416.384.933.384 1.552v3.808c0 .32.048.539.144.656.096.107.219.16.368.16.053 0 .117-.005.192-.016a.9.9 0 00.224-.064l.16 1.28a2.35 2.35 0 01-.56.224 2.167 2.167 0 01-.656.096c-.405 0-.731-.091-.976-.272-.235-.192-.395-.48-.48-.864a8.645 8.645 0 01-.864.576 4.095 4.095 0 01-.992.4c-.352.107-.741.16-1.168.16a2.56 2.56 0 01-.928-.16 1.994 1.994 0 01-.704-.432 2.14 2.14 0 01-.448-.736 2.84 2.84 0 01-.16-.992zm1.76-.128c0 .416.101.725.304.928.203.203.475.304.816.304.256 0 .517-.037.784-.112a4.03 4.03 0 00.768-.336c.256-.149.475-.325.656-.528v-1.952c-.512.043-.971.096-1.376.16-.405.064-.757.16-1.056.288a1.598 1.598 0 00-.672.48c-.149.203-.224.459-.224.768zm7.525 2.288v-8.624h1.568v.752a9.432 9.432 0 011.008-.48c.32-.139.645-.245.976-.32.33-.075.677-.112 1.04-.112.533 0 .976.096 1.328.288.362.192.634.464.816.816.192.352.288.784.288 1.296v6.384h-1.744v-5.856c0-.48-.118-.843-.352-1.088-.235-.245-.587-.368-1.056-.368a3.25 3.25 0 00-.72.08c-.235.053-.47.128-.704.224a5.876 5.876 0 00-.72.32v6.688h-1.728zm10.043-10.096c-.373 0-.64-.069-.8-.208-.16-.139-.24-.373-.24-.704 0-.32.08-.549.24-.688.16-.149.427-.224.8-.224.374 0 .64.075.8.224.16.139.24.368.24.688 0 .331-.08.565-.24.704-.16.139-.426.208-.8.208zm-.864 10.096v-8.624h1.728v8.624h-1.728zm3.499-4.176c0-1.035.16-1.888.48-2.56.32-.683.789-1.195 1.408-1.536.629-.341 1.392-.512 2.288-.512.298 0 .602.016.912.048a8.5 8.5 0 01.928.112c.298.043.57.101.816.176l-.256 1.44a7.662 7.662 0 00-.736-.128 9.151 9.151 0 00-1.488-.128c-.555 0-1.024.112-1.408.336-.374.224-.662.56-.864 1.008-.192.448-.288 1.024-.288 1.728 0 .64.101 1.173.304 1.6.202.416.496.731.88.944.384.203.848.304 1.392.304a9.965 9.965 0 001.552-.128c.277-.043.544-.091.8-.144l.256 1.392c-.406.107-.88.197-1.424.272-.534.075-1.051.112-1.552.112-1.323 0-2.32-.352-2.992-1.056-.672-.715-1.008-1.808-1.008-3.28zm12.684 2.016c0-.523.101-.949.304-1.28.213-.341.533-.608.96-.8.427-.203.96-.357 1.6-.464.64-.117 1.381-.208 2.224-.272v-.992c0-.437-.155-.768-.464-.992-.299-.224-.741-.336-1.328-.336a8.854 8.854 0 00-1.584.144 7.472 7.472 0 00-.912.224l-.288-1.392a8.871 8.871 0 011.456-.336 8.821 8.821 0 011.44-.128c.779 0 1.419.107 1.92.32.512.203.891.512 1.136.928.256.416.384.933.384 1.552v3.808c0 .32.048.539.144.656.096.107.219.16.368.16.053 0 .117-.005.192-.016a.9.9 0 00.224-.064l.16 1.28a2.35 2.35 0 01-.56.224 2.167 2.167 0 01-.656.096c-.405 0-.731-.091-.976-.272-.235-.192-.395-.48-.48-.864a8.645 8.645 0 01-.864.576 4.095 4.095 0 01-.992.4c-.352.107-.741.16-1.168.16a2.56 2.56 0 01-.928-.16 1.994 1.994 0 01-.704-.432 2.14 2.14 0 01-.448-.736 2.84 2.84 0 01-.16-.992zm1.76-.128c0 .416.101.725.304.928.203.203.475.304.816.304.256 0 .517-.037.784-.112a4.03 4.03 0 00.768-.336c.256-.149.475-.325.656-.528v-1.952c-.512.043-.971.096-1.376.16-.405.064-.757.16-1.056.288a1.598 1.598 0 00-.672.48c-.149.203-.224.459-.224.768zm7.525 2.288v-8.624h1.568v.752a9.432 9.432 0 011.008-.48c.32-.139.645-.245.976-.32.33-.075.677-.112 1.04-.112.533 0 .976.096 1.328.288.362.192.634.464.816.816.192.352.288.784.288 1.296v6.384h-1.744v-5.856c0-.48-.118-.843-.352-1.088-.235-.245-.587-.368-1.056-.368a3.25 3.25 0 00-.72.08c-.235.053-.47.128-.704.224a5.876 5.876 0 00-.72.32v6.688h-1.728zm14.635.016l-.208-.736a6.385 6.385 0 01-1.36.672 4.462 4.462 0 01-1.36.208c-.928 0-1.648-.368-2.16-1.104-.501-.736-.752-1.797-.752-3.184 0-1.067.139-1.941.416-2.624.288-.683.725-1.189 1.312-1.52.597-.341 1.339-.512 2.224-.512.256 0 .528.016.816.048.288.021.571.059.848.112v-3.216h1.744v11.856h-1.52zm-.224-2v-5.296a7.008 7.008 0 00-.832-.16 5.337 5.337 0 00-.688-.048c-.523 0-.955.107-1.296.32-.341.203-.592.539-.752 1.008-.16.469-.24 1.099-.24 1.888 0 .661.069 1.216.208 1.664.139.437.336.768.592.992.267.213.587.32.96.32.213 0 .427-.021.64-.064.224-.053.448-.128.672-.224a8.96 8.96 0 00.736-.4zm-235.157 23l-.208-.736c-.47.299-.923.523-1.36.672-.438.139-.89.208-1.36.208-.928 0-1.648-.368-2.16-1.104-.502-.736-.752-1.797-.752-3.184 0-1.067.138-1.941.416-2.624.288-.683.725-1.189 1.312-1.52.597-.341 1.338-.512 2.224-.512.256 0 .528.016.816.048.288.021.57.059.848.112v-3.216h1.744v11.856h-1.52zm-.224-2v-5.296a6.997 6.997 0 00-.832-.16 5.337 5.337 0 00-.688-.048c-.523 0-.955.107-1.296.32-.341.203-.592.539-.752 1.008-.16.469-.24 1.099-.24 1.888 0 .661.07 1.216.208 1.664.138.437.336.768.592.992.267.213.587.32.96.32.213 0 .426-.021.64-.064.224-.053.448-.128.672-.224.224-.107.47-.24.736-.4zm4.764-8.112c-.373 0-.64-.069-.8-.208-.16-.139-.24-.373-.24-.704 0-.32.08-.549.24-.688.16-.149.427-.224.8-.224.374 0 .64.075.8.224.16.139.24.368.24.688 0 .331-.08.565-.24.704-.16.139-.426.208-.8.208zm-.864 10.096v-8.624h1.728v8.624h-1.728zm5.45-8.624v1.056c.31-.288.598-.517.865-.688.277-.181.555-.315.832-.4.277-.085.57-.128.88-.128a4.481 4.481 0 011.2.176l-.288 1.584a3.626 3.626 0 00-.592-.112 2.941 2.941 0 00-1.616.16c-.352.139-.73.373-1.136.704v6.272H23.74v-8.624h1.568zm8.07 8.784c-.63 0-1.185-.08-1.665-.24a3.29 3.29 0 01-1.216-.768c-.33-.341-.581-.779-.752-1.312-.17-.544-.256-1.184-.256-1.92 0-.864.102-1.595.304-2.192.214-.608.502-1.093.864-1.456.374-.373.806-.64 1.296-.8a5.024 5.024 0 011.632-.256c1.152 0 2 .299 2.544.896.555.597.832 1.568.832 2.912 0 .075-.005.181-.016.32v.384l-.944.08a64.616 64.616 0 01-2.896.176c-.576.021-1.178.037-1.808.048a.597.597 0 00-.016.144v.144c0 .587.091 1.061.272 1.424.182.352.448.613.8.784.352.16.795.24 1.328.24.32 0 .651-.016.992-.048.352-.043.694-.091 1.024-.144.331-.064.646-.133.944-.208l.224 1.296c-.32.096-.666.187-1.04.272a9.31 9.31 0 01-1.152.16 12.31 12.31 0 01-1.296.064zm-2.065-5.296c.448 0 .875-.005 1.28-.016.416-.021.8-.043 1.152-.064.352-.021.651-.037.896-.048l.576-.048c-.01-.533-.08-.96-.208-1.28-.128-.32-.32-.549-.576-.688-.256-.149-.581-.224-.976-.224-.245 0-.485.037-.72.112a1.623 1.623 0 00-.656.368c-.192.171-.357.411-.496.72-.138.299-.229.688-.272 1.168zm7.012.96c0-1.035.16-1.888.48-2.56.32-.683.79-1.195 1.408-1.536.63-.341 1.392-.512 2.288-.512.299 0 .603.016.912.048.32.021.63.059.928.112.299.043.57.101.816.176l-.256 1.44a7.64 7.64 0 00-.736-.128 9.151 9.151 0 00-1.488-.128c-.555 0-1.024.112-1.408.336-.373.224-.661.56-.864 1.008-.192.448-.288 1.024-.288 1.728 0 .64.101 1.173.304 1.6.203.416.496.731.88.944.384.203.848.304 1.392.304a9.906 9.906 0 001.552-.128c.277-.043.544-.091.8-.144l.256 1.392c-.405.107-.88.197-1.424.272a11.14 11.14 0 01-1.552.112c-1.323 0-2.32-.352-2.992-1.056-.672-.715-1.008-1.808-1.008-3.28zm11.603 4.336c-.544 0-.997-.101-1.36-.304a1.89 1.89 0 01-.816-.928c-.17-.427-.256-.96-.256-1.6v-4.656h-1.408v-1.152l1.408-.144.224-1.968h1.504v1.968h2.656v1.296h-2.656v4.528c0 .523.101.901.304 1.136.203.235.528.352.976.352.224 0 .453-.021.688-.064.245-.053.496-.112.752-.176l.24 1.328c-.405.139-.8.235-1.184.288a6.546 6.546 0 01-1.072.096zm5.336-12v9.264c0 .341.038.603.112.784.075.171.176.288.304.352a.953.953 0 00.432.096 2.276 2.276 0 00.784-.144l.176 1.344c-.192.085-.41.155-.656.208a3.095 3.095 0 01-.784.096c-.448 0-.832-.075-1.152-.224-.309-.16-.544-.427-.704-.8-.16-.384-.24-.907-.24-1.568v-9.408h1.728zm4.32 15.168l1.072-3.328h-.336l-3.232-8.592 1.888-.08 2.384 7.184 2.144-7.184 1.792.064-3.952 12.016-1.76-.08zm11.325-7.504c0-1.035.16-1.888.48-2.56.32-.683.79-1.195 1.408-1.536.63-.341 1.392-.512 2.288-.512.299 0 .603.016.912.048.32.021.63.059.928.112.299.043.571.101.816.176l-.256 1.44a7.645 7.645 0 00-.736-.128 9.151 9.151 0 00-1.488-.128c-.554 0-1.024.112-1.408.336-.373.224-.661.56-.864 1.008-.192.448-.288 1.024-.288 1.728 0 .64.102 1.173.304 1.6.203.416.496.731.88.944.384.203.848.304 1.392.304a9.911 9.911 0 001.552-.128c.278-.043.544-.091.8-.144l.256 1.392c-.405.107-.88.197-1.424.272-.533.075-1.05.112-1.552.112-1.322 0-2.32-.352-2.992-1.056-.672-.715-1.008-1.808-1.008-3.28zm8.023-.144c0-.747.064-1.397.192-1.952.14-.555.358-1.013.656-1.376.3-.373.7-.656 1.2-.848.502-.192 1.12-.288 1.856-.288s1.355.096 1.856.288c.502.192.902.475 1.2.848.3.363.512.821.64 1.376.14.555.208 1.205.208 1.952 0 .757-.074 1.419-.224 1.984-.138.565-.362 1.035-.672 1.408-.309.363-.714.635-1.216.816-.49.181-1.088.272-1.792.272s-1.306-.091-1.808-.272a2.827 2.827 0 01-1.2-.816c-.309-.373-.538-.843-.688-1.408-.138-.565-.208-1.227-.208-1.984zm1.776 0c0 .779.07 1.397.208 1.856.15.459.38.789.688.992.32.203.731.304 1.232.304.502 0 .907-.101 1.216-.304.31-.203.534-.533.672-.992.15-.459.224-1.077.224-1.856 0-.779-.064-1.392-.192-1.84-.128-.459-.352-.784-.672-.976-.309-.203-.725-.304-1.248-.304-.533 0-.954.101-1.264.304-.309.192-.533.517-.672.976-.128.448-.192 1.061-.192 1.84zm7.82 4.32v-8.624h1.567v.752c.31-.192.613-.352.912-.48.299-.128.597-.224.896-.288.31-.075.63-.112.96-.112.33 0 .613.037.848.112.245.075.453.187.624.336.181.139.325.309.432.512.299-.192.603-.357.912-.496a5.06 5.06 0 01.976-.352 4.24 4.24 0 011.12-.144c.32 0 .603.043.848.128s.459.203.64.352c.181.149.325.325.432.528.117.192.203.411.256.656.053.235.08.48.08.736v6.384h-1.728v-5.856c0-.171-.021-.341-.064-.512a1.402 1.402 0 00-.208-.48.821.821 0 00-.384-.32c-.17-.085-.39-.128-.656-.128-.245 0-.485.032-.72.096a3.145 3.145 0 00-.656.224c-.203.096-.39.192-.56.288.043.128.07.251.08.368.01.117.016.235.016.352v5.968h-1.728v-5.84c0-.171-.021-.341-.064-.512a1.237 1.237 0 00-.208-.464 1.034 1.034 0 00-.4-.336c-.16-.085-.373-.128-.64-.128-.213 0-.427.027-.64.08a4.546 4.546 0 00-.608.208 4.135 4.135 0 00-.608.32v6.672h-1.728zm17.167.16c-.63 0-1.184-.08-1.664-.24a3.282 3.282 0 01-1.216-.768c-.331-.341-.582-.779-.752-1.312-.171-.544-.256-1.184-.256-1.92 0-.864.101-1.595.304-2.192.213-.608.501-1.093.864-1.456.373-.373.805-.64 1.296-.8a5.022 5.022 0 011.632-.256c1.152 0 2 .299 2.544.896.554.597.832 1.568.832 2.912 0 .075-.006.181-.016.32v.384l-.944.08a56.082 56.082 0 01-2.896.176c-.576.021-1.179.037-1.808.048a.582.582 0 00-.016.144v.144c0 .587.09 1.061.272 1.424.181.352.448.613.8.784.352.16.794.24 1.328.24.32 0 .65-.016.992-.048.352-.043.693-.091 1.024-.144.33-.064.645-.133.944-.208l.224 1.296a16 16 0 01-1.04.272 9.326 9.326 0 01-1.152.16 12.33 12.33 0 01-1.296.064zm-2.064-5.296c.448 0 .874-.005 1.28-.016.416-.021.8-.043 1.152-.064.352-.021.65-.037.896-.048l.576-.048c-.011-.533-.08-.96-.208-1.28-.128-.32-.32-.549-.576-.688-.256-.149-.582-.224-.976-.224-.246 0-.486.037-.72.112a1.617 1.617 0 00-.656.368c-.192.171-.358.411-.496.72-.139.299-.23.688-.272 1.168zm6.866 4.8l.224-1.296c.182.064.39.128.624.192.235.053.475.101.72.144a9.151 9.151 0 001.504.128c.587 0 1.019-.096 1.296-.288.288-.192.432-.469.432-.832a.878.878 0 00-.144-.512 1.095 1.095 0 00-.416-.368 3.087 3.087 0 00-.704-.304 9.305 9.305 0 00-.976-.272 5.358 5.358 0 01-.992-.352 2.934 2.934 0 01-.752-.512 2.138 2.138 0 01-.464-.688 2.686 2.686 0 01-.144-.912c0-.821.278-1.456.832-1.904.566-.448 1.392-.672 2.48-.672.331 0 .646.021.944.064.299.032.582.08.848.144.278.053.528.123.752.208l-.24 1.312a12.563 12.563 0 00-.688-.176 6.626 6.626 0 00-.736-.128 7.412 7.412 0 00-.88-.048c-.544 0-.954.091-1.232.272-.266.181-.4.443-.4.784a.88.88 0 00.128.496c.096.128.23.24.4.336.182.085.395.171.64.256.246.075.523.149.832.224.395.096.752.213 1.072.352.331.128.608.288.832.48.235.192.416.432.544.72.128.277.192.624.192 1.04 0 .363-.058.693-.176.992a2.076 2.076 0 01-.496.736 2.4 2.4 0 01-.736.496 4.212 4.212 0 01-.96.288 6.255 6.255 0 01-1.12.096c-.373 0-.736-.021-1.088-.064a7.838 7.838 0 01-1.952-.432zm15.756.496c-.544 0-.997-.101-1.36-.304a1.886 1.886 0 01-.816-.928c-.171-.427-.256-.96-.256-1.6v-4.656h-1.408v-1.152l1.408-.144.224-1.968h1.504v1.968h2.656v1.296h-2.656v4.528c0 .523.101.901.304 1.136.203.235.528.352.976.352.224 0 .453-.021.688-.064.245-.053.496-.112.752-.176l.24 1.328c-.405.139-.8.235-1.184.288a6.543 6.543 0 01-1.072.096zm3.624-.16v-11.84h1.76v3.936c.32-.192.629-.352.928-.48.298-.128.602-.224.912-.288.32-.075.656-.112 1.008-.112.522 0 .965.096 1.328.288.362.181.634.453.816.816.192.352.288.789.288 1.312v6.368h-1.744v-5.856c0-.48-.118-.837-.352-1.072-.235-.245-.587-.368-1.056-.368a3.47 3.47 0 00-.736.08 3.948 3.948 0 00-.688.224 6.542 6.542 0 00-.704.32v6.672h-1.76zm10.763-8.624v1.056c.309-.288.597-.517.864-.688.277-.181.555-.315.832-.4.277-.085.571-.128.88-.128a4.481 4.481 0 011.2.176l-.288 1.584a3.62 3.62 0 00-.592-.112 2.944 2.944 0 00-1.616.16c-.352.139-.731.373-1.136.704v6.272h-1.712v-8.624h1.568zm4.181 4.304c0-.747.064-1.397.192-1.952.138-.555.357-1.013.656-1.376.298-.373.698-.656 1.2-.848.501-.192 1.12-.288 1.856-.288s1.354.096 1.856.288c.501.192.901.475 1.2.848.298.363.512.821.64 1.376.138.555.208 1.205.208 1.952 0 .757-.075 1.419-.224 1.984-.139.565-.363 1.035-.672 1.408-.31.363-.715.635-1.216.816-.491.181-1.088.272-1.792.272s-1.307-.091-1.808-.272a2.822 2.822 0 01-1.2-.816c-.31-.373-.539-.843-.688-1.408-.139-.565-.208-1.227-.208-1.984zm1.776 0c0 .779.069 1.397.208 1.856.149.459.378.789.688.992.32.203.73.304 1.232.304.501 0 .906-.101 1.216-.304.309-.203.533-.533.672-.992.149-.459.224-1.077.224-1.856 0-.779-.064-1.392-.192-1.84-.128-.459-.352-.784-.672-.976-.31-.203-.726-.304-1.248-.304-.534 0-.955.101-1.264.304-.31.192-.534.517-.672.976-.128.448-.192 1.061-.192 1.84zm10.203 4.48c-.491 0-.918-.085-1.28-.256a1.947 1.947 0 01-.848-.816c-.192-.363-.288-.816-.288-1.36v-6.352h1.728v5.984c0 .427.117.757.352.992.234.235.576.352 1.024.352.234 0 .464-.027.688-.08.224-.053.442-.123.656-.208.224-.096.453-.208.688-.336v-6.704h1.728v6.496c0 .203.021.363.064.48a.56.56 0 00.208.256.595.595 0 00.272.064c.138 0 .272-.027.4-.08l.176 1.248c-.107.064-.23.117-.368.16a1.989 1.989 0 01-.432.112c-.15.032-.304.048-.464.048-.331 0-.614-.075-.848-.224a1.439 1.439 0 01-.528-.688c-.31.181-.624.341-.944.48a5.2 5.2 0 01-.944.32c-.32.075-.667.112-1.04.112zm10.056 3.36c-1.248 0-2.192-.192-2.832-.576-.629-.373-.944-.939-.944-1.696 0-.299.048-.571.144-.816.107-.245.261-.464.464-.656a3.04 3.04 0 01.784-.528l1.056.352a2.674 2.674 0 00-.544.352 1.263 1.263 0 00-.32.4c-.075.16-.112.341-.112.544 0 .299.085.549.256.752.171.203.437.357.8.464.363.107.821.16 1.376.16.576 0 1.061-.059 1.456-.176.395-.117.699-.288.912-.512.213-.213.32-.469.32-.768 0-.224-.053-.405-.16-.544-.096-.139-.256-.24-.48-.304-.224-.075-.523-.112-.896-.112h-2.016c-.555 0-1.029-.069-1.424-.208-.384-.139-.677-.347-.88-.624-.203-.277-.304-.613-.304-1.008 0-.416.101-.768.304-1.056.213-.299.517-.555.912-.768l.976.336a1.906 1.906 0 00-.624.448.836.836 0 00-.224.592c0 .256.096.459.288.608.203.139.512.208.928.208h2.592c.875 0 1.531.197 1.968.592.448.384.672.933.672 1.648 0 .608-.176 1.125-.528 1.552-.341.437-.843.768-1.504.992-.661.235-1.467.352-2.416.352zm.16-6.624c-1.109 0-1.957-.235-2.544-.704-.576-.48-.864-1.189-.864-2.128 0-.939.288-1.648.864-2.128.587-.48 1.435-.72 2.544-.72 1.12 0 1.968.24 2.544.72.576.48.864 1.189.864 2.128 0 .939-.288 1.648-.864 2.128-.576.469-1.424.704-2.544.704zm0-1.168c.587 0 1.019-.128 1.296-.384.288-.256.432-.683.432-1.28s-.144-1.024-.432-1.28c-.277-.267-.709-.4-1.296-.4-.565 0-.992.133-1.28.4-.288.256-.432.683-.432 1.28s.144 1.024.432 1.28c.288.256.715.384 1.28.384zm2.688-2.912l-.704-.912c.149-.363.368-.629.656-.8.299-.181.656-.272 1.072-.272.128 0 .251.011.368.032.117.011.224.032.32.064l-.192 1.344a2.129 2.129 0 00-.528-.064c-.213 0-.405.048-.576.144a1.05 1.05 0 00-.416.464zm3.116 7.184v-11.84h1.76v3.936c.32-.192.63-.352.928-.48.299-.128.603-.224.912-.288.32-.075.656-.112 1.008-.112.523 0 .966.096 1.328.288.363.181.635.453.816.816.192.352.288.789.288 1.312v6.368h-1.744v-5.856c0-.48-.117-.837-.352-1.072-.234-.245-.586-.368-1.056-.368-.245 0-.49.027-.736.08a3.976 3.976 0 00-.688.224 6.632 6.632 0 00-.704.32v6.672h-1.76zm13.925 0v-11.2h1.776v11.2h-1.776zm4.036 0v-8.624h1.568v.752a9.432 9.432 0 011.008-.48c.32-.139.645-.245.976-.32.33-.075.677-.112 1.04-.112.533 0 .976.096 1.328.288.362.192.634.464.816.816.192.352.288.784.288 1.296v6.384h-1.744v-5.856c0-.48-.118-.843-.352-1.088-.235-.245-.587-.368-1.056-.368a3.25 3.25 0 00-.72.08c-.235.053-.47.128-.704.224a5.876 5.876 0 00-.72.32v6.688h-1.728zm8.603-.336l.224-1.296c.182.064.39.128.624.192.235.053.475.101.72.144a9.151 9.151 0 001.504.128c.587 0 1.019-.096 1.296-.288.288-.192.432-.469.432-.832a.878.878 0 00-.144-.512 1.095 1.095 0 00-.416-.368 3.087 3.087 0 00-.704-.304 9.305 9.305 0 00-.976-.272 5.358 5.358 0 01-.992-.352 2.934 2.934 0 01-.752-.512 2.138 2.138 0 01-.464-.688 2.686 2.686 0 01-.144-.912c0-.821.278-1.456.832-1.904.566-.448 1.392-.672 2.48-.672.331 0 .646.021.944.064.299.032.582.08.848.144.278.053.528.123.752.208l-.24 1.312a12.563 12.563 0 00-.688-.176 6.626 6.626 0 00-.736-.128 7.412 7.412 0 00-.88-.048c-.544 0-.954.091-1.232.272-.266.181-.4.443-.4.784a.88.88 0 00.128.496c.096.128.23.24.4.336.182.085.395.171.64.256.246.075.523.149.832.224.395.096.752.213 1.072.352.331.128.608.288.832.48.235.192.416.432.544.72.128.277.192.624.192 1.04 0 .363-.058.693-.176.992a2.076 2.076 0 01-.496.736 2.4 2.4 0 01-.736.496 4.212 4.212 0 01-.96.288 6.255 6.255 0 01-1.12.096c-.373 0-.736-.021-1.088-.064a7.838 7.838 0 01-1.952-.432zm11.014.496c-.544 0-.997-.101-1.36-.304a1.886 1.886 0 01-.816-.928c-.171-.427-.256-.96-.256-1.6v-4.656h-1.408v-1.152l1.408-.144.224-1.968h1.504v1.968h2.656v1.296h-2.656v4.528c0 .523.101.901.304 1.136.203.235.528.352.976.352.224 0 .453-.021.688-.064.245-.053.496-.112.752-.176l.24 1.328c-.405.139-.8.235-1.184.288a6.543 6.543 0 01-1.072.096zm3.05-2.32c0-.523.101-.949.304-1.28.213-.341.533-.608.96-.8.427-.203.96-.357 1.6-.464.64-.117 1.381-.208 2.224-.272v-.992c0-.437-.155-.768-.464-.992-.299-.224-.741-.336-1.328-.336a8.854 8.854 0 00-1.584.144 7.472 7.472 0 00-.912.224l-.288-1.392a8.871 8.871 0 011.456-.336 8.821 8.821 0 011.44-.128c.779 0 1.419.107 1.92.32.512.203.891.512 1.136.928.256.416.384.933.384 1.552v3.808c0 .32.048.539.144.656.096.107.219.16.368.16.053 0 .117-.005.192-.016a.9.9 0 00.224-.064l.16 1.28a2.35 2.35 0 01-.56.224 2.167 2.167 0 01-.656.096c-.405 0-.731-.091-.976-.272-.235-.192-.395-.48-.48-.864a8.645 8.645 0 01-.864.576 4.095 4.095 0 01-.992.4c-.352.107-.741.16-1.168.16a2.56 2.56 0 01-.928-.16 1.994 1.994 0 01-.704-.432 2.14 2.14 0 01-.448-.736 2.84 2.84 0 01-.16-.992zm1.76-.128c0 .416.101.725.304.928.203.203.475.304.816.304.256 0 .517-.037.784-.112a4.03 4.03 0 00.768-.336c.256-.149.475-.325.656-.528v-1.952c-.512.043-.971.096-1.376.16-.405.064-.757.16-1.056.288a1.598 1.598 0 00-.672.48c-.149.203-.224.459-.224.768zm10.63 5.808c-1.248 0-2.192-.192-2.832-.576-.63-.373-.944-.939-.944-1.696 0-.299.048-.571.144-.816a1.98 1.98 0 01.464-.656c.213-.203.474-.379.784-.528l1.056.352a2.647 2.647 0 00-.544.352 1.249 1.249 0 00-.32.4c-.075.16-.112.341-.112.544 0 .299.085.549.256.752.17.203.437.357.8.464.362.107.821.16 1.376.16.576 0 1.061-.059 1.456-.176.394-.117.698-.288.912-.512.213-.213.32-.469.32-.768 0-.224-.054-.405-.16-.544-.096-.139-.256-.24-.48-.304-.224-.075-.523-.112-.896-.112h-2.016c-.555 0-1.03-.069-1.424-.208-.384-.139-.678-.347-.88-.624-.203-.277-.304-.613-.304-1.008 0-.416.101-.768.304-1.056.213-.299.517-.555.912-.768l.976.336a1.906 1.906 0 00-.624.448.831.831 0 00-.224.592c0 .256.096.459.288.608.202.139.512.208.928.208h2.592c.874 0 1.53.197 1.968.592.448.384.672.933.672 1.648 0 .608-.176 1.125-.528 1.552-.342.437-.843.768-1.504.992-.662.235-1.467.352-2.416.352zm.16-6.624c-1.11 0-1.958-.235-2.544-.704-.576-.48-.864-1.189-.864-2.128 0-.939.288-1.648.864-2.128.586-.48 1.434-.72 2.544-.72 1.12 0 1.968.24 2.544.72.576.48.864 1.189.864 2.128 0 .939-.288 1.648-.864 2.128-.576.469-1.424.704-2.544.704zm0-1.168c.586 0 1.018-.128 1.296-.384.288-.256.432-.683.432-1.28s-.144-1.024-.432-1.28c-.278-.267-.71-.4-1.296-.4-.566 0-.992.133-1.28.4-.288.256-.432.683-.432 1.28s.144 1.024.432 1.28c.288.256.714.384 1.28.384zm2.688-2.912l-.704-.912c.149-.363.368-.629.656-.8.298-.181.656-.272 1.072-.272.128 0 .25.011.368.032.117.011.224.032.32.064l-.192 1.344a2.14 2.14 0 00-.528-.064 1.15 1.15 0 00-.576.144c-.171.096-.31.251-.416.464zm4.7-1.44v1.056a6.32 6.32 0 01.864-.688c.278-.181.555-.315.832-.4.278-.085.571-.128.88-.128a4.447 4.447 0 011.2.176l-.288 1.584a3.62 3.62 0 00-.592-.112 2.944 2.944 0 00-1.616.16c-.352.139-.73.373-1.136.704v6.272h-1.712v-8.624h1.568zm4.116 6.464c0-.523.101-.949.304-1.28.213-.341.533-.608.96-.8.426-.203.96-.357 1.6-.464.64-.117 1.381-.208 2.224-.272v-.992c0-.437-.155-.768-.464-.992-.299-.224-.742-.336-1.328-.336a8.812 8.812 0 00-1.584.144 7.472 7.472 0 00-.912.224l-.288-1.392a8.847 8.847 0 011.456-.336 8.821 8.821 0 011.44-.128c.778 0 1.418.107 1.92.32.512.203.89.512 1.136.928.256.416.384.933.384 1.552v3.808c0 .32.048.539.144.656a.47.47 0 00.368.16c.053 0 .117-.005.192-.016a.912.912 0 00.224-.064l.16 1.28a2.366 2.366 0 01-.56.224 2.172 2.172 0 01-.656.096c-.406 0-.731-.091-.976-.272-.235-.192-.395-.48-.48-.864a8.645 8.645 0 01-.864.576c-.299.171-.63.304-.992.4-.352.107-.742.16-1.168.16-.342 0-.651-.053-.928-.16a1.985 1.985 0 01-.704-.432 2.124 2.124 0 01-.448-.736 2.84 2.84 0 01-.16-.992zm1.76-.128c0 .416.101.725.304.928.202.203.474.304.816.304.256 0 .517-.037.784-.112.266-.085.522-.197.768-.336.256-.149.474-.325.656-.528v-1.952c-.512.043-.971.096-1.376.16a4.43 4.43 0 00-1.056.288 1.598 1.598 0 00-.672.48c-.15.203-.224.459-.224.768zm7.524 2.288v-8.624h1.568v.752a6.94 6.94 0 01.912-.48 4.88 4.88 0 01.896-.288c.31-.075.63-.112.96-.112.331 0 .614.037.848.112.246.075.454.187.624.336.182.139.326.309.432.512.299-.192.603-.357.912-.496.31-.149.635-.267.976-.352a4.244 4.244 0 011.12-.144c.32 0 .603.043.848.128.246.085.459.203.64.352.182.149.326.325.432.528.118.192.203.411.256.656.054.235.08.48.08.736v6.384h-1.728v-5.856c0-.171-.021-.341-.064-.512a1.389 1.389 0 00-.208-.48.818.818 0 00-.384-.32c-.17-.085-.389-.128-.656-.128-.245 0-.485.032-.72.096a3.167 3.167 0 00-.656.224 9.316 9.316 0 00-.56.288c.043.128.07.251.08.368.011.117.016.235.016.352v5.968h-1.728v-5.84c0-.171-.021-.341-.064-.512a1.226 1.226 0 00-.208-.464 1.031 1.031 0 00-.4-.336c-.16-.085-.373-.128-.64-.128-.213 0-.426.027-.64.08a4.6 4.6 0 00-.608.208 4.191 4.191 0 00-.608.32v6.672h-1.728z" fill="#0D5D74"/><path opacity=".2" d="M0 134.5a134.5 134.5 0 11269 0h-40.35a94.14 94.14 0 00-27.576-66.574A94.162 94.162 0 00134.5 40.35a94.15 94.15 0 00-94.15 94.15H0z" fill="#000"/><path d="M0 134.5A134.498 134.498 0 01142.228.222l-2.318 40.283A94.151 94.151 0 0040.35 134.5H0z" fill="url(#paint0_linear_257_2413)"/><defs><linearGradient id="paint0_linear_257_2413" x1="-36.906" y1="307.108" x2="355.37" y2="262.625" gradientUnits="userSpaceOnUse"><stop stop-color="#1F8088"/><stop offset="1" stop-color="#00FFF0"/></linearGradient></defs></svg>