<svg width="232" height="233" fill="none" xmlns="http://www.w3.org/2000/svg"><circle opacity=".1" cx="116" cy="116.489" r="115.5" stroke="#fff"/><circle cx="116" cy="116.489" r="100" fill="url(#paint0_radial_211_9945)"/><path d="M106.949 116.53a22.627 22.627 0 0016.503 9.026 22.611 22.611 0 0017.619-6.58l13.577-13.59a22.66 22.66 0 006.351-15.932 22.657 22.657 0 00-6.627-15.82 22.614 22.614 0 00-31.72-.276l-7.784 7.747" stroke="#fff" stroke-width="9" stroke-linecap="round" stroke-linejoin="round"/><path d="M125.051 107.47a22.627 22.627 0 00-16.503-9.025 22.607 22.607 0 00-17.62 6.579l-13.576 13.59a22.663 22.663 0 00.276 31.752 22.616 22.616 0 0031.72.276l7.738-7.747" stroke="#fff" stroke-width="9" stroke-linecap="round" stroke-linejoin="round"/><defs><radialGradient id="paint0_radial_211_9945" cx="0" cy="0" r="1" gradientUnits="userSpaceOnUse" gradientTransform="matrix(0 100 -100 0 116 116.489)"><stop stop-color="#0E5971"/><stop offset="1" stop-color="#1ABDCA"/><stop offset="1" stop-color="#47ADB4"/></radialGradient></defs></svg>