<svg width="232" height="233" viewBox="0 0 232 233" fill="none" xmlns="http://www.w3.org/2000/svg">
<circle opacity="0.1" cx="116" cy="116.489" r="115.5" stroke="white"/>
<circle cx="116" cy="116.489" r="100" fill="url(#paint0_radial_211_9945)"/>
<path d="M106.949 116.53C108.892 119.131 111.372 121.283 114.219 122.84C117.067 124.397 120.215 125.323 123.452 125.556C126.688 125.788 129.937 125.32 132.977 124.185C136.017 123.05 138.777 121.273 141.071 118.976L154.648 105.386C158.77 101.114 161.051 95.3925 160.999 89.4537C160.948 83.5148 158.568 77.8338 154.372 73.6342C150.177 69.4346 144.502 67.0525 138.569 67.0009C132.636 66.9492 126.92 69.2323 122.652 73.3583L114.868 81.1047" stroke="white" stroke-width="9" stroke-linecap="round" stroke-linejoin="round"/>
<path d="M125.051 107.47C123.108 104.869 120.628 102.717 117.781 101.16C114.933 99.6026 111.785 98.6765 108.548 98.4445C105.312 98.2125 102.063 98.6799 99.0232 99.8151C95.9831 100.95 93.2225 102.727 90.9285 105.024L77.3519 118.614C73.2301 122.886 70.9493 128.607 71.0009 134.546C71.0524 140.485 73.4321 146.166 77.6275 150.366C81.8229 154.565 87.4982 156.948 93.4311 156.999C99.3641 157.051 105.08 154.768 109.348 150.642L117.086 142.895" stroke="white" stroke-width="9" stroke-linecap="round" stroke-linejoin="round"/>
<defs>
<radialGradient id="paint0_radial_211_9945" cx="0" cy="0" r="1" gradientUnits="userSpaceOnUse" gradientTransform="translate(116 116.489) rotate(90) scale(100)">
<stop stop-color="#0E5971"/>
<stop offset="0.9999" stop-color="#1ABDCA"/>
<stop offset="1" stop-color="#47ADB4"/>
</radialGradient>
</defs>
</svg>
