<svg width="53" height="52" viewBox="0 0 53 52" fill="none" xmlns="http://www.w3.org/2000/svg">
<path d="M24.1026 6.50148C20.0965 5.61417 15.9122 6.02145 12.1524 7.66464C8.39265 9.30783 5.25158 12.1021 3.18175 15.6449C3.08521 15.8102 3.04612 16.0028 3.07058 16.1926C3.09504 16.3825 3.18166 16.5589 3.31694 16.6943L8.94992 22.3271C12.9424 16.1316 18.0863 10.7593 24.1026 6.50148Z" fill="white"/>
<path d="M45.5009 27.8955C46.3882 31.9016 45.9809 36.0859 44.3377 39.8457C42.6944 43.6055 39.9001 46.7465 36.3572 48.8164C36.1919 48.9129 35.9993 48.952 35.8095 48.9275C35.6196 48.9031 35.4432 48.8165 35.3078 48.6812L29.6748 43.0482C35.8705 39.0557 41.2429 33.9119 45.5009 27.8955Z" fill="white"/>
<path d="M12.0922 39.9081C10.9535 38.7722 9.41078 38.1343 7.80242 38.1343C6.19407 38.1343 4.65137 38.7722 3.5127 39.9081C0.719607 42.7004 0.0332504 50.7201 0.00291894 51.0599C-0.00692505 51.1795 0.00819294 51.2999 0.0473146 51.4134C0.0864363 51.5269 0.148708 51.631 0.230183 51.7191C0.311659 51.8073 0.41056 51.8776 0.520618 51.9255C0.630676 51.9734 0.749491 51.998 0.869531 51.9976C0.892929 51.9976 0.917194 51.9976 0.940593 51.9976C1.2803 51.9698 9.29993 51.2835 12.0922 48.4903C13.2288 47.3515 13.8672 45.8082 13.8672 44.1992C13.8672 42.5902 13.2288 41.0469 12.0922 39.9081Z" fill="white"/>
<path d="M47.6815 18.7198C50.2186 13.1068 51.6832 7.06866 51.9999 0.917017C52.0068 0.795532 51.9881 0.673944 51.945 0.560167C51.9018 0.446391 51.8352 0.342978 51.7494 0.256659C51.6631 0.170287 51.5597 0.102922 51.4458 0.0588939C51.332 0.0148659 51.2101 -0.00485143 51.0882 0.00100897C44.9189 0.287972 38.8589 1.73505 33.2256 4.26647L47.6815 18.7198Z" fill="white"/>
<path d="M31.5714 5.06445C14.4732 13.6222 7.71014 29.8945 7.62348 30.1094C7.56018 30.267 7.54458 30.4398 7.57863 30.6061C7.61268 30.7725 7.69488 30.9253 7.815 31.0453L20.9546 44.1857C21.0753 44.3066 21.229 44.3891 21.3965 44.4228C21.5639 44.4566 21.7376 44.4401 21.8957 44.3755C22.1098 44.2888 38.3033 37.447 46.881 20.3705L31.5714 5.06445ZM28.6007 28.5998C27.5723 28.5998 26.567 28.2948 25.7119 27.7235C24.8568 27.1521 24.1904 26.3401 23.7968 25.3899C23.4033 24.4398 23.3003 23.3944 23.5009 22.3857C23.7015 21.3771 24.1968 20.4506 24.924 19.7234C25.6511 18.9962 26.5776 18.501 27.5863 18.3004C28.5949 18.0998 29.6404 18.2027 30.5905 18.5963C31.5406 18.9898 32.3527 19.6563 32.924 20.5114C33.4954 21.3664 33.8003 22.3717 33.8003 23.4001C33.8003 24.7792 33.2525 26.1017 32.2774 27.0768C31.3023 28.052 29.9797 28.5998 28.6007 28.5998Z" fill="white"/>
</svg>
