<svg width="441" height="462" viewBox="0 0 441 462" fill="none" xmlns="http://www.w3.org/2000/svg">
<g filter="url(#filter0_d_19_14710)">
<rect x="85" y="46.2996" width="250" height="324.097" rx="12" fill="#0C9FB3"/>
</g>
<path d="M119.847 321.006V101.373H288.285" stroke="white" stroke-width="2" stroke-dasharray="8.52 8.52"/>
<ellipse cx="119.535" cy="101.373" rx="5.3125" ry="4.91933" fill="white"/>
<ellipse cx="119.535" cy="309.142" rx="5.3125" ry="4.91933" fill="white"/>
<ellipse cx="119.582" cy="260.632" rx="3.11021" ry="2.88003" fill="white"/>
<ellipse cx="119.582" cy="213.764" rx="3.11021" ry="2.88003" fill="white"/>
<ellipse cx="119.582" cy="166.895" rx="3.11021" ry="2.88003" fill="white"/>
<ellipse cx="119.582" cy="125.461" rx="3.11021" ry="2.88003" fill="white"/>
<rect x="97.3511" y="69.963" width="225.93" height="93.7367" rx="8" fill="white" fill-opacity="0.21"/>
<rect x="97.3511" y="173.209" width="225.93" height="39.3966" rx="8" fill="white" fill-opacity="0.21"/>
<rect x="97.3511" y="224.832" width="225.93" height="39.3966" rx="8" fill="white" fill-opacity="0.21"/>
<rect x="97.3511" y="276.455" width="225.93" height="39.3966" rx="8" fill="white" fill-opacity="0.21"/>
<g filter="url(#filter1_d_19_14710)">
<rect x="35" y="277.814" width="128.37" height="120.228" rx="12" fill="#09566E"/>
</g>
<path d="M66.25 277.218V57.585H234.688" stroke="white" stroke-width="2" stroke-dasharray="8.52 8.52"/>
<ellipse cx="65.9375" cy="57.5849" rx="5.3125" ry="4.91933" fill="white"/>
<ellipse cx="65.9375" cy="265.354" rx="5.3125" ry="4.91933" fill="white"/>
<ellipse cx="65.9847" cy="216.844" rx="3.11021" ry="2.88003" fill="white"/>
<ellipse cx="65.9847" cy="169.976" rx="3.11021" ry="2.88003" fill="white"/>
<ellipse cx="65.9847" cy="123.107" rx="3.11021" ry="2.88003" fill="white"/>
<ellipse cx="65.9847" cy="81.6732" rx="3.11021" ry="2.88003" fill="white"/>
<rect x="47.4702" y="290.72" width="38.2489" height="37.2906" rx="3" fill="white" fill-opacity="0.26"/>
<rect x="90.0156" y="290.72" width="38.2489" height="37.2906" rx="3" fill="white" fill-opacity="0.12"/>
<rect x="47.4702" y="336.694" width="102.696" height="4.59748" fill="white"/>
<rect x="47.4702" y="347.932" width="102.696" height="4.59748" fill="white" fill-opacity="0.78"/>
<rect x="47.4702" y="359.171" width="102.696" height="4.59748" fill="white" fill-opacity="0.6"/>
<rect x="47.4702" y="370.409" width="78.0696" height="4.59748" fill="white" fill-opacity="0.44"/>
<rect x="291" width="150" height="185.198" rx="12" fill="#D8E9F3"/>
<rect x="299.326" y="9.5094" width="132.771" height="110.718" rx="6" fill="white"/>
<rect x="299.326" y="127.699" width="133.504" height="8.15102" fill="white"/>
<rect x="299.326" y="141.963" width="133.504" height="8.15102" fill="white" fill-opacity="0.69"/>
<rect x="299.326" y="156.228" width="88.7584" height="8.15102" fill="white" fill-opacity="0.41"/>
<defs>
<filter id="filter0_d_19_14710" x="42.3984" y="37.7793" width="335.203" height="409.3" filterUnits="userSpaceOnUse" color-interpolation-filters="sRGB">
<feFlood flood-opacity="0" result="BackgroundImageFix"/>
<feColorMatrix in="SourceAlpha" type="matrix" values="0 0 0 0 0 0 0 0 0 0 0 0 0 0 0 0 0 0 127 0" result="hardAlpha"/>
<feOffset dy="34.0813"/>
<feGaussianBlur stdDeviation="21.3008"/>
<feColorMatrix type="matrix" values="0 0 0 0 0.133819 0 0 0 0 0.173145 0 0 0 0 0.257847 0 0 0 1 0"/>
<feBlend mode="normal" in2="BackgroundImageFix" result="effect1_dropShadow_19_14710"/>
<feBlend mode="normal" in="SourceGraphic" in2="effect1_dropShadow_19_14710" result="shape"/>
</filter>
<filter id="filter1_d_19_14710" x="0.918701" y="273.554" width="196.532" height="188.39" filterUnits="userSpaceOnUse" color-interpolation-filters="sRGB">
<feFlood flood-opacity="0" result="BackgroundImageFix"/>
<feColorMatrix in="SourceAlpha" type="matrix" values="0 0 0 0 0 0 0 0 0 0 0 0 0 0 0 0 0 0 127 0" result="hardAlpha"/>
<feOffset dy="29.8211"/>
<feGaussianBlur stdDeviation="17.0406"/>
<feColorMatrix type="matrix" values="0 0 0 0 0.158889 0 0 0 0 0.219245 0 0 0 0 0.374444 0 0 0 0.11 0"/>
<feBlend mode="normal" in2="BackgroundImageFix" result="effect1_dropShadow_19_14710"/>
<feBlend mode="normal" in="SourceGraphic" in2="effect1_dropShadow_19_14710" result="shape"/>
</filter>
</defs>
</svg>
