<svg width="177" height="177" viewBox="0 0 177 177" fill="none" xmlns="http://www.w3.org/2000/svg">
<circle cx="88.5" cy="88.5" r="88.5" fill="#0B8292"/>
<circle cx="88.5" cy="88.5" r="88.5" fill="url(#paint0_radial_89_10079)"/>
<circle cx="88.5" cy="88.5" r="88.5" fill="url(#paint1_radial_89_10079)"/>
<circle cx="88.5" cy="88.5" r="88.5" fill="url(#paint2_radial_89_10079)"/>
<path d="M74.8418 84.7777L88.2628 98.9444L133 51.7221" stroke="white" stroke-width="9" stroke-linecap="round" stroke-linejoin="round"/>
<path d="M128.526 89.5V122.556C128.526 125.06 127.584 127.463 125.906 129.234C124.228 131.005 121.952 132 119.579 132H56.9474C54.5744 132 52.2986 131.005 50.6206 129.234C48.9427 127.463 48 125.06 48 122.556V56.4444C48 53.9396 48.9427 51.5374 50.6206 49.7662C52.2986 47.995 54.5744 47 56.9474 47H106.158" stroke="white" stroke-width="9" stroke-linecap="round" stroke-linejoin="round"/>
<defs>
<radialGradient id="paint0_radial_89_10079" cx="0" cy="0" r="1" gradientUnits="userSpaceOnUse" gradientTransform="translate(141.969 24.4297) rotate(129.82) scale(983.741)">
<stop stop-color="#09566E"/>
<stop offset="1" stop-color="white"/>
</radialGradient>
<radialGradient id="paint1_radial_89_10079" cx="0" cy="0" r="1" gradientUnits="userSpaceOnUse" gradientTransform="translate(141.969 24.4297) rotate(129.82) scale(983.741)">
<stop stop-color="#09566E"/>
<stop offset="1" stop-color="white"/>
</radialGradient>
<radialGradient id="paint2_radial_89_10079" cx="0" cy="0" r="1" gradientUnits="userSpaceOnUse" gradientTransform="translate(141.969 24.4297) rotate(129.82) scale(983.741)">
<stop stop-color="#09566E"/>
<stop offset="1" stop-color="white"/>
</radialGradient>
</defs>
</svg>
